%FSLAX46Y46*%
G04 Gerber Fmt 4.6, Leading zero omitted, Abs format (unit mm)*
G04 Created by KiCad (PCBNEW (2014-10-27 BZR 5228)-product) date 1/4/2015 7:21:30 PM*
%MOMM*%
G01*
G04 APERTURE LIST*
%ADD10C,0.100000*%
%ADD11C,1.270000*%
%ADD12R,1.727200X1.727200*%
%ADD13O,1.727200X1.727200*%
%ADD14C,0.889000*%
%ADD15C,0.254000*%
%ADD16C,0.406400*%
G04 APERTURE END LIST*
D10*
D11*
X12954000Y-18859500D03*
D12*
X12700000Y-5080000D03*
D13*
X15240000Y-5080000D03*
X17780000Y-5080000D03*
D12*
X23876000Y-12319000D03*
D13*
X26416000Y-12319000D03*
X23876000Y-14859000D03*
X26416000Y-14859000D03*
X23876000Y-17399000D03*
X26416000Y-17399000D03*
X23876000Y-19939000D03*
X26416000Y-19939000D03*
D11*
X1524000Y-12192000D03*
X1524000Y-8382000D03*
X6604000Y-4826000D03*
X1778000Y-16764000D03*
D12*
X17145000Y-17399000D03*
D13*
X19685000Y-17399000D03*
X17145000Y-14859000D03*
X19685000Y-14859000D03*
X17145000Y-12319000D03*
X19685000Y-12319000D03*
D11*
X4064000Y-4826000D03*
X1524000Y-4826000D03*
D14*
X7747000Y-10160000D03*
X14351000Y-15811500D03*
X21717000Y-13589000D03*
X14922500Y-16891000D03*
X14414500Y-18034000D03*
X7620000Y-8953500D03*
X7747000Y-4064000D03*
X5651500Y-11049000D03*
X9842500Y-10033000D03*
X12446000Y-20320000D03*
X14922500Y-13208000D03*
X11430000Y-13208000D03*
X5143500Y-13144500D03*
X23114000Y-4953000D03*
X15113000Y-8445500D03*
D15*
X17145000Y-12319000D02*
X9906000Y-12319000D01*
X9906000Y-12319000D02*
X7747000Y-10160000D01*
X14351000Y-15811500D02*
X16573500Y-13589000D01*
X16573500Y-13589000D02*
X18415000Y-13589000D01*
X18415000Y-13589000D02*
X19685000Y-14859000D01*
X26416000Y-14859000D02*
X25146000Y-13589000D01*
X25146000Y-13589000D02*
X21717000Y-13589000D01*
X25146000Y-16129000D02*
X26416000Y-17399000D01*
X15684500Y-16129000D02*
X25146000Y-16129000D01*
X14922500Y-16891000D02*
X15684500Y-16129000D01*
X23876000Y-17399000D02*
X22542500Y-18732500D01*
X15113000Y-18732500D02*
X14414500Y-18034000D01*
X22542500Y-18732500D02*
X15113000Y-18732500D01*
D16*
X16002000Y-6858000D02*
X9715500Y-6858000D01*
X9715500Y-6858000D02*
X7620000Y-8953500D01*
X17780000Y-5080000D02*
X16002000Y-6858000D01*
X7747000Y-4064000D02*
X7747000Y-5842000D01*
X7747000Y-5842000D02*
X5651500Y-7937500D01*
X5651500Y-7937500D02*
X5651500Y-11049000D01*
X11366500Y-13144500D02*
X11430000Y-13208000D01*
X5143500Y-13144500D02*
X11366500Y-13144500D01*
X14922500Y-13208000D02*
X11430000Y-13208000D01*
X23114000Y-4953000D02*
X19621500Y-8445500D01*
X19621500Y-8445500D02*
X15113000Y-8445500D01*
D15*
G36*
X28017000Y-21540000D02*
X27756707Y-21540000D01*
X27756707Y-20228497D01*
X27756707Y-19649503D01*
X27543866Y-19158473D01*
X27159318Y-18786271D01*
X26725230Y-18606472D01*
X26892288Y-18573243D01*
X27296065Y-18303448D01*
X27565860Y-17899671D01*
X27660600Y-17423383D01*
X27660600Y-17374617D01*
X27565860Y-16898329D01*
X27296065Y-16494552D01*
X26892288Y-16224757D01*
X26416000Y-16130017D01*
X25956781Y-16221361D01*
X25505210Y-15769790D01*
X25340403Y-15659669D01*
X25146000Y-15621000D01*
X24851245Y-15621000D01*
X25025860Y-15359671D01*
X25120600Y-14883383D01*
X25120600Y-14834617D01*
X25025860Y-14358329D01*
X24851245Y-14097000D01*
X24935580Y-14097000D01*
X25254653Y-14416073D01*
X25171400Y-14834617D01*
X25171400Y-14883383D01*
X25266140Y-15359671D01*
X25535935Y-15763448D01*
X25939712Y-16033243D01*
X26416000Y-16127983D01*
X26892288Y-16033243D01*
X27296065Y-15763448D01*
X27565860Y-15359671D01*
X27660600Y-14883383D01*
X27660600Y-14834617D01*
X27660600Y-12343383D01*
X27660600Y-12294617D01*
X27565860Y-11818329D01*
X27296065Y-11414552D01*
X26892288Y-11144757D01*
X26416000Y-11050017D01*
X25939712Y-11144757D01*
X25535935Y-11414552D01*
X25266140Y-11818329D01*
X25171400Y-12294617D01*
X25171400Y-12343383D01*
X25266140Y-12819671D01*
X25535935Y-13223448D01*
X25939712Y-13493243D01*
X26416000Y-13587983D01*
X26892288Y-13493243D01*
X27296065Y-13223448D01*
X27565860Y-12819671D01*
X27660600Y-12343383D01*
X27660600Y-14834617D01*
X27565860Y-14358329D01*
X27296065Y-13954552D01*
X26892288Y-13684757D01*
X26416000Y-13590017D01*
X25956781Y-13681361D01*
X25505210Y-13229790D01*
X25340403Y-13119669D01*
X25146000Y-13081000D01*
X25120600Y-13081000D01*
X25120600Y-11379614D01*
X25062596Y-11239580D01*
X24955419Y-11132404D01*
X24815385Y-11074400D01*
X24663814Y-11074400D01*
X22936614Y-11074400D01*
X22796580Y-11132404D01*
X22689404Y-11239581D01*
X22631400Y-11379615D01*
X22631400Y-11531186D01*
X22631400Y-13081000D01*
X22376302Y-13081000D01*
X22185219Y-12889583D01*
X21881923Y-12763643D01*
X21553518Y-12763357D01*
X21250002Y-12888767D01*
X21017583Y-13120781D01*
X20891643Y-13424077D01*
X20891357Y-13752482D01*
X21016767Y-14055998D01*
X21248781Y-14288417D01*
X21552077Y-14414357D01*
X21880482Y-14414643D01*
X22183998Y-14289233D01*
X22376566Y-14097000D01*
X22900754Y-14097000D01*
X22726140Y-14358329D01*
X22631400Y-14834617D01*
X22631400Y-14883383D01*
X22726140Y-15359671D01*
X22900754Y-15621000D01*
X20660245Y-15621000D01*
X20834860Y-15359671D01*
X20929600Y-14883383D01*
X20929600Y-14834617D01*
X20834860Y-14358329D01*
X20565065Y-13954552D01*
X20161288Y-13684757D01*
X19994230Y-13651527D01*
X20428318Y-13471729D01*
X20812866Y-13099527D01*
X21025707Y-12608497D01*
X21025707Y-12029503D01*
X20812866Y-11538473D01*
X20428318Y-11166271D01*
X19974496Y-10978299D01*
X19761200Y-11076735D01*
X19761200Y-12242800D01*
X20927488Y-12242800D01*
X21025707Y-12029503D01*
X21025707Y-12608497D01*
X20927488Y-12395200D01*
X19761200Y-12395200D01*
X19761200Y-12415200D01*
X19608800Y-12415200D01*
X19608800Y-12395200D01*
X19588800Y-12395200D01*
X19588800Y-12242800D01*
X19608800Y-12242800D01*
X19608800Y-11076735D01*
X19395504Y-10978299D01*
X18941682Y-11166271D01*
X18557134Y-11538473D01*
X18344293Y-12029503D01*
X18442511Y-12242798D01*
X18379292Y-12242798D01*
X18294860Y-11818329D01*
X18025065Y-11414552D01*
X17621288Y-11144757D01*
X17145000Y-11050017D01*
X16668712Y-11144757D01*
X16264935Y-11414552D01*
X16000037Y-11811000D01*
X10116419Y-11811000D01*
X8572407Y-10266987D01*
X8572643Y-9996518D01*
X8447233Y-9693002D01*
X8247795Y-9493216D01*
X8319417Y-9421719D01*
X8445357Y-9118423D01*
X8445500Y-8954183D01*
X9957483Y-7442200D01*
X16002000Y-7442200D01*
X16225563Y-7397730D01*
X16225564Y-7397730D01*
X16415092Y-7271092D01*
X17426958Y-6259225D01*
X17755617Y-6324600D01*
X17804383Y-6324600D01*
X18280671Y-6229860D01*
X18684448Y-5960065D01*
X18954243Y-5556288D01*
X19048983Y-5080000D01*
X18954243Y-4603712D01*
X18684448Y-4199935D01*
X18280671Y-3930140D01*
X17804383Y-3835400D01*
X17755617Y-3835400D01*
X17279329Y-3930140D01*
X16875552Y-4199935D01*
X16605757Y-4603712D01*
X16511017Y-5080000D01*
X16584482Y-5449333D01*
X16286808Y-5747007D01*
X16414243Y-5556288D01*
X16508983Y-5080000D01*
X16414243Y-4603712D01*
X16144448Y-4199935D01*
X15740671Y-3930140D01*
X15264383Y-3835400D01*
X15215617Y-3835400D01*
X14739329Y-3930140D01*
X14335552Y-4199935D01*
X14065757Y-4603712D01*
X13971017Y-5080000D01*
X14065757Y-5556288D01*
X14335552Y-5960065D01*
X14739329Y-6229860D01*
X14960229Y-6273800D01*
X13762028Y-6273800D01*
X13779420Y-6266596D01*
X13886596Y-6159419D01*
X13944600Y-6019385D01*
X13944600Y-5867814D01*
X13944600Y-4140614D01*
X13886596Y-4000580D01*
X13779419Y-3893404D01*
X13639385Y-3835400D01*
X13487814Y-3835400D01*
X11760614Y-3835400D01*
X11620580Y-3893404D01*
X11513404Y-4000581D01*
X11455400Y-4140615D01*
X11455400Y-4292186D01*
X11455400Y-6019386D01*
X11513404Y-6159420D01*
X11620581Y-6266596D01*
X11637972Y-6273800D01*
X9715505Y-6273800D01*
X9715500Y-6273799D01*
X9491937Y-6318269D01*
X9429047Y-6360290D01*
X9302408Y-6444908D01*
X9302405Y-6444911D01*
X7619317Y-8127998D01*
X7456518Y-8127857D01*
X7153002Y-8253267D01*
X6920583Y-8485281D01*
X6794643Y-8788577D01*
X6794357Y-9116982D01*
X6919767Y-9420498D01*
X7119204Y-9620283D01*
X7047583Y-9691781D01*
X6921643Y-9995077D01*
X6921357Y-10323482D01*
X7046767Y-10626998D01*
X7278781Y-10859417D01*
X7582077Y-10985357D01*
X7854173Y-10985593D01*
X9546790Y-12678210D01*
X9711596Y-12788331D01*
X9711597Y-12788331D01*
X9906000Y-12827000D01*
X16000037Y-12827000D01*
X16252232Y-13204437D01*
X16214290Y-13229790D01*
X14457987Y-14986092D01*
X14187518Y-14985857D01*
X13884002Y-15111267D01*
X13651583Y-15343281D01*
X13525643Y-15646577D01*
X13525357Y-15974982D01*
X13650767Y-16278498D01*
X13882781Y-16510917D01*
X14141821Y-16618480D01*
X14097143Y-16726077D01*
X14096857Y-17054482D01*
X14173646Y-17240326D01*
X13947502Y-17333767D01*
X13715083Y-17565781D01*
X13589143Y-17869077D01*
X13588978Y-18057491D01*
X13530269Y-17998679D01*
X13156982Y-17843676D01*
X12752792Y-17843324D01*
X12379234Y-17997675D01*
X12093179Y-18283231D01*
X11938176Y-18656518D01*
X11937824Y-19060708D01*
X12092175Y-19434266D01*
X12377731Y-19720321D01*
X12751018Y-19875324D01*
X13155208Y-19875676D01*
X13528766Y-19721325D01*
X13814821Y-19435769D01*
X13969824Y-19062482D01*
X13970101Y-18743308D01*
X14249577Y-18859357D01*
X14521673Y-18859593D01*
X14753790Y-19091710D01*
X14918596Y-19201831D01*
X14918597Y-19201831D01*
X15113000Y-19240500D01*
X22542500Y-19240500D01*
X22736903Y-19201831D01*
X22901710Y-19091710D01*
X23416781Y-18576638D01*
X23876000Y-18667983D01*
X24352288Y-18573243D01*
X24756065Y-18303448D01*
X25025860Y-17899671D01*
X25120600Y-17423383D01*
X25120600Y-17374617D01*
X25025860Y-16898329D01*
X24851245Y-16637000D01*
X24935580Y-16637000D01*
X25254653Y-16956073D01*
X25171400Y-17374617D01*
X25171400Y-17423383D01*
X25266140Y-17899671D01*
X25535935Y-18303448D01*
X25939712Y-18573243D01*
X26106769Y-18606472D01*
X25672682Y-18786271D01*
X25288134Y-19158473D01*
X25075293Y-19649503D01*
X25173511Y-19862798D01*
X25110292Y-19862798D01*
X25025860Y-19438329D01*
X24756065Y-19034552D01*
X24352288Y-18764757D01*
X23876000Y-18670017D01*
X23399712Y-18764757D01*
X22995935Y-19034552D01*
X22726140Y-19438329D01*
X22631400Y-19914617D01*
X22631400Y-19963383D01*
X22726140Y-20439671D01*
X22995935Y-20843448D01*
X23399712Y-21113243D01*
X23876000Y-21207983D01*
X24352288Y-21113243D01*
X24756065Y-20843448D01*
X25025860Y-20439671D01*
X25110292Y-20015202D01*
X25120600Y-20015202D01*
X25173511Y-20015202D01*
X25120600Y-20130106D01*
X25075293Y-20228497D01*
X25288134Y-20719527D01*
X25672682Y-21091729D01*
X26126504Y-21279701D01*
X26339800Y-21181265D01*
X26339800Y-20015200D01*
X26319800Y-20015200D01*
X26319800Y-19862800D01*
X26339800Y-19862800D01*
X26339800Y-19842800D01*
X26492200Y-19842800D01*
X26492200Y-19862800D01*
X27658488Y-19862800D01*
X27756707Y-19649503D01*
X27756707Y-20228497D01*
X27658488Y-20015200D01*
X26492200Y-20015200D01*
X26492200Y-21181265D01*
X26705496Y-21279701D01*
X27159318Y-21091729D01*
X27543866Y-20719527D01*
X27756707Y-20228497D01*
X27756707Y-21540000D01*
X26339800Y-21540000D01*
X2914661Y-21540000D01*
X2914661Y-17021179D01*
X2914661Y-16506821D01*
X2729720Y-16091416D01*
X2540176Y-15911539D01*
X2540176Y-11990792D01*
X2540176Y-8180792D01*
X2540176Y-4624792D01*
X2385825Y-4251234D01*
X2100269Y-3965179D01*
X1726982Y-3810176D01*
X1322792Y-3809824D01*
X949234Y-3964175D01*
X663179Y-4249731D01*
X508176Y-4623018D01*
X507824Y-5027208D01*
X662175Y-5400766D01*
X947731Y-5686821D01*
X1321018Y-5841824D01*
X1725208Y-5842176D01*
X2098766Y-5687825D01*
X2384821Y-5402269D01*
X2539824Y-5028982D01*
X2540176Y-4624792D01*
X2540176Y-8180792D01*
X2385825Y-7807234D01*
X2100269Y-7521179D01*
X1726982Y-7366176D01*
X1322792Y-7365824D01*
X949234Y-7520175D01*
X663179Y-7805731D01*
X508176Y-8179018D01*
X507824Y-8583208D01*
X662175Y-8956766D01*
X947731Y-9242821D01*
X1321018Y-9397824D01*
X1725208Y-9398176D01*
X2098766Y-9243825D01*
X2384821Y-8958269D01*
X2539824Y-8584982D01*
X2540176Y-8180792D01*
X2540176Y-11990792D01*
X2385825Y-11617234D01*
X2100269Y-11331179D01*
X1726982Y-11176176D01*
X1322792Y-11175824D01*
X949234Y-11330175D01*
X663179Y-11615731D01*
X508176Y-11989018D01*
X507824Y-12393208D01*
X662175Y-12766766D01*
X947731Y-13052821D01*
X1321018Y-13207824D01*
X1725208Y-13208176D01*
X2098766Y-13053825D01*
X2384821Y-12768269D01*
X2539824Y-12394982D01*
X2540176Y-11990792D01*
X2540176Y-15911539D01*
X2399888Y-15778406D01*
X2035179Y-15627339D01*
X1854200Y-15728407D01*
X1854200Y-16687800D01*
X2813593Y-16687800D01*
X2914661Y-16506821D01*
X2914661Y-17021179D01*
X2813593Y-16840200D01*
X1854200Y-16840200D01*
X1854200Y-17799593D01*
X2035179Y-17900661D01*
X2450584Y-17715720D01*
X2763594Y-17385888D01*
X2914661Y-17021179D01*
X2914661Y-21540000D01*
X1701800Y-21540000D01*
X1701800Y-17799593D01*
X1701800Y-16840200D01*
X1701800Y-16687800D01*
X1701800Y-15728407D01*
X1520821Y-15627339D01*
X1105416Y-15812280D01*
X792406Y-16142112D01*
X641339Y-16506821D01*
X742407Y-16687800D01*
X1701800Y-16687800D01*
X1701800Y-16840200D01*
X742407Y-16840200D01*
X641339Y-17021179D01*
X826280Y-17436584D01*
X1156112Y-17749594D01*
X1520821Y-17900661D01*
X1701800Y-17799593D01*
X1701800Y-21540000D01*
X431000Y-21540000D01*
X431000Y-3733000D01*
X6990604Y-3733000D01*
X6936266Y-3863859D01*
X6806982Y-3810176D01*
X6402792Y-3809824D01*
X6029234Y-3964175D01*
X5743179Y-4249731D01*
X5588176Y-4623018D01*
X5587824Y-5027208D01*
X5742175Y-5400766D01*
X6027731Y-5686821D01*
X6401018Y-5841824D01*
X6805208Y-5842176D01*
X7001920Y-5760895D01*
X5238408Y-7524408D01*
X5111770Y-7713936D01*
X5080176Y-7872768D01*
X5080176Y-4624792D01*
X4925825Y-4251234D01*
X4640269Y-3965179D01*
X4266982Y-3810176D01*
X3862792Y-3809824D01*
X3489234Y-3964175D01*
X3203179Y-4249731D01*
X3048176Y-4623018D01*
X3047824Y-5027208D01*
X3202175Y-5400766D01*
X3487731Y-5686821D01*
X3861018Y-5841824D01*
X4265208Y-5842176D01*
X4638766Y-5687825D01*
X4924821Y-5402269D01*
X5079824Y-5028982D01*
X5080176Y-4624792D01*
X5080176Y-7872768D01*
X5067300Y-7937500D01*
X5067300Y-10465764D01*
X4952083Y-10580781D01*
X4826143Y-10884077D01*
X4825857Y-11212482D01*
X4951267Y-11515998D01*
X5183281Y-11748417D01*
X5486577Y-11874357D01*
X5814982Y-11874643D01*
X6118498Y-11749233D01*
X6350917Y-11517219D01*
X6476857Y-11213923D01*
X6477143Y-10885518D01*
X6351733Y-10582002D01*
X6235700Y-10465766D01*
X6235700Y-8179483D01*
X8160088Y-6255094D01*
X8160092Y-6255092D01*
X8160092Y-6255091D01*
X8244709Y-6128453D01*
X8286730Y-6065564D01*
X8286731Y-6065563D01*
X8331200Y-5842000D01*
X8331201Y-5842000D01*
X8331200Y-5841994D01*
X8331200Y-4647235D01*
X8446417Y-4532219D01*
X8572357Y-4228923D01*
X8572643Y-3900518D01*
X8503426Y-3733000D01*
X13462000Y-3733000D01*
X28017000Y-3733000D01*
X28017000Y-21540000D01*
X28017000Y-21540000D01*
G37*
X28017000Y-21540000D02*
X27756707Y-21540000D01*
X27756707Y-20228497D01*
X27756707Y-19649503D01*
X27543866Y-19158473D01*
X27159318Y-18786271D01*
X26725230Y-18606472D01*
X26892288Y-18573243D01*
X27296065Y-18303448D01*
X27565860Y-17899671D01*
X27660600Y-17423383D01*
X27660600Y-17374617D01*
X27565860Y-16898329D01*
X27296065Y-16494552D01*
X26892288Y-16224757D01*
X26416000Y-16130017D01*
X25956781Y-16221361D01*
X25505210Y-15769790D01*
X25340403Y-15659669D01*
X25146000Y-15621000D01*
X24851245Y-15621000D01*
X25025860Y-15359671D01*
X25120600Y-14883383D01*
X25120600Y-14834617D01*
X25025860Y-14358329D01*
X24851245Y-14097000D01*
X24935580Y-14097000D01*
X25254653Y-14416073D01*
X25171400Y-14834617D01*
X25171400Y-14883383D01*
X25266140Y-15359671D01*
X25535935Y-15763448D01*
X25939712Y-16033243D01*
X26416000Y-16127983D01*
X26892288Y-16033243D01*
X27296065Y-15763448D01*
X27565860Y-15359671D01*
X27660600Y-14883383D01*
X27660600Y-14834617D01*
X27660600Y-12343383D01*
X27660600Y-12294617D01*
X27565860Y-11818329D01*
X27296065Y-11414552D01*
X26892288Y-11144757D01*
X26416000Y-11050017D01*
X25939712Y-11144757D01*
X25535935Y-11414552D01*
X25266140Y-11818329D01*
X25171400Y-12294617D01*
X25171400Y-12343383D01*
X25266140Y-12819671D01*
X25535935Y-13223448D01*
X25939712Y-13493243D01*
X26416000Y-13587983D01*
X26892288Y-13493243D01*
X27296065Y-13223448D01*
X27565860Y-12819671D01*
X27660600Y-12343383D01*
X27660600Y-14834617D01*
X27565860Y-14358329D01*
X27296065Y-13954552D01*
X26892288Y-13684757D01*
X26416000Y-13590017D01*
X25956781Y-13681361D01*
X25505210Y-13229790D01*
X25340403Y-13119669D01*
X25146000Y-13081000D01*
X25120600Y-13081000D01*
X25120600Y-11379614D01*
X25062596Y-11239580D01*
X24955419Y-11132404D01*
X24815385Y-11074400D01*
X24663814Y-11074400D01*
X22936614Y-11074400D01*
X22796580Y-11132404D01*
X22689404Y-11239581D01*
X22631400Y-11379615D01*
X22631400Y-11531186D01*
X22631400Y-13081000D01*
X22376302Y-13081000D01*
X22185219Y-12889583D01*
X21881923Y-12763643D01*
X21553518Y-12763357D01*
X21250002Y-12888767D01*
X21017583Y-13120781D01*
X20891643Y-13424077D01*
X20891357Y-13752482D01*
X21016767Y-14055998D01*
X21248781Y-14288417D01*
X21552077Y-14414357D01*
X21880482Y-14414643D01*
X22183998Y-14289233D01*
X22376566Y-14097000D01*
X22900754Y-14097000D01*
X22726140Y-14358329D01*
X22631400Y-14834617D01*
X22631400Y-14883383D01*
X22726140Y-15359671D01*
X22900754Y-15621000D01*
X20660245Y-15621000D01*
X20834860Y-15359671D01*
X20929600Y-14883383D01*
X20929600Y-14834617D01*
X20834860Y-14358329D01*
X20565065Y-13954552D01*
X20161288Y-13684757D01*
X19994230Y-13651527D01*
X20428318Y-13471729D01*
X20812866Y-13099527D01*
X21025707Y-12608497D01*
X21025707Y-12029503D01*
X20812866Y-11538473D01*
X20428318Y-11166271D01*
X19974496Y-10978299D01*
X19761200Y-11076735D01*
X19761200Y-12242800D01*
X20927488Y-12242800D01*
X21025707Y-12029503D01*
X21025707Y-12608497D01*
X20927488Y-12395200D01*
X19761200Y-12395200D01*
X19761200Y-12415200D01*
X19608800Y-12415200D01*
X19608800Y-12395200D01*
X19588800Y-12395200D01*
X19588800Y-12242800D01*
X19608800Y-12242800D01*
X19608800Y-11076735D01*
X19395504Y-10978299D01*
X18941682Y-11166271D01*
X18557134Y-11538473D01*
X18344293Y-12029503D01*
X18442511Y-12242798D01*
X18379292Y-12242798D01*
X18294860Y-11818329D01*
X18025065Y-11414552D01*
X17621288Y-11144757D01*
X17145000Y-11050017D01*
X16668712Y-11144757D01*
X16264935Y-11414552D01*
X16000037Y-11811000D01*
X10116419Y-11811000D01*
X8572407Y-10266987D01*
X8572643Y-9996518D01*
X8447233Y-9693002D01*
X8247795Y-9493216D01*
X8319417Y-9421719D01*
X8445357Y-9118423D01*
X8445500Y-8954183D01*
X9957483Y-7442200D01*
X16002000Y-7442200D01*
X16225563Y-7397730D01*
X16225564Y-7397730D01*
X16415092Y-7271092D01*
X17426958Y-6259225D01*
X17755617Y-6324600D01*
X17804383Y-6324600D01*
X18280671Y-6229860D01*
X18684448Y-5960065D01*
X18954243Y-5556288D01*
X19048983Y-5080000D01*
X18954243Y-4603712D01*
X18684448Y-4199935D01*
X18280671Y-3930140D01*
X17804383Y-3835400D01*
X17755617Y-3835400D01*
X17279329Y-3930140D01*
X16875552Y-4199935D01*
X16605757Y-4603712D01*
X16511017Y-5080000D01*
X16584482Y-5449333D01*
X16286808Y-5747007D01*
X16414243Y-5556288D01*
X16508983Y-5080000D01*
X16414243Y-4603712D01*
X16144448Y-4199935D01*
X15740671Y-3930140D01*
X15264383Y-3835400D01*
X15215617Y-3835400D01*
X14739329Y-3930140D01*
X14335552Y-4199935D01*
X14065757Y-4603712D01*
X13971017Y-5080000D01*
X14065757Y-5556288D01*
X14335552Y-5960065D01*
X14739329Y-6229860D01*
X14960229Y-6273800D01*
X13762028Y-6273800D01*
X13779420Y-6266596D01*
X13886596Y-6159419D01*
X13944600Y-6019385D01*
X13944600Y-5867814D01*
X13944600Y-4140614D01*
X13886596Y-4000580D01*
X13779419Y-3893404D01*
X13639385Y-3835400D01*
X13487814Y-3835400D01*
X11760614Y-3835400D01*
X11620580Y-3893404D01*
X11513404Y-4000581D01*
X11455400Y-4140615D01*
X11455400Y-4292186D01*
X11455400Y-6019386D01*
X11513404Y-6159420D01*
X11620581Y-6266596D01*
X11637972Y-6273800D01*
X9715505Y-6273800D01*
X9715500Y-6273799D01*
X9491937Y-6318269D01*
X9429047Y-6360290D01*
X9302408Y-6444908D01*
X9302405Y-6444911D01*
X7619317Y-8127998D01*
X7456518Y-8127857D01*
X7153002Y-8253267D01*
X6920583Y-8485281D01*
X6794643Y-8788577D01*
X6794357Y-9116982D01*
X6919767Y-9420498D01*
X7119204Y-9620283D01*
X7047583Y-9691781D01*
X6921643Y-9995077D01*
X6921357Y-10323482D01*
X7046767Y-10626998D01*
X7278781Y-10859417D01*
X7582077Y-10985357D01*
X7854173Y-10985593D01*
X9546790Y-12678210D01*
X9711596Y-12788331D01*
X9711597Y-12788331D01*
X9906000Y-12827000D01*
X16000037Y-12827000D01*
X16252232Y-13204437D01*
X16214290Y-13229790D01*
X14457987Y-14986092D01*
X14187518Y-14985857D01*
X13884002Y-15111267D01*
X13651583Y-15343281D01*
X13525643Y-15646577D01*
X13525357Y-15974982D01*
X13650767Y-16278498D01*
X13882781Y-16510917D01*
X14141821Y-16618480D01*
X14097143Y-16726077D01*
X14096857Y-17054482D01*
X14173646Y-17240326D01*
X13947502Y-17333767D01*
X13715083Y-17565781D01*
X13589143Y-17869077D01*
X13588978Y-18057491D01*
X13530269Y-17998679D01*
X13156982Y-17843676D01*
X12752792Y-17843324D01*
X12379234Y-17997675D01*
X12093179Y-18283231D01*
X11938176Y-18656518D01*
X11937824Y-19060708D01*
X12092175Y-19434266D01*
X12377731Y-19720321D01*
X12751018Y-19875324D01*
X13155208Y-19875676D01*
X13528766Y-19721325D01*
X13814821Y-19435769D01*
X13969824Y-19062482D01*
X13970101Y-18743308D01*
X14249577Y-18859357D01*
X14521673Y-18859593D01*
X14753790Y-19091710D01*
X14918596Y-19201831D01*
X14918597Y-19201831D01*
X15113000Y-19240500D01*
X22542500Y-19240500D01*
X22736903Y-19201831D01*
X22901710Y-19091710D01*
X23416781Y-18576638D01*
X23876000Y-18667983D01*
X24352288Y-18573243D01*
X24756065Y-18303448D01*
X25025860Y-17899671D01*
X25120600Y-17423383D01*
X25120600Y-17374617D01*
X25025860Y-16898329D01*
X24851245Y-16637000D01*
X24935580Y-16637000D01*
X25254653Y-16956073D01*
X25171400Y-17374617D01*
X25171400Y-17423383D01*
X25266140Y-17899671D01*
X25535935Y-18303448D01*
X25939712Y-18573243D01*
X26106769Y-18606472D01*
X25672682Y-18786271D01*
X25288134Y-19158473D01*
X25075293Y-19649503D01*
X25173511Y-19862798D01*
X25110292Y-19862798D01*
X25025860Y-19438329D01*
X24756065Y-19034552D01*
X24352288Y-18764757D01*
X23876000Y-18670017D01*
X23399712Y-18764757D01*
X22995935Y-19034552D01*
X22726140Y-19438329D01*
X22631400Y-19914617D01*
X22631400Y-19963383D01*
X22726140Y-20439671D01*
X22995935Y-20843448D01*
X23399712Y-21113243D01*
X23876000Y-21207983D01*
X24352288Y-21113243D01*
X24756065Y-20843448D01*
X25025860Y-20439671D01*
X25110292Y-20015202D01*
X25120600Y-20015202D01*
X25173511Y-20015202D01*
X25120600Y-20130106D01*
X25075293Y-20228497D01*
X25288134Y-20719527D01*
X25672682Y-21091729D01*
X26126504Y-21279701D01*
X26339800Y-21181265D01*
X26339800Y-20015200D01*
X26319800Y-20015200D01*
X26319800Y-19862800D01*
X26339800Y-19862800D01*
X26339800Y-19842800D01*
X26492200Y-19842800D01*
X26492200Y-19862800D01*
X27658488Y-19862800D01*
X27756707Y-19649503D01*
X27756707Y-20228497D01*
X27658488Y-20015200D01*
X26492200Y-20015200D01*
X26492200Y-21181265D01*
X26705496Y-21279701D01*
X27159318Y-21091729D01*
X27543866Y-20719527D01*
X27756707Y-20228497D01*
X27756707Y-21540000D01*
X26339800Y-21540000D01*
X2914661Y-21540000D01*
X2914661Y-17021179D01*
X2914661Y-16506821D01*
X2729720Y-16091416D01*
X2540176Y-15911539D01*
X2540176Y-11990792D01*
X2540176Y-8180792D01*
X2540176Y-4624792D01*
X2385825Y-4251234D01*
X2100269Y-3965179D01*
X1726982Y-3810176D01*
X1322792Y-3809824D01*
X949234Y-3964175D01*
X663179Y-4249731D01*
X508176Y-4623018D01*
X507824Y-5027208D01*
X662175Y-5400766D01*
X947731Y-5686821D01*
X1321018Y-5841824D01*
X1725208Y-5842176D01*
X2098766Y-5687825D01*
X2384821Y-5402269D01*
X2539824Y-5028982D01*
X2540176Y-4624792D01*
X2540176Y-8180792D01*
X2385825Y-7807234D01*
X2100269Y-7521179D01*
X1726982Y-7366176D01*
X1322792Y-7365824D01*
X949234Y-7520175D01*
X663179Y-7805731D01*
X508176Y-8179018D01*
X507824Y-8583208D01*
X662175Y-8956766D01*
X947731Y-9242821D01*
X1321018Y-9397824D01*
X1725208Y-9398176D01*
X2098766Y-9243825D01*
X2384821Y-8958269D01*
X2539824Y-8584982D01*
X2540176Y-8180792D01*
X2540176Y-11990792D01*
X2385825Y-11617234D01*
X2100269Y-11331179D01*
X1726982Y-11176176D01*
X1322792Y-11175824D01*
X949234Y-11330175D01*
X663179Y-11615731D01*
X508176Y-11989018D01*
X507824Y-12393208D01*
X662175Y-12766766D01*
X947731Y-13052821D01*
X1321018Y-13207824D01*
X1725208Y-13208176D01*
X2098766Y-13053825D01*
X2384821Y-12768269D01*
X2539824Y-12394982D01*
X2540176Y-11990792D01*
X2540176Y-15911539D01*
X2399888Y-15778406D01*
X2035179Y-15627339D01*
X1854200Y-15728407D01*
X1854200Y-16687800D01*
X2813593Y-16687800D01*
X2914661Y-16506821D01*
X2914661Y-17021179D01*
X2813593Y-16840200D01*
X1854200Y-16840200D01*
X1854200Y-17799593D01*
X2035179Y-17900661D01*
X2450584Y-17715720D01*
X2763594Y-17385888D01*
X2914661Y-17021179D01*
X2914661Y-21540000D01*
X1701800Y-21540000D01*
X1701800Y-17799593D01*
X1701800Y-16840200D01*
X1701800Y-16687800D01*
X1701800Y-15728407D01*
X1520821Y-15627339D01*
X1105416Y-15812280D01*
X792406Y-16142112D01*
X641339Y-16506821D01*
X742407Y-16687800D01*
X1701800Y-16687800D01*
X1701800Y-16840200D01*
X742407Y-16840200D01*
X641339Y-17021179D01*
X826280Y-17436584D01*
X1156112Y-17749594D01*
X1520821Y-17900661D01*
X1701800Y-17799593D01*
X1701800Y-21540000D01*
X431000Y-21540000D01*
X431000Y-3733000D01*
X6990604Y-3733000D01*
X6936266Y-3863859D01*
X6806982Y-3810176D01*
X6402792Y-3809824D01*
X6029234Y-3964175D01*
X5743179Y-4249731D01*
X5588176Y-4623018D01*
X5587824Y-5027208D01*
X5742175Y-5400766D01*
X6027731Y-5686821D01*
X6401018Y-5841824D01*
X6805208Y-5842176D01*
X7001920Y-5760895D01*
X5238408Y-7524408D01*
X5111770Y-7713936D01*
X5080176Y-7872768D01*
X5080176Y-4624792D01*
X4925825Y-4251234D01*
X4640269Y-3965179D01*
X4266982Y-3810176D01*
X3862792Y-3809824D01*
X3489234Y-3964175D01*
X3203179Y-4249731D01*
X3048176Y-4623018D01*
X3047824Y-5027208D01*
X3202175Y-5400766D01*
X3487731Y-5686821D01*
X3861018Y-5841824D01*
X4265208Y-5842176D01*
X4638766Y-5687825D01*
X4924821Y-5402269D01*
X5079824Y-5028982D01*
X5080176Y-4624792D01*
X5080176Y-7872768D01*
X5067300Y-7937500D01*
X5067300Y-10465764D01*
X4952083Y-10580781D01*
X4826143Y-10884077D01*
X4825857Y-11212482D01*
X4951267Y-11515998D01*
X5183281Y-11748417D01*
X5486577Y-11874357D01*
X5814982Y-11874643D01*
X6118498Y-11749233D01*
X6350917Y-11517219D01*
X6476857Y-11213923D01*
X6477143Y-10885518D01*
X6351733Y-10582002D01*
X6235700Y-10465766D01*
X6235700Y-8179483D01*
X8160088Y-6255094D01*
X8160092Y-6255092D01*
X8160092Y-6255091D01*
X8244709Y-6128453D01*
X8286730Y-6065564D01*
X8286731Y-6065563D01*
X8331200Y-5842000D01*
X8331201Y-5842000D01*
X8331200Y-5841994D01*
X8331200Y-4647235D01*
X8446417Y-4532219D01*
X8572357Y-4228923D01*
X8572643Y-3900518D01*
X8503426Y-3733000D01*
X13462000Y-3733000D01*
X28017000Y-3733000D01*
X28017000Y-21540000D01*
M02*
