%FSLAX46Y46*%
G04 Gerber Fmt 4.6, Leading zero omitted, Abs format (unit mm)*
G04 Created by KiCad (PCBNEW (2014-10-27 BZR 5228)-product) date 1/4/2015 7:21:31 PM*
%MOMM*%
G01*
G04 APERTURE LIST*
%ADD10C,0.100000*%
%ADD11C,0.150000*%
%ADD12C,0.203200*%
%ADD13C,1.270000*%
%ADD14R,1.727200X1.727200*%
%ADD15O,1.727200X1.727200*%
G04 APERTURE END LIST*
D10*
D11*
X22296381Y-16621095D02*
X21296381Y-16621095D01*
X22248762Y-17049666D02*
X22296381Y-17192523D01*
X22296381Y-17430619D01*
X22248762Y-17525857D01*
X22201143Y-17573476D01*
X22105905Y-17621095D01*
X22010667Y-17621095D01*
X21915429Y-17573476D01*
X21867810Y-17525857D01*
X21820190Y-17430619D01*
X21772571Y-17240142D01*
X21724952Y-17144904D01*
X21677333Y-17097285D01*
X21582095Y-17049666D01*
X21486857Y-17049666D01*
X21391619Y-17097285D01*
X21344000Y-17144904D01*
X21296381Y-17240142D01*
X21296381Y-17478238D01*
X21344000Y-17621095D01*
X22296381Y-18049666D02*
X21296381Y-18049666D01*
X21296381Y-18430619D01*
X21344000Y-18525857D01*
X21391619Y-18573476D01*
X21486857Y-18621095D01*
X21629714Y-18621095D01*
X21724952Y-18573476D01*
X21772571Y-18525857D01*
X21820190Y-18430619D01*
X21820190Y-18049666D01*
X11922143Y-18311881D02*
X11684048Y-19311881D01*
X11493571Y-18597595D01*
X11303095Y-19311881D01*
X11065000Y-18311881D01*
X10684048Y-19311881D02*
X10684048Y-18311881D01*
X10255476Y-19311881D02*
X10255476Y-18788071D01*
X10303095Y-18692833D01*
X10398333Y-18645214D01*
X10541191Y-18645214D01*
X10636429Y-18692833D01*
X10684048Y-18740452D01*
X9779286Y-19311881D02*
X9779286Y-18645214D01*
X9779286Y-18311881D02*
X9826905Y-18359500D01*
X9779286Y-18407119D01*
X9731667Y-18359500D01*
X9779286Y-18311881D01*
X9779286Y-18407119D01*
X9445953Y-18645214D02*
X9065001Y-18645214D01*
X9303096Y-18311881D02*
X9303096Y-19169024D01*
X9255477Y-19264262D01*
X9160239Y-19311881D01*
X9065001Y-19311881D01*
X8350714Y-19264262D02*
X8445952Y-19311881D01*
X8636429Y-19311881D01*
X8731667Y-19264262D01*
X8779286Y-19169024D01*
X8779286Y-18788071D01*
X8731667Y-18692833D01*
X8636429Y-18645214D01*
X8445952Y-18645214D01*
X8350714Y-18692833D01*
X8303095Y-18788071D01*
X8303095Y-18883310D01*
X8779286Y-18978548D01*
X6683429Y-12168190D02*
X6683429Y-12644381D01*
X7016762Y-11644381D02*
X6683429Y-12168190D01*
X6350095Y-11644381D01*
X5635809Y-12596762D02*
X5731047Y-12644381D01*
X5921524Y-12644381D01*
X6016762Y-12596762D01*
X6064381Y-12501524D01*
X6064381Y-12120571D01*
X6016762Y-12025333D01*
X5921524Y-11977714D01*
X5731047Y-11977714D01*
X5635809Y-12025333D01*
X5588190Y-12120571D01*
X5588190Y-12215810D01*
X6064381Y-12311048D01*
X5016762Y-12644381D02*
X5112000Y-12596762D01*
X5159619Y-12501524D01*
X5159619Y-11644381D01*
X4492952Y-12644381D02*
X4588190Y-12596762D01*
X4635809Y-12501524D01*
X4635809Y-11644381D01*
X3969142Y-12644381D02*
X4064380Y-12596762D01*
X4111999Y-12549143D01*
X4159618Y-12453905D01*
X4159618Y-12168190D01*
X4111999Y-12072952D01*
X4064380Y-12025333D01*
X3969142Y-11977714D01*
X3826284Y-11977714D01*
X3731046Y-12025333D01*
X3683427Y-12072952D01*
X3635808Y-12168190D01*
X3635808Y-12453905D01*
X3683427Y-12549143D01*
X3731046Y-12596762D01*
X3826284Y-12644381D01*
X3969142Y-12644381D01*
X3302475Y-11977714D02*
X3111999Y-12644381D01*
X2921522Y-12168190D01*
X2731046Y-12644381D01*
X2540570Y-11977714D01*
X5667429Y-8850381D02*
X5476952Y-8850381D01*
X5381714Y-8898000D01*
X5286476Y-8993238D01*
X5238857Y-9183714D01*
X5238857Y-9517048D01*
X5286476Y-9707524D01*
X5381714Y-9802762D01*
X5476952Y-9850381D01*
X5667429Y-9850381D01*
X5762667Y-9802762D01*
X5857905Y-9707524D01*
X5905524Y-9517048D01*
X5905524Y-9183714D01*
X5857905Y-8993238D01*
X5762667Y-8898000D01*
X5667429Y-8850381D01*
X4810286Y-9850381D02*
X4810286Y-9183714D01*
X4810286Y-9374190D02*
X4762667Y-9278952D01*
X4715048Y-9231333D01*
X4619810Y-9183714D01*
X4524571Y-9183714D01*
X3762666Y-9850381D02*
X3762666Y-9326571D01*
X3810285Y-9231333D01*
X3905523Y-9183714D01*
X4096000Y-9183714D01*
X4191238Y-9231333D01*
X3762666Y-9802762D02*
X3857904Y-9850381D01*
X4096000Y-9850381D01*
X4191238Y-9802762D01*
X4238857Y-9707524D01*
X4238857Y-9612286D01*
X4191238Y-9517048D01*
X4096000Y-9469429D01*
X3857904Y-9469429D01*
X3762666Y-9421810D01*
X3286476Y-9183714D02*
X3286476Y-9850381D01*
X3286476Y-9278952D02*
X3238857Y-9231333D01*
X3143619Y-9183714D01*
X3000761Y-9183714D01*
X2905523Y-9231333D01*
X2857904Y-9326571D01*
X2857904Y-9850381D01*
X1953142Y-9183714D02*
X1953142Y-9993238D01*
X2000761Y-10088476D01*
X2048380Y-10136095D01*
X2143619Y-10183714D01*
X2286476Y-10183714D01*
X2381714Y-10136095D01*
X1953142Y-9802762D02*
X2048380Y-9850381D01*
X2238857Y-9850381D01*
X2334095Y-9802762D01*
X2381714Y-9755143D01*
X2429333Y-9659905D01*
X2429333Y-9374190D01*
X2381714Y-9278952D01*
X2334095Y-9231333D01*
X2238857Y-9183714D01*
X2048380Y-9183714D01*
X1953142Y-9231333D01*
X1095999Y-9802762D02*
X1191237Y-9850381D01*
X1381714Y-9850381D01*
X1476952Y-9802762D01*
X1524571Y-9707524D01*
X1524571Y-9326571D01*
X1476952Y-9231333D01*
X1381714Y-9183714D01*
X1191237Y-9183714D01*
X1095999Y-9231333D01*
X1048380Y-9326571D01*
X1048380Y-9421810D01*
X1524571Y-9517048D01*
X7056381Y-6397524D02*
X6580190Y-6064190D01*
X7056381Y-5826095D02*
X6056381Y-5826095D01*
X6056381Y-6207048D01*
X6104000Y-6302286D01*
X6151619Y-6349905D01*
X6246857Y-6397524D01*
X6389714Y-6397524D01*
X6484952Y-6349905D01*
X6532571Y-6302286D01*
X6580190Y-6207048D01*
X6580190Y-5826095D01*
X7008762Y-7207048D02*
X7056381Y-7111810D01*
X7056381Y-6921333D01*
X7008762Y-6826095D01*
X6913524Y-6778476D01*
X6532571Y-6778476D01*
X6437333Y-6826095D01*
X6389714Y-6921333D01*
X6389714Y-7111810D01*
X6437333Y-7207048D01*
X6532571Y-7254667D01*
X6627810Y-7254667D01*
X6723048Y-6778476D01*
X7056381Y-8111810D02*
X6056381Y-8111810D01*
X7008762Y-8111810D02*
X7056381Y-8016572D01*
X7056381Y-7826095D01*
X7008762Y-7730857D01*
X6961143Y-7683238D01*
X6865905Y-7635619D01*
X6580190Y-7635619D01*
X6484952Y-7683238D01*
X6437333Y-7730857D01*
X6389714Y-7826095D01*
X6389714Y-8016572D01*
X6437333Y-8111810D01*
X6286571Y-16692571D02*
X6143714Y-16740190D01*
X6096095Y-16787810D01*
X6048476Y-16883048D01*
X6048476Y-17025905D01*
X6096095Y-17121143D01*
X6143714Y-17168762D01*
X6238952Y-17216381D01*
X6619905Y-17216381D01*
X6619905Y-16216381D01*
X6286571Y-16216381D01*
X6191333Y-16264000D01*
X6143714Y-16311619D01*
X6096095Y-16406857D01*
X6096095Y-16502095D01*
X6143714Y-16597333D01*
X6191333Y-16644952D01*
X6286571Y-16692571D01*
X6619905Y-16692571D01*
X5619905Y-17216381D02*
X5619905Y-16549714D01*
X5619905Y-16740190D02*
X5572286Y-16644952D01*
X5524667Y-16597333D01*
X5429429Y-16549714D01*
X5334190Y-16549714D01*
X4858000Y-17216381D02*
X4953238Y-17168762D01*
X5000857Y-17121143D01*
X5048476Y-17025905D01*
X5048476Y-16740190D01*
X5000857Y-16644952D01*
X4953238Y-16597333D01*
X4858000Y-16549714D01*
X4715142Y-16549714D01*
X4619904Y-16597333D01*
X4572285Y-16644952D01*
X4524666Y-16740190D01*
X4524666Y-17025905D01*
X4572285Y-17121143D01*
X4619904Y-17168762D01*
X4715142Y-17216381D01*
X4858000Y-17216381D01*
X4191333Y-16549714D02*
X4000857Y-17216381D01*
X3810380Y-16740190D01*
X3619904Y-17216381D01*
X3429428Y-16549714D01*
X3048476Y-16549714D02*
X3048476Y-17216381D01*
X3048476Y-16644952D02*
X3000857Y-16597333D01*
X2905619Y-16549714D01*
X2762761Y-16549714D01*
X2667523Y-16597333D01*
X2619904Y-16692571D01*
X2619904Y-17216381D01*
D12*
X27492852Y-7277100D02*
X27566935Y-7869767D01*
X27503435Y-7361767D02*
X27455811Y-7319433D01*
X27365852Y-7277100D01*
X27238852Y-7277100D01*
X27159478Y-7319433D01*
X27127727Y-7404100D01*
X27185935Y-7869767D01*
X26418645Y-7827433D02*
X26508602Y-7869767D01*
X26677936Y-7869767D01*
X26757311Y-7827433D01*
X26789061Y-7742767D01*
X26746728Y-7404100D01*
X26693811Y-7319433D01*
X26603853Y-7277100D01*
X26434519Y-7277100D01*
X26355145Y-7319433D01*
X26323394Y-7404100D01*
X26333977Y-7488767D01*
X26767895Y-7573433D01*
X26037645Y-7827433D02*
X25958269Y-7869767D01*
X25788936Y-7869767D01*
X25698978Y-7827433D01*
X25646061Y-7742767D01*
X25640770Y-7700433D01*
X25672519Y-7615767D01*
X25751895Y-7573433D01*
X25878895Y-7573433D01*
X25958269Y-7531100D01*
X25990020Y-7446433D01*
X25984728Y-7404100D01*
X25931811Y-7319433D01*
X25841853Y-7277100D01*
X25714853Y-7277100D01*
X25635478Y-7319433D01*
X24772935Y-7869767D02*
X25016353Y-7446433D01*
X25280935Y-7869767D02*
X25169810Y-6980767D01*
X24831144Y-6980767D01*
X24751769Y-7023100D01*
X24714728Y-7065433D01*
X24682977Y-7150100D01*
X24698852Y-7277100D01*
X24751769Y-7361767D01*
X24799394Y-7404100D01*
X24889353Y-7446433D01*
X25228019Y-7446433D01*
X24037394Y-7404100D02*
X24333727Y-7404100D01*
X24391935Y-7869767D02*
X24280810Y-6980767D01*
X23857477Y-6980767D01*
X20957646Y-7827433D02*
X20835937Y-7869767D01*
X20624270Y-7869767D01*
X20534312Y-7827433D01*
X20486687Y-7785100D01*
X20433771Y-7700433D01*
X20423187Y-7615767D01*
X20454937Y-7531100D01*
X20491978Y-7488767D01*
X20571354Y-7446433D01*
X20735395Y-7404100D01*
X20814770Y-7361767D01*
X20851812Y-7319433D01*
X20883562Y-7234767D01*
X20872979Y-7150100D01*
X20820062Y-7065433D01*
X20772437Y-7023100D01*
X20682478Y-6980767D01*
X20470812Y-6980767D01*
X20349104Y-7023100D01*
X20073936Y-7869767D02*
X19962811Y-6980767D01*
X19565936Y-7869767D01*
X19454811Y-6980767D01*
X19084395Y-7404100D02*
X18788062Y-7404100D01*
X18719270Y-7869767D02*
X19142603Y-7869767D01*
X19031478Y-6980767D01*
X18608145Y-6980767D01*
X18375313Y-7827433D02*
X18253604Y-7869767D01*
X18041937Y-7869767D01*
X17951979Y-7827433D01*
X17904354Y-7785100D01*
X17851438Y-7700433D01*
X17840854Y-7615767D01*
X17872604Y-7531100D01*
X17909645Y-7488767D01*
X17989021Y-7446433D01*
X18153062Y-7404100D01*
X18232437Y-7361767D01*
X18269479Y-7319433D01*
X18301229Y-7234767D01*
X18290646Y-7150100D01*
X18237729Y-7065433D01*
X18190104Y-7023100D01*
X18100145Y-6980767D01*
X17888479Y-6980767D01*
X17766771Y-7023100D01*
X16306270Y-7869767D02*
X16549688Y-7446433D01*
X16814270Y-7869767D02*
X16703145Y-6980767D01*
X16364479Y-6980767D01*
X16285104Y-7023100D01*
X16248063Y-7065433D01*
X16216312Y-7150100D01*
X16232187Y-7277100D01*
X16285104Y-7361767D01*
X16332729Y-7404100D01*
X16422688Y-7446433D01*
X16761354Y-7446433D01*
X15581313Y-7827433D02*
X15671270Y-7869767D01*
X15840604Y-7869767D01*
X15919979Y-7827433D01*
X15951729Y-7742767D01*
X15909396Y-7404100D01*
X15856479Y-7319433D01*
X15766521Y-7277100D01*
X15597187Y-7277100D01*
X15517813Y-7319433D01*
X15486062Y-7404100D01*
X15496645Y-7488767D01*
X15930563Y-7573433D01*
X14776979Y-7827433D02*
X14866937Y-7869767D01*
X15036270Y-7869767D01*
X15115646Y-7827433D01*
X15152687Y-7785100D01*
X15184438Y-7700433D01*
X15152688Y-7446433D01*
X15099770Y-7361767D01*
X15052146Y-7319433D01*
X14962187Y-7277100D01*
X14792854Y-7277100D01*
X14713479Y-7319433D01*
X14057313Y-7827433D02*
X14147270Y-7869767D01*
X14316604Y-7869767D01*
X14395979Y-7827433D01*
X14427729Y-7742767D01*
X14385396Y-7404100D01*
X14332479Y-7319433D01*
X14242521Y-7277100D01*
X14073187Y-7277100D01*
X13993813Y-7319433D01*
X13962062Y-7404100D01*
X13972645Y-7488767D01*
X14406563Y-7573433D01*
X13639270Y-7869767D02*
X13565187Y-7277100D01*
X13528145Y-6980767D02*
X13575771Y-7023100D01*
X13538729Y-7065433D01*
X13491104Y-7023100D01*
X13528145Y-6980767D01*
X13538729Y-7065433D01*
X13226521Y-7277100D02*
X13088937Y-7869767D01*
X12803188Y-7277100D01*
X12194647Y-7827433D02*
X12284604Y-7869767D01*
X12453938Y-7869767D01*
X12533313Y-7827433D01*
X12565063Y-7742767D01*
X12522730Y-7404100D01*
X12469813Y-7319433D01*
X12379855Y-7277100D01*
X12210521Y-7277100D01*
X12131147Y-7319433D01*
X12099396Y-7404100D01*
X12109979Y-7488767D01*
X12543897Y-7573433D01*
X11776604Y-7869767D02*
X11702521Y-7277100D01*
X11723688Y-7446433D02*
X11670771Y-7361767D01*
X11623147Y-7319433D01*
X11533188Y-7277100D01*
X11448521Y-7277100D01*
X27164768Y-9317567D02*
X27106560Y-8851900D01*
X27138311Y-8767233D01*
X27217685Y-8724900D01*
X27387019Y-8724900D01*
X27476977Y-8767233D01*
X27159477Y-9275233D02*
X27249435Y-9317567D01*
X27461102Y-9317567D01*
X27540477Y-9275233D01*
X27572227Y-9190567D01*
X27561644Y-9105900D01*
X27508727Y-9021233D01*
X27418769Y-8978900D01*
X27207102Y-8978900D01*
X27117143Y-8936567D01*
X26741435Y-9317567D02*
X26667352Y-8724900D01*
X26688519Y-8894233D02*
X26635602Y-8809567D01*
X26587978Y-8767233D01*
X26498019Y-8724900D01*
X26413352Y-8724900D01*
X25810102Y-9317567D02*
X25751894Y-8851900D01*
X25783645Y-8767233D01*
X25863019Y-8724900D01*
X26032353Y-8724900D01*
X26122311Y-8767233D01*
X25804811Y-9275233D02*
X25894769Y-9317567D01*
X26106436Y-9317567D01*
X26185811Y-9275233D01*
X26217561Y-9190567D01*
X26206978Y-9105900D01*
X26154061Y-9021233D01*
X26064103Y-8978900D01*
X25852436Y-8978900D01*
X25762477Y-8936567D01*
X25312686Y-8724900D02*
X25386769Y-9317567D01*
X25323269Y-8809567D02*
X25275645Y-8767233D01*
X25185686Y-8724900D01*
X25058686Y-8724900D01*
X24979312Y-8767233D01*
X24947561Y-8851900D01*
X25005769Y-9317567D01*
X24635353Y-8724900D02*
X24296687Y-8724900D01*
X24471311Y-8428567D02*
X24566561Y-9190567D01*
X24534812Y-9275233D01*
X24455436Y-9317567D01*
X24370770Y-9317567D01*
X24074436Y-9317567D02*
X24000353Y-8724900D01*
X23963311Y-8428567D02*
X24010937Y-8470900D01*
X23973895Y-8513233D01*
X23926270Y-8470900D01*
X23963311Y-8428567D01*
X23973895Y-8513233D01*
X23196020Y-8724900D02*
X23270103Y-9317567D01*
X23577020Y-8724900D02*
X23635228Y-9190567D01*
X23603479Y-9275233D01*
X23524103Y-9317567D01*
X23397103Y-9317567D01*
X23307146Y-9275233D01*
X23259520Y-9232900D01*
X22883813Y-9275233D02*
X22804437Y-9317567D01*
X22635104Y-9317567D01*
X22545146Y-9275233D01*
X22492229Y-9190567D01*
X22486938Y-9148233D01*
X22518687Y-9063567D01*
X22598063Y-9021233D01*
X22725063Y-9021233D01*
X22804437Y-8978900D01*
X22836188Y-8894233D01*
X22830896Y-8851900D01*
X22777979Y-8767233D01*
X22688021Y-8724900D01*
X22561021Y-8724900D01*
X22481646Y-8767233D01*
X22116520Y-9232900D02*
X22079479Y-9275233D01*
X22127103Y-9317567D01*
X22164146Y-9275233D01*
X22116520Y-9232900D01*
X22127103Y-9317567D01*
X21317479Y-9275233D02*
X21407437Y-9317567D01*
X21576770Y-9317567D01*
X21656146Y-9275233D01*
X21693187Y-9232900D01*
X21724938Y-9148233D01*
X21693188Y-8894233D01*
X21640270Y-8809567D01*
X21592646Y-8767233D01*
X21502687Y-8724900D01*
X21333354Y-8724900D01*
X21253979Y-8767233D01*
X20814770Y-9317567D02*
X20894146Y-9275233D01*
X20931187Y-9232900D01*
X20962938Y-9148233D01*
X20931188Y-8894233D01*
X20878270Y-8809567D01*
X20830646Y-8767233D01*
X20740687Y-8724900D01*
X20613687Y-8724900D01*
X20534313Y-8767233D01*
X20497270Y-8809567D01*
X20465521Y-8894233D01*
X20497271Y-9148233D01*
X20550187Y-9232900D01*
X20597813Y-9275233D01*
X20687770Y-9317567D01*
X20814770Y-9317567D01*
X20137437Y-9317567D02*
X20063354Y-8724900D01*
X20073937Y-8809567D02*
X20026313Y-8767233D01*
X19936354Y-8724900D01*
X19809354Y-8724900D01*
X19729980Y-8767233D01*
X19698229Y-8851900D01*
X19756437Y-9317567D01*
X19698229Y-8851900D02*
X19645313Y-8767233D01*
X19555354Y-8724900D01*
X19428354Y-8724900D01*
X19348980Y-8767233D01*
X19317229Y-8851900D01*
X19375437Y-9317567D01*
X17232313Y-8428567D02*
X17311688Y-9063567D01*
X17369897Y-9190567D01*
X17465147Y-9275233D01*
X17597438Y-9317567D01*
X17682105Y-9317567D01*
X16539105Y-9317567D02*
X16480897Y-8851900D01*
X16512648Y-8767233D01*
X16592022Y-8724900D01*
X16761356Y-8724900D01*
X16851314Y-8767233D01*
X16533814Y-9275233D02*
X16623772Y-9317567D01*
X16835439Y-9317567D01*
X16914814Y-9275233D01*
X16946564Y-9190567D01*
X16935981Y-9105900D01*
X16883064Y-9021233D01*
X16793106Y-8978900D01*
X16581439Y-8978900D01*
X16491480Y-8936567D01*
X16041689Y-8724900D02*
X16115772Y-9317567D01*
X16052272Y-8809567D02*
X16004648Y-8767233D01*
X15914689Y-8724900D01*
X15787689Y-8724900D01*
X15708315Y-8767233D01*
X15676564Y-8851900D01*
X15734772Y-9317567D01*
X14575899Y-8513233D02*
X14528273Y-8470900D01*
X14438315Y-8428567D01*
X14226648Y-8428567D01*
X14147273Y-8470900D01*
X14110232Y-8513233D01*
X14078482Y-8597900D01*
X14089065Y-8682567D01*
X14147273Y-8809567D01*
X14718773Y-9317567D01*
X14168440Y-9317567D01*
X13506981Y-8428567D02*
X13422314Y-8428567D01*
X13342940Y-8470900D01*
X13305898Y-8513233D01*
X13274148Y-8597900D01*
X13252982Y-8767233D01*
X13279440Y-8978900D01*
X13342940Y-9148233D01*
X13395856Y-9232900D01*
X13443482Y-9275233D01*
X13533439Y-9317567D01*
X13618106Y-9317567D01*
X13697482Y-9275233D01*
X13734523Y-9232900D01*
X13766273Y-9148233D01*
X13787440Y-8978900D01*
X13760982Y-8767233D01*
X13697481Y-8597900D01*
X13644565Y-8513233D01*
X13596940Y-8470900D01*
X13506981Y-8428567D01*
X12475106Y-9317567D02*
X12983106Y-9317567D01*
X12729106Y-9317567D02*
X12617981Y-8428567D01*
X12718522Y-8555567D01*
X12813773Y-8640233D01*
X12903731Y-8682567D01*
X11559647Y-8428567D02*
X11982980Y-8428567D01*
X12078231Y-8851900D01*
X12030605Y-8809567D01*
X11940648Y-8767233D01*
X11728981Y-8767233D01*
X11649605Y-8809567D01*
X11612564Y-8851900D01*
X11580814Y-8936567D01*
X11607273Y-9148233D01*
X11660189Y-9232900D01*
X11707814Y-9275233D01*
X11797772Y-9317567D01*
X12009439Y-9317567D01*
X12088814Y-9275233D01*
X12125856Y-9232900D01*
D11*
X18415000Y-18669000D02*
X18415000Y-16129000D01*
X18415000Y-16129000D02*
X15875000Y-16129000D01*
X15875000Y-18669000D02*
X15875000Y-11049000D01*
X15875000Y-11049000D02*
X20955000Y-11049000D01*
X20955000Y-11049000D02*
X20955000Y-16129000D01*
X15875000Y-18669000D02*
X18415000Y-18669000D01*
X20955000Y-18669000D02*
X18415000Y-18669000D01*
X20955000Y-16129000D02*
X20955000Y-18669000D01*
X22232881Y-11009405D02*
X21232881Y-11009405D01*
X21232881Y-11390358D01*
X21280500Y-11485596D01*
X21328119Y-11533215D01*
X21423357Y-11580834D01*
X21566214Y-11580834D01*
X21661452Y-11533215D01*
X21709071Y-11485596D01*
X21756690Y-11390358D01*
X21756690Y-11009405D01*
X21232881Y-11914167D02*
X21232881Y-12580834D01*
X22232881Y-12152262D01*
X4516381Y-6437334D02*
X4040190Y-6104000D01*
X4516381Y-5865905D02*
X3516381Y-5865905D01*
X3516381Y-6246858D01*
X3564000Y-6342096D01*
X3611619Y-6389715D01*
X3706857Y-6437334D01*
X3849714Y-6437334D01*
X3944952Y-6389715D01*
X3992571Y-6342096D01*
X4040190Y-6246858D01*
X4040190Y-5865905D01*
X3516381Y-6770667D02*
X4516381Y-7437334D01*
X3516381Y-7437334D02*
X4516381Y-6770667D01*
X976381Y-5842095D02*
X976381Y-6413524D01*
X1976381Y-6127809D02*
X976381Y-6127809D01*
X976381Y-6651619D02*
X1976381Y-7318286D01*
X976381Y-7318286D02*
X1976381Y-6651619D01*
%LPC*%
D13*
X12954000Y-18859500D03*
D14*
X12700000Y-5080000D03*
D15*
X15240000Y-5080000D03*
X17780000Y-5080000D03*
D14*
X23876000Y-12319000D03*
D15*
X26416000Y-12319000D03*
X23876000Y-14859000D03*
X26416000Y-14859000D03*
X23876000Y-17399000D03*
X26416000Y-17399000D03*
X23876000Y-19939000D03*
X26416000Y-19939000D03*
D13*
X1524000Y-12192000D03*
X1524000Y-8382000D03*
X6604000Y-4826000D03*
X1778000Y-16764000D03*
D14*
X17145000Y-17399000D03*
D15*
X19685000Y-17399000D03*
X17145000Y-14859000D03*
X19685000Y-14859000D03*
X17145000Y-12319000D03*
X19685000Y-12319000D03*
D13*
X4064000Y-4826000D03*
X1524000Y-4826000D03*
M02*
