%FSLAX46Y46*%
G04 Gerber Fmt 4.6, Leading zero omitted, Abs format (unit mm)*
G04 Created by KiCad (PCBNEW (2014-10-27 BZR 5228)-product) date 12/20/2014 4:46:43 PM*
%MOMM*%
G01*
G04 APERTURE LIST*
%ADD10C,0.100000*%
%ADD11C,1.270000*%
%ADD12R,1.727200X1.727200*%
%ADD13O,1.727200X1.727200*%
%ADD14C,0.889000*%
%ADD15C,0.254000*%
%ADD16C,0.406400*%
%ADD17C,0.381000*%
G04 APERTURE END LIST*
D10*
D11*
X26416000Y-8382000D03*
X23876000Y-8382000D03*
X1778000Y-5207000D03*
D12*
X12700000Y-5334000D03*
D13*
X15240000Y-5334000D03*
X17780000Y-5334000D03*
D12*
X23876000Y-12319000D03*
D13*
X26416000Y-12319000D03*
X23876000Y-14859000D03*
X26416000Y-14859000D03*
X23876000Y-17399000D03*
X26416000Y-17399000D03*
X23876000Y-19939000D03*
X26416000Y-19939000D03*
D12*
X15240000Y-12319000D03*
D13*
X15240000Y-14859000D03*
X17780000Y-12319000D03*
X17780000Y-14859000D03*
X20320000Y-12319000D03*
X20320000Y-14859000D03*
D11*
X1778000Y-13843000D03*
X1778000Y-7747000D03*
X3619500Y-6540500D03*
X26670000Y-5207000D03*
D14*
X3619500Y-13779500D03*
X9398000Y-13335000D03*
X11049000Y-7175500D03*
X12890500Y-18542000D03*
X17716500Y-19367500D03*
X5524500Y-15113000D03*
X9194800Y-11455400D03*
X22161500Y-6604000D03*
X8509000Y-4762500D03*
X6286500Y-11557000D03*
X16192500Y-8382000D03*
X6096000Y-12954000D03*
X15113000Y-9461500D03*
D15*
X3619500Y-6540500D02*
X3619500Y-13779500D01*
X9906000Y-13843000D02*
X11557000Y-13843000D01*
X9398000Y-13335000D02*
X9906000Y-13843000D01*
X19050000Y-13589000D02*
X20320000Y-12319000D01*
X12382500Y-13843000D02*
X11557000Y-13843000D01*
X12636500Y-13589000D02*
X12382500Y-13843000D01*
X19050000Y-13589000D02*
X12636500Y-13589000D01*
X16510000Y-11049000D02*
X25146000Y-11049000D01*
X25146000Y-11049000D02*
X26416000Y-12319000D01*
X15240000Y-12319000D02*
X16510000Y-11049000D01*
D16*
X11049000Y-7175500D02*
X15938500Y-7175500D01*
X15938500Y-7175500D02*
X17780000Y-5334000D01*
X15240000Y-14859000D02*
X15240000Y-16192500D01*
X15240000Y-16192500D02*
X12890500Y-18542000D01*
X20320000Y-14859000D02*
X20955000Y-14859000D01*
D15*
X6286500Y-11557000D02*
X9461500Y-8382000D01*
X9461500Y-8382000D02*
X16192500Y-8382000D01*
X6096000Y-12954000D02*
X9588500Y-9461500D01*
X9588500Y-9461500D02*
X15113000Y-9461500D01*
D17*
G36*
X27953500Y-21476500D02*
X27882940Y-21476500D01*
X27882940Y-5002031D01*
X27712172Y-4553461D01*
X27672613Y-4494257D01*
X27447738Y-4447222D01*
X27429778Y-4465182D01*
X27429778Y-4429262D01*
X27382743Y-4204387D01*
X26944805Y-4007951D01*
X26465031Y-3994060D01*
X26016461Y-4164828D01*
X25957257Y-4204387D01*
X25910222Y-4429262D01*
X26670000Y-5189039D01*
X27429778Y-4429262D01*
X27429778Y-4465182D01*
X26687961Y-5207000D01*
X27447738Y-5966778D01*
X27672613Y-5919743D01*
X27869049Y-5481805D01*
X27882940Y-5002031D01*
X27882940Y-21476500D01*
X27831390Y-21476500D01*
X27831390Y-20176034D01*
X27831390Y-19701966D01*
X27632941Y-19178363D01*
X27249224Y-18770560D01*
X26927662Y-18625754D01*
X27340966Y-18349593D01*
X27624527Y-17925215D01*
X27724100Y-17424627D01*
X27724100Y-17373373D01*
X27624527Y-16872785D01*
X27340966Y-16448407D01*
X26916588Y-16164846D01*
X26736377Y-16129000D01*
X26916588Y-16093154D01*
X27340966Y-15809593D01*
X27624527Y-15385215D01*
X27724100Y-14884627D01*
X27724100Y-14833373D01*
X27624527Y-14332785D01*
X27340966Y-13908407D01*
X26916588Y-13624846D01*
X26736377Y-13589000D01*
X26916588Y-13553154D01*
X27340966Y-13269593D01*
X27624527Y-12845215D01*
X27724100Y-12344627D01*
X27724100Y-12293373D01*
X27624527Y-11792785D01*
X27495687Y-11599962D01*
X27495687Y-8168216D01*
X27429778Y-8008704D01*
X27429778Y-5984738D01*
X26670000Y-5224961D01*
X26652039Y-5242921D01*
X26652039Y-5207000D01*
X25892262Y-4447222D01*
X25667387Y-4494257D01*
X25470951Y-4932195D01*
X25457060Y-5411969D01*
X25627828Y-5860539D01*
X25667387Y-5919743D01*
X25892262Y-5966778D01*
X26652039Y-5207000D01*
X26652039Y-5242921D01*
X25910222Y-5984738D01*
X25957257Y-6209613D01*
X26395195Y-6406049D01*
X26874969Y-6419940D01*
X27323539Y-6249172D01*
X27382743Y-6209613D01*
X27429778Y-5984738D01*
X27429778Y-8008704D01*
X27331689Y-7771311D01*
X27028286Y-7467378D01*
X26631668Y-7302687D01*
X26202216Y-7302313D01*
X25805311Y-7466311D01*
X25501378Y-7769714D01*
X25336687Y-8166332D01*
X25336313Y-8595784D01*
X25500311Y-8992689D01*
X25803714Y-9296622D01*
X26200332Y-9461313D01*
X26629784Y-9461687D01*
X27026689Y-9297689D01*
X27330622Y-8994286D01*
X27495313Y-8597668D01*
X27495687Y-8168216D01*
X27495687Y-11599962D01*
X27340966Y-11368407D01*
X26916588Y-11084846D01*
X26416000Y-10985273D01*
X25977683Y-11072459D01*
X25550112Y-10644888D01*
X25364704Y-10521003D01*
X25328417Y-10513785D01*
X25146000Y-10477499D01*
X25145994Y-10477500D01*
X24955687Y-10477500D01*
X24955687Y-8168216D01*
X24791689Y-7771311D01*
X24488286Y-7467378D01*
X24091668Y-7302687D01*
X23662216Y-7302313D01*
X23265311Y-7466311D01*
X22961378Y-7769714D01*
X22796687Y-8166332D01*
X22796313Y-8595784D01*
X22960311Y-8992689D01*
X23263714Y-9296622D01*
X23660332Y-9461313D01*
X24089784Y-9461687D01*
X24486689Y-9297689D01*
X24790622Y-8994286D01*
X24955313Y-8597668D01*
X24955687Y-8168216D01*
X24955687Y-10477500D01*
X19113727Y-10477500D01*
X19113727Y-5334000D01*
X19014154Y-4833412D01*
X18730593Y-4409034D01*
X18306215Y-4125473D01*
X17805627Y-4025900D01*
X17754373Y-4025900D01*
X17253785Y-4125473D01*
X16829407Y-4409034D01*
X16545846Y-4833412D01*
X16510000Y-5013622D01*
X16474154Y-4833412D01*
X16190593Y-4409034D01*
X15766215Y-4125473D01*
X15265627Y-4025900D01*
X15214373Y-4025900D01*
X14713785Y-4125473D01*
X14289407Y-4409034D01*
X14008100Y-4830038D01*
X14008100Y-4381984D01*
X13940429Y-4218611D01*
X13815389Y-4093571D01*
X13652017Y-4025900D01*
X13475184Y-4025900D01*
X11747984Y-4025900D01*
X11584611Y-4093571D01*
X11459571Y-4218611D01*
X11391900Y-4381983D01*
X11391900Y-4558816D01*
X11391900Y-6286016D01*
X11426554Y-6369678D01*
X11226609Y-6286654D01*
X10872943Y-6286346D01*
X10546080Y-6421403D01*
X10295782Y-6671264D01*
X10160154Y-6997891D01*
X10159846Y-7351557D01*
X10294903Y-7678420D01*
X10426752Y-7810500D01*
X9461505Y-7810500D01*
X9461500Y-7810499D01*
X9279082Y-7846785D01*
X9242796Y-7854003D01*
X9057388Y-7977888D01*
X9057385Y-7977891D01*
X6367206Y-10668069D01*
X6110443Y-10667846D01*
X5783580Y-10802903D01*
X5533282Y-11052764D01*
X5397654Y-11379391D01*
X5397346Y-11733057D01*
X5532403Y-12059920D01*
X5649054Y-12176775D01*
X5593080Y-12199903D01*
X5342782Y-12449764D01*
X5207154Y-12776391D01*
X5206846Y-13130057D01*
X5341903Y-13456920D01*
X5591764Y-13707218D01*
X5918391Y-13842846D01*
X6272057Y-13843154D01*
X6598920Y-13708097D01*
X6849218Y-13458236D01*
X6984846Y-13131609D01*
X6985071Y-12873152D01*
X9825223Y-10033000D01*
X14427363Y-10033000D01*
X14608764Y-10214718D01*
X14935391Y-10350346D01*
X15289057Y-10350654D01*
X15615920Y-10215597D01*
X15866218Y-9965736D01*
X16001846Y-9639109D01*
X16002154Y-9285443D01*
X15992235Y-9261438D01*
X16014891Y-9270846D01*
X16368557Y-9271154D01*
X16695420Y-9136097D01*
X16945718Y-8886236D01*
X17081346Y-8559609D01*
X17081654Y-8205943D01*
X16946597Y-7879080D01*
X16696736Y-7628782D01*
X16487914Y-7542071D01*
X17448690Y-6581295D01*
X17754373Y-6642100D01*
X17805627Y-6642100D01*
X18306215Y-6542527D01*
X18730593Y-6258966D01*
X19014154Y-5834588D01*
X19113727Y-5334000D01*
X19113727Y-10477500D01*
X16510005Y-10477500D01*
X16510000Y-10477499D01*
X16327582Y-10513785D01*
X16291296Y-10521003D01*
X16105888Y-10644888D01*
X16105885Y-10644891D01*
X15739876Y-11010900D01*
X14287984Y-11010900D01*
X14124611Y-11078571D01*
X13999571Y-11203611D01*
X13931900Y-11366983D01*
X13931900Y-11543816D01*
X13931900Y-13017500D01*
X12636500Y-13017500D01*
X12417796Y-13061003D01*
X12232388Y-13184888D01*
X12232385Y-13184891D01*
X12145776Y-13271500D01*
X11557000Y-13271500D01*
X10287055Y-13271500D01*
X10287154Y-13158943D01*
X10152097Y-12832080D01*
X9902236Y-12581782D01*
X9575609Y-12446154D01*
X9221943Y-12445846D01*
X8895080Y-12580903D01*
X8644782Y-12830764D01*
X8509154Y-13157391D01*
X8508846Y-13511057D01*
X8643903Y-13837920D01*
X8893764Y-14088218D01*
X9220391Y-14223846D01*
X9478848Y-14224071D01*
X9501885Y-14247108D01*
X9501888Y-14247112D01*
X9687296Y-14370997D01*
X9906000Y-14414500D01*
X11557000Y-14414500D01*
X12382494Y-14414500D01*
X12382500Y-14414501D01*
X12382500Y-14414500D01*
X12564917Y-14378214D01*
X12601203Y-14370997D01*
X12601204Y-14370997D01*
X12786612Y-14247112D01*
X12873223Y-14160500D01*
X14138086Y-14160500D01*
X14005846Y-14358412D01*
X13906273Y-14859000D01*
X14005846Y-15359588D01*
X14289407Y-15783966D01*
X14555050Y-15961463D01*
X12863538Y-17652975D01*
X12714443Y-17652846D01*
X12387580Y-17787903D01*
X12137282Y-18037764D01*
X12001654Y-18364391D01*
X12001346Y-18718057D01*
X12136403Y-19044920D01*
X12386264Y-19295218D01*
X12712891Y-19430846D01*
X13066557Y-19431154D01*
X13393420Y-19296097D01*
X13643718Y-19046236D01*
X13779346Y-18719609D01*
X13779477Y-18569008D01*
X15697993Y-16650493D01*
X15838397Y-16440364D01*
X15887700Y-16192500D01*
X15887700Y-15986353D01*
X16190593Y-15783966D01*
X16474154Y-15359588D01*
X16510000Y-15179377D01*
X16545846Y-15359588D01*
X16829407Y-15783966D01*
X17253785Y-16067527D01*
X17754373Y-16167100D01*
X17805627Y-16167100D01*
X18306215Y-16067527D01*
X18730593Y-15783966D01*
X19006754Y-15370662D01*
X19151560Y-15692224D01*
X19559363Y-16075941D01*
X20082966Y-16274390D01*
X20307300Y-16151170D01*
X20307300Y-14871700D01*
X20287300Y-14871700D01*
X20287300Y-14846300D01*
X20307300Y-14846300D01*
X20307300Y-14826300D01*
X20332700Y-14826300D01*
X20332700Y-14846300D01*
X21612163Y-14846300D01*
X21735390Y-14621966D01*
X21718359Y-14536344D01*
X21488440Y-14025776D01*
X21080637Y-13642059D01*
X20801771Y-13536367D01*
X20846215Y-13527527D01*
X21270593Y-13243966D01*
X21554154Y-12819588D01*
X21653727Y-12319000D01*
X21554154Y-11818412D01*
X21421913Y-11620500D01*
X22567900Y-11620500D01*
X22567900Y-13271016D01*
X22635571Y-13434389D01*
X22760611Y-13559429D01*
X22923983Y-13627100D01*
X23100816Y-13627100D01*
X23372038Y-13627100D01*
X22951034Y-13908407D01*
X22667473Y-14332785D01*
X22567900Y-14833373D01*
X22567900Y-14884627D01*
X22667473Y-15385215D01*
X22951034Y-15809593D01*
X23375412Y-16093154D01*
X23555622Y-16129000D01*
X23375412Y-16164846D01*
X22951034Y-16448407D01*
X22667473Y-16872785D01*
X22567900Y-17373373D01*
X22567900Y-17424627D01*
X22667473Y-17925215D01*
X22951034Y-18349593D01*
X23375412Y-18633154D01*
X23555622Y-18669000D01*
X23375412Y-18704846D01*
X22951034Y-18988407D01*
X22667473Y-19412785D01*
X22567900Y-19913373D01*
X22567900Y-19964627D01*
X22667473Y-20465215D01*
X22951034Y-20889593D01*
X23375412Y-21173154D01*
X23876000Y-21272727D01*
X24376588Y-21173154D01*
X24800966Y-20889593D01*
X25084527Y-20465215D01*
X25093367Y-20420771D01*
X25199059Y-20699637D01*
X25582776Y-21107440D01*
X26093344Y-21337359D01*
X26178966Y-21354390D01*
X26403300Y-21231163D01*
X26403300Y-19951700D01*
X26383300Y-19951700D01*
X26383300Y-19926300D01*
X26403300Y-19926300D01*
X26403300Y-19906300D01*
X26428700Y-19906300D01*
X26428700Y-19926300D01*
X27708170Y-19926300D01*
X27831390Y-19701966D01*
X27831390Y-20176034D01*
X27708170Y-19951700D01*
X26428700Y-19951700D01*
X26428700Y-21231163D01*
X26653034Y-21354390D01*
X26738656Y-21337359D01*
X27249224Y-21107440D01*
X27632941Y-20699637D01*
X27831390Y-20176034D01*
X27831390Y-21476500D01*
X21735390Y-21476500D01*
X21735390Y-15096034D01*
X21612163Y-14871700D01*
X20332700Y-14871700D01*
X20332700Y-16151170D01*
X20557034Y-16274390D01*
X21080637Y-16075941D01*
X21488440Y-15692224D01*
X21718359Y-15181656D01*
X21735390Y-15096034D01*
X21735390Y-21476500D01*
X4699187Y-21476500D01*
X4699187Y-6326716D01*
X4535189Y-5929811D01*
X4231786Y-5625878D01*
X3835168Y-5461187D01*
X3405716Y-5460813D01*
X3008811Y-5624811D01*
X2857687Y-5775671D01*
X2857687Y-4993216D01*
X2693689Y-4596311D01*
X2390286Y-4292378D01*
X1993668Y-4127687D01*
X1564216Y-4127313D01*
X1167311Y-4291311D01*
X863378Y-4594714D01*
X698687Y-4991332D01*
X698313Y-5420784D01*
X862311Y-5817689D01*
X1165714Y-6121622D01*
X1562332Y-6286313D01*
X1991784Y-6286687D01*
X2388689Y-6122689D01*
X2692622Y-5819286D01*
X2857313Y-5422668D01*
X2857687Y-4993216D01*
X2857687Y-5775671D01*
X2704878Y-5928214D01*
X2540187Y-6324832D01*
X2539813Y-6754284D01*
X2703811Y-7151189D01*
X3007214Y-7455122D01*
X3048000Y-7472057D01*
X3048000Y-13093863D01*
X2866282Y-13275264D01*
X2857687Y-13295962D01*
X2857687Y-7533216D01*
X2693689Y-7136311D01*
X2390286Y-6832378D01*
X1993668Y-6667687D01*
X1564216Y-6667313D01*
X1167311Y-6831311D01*
X863378Y-7134714D01*
X698687Y-7531332D01*
X698313Y-7960784D01*
X862311Y-8357689D01*
X1165714Y-8661622D01*
X1562332Y-8826313D01*
X1991784Y-8826687D01*
X2388689Y-8662689D01*
X2692622Y-8359286D01*
X2857313Y-7962668D01*
X2857687Y-7533216D01*
X2857687Y-13295962D01*
X2788668Y-13462177D01*
X2693689Y-13232311D01*
X2390286Y-12928378D01*
X1993668Y-12763687D01*
X1564216Y-12763313D01*
X1167311Y-12927311D01*
X863378Y-13230714D01*
X698687Y-13627332D01*
X698313Y-14056784D01*
X862311Y-14453689D01*
X1165714Y-14757622D01*
X1562332Y-14922313D01*
X1991784Y-14922687D01*
X2388689Y-14758689D01*
X2692622Y-14455286D01*
X2815027Y-14160502D01*
X2865403Y-14282420D01*
X3115264Y-14532718D01*
X3441891Y-14668346D01*
X3795557Y-14668654D01*
X4122420Y-14533597D01*
X4372718Y-14283736D01*
X4508346Y-13957109D01*
X4508654Y-13603443D01*
X4373597Y-13276580D01*
X4191000Y-13093663D01*
X4191000Y-7472381D01*
X4230189Y-7456189D01*
X4534122Y-7152786D01*
X4698813Y-6756168D01*
X4699187Y-6326716D01*
X4699187Y-21476500D01*
X494500Y-21476500D01*
X494500Y-3796500D01*
X13462000Y-3796500D01*
X27953500Y-3796500D01*
X27953500Y-21476500D01*
X27953500Y-21476500D01*
G37*
X27953500Y-21476500D02*
X27882940Y-21476500D01*
X27882940Y-5002031D01*
X27712172Y-4553461D01*
X27672613Y-4494257D01*
X27447738Y-4447222D01*
X27429778Y-4465182D01*
X27429778Y-4429262D01*
X27382743Y-4204387D01*
X26944805Y-4007951D01*
X26465031Y-3994060D01*
X26016461Y-4164828D01*
X25957257Y-4204387D01*
X25910222Y-4429262D01*
X26670000Y-5189039D01*
X27429778Y-4429262D01*
X27429778Y-4465182D01*
X26687961Y-5207000D01*
X27447738Y-5966778D01*
X27672613Y-5919743D01*
X27869049Y-5481805D01*
X27882940Y-5002031D01*
X27882940Y-21476500D01*
X27831390Y-21476500D01*
X27831390Y-20176034D01*
X27831390Y-19701966D01*
X27632941Y-19178363D01*
X27249224Y-18770560D01*
X26927662Y-18625754D01*
X27340966Y-18349593D01*
X27624527Y-17925215D01*
X27724100Y-17424627D01*
X27724100Y-17373373D01*
X27624527Y-16872785D01*
X27340966Y-16448407D01*
X26916588Y-16164846D01*
X26736377Y-16129000D01*
X26916588Y-16093154D01*
X27340966Y-15809593D01*
X27624527Y-15385215D01*
X27724100Y-14884627D01*
X27724100Y-14833373D01*
X27624527Y-14332785D01*
X27340966Y-13908407D01*
X26916588Y-13624846D01*
X26736377Y-13589000D01*
X26916588Y-13553154D01*
X27340966Y-13269593D01*
X27624527Y-12845215D01*
X27724100Y-12344627D01*
X27724100Y-12293373D01*
X27624527Y-11792785D01*
X27495687Y-11599962D01*
X27495687Y-8168216D01*
X27429778Y-8008704D01*
X27429778Y-5984738D01*
X26670000Y-5224961D01*
X26652039Y-5242921D01*
X26652039Y-5207000D01*
X25892262Y-4447222D01*
X25667387Y-4494257D01*
X25470951Y-4932195D01*
X25457060Y-5411969D01*
X25627828Y-5860539D01*
X25667387Y-5919743D01*
X25892262Y-5966778D01*
X26652039Y-5207000D01*
X26652039Y-5242921D01*
X25910222Y-5984738D01*
X25957257Y-6209613D01*
X26395195Y-6406049D01*
X26874969Y-6419940D01*
X27323539Y-6249172D01*
X27382743Y-6209613D01*
X27429778Y-5984738D01*
X27429778Y-8008704D01*
X27331689Y-7771311D01*
X27028286Y-7467378D01*
X26631668Y-7302687D01*
X26202216Y-7302313D01*
X25805311Y-7466311D01*
X25501378Y-7769714D01*
X25336687Y-8166332D01*
X25336313Y-8595784D01*
X25500311Y-8992689D01*
X25803714Y-9296622D01*
X26200332Y-9461313D01*
X26629784Y-9461687D01*
X27026689Y-9297689D01*
X27330622Y-8994286D01*
X27495313Y-8597668D01*
X27495687Y-8168216D01*
X27495687Y-11599962D01*
X27340966Y-11368407D01*
X26916588Y-11084846D01*
X26416000Y-10985273D01*
X25977683Y-11072459D01*
X25550112Y-10644888D01*
X25364704Y-10521003D01*
X25328417Y-10513785D01*
X25146000Y-10477499D01*
X25145994Y-10477500D01*
X24955687Y-10477500D01*
X24955687Y-8168216D01*
X24791689Y-7771311D01*
X24488286Y-7467378D01*
X24091668Y-7302687D01*
X23662216Y-7302313D01*
X23265311Y-7466311D01*
X22961378Y-7769714D01*
X22796687Y-8166332D01*
X22796313Y-8595784D01*
X22960311Y-8992689D01*
X23263714Y-9296622D01*
X23660332Y-9461313D01*
X24089784Y-9461687D01*
X24486689Y-9297689D01*
X24790622Y-8994286D01*
X24955313Y-8597668D01*
X24955687Y-8168216D01*
X24955687Y-10477500D01*
X19113727Y-10477500D01*
X19113727Y-5334000D01*
X19014154Y-4833412D01*
X18730593Y-4409034D01*
X18306215Y-4125473D01*
X17805627Y-4025900D01*
X17754373Y-4025900D01*
X17253785Y-4125473D01*
X16829407Y-4409034D01*
X16545846Y-4833412D01*
X16510000Y-5013622D01*
X16474154Y-4833412D01*
X16190593Y-4409034D01*
X15766215Y-4125473D01*
X15265627Y-4025900D01*
X15214373Y-4025900D01*
X14713785Y-4125473D01*
X14289407Y-4409034D01*
X14008100Y-4830038D01*
X14008100Y-4381984D01*
X13940429Y-4218611D01*
X13815389Y-4093571D01*
X13652017Y-4025900D01*
X13475184Y-4025900D01*
X11747984Y-4025900D01*
X11584611Y-4093571D01*
X11459571Y-4218611D01*
X11391900Y-4381983D01*
X11391900Y-4558816D01*
X11391900Y-6286016D01*
X11426554Y-6369678D01*
X11226609Y-6286654D01*
X10872943Y-6286346D01*
X10546080Y-6421403D01*
X10295782Y-6671264D01*
X10160154Y-6997891D01*
X10159846Y-7351557D01*
X10294903Y-7678420D01*
X10426752Y-7810500D01*
X9461505Y-7810500D01*
X9461500Y-7810499D01*
X9279082Y-7846785D01*
X9242796Y-7854003D01*
X9057388Y-7977888D01*
X9057385Y-7977891D01*
X6367206Y-10668069D01*
X6110443Y-10667846D01*
X5783580Y-10802903D01*
X5533282Y-11052764D01*
X5397654Y-11379391D01*
X5397346Y-11733057D01*
X5532403Y-12059920D01*
X5649054Y-12176775D01*
X5593080Y-12199903D01*
X5342782Y-12449764D01*
X5207154Y-12776391D01*
X5206846Y-13130057D01*
X5341903Y-13456920D01*
X5591764Y-13707218D01*
X5918391Y-13842846D01*
X6272057Y-13843154D01*
X6598920Y-13708097D01*
X6849218Y-13458236D01*
X6984846Y-13131609D01*
X6985071Y-12873152D01*
X9825223Y-10033000D01*
X14427363Y-10033000D01*
X14608764Y-10214718D01*
X14935391Y-10350346D01*
X15289057Y-10350654D01*
X15615920Y-10215597D01*
X15866218Y-9965736D01*
X16001846Y-9639109D01*
X16002154Y-9285443D01*
X15992235Y-9261438D01*
X16014891Y-9270846D01*
X16368557Y-9271154D01*
X16695420Y-9136097D01*
X16945718Y-8886236D01*
X17081346Y-8559609D01*
X17081654Y-8205943D01*
X16946597Y-7879080D01*
X16696736Y-7628782D01*
X16487914Y-7542071D01*
X17448690Y-6581295D01*
X17754373Y-6642100D01*
X17805627Y-6642100D01*
X18306215Y-6542527D01*
X18730593Y-6258966D01*
X19014154Y-5834588D01*
X19113727Y-5334000D01*
X19113727Y-10477500D01*
X16510005Y-10477500D01*
X16510000Y-10477499D01*
X16327582Y-10513785D01*
X16291296Y-10521003D01*
X16105888Y-10644888D01*
X16105885Y-10644891D01*
X15739876Y-11010900D01*
X14287984Y-11010900D01*
X14124611Y-11078571D01*
X13999571Y-11203611D01*
X13931900Y-11366983D01*
X13931900Y-11543816D01*
X13931900Y-13017500D01*
X12636500Y-13017500D01*
X12417796Y-13061003D01*
X12232388Y-13184888D01*
X12232385Y-13184891D01*
X12145776Y-13271500D01*
X11557000Y-13271500D01*
X10287055Y-13271500D01*
X10287154Y-13158943D01*
X10152097Y-12832080D01*
X9902236Y-12581782D01*
X9575609Y-12446154D01*
X9221943Y-12445846D01*
X8895080Y-12580903D01*
X8644782Y-12830764D01*
X8509154Y-13157391D01*
X8508846Y-13511057D01*
X8643903Y-13837920D01*
X8893764Y-14088218D01*
X9220391Y-14223846D01*
X9478848Y-14224071D01*
X9501885Y-14247108D01*
X9501888Y-14247112D01*
X9687296Y-14370997D01*
X9906000Y-14414500D01*
X11557000Y-14414500D01*
X12382494Y-14414500D01*
X12382500Y-14414501D01*
X12382500Y-14414500D01*
X12564917Y-14378214D01*
X12601203Y-14370997D01*
X12601204Y-14370997D01*
X12786612Y-14247112D01*
X12873223Y-14160500D01*
X14138086Y-14160500D01*
X14005846Y-14358412D01*
X13906273Y-14859000D01*
X14005846Y-15359588D01*
X14289407Y-15783966D01*
X14555050Y-15961463D01*
X12863538Y-17652975D01*
X12714443Y-17652846D01*
X12387580Y-17787903D01*
X12137282Y-18037764D01*
X12001654Y-18364391D01*
X12001346Y-18718057D01*
X12136403Y-19044920D01*
X12386264Y-19295218D01*
X12712891Y-19430846D01*
X13066557Y-19431154D01*
X13393420Y-19296097D01*
X13643718Y-19046236D01*
X13779346Y-18719609D01*
X13779477Y-18569008D01*
X15697993Y-16650493D01*
X15838397Y-16440364D01*
X15887700Y-16192500D01*
X15887700Y-15986353D01*
X16190593Y-15783966D01*
X16474154Y-15359588D01*
X16510000Y-15179377D01*
X16545846Y-15359588D01*
X16829407Y-15783966D01*
X17253785Y-16067527D01*
X17754373Y-16167100D01*
X17805627Y-16167100D01*
X18306215Y-16067527D01*
X18730593Y-15783966D01*
X19006754Y-15370662D01*
X19151560Y-15692224D01*
X19559363Y-16075941D01*
X20082966Y-16274390D01*
X20307300Y-16151170D01*
X20307300Y-14871700D01*
X20287300Y-14871700D01*
X20287300Y-14846300D01*
X20307300Y-14846300D01*
X20307300Y-14826300D01*
X20332700Y-14826300D01*
X20332700Y-14846300D01*
X21612163Y-14846300D01*
X21735390Y-14621966D01*
X21718359Y-14536344D01*
X21488440Y-14025776D01*
X21080637Y-13642059D01*
X20801771Y-13536367D01*
X20846215Y-13527527D01*
X21270593Y-13243966D01*
X21554154Y-12819588D01*
X21653727Y-12319000D01*
X21554154Y-11818412D01*
X21421913Y-11620500D01*
X22567900Y-11620500D01*
X22567900Y-13271016D01*
X22635571Y-13434389D01*
X22760611Y-13559429D01*
X22923983Y-13627100D01*
X23100816Y-13627100D01*
X23372038Y-13627100D01*
X22951034Y-13908407D01*
X22667473Y-14332785D01*
X22567900Y-14833373D01*
X22567900Y-14884627D01*
X22667473Y-15385215D01*
X22951034Y-15809593D01*
X23375412Y-16093154D01*
X23555622Y-16129000D01*
X23375412Y-16164846D01*
X22951034Y-16448407D01*
X22667473Y-16872785D01*
X22567900Y-17373373D01*
X22567900Y-17424627D01*
X22667473Y-17925215D01*
X22951034Y-18349593D01*
X23375412Y-18633154D01*
X23555622Y-18669000D01*
X23375412Y-18704846D01*
X22951034Y-18988407D01*
X22667473Y-19412785D01*
X22567900Y-19913373D01*
X22567900Y-19964627D01*
X22667473Y-20465215D01*
X22951034Y-20889593D01*
X23375412Y-21173154D01*
X23876000Y-21272727D01*
X24376588Y-21173154D01*
X24800966Y-20889593D01*
X25084527Y-20465215D01*
X25093367Y-20420771D01*
X25199059Y-20699637D01*
X25582776Y-21107440D01*
X26093344Y-21337359D01*
X26178966Y-21354390D01*
X26403300Y-21231163D01*
X26403300Y-19951700D01*
X26383300Y-19951700D01*
X26383300Y-19926300D01*
X26403300Y-19926300D01*
X26403300Y-19906300D01*
X26428700Y-19906300D01*
X26428700Y-19926300D01*
X27708170Y-19926300D01*
X27831390Y-19701966D01*
X27831390Y-20176034D01*
X27708170Y-19951700D01*
X26428700Y-19951700D01*
X26428700Y-21231163D01*
X26653034Y-21354390D01*
X26738656Y-21337359D01*
X27249224Y-21107440D01*
X27632941Y-20699637D01*
X27831390Y-20176034D01*
X27831390Y-21476500D01*
X21735390Y-21476500D01*
X21735390Y-15096034D01*
X21612163Y-14871700D01*
X20332700Y-14871700D01*
X20332700Y-16151170D01*
X20557034Y-16274390D01*
X21080637Y-16075941D01*
X21488440Y-15692224D01*
X21718359Y-15181656D01*
X21735390Y-15096034D01*
X21735390Y-21476500D01*
X4699187Y-21476500D01*
X4699187Y-6326716D01*
X4535189Y-5929811D01*
X4231786Y-5625878D01*
X3835168Y-5461187D01*
X3405716Y-5460813D01*
X3008811Y-5624811D01*
X2857687Y-5775671D01*
X2857687Y-4993216D01*
X2693689Y-4596311D01*
X2390286Y-4292378D01*
X1993668Y-4127687D01*
X1564216Y-4127313D01*
X1167311Y-4291311D01*
X863378Y-4594714D01*
X698687Y-4991332D01*
X698313Y-5420784D01*
X862311Y-5817689D01*
X1165714Y-6121622D01*
X1562332Y-6286313D01*
X1991784Y-6286687D01*
X2388689Y-6122689D01*
X2692622Y-5819286D01*
X2857313Y-5422668D01*
X2857687Y-4993216D01*
X2857687Y-5775671D01*
X2704878Y-5928214D01*
X2540187Y-6324832D01*
X2539813Y-6754284D01*
X2703811Y-7151189D01*
X3007214Y-7455122D01*
X3048000Y-7472057D01*
X3048000Y-13093863D01*
X2866282Y-13275264D01*
X2857687Y-13295962D01*
X2857687Y-7533216D01*
X2693689Y-7136311D01*
X2390286Y-6832378D01*
X1993668Y-6667687D01*
X1564216Y-6667313D01*
X1167311Y-6831311D01*
X863378Y-7134714D01*
X698687Y-7531332D01*
X698313Y-7960784D01*
X862311Y-8357689D01*
X1165714Y-8661622D01*
X1562332Y-8826313D01*
X1991784Y-8826687D01*
X2388689Y-8662689D01*
X2692622Y-8359286D01*
X2857313Y-7962668D01*
X2857687Y-7533216D01*
X2857687Y-13295962D01*
X2788668Y-13462177D01*
X2693689Y-13232311D01*
X2390286Y-12928378D01*
X1993668Y-12763687D01*
X1564216Y-12763313D01*
X1167311Y-12927311D01*
X863378Y-13230714D01*
X698687Y-13627332D01*
X698313Y-14056784D01*
X862311Y-14453689D01*
X1165714Y-14757622D01*
X1562332Y-14922313D01*
X1991784Y-14922687D01*
X2388689Y-14758689D01*
X2692622Y-14455286D01*
X2815027Y-14160502D01*
X2865403Y-14282420D01*
X3115264Y-14532718D01*
X3441891Y-14668346D01*
X3795557Y-14668654D01*
X4122420Y-14533597D01*
X4372718Y-14283736D01*
X4508346Y-13957109D01*
X4508654Y-13603443D01*
X4373597Y-13276580D01*
X4191000Y-13093663D01*
X4191000Y-7472381D01*
X4230189Y-7456189D01*
X4534122Y-7152786D01*
X4698813Y-6756168D01*
X4699187Y-6326716D01*
X4699187Y-21476500D01*
X494500Y-21476500D01*
X494500Y-3796500D01*
X13462000Y-3796500D01*
X27953500Y-3796500D01*
X27953500Y-21476500D01*
M02*
