%FSLAX46Y46*%
G04 Gerber Fmt 4.6, Leading zero omitted, Abs format (unit mm)*
G04 Created by KiCad (PCBNEW (2014-10-27 BZR 5228)-product) date 1/26/2015 8:06:31 PM*
%MOMM*%
G01*
G04 APERTURE LIST*
%ADD10C,0.100000*%
%ADD11C,1.270000*%
%ADD12R,1.727200X1.727200*%
%ADD13O,1.727200X1.727200*%
%ADD14R,0.599440X0.398780*%
%ADD15R,0.762000X0.508000*%
%ADD16C,0.889000*%
%ADD17C,0.254000*%
%ADD18C,0.406400*%
G04 APERTURE END LIST*
D10*
D11*
X12954000Y-15557500D03*
D12*
X12700000Y-1778000D03*
D13*
X15240000Y-1778000D03*
X17780000Y-1778000D03*
D12*
X23876000Y-9017000D03*
D13*
X26416000Y-9017000D03*
X23876000Y-11557000D03*
X26416000Y-11557000D03*
X23876000Y-14097000D03*
X26416000Y-14097000D03*
X23876000Y-16637000D03*
X26416000Y-16637000D03*
D11*
X1524000Y-8890000D03*
X1524000Y-5080000D03*
X6604000Y-1524000D03*
X1778000Y-13462000D03*
D10*
G36*
X13878825Y-4945957D02*
X13454957Y-5369825D01*
X13172977Y-5087845D01*
X13596845Y-4663977D01*
X13878825Y-4945957D01*
X13878825Y-4945957D01*
G37*
G36*
X13243023Y-4310155D02*
X12819155Y-4734023D01*
X12537175Y-4452043D01*
X12961043Y-4028175D01*
X13243023Y-4310155D01*
X13243023Y-4310155D01*
G37*
D14*
X15748000Y-16959580D03*
X15748000Y-16060420D03*
D10*
G36*
X3972825Y-14470957D02*
X3548957Y-14894825D01*
X3266977Y-14612845D01*
X3690845Y-14188977D01*
X3972825Y-14470957D01*
X3972825Y-14470957D01*
G37*
G36*
X3337023Y-13835155D02*
X2913155Y-14259023D01*
X2631175Y-13977043D01*
X3055043Y-13553175D01*
X3337023Y-13835155D01*
X3337023Y-13835155D01*
G37*
G36*
X7500043Y-2829825D02*
X7076175Y-2405957D01*
X7358155Y-2123977D01*
X7782023Y-2547845D01*
X7500043Y-2829825D01*
X7500043Y-2829825D01*
G37*
G36*
X8135845Y-2194023D02*
X7711977Y-1770155D01*
X7993957Y-1488175D01*
X8417825Y-1912043D01*
X8135845Y-2194023D01*
X8135845Y-2194023D01*
G37*
D14*
X21971000Y-18039080D03*
X21971000Y-17139920D03*
D10*
G36*
X6201475Y-15251094D02*
X5883574Y-14933193D01*
X7297067Y-13519700D01*
X7614968Y-13837601D01*
X6201475Y-15251094D01*
X6201475Y-15251094D01*
G37*
G36*
X5635719Y-14685338D02*
X5317818Y-14367437D01*
X6731311Y-12953944D01*
X7049212Y-13271845D01*
X5635719Y-14685338D01*
X5635719Y-14685338D01*
G37*
G36*
X5069963Y-14119582D02*
X4752062Y-13801681D01*
X6165555Y-12388188D01*
X6483456Y-12706089D01*
X5069963Y-14119582D01*
X5069963Y-14119582D01*
G37*
G36*
X4504206Y-13553826D02*
X4186305Y-13235925D01*
X5599798Y-11822432D01*
X5917699Y-12140333D01*
X4504206Y-13553826D01*
X4504206Y-13553826D01*
G37*
G36*
X3938450Y-12988070D02*
X3620549Y-12670169D01*
X5034042Y-11256676D01*
X5351943Y-11574577D01*
X3938450Y-12988070D01*
X3938450Y-12988070D01*
G37*
G36*
X3372694Y-12422313D02*
X3054793Y-12104412D01*
X4468286Y-10690919D01*
X4786187Y-11008820D01*
X3372694Y-12422313D01*
X3372694Y-12422313D01*
G37*
G36*
X2806938Y-11856557D02*
X2489037Y-11538656D01*
X3902530Y-10125163D01*
X4220431Y-10443064D01*
X2806938Y-11856557D01*
X2806938Y-11856557D01*
G37*
G36*
X2241182Y-11290801D02*
X1923281Y-10972900D01*
X3336774Y-9559407D01*
X3654675Y-9877308D01*
X2241182Y-11290801D01*
X2241182Y-11290801D01*
G37*
G36*
X9008703Y-4530464D02*
X8690802Y-4212563D01*
X10104295Y-2799070D01*
X10422196Y-3116971D01*
X9008703Y-4530464D01*
X9008703Y-4530464D01*
G37*
G36*
X12977976Y-8499738D02*
X12660075Y-8181837D01*
X14073568Y-6768344D01*
X14391469Y-7086245D01*
X12977976Y-8499738D01*
X12977976Y-8499738D01*
G37*
G36*
X12403240Y-7925001D02*
X12085339Y-7607100D01*
X13498832Y-6193607D01*
X13816733Y-6511508D01*
X12403240Y-7925001D01*
X12403240Y-7925001D01*
G37*
G36*
X11828503Y-7350265D02*
X11510602Y-7032364D01*
X12924095Y-5618871D01*
X13241996Y-5936772D01*
X11828503Y-7350265D01*
X11828503Y-7350265D01*
G37*
G36*
X11271727Y-6793489D02*
X10953826Y-6475588D01*
X12367319Y-5062095D01*
X12685220Y-5379996D01*
X11271727Y-6793489D01*
X11271727Y-6793489D01*
G37*
G36*
X10696991Y-6218753D02*
X10379090Y-5900852D01*
X11792583Y-4487359D01*
X12110484Y-4805260D01*
X10696991Y-6218753D01*
X10696991Y-6218753D01*
G37*
G36*
X10140215Y-5661977D02*
X9822314Y-5344076D01*
X11235807Y-3930583D01*
X11553708Y-4248484D01*
X10140215Y-5661977D01*
X10140215Y-5661977D01*
G37*
G36*
X9565479Y-5087240D02*
X9247578Y-4769339D01*
X10661071Y-3355846D01*
X10978972Y-3673747D01*
X9565479Y-5087240D01*
X9565479Y-5087240D01*
G37*
G36*
X3329590Y-8467409D02*
X1916097Y-7053916D01*
X2233998Y-6736015D01*
X3647491Y-8149508D01*
X3329590Y-8467409D01*
X3329590Y-8467409D01*
G37*
G36*
X3893550Y-7903449D02*
X2480057Y-6489956D01*
X2797958Y-6172055D01*
X4211451Y-7585548D01*
X3893550Y-7903449D01*
X3893550Y-7903449D01*
G37*
G36*
X4461102Y-7335896D02*
X3047609Y-5922403D01*
X3365510Y-5604502D01*
X4779003Y-7017995D01*
X4461102Y-7335896D01*
X4461102Y-7335896D01*
G37*
G36*
X5025062Y-6771936D02*
X3611569Y-5358443D01*
X3929470Y-5040542D01*
X5342963Y-6454035D01*
X5025062Y-6771936D01*
X5025062Y-6771936D01*
G37*
G36*
X5592614Y-6204384D02*
X4179121Y-4790891D01*
X4497022Y-4472990D01*
X5910515Y-5886483D01*
X5592614Y-6204384D01*
X5592614Y-6204384D01*
G37*
G36*
X6156574Y-5640424D02*
X4743081Y-4226931D01*
X5060982Y-3909030D01*
X6474475Y-5322523D01*
X6156574Y-5640424D01*
X6156574Y-5640424D01*
G37*
G36*
X6724127Y-5072872D02*
X5310634Y-3659379D01*
X5628535Y-3341478D01*
X7042028Y-4754971D01*
X6724127Y-5072872D01*
X6724127Y-5072872D01*
G37*
G36*
X7288087Y-4508912D02*
X5874594Y-3095419D01*
X6192495Y-2777518D01*
X7605988Y-4191011D01*
X7288087Y-4508912D01*
X7288087Y-4508912D01*
G37*
G36*
X10122255Y-15252890D02*
X8708762Y-13839397D01*
X9026663Y-13521496D01*
X10440156Y-14934989D01*
X10122255Y-15252890D01*
X10122255Y-15252890D01*
G37*
G36*
X10679031Y-14696114D02*
X9265538Y-13282621D01*
X9583439Y-12964720D01*
X10996932Y-14378213D01*
X10679031Y-14696114D01*
X10679031Y-14696114D01*
G37*
G36*
X11253768Y-14121378D02*
X9840275Y-12707885D01*
X10158176Y-12389984D01*
X11571669Y-13803477D01*
X11253768Y-14121378D01*
X11253768Y-14121378D01*
G37*
G36*
X11810544Y-13564602D02*
X10397051Y-12151109D01*
X10714952Y-11833208D01*
X12128445Y-13246701D01*
X11810544Y-13564602D01*
X11810544Y-13564602D01*
G37*
G36*
X12367319Y-13007826D02*
X10953826Y-11594333D01*
X11271727Y-11276432D01*
X12685220Y-12689925D01*
X12367319Y-13007826D01*
X12367319Y-13007826D01*
G37*
G36*
X12942056Y-12433090D02*
X11528563Y-11019597D01*
X11846464Y-10701696D01*
X13259957Y-12115189D01*
X12942056Y-12433090D01*
X12942056Y-12433090D01*
G37*
G36*
X13516792Y-11858353D02*
X12103299Y-10444860D01*
X12421200Y-10126959D01*
X13834693Y-11540452D01*
X13516792Y-11858353D01*
X13516792Y-11858353D01*
G37*
G36*
X14091529Y-11283617D02*
X12678036Y-9870124D01*
X12995937Y-9552223D01*
X14409430Y-10965716D01*
X14091529Y-11283617D01*
X14091529Y-11283617D01*
G37*
D12*
X17145000Y-14097000D03*
D13*
X19685000Y-14097000D03*
X17145000Y-11557000D03*
X19685000Y-11557000D03*
X17145000Y-9017000D03*
X19685000Y-9017000D03*
D11*
X4064000Y-1524000D03*
X1524000Y-1524000D03*
D10*
G36*
X8960543Y-3147325D02*
X8536675Y-2723457D01*
X8818655Y-2441477D01*
X9242523Y-2865345D01*
X8960543Y-3147325D01*
X8960543Y-3147325D01*
G37*
G36*
X9596345Y-2511523D02*
X9172477Y-2087655D01*
X9454457Y-1805675D01*
X9878325Y-2229543D01*
X9596345Y-2511523D01*
X9596345Y-2511523D01*
G37*
D14*
X21971000Y-14356080D03*
X21971000Y-13456920D03*
X19939000Y-1645920D03*
X19939000Y-2545080D03*
D15*
X18288000Y-16065500D03*
X18288000Y-17970500D03*
X20828000Y-16065500D03*
X18288000Y-17018000D03*
X20828000Y-17970500D03*
D16*
X9779000Y-8890000D03*
X14351000Y-12509500D03*
X21717000Y-10287000D03*
X14922500Y-13589000D03*
X14414500Y-14732000D03*
X7620000Y-5651500D03*
X7747000Y-762000D03*
X5651500Y-7747000D03*
X13525500Y-17018000D03*
X19685000Y-17018000D03*
X9842500Y-6731000D03*
X14922500Y-9906000D03*
X11430000Y-9906000D03*
X5143500Y-9842500D03*
X23114000Y-1651000D03*
X15113000Y-5143500D03*
D17*
X6176331Y-4207175D02*
X5334000Y-3364844D01*
X5334000Y-2794000D02*
X6604000Y-1524000D01*
X5334000Y-3364844D02*
X5334000Y-2794000D01*
X2788978Y-10425104D02*
X1524000Y-9160126D01*
X1524000Y-9160126D02*
X1524000Y-8890000D01*
X2781794Y-7601712D02*
X1524000Y-6343918D01*
X1524000Y-6343918D02*
X1524000Y-5080000D01*
X9779000Y-8890000D02*
X7747000Y-6858000D01*
X8889599Y-2794401D02*
X7810099Y-2794401D01*
X7810099Y-2794401D02*
X7492599Y-2476901D01*
X4477266Y-5906239D02*
X5429027Y-6858000D01*
X8255000Y-3429000D02*
X8889599Y-2794401D01*
X8255000Y-4573722D02*
X8255000Y-3429000D01*
X8509000Y-4827722D02*
X8255000Y-4573722D01*
X8509000Y-6096000D02*
X8509000Y-4827722D01*
X7747000Y-6858000D02*
X8223250Y-6381750D01*
X8223250Y-6381750D02*
X8509000Y-6096000D01*
X5429027Y-6858000D02*
X7747000Y-6858000D01*
X12968996Y-10992656D02*
X12968996Y-11127496D01*
X12968996Y-11127496D02*
X14351000Y-12509500D01*
X23876000Y-11557000D02*
X19685000Y-11557000D01*
X17145000Y-14097000D02*
X17145000Y-14019187D01*
X17145000Y-14019187D02*
X13543733Y-10417920D01*
X26416000Y-9017000D02*
X25146000Y-10287000D01*
X18415000Y-12827000D02*
X17145000Y-14097000D01*
X24447500Y-12827000D02*
X18415000Y-12827000D01*
X25146000Y-12128500D02*
X24447500Y-12827000D01*
X25146000Y-10287000D02*
X25146000Y-12128500D01*
X21717000Y-10287000D02*
X18415000Y-10287000D01*
X13525772Y-7634041D02*
X14365313Y-6794500D01*
X18415000Y-10287000D02*
X17145000Y-11557000D01*
X18415000Y-8064500D02*
X18415000Y-10287000D01*
X17145000Y-6794500D02*
X18415000Y-8064500D01*
X14365313Y-6794500D02*
X17145000Y-6794500D01*
X22288500Y-7429500D02*
X18986500Y-7429500D01*
X23876000Y-9017000D02*
X22288500Y-7429500D01*
X14922500Y-3365500D02*
X18986500Y-7429500D01*
X10969318Y-3365500D02*
X10113275Y-4221543D01*
X10969318Y-3365500D02*
X13271500Y-3365500D01*
X13271500Y-3365500D02*
X14922500Y-3365500D01*
X12394260Y-11567393D02*
X13342409Y-12515542D01*
X13984818Y-13589000D02*
X14922500Y-13589000D01*
X13342409Y-12946591D02*
X13984818Y-13589000D01*
X13342409Y-12515542D02*
X13342409Y-12946591D01*
X23876000Y-14097000D02*
X23235920Y-13456920D01*
X23235920Y-13456920D02*
X21971000Y-13456920D01*
X14409394Y-14732000D02*
X11819523Y-12142129D01*
X14414500Y-14732000D02*
X14409394Y-14732000D01*
D18*
X9556499Y-3664767D02*
X11443266Y-1778000D01*
X11443266Y-1778000D02*
X12700000Y-1778000D01*
X7620000Y-4522924D02*
X6740291Y-3643215D01*
X7620000Y-4522924D02*
X7620000Y-5651500D01*
X19939000Y-2794000D02*
X19304000Y-3429000D01*
X16891000Y-3429000D02*
X15240000Y-1778000D01*
X16891000Y-3429000D02*
X19304000Y-3429000D01*
X19939000Y-2545080D02*
X19939000Y-2794000D01*
X18288000Y-17970500D02*
X17526000Y-17970500D01*
X17018000Y-17462500D02*
X17018000Y-16065500D01*
X17526000Y-17970500D02*
X17018000Y-17462500D01*
X12951036Y-7059304D02*
X7754840Y-12255500D01*
X7754840Y-12255500D02*
X7175500Y-12255500D01*
X18288000Y-16065500D02*
X19685000Y-14668500D01*
X5617759Y-13253885D02*
X6616144Y-12255500D01*
X6616144Y-12255500D02*
X7175500Y-12255500D01*
X9969500Y-15875000D02*
X8128000Y-14033500D01*
X7175500Y-12255500D02*
X7556500Y-12636500D01*
X9969500Y-15875000D02*
X12636500Y-15875000D01*
X8128000Y-13208000D02*
X7556500Y-12636500D01*
X8128000Y-14033500D02*
X8128000Y-13208000D01*
X12954000Y-15557500D02*
X12636500Y-15875000D01*
X15748000Y-16060420D02*
X13456920Y-16060420D01*
X13456920Y-16060420D02*
X12954000Y-15557500D01*
X8128401Y-1841099D02*
X9207901Y-1841099D01*
X9207901Y-1841099D02*
X9525401Y-2158599D01*
X12951036Y-7059304D02*
X14033500Y-5976840D01*
X14033500Y-5524500D02*
X13525901Y-5016901D01*
X14033500Y-5976840D02*
X14033500Y-5524500D01*
X15753080Y-16065500D02*
X17018000Y-16065500D01*
X17018000Y-16065500D02*
X18288000Y-16065500D01*
X15748000Y-16060420D02*
X15753080Y-16065500D01*
X19685000Y-14668500D02*
X19685000Y-14097000D01*
X4486246Y-12122373D02*
X3556000Y-13052619D01*
X3937000Y-14224802D02*
X3619901Y-14541901D01*
X3937000Y-13716000D02*
X3937000Y-14224802D01*
X3556000Y-13335000D02*
X3937000Y-13716000D01*
X3556000Y-13052619D02*
X3556000Y-13335000D01*
X5617759Y-13253885D02*
X4329743Y-14541901D01*
X4329743Y-14541901D02*
X3619901Y-14541901D01*
X8064901Y-1079901D02*
X7747000Y-762000D01*
X5651500Y-7747000D02*
X6794500Y-8890000D01*
X6794500Y-8890000D02*
X6794500Y-12255500D01*
X6794500Y-12255500D02*
X6616144Y-12255500D01*
X8064901Y-1841099D02*
X8064901Y-1079901D01*
X18288000Y-17018000D02*
X19685000Y-17018000D01*
X13583920Y-16959580D02*
X15748000Y-16959580D01*
X13525500Y-17018000D02*
X13583920Y-16959580D01*
X9866843Y-6731000D02*
X9842500Y-6731000D01*
X9866843Y-6731000D02*
X11244787Y-5353056D01*
X26416000Y-16637000D02*
X25013920Y-18039080D01*
X25013920Y-18039080D02*
X21971000Y-18039080D01*
X11244787Y-5353056D02*
X12343343Y-4254500D01*
X12343343Y-4254500D02*
X12763500Y-4254500D01*
X12763500Y-4254500D02*
X12890099Y-4381099D01*
X15748000Y-16959580D02*
X15689580Y-17018000D01*
X18288000Y-17018000D02*
X18229580Y-16959580D01*
X3920490Y-11556616D02*
X4936106Y-10541000D01*
X6096000Y-11644131D02*
X6096000Y-11303000D01*
X6096000Y-11303000D02*
X5715000Y-10922000D01*
X6096000Y-11644131D02*
X5052002Y-12688129D01*
X5334000Y-10541000D02*
X5715000Y-10922000D01*
X5207000Y-10541000D02*
X5334000Y-10541000D01*
X5143500Y-10541000D02*
X5207000Y-10541000D01*
X4936106Y-10541000D02*
X5143500Y-10541000D01*
X3920490Y-11556616D02*
X2667000Y-12810106D01*
X2667000Y-12810106D02*
X2667000Y-13589000D01*
X2015106Y-13462000D02*
X1778000Y-13462000D01*
X2984099Y-13906099D02*
X2667000Y-13589000D01*
X2667000Y-13589000D02*
X2540000Y-13462000D01*
X2540000Y-13462000D02*
X1778000Y-13462000D01*
X3920490Y-11573510D02*
X3920490Y-11556616D01*
X3920490Y-11556616D02*
X3937384Y-11556616D01*
X5143500Y-9842500D02*
X5143500Y-10541000D01*
X13970000Y-4000500D02*
X13270698Y-4000500D01*
X13270698Y-4000500D02*
X12890099Y-4381099D01*
X23108920Y-1645920D02*
X23114000Y-1651000D01*
X19939000Y-1645920D02*
X23108920Y-1645920D01*
X15113000Y-5143500D02*
X13970000Y-4000500D01*
D17*
X3913306Y-6470199D02*
X3111502Y-5668395D01*
X3111502Y-2476498D02*
X4064000Y-1524000D01*
X3111502Y-5668395D02*
X3111502Y-2476498D01*
X3345754Y-7037752D02*
X2603500Y-6295498D01*
X2603500Y-2603500D02*
X1524000Y-1524000D01*
X2603500Y-6295498D02*
X2603500Y-2603500D01*
D18*
X21971000Y-16637000D02*
X21971000Y-14356080D01*
X21971000Y-17139920D02*
X21971000Y-16637000D01*
X21971000Y-16637000D02*
X21971000Y-16631920D01*
X21971000Y-16631920D02*
X21394420Y-16631920D01*
X21394420Y-16631920D02*
X20828000Y-16065500D01*
X23876000Y-16637000D02*
X21976080Y-16637000D01*
X21976080Y-16637000D02*
X21971000Y-16631920D01*
D17*
G36*
X11561789Y-7622366D02*
X10561661Y-8622494D01*
X10479233Y-8423002D01*
X10247219Y-8190583D01*
X9943923Y-8064643D01*
X9671826Y-8064406D01*
X8465420Y-6858000D01*
X8582460Y-6740960D01*
X8868210Y-6455210D01*
X8868211Y-6455210D01*
X8978331Y-6290403D01*
X9017000Y-6096000D01*
X9017000Y-5077575D01*
X9031759Y-5092335D01*
X9349660Y-5410236D01*
X9455484Y-5454069D01*
X9499319Y-5559895D01*
X9606495Y-5667072D01*
X9871091Y-5931668D01*
X9871091Y-6001899D01*
X9948428Y-6188610D01*
X10091331Y-6331513D01*
X10035147Y-6275328D01*
X10214752Y-6275328D01*
X11137024Y-5353056D01*
X11122881Y-5338913D01*
X11230644Y-5231150D01*
X11244787Y-5245293D01*
X11258929Y-5231150D01*
X11366692Y-5338913D01*
X11352550Y-5353056D01*
X11366692Y-5367198D01*
X11258929Y-5474961D01*
X11244787Y-5460819D01*
X10322515Y-6383091D01*
X10322515Y-6562696D01*
X10266330Y-6506512D01*
X10409233Y-6649415D01*
X10595944Y-6726752D01*
X10666175Y-6726752D01*
X10738007Y-6798584D01*
X11055908Y-7116485D01*
X11149033Y-7155058D01*
X11187607Y-7248183D01*
X11294783Y-7355360D01*
X11561789Y-7622366D01*
X11561789Y-7622366D01*
G37*
X11561789Y-7622366D02*
X10561661Y-8622494D01*
X10479233Y-8423002D01*
X10247219Y-8190583D01*
X9943923Y-8064643D01*
X9671826Y-8064406D01*
X8465420Y-6858000D01*
X8582460Y-6740960D01*
X8868210Y-6455210D01*
X8868211Y-6455210D01*
X8978331Y-6290403D01*
X9017000Y-6096000D01*
X9017000Y-5077575D01*
X9031759Y-5092335D01*
X9349660Y-5410236D01*
X9455484Y-5454069D01*
X9499319Y-5559895D01*
X9606495Y-5667072D01*
X9871091Y-5931668D01*
X9871091Y-6001899D01*
X9948428Y-6188610D01*
X10091331Y-6331513D01*
X10035147Y-6275328D01*
X10214752Y-6275328D01*
X11137024Y-5353056D01*
X11122881Y-5338913D01*
X11230644Y-5231150D01*
X11244787Y-5245293D01*
X11258929Y-5231150D01*
X11366692Y-5338913D01*
X11352550Y-5353056D01*
X11366692Y-5367198D01*
X11258929Y-5474961D01*
X11244787Y-5460819D01*
X10322515Y-6383091D01*
X10322515Y-6562696D01*
X10266330Y-6506512D01*
X10409233Y-6649415D01*
X10595944Y-6726752D01*
X10666175Y-6726752D01*
X10738007Y-6798584D01*
X11055908Y-7116485D01*
X11149033Y-7155058D01*
X11187607Y-7248183D01*
X11294783Y-7355360D01*
X11561789Y-7622366D01*
G36*
X13012004Y-4395241D02*
X12904241Y-4503004D01*
X12890099Y-4488862D01*
X12875956Y-4503004D01*
X12768193Y-4395241D01*
X12782336Y-4381099D01*
X12425820Y-4024583D01*
X12246215Y-4024583D01*
X12147221Y-4123577D01*
X12080341Y-4056697D01*
X11893630Y-3979360D01*
X11823398Y-3979360D01*
X11769527Y-3925488D01*
X11717539Y-3873500D01*
X12533583Y-3873500D01*
X12533583Y-3916820D01*
X12890099Y-4273336D01*
X12904241Y-4259193D01*
X13012004Y-4366956D01*
X12997862Y-4381099D01*
X13012004Y-4395241D01*
X13012004Y-4395241D01*
G37*
X13012004Y-4395241D02*
X12904241Y-4503004D01*
X12890099Y-4488862D01*
X12875956Y-4503004D01*
X12768193Y-4395241D01*
X12782336Y-4381099D01*
X12425820Y-4024583D01*
X12246215Y-4024583D01*
X12147221Y-4123577D01*
X12080341Y-4056697D01*
X11893630Y-3979360D01*
X11823398Y-3979360D01*
X11769527Y-3925488D01*
X11717539Y-3873500D01*
X12533583Y-3873500D01*
X12533583Y-3916820D01*
X12890099Y-4273336D01*
X12904241Y-4259193D01*
X13012004Y-4366956D01*
X12997862Y-4381099D01*
X13012004Y-4395241D01*
G36*
X16967316Y-18238000D02*
X15671800Y-18238000D01*
X15671800Y-17539970D01*
X15671800Y-17035780D01*
X15067280Y-17035780D01*
X14940280Y-17162780D01*
X14940280Y-17260017D01*
X15017618Y-17446728D01*
X15160521Y-17589631D01*
X15347232Y-17666970D01*
X15544800Y-17666970D01*
X15671800Y-17539970D01*
X15671800Y-18238000D01*
X1701800Y-18238000D01*
X1701800Y-14497593D01*
X1701800Y-13538200D01*
X1701800Y-13385800D01*
X1701800Y-12426407D01*
X1520821Y-12325339D01*
X1105416Y-12510280D01*
X792406Y-12840112D01*
X641339Y-13204821D01*
X742407Y-13385800D01*
X1701800Y-13385800D01*
X1701800Y-13538200D01*
X742407Y-13538200D01*
X641339Y-13719179D01*
X826280Y-14134584D01*
X1156112Y-14447594D01*
X1520821Y-14598661D01*
X1701800Y-14497593D01*
X1701800Y-18238000D01*
X431000Y-18238000D01*
X431000Y-431000D01*
X6990604Y-431000D01*
X6936266Y-561859D01*
X6806982Y-508176D01*
X6402792Y-507824D01*
X6029234Y-662175D01*
X5743179Y-947731D01*
X5588176Y-1321018D01*
X5587824Y-1725208D01*
X5616052Y-1793527D01*
X4974790Y-2434790D01*
X4864669Y-2599597D01*
X4826000Y-2794000D01*
X4826000Y-3364844D01*
X4864669Y-3559247D01*
X4874459Y-3573899D01*
X4845163Y-3586035D01*
X4737986Y-3693211D01*
X4420085Y-4011112D01*
X4379407Y-4109317D01*
X4281203Y-4149995D01*
X4174026Y-4257171D01*
X3856125Y-4575072D01*
X3814395Y-4675817D01*
X3713651Y-4717547D01*
X3619502Y-4811695D01*
X3619502Y-2686918D01*
X3794300Y-2512120D01*
X3861018Y-2539824D01*
X4265208Y-2540176D01*
X4638766Y-2385825D01*
X4924821Y-2100269D01*
X5079824Y-1726982D01*
X5080176Y-1322792D01*
X4925825Y-949234D01*
X4640269Y-663179D01*
X4266982Y-508176D01*
X3862792Y-507824D01*
X3489234Y-662175D01*
X3203179Y-947731D01*
X3048176Y-1321018D01*
X3047824Y-1725208D01*
X3076052Y-1793526D01*
X2794000Y-2075579D01*
X2512120Y-1793699D01*
X2539824Y-1726982D01*
X2540176Y-1322792D01*
X2385825Y-949234D01*
X2100269Y-663179D01*
X1726982Y-508176D01*
X1322792Y-507824D01*
X949234Y-662175D01*
X663179Y-947731D01*
X508176Y-1321018D01*
X507824Y-1725208D01*
X662175Y-2098766D01*
X947731Y-2384821D01*
X1321018Y-2539824D01*
X1725208Y-2540176D01*
X1793526Y-2511947D01*
X2095500Y-2813920D01*
X2095500Y-4217198D01*
X1726982Y-4064176D01*
X1322792Y-4063824D01*
X949234Y-4218175D01*
X663179Y-4503731D01*
X508176Y-4877018D01*
X507824Y-5281208D01*
X662175Y-5654766D01*
X947731Y-5940821D01*
X1016000Y-5969168D01*
X1016000Y-6343918D01*
X1054669Y-6538321D01*
X1164790Y-6703128D01*
X1535097Y-7073435D01*
X1535098Y-7129702D01*
X1593102Y-7269736D01*
X1700278Y-7376913D01*
X3113771Y-8790405D01*
X3253805Y-8848409D01*
X3405375Y-8848408D01*
X3545409Y-8790404D01*
X3652586Y-8683228D01*
X3970487Y-8365327D01*
X4011164Y-8267121D01*
X4109369Y-8226444D01*
X4216546Y-8119268D01*
X4534447Y-7801367D01*
X4576177Y-7700620D01*
X4676921Y-7658891D01*
X4784098Y-7551715D01*
X4877559Y-7458253D01*
X4826143Y-7582077D01*
X4825857Y-7910482D01*
X4951267Y-8213998D01*
X5183281Y-8446417D01*
X5486577Y-8572357D01*
X5650816Y-8572500D01*
X6210300Y-9131984D01*
X6210300Y-11714514D01*
X6210300Y-11765857D01*
X6082037Y-11765857D01*
X5159765Y-12688129D01*
X5173907Y-12702271D01*
X5066144Y-12810034D01*
X5052002Y-12795892D01*
X5037859Y-12810034D01*
X4930096Y-12702271D01*
X4944239Y-12688129D01*
X4930096Y-12673986D01*
X5037859Y-12566223D01*
X5052002Y-12580366D01*
X5974274Y-11658094D01*
X5974274Y-11478489D01*
X6030459Y-11534673D01*
X5887556Y-11391770D01*
X5700845Y-11314433D01*
X5630613Y-11314433D01*
X5567762Y-11251581D01*
X5294186Y-10978005D01*
X5294186Y-10907773D01*
X5216849Y-10721062D01*
X5073946Y-10578159D01*
X5130130Y-10634344D01*
X4950525Y-10634344D01*
X4898947Y-10685922D01*
X4898947Y-10403160D01*
X4756044Y-10260257D01*
X4569333Y-10182920D01*
X4499101Y-10182920D01*
X4436250Y-10120068D01*
X4118349Y-9802167D01*
X4018873Y-9760963D01*
X3977670Y-9661489D01*
X3870494Y-9554312D01*
X3552593Y-9236411D01*
X3412558Y-9178407D01*
X3260988Y-9178408D01*
X3120954Y-9236412D01*
X3013777Y-9343588D01*
X2719829Y-9637535D01*
X2432863Y-9350569D01*
X2539824Y-9092982D01*
X2540176Y-8688792D01*
X2385825Y-8315234D01*
X2100269Y-8029179D01*
X1726982Y-7874176D01*
X1322792Y-7873824D01*
X949234Y-8028175D01*
X663179Y-8313731D01*
X508176Y-8687018D01*
X507824Y-9091208D01*
X662175Y-9464766D01*
X947731Y-9750821D01*
X1321018Y-9905824D01*
X1551478Y-9906024D01*
X2001409Y-10355955D01*
X1600285Y-10757081D01*
X1542281Y-10897115D01*
X1542282Y-11048685D01*
X1600286Y-11188719D01*
X1707462Y-11295896D01*
X2025363Y-11613797D01*
X2124838Y-11655000D01*
X2166042Y-11754475D01*
X2273218Y-11861652D01*
X2546794Y-12135228D01*
X2546794Y-12205459D01*
X2624131Y-12392170D01*
X2767034Y-12535073D01*
X2710850Y-12478888D01*
X2890455Y-12478888D01*
X3812727Y-11556616D01*
X3798584Y-11542473D01*
X3906347Y-11434710D01*
X3920490Y-11448853D01*
X4842762Y-10526581D01*
X4842762Y-10346976D01*
X4898947Y-10403160D01*
X4898947Y-10685922D01*
X4028253Y-11556616D01*
X4042395Y-11570758D01*
X3934632Y-11678521D01*
X3920490Y-11664379D01*
X2998218Y-12586651D01*
X2998218Y-12766256D01*
X2942033Y-12710072D01*
X3034192Y-12802231D01*
X3016270Y-12829055D01*
X2973280Y-13045175D01*
X2953996Y-13045175D01*
X2860776Y-13083787D01*
X2729720Y-12789416D01*
X2399888Y-12476406D01*
X2035179Y-12325339D01*
X1854200Y-12426407D01*
X1854200Y-13385800D01*
X2627583Y-13385800D01*
X2627583Y-13441820D01*
X2723963Y-13538200D01*
X1854200Y-13538200D01*
X1854200Y-14497593D01*
X2035179Y-14598661D01*
X2450584Y-14413720D01*
X2763594Y-14083888D01*
X2809588Y-13972846D01*
X2876336Y-13906099D01*
X2848688Y-13878451D01*
X2911814Y-13726051D01*
X2984099Y-13798336D01*
X2998241Y-13784193D01*
X3106004Y-13891956D01*
X3091862Y-13906099D01*
X3106004Y-13920241D01*
X2998241Y-14028004D01*
X2984099Y-14013862D01*
X2556639Y-14441322D01*
X2556639Y-14620927D01*
X2625396Y-14689684D01*
X2812107Y-14767023D01*
X2918448Y-14767023D01*
X2943981Y-14828665D01*
X3051158Y-14935842D01*
X3333138Y-15217822D01*
X3473172Y-15275826D01*
X3624743Y-15275825D01*
X3764777Y-15217821D01*
X3856496Y-15126101D01*
X4329743Y-15126101D01*
X4553306Y-15081631D01*
X4553307Y-15081631D01*
X4742835Y-14954993D01*
X5054697Y-14643130D01*
X5101999Y-14690433D01*
X5419900Y-15008334D01*
X5519375Y-15049537D01*
X5560579Y-15149012D01*
X5667755Y-15256189D01*
X5985656Y-15574090D01*
X6125691Y-15632094D01*
X6277261Y-15632093D01*
X6417295Y-15574089D01*
X6524472Y-15466913D01*
X7646769Y-14344614D01*
X7714908Y-14446592D01*
X9556408Y-16288092D01*
X9745936Y-16414730D01*
X9745937Y-16414730D01*
X9969500Y-16459200D01*
X12476178Y-16459200D01*
X12751018Y-16573324D01*
X13155208Y-16573676D01*
X13179013Y-16563839D01*
X13179014Y-16563839D01*
X13233356Y-16600150D01*
X13233357Y-16600150D01*
X13456920Y-16644620D01*
X14946295Y-16644620D01*
X14940280Y-16659143D01*
X14940280Y-16756380D01*
X15067280Y-16883380D01*
X15671800Y-16883380D01*
X15671800Y-16863380D01*
X15824200Y-16863380D01*
X15824200Y-16883380D01*
X15844200Y-16883380D01*
X15844200Y-17035780D01*
X15824200Y-17035780D01*
X15824200Y-17539970D01*
X15951200Y-17666970D01*
X16148768Y-17666970D01*
X16335479Y-17589631D01*
X16438579Y-17486530D01*
X16478270Y-17686064D01*
X16604908Y-17875592D01*
X16967316Y-18238000D01*
X16967316Y-18238000D01*
G37*
X16967316Y-18238000D02*
X15671800Y-18238000D01*
X15671800Y-17539970D01*
X15671800Y-17035780D01*
X15067280Y-17035780D01*
X14940280Y-17162780D01*
X14940280Y-17260017D01*
X15017618Y-17446728D01*
X15160521Y-17589631D01*
X15347232Y-17666970D01*
X15544800Y-17666970D01*
X15671800Y-17539970D01*
X15671800Y-18238000D01*
X1701800Y-18238000D01*
X1701800Y-14497593D01*
X1701800Y-13538200D01*
X1701800Y-13385800D01*
X1701800Y-12426407D01*
X1520821Y-12325339D01*
X1105416Y-12510280D01*
X792406Y-12840112D01*
X641339Y-13204821D01*
X742407Y-13385800D01*
X1701800Y-13385800D01*
X1701800Y-13538200D01*
X742407Y-13538200D01*
X641339Y-13719179D01*
X826280Y-14134584D01*
X1156112Y-14447594D01*
X1520821Y-14598661D01*
X1701800Y-14497593D01*
X1701800Y-18238000D01*
X431000Y-18238000D01*
X431000Y-431000D01*
X6990604Y-431000D01*
X6936266Y-561859D01*
X6806982Y-508176D01*
X6402792Y-507824D01*
X6029234Y-662175D01*
X5743179Y-947731D01*
X5588176Y-1321018D01*
X5587824Y-1725208D01*
X5616052Y-1793527D01*
X4974790Y-2434790D01*
X4864669Y-2599597D01*
X4826000Y-2794000D01*
X4826000Y-3364844D01*
X4864669Y-3559247D01*
X4874459Y-3573899D01*
X4845163Y-3586035D01*
X4737986Y-3693211D01*
X4420085Y-4011112D01*
X4379407Y-4109317D01*
X4281203Y-4149995D01*
X4174026Y-4257171D01*
X3856125Y-4575072D01*
X3814395Y-4675817D01*
X3713651Y-4717547D01*
X3619502Y-4811695D01*
X3619502Y-2686918D01*
X3794300Y-2512120D01*
X3861018Y-2539824D01*
X4265208Y-2540176D01*
X4638766Y-2385825D01*
X4924821Y-2100269D01*
X5079824Y-1726982D01*
X5080176Y-1322792D01*
X4925825Y-949234D01*
X4640269Y-663179D01*
X4266982Y-508176D01*
X3862792Y-507824D01*
X3489234Y-662175D01*
X3203179Y-947731D01*
X3048176Y-1321018D01*
X3047824Y-1725208D01*
X3076052Y-1793526D01*
X2794000Y-2075579D01*
X2512120Y-1793699D01*
X2539824Y-1726982D01*
X2540176Y-1322792D01*
X2385825Y-949234D01*
X2100269Y-663179D01*
X1726982Y-508176D01*
X1322792Y-507824D01*
X949234Y-662175D01*
X663179Y-947731D01*
X508176Y-1321018D01*
X507824Y-1725208D01*
X662175Y-2098766D01*
X947731Y-2384821D01*
X1321018Y-2539824D01*
X1725208Y-2540176D01*
X1793526Y-2511947D01*
X2095500Y-2813920D01*
X2095500Y-4217198D01*
X1726982Y-4064176D01*
X1322792Y-4063824D01*
X949234Y-4218175D01*
X663179Y-4503731D01*
X508176Y-4877018D01*
X507824Y-5281208D01*
X662175Y-5654766D01*
X947731Y-5940821D01*
X1016000Y-5969168D01*
X1016000Y-6343918D01*
X1054669Y-6538321D01*
X1164790Y-6703128D01*
X1535097Y-7073435D01*
X1535098Y-7129702D01*
X1593102Y-7269736D01*
X1700278Y-7376913D01*
X3113771Y-8790405D01*
X3253805Y-8848409D01*
X3405375Y-8848408D01*
X3545409Y-8790404D01*
X3652586Y-8683228D01*
X3970487Y-8365327D01*
X4011164Y-8267121D01*
X4109369Y-8226444D01*
X4216546Y-8119268D01*
X4534447Y-7801367D01*
X4576177Y-7700620D01*
X4676921Y-7658891D01*
X4784098Y-7551715D01*
X4877559Y-7458253D01*
X4826143Y-7582077D01*
X4825857Y-7910482D01*
X4951267Y-8213998D01*
X5183281Y-8446417D01*
X5486577Y-8572357D01*
X5650816Y-8572500D01*
X6210300Y-9131984D01*
X6210300Y-11714514D01*
X6210300Y-11765857D01*
X6082037Y-11765857D01*
X5159765Y-12688129D01*
X5173907Y-12702271D01*
X5066144Y-12810034D01*
X5052002Y-12795892D01*
X5037859Y-12810034D01*
X4930096Y-12702271D01*
X4944239Y-12688129D01*
X4930096Y-12673986D01*
X5037859Y-12566223D01*
X5052002Y-12580366D01*
X5974274Y-11658094D01*
X5974274Y-11478489D01*
X6030459Y-11534673D01*
X5887556Y-11391770D01*
X5700845Y-11314433D01*
X5630613Y-11314433D01*
X5567762Y-11251581D01*
X5294186Y-10978005D01*
X5294186Y-10907773D01*
X5216849Y-10721062D01*
X5073946Y-10578159D01*
X5130130Y-10634344D01*
X4950525Y-10634344D01*
X4898947Y-10685922D01*
X4898947Y-10403160D01*
X4756044Y-10260257D01*
X4569333Y-10182920D01*
X4499101Y-10182920D01*
X4436250Y-10120068D01*
X4118349Y-9802167D01*
X4018873Y-9760963D01*
X3977670Y-9661489D01*
X3870494Y-9554312D01*
X3552593Y-9236411D01*
X3412558Y-9178407D01*
X3260988Y-9178408D01*
X3120954Y-9236412D01*
X3013777Y-9343588D01*
X2719829Y-9637535D01*
X2432863Y-9350569D01*
X2539824Y-9092982D01*
X2540176Y-8688792D01*
X2385825Y-8315234D01*
X2100269Y-8029179D01*
X1726982Y-7874176D01*
X1322792Y-7873824D01*
X949234Y-8028175D01*
X663179Y-8313731D01*
X508176Y-8687018D01*
X507824Y-9091208D01*
X662175Y-9464766D01*
X947731Y-9750821D01*
X1321018Y-9905824D01*
X1551478Y-9906024D01*
X2001409Y-10355955D01*
X1600285Y-10757081D01*
X1542281Y-10897115D01*
X1542282Y-11048685D01*
X1600286Y-11188719D01*
X1707462Y-11295896D01*
X2025363Y-11613797D01*
X2124838Y-11655000D01*
X2166042Y-11754475D01*
X2273218Y-11861652D01*
X2546794Y-12135228D01*
X2546794Y-12205459D01*
X2624131Y-12392170D01*
X2767034Y-12535073D01*
X2710850Y-12478888D01*
X2890455Y-12478888D01*
X3812727Y-11556616D01*
X3798584Y-11542473D01*
X3906347Y-11434710D01*
X3920490Y-11448853D01*
X4842762Y-10526581D01*
X4842762Y-10346976D01*
X4898947Y-10403160D01*
X4898947Y-10685922D01*
X4028253Y-11556616D01*
X4042395Y-11570758D01*
X3934632Y-11678521D01*
X3920490Y-11664379D01*
X2998218Y-12586651D01*
X2998218Y-12766256D01*
X2942033Y-12710072D01*
X3034192Y-12802231D01*
X3016270Y-12829055D01*
X2973280Y-13045175D01*
X2953996Y-13045175D01*
X2860776Y-13083787D01*
X2729720Y-12789416D01*
X2399888Y-12476406D01*
X2035179Y-12325339D01*
X1854200Y-12426407D01*
X1854200Y-13385800D01*
X2627583Y-13385800D01*
X2627583Y-13441820D01*
X2723963Y-13538200D01*
X1854200Y-13538200D01*
X1854200Y-14497593D01*
X2035179Y-14598661D01*
X2450584Y-14413720D01*
X2763594Y-14083888D01*
X2809588Y-13972846D01*
X2876336Y-13906099D01*
X2848688Y-13878451D01*
X2911814Y-13726051D01*
X2984099Y-13798336D01*
X2998241Y-13784193D01*
X3106004Y-13891956D01*
X3091862Y-13906099D01*
X3106004Y-13920241D01*
X2998241Y-14028004D01*
X2984099Y-14013862D01*
X2556639Y-14441322D01*
X2556639Y-14620927D01*
X2625396Y-14689684D01*
X2812107Y-14767023D01*
X2918448Y-14767023D01*
X2943981Y-14828665D01*
X3051158Y-14935842D01*
X3333138Y-15217822D01*
X3473172Y-15275826D01*
X3624743Y-15275825D01*
X3764777Y-15217821D01*
X3856496Y-15126101D01*
X4329743Y-15126101D01*
X4553306Y-15081631D01*
X4553307Y-15081631D01*
X4742835Y-14954993D01*
X5054697Y-14643130D01*
X5101999Y-14690433D01*
X5419900Y-15008334D01*
X5519375Y-15049537D01*
X5560579Y-15149012D01*
X5667755Y-15256189D01*
X5985656Y-15574090D01*
X6125691Y-15632094D01*
X6277261Y-15632093D01*
X6417295Y-15574089D01*
X6524472Y-15466913D01*
X7646769Y-14344614D01*
X7714908Y-14446592D01*
X9556408Y-16288092D01*
X9745936Y-16414730D01*
X9745937Y-16414730D01*
X9969500Y-16459200D01*
X12476178Y-16459200D01*
X12751018Y-16573324D01*
X13155208Y-16573676D01*
X13179013Y-16563839D01*
X13179014Y-16563839D01*
X13233356Y-16600150D01*
X13233357Y-16600150D01*
X13456920Y-16644620D01*
X14946295Y-16644620D01*
X14940280Y-16659143D01*
X14940280Y-16756380D01*
X15067280Y-16883380D01*
X15671800Y-16883380D01*
X15671800Y-16863380D01*
X15824200Y-16863380D01*
X15824200Y-16883380D01*
X15844200Y-16883380D01*
X15844200Y-17035780D01*
X15824200Y-17035780D01*
X15824200Y-17539970D01*
X15951200Y-17666970D01*
X16148768Y-17666970D01*
X16335479Y-17589631D01*
X16438579Y-17486530D01*
X16478270Y-17686064D01*
X16604908Y-17875592D01*
X16967316Y-18238000D01*
G36*
X17125080Y-6286500D02*
X14515702Y-6286500D01*
X14573230Y-6200404D01*
X14573230Y-6200403D01*
X14617700Y-5976840D01*
X14617700Y-5524500D01*
X14573230Y-5300937D01*
X14573230Y-5300936D01*
X14446592Y-5111408D01*
X14259825Y-4924641D01*
X14259825Y-4870171D01*
X14201821Y-4730137D01*
X14094644Y-4622960D01*
X13812664Y-4340980D01*
X13751023Y-4315447D01*
X13751023Y-4209107D01*
X13673684Y-4022396D01*
X13604927Y-3953639D01*
X13425325Y-3953639D01*
X13505464Y-3873500D01*
X14712080Y-3873500D01*
X17125080Y-6286500D01*
X17125080Y-6286500D01*
G37*
X17125080Y-6286500D02*
X14515702Y-6286500D01*
X14573230Y-6200404D01*
X14573230Y-6200403D01*
X14617700Y-5976840D01*
X14617700Y-5524500D01*
X14573230Y-5300937D01*
X14573230Y-5300936D01*
X14446592Y-5111408D01*
X14259825Y-4924641D01*
X14259825Y-4870171D01*
X14201821Y-4730137D01*
X14094644Y-4622960D01*
X13812664Y-4340980D01*
X13751023Y-4315447D01*
X13751023Y-4209107D01*
X13673684Y-4022396D01*
X13604927Y-3953639D01*
X13425325Y-3953639D01*
X13505464Y-3873500D01*
X14712080Y-3873500D01*
X17125080Y-6286500D01*
G36*
X17907000Y-10076580D02*
X17604218Y-10379361D01*
X17145000Y-10288017D01*
X16668712Y-10382757D01*
X16264935Y-10652552D01*
X15995140Y-11056329D01*
X15900400Y-11532617D01*
X15900400Y-11581383D01*
X15995140Y-12057671D01*
X16182884Y-12338651D01*
X14790429Y-10946196D01*
X14790429Y-10889930D01*
X14732425Y-10749896D01*
X14625249Y-10642719D01*
X13211756Y-9229227D01*
X13071722Y-9171223D01*
X12920152Y-9171224D01*
X12780118Y-9229228D01*
X12672941Y-9336404D01*
X12355040Y-9654305D01*
X12311206Y-9760129D01*
X12205381Y-9803964D01*
X12098204Y-9911140D01*
X11780303Y-10229041D01*
X11736468Y-10334867D01*
X11630645Y-10378701D01*
X11523468Y-10485877D01*
X11205567Y-10803778D01*
X11161733Y-10909602D01*
X11055908Y-10953437D01*
X10948731Y-11060613D01*
X10630830Y-11378514D01*
X10592256Y-11471640D01*
X10499133Y-11510213D01*
X10391956Y-11617389D01*
X10074055Y-11935290D01*
X10035481Y-12028415D01*
X9942357Y-12066989D01*
X9835180Y-12174165D01*
X9517279Y-12492066D01*
X9473445Y-12597890D01*
X9367620Y-12641725D01*
X9260443Y-12748901D01*
X8942542Y-13066802D01*
X8903968Y-13159927D01*
X8810844Y-13198501D01*
X8712200Y-13297144D01*
X8712200Y-13208000D01*
X8667730Y-12984437D01*
X8667730Y-12984436D01*
X8541092Y-12794908D01*
X8291354Y-12545170D01*
X12387973Y-8448550D01*
X12444256Y-8504833D01*
X12762157Y-8822734D01*
X12902192Y-8880738D01*
X13053762Y-8880737D01*
X13193796Y-8822733D01*
X13300973Y-8715557D01*
X14714029Y-7302500D01*
X16934580Y-7302500D01*
X17438472Y-7806392D01*
X17145000Y-7748017D01*
X16668712Y-7842757D01*
X16264935Y-8112552D01*
X15995140Y-8516329D01*
X15900400Y-8992617D01*
X15900400Y-9041383D01*
X15995140Y-9517671D01*
X16264935Y-9921448D01*
X16668712Y-10191243D01*
X17145000Y-10285983D01*
X17621288Y-10191243D01*
X17907000Y-10000336D01*
X17907000Y-10076580D01*
X17907000Y-10076580D01*
G37*
X17907000Y-10076580D02*
X17604218Y-10379361D01*
X17145000Y-10288017D01*
X16668712Y-10382757D01*
X16264935Y-10652552D01*
X15995140Y-11056329D01*
X15900400Y-11532617D01*
X15900400Y-11581383D01*
X15995140Y-12057671D01*
X16182884Y-12338651D01*
X14790429Y-10946196D01*
X14790429Y-10889930D01*
X14732425Y-10749896D01*
X14625249Y-10642719D01*
X13211756Y-9229227D01*
X13071722Y-9171223D01*
X12920152Y-9171224D01*
X12780118Y-9229228D01*
X12672941Y-9336404D01*
X12355040Y-9654305D01*
X12311206Y-9760129D01*
X12205381Y-9803964D01*
X12098204Y-9911140D01*
X11780303Y-10229041D01*
X11736468Y-10334867D01*
X11630645Y-10378701D01*
X11523468Y-10485877D01*
X11205567Y-10803778D01*
X11161733Y-10909602D01*
X11055908Y-10953437D01*
X10948731Y-11060613D01*
X10630830Y-11378514D01*
X10592256Y-11471640D01*
X10499133Y-11510213D01*
X10391956Y-11617389D01*
X10074055Y-11935290D01*
X10035481Y-12028415D01*
X9942357Y-12066989D01*
X9835180Y-12174165D01*
X9517279Y-12492066D01*
X9473445Y-12597890D01*
X9367620Y-12641725D01*
X9260443Y-12748901D01*
X8942542Y-13066802D01*
X8903968Y-13159927D01*
X8810844Y-13198501D01*
X8712200Y-13297144D01*
X8712200Y-13208000D01*
X8667730Y-12984437D01*
X8667730Y-12984436D01*
X8541092Y-12794908D01*
X8291354Y-12545170D01*
X12387973Y-8448550D01*
X12444256Y-8504833D01*
X12762157Y-8822734D01*
X12902192Y-8880738D01*
X13053762Y-8880737D01*
X13193796Y-8822733D01*
X13300973Y-8715557D01*
X14714029Y-7302500D01*
X16934580Y-7302500D01*
X17438472Y-7806392D01*
X17145000Y-7748017D01*
X16668712Y-7842757D01*
X16264935Y-8112552D01*
X15995140Y-8516329D01*
X15900400Y-8992617D01*
X15900400Y-9041383D01*
X15995140Y-9517671D01*
X16264935Y-9921448D01*
X16668712Y-10191243D01*
X17145000Y-10285983D01*
X17621288Y-10191243D01*
X17907000Y-10000336D01*
X17907000Y-10076580D01*
G36*
X21386800Y-15472756D02*
X21284785Y-15430500D01*
X21133214Y-15430500D01*
X20371214Y-15430500D01*
X20231180Y-15488504D01*
X20124004Y-15595681D01*
X20066000Y-15735715D01*
X20066000Y-15887286D01*
X20066000Y-16395286D01*
X20124004Y-16535320D01*
X20231181Y-16642496D01*
X20371215Y-16700500D01*
X20522786Y-16700500D01*
X20636816Y-16700500D01*
X20981328Y-17045012D01*
X21170856Y-17171650D01*
X21170857Y-17171650D01*
X21290280Y-17195405D01*
X21290280Y-17337776D01*
X21284785Y-17335500D01*
X21133214Y-17335500D01*
X20371214Y-17335500D01*
X20231180Y-17393504D01*
X20124004Y-17500681D01*
X20066000Y-17640715D01*
X20066000Y-17792286D01*
X20066000Y-18238000D01*
X19050000Y-18238000D01*
X19050000Y-18148714D01*
X19050000Y-17640714D01*
X19040834Y-17618585D01*
X19099662Y-17559758D01*
X19177000Y-17373047D01*
X19177000Y-17221200D01*
X19050000Y-17094200D01*
X18364200Y-17094200D01*
X18364200Y-17114200D01*
X18211800Y-17114200D01*
X18211800Y-17094200D01*
X18191800Y-17094200D01*
X18191800Y-16941800D01*
X18211800Y-16941800D01*
X18211800Y-16921800D01*
X18364200Y-16921800D01*
X18364200Y-16941800D01*
X19050000Y-16941800D01*
X19177000Y-16814800D01*
X19177000Y-16662953D01*
X19099662Y-16476242D01*
X19040833Y-16417413D01*
X19050000Y-16395285D01*
X19050000Y-16243714D01*
X19050000Y-16129684D01*
X19845658Y-15334025D01*
X20161288Y-15271243D01*
X20565065Y-15001448D01*
X20834860Y-14597671D01*
X20929600Y-14121383D01*
X20929600Y-14072617D01*
X20834860Y-13596329D01*
X20660245Y-13335000D01*
X21290280Y-13335000D01*
X21290280Y-13732096D01*
X21348284Y-13872130D01*
X21382654Y-13906500D01*
X21348284Y-13940871D01*
X21290280Y-14080905D01*
X21290280Y-14232476D01*
X21290280Y-14631256D01*
X21348284Y-14771290D01*
X21386800Y-14809805D01*
X21386800Y-15472756D01*
X21386800Y-15472756D01*
G37*
X21386800Y-15472756D02*
X21284785Y-15430500D01*
X21133214Y-15430500D01*
X20371214Y-15430500D01*
X20231180Y-15488504D01*
X20124004Y-15595681D01*
X20066000Y-15735715D01*
X20066000Y-15887286D01*
X20066000Y-16395286D01*
X20124004Y-16535320D01*
X20231181Y-16642496D01*
X20371215Y-16700500D01*
X20522786Y-16700500D01*
X20636816Y-16700500D01*
X20981328Y-17045012D01*
X21170856Y-17171650D01*
X21170857Y-17171650D01*
X21290280Y-17195405D01*
X21290280Y-17337776D01*
X21284785Y-17335500D01*
X21133214Y-17335500D01*
X20371214Y-17335500D01*
X20231180Y-17393504D01*
X20124004Y-17500681D01*
X20066000Y-17640715D01*
X20066000Y-17792286D01*
X20066000Y-18238000D01*
X19050000Y-18238000D01*
X19050000Y-18148714D01*
X19050000Y-17640714D01*
X19040834Y-17618585D01*
X19099662Y-17559758D01*
X19177000Y-17373047D01*
X19177000Y-17221200D01*
X19050000Y-17094200D01*
X18364200Y-17094200D01*
X18364200Y-17114200D01*
X18211800Y-17114200D01*
X18211800Y-17094200D01*
X18191800Y-17094200D01*
X18191800Y-16941800D01*
X18211800Y-16941800D01*
X18211800Y-16921800D01*
X18364200Y-16921800D01*
X18364200Y-16941800D01*
X19050000Y-16941800D01*
X19177000Y-16814800D01*
X19177000Y-16662953D01*
X19099662Y-16476242D01*
X19040833Y-16417413D01*
X19050000Y-16395285D01*
X19050000Y-16243714D01*
X19050000Y-16129684D01*
X19845658Y-15334025D01*
X20161288Y-15271243D01*
X20565065Y-15001448D01*
X20834860Y-14597671D01*
X20929600Y-14121383D01*
X20929600Y-14072617D01*
X20834860Y-13596329D01*
X20660245Y-13335000D01*
X21290280Y-13335000D01*
X21290280Y-13732096D01*
X21348284Y-13872130D01*
X21382654Y-13906500D01*
X21348284Y-13940871D01*
X21290280Y-14080905D01*
X21290280Y-14232476D01*
X21290280Y-14631256D01*
X21348284Y-14771290D01*
X21386800Y-14809805D01*
X21386800Y-15472756D01*
G36*
X24643052Y-10261600D02*
X24638000Y-10287000D01*
X24638000Y-10573663D01*
X24352288Y-10382757D01*
X23876000Y-10288017D01*
X23399712Y-10382757D01*
X22995935Y-10652552D01*
X22731037Y-11049000D01*
X22034510Y-11049000D01*
X22183998Y-10987233D01*
X22416417Y-10755219D01*
X22542357Y-10451923D01*
X22542643Y-10123518D01*
X22417233Y-9820002D01*
X22185219Y-9587583D01*
X21881923Y-9461643D01*
X21553518Y-9461357D01*
X21250002Y-9586767D01*
X21057433Y-9779000D01*
X20820896Y-9779000D01*
X21025707Y-9306497D01*
X20927488Y-9093200D01*
X19761200Y-9093200D01*
X19761200Y-9113200D01*
X19608800Y-9113200D01*
X19608800Y-9093200D01*
X19588800Y-9093200D01*
X19588800Y-8940800D01*
X19608800Y-8940800D01*
X19608800Y-8920800D01*
X19761200Y-8920800D01*
X19761200Y-8940800D01*
X20927488Y-8940800D01*
X21025707Y-8727503D01*
X20812866Y-8236473D01*
X20503976Y-7937500D01*
X22078080Y-7937500D01*
X22631400Y-8490820D01*
X22631400Y-9956386D01*
X22689404Y-10096420D01*
X22796581Y-10203596D01*
X22936615Y-10261600D01*
X23088186Y-10261600D01*
X24643052Y-10261600D01*
X24643052Y-10261600D01*
G37*
X24643052Y-10261600D02*
X24638000Y-10287000D01*
X24638000Y-10573663D01*
X24352288Y-10382757D01*
X23876000Y-10288017D01*
X23399712Y-10382757D01*
X22995935Y-10652552D01*
X22731037Y-11049000D01*
X22034510Y-11049000D01*
X22183998Y-10987233D01*
X22416417Y-10755219D01*
X22542357Y-10451923D01*
X22542643Y-10123518D01*
X22417233Y-9820002D01*
X22185219Y-9587583D01*
X21881923Y-9461643D01*
X21553518Y-9461357D01*
X21250002Y-9586767D01*
X21057433Y-9779000D01*
X20820896Y-9779000D01*
X21025707Y-9306497D01*
X20927488Y-9093200D01*
X19761200Y-9093200D01*
X19761200Y-9113200D01*
X19608800Y-9113200D01*
X19608800Y-9093200D01*
X19588800Y-9093200D01*
X19588800Y-8940800D01*
X19608800Y-8940800D01*
X19608800Y-8920800D01*
X19761200Y-8920800D01*
X19761200Y-8940800D01*
X20927488Y-8940800D01*
X21025707Y-8727503D01*
X20812866Y-8236473D01*
X20503976Y-7937500D01*
X22078080Y-7937500D01*
X22631400Y-8490820D01*
X22631400Y-9956386D01*
X22689404Y-10096420D01*
X22796581Y-10203596D01*
X22936615Y-10261600D01*
X23088186Y-10261600D01*
X24643052Y-10261600D01*
G36*
X28017000Y-18238000D02*
X27756707Y-18238000D01*
X27756707Y-16926497D01*
X27658488Y-16713200D01*
X26492200Y-16713200D01*
X26492200Y-17879265D01*
X26705496Y-17977701D01*
X27159318Y-17789729D01*
X27543866Y-17417527D01*
X27756707Y-16926497D01*
X27756707Y-18238000D01*
X26339800Y-18238000D01*
X22774440Y-18238000D01*
X22651720Y-18115280D01*
X22047200Y-18115280D01*
X22047200Y-18135280D01*
X21894800Y-18135280D01*
X21894800Y-18115280D01*
X21874800Y-18115280D01*
X21874800Y-17962880D01*
X21894800Y-17962880D01*
X21894800Y-17942880D01*
X22047200Y-17942880D01*
X22047200Y-17962880D01*
X22651720Y-17962880D01*
X22778720Y-17835880D01*
X22778720Y-17738643D01*
X22701382Y-17551932D01*
X22626187Y-17476737D01*
X22651720Y-17415095D01*
X22651720Y-17263524D01*
X22651720Y-17221200D01*
X22781952Y-17221200D01*
X22995935Y-17541448D01*
X23399712Y-17811243D01*
X23876000Y-17905983D01*
X24352288Y-17811243D01*
X24756065Y-17541448D01*
X25025860Y-17137671D01*
X25110292Y-16713202D01*
X25173511Y-16713202D01*
X25075293Y-16926497D01*
X25288134Y-17417527D01*
X25672682Y-17789729D01*
X26126504Y-17977701D01*
X26339800Y-17879265D01*
X26339800Y-16713200D01*
X26319800Y-16713200D01*
X26319800Y-16560800D01*
X26339800Y-16560800D01*
X26339800Y-16540800D01*
X26492200Y-16540800D01*
X26492200Y-16560800D01*
X27658488Y-16560800D01*
X27756707Y-16347503D01*
X27543866Y-15856473D01*
X27159318Y-15484271D01*
X26725230Y-15304472D01*
X26892288Y-15271243D01*
X27296065Y-15001448D01*
X27565860Y-14597671D01*
X27660600Y-14121383D01*
X27660600Y-14072617D01*
X27565860Y-13596329D01*
X27296065Y-13192552D01*
X26892288Y-12922757D01*
X26416000Y-12828017D01*
X25939712Y-12922757D01*
X25535935Y-13192552D01*
X25266140Y-13596329D01*
X25171400Y-14072617D01*
X25171400Y-14121383D01*
X25266140Y-14597671D01*
X25535935Y-15001448D01*
X25939712Y-15271243D01*
X26106769Y-15304472D01*
X25672682Y-15484271D01*
X25288134Y-15856473D01*
X25075293Y-16347503D01*
X25173511Y-16560798D01*
X25110292Y-16560798D01*
X25025860Y-16136329D01*
X24756065Y-15732552D01*
X24352288Y-15462757D01*
X23876000Y-15368017D01*
X23399712Y-15462757D01*
X22995935Y-15732552D01*
X22781952Y-16052800D01*
X22555200Y-16052800D01*
X22555200Y-14809805D01*
X22593716Y-14771289D01*
X22651720Y-14631255D01*
X22651720Y-14479684D01*
X22651720Y-14223538D01*
X22726140Y-14597671D01*
X22995935Y-15001448D01*
X23399712Y-15271243D01*
X23876000Y-15365983D01*
X24352288Y-15271243D01*
X24756065Y-15001448D01*
X25025860Y-14597671D01*
X25120600Y-14121383D01*
X25120600Y-14072617D01*
X25025860Y-13596329D01*
X24768767Y-13211562D01*
X24806710Y-13186210D01*
X25505210Y-12487710D01*
X25529346Y-12451587D01*
X25535935Y-12461448D01*
X25939712Y-12731243D01*
X26416000Y-12825983D01*
X26892288Y-12731243D01*
X27296065Y-12461448D01*
X27565860Y-12057671D01*
X27660600Y-11581383D01*
X27660600Y-11532617D01*
X27565860Y-11056329D01*
X27296065Y-10652552D01*
X26892288Y-10382757D01*
X26416000Y-10288017D01*
X25939712Y-10382757D01*
X25654000Y-10573663D01*
X25654000Y-10497420D01*
X25956781Y-10194638D01*
X26416000Y-10285983D01*
X26892288Y-10191243D01*
X27296065Y-9921448D01*
X27565860Y-9517671D01*
X27660600Y-9041383D01*
X27660600Y-8992617D01*
X27565860Y-8516329D01*
X27296065Y-8112552D01*
X26892288Y-7842757D01*
X26416000Y-7748017D01*
X25939712Y-7842757D01*
X25535935Y-8112552D01*
X25266140Y-8516329D01*
X25171400Y-8992617D01*
X25171400Y-9041383D01*
X25254653Y-9459926D01*
X25120600Y-9593980D01*
X25120600Y-8077614D01*
X25062596Y-7937580D01*
X24955419Y-7830404D01*
X24815385Y-7772400D01*
X24663814Y-7772400D01*
X23349820Y-7772400D01*
X22647710Y-7070290D01*
X22482903Y-6960169D01*
X22288500Y-6921500D01*
X19196920Y-6921500D01*
X15292439Y-3017019D01*
X15593041Y-2957225D01*
X16477905Y-3842088D01*
X16477908Y-3842092D01*
X16477909Y-3842092D01*
X16604547Y-3926709D01*
X16667436Y-3968730D01*
X16667437Y-3968731D01*
X16891000Y-4013201D01*
X16891000Y-4013200D01*
X16891005Y-4013200D01*
X19304000Y-4013200D01*
X19527563Y-3968730D01*
X19527564Y-3968730D01*
X19717092Y-3842092D01*
X20352092Y-3207092D01*
X20441883Y-3072708D01*
X20441884Y-3072708D01*
X20454540Y-3067466D01*
X20561716Y-2960289D01*
X20619720Y-2820255D01*
X20619720Y-2668684D01*
X20619720Y-2269904D01*
X20594187Y-2208262D01*
X20669382Y-2133068D01*
X20746720Y-1946357D01*
X20746720Y-1849120D01*
X20746720Y-1442720D01*
X20746720Y-1345483D01*
X20669382Y-1158772D01*
X20526479Y-1015869D01*
X20339768Y-938530D01*
X20142200Y-938530D01*
X20015200Y-1065530D01*
X20015200Y-1569720D01*
X20619720Y-1569720D01*
X20746720Y-1442720D01*
X20746720Y-1849120D01*
X20619720Y-1722120D01*
X20015200Y-1722120D01*
X20015200Y-1742120D01*
X19862800Y-1742120D01*
X19862800Y-1722120D01*
X19862800Y-1569720D01*
X19862800Y-1065530D01*
X19735800Y-938530D01*
X19538232Y-938530D01*
X19351521Y-1015869D01*
X19208618Y-1158772D01*
X19131280Y-1345483D01*
X19131280Y-1442720D01*
X19258280Y-1569720D01*
X19862800Y-1569720D01*
X19862800Y-1722120D01*
X19258280Y-1722120D01*
X19131280Y-1849120D01*
X19131280Y-1946357D01*
X19208618Y-2133068D01*
X19283812Y-2208262D01*
X19258280Y-2269905D01*
X19258280Y-2421476D01*
X19258280Y-2648536D01*
X19062016Y-2844800D01*
X18404979Y-2844800D01*
X18684448Y-2658065D01*
X18954243Y-2254288D01*
X19048983Y-1778000D01*
X18954243Y-1301712D01*
X18684448Y-897935D01*
X18280671Y-628140D01*
X17804383Y-533400D01*
X17755617Y-533400D01*
X17279329Y-628140D01*
X16875552Y-897935D01*
X16605757Y-1301712D01*
X16511017Y-1778000D01*
X16605757Y-2254288D01*
X16733193Y-2445009D01*
X16435517Y-2147334D01*
X16508983Y-1778000D01*
X16414243Y-1301712D01*
X16144448Y-897935D01*
X15740671Y-628140D01*
X15264383Y-533400D01*
X15215617Y-533400D01*
X14739329Y-628140D01*
X14335552Y-897935D01*
X14065757Y-1301712D01*
X13971017Y-1778000D01*
X14065757Y-2254288D01*
X14335552Y-2658065D01*
X14634027Y-2857500D01*
X13886515Y-2857500D01*
X13886596Y-2857419D01*
X13944600Y-2717385D01*
X13944600Y-2565814D01*
X13944600Y-838614D01*
X13886596Y-698580D01*
X13779419Y-591404D01*
X13639385Y-533400D01*
X13487814Y-533400D01*
X11760614Y-533400D01*
X11620580Y-591404D01*
X11513404Y-698581D01*
X11455400Y-838615D01*
X11455400Y-990186D01*
X11455400Y-1193800D01*
X11443266Y-1193800D01*
X11219702Y-1238270D01*
X11030174Y-1364908D01*
X11030171Y-1364911D01*
X10254053Y-2141029D01*
X10201321Y-2013723D01*
X10094144Y-1906547D01*
X9949343Y-1761746D01*
X9938493Y-1745507D01*
X9620993Y-1428007D01*
X9431465Y-1301369D01*
X9207901Y-1256899D01*
X8649101Y-1256899D01*
X8649101Y-1079901D01*
X8604631Y-856338D01*
X8604631Y-856337D01*
X8572460Y-808190D01*
X8572643Y-598518D01*
X8503426Y-431000D01*
X13462000Y-431000D01*
X28017000Y-431000D01*
X28017000Y-18238000D01*
X28017000Y-18238000D01*
G37*
X28017000Y-18238000D02*
X27756707Y-18238000D01*
X27756707Y-16926497D01*
X27658488Y-16713200D01*
X26492200Y-16713200D01*
X26492200Y-17879265D01*
X26705496Y-17977701D01*
X27159318Y-17789729D01*
X27543866Y-17417527D01*
X27756707Y-16926497D01*
X27756707Y-18238000D01*
X26339800Y-18238000D01*
X22774440Y-18238000D01*
X22651720Y-18115280D01*
X22047200Y-18115280D01*
X22047200Y-18135280D01*
X21894800Y-18135280D01*
X21894800Y-18115280D01*
X21874800Y-18115280D01*
X21874800Y-17962880D01*
X21894800Y-17962880D01*
X21894800Y-17942880D01*
X22047200Y-17942880D01*
X22047200Y-17962880D01*
X22651720Y-17962880D01*
X22778720Y-17835880D01*
X22778720Y-17738643D01*
X22701382Y-17551932D01*
X22626187Y-17476737D01*
X22651720Y-17415095D01*
X22651720Y-17263524D01*
X22651720Y-17221200D01*
X22781952Y-17221200D01*
X22995935Y-17541448D01*
X23399712Y-17811243D01*
X23876000Y-17905983D01*
X24352288Y-17811243D01*
X24756065Y-17541448D01*
X25025860Y-17137671D01*
X25110292Y-16713202D01*
X25173511Y-16713202D01*
X25075293Y-16926497D01*
X25288134Y-17417527D01*
X25672682Y-17789729D01*
X26126504Y-17977701D01*
X26339800Y-17879265D01*
X26339800Y-16713200D01*
X26319800Y-16713200D01*
X26319800Y-16560800D01*
X26339800Y-16560800D01*
X26339800Y-16540800D01*
X26492200Y-16540800D01*
X26492200Y-16560800D01*
X27658488Y-16560800D01*
X27756707Y-16347503D01*
X27543866Y-15856473D01*
X27159318Y-15484271D01*
X26725230Y-15304472D01*
X26892288Y-15271243D01*
X27296065Y-15001448D01*
X27565860Y-14597671D01*
X27660600Y-14121383D01*
X27660600Y-14072617D01*
X27565860Y-13596329D01*
X27296065Y-13192552D01*
X26892288Y-12922757D01*
X26416000Y-12828017D01*
X25939712Y-12922757D01*
X25535935Y-13192552D01*
X25266140Y-13596329D01*
X25171400Y-14072617D01*
X25171400Y-14121383D01*
X25266140Y-14597671D01*
X25535935Y-15001448D01*
X25939712Y-15271243D01*
X26106769Y-15304472D01*
X25672682Y-15484271D01*
X25288134Y-15856473D01*
X25075293Y-16347503D01*
X25173511Y-16560798D01*
X25110292Y-16560798D01*
X25025860Y-16136329D01*
X24756065Y-15732552D01*
X24352288Y-15462757D01*
X23876000Y-15368017D01*
X23399712Y-15462757D01*
X22995935Y-15732552D01*
X22781952Y-16052800D01*
X22555200Y-16052800D01*
X22555200Y-14809805D01*
X22593716Y-14771289D01*
X22651720Y-14631255D01*
X22651720Y-14479684D01*
X22651720Y-14223538D01*
X22726140Y-14597671D01*
X22995935Y-15001448D01*
X23399712Y-15271243D01*
X23876000Y-15365983D01*
X24352288Y-15271243D01*
X24756065Y-15001448D01*
X25025860Y-14597671D01*
X25120600Y-14121383D01*
X25120600Y-14072617D01*
X25025860Y-13596329D01*
X24768767Y-13211562D01*
X24806710Y-13186210D01*
X25505210Y-12487710D01*
X25529346Y-12451587D01*
X25535935Y-12461448D01*
X25939712Y-12731243D01*
X26416000Y-12825983D01*
X26892288Y-12731243D01*
X27296065Y-12461448D01*
X27565860Y-12057671D01*
X27660600Y-11581383D01*
X27660600Y-11532617D01*
X27565860Y-11056329D01*
X27296065Y-10652552D01*
X26892288Y-10382757D01*
X26416000Y-10288017D01*
X25939712Y-10382757D01*
X25654000Y-10573663D01*
X25654000Y-10497420D01*
X25956781Y-10194638D01*
X26416000Y-10285983D01*
X26892288Y-10191243D01*
X27296065Y-9921448D01*
X27565860Y-9517671D01*
X27660600Y-9041383D01*
X27660600Y-8992617D01*
X27565860Y-8516329D01*
X27296065Y-8112552D01*
X26892288Y-7842757D01*
X26416000Y-7748017D01*
X25939712Y-7842757D01*
X25535935Y-8112552D01*
X25266140Y-8516329D01*
X25171400Y-8992617D01*
X25171400Y-9041383D01*
X25254653Y-9459926D01*
X25120600Y-9593980D01*
X25120600Y-8077614D01*
X25062596Y-7937580D01*
X24955419Y-7830404D01*
X24815385Y-7772400D01*
X24663814Y-7772400D01*
X23349820Y-7772400D01*
X22647710Y-7070290D01*
X22482903Y-6960169D01*
X22288500Y-6921500D01*
X19196920Y-6921500D01*
X15292439Y-3017019D01*
X15593041Y-2957225D01*
X16477905Y-3842088D01*
X16477908Y-3842092D01*
X16477909Y-3842092D01*
X16604547Y-3926709D01*
X16667436Y-3968730D01*
X16667437Y-3968731D01*
X16891000Y-4013201D01*
X16891000Y-4013200D01*
X16891005Y-4013200D01*
X19304000Y-4013200D01*
X19527563Y-3968730D01*
X19527564Y-3968730D01*
X19717092Y-3842092D01*
X20352092Y-3207092D01*
X20441883Y-3072708D01*
X20441884Y-3072708D01*
X20454540Y-3067466D01*
X20561716Y-2960289D01*
X20619720Y-2820255D01*
X20619720Y-2668684D01*
X20619720Y-2269904D01*
X20594187Y-2208262D01*
X20669382Y-2133068D01*
X20746720Y-1946357D01*
X20746720Y-1849120D01*
X20746720Y-1442720D01*
X20746720Y-1345483D01*
X20669382Y-1158772D01*
X20526479Y-1015869D01*
X20339768Y-938530D01*
X20142200Y-938530D01*
X20015200Y-1065530D01*
X20015200Y-1569720D01*
X20619720Y-1569720D01*
X20746720Y-1442720D01*
X20746720Y-1849120D01*
X20619720Y-1722120D01*
X20015200Y-1722120D01*
X20015200Y-1742120D01*
X19862800Y-1742120D01*
X19862800Y-1722120D01*
X19862800Y-1569720D01*
X19862800Y-1065530D01*
X19735800Y-938530D01*
X19538232Y-938530D01*
X19351521Y-1015869D01*
X19208618Y-1158772D01*
X19131280Y-1345483D01*
X19131280Y-1442720D01*
X19258280Y-1569720D01*
X19862800Y-1569720D01*
X19862800Y-1722120D01*
X19258280Y-1722120D01*
X19131280Y-1849120D01*
X19131280Y-1946357D01*
X19208618Y-2133068D01*
X19283812Y-2208262D01*
X19258280Y-2269905D01*
X19258280Y-2421476D01*
X19258280Y-2648536D01*
X19062016Y-2844800D01*
X18404979Y-2844800D01*
X18684448Y-2658065D01*
X18954243Y-2254288D01*
X19048983Y-1778000D01*
X18954243Y-1301712D01*
X18684448Y-897935D01*
X18280671Y-628140D01*
X17804383Y-533400D01*
X17755617Y-533400D01*
X17279329Y-628140D01*
X16875552Y-897935D01*
X16605757Y-1301712D01*
X16511017Y-1778000D01*
X16605757Y-2254288D01*
X16733193Y-2445009D01*
X16435517Y-2147334D01*
X16508983Y-1778000D01*
X16414243Y-1301712D01*
X16144448Y-897935D01*
X15740671Y-628140D01*
X15264383Y-533400D01*
X15215617Y-533400D01*
X14739329Y-628140D01*
X14335552Y-897935D01*
X14065757Y-1301712D01*
X13971017Y-1778000D01*
X14065757Y-2254288D01*
X14335552Y-2658065D01*
X14634027Y-2857500D01*
X13886515Y-2857500D01*
X13886596Y-2857419D01*
X13944600Y-2717385D01*
X13944600Y-2565814D01*
X13944600Y-838614D01*
X13886596Y-698580D01*
X13779419Y-591404D01*
X13639385Y-533400D01*
X13487814Y-533400D01*
X11760614Y-533400D01*
X11620580Y-591404D01*
X11513404Y-698581D01*
X11455400Y-838615D01*
X11455400Y-990186D01*
X11455400Y-1193800D01*
X11443266Y-1193800D01*
X11219702Y-1238270D01*
X11030174Y-1364908D01*
X11030171Y-1364911D01*
X10254053Y-2141029D01*
X10201321Y-2013723D01*
X10094144Y-1906547D01*
X9949343Y-1761746D01*
X9938493Y-1745507D01*
X9620993Y-1428007D01*
X9431465Y-1301369D01*
X9207901Y-1256899D01*
X8649101Y-1256899D01*
X8649101Y-1079901D01*
X8604631Y-856338D01*
X8604631Y-856337D01*
X8572460Y-808190D01*
X8572643Y-598518D01*
X8503426Y-431000D01*
X13462000Y-431000D01*
X28017000Y-431000D01*
X28017000Y-18238000D01*
M02*
