%FSLAX46Y46*%
G04 Gerber Fmt 4.6, Leading zero omitted, Abs format (unit mm)*
G04 Created by KiCad (PCBNEW (2014-10-27 BZR 5228)-product) date 1/4/2015 7:21:31 PM*
%MOMM*%
G01*
G04 APERTURE LIST*
%ADD10C,0.100000*%
%ADD11C,0.150000*%
%ADD12R,1.400000X1.100000*%
%ADD13C,1.270000*%
%ADD14R,1.727200X1.727200*%
%ADD15O,1.727200X1.727200*%
%ADD16R,0.599440X0.398780*%
%ADD17R,0.762000X0.508000*%
G04 APERTURE END LIST*
D10*
D11*
X6634000Y-18366000D02*
X7534000Y-18366000D01*
X7534000Y-19266000D02*
X7534000Y-18366000D01*
X13970000Y-6350000D02*
X19050000Y-6350000D01*
X19050000Y-6350000D02*
X19050000Y-3810000D01*
X19050000Y-3810000D02*
X13970000Y-3810000D01*
X11430000Y-3810000D02*
X13970000Y-3810000D01*
X13970000Y-3810000D02*
X13970000Y-6350000D01*
X11430000Y-3810000D02*
X11430000Y-6350000D01*
X11430000Y-6350000D02*
X13970000Y-6350000D01*
X22606000Y-13589000D02*
X22606000Y-21209000D01*
X22606000Y-21209000D02*
X27686000Y-21209000D01*
X27686000Y-21209000D02*
X27686000Y-11049000D01*
X27686000Y-11049000D02*
X25146000Y-11049000D01*
X22606000Y-11049000D02*
X22606000Y-13589000D01*
X25146000Y-11049000D02*
X25146000Y-13589000D01*
X25146000Y-13589000D02*
X22606000Y-13589000D01*
X22606000Y-11049000D02*
X25146000Y-11049000D01*
X2667000Y-20066000D02*
X2667000Y-19558000D01*
X2667000Y-19558000D02*
X1905000Y-19558000D01*
X1905000Y-19558000D02*
X1905000Y-20066000D01*
X2667000Y-20574000D02*
X2667000Y-21082000D01*
X2667000Y-21082000D02*
X1905000Y-21082000D01*
X1905000Y-21082000D02*
X1905000Y-20574000D01*
X8763000Y-20574000D02*
X8763000Y-20066000D01*
X8763000Y-20066000D02*
X8001000Y-20066000D01*
X8001000Y-20066000D02*
X8001000Y-20574000D01*
X8763000Y-21082000D02*
X8763000Y-21590000D01*
X8763000Y-21590000D02*
X8001000Y-21590000D01*
X8001000Y-21590000D02*
X8001000Y-21082000D01*
X13118197Y-8450013D02*
X13477408Y-8809223D01*
X13477408Y-8809223D02*
X14016223Y-8270408D01*
X14016223Y-8270408D02*
X13657013Y-7911197D01*
X12758987Y-8090803D02*
X12399777Y-7731592D01*
X12399777Y-7731592D02*
X12938592Y-7192777D01*
X12938592Y-7192777D02*
X13297803Y-7551987D01*
X15367000Y-20066000D02*
X15367000Y-20574000D01*
X15367000Y-20574000D02*
X16129000Y-20574000D01*
X16129000Y-20574000D02*
X16129000Y-20066000D01*
X15367000Y-19558000D02*
X15367000Y-19050000D01*
X15367000Y-19050000D02*
X16129000Y-19050000D01*
X16129000Y-19050000D02*
X16129000Y-19558000D01*
X3212197Y-17975013D02*
X3571408Y-18334223D01*
X3571408Y-18334223D02*
X4110223Y-17795408D01*
X4110223Y-17795408D02*
X3751013Y-17436197D01*
X2852987Y-17615803D02*
X2493777Y-17256592D01*
X2493777Y-17256592D02*
X3032592Y-16717777D01*
X3032592Y-16717777D02*
X3391803Y-17076987D01*
X7297987Y-5371197D02*
X6938777Y-5730408D01*
X6938777Y-5730408D02*
X7477592Y-6269223D01*
X7477592Y-6269223D02*
X7836803Y-5910013D01*
X7657197Y-5011987D02*
X8016408Y-4652777D01*
X8016408Y-4652777D02*
X8555223Y-5191592D01*
X8555223Y-5191592D02*
X8196013Y-5550803D01*
X21590000Y-21145500D02*
X21590000Y-21653500D01*
X21590000Y-21653500D02*
X22352000Y-21653500D01*
X22352000Y-21653500D02*
X22352000Y-21145500D01*
X21590000Y-20637500D02*
X21590000Y-20129500D01*
X21590000Y-20129500D02*
X22352000Y-20129500D01*
X22352000Y-20129500D02*
X22352000Y-20637500D01*
X13705377Y-10720514D02*
X12897154Y-11528737D01*
X9789986Y-6805123D02*
X8999723Y-7595385D01*
X13705377Y-10720514D02*
X9789986Y-6805123D01*
X12968996Y-13145184D02*
X13741298Y-13917486D01*
X9017684Y-17132417D02*
X9772025Y-17886759D01*
X9754065Y-17904719D02*
X13759259Y-13935446D01*
X2659662Y-10738475D02*
X6539133Y-6823083D01*
X3126636Y-12750052D02*
X8209461Y-17832877D01*
X6575054Y-6823083D02*
X7311435Y-7559464D01*
X3144596Y-11869987D02*
X8137618Y-6876965D01*
X13705377Y-12372882D02*
X8245382Y-6912886D01*
X8227421Y-17850838D02*
X13615575Y-12462684D01*
X2623741Y-13863604D02*
X6610975Y-17850838D01*
X6610975Y-17850838D02*
X7419198Y-17042615D01*
X3115859Y-12724908D02*
X3115859Y-11898724D01*
X2627333Y-13860012D02*
X3439148Y-13048197D01*
X3467885Y-11546698D02*
X2656070Y-10734883D01*
X4640407Y-12304632D02*
G75*
G03X4640407Y-12304632I-479246J0D01*
G01*
X8758487Y-5688697D02*
X8399277Y-6047908D01*
X8399277Y-6047908D02*
X8938092Y-6586723D01*
X8938092Y-6586723D02*
X9297303Y-6227513D01*
X9117697Y-5329487D02*
X9476908Y-4970277D01*
X9476908Y-4970277D02*
X10015723Y-5509092D01*
X10015723Y-5509092D02*
X9656513Y-5868303D01*
X21590000Y-17462500D02*
X21590000Y-17970500D01*
X21590000Y-17970500D02*
X22352000Y-17970500D01*
X22352000Y-17970500D02*
X22352000Y-17462500D01*
X21590000Y-16954500D02*
X21590000Y-16446500D01*
X21590000Y-16446500D02*
X22352000Y-16446500D01*
X22352000Y-16446500D02*
X22352000Y-16954500D01*
X20320000Y-5143500D02*
X20320000Y-4635500D01*
X20320000Y-4635500D02*
X19558000Y-4635500D01*
X19558000Y-4635500D02*
X19558000Y-5143500D01*
X20320000Y-5651500D02*
X20320000Y-6159500D01*
X20320000Y-6159500D02*
X19558000Y-6159500D01*
X19558000Y-6159500D02*
X19558000Y-5651500D01*
X20447000Y-21844000D02*
X18669000Y-21844000D01*
X18669000Y-21844000D02*
X18669000Y-18796000D01*
X18669000Y-18796000D02*
X20447000Y-18796000D01*
X20447000Y-18796000D02*
X20447000Y-21844000D01*
X14501905Y-7564381D02*
X14501905Y-6564381D01*
X14740000Y-6564381D01*
X14882858Y-6612000D01*
X14978096Y-6707238D01*
X15025715Y-6802476D01*
X15073334Y-6992952D01*
X15073334Y-7135810D01*
X15025715Y-7326286D01*
X14978096Y-7421524D01*
X14882858Y-7516762D01*
X14740000Y-7564381D01*
X14501905Y-7564381D01*
X16025715Y-7564381D02*
X15454286Y-7564381D01*
X15740000Y-7564381D02*
X15740000Y-6564381D01*
X15644762Y-6707238D01*
X15549524Y-6802476D01*
X15454286Y-6850095D01*
X26122405Y-10739381D02*
X26122405Y-9739381D01*
X26503358Y-9739381D01*
X26598596Y-9787000D01*
X26646215Y-9834619D01*
X26693834Y-9929857D01*
X26693834Y-10072714D01*
X26646215Y-10167952D01*
X26598596Y-10215571D01*
X26503358Y-10263190D01*
X26122405Y-10263190D01*
X27550977Y-9739381D02*
X27360500Y-9739381D01*
X27265262Y-9787000D01*
X27217643Y-9834619D01*
X27122405Y-9977476D01*
X27074786Y-10167952D01*
X27074786Y-10548905D01*
X27122405Y-10644143D01*
X27170024Y-10691762D01*
X27265262Y-10739381D01*
X27455739Y-10739381D01*
X27550977Y-10691762D01*
X27598596Y-10644143D01*
X27646215Y-10548905D01*
X27646215Y-10310810D01*
X27598596Y-10215571D01*
X27550977Y-10167952D01*
X27455739Y-10120333D01*
X27265262Y-10120333D01*
X27170024Y-10167952D01*
X27122405Y-10215571D01*
X27074786Y-10310810D01*
X22669643Y-10072714D02*
X22669643Y-10739381D01*
X22669643Y-10167952D02*
X22717262Y-10120333D01*
X22812500Y-10072714D01*
X22955358Y-10072714D01*
X23050596Y-10120333D01*
X23098215Y-10215571D01*
X23098215Y-10739381D01*
X24145834Y-10739381D02*
X23812500Y-10263190D01*
X23574405Y-10739381D02*
X23574405Y-9739381D01*
X23955358Y-9739381D01*
X24050596Y-9787000D01*
X24098215Y-9834619D01*
X24145834Y-9929857D01*
X24145834Y-10072714D01*
X24098215Y-10167952D01*
X24050596Y-10215571D01*
X23955358Y-10263190D01*
X23574405Y-10263190D01*
X24907739Y-10215571D02*
X24574405Y-10215571D01*
X24574405Y-10739381D02*
X24574405Y-9739381D01*
X25050596Y-9739381D01*
X1373143Y-20486666D02*
X1420762Y-20534285D01*
X1468381Y-20677142D01*
X1468381Y-20772380D01*
X1420762Y-20915238D01*
X1325524Y-21010476D01*
X1230286Y-21058095D01*
X1039810Y-21105714D01*
X896952Y-21105714D01*
X706476Y-21058095D01*
X611238Y-21010476D01*
X516000Y-20915238D01*
X468381Y-20772380D01*
X468381Y-20677142D01*
X516000Y-20534285D01*
X563619Y-20486666D01*
X468381Y-19629523D02*
X468381Y-19820000D01*
X516000Y-19915238D01*
X563619Y-19962857D01*
X706476Y-20058095D01*
X896952Y-20105714D01*
X1277905Y-20105714D01*
X1373143Y-20058095D01*
X1420762Y-20010476D01*
X1468381Y-19915238D01*
X1468381Y-19724761D01*
X1420762Y-19629523D01*
X1373143Y-19581904D01*
X1277905Y-19534285D01*
X1039810Y-19534285D01*
X944571Y-19581904D01*
X896952Y-19629523D01*
X849333Y-19724761D01*
X849333Y-19915238D01*
X896952Y-20010476D01*
X944571Y-20058095D01*
X1039810Y-20105714D01*
X10072643Y-20994666D02*
X10120262Y-21042285D01*
X10167881Y-21185142D01*
X10167881Y-21280380D01*
X10120262Y-21423238D01*
X10025024Y-21518476D01*
X9929786Y-21566095D01*
X9739310Y-21613714D01*
X9596452Y-21613714D01*
X9405976Y-21566095D01*
X9310738Y-21518476D01*
X9215500Y-21423238D01*
X9167881Y-21280380D01*
X9167881Y-21185142D01*
X9215500Y-21042285D01*
X9263119Y-20994666D01*
X9167881Y-20661333D02*
X9167881Y-19994666D01*
X10167881Y-20423238D01*
X14044111Y-9532688D02*
X13976768Y-9532688D01*
X13842081Y-9465344D01*
X13774737Y-9398001D01*
X13707393Y-9263313D01*
X13707393Y-9128626D01*
X13741065Y-9027611D01*
X13842080Y-8859253D01*
X13943096Y-8758237D01*
X14111455Y-8657222D01*
X14212470Y-8623550D01*
X14347157Y-8623550D01*
X14481844Y-8690894D01*
X14549188Y-8758237D01*
X14616531Y-8892924D01*
X14616531Y-8960268D01*
X14650203Y-10273466D02*
X14246141Y-9869405D01*
X14448172Y-10071435D02*
X15155278Y-9364328D01*
X14986920Y-9398000D01*
X14852233Y-9398000D01*
X14751218Y-9364328D01*
X14962143Y-19978666D02*
X15009762Y-20026285D01*
X15057381Y-20169142D01*
X15057381Y-20264380D01*
X15009762Y-20407238D01*
X14914524Y-20502476D01*
X14819286Y-20550095D01*
X14628810Y-20597714D01*
X14485952Y-20597714D01*
X14295476Y-20550095D01*
X14200238Y-20502476D01*
X14105000Y-20407238D01*
X14057381Y-20264380D01*
X14057381Y-20169142D01*
X14105000Y-20026285D01*
X14152619Y-19978666D01*
X14152619Y-19597714D02*
X14105000Y-19550095D01*
X14057381Y-19454857D01*
X14057381Y-19216761D01*
X14105000Y-19121523D01*
X14152619Y-19073904D01*
X14247857Y-19026285D01*
X14343095Y-19026285D01*
X14485952Y-19073904D01*
X15057381Y-19645333D01*
X15057381Y-19026285D01*
X2013643Y-18549378D02*
X1946300Y-18549378D01*
X1811613Y-18482034D01*
X1744269Y-18414691D01*
X1676925Y-18280003D01*
X1676925Y-18145316D01*
X1710597Y-18044301D01*
X1811612Y-17875943D01*
X1912628Y-17774927D01*
X2080987Y-17673912D01*
X2182002Y-17640240D01*
X2316689Y-17640240D01*
X2451376Y-17707584D01*
X2518720Y-17774927D01*
X2586063Y-17909614D01*
X2586063Y-17976958D01*
X2889108Y-18145316D02*
X3326842Y-18583049D01*
X2821765Y-18616720D01*
X2922781Y-18717736D01*
X2956453Y-18818751D01*
X2956453Y-18886095D01*
X2922780Y-18987111D01*
X2754422Y-19155469D01*
X2653406Y-19189141D01*
X2586063Y-19189141D01*
X2485048Y-19155469D01*
X2283017Y-18953438D01*
X2249345Y-18852423D01*
X2249345Y-18785080D01*
X9138924Y-4574153D02*
X9138924Y-4641496D01*
X9071580Y-4776183D01*
X9004237Y-4843527D01*
X8869549Y-4910871D01*
X8734862Y-4910871D01*
X8633847Y-4877199D01*
X8465489Y-4776184D01*
X8364473Y-4675168D01*
X8263458Y-4506809D01*
X8229786Y-4405794D01*
X8229786Y-4271107D01*
X8297130Y-4136420D01*
X8364473Y-4069076D01*
X8499160Y-4001733D01*
X8566504Y-4001733D01*
X9340954Y-3564000D02*
X9812359Y-4035405D01*
X8903221Y-3462986D02*
X9239939Y-4136421D01*
X9677672Y-3698688D01*
X22264643Y-19280166D02*
X22312262Y-19327785D01*
X22359881Y-19470642D01*
X22359881Y-19565880D01*
X22312262Y-19708738D01*
X22217024Y-19803976D01*
X22121786Y-19851595D01*
X21931310Y-19899214D01*
X21788452Y-19899214D01*
X21597976Y-19851595D01*
X21502738Y-19803976D01*
X21407500Y-19708738D01*
X21359881Y-19565880D01*
X21359881Y-19470642D01*
X21407500Y-19327785D01*
X21455119Y-19280166D01*
X21359881Y-18375404D02*
X21359881Y-18851595D01*
X21836071Y-18899214D01*
X21788452Y-18851595D01*
X21740833Y-18756357D01*
X21740833Y-18518261D01*
X21788452Y-18423023D01*
X21836071Y-18375404D01*
X21931310Y-18327785D01*
X22169405Y-18327785D01*
X22264643Y-18375404D01*
X22312262Y-18423023D01*
X22359881Y-18518261D01*
X22359881Y-18756357D01*
X22312262Y-18851595D01*
X22264643Y-18899214D01*
X6923085Y-12431126D02*
X6215978Y-11724019D01*
X7596520Y-11623004D02*
X7596520Y-11690348D01*
X7529177Y-11825035D01*
X7461833Y-11892378D01*
X7327146Y-11959722D01*
X7192459Y-11959722D01*
X7091444Y-11926050D01*
X6923085Y-11825035D01*
X6822069Y-11724019D01*
X6721054Y-11555661D01*
X6687382Y-11454646D01*
X6687382Y-11319959D01*
X6754727Y-11185271D01*
X6822070Y-11117928D01*
X6956757Y-11050584D01*
X7024100Y-11050584D01*
X8337299Y-11016913D02*
X7933237Y-11420974D01*
X8135268Y-11218944D02*
X7428161Y-10511837D01*
X7461833Y-10680196D01*
X7461833Y-10814882D01*
X7428161Y-10915898D01*
X10666767Y-4958996D02*
X10094346Y-4857981D01*
X10262706Y-5363058D02*
X9555599Y-4655951D01*
X9824973Y-4386576D01*
X9925989Y-4352905D01*
X9993332Y-4352905D01*
X10094347Y-4386576D01*
X10195362Y-4487592D01*
X10229034Y-4588607D01*
X10229034Y-4655950D01*
X10195362Y-4756965D01*
X9925988Y-5026340D01*
X11340202Y-4285561D02*
X10936141Y-4689623D01*
X11138171Y-4487592D02*
X10431064Y-3780486D01*
X10464736Y-3948844D01*
X10464736Y-4083531D01*
X10431064Y-4184546D01*
X22359881Y-15597166D02*
X21883690Y-15930500D01*
X22359881Y-16168595D02*
X21359881Y-16168595D01*
X21359881Y-15787642D01*
X21407500Y-15692404D01*
X21455119Y-15644785D01*
X21550357Y-15597166D01*
X21693214Y-15597166D01*
X21788452Y-15644785D01*
X21836071Y-15692404D01*
X21883690Y-15787642D01*
X21883690Y-16168595D01*
X21455119Y-15216214D02*
X21407500Y-15168595D01*
X21359881Y-15073357D01*
X21359881Y-14835261D01*
X21407500Y-14740023D01*
X21455119Y-14692404D01*
X21550357Y-14644785D01*
X21645595Y-14644785D01*
X21788452Y-14692404D01*
X22359881Y-15263833D01*
X22359881Y-14644785D01*
X21359834Y-5849881D02*
X21026500Y-5373690D01*
X20788405Y-5849881D02*
X20788405Y-4849881D01*
X21169358Y-4849881D01*
X21264596Y-4897500D01*
X21312215Y-4945119D01*
X21359834Y-5040357D01*
X21359834Y-5183214D01*
X21312215Y-5278452D01*
X21264596Y-5326071D01*
X21169358Y-5373690D01*
X20788405Y-5373690D01*
X21693167Y-4849881D02*
X22312215Y-4849881D01*
X21978881Y-5230833D01*
X22121739Y-5230833D01*
X22216977Y-5278452D01*
X22264596Y-5326071D01*
X22312215Y-5421310D01*
X22312215Y-5659405D01*
X22264596Y-5754643D01*
X22216977Y-5802262D01*
X22121739Y-5849881D01*
X21836024Y-5849881D01*
X21740786Y-5802262D01*
X21693167Y-5754643D01*
X16533881Y-21081905D02*
X17343405Y-21081905D01*
X17438643Y-21034286D01*
X17486262Y-20986667D01*
X17533881Y-20891429D01*
X17533881Y-20700952D01*
X17486262Y-20605714D01*
X17438643Y-20558095D01*
X17343405Y-20510476D01*
X16533881Y-20510476D01*
X17533881Y-19510476D02*
X17533881Y-20081905D01*
X17533881Y-19796191D02*
X16533881Y-19796191D01*
X16676738Y-19891429D01*
X16771976Y-19986667D01*
X16819595Y-20081905D01*
%LPC*%
D12*
X4234000Y-19266000D03*
X4234000Y-20866000D03*
X6434000Y-20866000D03*
X6434000Y-19266000D03*
D13*
X12954000Y-18859500D03*
D14*
X12700000Y-5080000D03*
D15*
X15240000Y-5080000D03*
X17780000Y-5080000D03*
D14*
X23876000Y-12319000D03*
D15*
X26416000Y-12319000D03*
X23876000Y-14859000D03*
X26416000Y-14859000D03*
X23876000Y-17399000D03*
X26416000Y-17399000D03*
X23876000Y-19939000D03*
X26416000Y-19939000D03*
D13*
X1524000Y-12192000D03*
X1524000Y-8382000D03*
X6604000Y-4826000D03*
X1778000Y-16764000D03*
D16*
X2286000Y-19870420D03*
X2286000Y-20769580D03*
X8382000Y-20378420D03*
X8382000Y-21277580D03*
D10*
G36*
X13878825Y-8247957D02*
X13454957Y-8671825D01*
X13172977Y-8389845D01*
X13596845Y-7965977D01*
X13878825Y-8247957D01*
X13878825Y-8247957D01*
G37*
G36*
X13243023Y-7612155D02*
X12819155Y-8036023D01*
X12537175Y-7754043D01*
X12961043Y-7330175D01*
X13243023Y-7612155D01*
X13243023Y-7612155D01*
G37*
D16*
X15748000Y-20261580D03*
X15748000Y-19362420D03*
D10*
G36*
X3972825Y-17772957D02*
X3548957Y-18196825D01*
X3266977Y-17914845D01*
X3690845Y-17490977D01*
X3972825Y-17772957D01*
X3972825Y-17772957D01*
G37*
G36*
X3337023Y-17137155D02*
X2913155Y-17561023D01*
X2631175Y-17279043D01*
X3055043Y-16855175D01*
X3337023Y-17137155D01*
X3337023Y-17137155D01*
G37*
G36*
X7500043Y-6131825D02*
X7076175Y-5707957D01*
X7358155Y-5425977D01*
X7782023Y-5849845D01*
X7500043Y-6131825D01*
X7500043Y-6131825D01*
G37*
G36*
X8135845Y-5496023D02*
X7711977Y-5072155D01*
X7993957Y-4790175D01*
X8417825Y-5214043D01*
X8135845Y-5496023D01*
X8135845Y-5496023D01*
G37*
D16*
X21971000Y-21341080D03*
X21971000Y-20441920D03*
D10*
G36*
X6201475Y-18553094D02*
X5883574Y-18235193D01*
X7297067Y-16821700D01*
X7614968Y-17139601D01*
X6201475Y-18553094D01*
X6201475Y-18553094D01*
G37*
G36*
X5635719Y-17987338D02*
X5317818Y-17669437D01*
X6731311Y-16255944D01*
X7049212Y-16573845D01*
X5635719Y-17987338D01*
X5635719Y-17987338D01*
G37*
G36*
X5069963Y-17421582D02*
X4752062Y-17103681D01*
X6165555Y-15690188D01*
X6483456Y-16008089D01*
X5069963Y-17421582D01*
X5069963Y-17421582D01*
G37*
G36*
X4504206Y-16855826D02*
X4186305Y-16537925D01*
X5599798Y-15124432D01*
X5917699Y-15442333D01*
X4504206Y-16855826D01*
X4504206Y-16855826D01*
G37*
G36*
X3938450Y-16290070D02*
X3620549Y-15972169D01*
X5034042Y-14558676D01*
X5351943Y-14876577D01*
X3938450Y-16290070D01*
X3938450Y-16290070D01*
G37*
G36*
X3372694Y-15724313D02*
X3054793Y-15406412D01*
X4468286Y-13992919D01*
X4786187Y-14310820D01*
X3372694Y-15724313D01*
X3372694Y-15724313D01*
G37*
G36*
X2806938Y-15158557D02*
X2489037Y-14840656D01*
X3902530Y-13427163D01*
X4220431Y-13745064D01*
X2806938Y-15158557D01*
X2806938Y-15158557D01*
G37*
G36*
X2241182Y-14592801D02*
X1923281Y-14274900D01*
X3336774Y-12861407D01*
X3654675Y-13179308D01*
X2241182Y-14592801D01*
X2241182Y-14592801D01*
G37*
G36*
X9008703Y-7832464D02*
X8690802Y-7514563D01*
X10104295Y-6101070D01*
X10422196Y-6418971D01*
X9008703Y-7832464D01*
X9008703Y-7832464D01*
G37*
G36*
X12977976Y-11801738D02*
X12660075Y-11483837D01*
X14073568Y-10070344D01*
X14391469Y-10388245D01*
X12977976Y-11801738D01*
X12977976Y-11801738D01*
G37*
G36*
X12403240Y-11227001D02*
X12085339Y-10909100D01*
X13498832Y-9495607D01*
X13816733Y-9813508D01*
X12403240Y-11227001D01*
X12403240Y-11227001D01*
G37*
G36*
X11828503Y-10652265D02*
X11510602Y-10334364D01*
X12924095Y-8920871D01*
X13241996Y-9238772D01*
X11828503Y-10652265D01*
X11828503Y-10652265D01*
G37*
G36*
X11271727Y-10095489D02*
X10953826Y-9777588D01*
X12367319Y-8364095D01*
X12685220Y-8681996D01*
X11271727Y-10095489D01*
X11271727Y-10095489D01*
G37*
G36*
X10696991Y-9520753D02*
X10379090Y-9202852D01*
X11792583Y-7789359D01*
X12110484Y-8107260D01*
X10696991Y-9520753D01*
X10696991Y-9520753D01*
G37*
G36*
X10140215Y-8963977D02*
X9822314Y-8646076D01*
X11235807Y-7232583D01*
X11553708Y-7550484D01*
X10140215Y-8963977D01*
X10140215Y-8963977D01*
G37*
G36*
X9565479Y-8389240D02*
X9247578Y-8071339D01*
X10661071Y-6657846D01*
X10978972Y-6975747D01*
X9565479Y-8389240D01*
X9565479Y-8389240D01*
G37*
G36*
X3329590Y-11769409D02*
X1916097Y-10355916D01*
X2233998Y-10038015D01*
X3647491Y-11451508D01*
X3329590Y-11769409D01*
X3329590Y-11769409D01*
G37*
G36*
X3893550Y-11205449D02*
X2480057Y-9791956D01*
X2797958Y-9474055D01*
X4211451Y-10887548D01*
X3893550Y-11205449D01*
X3893550Y-11205449D01*
G37*
G36*
X4461102Y-10637896D02*
X3047609Y-9224403D01*
X3365510Y-8906502D01*
X4779003Y-10319995D01*
X4461102Y-10637896D01*
X4461102Y-10637896D01*
G37*
G36*
X5025062Y-10073936D02*
X3611569Y-8660443D01*
X3929470Y-8342542D01*
X5342963Y-9756035D01*
X5025062Y-10073936D01*
X5025062Y-10073936D01*
G37*
G36*
X5592614Y-9506384D02*
X4179121Y-8092891D01*
X4497022Y-7774990D01*
X5910515Y-9188483D01*
X5592614Y-9506384D01*
X5592614Y-9506384D01*
G37*
G36*
X6156574Y-8942424D02*
X4743081Y-7528931D01*
X5060982Y-7211030D01*
X6474475Y-8624523D01*
X6156574Y-8942424D01*
X6156574Y-8942424D01*
G37*
G36*
X6724127Y-8374872D02*
X5310634Y-6961379D01*
X5628535Y-6643478D01*
X7042028Y-8056971D01*
X6724127Y-8374872D01*
X6724127Y-8374872D01*
G37*
G36*
X7288087Y-7810912D02*
X5874594Y-6397419D01*
X6192495Y-6079518D01*
X7605988Y-7493011D01*
X7288087Y-7810912D01*
X7288087Y-7810912D01*
G37*
G36*
X10122255Y-18554890D02*
X8708762Y-17141397D01*
X9026663Y-16823496D01*
X10440156Y-18236989D01*
X10122255Y-18554890D01*
X10122255Y-18554890D01*
G37*
G36*
X10679031Y-17998114D02*
X9265538Y-16584621D01*
X9583439Y-16266720D01*
X10996932Y-17680213D01*
X10679031Y-17998114D01*
X10679031Y-17998114D01*
G37*
G36*
X11253768Y-17423378D02*
X9840275Y-16009885D01*
X10158176Y-15691984D01*
X11571669Y-17105477D01*
X11253768Y-17423378D01*
X11253768Y-17423378D01*
G37*
G36*
X11810544Y-16866602D02*
X10397051Y-15453109D01*
X10714952Y-15135208D01*
X12128445Y-16548701D01*
X11810544Y-16866602D01*
X11810544Y-16866602D01*
G37*
G36*
X12367319Y-16309826D02*
X10953826Y-14896333D01*
X11271727Y-14578432D01*
X12685220Y-15991925D01*
X12367319Y-16309826D01*
X12367319Y-16309826D01*
G37*
G36*
X12942056Y-15735090D02*
X11528563Y-14321597D01*
X11846464Y-14003696D01*
X13259957Y-15417189D01*
X12942056Y-15735090D01*
X12942056Y-15735090D01*
G37*
G36*
X13516792Y-15160353D02*
X12103299Y-13746860D01*
X12421200Y-13428959D01*
X13834693Y-14842452D01*
X13516792Y-15160353D01*
X13516792Y-15160353D01*
G37*
G36*
X14091529Y-14585617D02*
X12678036Y-13172124D01*
X12995937Y-12854223D01*
X14409430Y-14267716D01*
X14091529Y-14585617D01*
X14091529Y-14585617D01*
G37*
D14*
X17145000Y-17399000D03*
D15*
X19685000Y-17399000D03*
X17145000Y-14859000D03*
X19685000Y-14859000D03*
X17145000Y-12319000D03*
X19685000Y-12319000D03*
D13*
X4064000Y-4826000D03*
X1524000Y-4826000D03*
D10*
G36*
X8960543Y-6449325D02*
X8536675Y-6025457D01*
X8818655Y-5743477D01*
X9242523Y-6167345D01*
X8960543Y-6449325D01*
X8960543Y-6449325D01*
G37*
G36*
X9596345Y-5813523D02*
X9172477Y-5389655D01*
X9454457Y-5107675D01*
X9878325Y-5531543D01*
X9596345Y-5813523D01*
X9596345Y-5813523D01*
G37*
D16*
X21971000Y-17658080D03*
X21971000Y-16758920D03*
X19939000Y-4947920D03*
X19939000Y-5847080D03*
D17*
X18288000Y-19367500D03*
X18288000Y-21272500D03*
X20828000Y-19367500D03*
X18288000Y-20320000D03*
X20828000Y-21272500D03*
M02*
