%FSLAX46Y46*%
G04 Gerber Fmt 4.6, Leading zero omitted, Abs format (unit mm)*
G04 Created by KiCad (PCBNEW (2014-10-27 BZR 5228)-product) date 12/20/2014 4:46:43 PM*
%MOMM*%
G01*
G04 APERTURE LIST*
%ADD10C,0.100000*%
%ADD11C,1.270000*%
%ADD12R,1.727200X1.727200*%
%ADD13O,1.727200X1.727200*%
%ADD14R,0.762000X0.508000*%
%ADD15R,0.599440X0.398780*%
%ADD16R,0.398780X0.599440*%
%ADD17C,0.889000*%
G04 APERTURE END LIST*
D10*
D11*
X26416000Y-8382000D03*
X23876000Y-8382000D03*
X1778000Y-5207000D03*
D12*
X12700000Y-5334000D03*
D13*
X15240000Y-5334000D03*
X17780000Y-5334000D03*
D14*
X16446500Y-18415000D03*
X16446500Y-20320000D03*
X18986500Y-18415000D03*
X16446500Y-19367500D03*
X18986500Y-20320000D03*
D10*
G36*
X5439475Y-20077094D02*
X5121574Y-19759193D01*
X6535067Y-18345700D01*
X6852968Y-18663601D01*
X5439475Y-20077094D01*
X5439475Y-20077094D01*
G37*
G36*
X4873719Y-19511338D02*
X4555818Y-19193437D01*
X5969311Y-17779944D01*
X6287212Y-18097845D01*
X4873719Y-19511338D01*
X4873719Y-19511338D01*
G37*
G36*
X4307963Y-18945582D02*
X3990062Y-18627681D01*
X5403555Y-17214188D01*
X5721456Y-17532089D01*
X4307963Y-18945582D01*
X4307963Y-18945582D01*
G37*
G36*
X3742206Y-18379826D02*
X3424305Y-18061925D01*
X4837798Y-16648432D01*
X5155699Y-16966333D01*
X3742206Y-18379826D01*
X3742206Y-18379826D01*
G37*
G36*
X3176450Y-17814070D02*
X2858549Y-17496169D01*
X4272042Y-16082676D01*
X4589943Y-16400577D01*
X3176450Y-17814070D01*
X3176450Y-17814070D01*
G37*
G36*
X2610694Y-17248313D02*
X2292793Y-16930412D01*
X3706286Y-15516919D01*
X4024187Y-15834820D01*
X2610694Y-17248313D01*
X2610694Y-17248313D01*
G37*
G36*
X2044938Y-16682557D02*
X1727037Y-16364656D01*
X3140530Y-14951163D01*
X3458431Y-15269064D01*
X2044938Y-16682557D01*
X2044938Y-16682557D01*
G37*
G36*
X1479182Y-16116801D02*
X1161281Y-15798900D01*
X2574774Y-14385407D01*
X2892675Y-14703308D01*
X1479182Y-16116801D01*
X1479182Y-16116801D01*
G37*
G36*
X8246703Y-9356464D02*
X7928802Y-9038563D01*
X9342295Y-7625070D01*
X9660196Y-7942971D01*
X8246703Y-9356464D01*
X8246703Y-9356464D01*
G37*
G36*
X12215976Y-13325738D02*
X11898075Y-13007837D01*
X13311568Y-11594344D01*
X13629469Y-11912245D01*
X12215976Y-13325738D01*
X12215976Y-13325738D01*
G37*
G36*
X11641240Y-12751001D02*
X11323339Y-12433100D01*
X12736832Y-11019607D01*
X13054733Y-11337508D01*
X11641240Y-12751001D01*
X11641240Y-12751001D01*
G37*
G36*
X11066503Y-12176265D02*
X10748602Y-11858364D01*
X12162095Y-10444871D01*
X12479996Y-10762772D01*
X11066503Y-12176265D01*
X11066503Y-12176265D01*
G37*
G36*
X10509727Y-11619489D02*
X10191826Y-11301588D01*
X11605319Y-9888095D01*
X11923220Y-10205996D01*
X10509727Y-11619489D01*
X10509727Y-11619489D01*
G37*
G36*
X9934991Y-11044753D02*
X9617090Y-10726852D01*
X11030583Y-9313359D01*
X11348484Y-9631260D01*
X9934991Y-11044753D01*
X9934991Y-11044753D01*
G37*
G36*
X9378215Y-10487977D02*
X9060314Y-10170076D01*
X10473807Y-8756583D01*
X10791708Y-9074484D01*
X9378215Y-10487977D01*
X9378215Y-10487977D01*
G37*
G36*
X8803479Y-9913240D02*
X8485578Y-9595339D01*
X9899071Y-8181846D01*
X10216972Y-8499747D01*
X8803479Y-9913240D01*
X8803479Y-9913240D01*
G37*
G36*
X2567590Y-13293409D02*
X1154097Y-11879916D01*
X1471998Y-11562015D01*
X2885491Y-12975508D01*
X2567590Y-13293409D01*
X2567590Y-13293409D01*
G37*
G36*
X3131550Y-12729449D02*
X1718057Y-11315956D01*
X2035958Y-10998055D01*
X3449451Y-12411548D01*
X3131550Y-12729449D01*
X3131550Y-12729449D01*
G37*
G36*
X3699102Y-12161896D02*
X2285609Y-10748403D01*
X2603510Y-10430502D01*
X4017003Y-11843995D01*
X3699102Y-12161896D01*
X3699102Y-12161896D01*
G37*
G36*
X4263062Y-11597936D02*
X2849569Y-10184443D01*
X3167470Y-9866542D01*
X4580963Y-11280035D01*
X4263062Y-11597936D01*
X4263062Y-11597936D01*
G37*
G36*
X4830614Y-11030384D02*
X3417121Y-9616891D01*
X3735022Y-9298990D01*
X5148515Y-10712483D01*
X4830614Y-11030384D01*
X4830614Y-11030384D01*
G37*
G36*
X5394574Y-10466424D02*
X3981081Y-9052931D01*
X4298982Y-8735030D01*
X5712475Y-10148523D01*
X5394574Y-10466424D01*
X5394574Y-10466424D01*
G37*
G36*
X5962127Y-9898872D02*
X4548634Y-8485379D01*
X4866535Y-8167478D01*
X6280028Y-9580971D01*
X5962127Y-9898872D01*
X5962127Y-9898872D01*
G37*
G36*
X6526087Y-9334912D02*
X5112594Y-7921419D01*
X5430495Y-7603518D01*
X6843988Y-9017011D01*
X6526087Y-9334912D01*
X6526087Y-9334912D01*
G37*
G36*
X9360255Y-20078890D02*
X7946762Y-18665397D01*
X8264663Y-18347496D01*
X9678156Y-19760989D01*
X9360255Y-20078890D01*
X9360255Y-20078890D01*
G37*
G36*
X9917031Y-19522114D02*
X8503538Y-18108621D01*
X8821439Y-17790720D01*
X10234932Y-19204213D01*
X9917031Y-19522114D01*
X9917031Y-19522114D01*
G37*
G36*
X10491768Y-18947378D02*
X9078275Y-17533885D01*
X9396176Y-17215984D01*
X10809669Y-18629477D01*
X10491768Y-18947378D01*
X10491768Y-18947378D01*
G37*
G36*
X11048544Y-18390602D02*
X9635051Y-16977109D01*
X9952952Y-16659208D01*
X11366445Y-18072701D01*
X11048544Y-18390602D01*
X11048544Y-18390602D01*
G37*
G36*
X11605319Y-17833826D02*
X10191826Y-16420333D01*
X10509727Y-16102432D01*
X11923220Y-17515925D01*
X11605319Y-17833826D01*
X11605319Y-17833826D01*
G37*
G36*
X12180056Y-17259090D02*
X10766563Y-15845597D01*
X11084464Y-15527696D01*
X12497957Y-16941189D01*
X12180056Y-17259090D01*
X12180056Y-17259090D01*
G37*
G36*
X12754792Y-16684353D02*
X11341299Y-15270860D01*
X11659200Y-14952959D01*
X13072693Y-16366452D01*
X12754792Y-16684353D01*
X12754792Y-16684353D01*
G37*
G36*
X13329529Y-16109617D02*
X11916036Y-14696124D01*
X12233937Y-14378223D01*
X13647430Y-15791716D01*
X13329529Y-16109617D01*
X13329529Y-16109617D01*
G37*
D12*
X23876000Y-12319000D03*
D13*
X26416000Y-12319000D03*
X23876000Y-14859000D03*
X26416000Y-14859000D03*
X23876000Y-17399000D03*
X26416000Y-17399000D03*
X23876000Y-19939000D03*
X26416000Y-19939000D03*
D12*
X15240000Y-12319000D03*
D13*
X15240000Y-14859000D03*
X17780000Y-12319000D03*
X17780000Y-14859000D03*
X20320000Y-12319000D03*
X20320000Y-14859000D03*
D11*
X1778000Y-13843000D03*
X1778000Y-7747000D03*
X3619500Y-6540500D03*
X26670000Y-5207000D03*
D10*
G36*
X2766325Y-18280957D02*
X2342457Y-18704825D01*
X2060477Y-18422845D01*
X2484345Y-17998977D01*
X2766325Y-18280957D01*
X2766325Y-18280957D01*
G37*
G36*
X2130523Y-17645155D02*
X1706655Y-18069023D01*
X1424675Y-17787043D01*
X1848543Y-17363175D01*
X2130523Y-17645155D01*
X2130523Y-17645155D01*
G37*
D15*
X15240000Y-19309080D03*
X15240000Y-18409920D03*
D10*
G36*
X13370825Y-9898957D02*
X12946957Y-10322825D01*
X12664977Y-10040845D01*
X13088845Y-9616977D01*
X13370825Y-9898957D01*
X13370825Y-9898957D01*
G37*
G36*
X12735023Y-9263155D02*
X12311155Y-9687023D01*
X12029175Y-9405043D01*
X12453043Y-8981175D01*
X12735023Y-9263155D01*
X12735023Y-9263155D01*
G37*
D15*
X7112000Y-4884420D03*
X7112000Y-5783580D03*
X21971000Y-20579080D03*
X21971000Y-19679920D03*
X5588000Y-5783580D03*
X5588000Y-4884420D03*
X21971000Y-18737580D03*
X21971000Y-17838420D03*
D16*
X20642580Y-5778500D03*
X19743420Y-5778500D03*
D17*
X3619500Y-13779500D03*
X9398000Y-13335000D03*
X11049000Y-7175500D03*
X12890500Y-18542000D03*
X17716500Y-19367500D03*
X5524500Y-15113000D03*
X9194800Y-11455400D03*
X22161500Y-6604000D03*
X8509000Y-4762500D03*
X6286500Y-11557000D03*
X16192500Y-8382000D03*
X6096000Y-12954000D03*
X15113000Y-9461500D03*
M02*
