%FSLAX46Y46*%
G04 Gerber Fmt 4.6, Leading zero omitted, Abs format (unit mm)*
G04 Created by KiCad (PCBNEW (2014-10-27 BZR 5228)-product) date 12/20/2014 4:46:43 PM*
%MOMM*%
G01*
G04 APERTURE LIST*
%ADD10C,0.100000*%
%ADD11C,1.270000*%
%ADD12R,1.727200X1.727200*%
%ADD13O,1.727200X1.727200*%
%ADD14R,0.762000X0.508000*%
%ADD15R,0.599440X0.398780*%
%ADD16R,0.398780X0.599440*%
%ADD17C,0.889000*%
%ADD18C,0.254000*%
%ADD19C,0.406400*%
%ADD20C,0.381000*%
G04 APERTURE END LIST*
D10*
D11*
X26416000Y-8382000D03*
X23876000Y-8382000D03*
X1778000Y-5207000D03*
D12*
X12700000Y-5334000D03*
D13*
X15240000Y-5334000D03*
X17780000Y-5334000D03*
D14*
X16446500Y-18415000D03*
X16446500Y-20320000D03*
X18986500Y-18415000D03*
X16446500Y-19367500D03*
X18986500Y-20320000D03*
D10*
G36*
X5439475Y-20077094D02*
X5121574Y-19759193D01*
X6535067Y-18345700D01*
X6852968Y-18663601D01*
X5439475Y-20077094D01*
X5439475Y-20077094D01*
G37*
G36*
X4873719Y-19511338D02*
X4555818Y-19193437D01*
X5969311Y-17779944D01*
X6287212Y-18097845D01*
X4873719Y-19511338D01*
X4873719Y-19511338D01*
G37*
G36*
X4307963Y-18945582D02*
X3990062Y-18627681D01*
X5403555Y-17214188D01*
X5721456Y-17532089D01*
X4307963Y-18945582D01*
X4307963Y-18945582D01*
G37*
G36*
X3742206Y-18379826D02*
X3424305Y-18061925D01*
X4837798Y-16648432D01*
X5155699Y-16966333D01*
X3742206Y-18379826D01*
X3742206Y-18379826D01*
G37*
G36*
X3176450Y-17814070D02*
X2858549Y-17496169D01*
X4272042Y-16082676D01*
X4589943Y-16400577D01*
X3176450Y-17814070D01*
X3176450Y-17814070D01*
G37*
G36*
X2610694Y-17248313D02*
X2292793Y-16930412D01*
X3706286Y-15516919D01*
X4024187Y-15834820D01*
X2610694Y-17248313D01*
X2610694Y-17248313D01*
G37*
G36*
X2044938Y-16682557D02*
X1727037Y-16364656D01*
X3140530Y-14951163D01*
X3458431Y-15269064D01*
X2044938Y-16682557D01*
X2044938Y-16682557D01*
G37*
G36*
X1479182Y-16116801D02*
X1161281Y-15798900D01*
X2574774Y-14385407D01*
X2892675Y-14703308D01*
X1479182Y-16116801D01*
X1479182Y-16116801D01*
G37*
G36*
X8246703Y-9356464D02*
X7928802Y-9038563D01*
X9342295Y-7625070D01*
X9660196Y-7942971D01*
X8246703Y-9356464D01*
X8246703Y-9356464D01*
G37*
G36*
X12215976Y-13325738D02*
X11898075Y-13007837D01*
X13311568Y-11594344D01*
X13629469Y-11912245D01*
X12215976Y-13325738D01*
X12215976Y-13325738D01*
G37*
G36*
X11641240Y-12751001D02*
X11323339Y-12433100D01*
X12736832Y-11019607D01*
X13054733Y-11337508D01*
X11641240Y-12751001D01*
X11641240Y-12751001D01*
G37*
G36*
X11066503Y-12176265D02*
X10748602Y-11858364D01*
X12162095Y-10444871D01*
X12479996Y-10762772D01*
X11066503Y-12176265D01*
X11066503Y-12176265D01*
G37*
G36*
X10509727Y-11619489D02*
X10191826Y-11301588D01*
X11605319Y-9888095D01*
X11923220Y-10205996D01*
X10509727Y-11619489D01*
X10509727Y-11619489D01*
G37*
G36*
X9934991Y-11044753D02*
X9617090Y-10726852D01*
X11030583Y-9313359D01*
X11348484Y-9631260D01*
X9934991Y-11044753D01*
X9934991Y-11044753D01*
G37*
G36*
X9378215Y-10487977D02*
X9060314Y-10170076D01*
X10473807Y-8756583D01*
X10791708Y-9074484D01*
X9378215Y-10487977D01*
X9378215Y-10487977D01*
G37*
G36*
X8803479Y-9913240D02*
X8485578Y-9595339D01*
X9899071Y-8181846D01*
X10216972Y-8499747D01*
X8803479Y-9913240D01*
X8803479Y-9913240D01*
G37*
G36*
X2567590Y-13293409D02*
X1154097Y-11879916D01*
X1471998Y-11562015D01*
X2885491Y-12975508D01*
X2567590Y-13293409D01*
X2567590Y-13293409D01*
G37*
G36*
X3131550Y-12729449D02*
X1718057Y-11315956D01*
X2035958Y-10998055D01*
X3449451Y-12411548D01*
X3131550Y-12729449D01*
X3131550Y-12729449D01*
G37*
G36*
X3699102Y-12161896D02*
X2285609Y-10748403D01*
X2603510Y-10430502D01*
X4017003Y-11843995D01*
X3699102Y-12161896D01*
X3699102Y-12161896D01*
G37*
G36*
X4263062Y-11597936D02*
X2849569Y-10184443D01*
X3167470Y-9866542D01*
X4580963Y-11280035D01*
X4263062Y-11597936D01*
X4263062Y-11597936D01*
G37*
G36*
X4830614Y-11030384D02*
X3417121Y-9616891D01*
X3735022Y-9298990D01*
X5148515Y-10712483D01*
X4830614Y-11030384D01*
X4830614Y-11030384D01*
G37*
G36*
X5394574Y-10466424D02*
X3981081Y-9052931D01*
X4298982Y-8735030D01*
X5712475Y-10148523D01*
X5394574Y-10466424D01*
X5394574Y-10466424D01*
G37*
G36*
X5962127Y-9898872D02*
X4548634Y-8485379D01*
X4866535Y-8167478D01*
X6280028Y-9580971D01*
X5962127Y-9898872D01*
X5962127Y-9898872D01*
G37*
G36*
X6526087Y-9334912D02*
X5112594Y-7921419D01*
X5430495Y-7603518D01*
X6843988Y-9017011D01*
X6526087Y-9334912D01*
X6526087Y-9334912D01*
G37*
G36*
X9360255Y-20078890D02*
X7946762Y-18665397D01*
X8264663Y-18347496D01*
X9678156Y-19760989D01*
X9360255Y-20078890D01*
X9360255Y-20078890D01*
G37*
G36*
X9917031Y-19522114D02*
X8503538Y-18108621D01*
X8821439Y-17790720D01*
X10234932Y-19204213D01*
X9917031Y-19522114D01*
X9917031Y-19522114D01*
G37*
G36*
X10491768Y-18947378D02*
X9078275Y-17533885D01*
X9396176Y-17215984D01*
X10809669Y-18629477D01*
X10491768Y-18947378D01*
X10491768Y-18947378D01*
G37*
G36*
X11048544Y-18390602D02*
X9635051Y-16977109D01*
X9952952Y-16659208D01*
X11366445Y-18072701D01*
X11048544Y-18390602D01*
X11048544Y-18390602D01*
G37*
G36*
X11605319Y-17833826D02*
X10191826Y-16420333D01*
X10509727Y-16102432D01*
X11923220Y-17515925D01*
X11605319Y-17833826D01*
X11605319Y-17833826D01*
G37*
G36*
X12180056Y-17259090D02*
X10766563Y-15845597D01*
X11084464Y-15527696D01*
X12497957Y-16941189D01*
X12180056Y-17259090D01*
X12180056Y-17259090D01*
G37*
G36*
X12754792Y-16684353D02*
X11341299Y-15270860D01*
X11659200Y-14952959D01*
X13072693Y-16366452D01*
X12754792Y-16684353D01*
X12754792Y-16684353D01*
G37*
G36*
X13329529Y-16109617D02*
X11916036Y-14696124D01*
X12233937Y-14378223D01*
X13647430Y-15791716D01*
X13329529Y-16109617D01*
X13329529Y-16109617D01*
G37*
D12*
X23876000Y-12319000D03*
D13*
X26416000Y-12319000D03*
X23876000Y-14859000D03*
X26416000Y-14859000D03*
X23876000Y-17399000D03*
X26416000Y-17399000D03*
X23876000Y-19939000D03*
X26416000Y-19939000D03*
D12*
X15240000Y-12319000D03*
D13*
X15240000Y-14859000D03*
X17780000Y-12319000D03*
X17780000Y-14859000D03*
X20320000Y-12319000D03*
X20320000Y-14859000D03*
D11*
X1778000Y-13843000D03*
X1778000Y-7747000D03*
X3619500Y-6540500D03*
X26670000Y-5207000D03*
D10*
G36*
X2766325Y-18280957D02*
X2342457Y-18704825D01*
X2060477Y-18422845D01*
X2484345Y-17998977D01*
X2766325Y-18280957D01*
X2766325Y-18280957D01*
G37*
G36*
X2130523Y-17645155D02*
X1706655Y-18069023D01*
X1424675Y-17787043D01*
X1848543Y-17363175D01*
X2130523Y-17645155D01*
X2130523Y-17645155D01*
G37*
D15*
X15240000Y-19309080D03*
X15240000Y-18409920D03*
D10*
G36*
X13370825Y-9898957D02*
X12946957Y-10322825D01*
X12664977Y-10040845D01*
X13088845Y-9616977D01*
X13370825Y-9898957D01*
X13370825Y-9898957D01*
G37*
G36*
X12735023Y-9263155D02*
X12311155Y-9687023D01*
X12029175Y-9405043D01*
X12453043Y-8981175D01*
X12735023Y-9263155D01*
X12735023Y-9263155D01*
G37*
D15*
X7112000Y-4884420D03*
X7112000Y-5783580D03*
X21971000Y-20579080D03*
X21971000Y-19679920D03*
X5588000Y-5783580D03*
X5588000Y-4884420D03*
X21971000Y-18737580D03*
X21971000Y-17838420D03*
D16*
X20642580Y-5778500D03*
X19743420Y-5778500D03*
D17*
X3619500Y-13779500D03*
X9398000Y-13335000D03*
X11049000Y-7175500D03*
X12890500Y-18542000D03*
X17716500Y-19367500D03*
X5524500Y-15113000D03*
X9194800Y-11455400D03*
X22161500Y-6604000D03*
X8509000Y-4762500D03*
X6286500Y-11557000D03*
X16192500Y-8382000D03*
X6096000Y-12954000D03*
X15113000Y-9461500D03*
D18*
X3619500Y-13779500D02*
X3619500Y-14790094D01*
X3619500Y-14790094D02*
X2592734Y-15816860D01*
X1778000Y-15002126D02*
X2026978Y-15251104D01*
X1778000Y-13843000D02*
X1778000Y-15002126D01*
X2019794Y-12427712D02*
X1206500Y-11614418D01*
X1206500Y-11614418D02*
X1206500Y-8318500D01*
X1206500Y-8318500D02*
X1778000Y-7747000D01*
X3715266Y-10732239D02*
X4540027Y-11557000D01*
X6731000Y-10668000D02*
X9398000Y-13335000D01*
X5969000Y-10668000D02*
X6731000Y-10668000D01*
X5080000Y-11557000D02*
X5969000Y-10668000D01*
X4540027Y-11557000D02*
X5080000Y-11557000D01*
X20320000Y-12319000D02*
X20325500Y-12319000D01*
X2921000Y-8890000D02*
X5588000Y-6223000D01*
X2921000Y-9937973D02*
X2921000Y-8890000D01*
X2921000Y-9937973D02*
X3715266Y-10732239D01*
X5588000Y-5784000D02*
X5588000Y-6223000D01*
X7012000Y-5784000D02*
X7112000Y-5884000D01*
X5588000Y-5784000D02*
X7012000Y-5784000D01*
X16256000Y-16383000D02*
X17780000Y-14859000D01*
X13025340Y-16637000D02*
X12206996Y-15818656D01*
X16002000Y-16637000D02*
X13025340Y-16637000D01*
X16256000Y-16383000D02*
X16002000Y-16637000D01*
X19558000Y-16637000D02*
X17780000Y-14859000D01*
X22141576Y-16637000D02*
X19558000Y-16637000D01*
X23876000Y-14902576D02*
X22141576Y-16637000D01*
X23876000Y-14859000D02*
X23876000Y-14902576D01*
X12781733Y-15243920D02*
X12781733Y-15094767D01*
X12781733Y-14777267D02*
X15240000Y-12319000D01*
X12781733Y-15243920D02*
X12781733Y-14777267D01*
X12763772Y-12460041D02*
X12763772Y-12445728D01*
X12763772Y-12460041D02*
X12812959Y-12460041D01*
X12763772Y-12318728D02*
X12763772Y-12460041D01*
X14033500Y-11049000D02*
X12763772Y-12318728D01*
X16510000Y-11049000D02*
X14033500Y-11049000D01*
X17780000Y-12319000D02*
X16510000Y-11049000D01*
X19050000Y-13589000D02*
X19050000Y-15049500D01*
X19050000Y-15049500D02*
X19050000Y-15410576D01*
X19050000Y-15410576D02*
X19768422Y-16128998D01*
X19768422Y-16128998D02*
X21272502Y-16128998D01*
X21272502Y-16128998D02*
X22098000Y-15303500D01*
X22098000Y-15303500D02*
X22098000Y-14541500D01*
X22098000Y-14541500D02*
X23050500Y-13589000D01*
X23050500Y-13589000D02*
X25146000Y-13589000D01*
X25146000Y-13589000D02*
X26416000Y-14859000D01*
X17780000Y-12319000D02*
X19050000Y-13589000D01*
X23114000Y-12319000D02*
X23876000Y-12319000D01*
X10334318Y-8064500D02*
X12509500Y-8064500D01*
X12509500Y-8064500D02*
X14922500Y-10477500D01*
X14922500Y-10477500D02*
X18097500Y-10477500D01*
X18097500Y-10477500D02*
X19050000Y-11430000D01*
X19050000Y-11430000D02*
X19050000Y-12870576D01*
X19050000Y-12870576D02*
X19768424Y-13589000D01*
X19768424Y-13589000D02*
X21844000Y-13589000D01*
X21844000Y-13589000D02*
X23114000Y-12319000D01*
X9351275Y-9047543D02*
X10334318Y-8064500D01*
X25146000Y-16129000D02*
X26416000Y-17399000D01*
X23368000Y-16129000D02*
X25146000Y-16129000D01*
X22605998Y-16891002D02*
X23368000Y-16129000D01*
X22351998Y-17145002D02*
X22605998Y-16891002D01*
X12383869Y-17145002D02*
X22351998Y-17145002D01*
X11632260Y-16393393D02*
X12383869Y-17145002D01*
X21971000Y-17838420D02*
X23436580Y-17838420D01*
X23436580Y-17838420D02*
X23876000Y-17399000D01*
X20701000Y-17653004D02*
X21209004Y-17653004D01*
X21394420Y-17838420D02*
X21971000Y-17838420D01*
X21209004Y-17653004D02*
X21394420Y-17838420D01*
X11742398Y-17653004D02*
X20701000Y-17653004D01*
X20701000Y-17653004D02*
X20706084Y-17653004D01*
X11057523Y-16968129D02*
X11742398Y-17653004D01*
D19*
X21971000Y-18737580D02*
X20706080Y-18737580D01*
X20383500Y-18415000D02*
X18986500Y-18415000D01*
X20706080Y-18737580D02*
X20383500Y-18415000D01*
X21971000Y-19679920D02*
X21971000Y-18737580D01*
X21971000Y-18737580D02*
X22674580Y-18737580D01*
X22674580Y-18737580D02*
X23876000Y-19939000D01*
X7405785Y-8469215D02*
X10541000Y-5334000D01*
X10541000Y-5334000D02*
X12700000Y-5334000D01*
X5978291Y-8469215D02*
X7405785Y-8469215D01*
X10109766Y-7175500D02*
X11049000Y-7175500D01*
X8794499Y-8490767D02*
X10109766Y-7175500D01*
X16573500Y-6667500D02*
X18854000Y-6667500D01*
X18854000Y-6667500D02*
X19743000Y-5778500D01*
X15240000Y-5334000D02*
X16573500Y-6667500D01*
X13022580Y-18409920D02*
X15240000Y-18409920D01*
X12890500Y-18542000D02*
X13022580Y-18409920D01*
X16446500Y-18415000D02*
X15245080Y-18415000D01*
X15245080Y-18415000D02*
X15240000Y-18409920D01*
X4855759Y-18079885D02*
X3758644Y-19177000D01*
X3238500Y-19177000D02*
X2484409Y-18422909D01*
X3758644Y-19177000D02*
X3238500Y-19177000D01*
X3724246Y-16948373D02*
X2484409Y-18188210D01*
X2484409Y-18188210D02*
X2484409Y-18422909D01*
D18*
X12189036Y-11885304D02*
X13088909Y-10985431D01*
X13088909Y-10985431D02*
X13088909Y-10040909D01*
D19*
X7695644Y-15240000D02*
X8834340Y-15240000D01*
X8834340Y-15240000D02*
X12189036Y-11885304D01*
X4855759Y-18079885D02*
X7695644Y-15240000D01*
X21971000Y-20579080D02*
X20896580Y-20579080D01*
X17716500Y-19367500D02*
X16446500Y-19367500D01*
X19685000Y-19367500D02*
X17716500Y-19367500D01*
X20896580Y-20579080D02*
X19685000Y-19367500D01*
X4921250Y-15716250D02*
X5524500Y-15113000D01*
X10482787Y-10179056D02*
X9206443Y-11455400D01*
X4290002Y-17514129D02*
X5334000Y-16470131D01*
X4174106Y-15367000D02*
X3158490Y-16382616D01*
X4572000Y-15367000D02*
X4921250Y-15716250D01*
X4921250Y-15716250D02*
X5334000Y-16129000D01*
X4174106Y-15367000D02*
X4572000Y-15367000D01*
X5334000Y-16470131D02*
X5334000Y-16129000D01*
X4329871Y-17514129D02*
X4290002Y-17514129D01*
X3158490Y-16382616D02*
X1896015Y-17645091D01*
X1896015Y-17645091D02*
X1706591Y-17645091D01*
D18*
X10482787Y-10179056D02*
X11398752Y-9263091D01*
X11398752Y-9263091D02*
X12311091Y-9263091D01*
D19*
X21468500Y-6604000D02*
X22161500Y-6604000D01*
X20643000Y-5778500D02*
X21468500Y-6604000D01*
X8487500Y-4784000D02*
X8509000Y-4762500D01*
X7112000Y-4784000D02*
X8487500Y-4784000D01*
X15240000Y-19309080D02*
X15298420Y-19367500D01*
X15298420Y-19367500D02*
X16446500Y-19367500D01*
D18*
X3983607Y-12128500D02*
X5715000Y-12128500D01*
X5715000Y-12128500D02*
X6286500Y-11557000D01*
X3151306Y-11296199D02*
X3983607Y-12128500D01*
X16192500Y-8382000D02*
X23876000Y-8382000D01*
X3674002Y-12954000D02*
X6096000Y-12954000D01*
X2583754Y-11863752D02*
X3674002Y-12954000D01*
X25336500Y-9461500D02*
X26416000Y-8382000D01*
X15113000Y-9461500D02*
X25336500Y-9461500D01*
D20*
G36*
X3756348Y-16962515D02*
X3738388Y-16980475D01*
X3724246Y-16966334D01*
X3710103Y-16980475D01*
X3692143Y-16962515D01*
X3706285Y-16948373D01*
X3692143Y-16934231D01*
X3710104Y-16916270D01*
X3724246Y-16930412D01*
X3738388Y-16916270D01*
X3756348Y-16934230D01*
X3742207Y-16948373D01*
X3756348Y-16962515D01*
X3756348Y-16962515D01*
G37*
X3756348Y-16962515D02*
X3738388Y-16980475D01*
X3724246Y-16966334D01*
X3710103Y-16980475D01*
X3692143Y-16962515D01*
X3706285Y-16948373D01*
X3692143Y-16934231D01*
X3710104Y-16916270D01*
X3724246Y-16930412D01*
X3738388Y-16916270D01*
X3756348Y-16934230D01*
X3742207Y-16948373D01*
X3756348Y-16962515D01*
G36*
X14114276Y-10477500D02*
X14033505Y-10477500D01*
X14033500Y-10477499D01*
X13814797Y-10521002D01*
X13753274Y-10562110D01*
X13629388Y-10644888D01*
X13629385Y-10644891D01*
X13399862Y-10874414D01*
X13389822Y-10884454D01*
X13207849Y-10884454D01*
X13308875Y-10783428D01*
X13301726Y-10776279D01*
X13431451Y-10646554D01*
X13452994Y-10625011D01*
X13452994Y-10422955D01*
X13017901Y-9987862D01*
X13003759Y-10002004D01*
X12985798Y-9984043D01*
X12999940Y-9969901D01*
X12985798Y-9955759D01*
X13003759Y-9937798D01*
X13017901Y-9951940D01*
X13032042Y-9937797D01*
X13050003Y-9955758D01*
X13035862Y-9969901D01*
X13470955Y-10404994D01*
X13673011Y-10404994D01*
X13694554Y-10383451D01*
X13855320Y-10222685D01*
X13856533Y-10219756D01*
X14114276Y-10477500D01*
X14114276Y-10477500D01*
G37*
X14114276Y-10477500D02*
X14033505Y-10477500D01*
X14033500Y-10477499D01*
X13814797Y-10521002D01*
X13753274Y-10562110D01*
X13629388Y-10644888D01*
X13629385Y-10644891D01*
X13399862Y-10874414D01*
X13389822Y-10884454D01*
X13207849Y-10884454D01*
X13308875Y-10783428D01*
X13301726Y-10776279D01*
X13431451Y-10646554D01*
X13452994Y-10625011D01*
X13452994Y-10422955D01*
X13017901Y-9987862D01*
X13003759Y-10002004D01*
X12985798Y-9984043D01*
X12999940Y-9969901D01*
X12985798Y-9955759D01*
X13003759Y-9937798D01*
X13017901Y-9951940D01*
X13032042Y-9937797D01*
X13050003Y-9955758D01*
X13035862Y-9969901D01*
X13470955Y-10404994D01*
X13673011Y-10404994D01*
X13694554Y-10383451D01*
X13855320Y-10222685D01*
X13856533Y-10219756D01*
X14114276Y-10477500D01*
G36*
X15272700Y-14871700D02*
X15252700Y-14871700D01*
X15252700Y-14891700D01*
X15227300Y-14891700D01*
X15227300Y-14871700D01*
X13947837Y-14871700D01*
X13824610Y-15096034D01*
X13841641Y-15181656D01*
X13985543Y-15501211D01*
X13899219Y-15414887D01*
X13425777Y-14941445D01*
X13850457Y-14516766D01*
X13841641Y-14536344D01*
X13824610Y-14621966D01*
X13947837Y-14846300D01*
X15227300Y-14846300D01*
X15227300Y-14826300D01*
X15252700Y-14826300D01*
X15252700Y-14846300D01*
X15272700Y-14846300D01*
X15272700Y-14871700D01*
X15272700Y-14871700D01*
G37*
X15272700Y-14871700D02*
X15252700Y-14871700D01*
X15252700Y-14891700D01*
X15227300Y-14891700D01*
X15227300Y-14871700D01*
X13947837Y-14871700D01*
X13824610Y-15096034D01*
X13841641Y-15181656D01*
X13985543Y-15501211D01*
X13899219Y-15414887D01*
X13425777Y-14941445D01*
X13850457Y-14516766D01*
X13841641Y-14536344D01*
X13824610Y-14621966D01*
X13947837Y-14846300D01*
X15227300Y-14846300D01*
X15227300Y-14826300D01*
X15252700Y-14826300D01*
X15252700Y-14846300D01*
X15272700Y-14846300D01*
X15272700Y-14871700D01*
G36*
X27953500Y-21476500D02*
X27749687Y-21476500D01*
X27749687Y-4993216D01*
X27585689Y-4596311D01*
X27282286Y-4292378D01*
X26885668Y-4127687D01*
X26456216Y-4127313D01*
X26059311Y-4291311D01*
X25755378Y-4594714D01*
X25590687Y-4991332D01*
X25590313Y-5420784D01*
X25754311Y-5817689D01*
X26057714Y-6121622D01*
X26454332Y-6286313D01*
X26883784Y-6286687D01*
X27280689Y-6122689D01*
X27584622Y-5819286D01*
X27749313Y-5422668D01*
X27749687Y-4993216D01*
X27749687Y-21476500D01*
X27724100Y-21476500D01*
X27724100Y-19964627D01*
X27724100Y-19913373D01*
X27624527Y-19412785D01*
X27340966Y-18988407D01*
X26916588Y-18704846D01*
X26736377Y-18669000D01*
X26916588Y-18633154D01*
X27340966Y-18349593D01*
X27624527Y-17925215D01*
X27724100Y-17424627D01*
X27724100Y-17373373D01*
X27624527Y-16872785D01*
X27340966Y-16448407D01*
X26916588Y-16164846D01*
X26736377Y-16129000D01*
X26916588Y-16093154D01*
X27340966Y-15809593D01*
X27624527Y-15385215D01*
X27724100Y-14884627D01*
X27724100Y-14833373D01*
X27624527Y-14332785D01*
X27340966Y-13908407D01*
X26916588Y-13624846D01*
X26736377Y-13589000D01*
X26916588Y-13553154D01*
X27340966Y-13269593D01*
X27624527Y-12845215D01*
X27724100Y-12344627D01*
X27724100Y-12293373D01*
X27624527Y-11792785D01*
X27340966Y-11368407D01*
X26916588Y-11084846D01*
X26416000Y-10985273D01*
X25915412Y-11084846D01*
X25491034Y-11368407D01*
X25207473Y-11792785D01*
X25184100Y-11910289D01*
X25184100Y-11366984D01*
X25116429Y-11203611D01*
X24991389Y-11078571D01*
X24828017Y-11010900D01*
X24651184Y-11010900D01*
X22923984Y-11010900D01*
X22760611Y-11078571D01*
X22635571Y-11203611D01*
X22567900Y-11366983D01*
X22567900Y-11543816D01*
X22567900Y-12056876D01*
X21607276Y-13017500D01*
X21421913Y-13017500D01*
X21554154Y-12819588D01*
X21653727Y-12319000D01*
X21554154Y-11818412D01*
X21270593Y-11394034D01*
X20846215Y-11110473D01*
X20345627Y-11010900D01*
X20294373Y-11010900D01*
X19793785Y-11110473D01*
X19585610Y-11249571D01*
X19577997Y-11211297D01*
X19577997Y-11211296D01*
X19454112Y-11025888D01*
X19454108Y-11025885D01*
X18501612Y-10073388D01*
X18441166Y-10033000D01*
X25336494Y-10033000D01*
X25336500Y-10033001D01*
X25336500Y-10033000D01*
X25518917Y-9996714D01*
X25555203Y-9989497D01*
X25555204Y-9989497D01*
X25740612Y-9865612D01*
X26161171Y-9445052D01*
X26200332Y-9461313D01*
X26629784Y-9461687D01*
X27026689Y-9297689D01*
X27330622Y-8994286D01*
X27495313Y-8597668D01*
X27495687Y-8168216D01*
X27331689Y-7771311D01*
X27028286Y-7467378D01*
X26631668Y-7302687D01*
X26202216Y-7302313D01*
X25805311Y-7466311D01*
X25501378Y-7769714D01*
X25336687Y-8166332D01*
X25336313Y-8595784D01*
X25353177Y-8636598D01*
X25099776Y-8890000D01*
X24833925Y-8890000D01*
X24955313Y-8597668D01*
X24955687Y-8168216D01*
X24791689Y-7771311D01*
X24488286Y-7467378D01*
X24091668Y-7302687D01*
X23662216Y-7302313D01*
X23265311Y-7466311D01*
X22961378Y-7769714D01*
X22944442Y-7810500D01*
X16878136Y-7810500D01*
X16696736Y-7628782D01*
X16370109Y-7493154D01*
X16016443Y-7492846D01*
X15689580Y-7627903D01*
X15439282Y-7877764D01*
X15303654Y-8204391D01*
X15303346Y-8558057D01*
X15313264Y-8582061D01*
X15290609Y-8572654D01*
X14936943Y-8572346D01*
X14610080Y-8707403D01*
X14359782Y-8957264D01*
X14315978Y-9062754D01*
X12913612Y-7660388D01*
X12728204Y-7536503D01*
X12691917Y-7529285D01*
X12509500Y-7492999D01*
X12509494Y-7493000D01*
X11879757Y-7493000D01*
X11937846Y-7353109D01*
X11938154Y-6999443D01*
X11803097Y-6672580D01*
X11772670Y-6642100D01*
X11924816Y-6642100D01*
X13652016Y-6642100D01*
X13815389Y-6574429D01*
X13940429Y-6449389D01*
X14008100Y-6286017D01*
X14008100Y-6109184D01*
X14008100Y-5837961D01*
X14289407Y-6258966D01*
X14713785Y-6542527D01*
X15214373Y-6642100D01*
X15265627Y-6642100D01*
X15571309Y-6581295D01*
X16115507Y-7125493D01*
X16325636Y-7265897D01*
X16573500Y-7315200D01*
X18854000Y-7315200D01*
X19101864Y-7265897D01*
X19311993Y-7125493D01*
X19914766Y-6522720D01*
X20031226Y-6522720D01*
X20192999Y-6455711D01*
X20354773Y-6522720D01*
X20471234Y-6522720D01*
X21010507Y-7061993D01*
X21220636Y-7202397D01*
X21468500Y-7251700D01*
X21551930Y-7251700D01*
X21657264Y-7357218D01*
X21983891Y-7492846D01*
X22337557Y-7493154D01*
X22664420Y-7358097D01*
X22914718Y-7108236D01*
X23050346Y-6781609D01*
X23050654Y-6427943D01*
X22915597Y-6101080D01*
X22665736Y-5850782D01*
X22339109Y-5715154D01*
X21985443Y-5714846D01*
X21658580Y-5849903D01*
X21644472Y-5863986D01*
X21286470Y-5505984D01*
X21286470Y-5390364D01*
X21218799Y-5226991D01*
X21093759Y-5101951D01*
X20930387Y-5034280D01*
X20753554Y-5034280D01*
X20354774Y-5034280D01*
X20193000Y-5101288D01*
X20031227Y-5034280D01*
X19854394Y-5034280D01*
X19455614Y-5034280D01*
X19292241Y-5101951D01*
X19167201Y-5226991D01*
X19105274Y-5376495D01*
X19113727Y-5334000D01*
X19014154Y-4833412D01*
X18730593Y-4409034D01*
X18306215Y-4125473D01*
X17805627Y-4025900D01*
X17754373Y-4025900D01*
X17253785Y-4125473D01*
X16829407Y-4409034D01*
X16545846Y-4833412D01*
X16510000Y-5013622D01*
X16474154Y-4833412D01*
X16190593Y-4409034D01*
X15766215Y-4125473D01*
X15265627Y-4025900D01*
X15214373Y-4025900D01*
X14713785Y-4125473D01*
X14289407Y-4409034D01*
X14008100Y-4830038D01*
X14008100Y-4381984D01*
X13940429Y-4218611D01*
X13815389Y-4093571D01*
X13652017Y-4025900D01*
X13475184Y-4025900D01*
X11747984Y-4025900D01*
X11584611Y-4093571D01*
X11459571Y-4218611D01*
X11391900Y-4381983D01*
X11391900Y-4558816D01*
X11391900Y-4686300D01*
X10541000Y-4686300D01*
X10293136Y-4735603D01*
X10083007Y-4876007D01*
X7137498Y-7821515D01*
X6277110Y-7821515D01*
X5682285Y-7226690D01*
X5518912Y-7159018D01*
X5460205Y-7159018D01*
X5992108Y-6627114D01*
X5992112Y-6627112D01*
X5992112Y-6627111D01*
X6074889Y-6503226D01*
X6115997Y-6441704D01*
X6115998Y-6441703D01*
X6131641Y-6363057D01*
X6139509Y-6359799D01*
X6143808Y-6355500D01*
X6556192Y-6355500D01*
X6560491Y-6359799D01*
X6723863Y-6427470D01*
X6900696Y-6427470D01*
X6971084Y-6427470D01*
X7112000Y-6455500D01*
X7252915Y-6427470D01*
X7500136Y-6427470D01*
X7663509Y-6359799D01*
X7788549Y-6234759D01*
X7856220Y-6071387D01*
X7856220Y-5894554D01*
X7856220Y-5495774D01*
X7829679Y-5431700D01*
X7920892Y-5431700D01*
X8004764Y-5515718D01*
X8331391Y-5651346D01*
X8685057Y-5651654D01*
X9011920Y-5516597D01*
X9262218Y-5266736D01*
X9397846Y-4940109D01*
X9398154Y-4586443D01*
X9263097Y-4259580D01*
X9013236Y-4009282D01*
X8686609Y-3873654D01*
X8332943Y-3873346D01*
X8006080Y-4008403D01*
X7877959Y-4136300D01*
X7112000Y-4136300D01*
X6864136Y-4185603D01*
X6781932Y-4240530D01*
X6723864Y-4240530D01*
X6560491Y-4308201D01*
X6435451Y-4433241D01*
X6418731Y-4473604D01*
X6372214Y-4361302D01*
X6211449Y-4200536D01*
X6001399Y-4113530D01*
X5774042Y-4113530D01*
X5743575Y-4113530D01*
X5600700Y-4256405D01*
X5600700Y-4871720D01*
X5620700Y-4871720D01*
X5620700Y-4897120D01*
X5600700Y-4897120D01*
X5600700Y-4917120D01*
X5575300Y-4917120D01*
X5575300Y-4897120D01*
X5575300Y-4871720D01*
X5575300Y-4256405D01*
X5432425Y-4113530D01*
X5401958Y-4113530D01*
X5174601Y-4113530D01*
X4964551Y-4200536D01*
X4803786Y-4361302D01*
X4716780Y-4571352D01*
X4716780Y-4728845D01*
X4859655Y-4871720D01*
X5575300Y-4871720D01*
X5575300Y-4897120D01*
X4859655Y-4897120D01*
X4716780Y-5039995D01*
X4716780Y-5197488D01*
X4803786Y-5407538D01*
X4857909Y-5461661D01*
X4843780Y-5495773D01*
X4843780Y-5672606D01*
X4843780Y-6071386D01*
X4869440Y-6133336D01*
X4692425Y-6310351D01*
X4535189Y-5929811D01*
X4231786Y-5625878D01*
X3835168Y-5461187D01*
X3405716Y-5460813D01*
X3008811Y-5624811D01*
X2835140Y-5798178D01*
X2977049Y-5481805D01*
X2990940Y-5002031D01*
X2820172Y-4553461D01*
X2780613Y-4494257D01*
X2555738Y-4447222D01*
X2537778Y-4465182D01*
X2537778Y-4429262D01*
X2490743Y-4204387D01*
X2052805Y-4007951D01*
X1573031Y-3994060D01*
X1124461Y-4164828D01*
X1065257Y-4204387D01*
X1018222Y-4429262D01*
X1778000Y-5189039D01*
X2537778Y-4429262D01*
X2537778Y-4465182D01*
X1795961Y-5207000D01*
X1810102Y-5221142D01*
X1792142Y-5239102D01*
X1778000Y-5224961D01*
X1760039Y-5242921D01*
X1760039Y-5207000D01*
X1000262Y-4447222D01*
X775387Y-4494257D01*
X578951Y-4932195D01*
X565060Y-5411969D01*
X735828Y-5860539D01*
X775387Y-5919743D01*
X1000262Y-5966778D01*
X1760039Y-5207000D01*
X1760039Y-5242921D01*
X1018222Y-5984738D01*
X1065257Y-6209613D01*
X1503195Y-6406049D01*
X1982969Y-6419940D01*
X2431539Y-6249172D01*
X2490743Y-6209613D01*
X2537777Y-5984740D01*
X2537778Y-5984741D01*
X2636218Y-6083181D01*
X2643590Y-6075808D01*
X2540187Y-6324832D01*
X2539813Y-6754284D01*
X2703811Y-7151189D01*
X3007214Y-7455122D01*
X3389086Y-7613690D01*
X2727510Y-8275265D01*
X2857313Y-7962668D01*
X2857687Y-7533216D01*
X2693689Y-7136311D01*
X2537778Y-6980127D01*
X2390286Y-6832378D01*
X1993668Y-6667687D01*
X1564216Y-6667313D01*
X1167311Y-6831311D01*
X863378Y-7134714D01*
X698687Y-7531332D01*
X698313Y-7960784D01*
X726234Y-8028359D01*
X726234Y-8028360D01*
X678503Y-8099796D01*
X671285Y-8136082D01*
X634999Y-8318500D01*
X635000Y-8318505D01*
X635000Y-11614412D01*
X634999Y-11614418D01*
X671285Y-11796835D01*
X678503Y-11833122D01*
X709597Y-11879657D01*
X709597Y-11968333D01*
X777268Y-12131705D01*
X902308Y-12256745D01*
X1454294Y-12808731D01*
X1167311Y-12927311D01*
X863378Y-13230714D01*
X698687Y-13627332D01*
X698313Y-14056784D01*
X862311Y-14453689D01*
X1165714Y-14757622D01*
X1206500Y-14774557D01*
X1206500Y-15002120D01*
X1206499Y-15002126D01*
X1226896Y-15104666D01*
X784453Y-15547110D01*
X716781Y-15710483D01*
X716781Y-15887316D01*
X784452Y-16050688D01*
X909492Y-16175728D01*
X1227393Y-16493629D01*
X1314236Y-16529601D01*
X1350208Y-16616444D01*
X1475248Y-16741484D01*
X1679441Y-16945677D01*
X1668486Y-16956633D01*
X1596754Y-16986346D01*
X1555694Y-17027406D01*
X1458727Y-17046694D01*
X1248598Y-17187098D01*
X1108194Y-17397227D01*
X1088906Y-17494193D01*
X1047846Y-17535254D01*
X980175Y-17698626D01*
X980175Y-17875460D01*
X1047846Y-18038832D01*
X1172886Y-18163872D01*
X1454866Y-18445852D01*
X1488977Y-18459981D01*
X1488978Y-18536524D01*
X1575983Y-18746574D01*
X1687347Y-18857938D01*
X1889403Y-18857938D01*
X2395440Y-18351901D01*
X2381298Y-18337759D01*
X2399259Y-18319798D01*
X2413401Y-18333940D01*
X2427543Y-18319798D01*
X2445504Y-18337759D01*
X2431362Y-18351901D01*
X2866455Y-18786994D01*
X3068511Y-18786994D01*
X3090054Y-18765451D01*
X3250820Y-18604685D01*
X3276485Y-18542722D01*
X3418562Y-18684799D01*
X3418562Y-18741359D01*
X3505568Y-18951409D01*
X3634893Y-19080735D01*
X3836949Y-19080735D01*
X4837798Y-18079885D01*
X4823656Y-18065743D01*
X4841617Y-18047782D01*
X4855759Y-18061924D01*
X5856609Y-17061075D01*
X5856609Y-16859019D01*
X5845554Y-16847964D01*
X5932397Y-16717995D01*
X5981700Y-16470131D01*
X5981700Y-16129000D01*
X5937033Y-15904444D01*
X6027420Y-15867097D01*
X6277718Y-15617236D01*
X6413346Y-15290609D01*
X6413654Y-14936943D01*
X6278597Y-14610080D01*
X6028736Y-14359782D01*
X5702109Y-14224154D01*
X5348443Y-14223846D01*
X5021580Y-14358903D01*
X4771282Y-14608764D01*
X4713680Y-14747481D01*
X4572000Y-14719300D01*
X4191000Y-14719300D01*
X4191000Y-14465136D01*
X4372718Y-14283736D01*
X4508346Y-13957109D01*
X4508654Y-13603443D01*
X4476448Y-13525500D01*
X5410363Y-13525500D01*
X5591764Y-13707218D01*
X5918391Y-13842846D01*
X6272057Y-13843154D01*
X6598920Y-13708097D01*
X6849218Y-13458236D01*
X6984846Y-13131609D01*
X6985154Y-12777943D01*
X6850097Y-12451080D01*
X6733445Y-12334224D01*
X6789420Y-12311097D01*
X7039718Y-12061236D01*
X7120784Y-11866007D01*
X8509069Y-13254292D01*
X8508846Y-13511057D01*
X8643903Y-13837920D01*
X8893764Y-14088218D01*
X9220391Y-14223846D01*
X9574057Y-14224154D01*
X9900920Y-14089097D01*
X10151218Y-13839236D01*
X10286846Y-13512609D01*
X10287154Y-13158943D01*
X10152097Y-12832080D01*
X9902236Y-12581782D01*
X9575609Y-12446154D01*
X9317152Y-12445928D01*
X9215642Y-12344418D01*
X9370857Y-12344554D01*
X9697720Y-12209497D01*
X9948018Y-11959636D01*
X10028187Y-11766566D01*
X10257938Y-11996317D01*
X10338431Y-12029658D01*
X10371773Y-12110152D01*
X10496813Y-12235192D01*
X10751839Y-12490218D01*
X10751839Y-12546778D01*
X10838845Y-12756828D01*
X10968170Y-12886154D01*
X11170226Y-12886154D01*
X12171075Y-11885304D01*
X12156933Y-11871162D01*
X12174894Y-11853201D01*
X12189036Y-11867343D01*
X12203178Y-11853201D01*
X12221138Y-11871161D01*
X12206997Y-11885304D01*
X12221139Y-11899446D01*
X12203178Y-11917407D01*
X12189036Y-11903265D01*
X11188186Y-12904114D01*
X11188186Y-13106169D01*
X11188186Y-13106170D01*
X11317512Y-13235495D01*
X11527562Y-13322501D01*
X11584121Y-13322500D01*
X11646286Y-13384665D01*
X11964187Y-13702566D01*
X12127560Y-13770238D01*
X12304393Y-13770238D01*
X12467765Y-13702567D01*
X12592805Y-13577527D01*
X13931900Y-12238432D01*
X13931900Y-12818876D01*
X12617554Y-14133222D01*
X12485727Y-14001395D01*
X12322354Y-13933723D01*
X12145521Y-13933723D01*
X11982149Y-14001394D01*
X11857109Y-14126434D01*
X11539208Y-14444335D01*
X11500605Y-14537527D01*
X11407412Y-14576130D01*
X11282372Y-14701170D01*
X10964471Y-15019071D01*
X10925868Y-15112265D01*
X10832676Y-15150867D01*
X10707636Y-15275907D01*
X10389735Y-15593808D01*
X10351132Y-15687000D01*
X10257939Y-15725603D01*
X10132899Y-15850643D01*
X9814998Y-16168544D01*
X9781655Y-16249038D01*
X9701164Y-16282379D01*
X9576124Y-16407419D01*
X9258223Y-16725320D01*
X9224881Y-16805813D01*
X9144388Y-16839155D01*
X9019348Y-16964195D01*
X8701447Y-17282096D01*
X8662844Y-17375288D01*
X8569651Y-17413891D01*
X8444611Y-17538931D01*
X8126710Y-17856832D01*
X8093368Y-17937325D01*
X8012875Y-17970667D01*
X7887835Y-18095707D01*
X7569934Y-18413608D01*
X7502262Y-18576981D01*
X7502262Y-18753814D01*
X7569933Y-18917186D01*
X7694973Y-19042226D01*
X9108465Y-20455718D01*
X9271838Y-20523390D01*
X9448671Y-20523390D01*
X9612043Y-20455719D01*
X9737083Y-20330679D01*
X10054984Y-20012778D01*
X10088325Y-19932284D01*
X10168819Y-19898943D01*
X10293859Y-19773903D01*
X10611760Y-19456002D01*
X10650362Y-19362809D01*
X10743556Y-19324207D01*
X10868596Y-19199167D01*
X11186497Y-18881266D01*
X11219838Y-18800772D01*
X11300332Y-18767431D01*
X11425372Y-18642391D01*
X11743273Y-18324490D01*
X11776615Y-18243995D01*
X11823672Y-18224504D01*
X14368780Y-18224504D01*
X14368780Y-18254345D01*
X14511655Y-18397220D01*
X15227300Y-18397220D01*
X15227300Y-18377220D01*
X15252700Y-18377220D01*
X15252700Y-18397220D01*
X15631795Y-18397220D01*
X15636875Y-18402300D01*
X16433800Y-18402300D01*
X16433800Y-18382300D01*
X16459200Y-18382300D01*
X16459200Y-18402300D01*
X17256125Y-18402300D01*
X17399000Y-18259425D01*
X17399000Y-18224504D01*
X18161000Y-18224504D01*
X18161000Y-18249416D01*
X18161000Y-18589477D01*
X17894109Y-18478654D01*
X17540443Y-18478346D01*
X17375092Y-18546667D01*
X17256125Y-18427700D01*
X16459200Y-18427700D01*
X16459200Y-18447700D01*
X16433800Y-18447700D01*
X16433800Y-18427700D01*
X15973425Y-18427700D01*
X15968345Y-18422620D01*
X15252700Y-18422620D01*
X15252700Y-18442620D01*
X15227300Y-18442620D01*
X15227300Y-18422620D01*
X14511655Y-18422620D01*
X14368780Y-18565495D01*
X14368780Y-18722988D01*
X14455786Y-18933038D01*
X14509909Y-18987161D01*
X14495780Y-19021273D01*
X14495780Y-19198106D01*
X14495780Y-19596886D01*
X14563451Y-19760259D01*
X14688491Y-19885299D01*
X14851863Y-19952970D01*
X15028696Y-19952970D01*
X15031208Y-19952970D01*
X15031209Y-19952970D01*
X15050555Y-19965897D01*
X15050556Y-19965897D01*
X15298420Y-20015200D01*
X15494000Y-20015200D01*
X15494000Y-20164425D01*
X15636875Y-20307300D01*
X16433800Y-20307300D01*
X16433800Y-20287300D01*
X16459200Y-20287300D01*
X16459200Y-20307300D01*
X17256125Y-20307300D01*
X17375093Y-20188331D01*
X17538891Y-20256346D01*
X17892557Y-20256654D01*
X18161000Y-20145735D01*
X18161000Y-20154416D01*
X18161000Y-20662416D01*
X18228671Y-20825789D01*
X18353711Y-20950829D01*
X18517083Y-21018500D01*
X18693916Y-21018500D01*
X19455916Y-21018500D01*
X19619289Y-20950829D01*
X19744329Y-20825789D01*
X19812000Y-20662417D01*
X19812000Y-20485584D01*
X19812000Y-20410486D01*
X20438587Y-21037073D01*
X20648716Y-21177477D01*
X20896580Y-21226780D01*
X21971000Y-21226780D01*
X21990154Y-21222970D01*
X22359136Y-21222970D01*
X22522509Y-21155299D01*
X22647549Y-21030259D01*
X22715220Y-20866887D01*
X22715220Y-20690054D01*
X22715220Y-20536673D01*
X22951034Y-20889593D01*
X23375412Y-21173154D01*
X23876000Y-21272727D01*
X24376588Y-21173154D01*
X24800966Y-20889593D01*
X25084527Y-20465215D01*
X25146000Y-20156168D01*
X25207473Y-20465215D01*
X25491034Y-20889593D01*
X25915412Y-21173154D01*
X26416000Y-21272727D01*
X26916588Y-21173154D01*
X27340966Y-20889593D01*
X27624527Y-20465215D01*
X27724100Y-19964627D01*
X27724100Y-21476500D01*
X17399000Y-21476500D01*
X17399000Y-20687678D01*
X17399000Y-20475575D01*
X17256125Y-20332700D01*
X16459200Y-20332700D01*
X16459200Y-21002625D01*
X16602075Y-21145500D01*
X16713822Y-21145500D01*
X16941179Y-21145500D01*
X17151229Y-21058494D01*
X17311994Y-20897728D01*
X17399000Y-20687678D01*
X17399000Y-21476500D01*
X16433800Y-21476500D01*
X16433800Y-21002625D01*
X16433800Y-20332700D01*
X15636875Y-20332700D01*
X15494000Y-20475575D01*
X15494000Y-20687678D01*
X15581006Y-20897728D01*
X15741771Y-21058494D01*
X15951821Y-21145500D01*
X16179178Y-21145500D01*
X16290925Y-21145500D01*
X16433800Y-21002625D01*
X16433800Y-21476500D01*
X7297468Y-21476500D01*
X7297468Y-18752018D01*
X7297468Y-18575185D01*
X7229797Y-18411813D01*
X7104757Y-18286773D01*
X6786856Y-17968872D01*
X6700012Y-17932899D01*
X6664041Y-17846057D01*
X6539001Y-17721017D01*
X6292955Y-17474971D01*
X6292956Y-17418411D01*
X6205950Y-17208361D01*
X6076625Y-17079035D01*
X6076624Y-17079035D01*
X5874569Y-17079035D01*
X4873720Y-18079885D01*
X4887861Y-18094027D01*
X4869901Y-18111987D01*
X4855759Y-18097846D01*
X3854909Y-19098695D01*
X3854909Y-19300750D01*
X3854909Y-19300751D01*
X3984235Y-19430076D01*
X4194285Y-19517082D01*
X4250845Y-19517081D01*
X4304029Y-19570265D01*
X4621930Y-19888166D01*
X4708773Y-19924138D01*
X4744745Y-20010981D01*
X4869785Y-20136021D01*
X5187686Y-20453922D01*
X5351059Y-20521594D01*
X5527892Y-20521594D01*
X5691264Y-20453923D01*
X5816304Y-20328883D01*
X7229796Y-18915391D01*
X7297468Y-18752018D01*
X7297468Y-21476500D01*
X2848494Y-21476500D01*
X2848494Y-19007011D01*
X2848494Y-18804955D01*
X2413401Y-18369862D01*
X1907364Y-18875899D01*
X1907364Y-19077955D01*
X2018728Y-19189319D01*
X2228778Y-19276324D01*
X2456135Y-19276325D01*
X2666185Y-19189320D01*
X2826951Y-19028554D01*
X2848494Y-19007011D01*
X2848494Y-21476500D01*
X494500Y-21476500D01*
X494500Y-3796500D01*
X13462000Y-3796500D01*
X27953500Y-3796500D01*
X27953500Y-21476500D01*
X27953500Y-21476500D01*
G37*
X27953500Y-21476500D02*
X27749687Y-21476500D01*
X27749687Y-4993216D01*
X27585689Y-4596311D01*
X27282286Y-4292378D01*
X26885668Y-4127687D01*
X26456216Y-4127313D01*
X26059311Y-4291311D01*
X25755378Y-4594714D01*
X25590687Y-4991332D01*
X25590313Y-5420784D01*
X25754311Y-5817689D01*
X26057714Y-6121622D01*
X26454332Y-6286313D01*
X26883784Y-6286687D01*
X27280689Y-6122689D01*
X27584622Y-5819286D01*
X27749313Y-5422668D01*
X27749687Y-4993216D01*
X27749687Y-21476500D01*
X27724100Y-21476500D01*
X27724100Y-19964627D01*
X27724100Y-19913373D01*
X27624527Y-19412785D01*
X27340966Y-18988407D01*
X26916588Y-18704846D01*
X26736377Y-18669000D01*
X26916588Y-18633154D01*
X27340966Y-18349593D01*
X27624527Y-17925215D01*
X27724100Y-17424627D01*
X27724100Y-17373373D01*
X27624527Y-16872785D01*
X27340966Y-16448407D01*
X26916588Y-16164846D01*
X26736377Y-16129000D01*
X26916588Y-16093154D01*
X27340966Y-15809593D01*
X27624527Y-15385215D01*
X27724100Y-14884627D01*
X27724100Y-14833373D01*
X27624527Y-14332785D01*
X27340966Y-13908407D01*
X26916588Y-13624846D01*
X26736377Y-13589000D01*
X26916588Y-13553154D01*
X27340966Y-13269593D01*
X27624527Y-12845215D01*
X27724100Y-12344627D01*
X27724100Y-12293373D01*
X27624527Y-11792785D01*
X27340966Y-11368407D01*
X26916588Y-11084846D01*
X26416000Y-10985273D01*
X25915412Y-11084846D01*
X25491034Y-11368407D01*
X25207473Y-11792785D01*
X25184100Y-11910289D01*
X25184100Y-11366984D01*
X25116429Y-11203611D01*
X24991389Y-11078571D01*
X24828017Y-11010900D01*
X24651184Y-11010900D01*
X22923984Y-11010900D01*
X22760611Y-11078571D01*
X22635571Y-11203611D01*
X22567900Y-11366983D01*
X22567900Y-11543816D01*
X22567900Y-12056876D01*
X21607276Y-13017500D01*
X21421913Y-13017500D01*
X21554154Y-12819588D01*
X21653727Y-12319000D01*
X21554154Y-11818412D01*
X21270593Y-11394034D01*
X20846215Y-11110473D01*
X20345627Y-11010900D01*
X20294373Y-11010900D01*
X19793785Y-11110473D01*
X19585610Y-11249571D01*
X19577997Y-11211297D01*
X19577997Y-11211296D01*
X19454112Y-11025888D01*
X19454108Y-11025885D01*
X18501612Y-10073388D01*
X18441166Y-10033000D01*
X25336494Y-10033000D01*
X25336500Y-10033001D01*
X25336500Y-10033000D01*
X25518917Y-9996714D01*
X25555203Y-9989497D01*
X25555204Y-9989497D01*
X25740612Y-9865612D01*
X26161171Y-9445052D01*
X26200332Y-9461313D01*
X26629784Y-9461687D01*
X27026689Y-9297689D01*
X27330622Y-8994286D01*
X27495313Y-8597668D01*
X27495687Y-8168216D01*
X27331689Y-7771311D01*
X27028286Y-7467378D01*
X26631668Y-7302687D01*
X26202216Y-7302313D01*
X25805311Y-7466311D01*
X25501378Y-7769714D01*
X25336687Y-8166332D01*
X25336313Y-8595784D01*
X25353177Y-8636598D01*
X25099776Y-8890000D01*
X24833925Y-8890000D01*
X24955313Y-8597668D01*
X24955687Y-8168216D01*
X24791689Y-7771311D01*
X24488286Y-7467378D01*
X24091668Y-7302687D01*
X23662216Y-7302313D01*
X23265311Y-7466311D01*
X22961378Y-7769714D01*
X22944442Y-7810500D01*
X16878136Y-7810500D01*
X16696736Y-7628782D01*
X16370109Y-7493154D01*
X16016443Y-7492846D01*
X15689580Y-7627903D01*
X15439282Y-7877764D01*
X15303654Y-8204391D01*
X15303346Y-8558057D01*
X15313264Y-8582061D01*
X15290609Y-8572654D01*
X14936943Y-8572346D01*
X14610080Y-8707403D01*
X14359782Y-8957264D01*
X14315978Y-9062754D01*
X12913612Y-7660388D01*
X12728204Y-7536503D01*
X12691917Y-7529285D01*
X12509500Y-7492999D01*
X12509494Y-7493000D01*
X11879757Y-7493000D01*
X11937846Y-7353109D01*
X11938154Y-6999443D01*
X11803097Y-6672580D01*
X11772670Y-6642100D01*
X11924816Y-6642100D01*
X13652016Y-6642100D01*
X13815389Y-6574429D01*
X13940429Y-6449389D01*
X14008100Y-6286017D01*
X14008100Y-6109184D01*
X14008100Y-5837961D01*
X14289407Y-6258966D01*
X14713785Y-6542527D01*
X15214373Y-6642100D01*
X15265627Y-6642100D01*
X15571309Y-6581295D01*
X16115507Y-7125493D01*
X16325636Y-7265897D01*
X16573500Y-7315200D01*
X18854000Y-7315200D01*
X19101864Y-7265897D01*
X19311993Y-7125493D01*
X19914766Y-6522720D01*
X20031226Y-6522720D01*
X20192999Y-6455711D01*
X20354773Y-6522720D01*
X20471234Y-6522720D01*
X21010507Y-7061993D01*
X21220636Y-7202397D01*
X21468500Y-7251700D01*
X21551930Y-7251700D01*
X21657264Y-7357218D01*
X21983891Y-7492846D01*
X22337557Y-7493154D01*
X22664420Y-7358097D01*
X22914718Y-7108236D01*
X23050346Y-6781609D01*
X23050654Y-6427943D01*
X22915597Y-6101080D01*
X22665736Y-5850782D01*
X22339109Y-5715154D01*
X21985443Y-5714846D01*
X21658580Y-5849903D01*
X21644472Y-5863986D01*
X21286470Y-5505984D01*
X21286470Y-5390364D01*
X21218799Y-5226991D01*
X21093759Y-5101951D01*
X20930387Y-5034280D01*
X20753554Y-5034280D01*
X20354774Y-5034280D01*
X20193000Y-5101288D01*
X20031227Y-5034280D01*
X19854394Y-5034280D01*
X19455614Y-5034280D01*
X19292241Y-5101951D01*
X19167201Y-5226991D01*
X19105274Y-5376495D01*
X19113727Y-5334000D01*
X19014154Y-4833412D01*
X18730593Y-4409034D01*
X18306215Y-4125473D01*
X17805627Y-4025900D01*
X17754373Y-4025900D01*
X17253785Y-4125473D01*
X16829407Y-4409034D01*
X16545846Y-4833412D01*
X16510000Y-5013622D01*
X16474154Y-4833412D01*
X16190593Y-4409034D01*
X15766215Y-4125473D01*
X15265627Y-4025900D01*
X15214373Y-4025900D01*
X14713785Y-4125473D01*
X14289407Y-4409034D01*
X14008100Y-4830038D01*
X14008100Y-4381984D01*
X13940429Y-4218611D01*
X13815389Y-4093571D01*
X13652017Y-4025900D01*
X13475184Y-4025900D01*
X11747984Y-4025900D01*
X11584611Y-4093571D01*
X11459571Y-4218611D01*
X11391900Y-4381983D01*
X11391900Y-4558816D01*
X11391900Y-4686300D01*
X10541000Y-4686300D01*
X10293136Y-4735603D01*
X10083007Y-4876007D01*
X7137498Y-7821515D01*
X6277110Y-7821515D01*
X5682285Y-7226690D01*
X5518912Y-7159018D01*
X5460205Y-7159018D01*
X5992108Y-6627114D01*
X5992112Y-6627112D01*
X5992112Y-6627111D01*
X6074889Y-6503226D01*
X6115997Y-6441704D01*
X6115998Y-6441703D01*
X6131641Y-6363057D01*
X6139509Y-6359799D01*
X6143808Y-6355500D01*
X6556192Y-6355500D01*
X6560491Y-6359799D01*
X6723863Y-6427470D01*
X6900696Y-6427470D01*
X6971084Y-6427470D01*
X7112000Y-6455500D01*
X7252915Y-6427470D01*
X7500136Y-6427470D01*
X7663509Y-6359799D01*
X7788549Y-6234759D01*
X7856220Y-6071387D01*
X7856220Y-5894554D01*
X7856220Y-5495774D01*
X7829679Y-5431700D01*
X7920892Y-5431700D01*
X8004764Y-5515718D01*
X8331391Y-5651346D01*
X8685057Y-5651654D01*
X9011920Y-5516597D01*
X9262218Y-5266736D01*
X9397846Y-4940109D01*
X9398154Y-4586443D01*
X9263097Y-4259580D01*
X9013236Y-4009282D01*
X8686609Y-3873654D01*
X8332943Y-3873346D01*
X8006080Y-4008403D01*
X7877959Y-4136300D01*
X7112000Y-4136300D01*
X6864136Y-4185603D01*
X6781932Y-4240530D01*
X6723864Y-4240530D01*
X6560491Y-4308201D01*
X6435451Y-4433241D01*
X6418731Y-4473604D01*
X6372214Y-4361302D01*
X6211449Y-4200536D01*
X6001399Y-4113530D01*
X5774042Y-4113530D01*
X5743575Y-4113530D01*
X5600700Y-4256405D01*
X5600700Y-4871720D01*
X5620700Y-4871720D01*
X5620700Y-4897120D01*
X5600700Y-4897120D01*
X5600700Y-4917120D01*
X5575300Y-4917120D01*
X5575300Y-4897120D01*
X5575300Y-4871720D01*
X5575300Y-4256405D01*
X5432425Y-4113530D01*
X5401958Y-4113530D01*
X5174601Y-4113530D01*
X4964551Y-4200536D01*
X4803786Y-4361302D01*
X4716780Y-4571352D01*
X4716780Y-4728845D01*
X4859655Y-4871720D01*
X5575300Y-4871720D01*
X5575300Y-4897120D01*
X4859655Y-4897120D01*
X4716780Y-5039995D01*
X4716780Y-5197488D01*
X4803786Y-5407538D01*
X4857909Y-5461661D01*
X4843780Y-5495773D01*
X4843780Y-5672606D01*
X4843780Y-6071386D01*
X4869440Y-6133336D01*
X4692425Y-6310351D01*
X4535189Y-5929811D01*
X4231786Y-5625878D01*
X3835168Y-5461187D01*
X3405716Y-5460813D01*
X3008811Y-5624811D01*
X2835140Y-5798178D01*
X2977049Y-5481805D01*
X2990940Y-5002031D01*
X2820172Y-4553461D01*
X2780613Y-4494257D01*
X2555738Y-4447222D01*
X2537778Y-4465182D01*
X2537778Y-4429262D01*
X2490743Y-4204387D01*
X2052805Y-4007951D01*
X1573031Y-3994060D01*
X1124461Y-4164828D01*
X1065257Y-4204387D01*
X1018222Y-4429262D01*
X1778000Y-5189039D01*
X2537778Y-4429262D01*
X2537778Y-4465182D01*
X1795961Y-5207000D01*
X1810102Y-5221142D01*
X1792142Y-5239102D01*
X1778000Y-5224961D01*
X1760039Y-5242921D01*
X1760039Y-5207000D01*
X1000262Y-4447222D01*
X775387Y-4494257D01*
X578951Y-4932195D01*
X565060Y-5411969D01*
X735828Y-5860539D01*
X775387Y-5919743D01*
X1000262Y-5966778D01*
X1760039Y-5207000D01*
X1760039Y-5242921D01*
X1018222Y-5984738D01*
X1065257Y-6209613D01*
X1503195Y-6406049D01*
X1982969Y-6419940D01*
X2431539Y-6249172D01*
X2490743Y-6209613D01*
X2537777Y-5984740D01*
X2537778Y-5984741D01*
X2636218Y-6083181D01*
X2643590Y-6075808D01*
X2540187Y-6324832D01*
X2539813Y-6754284D01*
X2703811Y-7151189D01*
X3007214Y-7455122D01*
X3389086Y-7613690D01*
X2727510Y-8275265D01*
X2857313Y-7962668D01*
X2857687Y-7533216D01*
X2693689Y-7136311D01*
X2537778Y-6980127D01*
X2390286Y-6832378D01*
X1993668Y-6667687D01*
X1564216Y-6667313D01*
X1167311Y-6831311D01*
X863378Y-7134714D01*
X698687Y-7531332D01*
X698313Y-7960784D01*
X726234Y-8028359D01*
X726234Y-8028360D01*
X678503Y-8099796D01*
X671285Y-8136082D01*
X634999Y-8318500D01*
X635000Y-8318505D01*
X635000Y-11614412D01*
X634999Y-11614418D01*
X671285Y-11796835D01*
X678503Y-11833122D01*
X709597Y-11879657D01*
X709597Y-11968333D01*
X777268Y-12131705D01*
X902308Y-12256745D01*
X1454294Y-12808731D01*
X1167311Y-12927311D01*
X863378Y-13230714D01*
X698687Y-13627332D01*
X698313Y-14056784D01*
X862311Y-14453689D01*
X1165714Y-14757622D01*
X1206500Y-14774557D01*
X1206500Y-15002120D01*
X1206499Y-15002126D01*
X1226896Y-15104666D01*
X784453Y-15547110D01*
X716781Y-15710483D01*
X716781Y-15887316D01*
X784452Y-16050688D01*
X909492Y-16175728D01*
X1227393Y-16493629D01*
X1314236Y-16529601D01*
X1350208Y-16616444D01*
X1475248Y-16741484D01*
X1679441Y-16945677D01*
X1668486Y-16956633D01*
X1596754Y-16986346D01*
X1555694Y-17027406D01*
X1458727Y-17046694D01*
X1248598Y-17187098D01*
X1108194Y-17397227D01*
X1088906Y-17494193D01*
X1047846Y-17535254D01*
X980175Y-17698626D01*
X980175Y-17875460D01*
X1047846Y-18038832D01*
X1172886Y-18163872D01*
X1454866Y-18445852D01*
X1488977Y-18459981D01*
X1488978Y-18536524D01*
X1575983Y-18746574D01*
X1687347Y-18857938D01*
X1889403Y-18857938D01*
X2395440Y-18351901D01*
X2381298Y-18337759D01*
X2399259Y-18319798D01*
X2413401Y-18333940D01*
X2427543Y-18319798D01*
X2445504Y-18337759D01*
X2431362Y-18351901D01*
X2866455Y-18786994D01*
X3068511Y-18786994D01*
X3090054Y-18765451D01*
X3250820Y-18604685D01*
X3276485Y-18542722D01*
X3418562Y-18684799D01*
X3418562Y-18741359D01*
X3505568Y-18951409D01*
X3634893Y-19080735D01*
X3836949Y-19080735D01*
X4837798Y-18079885D01*
X4823656Y-18065743D01*
X4841617Y-18047782D01*
X4855759Y-18061924D01*
X5856609Y-17061075D01*
X5856609Y-16859019D01*
X5845554Y-16847964D01*
X5932397Y-16717995D01*
X5981700Y-16470131D01*
X5981700Y-16129000D01*
X5937033Y-15904444D01*
X6027420Y-15867097D01*
X6277718Y-15617236D01*
X6413346Y-15290609D01*
X6413654Y-14936943D01*
X6278597Y-14610080D01*
X6028736Y-14359782D01*
X5702109Y-14224154D01*
X5348443Y-14223846D01*
X5021580Y-14358903D01*
X4771282Y-14608764D01*
X4713680Y-14747481D01*
X4572000Y-14719300D01*
X4191000Y-14719300D01*
X4191000Y-14465136D01*
X4372718Y-14283736D01*
X4508346Y-13957109D01*
X4508654Y-13603443D01*
X4476448Y-13525500D01*
X5410363Y-13525500D01*
X5591764Y-13707218D01*
X5918391Y-13842846D01*
X6272057Y-13843154D01*
X6598920Y-13708097D01*
X6849218Y-13458236D01*
X6984846Y-13131609D01*
X6985154Y-12777943D01*
X6850097Y-12451080D01*
X6733445Y-12334224D01*
X6789420Y-12311097D01*
X7039718Y-12061236D01*
X7120784Y-11866007D01*
X8509069Y-13254292D01*
X8508846Y-13511057D01*
X8643903Y-13837920D01*
X8893764Y-14088218D01*
X9220391Y-14223846D01*
X9574057Y-14224154D01*
X9900920Y-14089097D01*
X10151218Y-13839236D01*
X10286846Y-13512609D01*
X10287154Y-13158943D01*
X10152097Y-12832080D01*
X9902236Y-12581782D01*
X9575609Y-12446154D01*
X9317152Y-12445928D01*
X9215642Y-12344418D01*
X9370857Y-12344554D01*
X9697720Y-12209497D01*
X9948018Y-11959636D01*
X10028187Y-11766566D01*
X10257938Y-11996317D01*
X10338431Y-12029658D01*
X10371773Y-12110152D01*
X10496813Y-12235192D01*
X10751839Y-12490218D01*
X10751839Y-12546778D01*
X10838845Y-12756828D01*
X10968170Y-12886154D01*
X11170226Y-12886154D01*
X12171075Y-11885304D01*
X12156933Y-11871162D01*
X12174894Y-11853201D01*
X12189036Y-11867343D01*
X12203178Y-11853201D01*
X12221138Y-11871161D01*
X12206997Y-11885304D01*
X12221139Y-11899446D01*
X12203178Y-11917407D01*
X12189036Y-11903265D01*
X11188186Y-12904114D01*
X11188186Y-13106169D01*
X11188186Y-13106170D01*
X11317512Y-13235495D01*
X11527562Y-13322501D01*
X11584121Y-13322500D01*
X11646286Y-13384665D01*
X11964187Y-13702566D01*
X12127560Y-13770238D01*
X12304393Y-13770238D01*
X12467765Y-13702567D01*
X12592805Y-13577527D01*
X13931900Y-12238432D01*
X13931900Y-12818876D01*
X12617554Y-14133222D01*
X12485727Y-14001395D01*
X12322354Y-13933723D01*
X12145521Y-13933723D01*
X11982149Y-14001394D01*
X11857109Y-14126434D01*
X11539208Y-14444335D01*
X11500605Y-14537527D01*
X11407412Y-14576130D01*
X11282372Y-14701170D01*
X10964471Y-15019071D01*
X10925868Y-15112265D01*
X10832676Y-15150867D01*
X10707636Y-15275907D01*
X10389735Y-15593808D01*
X10351132Y-15687000D01*
X10257939Y-15725603D01*
X10132899Y-15850643D01*
X9814998Y-16168544D01*
X9781655Y-16249038D01*
X9701164Y-16282379D01*
X9576124Y-16407419D01*
X9258223Y-16725320D01*
X9224881Y-16805813D01*
X9144388Y-16839155D01*
X9019348Y-16964195D01*
X8701447Y-17282096D01*
X8662844Y-17375288D01*
X8569651Y-17413891D01*
X8444611Y-17538931D01*
X8126710Y-17856832D01*
X8093368Y-17937325D01*
X8012875Y-17970667D01*
X7887835Y-18095707D01*
X7569934Y-18413608D01*
X7502262Y-18576981D01*
X7502262Y-18753814D01*
X7569933Y-18917186D01*
X7694973Y-19042226D01*
X9108465Y-20455718D01*
X9271838Y-20523390D01*
X9448671Y-20523390D01*
X9612043Y-20455719D01*
X9737083Y-20330679D01*
X10054984Y-20012778D01*
X10088325Y-19932284D01*
X10168819Y-19898943D01*
X10293859Y-19773903D01*
X10611760Y-19456002D01*
X10650362Y-19362809D01*
X10743556Y-19324207D01*
X10868596Y-19199167D01*
X11186497Y-18881266D01*
X11219838Y-18800772D01*
X11300332Y-18767431D01*
X11425372Y-18642391D01*
X11743273Y-18324490D01*
X11776615Y-18243995D01*
X11823672Y-18224504D01*
X14368780Y-18224504D01*
X14368780Y-18254345D01*
X14511655Y-18397220D01*
X15227300Y-18397220D01*
X15227300Y-18377220D01*
X15252700Y-18377220D01*
X15252700Y-18397220D01*
X15631795Y-18397220D01*
X15636875Y-18402300D01*
X16433800Y-18402300D01*
X16433800Y-18382300D01*
X16459200Y-18382300D01*
X16459200Y-18402300D01*
X17256125Y-18402300D01*
X17399000Y-18259425D01*
X17399000Y-18224504D01*
X18161000Y-18224504D01*
X18161000Y-18249416D01*
X18161000Y-18589477D01*
X17894109Y-18478654D01*
X17540443Y-18478346D01*
X17375092Y-18546667D01*
X17256125Y-18427700D01*
X16459200Y-18427700D01*
X16459200Y-18447700D01*
X16433800Y-18447700D01*
X16433800Y-18427700D01*
X15973425Y-18427700D01*
X15968345Y-18422620D01*
X15252700Y-18422620D01*
X15252700Y-18442620D01*
X15227300Y-18442620D01*
X15227300Y-18422620D01*
X14511655Y-18422620D01*
X14368780Y-18565495D01*
X14368780Y-18722988D01*
X14455786Y-18933038D01*
X14509909Y-18987161D01*
X14495780Y-19021273D01*
X14495780Y-19198106D01*
X14495780Y-19596886D01*
X14563451Y-19760259D01*
X14688491Y-19885299D01*
X14851863Y-19952970D01*
X15028696Y-19952970D01*
X15031208Y-19952970D01*
X15031209Y-19952970D01*
X15050555Y-19965897D01*
X15050556Y-19965897D01*
X15298420Y-20015200D01*
X15494000Y-20015200D01*
X15494000Y-20164425D01*
X15636875Y-20307300D01*
X16433800Y-20307300D01*
X16433800Y-20287300D01*
X16459200Y-20287300D01*
X16459200Y-20307300D01*
X17256125Y-20307300D01*
X17375093Y-20188331D01*
X17538891Y-20256346D01*
X17892557Y-20256654D01*
X18161000Y-20145735D01*
X18161000Y-20154416D01*
X18161000Y-20662416D01*
X18228671Y-20825789D01*
X18353711Y-20950829D01*
X18517083Y-21018500D01*
X18693916Y-21018500D01*
X19455916Y-21018500D01*
X19619289Y-20950829D01*
X19744329Y-20825789D01*
X19812000Y-20662417D01*
X19812000Y-20485584D01*
X19812000Y-20410486D01*
X20438587Y-21037073D01*
X20648716Y-21177477D01*
X20896580Y-21226780D01*
X21971000Y-21226780D01*
X21990154Y-21222970D01*
X22359136Y-21222970D01*
X22522509Y-21155299D01*
X22647549Y-21030259D01*
X22715220Y-20866887D01*
X22715220Y-20690054D01*
X22715220Y-20536673D01*
X22951034Y-20889593D01*
X23375412Y-21173154D01*
X23876000Y-21272727D01*
X24376588Y-21173154D01*
X24800966Y-20889593D01*
X25084527Y-20465215D01*
X25146000Y-20156168D01*
X25207473Y-20465215D01*
X25491034Y-20889593D01*
X25915412Y-21173154D01*
X26416000Y-21272727D01*
X26916588Y-21173154D01*
X27340966Y-20889593D01*
X27624527Y-20465215D01*
X27724100Y-19964627D01*
X27724100Y-21476500D01*
X17399000Y-21476500D01*
X17399000Y-20687678D01*
X17399000Y-20475575D01*
X17256125Y-20332700D01*
X16459200Y-20332700D01*
X16459200Y-21002625D01*
X16602075Y-21145500D01*
X16713822Y-21145500D01*
X16941179Y-21145500D01*
X17151229Y-21058494D01*
X17311994Y-20897728D01*
X17399000Y-20687678D01*
X17399000Y-21476500D01*
X16433800Y-21476500D01*
X16433800Y-21002625D01*
X16433800Y-20332700D01*
X15636875Y-20332700D01*
X15494000Y-20475575D01*
X15494000Y-20687678D01*
X15581006Y-20897728D01*
X15741771Y-21058494D01*
X15951821Y-21145500D01*
X16179178Y-21145500D01*
X16290925Y-21145500D01*
X16433800Y-21002625D01*
X16433800Y-21476500D01*
X7297468Y-21476500D01*
X7297468Y-18752018D01*
X7297468Y-18575185D01*
X7229797Y-18411813D01*
X7104757Y-18286773D01*
X6786856Y-17968872D01*
X6700012Y-17932899D01*
X6664041Y-17846057D01*
X6539001Y-17721017D01*
X6292955Y-17474971D01*
X6292956Y-17418411D01*
X6205950Y-17208361D01*
X6076625Y-17079035D01*
X6076624Y-17079035D01*
X5874569Y-17079035D01*
X4873720Y-18079885D01*
X4887861Y-18094027D01*
X4869901Y-18111987D01*
X4855759Y-18097846D01*
X3854909Y-19098695D01*
X3854909Y-19300750D01*
X3854909Y-19300751D01*
X3984235Y-19430076D01*
X4194285Y-19517082D01*
X4250845Y-19517081D01*
X4304029Y-19570265D01*
X4621930Y-19888166D01*
X4708773Y-19924138D01*
X4744745Y-20010981D01*
X4869785Y-20136021D01*
X5187686Y-20453922D01*
X5351059Y-20521594D01*
X5527892Y-20521594D01*
X5691264Y-20453923D01*
X5816304Y-20328883D01*
X7229796Y-18915391D01*
X7297468Y-18752018D01*
X7297468Y-21476500D01*
X2848494Y-21476500D01*
X2848494Y-19007011D01*
X2848494Y-18804955D01*
X2413401Y-18369862D01*
X1907364Y-18875899D01*
X1907364Y-19077955D01*
X2018728Y-19189319D01*
X2228778Y-19276324D01*
X2456135Y-19276325D01*
X2666185Y-19189320D01*
X2826951Y-19028554D01*
X2848494Y-19007011D01*
X2848494Y-21476500D01*
X494500Y-21476500D01*
X494500Y-3796500D01*
X13462000Y-3796500D01*
X27953500Y-3796500D01*
X27953500Y-21476500D01*
M02*
