%FSLAX46Y46*%
G04 Gerber Fmt 4.6, Leading zero omitted, Abs format (unit mm)*
G04 Created by KiCad (PCBNEW (2014-10-27 BZR 5228)-product) date 4/10/2015 6:23:41 PM*
%MOMM*%
G01*
G04 APERTURE LIST*
%ADD10C,0.100000*%
%ADD11R,1.400000X1.100000*%
%ADD12R,0.500000X0.600000*%
%ADD13R,0.600000X0.500000*%
%ADD14R,0.400000X0.600000*%
%ADD15R,0.548640X1.198880*%
G04 APERTURE END LIST*
D10*
D11*
X4488000Y-15583000D03*
X4488000Y-17183000D03*
X6688000Y-17183000D03*
X6688000Y-15583000D03*
D10*
G36*
X6463721Y-14417348D02*
X6145820Y-14099447D01*
X6852927Y-13392340D01*
X7170828Y-13710241D01*
X6463721Y-14417348D01*
X6463721Y-14417348D01*
G37*
G36*
X5897965Y-13851592D02*
X5580064Y-13533691D01*
X6287171Y-12826584D01*
X6605072Y-13144485D01*
X5897965Y-13851592D01*
X5897965Y-13851592D01*
G37*
G36*
X5332209Y-13285835D02*
X5014308Y-12967934D01*
X5721415Y-12260827D01*
X6039316Y-12578728D01*
X5332209Y-13285835D01*
X5332209Y-13285835D01*
G37*
G36*
X4766453Y-12720079D02*
X4448552Y-12402178D01*
X5155659Y-11695071D01*
X5473560Y-12012972D01*
X4766453Y-12720079D01*
X4766453Y-12720079D01*
G37*
G36*
X4200697Y-12154323D02*
X3882796Y-11836422D01*
X4589903Y-11129315D01*
X4907804Y-11447216D01*
X4200697Y-12154323D01*
X4200697Y-12154323D01*
G37*
G36*
X3634941Y-11588567D02*
X3317040Y-11270666D01*
X4024147Y-10563559D01*
X4342048Y-10881460D01*
X3634941Y-11588567D01*
X3634941Y-11588567D01*
G37*
G36*
X3069184Y-11022811D02*
X2751283Y-10704910D01*
X3458390Y-9997803D01*
X3776291Y-10315704D01*
X3069184Y-11022811D01*
X3069184Y-11022811D01*
G37*
G36*
X2503428Y-10457055D02*
X2185527Y-10139154D01*
X2892634Y-9432047D01*
X3210535Y-9749948D01*
X2503428Y-10457055D01*
X2503428Y-10457055D01*
G37*
G36*
X8563843Y-4403825D02*
X8245942Y-4085924D01*
X8953049Y-3378817D01*
X9270950Y-3696718D01*
X8563843Y-4403825D01*
X8563843Y-4403825D01*
G37*
G36*
X12533116Y-8373098D02*
X12215215Y-8055197D01*
X12922322Y-7348090D01*
X13240223Y-7665991D01*
X12533116Y-8373098D01*
X12533116Y-8373098D01*
G37*
G36*
X11958379Y-7798362D02*
X11640478Y-7480461D01*
X12347585Y-6773354D01*
X12665486Y-7091255D01*
X11958379Y-7798362D01*
X11958379Y-7798362D01*
G37*
G36*
X11383643Y-7223625D02*
X11065742Y-6905724D01*
X11772849Y-6198617D01*
X12090750Y-6516518D01*
X11383643Y-7223625D01*
X11383643Y-7223625D01*
G37*
G36*
X10826867Y-6666849D02*
X10508966Y-6348948D01*
X11216073Y-5641841D01*
X11533974Y-5959742D01*
X10826867Y-6666849D01*
X10826867Y-6666849D01*
G37*
G36*
X10252131Y-6092113D02*
X9934230Y-5774212D01*
X10641337Y-5067105D01*
X10959238Y-5385006D01*
X10252131Y-6092113D01*
X10252131Y-6092113D01*
G37*
G36*
X9695355Y-5535337D02*
X9377454Y-5217436D01*
X10084561Y-4510329D01*
X10402462Y-4828230D01*
X9695355Y-5535337D01*
X9695355Y-5535337D01*
G37*
G36*
X9120618Y-4960601D02*
X8802717Y-4642700D01*
X9509824Y-3935593D01*
X9827725Y-4253494D01*
X9120618Y-4960601D01*
X9120618Y-4960601D01*
G37*
G36*
X2885450Y-8340769D02*
X2178343Y-7633662D01*
X2496244Y-7315761D01*
X3203351Y-8022868D01*
X2885450Y-8340769D01*
X2885450Y-8340769D01*
G37*
G36*
X3449410Y-7776809D02*
X2742303Y-7069702D01*
X3060204Y-6751801D01*
X3767311Y-7458908D01*
X3449410Y-7776809D01*
X3449410Y-7776809D01*
G37*
G36*
X4016962Y-7209257D02*
X3309855Y-6502150D01*
X3627756Y-6184249D01*
X4334863Y-6891356D01*
X4016962Y-7209257D01*
X4016962Y-7209257D01*
G37*
G36*
X4580922Y-6645297D02*
X3873815Y-5938190D01*
X4191716Y-5620289D01*
X4898823Y-6327396D01*
X4580922Y-6645297D01*
X4580922Y-6645297D01*
G37*
G36*
X5148475Y-6077744D02*
X4441368Y-5370637D01*
X4759269Y-5052736D01*
X5466376Y-5759843D01*
X5148475Y-6077744D01*
X5148475Y-6077744D01*
G37*
G36*
X5712435Y-5513784D02*
X5005328Y-4806677D01*
X5323229Y-4488776D01*
X6030336Y-5195883D01*
X5712435Y-5513784D01*
X5712435Y-5513784D01*
G37*
G36*
X6279987Y-4946232D02*
X5572880Y-4239125D01*
X5890781Y-3921224D01*
X6597888Y-4628331D01*
X6279987Y-4946232D01*
X6279987Y-4946232D01*
G37*
G36*
X6843947Y-4382272D02*
X6136840Y-3675165D01*
X6454741Y-3357264D01*
X7161848Y-4064371D01*
X6843947Y-4382272D01*
X6843947Y-4382272D01*
G37*
G36*
X8971009Y-14419144D02*
X8263902Y-13712037D01*
X8581803Y-13394136D01*
X9288910Y-14101243D01*
X8971009Y-14419144D01*
X8971009Y-14419144D01*
G37*
G36*
X9527785Y-13862368D02*
X8820678Y-13155261D01*
X9138579Y-12837360D01*
X9845686Y-13544467D01*
X9527785Y-13862368D01*
X9527785Y-13862368D01*
G37*
G36*
X10102521Y-13287631D02*
X9395414Y-12580524D01*
X9713315Y-12262623D01*
X10420422Y-12969730D01*
X10102521Y-13287631D01*
X10102521Y-13287631D01*
G37*
G36*
X10659297Y-12730856D02*
X9952190Y-12023749D01*
X10270091Y-11705848D01*
X10977198Y-12412955D01*
X10659297Y-12730856D01*
X10659297Y-12730856D01*
G37*
G36*
X11216073Y-12174080D02*
X10508966Y-11466973D01*
X10826867Y-11149072D01*
X11533974Y-11856179D01*
X11216073Y-12174080D01*
X11216073Y-12174080D01*
G37*
G36*
X11790809Y-11599343D02*
X11083702Y-10892236D01*
X11401603Y-10574335D01*
X12108710Y-11281442D01*
X11790809Y-11599343D01*
X11790809Y-11599343D01*
G37*
G36*
X12365546Y-11024607D02*
X11658439Y-10317500D01*
X11976340Y-9999599D01*
X12683447Y-10706706D01*
X12365546Y-11024607D01*
X12365546Y-11024607D01*
G37*
G36*
X12940282Y-10449871D02*
X12233175Y-9742764D01*
X12551076Y-9424863D01*
X13258183Y-10131970D01*
X12940282Y-10449871D01*
X12940282Y-10449871D01*
G37*
D12*
X2159000Y-16087000D03*
X2159000Y-17187000D03*
X9525000Y-16679000D03*
X9525000Y-15579000D03*
D10*
G36*
X13192182Y-5925736D02*
X13545736Y-5572182D01*
X13970000Y-5996446D01*
X13616446Y-6350000D01*
X13192182Y-5925736D01*
X13192182Y-5925736D01*
G37*
G36*
X13970000Y-6703554D02*
X14323554Y-6350000D01*
X14747818Y-6774264D01*
X14394264Y-7127818D01*
X13970000Y-6703554D01*
X13970000Y-6703554D01*
G37*
D13*
X13420000Y-14732000D03*
X14520000Y-14732000D03*
D10*
G36*
X2651182Y-12529736D02*
X3004736Y-12176182D01*
X3429000Y-12600446D01*
X3075446Y-12954000D01*
X2651182Y-12529736D01*
X2651182Y-12529736D01*
G37*
G36*
X3429000Y-13307554D02*
X3782554Y-12954000D01*
X4206818Y-13378264D01*
X3853264Y-13731818D01*
X3429000Y-13307554D01*
X3429000Y-13307554D01*
G37*
D12*
X21336000Y-17314000D03*
X21336000Y-16214000D03*
D10*
G36*
X3422487Y-4535249D02*
X3846751Y-4959513D01*
X3563909Y-5242355D01*
X3139645Y-4818091D01*
X3422487Y-4535249D01*
X3422487Y-4535249D01*
G37*
G36*
X2786091Y-5171645D02*
X3210355Y-5595909D01*
X2927513Y-5878751D01*
X2503249Y-5454487D01*
X2786091Y-5171645D01*
X2786091Y-5171645D01*
G37*
D14*
X21775000Y-1270000D03*
X22675000Y-1270000D03*
D15*
X18983960Y-14704060D03*
X18034000Y-14704060D03*
X17084040Y-14704060D03*
X17084040Y-17299940D03*
X18983960Y-17299940D03*
M02*
