%FSLAX46Y46*%
G04 Gerber Fmt 4.6, Leading zero omitted, Abs format (unit mm)*
G04 Created by KiCad (PCBNEW (2014-10-27 BZR 5228)-product) date 4/10/2015 6:23:41 PM*
%MOMM*%
G01*
G04 APERTURE LIST*
%ADD10C,0.100000*%
%ADD11C,1.270000*%
%ADD12R,1.727200X1.727200*%
%ADD13O,1.727200X1.727200*%
%ADD14R,1.400000X1.100000*%
%ADD15R,0.500000X0.600000*%
%ADD16R,0.600000X0.500000*%
%ADD17R,0.400000X0.600000*%
%ADD18R,0.548640X1.198880*%
%ADD19C,0.889000*%
%ADD20C,0.254000*%
%ADD21C,0.406400*%
%ADD22C,0.127000*%
G04 APERTURE END LIST*
D10*
D11*
X1778000Y-1524000D03*
D12*
X12700000Y-2794000D03*
D13*
X15240000Y-2794000D03*
X17780000Y-2794000D03*
D12*
X23876000Y-9017000D03*
D13*
X26416000Y-9017000D03*
X23876000Y-11557000D03*
X26416000Y-11557000D03*
X23876000Y-14097000D03*
X26416000Y-14097000D03*
X23876000Y-16637000D03*
X26416000Y-16637000D03*
D11*
X4318000Y-1524000D03*
X6858000Y-1524000D03*
X9398000Y-1524000D03*
X26670000Y-1524000D03*
X9017000Y-11430000D03*
X7239000Y-11430000D03*
D14*
X4488000Y-15583000D03*
X4488000Y-17183000D03*
X6688000Y-17183000D03*
X6688000Y-15583000D03*
D10*
G36*
X6463721Y-14417348D02*
X6145820Y-14099447D01*
X6852927Y-13392340D01*
X7170828Y-13710241D01*
X6463721Y-14417348D01*
X6463721Y-14417348D01*
G37*
G36*
X5897965Y-13851592D02*
X5580064Y-13533691D01*
X6287171Y-12826584D01*
X6605072Y-13144485D01*
X5897965Y-13851592D01*
X5897965Y-13851592D01*
G37*
G36*
X5332209Y-13285835D02*
X5014308Y-12967934D01*
X5721415Y-12260827D01*
X6039316Y-12578728D01*
X5332209Y-13285835D01*
X5332209Y-13285835D01*
G37*
G36*
X4766453Y-12720079D02*
X4448552Y-12402178D01*
X5155659Y-11695071D01*
X5473560Y-12012972D01*
X4766453Y-12720079D01*
X4766453Y-12720079D01*
G37*
G36*
X4200697Y-12154323D02*
X3882796Y-11836422D01*
X4589903Y-11129315D01*
X4907804Y-11447216D01*
X4200697Y-12154323D01*
X4200697Y-12154323D01*
G37*
G36*
X3634941Y-11588567D02*
X3317040Y-11270666D01*
X4024147Y-10563559D01*
X4342048Y-10881460D01*
X3634941Y-11588567D01*
X3634941Y-11588567D01*
G37*
G36*
X3069184Y-11022811D02*
X2751283Y-10704910D01*
X3458390Y-9997803D01*
X3776291Y-10315704D01*
X3069184Y-11022811D01*
X3069184Y-11022811D01*
G37*
G36*
X2503428Y-10457055D02*
X2185527Y-10139154D01*
X2892634Y-9432047D01*
X3210535Y-9749948D01*
X2503428Y-10457055D01*
X2503428Y-10457055D01*
G37*
G36*
X8563843Y-4403825D02*
X8245942Y-4085924D01*
X8953049Y-3378817D01*
X9270950Y-3696718D01*
X8563843Y-4403825D01*
X8563843Y-4403825D01*
G37*
G36*
X12533116Y-8373098D02*
X12215215Y-8055197D01*
X12922322Y-7348090D01*
X13240223Y-7665991D01*
X12533116Y-8373098D01*
X12533116Y-8373098D01*
G37*
G36*
X11958379Y-7798362D02*
X11640478Y-7480461D01*
X12347585Y-6773354D01*
X12665486Y-7091255D01*
X11958379Y-7798362D01*
X11958379Y-7798362D01*
G37*
G36*
X11383643Y-7223625D02*
X11065742Y-6905724D01*
X11772849Y-6198617D01*
X12090750Y-6516518D01*
X11383643Y-7223625D01*
X11383643Y-7223625D01*
G37*
G36*
X10826867Y-6666849D02*
X10508966Y-6348948D01*
X11216073Y-5641841D01*
X11533974Y-5959742D01*
X10826867Y-6666849D01*
X10826867Y-6666849D01*
G37*
G36*
X10252131Y-6092113D02*
X9934230Y-5774212D01*
X10641337Y-5067105D01*
X10959238Y-5385006D01*
X10252131Y-6092113D01*
X10252131Y-6092113D01*
G37*
G36*
X9695355Y-5535337D02*
X9377454Y-5217436D01*
X10084561Y-4510329D01*
X10402462Y-4828230D01*
X9695355Y-5535337D01*
X9695355Y-5535337D01*
G37*
G36*
X9120618Y-4960601D02*
X8802717Y-4642700D01*
X9509824Y-3935593D01*
X9827725Y-4253494D01*
X9120618Y-4960601D01*
X9120618Y-4960601D01*
G37*
G36*
X2885450Y-8340769D02*
X2178343Y-7633662D01*
X2496244Y-7315761D01*
X3203351Y-8022868D01*
X2885450Y-8340769D01*
X2885450Y-8340769D01*
G37*
G36*
X3449410Y-7776809D02*
X2742303Y-7069702D01*
X3060204Y-6751801D01*
X3767311Y-7458908D01*
X3449410Y-7776809D01*
X3449410Y-7776809D01*
G37*
G36*
X4016962Y-7209257D02*
X3309855Y-6502150D01*
X3627756Y-6184249D01*
X4334863Y-6891356D01*
X4016962Y-7209257D01*
X4016962Y-7209257D01*
G37*
G36*
X4580922Y-6645297D02*
X3873815Y-5938190D01*
X4191716Y-5620289D01*
X4898823Y-6327396D01*
X4580922Y-6645297D01*
X4580922Y-6645297D01*
G37*
G36*
X5148475Y-6077744D02*
X4441368Y-5370637D01*
X4759269Y-5052736D01*
X5466376Y-5759843D01*
X5148475Y-6077744D01*
X5148475Y-6077744D01*
G37*
G36*
X5712435Y-5513784D02*
X5005328Y-4806677D01*
X5323229Y-4488776D01*
X6030336Y-5195883D01*
X5712435Y-5513784D01*
X5712435Y-5513784D01*
G37*
G36*
X6279987Y-4946232D02*
X5572880Y-4239125D01*
X5890781Y-3921224D01*
X6597888Y-4628331D01*
X6279987Y-4946232D01*
X6279987Y-4946232D01*
G37*
G36*
X6843947Y-4382272D02*
X6136840Y-3675165D01*
X6454741Y-3357264D01*
X7161848Y-4064371D01*
X6843947Y-4382272D01*
X6843947Y-4382272D01*
G37*
G36*
X8971009Y-14419144D02*
X8263902Y-13712037D01*
X8581803Y-13394136D01*
X9288910Y-14101243D01*
X8971009Y-14419144D01*
X8971009Y-14419144D01*
G37*
G36*
X9527785Y-13862368D02*
X8820678Y-13155261D01*
X9138579Y-12837360D01*
X9845686Y-13544467D01*
X9527785Y-13862368D01*
X9527785Y-13862368D01*
G37*
G36*
X10102521Y-13287631D02*
X9395414Y-12580524D01*
X9713315Y-12262623D01*
X10420422Y-12969730D01*
X10102521Y-13287631D01*
X10102521Y-13287631D01*
G37*
G36*
X10659297Y-12730856D02*
X9952190Y-12023749D01*
X10270091Y-11705848D01*
X10977198Y-12412955D01*
X10659297Y-12730856D01*
X10659297Y-12730856D01*
G37*
G36*
X11216073Y-12174080D02*
X10508966Y-11466973D01*
X10826867Y-11149072D01*
X11533974Y-11856179D01*
X11216073Y-12174080D01*
X11216073Y-12174080D01*
G37*
G36*
X11790809Y-11599343D02*
X11083702Y-10892236D01*
X11401603Y-10574335D01*
X12108710Y-11281442D01*
X11790809Y-11599343D01*
X11790809Y-11599343D01*
G37*
G36*
X12365546Y-11024607D02*
X11658439Y-10317500D01*
X11976340Y-9999599D01*
X12683447Y-10706706D01*
X12365546Y-11024607D01*
X12365546Y-11024607D01*
G37*
G36*
X12940282Y-10449871D02*
X12233175Y-9742764D01*
X12551076Y-9424863D01*
X13258183Y-10131970D01*
X12940282Y-10449871D01*
X12940282Y-10449871D01*
G37*
D15*
X2159000Y-16087000D03*
X2159000Y-17187000D03*
X9525000Y-16679000D03*
X9525000Y-15579000D03*
D10*
G36*
X13192182Y-5925736D02*
X13545736Y-5572182D01*
X13970000Y-5996446D01*
X13616446Y-6350000D01*
X13192182Y-5925736D01*
X13192182Y-5925736D01*
G37*
G36*
X13970000Y-6703554D02*
X14323554Y-6350000D01*
X14747818Y-6774264D01*
X14394264Y-7127818D01*
X13970000Y-6703554D01*
X13970000Y-6703554D01*
G37*
D16*
X13420000Y-14732000D03*
X14520000Y-14732000D03*
D10*
G36*
X2651182Y-12529736D02*
X3004736Y-12176182D01*
X3429000Y-12600446D01*
X3075446Y-12954000D01*
X2651182Y-12529736D01*
X2651182Y-12529736D01*
G37*
G36*
X3429000Y-13307554D02*
X3782554Y-12954000D01*
X4206818Y-13378264D01*
X3853264Y-13731818D01*
X3429000Y-13307554D01*
X3429000Y-13307554D01*
G37*
D15*
X21336000Y-17314000D03*
X21336000Y-16214000D03*
D10*
G36*
X3422487Y-4535249D02*
X3846751Y-4959513D01*
X3563909Y-5242355D01*
X3139645Y-4818091D01*
X3422487Y-4535249D01*
X3422487Y-4535249D01*
G37*
G36*
X2786091Y-5171645D02*
X3210355Y-5595909D01*
X2927513Y-5878751D01*
X2503249Y-5454487D01*
X2786091Y-5171645D01*
X2786091Y-5171645D01*
G37*
D17*
X21775000Y-1270000D03*
X22675000Y-1270000D03*
D18*
X18983960Y-14704060D03*
X18034000Y-14704060D03*
X17084040Y-14704060D03*
X17084040Y-17299940D03*
X18983960Y-17299940D03*
D19*
X14732000Y-8890000D03*
X19304000Y-7112000D03*
X8128000Y-7747000D03*
X15748000Y-14732000D03*
X5588000Y-10541000D03*
X2286000Y-6096000D03*
X11684000Y-14732000D03*
X21590000Y-9017000D03*
X18034000Y-16129000D03*
X5461000Y-9144000D03*
X2159000Y-14605000D03*
X8509000Y-6350000D03*
X14605000Y-13081000D03*
X16002000Y-9779000D03*
D20*
X4318000Y-1524000D02*
X888998Y-4953002D01*
X888998Y-8135518D02*
X888998Y-5250578D01*
X888998Y-8135518D02*
X2698031Y-9944551D01*
X888998Y-4953002D02*
X888998Y-5250578D01*
X3683000Y-3175000D02*
X4191000Y-2667000D01*
X5715000Y-2667000D02*
X6858000Y-1524000D01*
X4191000Y-2667000D02*
X5715000Y-2667000D01*
X1397000Y-6534418D02*
X1397000Y-5461000D01*
X1397000Y-5461000D02*
X3683000Y-3175000D01*
X3683000Y-3175000D02*
X3556000Y-3302000D01*
X2690847Y-7828265D02*
X1397000Y-6534418D01*
X4386319Y-6132793D02*
X3937000Y-5683474D01*
X3937000Y-5332604D02*
X3493198Y-4888802D01*
X3937000Y-5683474D02*
X3937000Y-5332604D01*
X14732000Y-8890000D02*
X8040848Y-8890000D01*
X8040848Y-8890000D02*
X6262844Y-7111996D01*
X6262844Y-7111996D02*
X5365522Y-7111996D01*
X5365522Y-7111996D02*
X4386319Y-6132793D01*
X12170943Y-10512103D02*
X12834836Y-11175996D01*
X12834836Y-11175996D02*
X23494996Y-11175996D01*
X23494996Y-11175996D02*
X23876000Y-11557000D01*
X12745679Y-9937367D02*
X13476306Y-10667994D01*
X25146000Y-10287000D02*
X26416000Y-9017000D01*
X23241000Y-10287000D02*
X25146000Y-10287000D01*
X22860006Y-10667994D02*
X23241000Y-10287000D01*
X13476306Y-10667994D02*
X22860006Y-10667994D01*
X14618406Y-7860594D02*
X15367000Y-7112000D01*
X15367000Y-7112000D02*
X19304000Y-7112000D01*
X12727719Y-7860594D02*
X14618406Y-7860594D01*
X26543000Y-7112000D02*
X27813000Y-8382000D01*
X27813000Y-8382000D02*
X27813000Y-10160000D01*
X27813000Y-10160000D02*
X26416000Y-11557000D01*
X19304000Y-7112000D02*
X26543000Y-7112000D01*
X11021470Y-11661576D02*
X11551894Y-12192000D01*
X21760576Y-12192000D02*
X23665576Y-14097000D01*
X11551894Y-12192000D02*
X21760576Y-12192000D01*
X23665576Y-14097000D02*
X23876000Y-14097000D01*
D21*
X16764000Y-1270000D02*
X21775000Y-1270000D01*
X15240000Y-2794000D02*
X16764000Y-1270000D01*
X12152982Y-7285858D02*
X11691840Y-7747000D01*
X11691840Y-7747000D02*
X8128000Y-7747000D01*
X15748000Y-14732000D02*
X15847060Y-14831060D01*
X15775940Y-14704060D02*
X15748000Y-14732000D01*
X17084040Y-14704060D02*
X15775940Y-14704060D01*
X17084040Y-13776960D02*
X17272000Y-13589000D01*
X17272000Y-13589000D02*
X18796000Y-13589000D01*
X18796000Y-13589000D02*
X18983960Y-13776960D01*
X18983960Y-13776960D02*
X18983960Y-14704060D01*
X17084040Y-14704060D02*
X17084040Y-13776960D01*
X5496119Y-10541000D02*
X4395300Y-11641819D01*
X5588000Y-10541000D02*
X5496119Y-10541000D01*
X14520000Y-14732000D02*
X15748000Y-14732000D01*
X3845119Y-12192000D02*
X3413182Y-12192000D01*
X3413182Y-12192000D02*
X3040091Y-12565091D01*
X4395300Y-11641819D02*
X3845119Y-12192000D01*
X12938182Y-6604000D02*
X12834840Y-6604000D01*
X12834840Y-6604000D02*
X12152982Y-7285858D01*
X13581091Y-5961091D02*
X12938182Y-6604000D01*
X6096000Y-12204143D02*
X6096000Y-11049000D01*
X6096000Y-11049000D02*
X5588000Y-10541000D01*
X5526812Y-12773331D02*
X6096000Y-12204143D01*
X2856802Y-5525198D02*
X2286000Y-6096000D01*
X11684000Y-14732000D02*
X11684000Y-15621000D01*
X13420000Y-14732000D02*
X11684000Y-14732000D01*
X10626000Y-16679000D02*
X9525000Y-16679000D01*
X11684000Y-15621000D02*
X10626000Y-16679000D01*
X18034000Y-14704060D02*
X18034000Y-16129000D01*
X3825722Y-13342909D02*
X3817909Y-13342909D01*
X4961056Y-12207575D02*
X3825722Y-13342909D01*
X4572000Y-10333607D02*
X4572000Y-10033000D01*
X4572000Y-10033000D02*
X5461000Y-9144000D01*
X3829544Y-11076063D02*
X4572000Y-10333607D01*
X2555818Y-14605000D02*
X2159000Y-14605000D01*
X2159000Y-14605000D02*
X2159000Y-16087000D01*
X3817909Y-13342909D02*
X2555818Y-14605000D01*
X9676343Y-6350000D02*
X8509000Y-6350000D01*
X10446734Y-5579609D02*
X9676343Y-6350000D01*
D20*
X4745604Y-7619998D02*
X6052422Y-7619998D01*
X6052422Y-7619998D02*
X7747002Y-9314578D01*
X7747002Y-9314578D02*
X7747002Y-10160002D01*
X7747002Y-10160002D02*
X9017000Y-11430000D01*
X3822359Y-6696753D02*
X4745604Y-7619998D01*
X4118502Y-8128000D02*
X5842000Y-8128000D01*
X5842000Y-8128000D02*
X7239000Y-9525000D01*
X7239000Y-9525000D02*
X7239000Y-11430000D01*
X3254807Y-7264305D02*
X4118502Y-8128000D01*
D21*
X18983960Y-17299940D02*
X19403060Y-17299940D01*
X20489000Y-16214000D02*
X21336000Y-16214000D01*
X19403060Y-17299940D02*
X20489000Y-16214000D01*
X21336000Y-16214000D02*
X22056000Y-16214000D01*
X22479000Y-16637000D02*
X23876000Y-16637000D01*
X22056000Y-16214000D02*
X22479000Y-16637000D01*
X17780000Y-3175000D02*
X17780000Y-2794000D01*
X9800916Y-3962402D02*
X11201402Y-3962402D01*
X11201402Y-3962402D02*
X11430000Y-4191000D01*
X11430000Y-4191000D02*
X16764000Y-4191000D01*
X16764000Y-4191000D02*
X17780000Y-3175000D01*
X9315221Y-4448097D02*
X9800916Y-3962402D01*
X9347767Y-3302000D02*
X11303000Y-3302000D01*
X11303000Y-3302000D02*
X11811000Y-2794000D01*
X11811000Y-2794000D02*
X12700000Y-2794000D01*
X8758446Y-3891321D02*
X9347767Y-3302000D01*
D20*
X6649344Y-3869768D02*
X7852112Y-2667000D01*
X8255000Y-2667000D02*
X9398000Y-1524000D01*
X7852112Y-2667000D02*
X8255000Y-2667000D01*
X11596206Y-11086839D02*
X12193365Y-11683998D01*
X25146000Y-12827000D02*
X26416000Y-14097000D01*
X23114000Y-12827000D02*
X25146000Y-12827000D01*
X21970998Y-11683998D02*
X23114000Y-12827000D01*
X12193365Y-11683998D02*
X21970998Y-11683998D01*
X5588000Y-13843656D02*
X6092568Y-13339088D01*
X5588000Y-16764000D02*
X5588000Y-13843656D01*
X5169000Y-17183000D02*
X5588000Y-16764000D01*
X4488000Y-17183000D02*
X5169000Y-17183000D01*
X2163000Y-17183000D02*
X2159000Y-17187000D01*
X4488000Y-17183000D02*
X2163000Y-17183000D01*
X6658324Y-15553324D02*
X6658324Y-13904844D01*
X6688000Y-15583000D02*
X6658324Y-15553324D01*
X9521000Y-15583000D02*
X9525000Y-15579000D01*
X6688000Y-15583000D02*
X9521000Y-15583000D01*
X18542000Y-7620002D02*
X17271998Y-7620002D01*
X22479002Y-7620002D02*
X20192998Y-7620002D01*
X20192998Y-7620002D02*
X19812000Y-8001000D01*
X19812000Y-8001000D02*
X18922998Y-8001000D01*
X18922998Y-8001000D02*
X18542000Y-7620002D01*
X23876000Y-9017000D02*
X22479002Y-7620002D01*
X10946344Y-12700002D02*
X10464694Y-12218352D01*
X14224002Y-12700002D02*
X10946344Y-12700002D01*
X14605000Y-13081000D02*
X14224002Y-12700002D01*
X16002000Y-8890000D02*
X16002000Y-9779000D01*
X17271998Y-7620002D02*
X16002000Y-8890000D01*
D22*
G36*
X22791084Y-10108297D02*
X22675887Y-10223494D01*
X16635301Y-10223494D01*
X16647615Y-10211202D01*
X16763867Y-9931236D01*
X16764132Y-9628094D01*
X16648368Y-9347926D01*
X16446500Y-9145704D01*
X16446500Y-9074118D01*
X17456116Y-8064502D01*
X18357882Y-8064502D01*
X18608689Y-8315309D01*
X18752895Y-8411664D01*
X18752896Y-8411665D01*
X18922998Y-8445500D01*
X19812000Y-8445500D01*
X19982102Y-8411664D01*
X19982103Y-8411664D01*
X20126309Y-8315309D01*
X20377116Y-8064502D01*
X22294884Y-8064502D01*
X22694900Y-8464518D01*
X22694900Y-9943755D01*
X22743237Y-10060450D01*
X22791084Y-10108297D01*
X22791084Y-10108297D01*
G37*
X22791084Y-10108297D02*
X22675887Y-10223494D01*
X16635301Y-10223494D01*
X16647615Y-10211202D01*
X16763867Y-9931236D01*
X16764132Y-9628094D01*
X16648368Y-9347926D01*
X16446500Y-9145704D01*
X16446500Y-9074118D01*
X17456116Y-8064502D01*
X18357882Y-8064502D01*
X18608689Y-8315309D01*
X18752895Y-8411664D01*
X18752896Y-8411665D01*
X18922998Y-8445500D01*
X19812000Y-8445500D01*
X19982102Y-8411664D01*
X19982103Y-8411664D01*
X20126309Y-8315309D01*
X20377116Y-8064502D01*
X22294884Y-8064502D01*
X22694900Y-8464518D01*
X22694900Y-9943755D01*
X22743237Y-10060450D01*
X22791084Y-10108297D01*
G36*
X28207500Y-18428500D02*
X27678764Y-18428500D01*
X27678764Y-16978444D01*
X27678764Y-16295556D01*
X27451977Y-15838308D01*
X27067472Y-15502654D01*
X26757442Y-15374248D01*
X26555700Y-15448205D01*
X26555700Y-16497300D01*
X27605506Y-16497300D01*
X27678764Y-16295556D01*
X27678764Y-16978444D01*
X27605506Y-16776700D01*
X26555700Y-16776700D01*
X26555700Y-17825795D01*
X26757442Y-17899752D01*
X27067472Y-17771346D01*
X27451977Y-17435692D01*
X27678764Y-16978444D01*
X27678764Y-18428500D01*
X26276300Y-18428500D01*
X26276300Y-17825795D01*
X26276300Y-16776700D01*
X26276300Y-16497300D01*
X26276300Y-15448205D01*
X26074558Y-15374248D01*
X25764528Y-15502654D01*
X25380023Y-15838308D01*
X25153236Y-16295556D01*
X25226494Y-16497300D01*
X26276300Y-16497300D01*
X26276300Y-16776700D01*
X25226494Y-16776700D01*
X25153236Y-16978444D01*
X25380023Y-17435692D01*
X25764528Y-17771346D01*
X26074558Y-17899752D01*
X26276300Y-17825795D01*
X26276300Y-18428500D01*
X25057100Y-18428500D01*
X25057100Y-16660139D01*
X25057100Y-16613861D01*
X24967194Y-16161874D01*
X24711164Y-15778697D01*
X24327987Y-15522667D01*
X23876000Y-15432761D01*
X23424013Y-15522667D01*
X23040836Y-15778697D01*
X22815257Y-16116300D01*
X22694681Y-16116300D01*
X22424191Y-15845809D01*
X22255263Y-15732936D01*
X22056000Y-15693299D01*
X22055994Y-15693300D01*
X21814313Y-15693300D01*
X21765849Y-15644836D01*
X21649154Y-15596500D01*
X21522845Y-15596500D01*
X21022845Y-15596500D01*
X20906150Y-15644837D01*
X20857687Y-15693300D01*
X20489005Y-15693300D01*
X20489000Y-15693299D01*
X20289737Y-15732936D01*
X20120809Y-15845809D01*
X20120806Y-15845812D01*
X19575780Y-16390837D01*
X19575780Y-15366654D01*
X19575780Y-15240345D01*
X19575780Y-14041465D01*
X19527443Y-13924770D01*
X19504660Y-13901987D01*
X19504660Y-13776965D01*
X19504660Y-13776960D01*
X19504661Y-13776960D01*
X19465024Y-13577697D01*
X19352151Y-13408770D01*
X19352151Y-13408769D01*
X19352147Y-13408766D01*
X19164191Y-13220809D01*
X18995263Y-13107936D01*
X18796000Y-13068299D01*
X18795994Y-13068300D01*
X17272005Y-13068300D01*
X17272000Y-13068299D01*
X17072737Y-13107936D01*
X16903809Y-13220809D01*
X16903806Y-13220812D01*
X16715849Y-13408769D01*
X16602976Y-13577697D01*
X16563339Y-13776960D01*
X16563340Y-13776965D01*
X16563340Y-13901987D01*
X16540556Y-13924771D01*
X16492220Y-14041466D01*
X16492220Y-14167775D01*
X16492220Y-14183360D01*
X16277007Y-14183360D01*
X16180202Y-14086385D01*
X15900236Y-13970133D01*
X15597094Y-13969868D01*
X15316926Y-14085632D01*
X15191037Y-14211300D01*
X14996140Y-14211300D01*
X14883154Y-14164500D01*
X14756845Y-14164500D01*
X14156845Y-14164500D01*
X14067942Y-14201324D01*
X13971789Y-14105171D01*
X13808416Y-14037500D01*
X13670825Y-14037500D01*
X13559700Y-14148625D01*
X13559700Y-14607000D01*
X13579700Y-14607000D01*
X13579700Y-14857000D01*
X13559700Y-14857000D01*
X13559700Y-15315375D01*
X13670825Y-15426500D01*
X13808416Y-15426500D01*
X13971789Y-15358829D01*
X14067942Y-15262675D01*
X14156846Y-15299500D01*
X14283155Y-15299500D01*
X14883155Y-15299500D01*
X14996139Y-15252700D01*
X15191101Y-15252700D01*
X15315798Y-15377615D01*
X15595764Y-15493867D01*
X15898906Y-15494132D01*
X16179074Y-15378368D01*
X16332950Y-15224760D01*
X16492220Y-15224760D01*
X16492220Y-15366655D01*
X16540557Y-15483350D01*
X16629871Y-15572664D01*
X16746566Y-15621000D01*
X16872875Y-15621000D01*
X17421515Y-15621000D01*
X17440640Y-15613078D01*
X17507891Y-15680329D01*
X17671264Y-15748000D01*
X17785715Y-15748000D01*
X17896840Y-15636875D01*
X17896840Y-14843760D01*
X17874300Y-14843760D01*
X17874300Y-14564360D01*
X17896840Y-14564360D01*
X17896840Y-14544360D01*
X18171160Y-14544360D01*
X18171160Y-14564360D01*
X18193700Y-14564360D01*
X18193700Y-14843760D01*
X18171160Y-14843760D01*
X18171160Y-15636875D01*
X18282285Y-15748000D01*
X18396736Y-15748000D01*
X18560109Y-15680329D01*
X18627360Y-15613077D01*
X18646486Y-15621000D01*
X18772795Y-15621000D01*
X19321435Y-15621000D01*
X19438130Y-15572663D01*
X19527444Y-15483349D01*
X19575780Y-15366654D01*
X19575780Y-16390837D01*
X19486705Y-16479912D01*
X19438129Y-16431336D01*
X19321434Y-16383000D01*
X19195125Y-16383000D01*
X18646485Y-16383000D01*
X18529790Y-16431337D01*
X18440476Y-16520651D01*
X18392140Y-16637346D01*
X18392140Y-16763655D01*
X18392140Y-17962535D01*
X18440477Y-18079230D01*
X18529791Y-18168544D01*
X18646486Y-18216880D01*
X18772795Y-18216880D01*
X19321435Y-18216880D01*
X19438130Y-18168543D01*
X19527444Y-18079229D01*
X19575780Y-17962534D01*
X19575780Y-17836225D01*
X19575780Y-17786283D01*
X19602323Y-17781004D01*
X19771251Y-17668131D01*
X20704681Y-16734700D01*
X20736682Y-16734700D01*
X20709171Y-16762211D01*
X20641500Y-16925584D01*
X20641500Y-17063175D01*
X20752625Y-17174300D01*
X21211000Y-17174300D01*
X21211000Y-17154300D01*
X21461000Y-17154300D01*
X21461000Y-17174300D01*
X21919375Y-17174300D01*
X22030500Y-17063175D01*
X22030500Y-16925584D01*
X22030003Y-16924384D01*
X22110806Y-17005187D01*
X22110809Y-17005191D01*
X22212073Y-17072853D01*
X22279736Y-17118064D01*
X22279737Y-17118064D01*
X22479000Y-17157700D01*
X22815257Y-17157700D01*
X23040836Y-17495303D01*
X23424013Y-17751333D01*
X23876000Y-17841239D01*
X24327987Y-17751333D01*
X24711164Y-17495303D01*
X24967194Y-17112126D01*
X25057100Y-16660139D01*
X25057100Y-18428500D01*
X22030500Y-18428500D01*
X22030500Y-17702416D01*
X22030500Y-17564825D01*
X21919375Y-17453700D01*
X21461000Y-17453700D01*
X21461000Y-17947375D01*
X21572125Y-18058500D01*
X21674417Y-18058500D01*
X21837789Y-17990829D01*
X21962829Y-17865789D01*
X22030500Y-17702416D01*
X22030500Y-18428500D01*
X21211000Y-18428500D01*
X21211000Y-17947375D01*
X21211000Y-17453700D01*
X20752625Y-17453700D01*
X20641500Y-17564825D01*
X20641500Y-17702416D01*
X20709171Y-17865789D01*
X20834211Y-17990829D01*
X20997583Y-18058500D01*
X21099875Y-18058500D01*
X21211000Y-17947375D01*
X21211000Y-18428500D01*
X17675860Y-18428500D01*
X17675860Y-17962534D01*
X17675860Y-17836225D01*
X17675860Y-16637345D01*
X17627523Y-16520650D01*
X17538209Y-16431336D01*
X17421514Y-16383000D01*
X17295205Y-16383000D01*
X16746565Y-16383000D01*
X16629870Y-16431337D01*
X16540556Y-16520651D01*
X16492220Y-16637346D01*
X16492220Y-16763655D01*
X16492220Y-17962535D01*
X16540557Y-18079230D01*
X16629871Y-18168544D01*
X16746566Y-18216880D01*
X16872875Y-18216880D01*
X17421515Y-18216880D01*
X17538210Y-18168543D01*
X17627524Y-18079229D01*
X17675860Y-17962534D01*
X17675860Y-18428500D01*
X13280300Y-18428500D01*
X13280300Y-15315375D01*
X13280300Y-14857000D01*
X13280300Y-14607000D01*
X13280300Y-14148625D01*
X13169175Y-14037500D01*
X13031584Y-14037500D01*
X12868211Y-14105171D01*
X12743171Y-14230211D01*
X12675500Y-14393583D01*
X12675500Y-14495875D01*
X12786625Y-14607000D01*
X13280300Y-14607000D01*
X13280300Y-14857000D01*
X12786625Y-14857000D01*
X12675500Y-14968125D01*
X12675500Y-15070417D01*
X12743171Y-15233789D01*
X12868211Y-15358829D01*
X13031584Y-15426500D01*
X13169175Y-15426500D01*
X13280300Y-15315375D01*
X13280300Y-18428500D01*
X10219500Y-18428500D01*
X10219500Y-17067416D01*
X10219500Y-16929825D01*
X10108375Y-16818700D01*
X9650000Y-16818700D01*
X9650000Y-17312375D01*
X9761125Y-17423500D01*
X9863417Y-17423500D01*
X10026789Y-17355829D01*
X10151829Y-17230789D01*
X10219500Y-17067416D01*
X10219500Y-18428500D01*
X9400000Y-18428500D01*
X9400000Y-17312375D01*
X9400000Y-16818700D01*
X8941625Y-16818700D01*
X8830500Y-16929825D01*
X8830500Y-17067416D01*
X8898171Y-17230789D01*
X9023211Y-17355829D01*
X9186583Y-17423500D01*
X9288875Y-17423500D01*
X9400000Y-17312375D01*
X9400000Y-18428500D01*
X240500Y-18428500D01*
X240500Y-240500D01*
X13462000Y-240500D01*
X28207500Y-240500D01*
X28207500Y-8187705D01*
X28127309Y-8067691D01*
X27764194Y-7704576D01*
X27764194Y-1643023D01*
X27726451Y-1215233D01*
X27635356Y-995307D01*
X27461474Y-930092D01*
X27263908Y-1127658D01*
X27263908Y-732526D01*
X27198693Y-558644D01*
X26789023Y-429806D01*
X26361233Y-467549D01*
X26141307Y-558644D01*
X26076092Y-732526D01*
X26670000Y-1326434D01*
X27263908Y-732526D01*
X27263908Y-1127658D01*
X26867566Y-1524000D01*
X27461474Y-2117908D01*
X27635356Y-2052693D01*
X27764194Y-1643023D01*
X27764194Y-7704576D01*
X27263908Y-7204290D01*
X27263908Y-2315474D01*
X26670000Y-1721566D01*
X26472434Y-1919132D01*
X26472434Y-1524000D01*
X25878526Y-930092D01*
X25704644Y-995307D01*
X25575806Y-1404977D01*
X25613549Y-1832767D01*
X25704644Y-2052693D01*
X25878526Y-2117908D01*
X26472434Y-1524000D01*
X26472434Y-1919132D01*
X26076092Y-2315474D01*
X26141307Y-2489356D01*
X26550977Y-2618194D01*
X26978767Y-2580451D01*
X27198693Y-2489356D01*
X27263908Y-2315474D01*
X27263908Y-7204290D01*
X26857309Y-6797691D01*
X26713103Y-6701336D01*
X26543000Y-6667500D01*
X23319500Y-6667500D01*
X23319500Y-1658417D01*
X23319500Y-1520825D01*
X23319500Y-1019175D01*
X23319500Y-881583D01*
X23251829Y-718211D01*
X23126789Y-593171D01*
X22963416Y-525500D01*
X22886125Y-525500D01*
X22775000Y-636625D01*
X22775000Y-1130300D01*
X23208375Y-1130300D01*
X23319500Y-1019175D01*
X23319500Y-1520825D01*
X23208375Y-1409700D01*
X22775000Y-1409700D01*
X22775000Y-1903375D01*
X22886125Y-2014500D01*
X22963416Y-2014500D01*
X23126789Y-1946829D01*
X23251829Y-1821789D01*
X23319500Y-1658417D01*
X23319500Y-6667500D01*
X22575000Y-6667500D01*
X22575000Y-1903375D01*
X22575000Y-1409700D01*
X22515300Y-1409700D01*
X22515300Y-1130300D01*
X22575000Y-1130300D01*
X22575000Y-636625D01*
X22463875Y-525500D01*
X22386584Y-525500D01*
X22223211Y-593171D01*
X22127057Y-689324D01*
X22038154Y-652500D01*
X21911845Y-652500D01*
X21511845Y-652500D01*
X21395150Y-700837D01*
X21346687Y-749300D01*
X16764000Y-749300D01*
X16564736Y-788936D01*
X16497073Y-834146D01*
X16395809Y-901809D01*
X16395806Y-901812D01*
X15614773Y-1682844D01*
X15263139Y-1612900D01*
X15216861Y-1612900D01*
X14764874Y-1702806D01*
X14381697Y-1958836D01*
X14125667Y-2342013D01*
X14035761Y-2794000D01*
X14125667Y-3245987D01*
X14381697Y-3629164D01*
X14443261Y-3670300D01*
X13881100Y-3670300D01*
X13881100Y-3594445D01*
X13881100Y-1867245D01*
X13832763Y-1750550D01*
X13743449Y-1661236D01*
X13626754Y-1612900D01*
X13500445Y-1612900D01*
X11773245Y-1612900D01*
X11656550Y-1661237D01*
X11567236Y-1750551D01*
X11518900Y-1867246D01*
X11518900Y-1993555D01*
X11518900Y-2374967D01*
X11442809Y-2425809D01*
X11442806Y-2425812D01*
X11087318Y-2781300D01*
X9347772Y-2781300D01*
X9347767Y-2781299D01*
X9148504Y-2820936D01*
X8979576Y-2933809D01*
X8979573Y-2933812D01*
X8825321Y-3088063D01*
X8773199Y-3109654D01*
X8683885Y-3198968D01*
X7976778Y-3906075D01*
X7928442Y-4022770D01*
X7928442Y-4149079D01*
X7976779Y-4265774D01*
X8066093Y-4355088D01*
X8383994Y-4672989D01*
X8489747Y-4716793D01*
X8533554Y-4822550D01*
X8622868Y-4911864D01*
X8940769Y-5229765D01*
X9057464Y-5278101D01*
X9059954Y-5278101D01*
X9059954Y-5280591D01*
X9108291Y-5397286D01*
X9197605Y-5486600D01*
X9489730Y-5778725D01*
X9489730Y-5862628D01*
X9557401Y-6026001D01*
X9620819Y-6089419D01*
X9777974Y-6089419D01*
X10268476Y-5598917D01*
X10235026Y-5565467D01*
X10432592Y-5367901D01*
X10466042Y-5401351D01*
X10956544Y-4910849D01*
X10956544Y-4753694D01*
X10893126Y-4690276D01*
X10729753Y-4622605D01*
X10645850Y-4622605D01*
X10582311Y-4559066D01*
X10506347Y-4483102D01*
X10985720Y-4483102D01*
X11061806Y-4559187D01*
X11061809Y-4559191D01*
X11163073Y-4626853D01*
X11230736Y-4672064D01*
X11230737Y-4672064D01*
X11430000Y-4711700D01*
X16763994Y-4711700D01*
X16764000Y-4711701D01*
X16764000Y-4711700D01*
X16963263Y-4672064D01*
X17132191Y-4559191D01*
X17723014Y-3968367D01*
X17756861Y-3975100D01*
X17803139Y-3975100D01*
X18255126Y-3885194D01*
X18638303Y-3629164D01*
X18894333Y-3245987D01*
X18984239Y-2794000D01*
X18894333Y-2342013D01*
X18638303Y-1958836D01*
X18386669Y-1790700D01*
X21346687Y-1790700D01*
X21395151Y-1839164D01*
X21511846Y-1887500D01*
X21638155Y-1887500D01*
X22038155Y-1887500D01*
X22127057Y-1850675D01*
X22223211Y-1946829D01*
X22386584Y-2014500D01*
X22463875Y-2014500D01*
X22575000Y-1903375D01*
X22575000Y-6667500D01*
X19936965Y-6667500D01*
X19736202Y-6466385D01*
X19456236Y-6350133D01*
X19153094Y-6349868D01*
X18872926Y-6465632D01*
X18670704Y-6667500D01*
X15367000Y-6667500D01*
X15196897Y-6701336D01*
X15192318Y-6704395D01*
X15192318Y-6685848D01*
X15124646Y-6522475D01*
X15027355Y-6425183D01*
X14870200Y-6425183D01*
X14546080Y-6749303D01*
X14560222Y-6763445D01*
X14383445Y-6940222D01*
X14369303Y-6926080D01*
X14045183Y-7250200D01*
X14045183Y-7407355D01*
X14053922Y-7416094D01*
X13439339Y-7416094D01*
X13420072Y-7396827D01*
X13113143Y-7089898D01*
X13137445Y-7085064D01*
X13306373Y-6972191D01*
X13525500Y-6753063D01*
X13525500Y-6791970D01*
X13593172Y-6955343D01*
X13690463Y-7052635D01*
X13847618Y-7052635D01*
X14171738Y-6728515D01*
X14157595Y-6714372D01*
X14334372Y-6537595D01*
X14348515Y-6551738D01*
X14672635Y-6227618D01*
X14672635Y-6070463D01*
X14575343Y-5973172D01*
X14411970Y-5905500D01*
X14275988Y-5905500D01*
X14239163Y-5816597D01*
X14149849Y-5727283D01*
X13725585Y-5303019D01*
X13608889Y-5254682D01*
X13482580Y-5254682D01*
X13365886Y-5303019D01*
X13276572Y-5392333D01*
X12923019Y-5745887D01*
X12874682Y-5862582D01*
X12874682Y-5931118D01*
X12694606Y-6111194D01*
X12694605Y-6111194D01*
X12635577Y-6122936D01*
X12466649Y-6235809D01*
X12466646Y-6235812D01*
X12361634Y-6340824D01*
X12359913Y-6336668D01*
X12270599Y-6247354D01*
X11952698Y-5929453D01*
X11846943Y-5885648D01*
X11803137Y-5779892D01*
X11713823Y-5690578D01*
X11403738Y-5380493D01*
X11403738Y-5296590D01*
X11336067Y-5133217D01*
X11272649Y-5069799D01*
X11272648Y-5069799D01*
X11115494Y-5069799D01*
X10624992Y-5560301D01*
X10658442Y-5593751D01*
X10460876Y-5791317D01*
X10427426Y-5757867D01*
X9936924Y-6248369D01*
X9936924Y-6405523D01*
X9936924Y-6405524D01*
X10000342Y-6468942D01*
X10163715Y-6536613D01*
X10247618Y-6536613D01*
X10329117Y-6618112D01*
X10647018Y-6936013D01*
X10752772Y-6979817D01*
X10796579Y-7085574D01*
X10885893Y-7174888D01*
X10937305Y-7226300D01*
X8684898Y-7226300D01*
X8560202Y-7101385D01*
X8280236Y-6985133D01*
X7977094Y-6984868D01*
X7696926Y-7100632D01*
X7482385Y-7314798D01*
X7368508Y-7589042D01*
X6577153Y-6797687D01*
X6432947Y-6701332D01*
X6262844Y-6667496D01*
X5549640Y-6667496D01*
X5258127Y-6375983D01*
X5328325Y-6346907D01*
X5417639Y-6257593D01*
X5735540Y-5939692D01*
X5781448Y-5828857D01*
X5892285Y-5782947D01*
X5981599Y-5693633D01*
X6299500Y-5375732D01*
X6346460Y-5262357D01*
X6459837Y-5215395D01*
X6549151Y-5126081D01*
X6867052Y-4808180D01*
X6912960Y-4697345D01*
X7023797Y-4651435D01*
X7113111Y-4562121D01*
X7431012Y-4244220D01*
X7479348Y-4127525D01*
X7479348Y-4001216D01*
X7431011Y-3884521D01*
X7347110Y-3800620D01*
X8036230Y-3111500D01*
X8255000Y-3111500D01*
X8425102Y-3077664D01*
X8425103Y-3077664D01*
X8569309Y-2981309D01*
X9113429Y-2437188D01*
X9207705Y-2476335D01*
X9586633Y-2476665D01*
X9936843Y-2331961D01*
X10205020Y-2064253D01*
X10350335Y-1714295D01*
X10350665Y-1335367D01*
X10205961Y-985157D01*
X9938253Y-716980D01*
X9588295Y-571665D01*
X9209367Y-571335D01*
X8859157Y-716039D01*
X8590980Y-983747D01*
X8445665Y-1333705D01*
X8445335Y-1712633D01*
X8484927Y-1808454D01*
X8070882Y-2222500D01*
X7852112Y-2222500D01*
X7682009Y-2256336D01*
X7537803Y-2352691D01*
X6718492Y-3172002D01*
X6634590Y-3088100D01*
X6517895Y-3039764D01*
X6391586Y-3039764D01*
X6274891Y-3088101D01*
X6185577Y-3177415D01*
X5867676Y-3495316D01*
X5821767Y-3606150D01*
X5710931Y-3652061D01*
X5621617Y-3741375D01*
X5303716Y-4059276D01*
X5256755Y-4172650D01*
X5143379Y-4219613D01*
X5054065Y-4308927D01*
X4736164Y-4626828D01*
X4690255Y-4737662D01*
X4579419Y-4783573D01*
X4490105Y-4872887D01*
X4288714Y-5074277D01*
X4251309Y-5018295D01*
X4164252Y-4931238D01*
X4164252Y-4896357D01*
X4115914Y-4779663D01*
X4026600Y-4690349D01*
X3602336Y-4266085D01*
X3485641Y-4217748D01*
X3359332Y-4217748D01*
X3242638Y-4266086D01*
X3153324Y-4355400D01*
X2870481Y-4638242D01*
X2822144Y-4754937D01*
X2822144Y-4854144D01*
X2722936Y-4854144D01*
X2606242Y-4902482D01*
X2516928Y-4991796D01*
X2234085Y-5274638D01*
X2209524Y-5333933D01*
X2152734Y-5333883D01*
X3870309Y-3616309D01*
X3997309Y-3489309D01*
X4375118Y-3111500D01*
X5715000Y-3111500D01*
X5885102Y-3077664D01*
X5885103Y-3077664D01*
X6029309Y-2981309D01*
X6573429Y-2437188D01*
X6667705Y-2476335D01*
X7046633Y-2476665D01*
X7396843Y-2331961D01*
X7665020Y-2064253D01*
X7810335Y-1714295D01*
X7810665Y-1335367D01*
X7665961Y-985157D01*
X7398253Y-716980D01*
X7048295Y-571665D01*
X6669367Y-571335D01*
X6319157Y-716039D01*
X6050980Y-983747D01*
X5905665Y-1333705D01*
X5905335Y-1712633D01*
X5944927Y-1808454D01*
X5530882Y-2222500D01*
X4966495Y-2222500D01*
X5125020Y-2064253D01*
X5270335Y-1714295D01*
X5270665Y-1335367D01*
X5125961Y-985157D01*
X4858253Y-716980D01*
X4508295Y-571665D01*
X4129367Y-571335D01*
X3779157Y-716039D01*
X3510980Y-983747D01*
X3365665Y-1333705D01*
X3365335Y-1712633D01*
X3404927Y-1808454D01*
X2730665Y-2482716D01*
X2730665Y-1335367D01*
X2585961Y-985157D01*
X2318253Y-716980D01*
X1968295Y-571665D01*
X1589367Y-571335D01*
X1239157Y-716039D01*
X970980Y-983747D01*
X825665Y-1333705D01*
X825335Y-1712633D01*
X970039Y-2062843D01*
X1237747Y-2331020D01*
X1587705Y-2476335D01*
X1966633Y-2476665D01*
X2316843Y-2331961D01*
X2585020Y-2064253D01*
X2730335Y-1714295D01*
X2730665Y-1335367D01*
X2730665Y-2482716D01*
X574689Y-4638693D01*
X478334Y-4782899D01*
X444498Y-4953002D01*
X444498Y-5250578D01*
X444498Y-8135518D01*
X478334Y-8305621D01*
X574689Y-8449827D01*
X2000265Y-9875403D01*
X1916363Y-9959305D01*
X1868027Y-10076000D01*
X1868027Y-10202309D01*
X1916364Y-10319004D01*
X2005678Y-10408318D01*
X2323579Y-10726219D01*
X2435683Y-10772653D01*
X2482120Y-10884760D01*
X2571434Y-10974074D01*
X2872540Y-11275180D01*
X2872540Y-11359082D01*
X2940211Y-11522455D01*
X3003629Y-11585873D01*
X3160784Y-11585873D01*
X3651286Y-11095371D01*
X3617836Y-11061921D01*
X3815402Y-10864355D01*
X3848852Y-10897805D01*
X4339354Y-10407303D01*
X4339354Y-10250148D01*
X4275936Y-10186730D01*
X4112563Y-10119059D01*
X4028659Y-10119059D01*
X3956140Y-10046540D01*
X3638239Y-9728639D01*
X3526134Y-9682204D01*
X3479698Y-9570098D01*
X3390384Y-9480784D01*
X3072483Y-9162883D01*
X2955788Y-9114547D01*
X2829479Y-9114547D01*
X2712784Y-9162884D01*
X2628883Y-9246785D01*
X1333498Y-7951400D01*
X1333498Y-7099534D01*
X1860843Y-7626879D01*
X1860843Y-7696817D01*
X1909180Y-7813512D01*
X1998494Y-7902826D01*
X2705601Y-8609933D01*
X2822296Y-8658269D01*
X2948605Y-8658269D01*
X3065300Y-8609932D01*
X3154614Y-8520618D01*
X3472515Y-8202717D01*
X3499486Y-8137602D01*
X3804193Y-8442309D01*
X3948399Y-8538664D01*
X3948400Y-8538664D01*
X4118502Y-8572500D01*
X5657882Y-8572500D01*
X6794500Y-9709118D01*
X6794500Y-10583057D01*
X6700157Y-10622039D01*
X6535049Y-10786857D01*
X6464191Y-10680809D01*
X6464187Y-10680806D01*
X6349977Y-10566596D01*
X6350132Y-10390094D01*
X6234368Y-10109926D01*
X6020202Y-9895385D01*
X5740236Y-9779133D01*
X5437094Y-9778868D01*
X5156926Y-9894632D01*
X4942385Y-10108798D01*
X4826133Y-10388764D01*
X4826057Y-10474679D01*
X4694971Y-10605765D01*
X4655459Y-10566253D01*
X4655458Y-10566253D01*
X4498304Y-10566253D01*
X4007802Y-11056755D01*
X4041252Y-11090205D01*
X3843686Y-11287771D01*
X3810236Y-11254321D01*
X3388309Y-11676247D01*
X3213918Y-11710936D01*
X3146255Y-11756146D01*
X3044991Y-11823809D01*
X3044988Y-11823812D01*
X3010118Y-11858682D01*
X2941580Y-11858682D01*
X2824886Y-11907019D01*
X2735572Y-11996333D01*
X2382019Y-12349887D01*
X2333682Y-12466582D01*
X2333682Y-12592891D01*
X2382019Y-12709585D01*
X2471333Y-12798899D01*
X2895597Y-13223163D01*
X2984500Y-13259987D01*
X2984500Y-13395970D01*
X3052172Y-13559343D01*
X3149463Y-13656635D01*
X3306618Y-13656635D01*
X3630738Y-13332515D01*
X3616595Y-13318372D01*
X3793372Y-13141595D01*
X3807515Y-13155738D01*
X4131635Y-12831618D01*
X4131635Y-12713878D01*
X4135141Y-12717385D01*
X4292296Y-12717385D01*
X4782798Y-12226883D01*
X4749348Y-12193432D01*
X4946914Y-11995867D01*
X4980364Y-12029317D01*
X4994506Y-12015175D01*
X5153456Y-12174125D01*
X5139314Y-12188267D01*
X5172764Y-12221717D01*
X4975198Y-12419283D01*
X4941748Y-12385833D01*
X4451246Y-12876335D01*
X4451246Y-13029183D01*
X4446939Y-13029183D01*
X4329200Y-13029183D01*
X4005080Y-13353303D01*
X4354161Y-13702384D01*
X4511316Y-13702384D01*
X4583647Y-13630053D01*
X4651318Y-13466681D01*
X4651318Y-13289848D01*
X4583646Y-13126475D01*
X4581949Y-13124778D01*
X4678037Y-13164579D01*
X4761940Y-13164579D01*
X4834459Y-13237098D01*
X5152360Y-13554999D01*
X5233965Y-13588800D01*
X5177336Y-13673553D01*
X5143500Y-13843656D01*
X5143500Y-14715500D01*
X5124845Y-14715500D01*
X4177384Y-14715500D01*
X4177384Y-14036316D01*
X4177384Y-13879161D01*
X3828303Y-13530080D01*
X3504183Y-13854200D01*
X3504183Y-14011355D01*
X3601475Y-14108646D01*
X3764848Y-14176318D01*
X3941681Y-14176318D01*
X4105053Y-14108647D01*
X4177384Y-14036316D01*
X4177384Y-14715500D01*
X3724845Y-14715500D01*
X3608150Y-14763837D01*
X3518836Y-14853151D01*
X3470500Y-14969846D01*
X3470500Y-15096155D01*
X3470500Y-16196155D01*
X3518837Y-16312850D01*
X3588987Y-16383000D01*
X3518836Y-16453151D01*
X3470500Y-16569846D01*
X3470500Y-16696155D01*
X3470500Y-16738500D01*
X2691148Y-16738500D01*
X2689675Y-16734942D01*
X2785829Y-16638789D01*
X2853500Y-16475416D01*
X2853500Y-16337825D01*
X2853500Y-15836175D01*
X2853500Y-15698584D01*
X2785829Y-15535211D01*
X2660789Y-15410171D01*
X2497417Y-15342500D01*
X2395125Y-15342500D01*
X2284000Y-15453625D01*
X2284000Y-15947300D01*
X2742375Y-15947300D01*
X2853500Y-15836175D01*
X2853500Y-16337825D01*
X2742375Y-16226700D01*
X2284000Y-16226700D01*
X2284000Y-16246700D01*
X2034000Y-16246700D01*
X2034000Y-16226700D01*
X2034000Y-15947300D01*
X2034000Y-15453625D01*
X1922875Y-15342500D01*
X1820583Y-15342500D01*
X1657211Y-15410171D01*
X1532171Y-15535211D01*
X1464500Y-15698584D01*
X1464500Y-15836175D01*
X1575625Y-15947300D01*
X2034000Y-15947300D01*
X2034000Y-16226700D01*
X1575625Y-16226700D01*
X1464500Y-16337825D01*
X1464500Y-16475416D01*
X1532171Y-16638789D01*
X1628324Y-16734942D01*
X1591500Y-16823846D01*
X1591500Y-16950155D01*
X1591500Y-17550155D01*
X1639837Y-17666850D01*
X1729151Y-17756164D01*
X1845846Y-17804500D01*
X1972155Y-17804500D01*
X2472155Y-17804500D01*
X2588850Y-17756163D01*
X2678164Y-17666849D01*
X2694462Y-17627500D01*
X3470500Y-17627500D01*
X3470500Y-17796155D01*
X3518837Y-17912850D01*
X3608151Y-18002164D01*
X3724846Y-18050500D01*
X3851155Y-18050500D01*
X5251155Y-18050500D01*
X5367850Y-18002163D01*
X5457164Y-17912849D01*
X5505500Y-17796154D01*
X5505500Y-17669845D01*
X5505500Y-17475118D01*
X5670500Y-17310118D01*
X5670500Y-17796155D01*
X5718837Y-17912850D01*
X5808151Y-18002164D01*
X5924846Y-18050500D01*
X6051155Y-18050500D01*
X7451155Y-18050500D01*
X7567850Y-18002163D01*
X7657164Y-17912849D01*
X7705500Y-17796154D01*
X7705500Y-17669845D01*
X7705500Y-16569845D01*
X7657163Y-16453150D01*
X7587013Y-16383000D01*
X7657164Y-16312849D01*
X7705500Y-16196154D01*
X7705500Y-16069845D01*
X7705500Y-16027500D01*
X8992851Y-16027500D01*
X8994324Y-16031057D01*
X8898171Y-16127211D01*
X8830500Y-16290584D01*
X8830500Y-16428175D01*
X8941625Y-16539300D01*
X9400000Y-16539300D01*
X9400000Y-16519300D01*
X9650000Y-16519300D01*
X9650000Y-16539300D01*
X10108375Y-16539300D01*
X10219500Y-16428175D01*
X10219500Y-16290584D01*
X10151829Y-16127211D01*
X10055675Y-16031057D01*
X10092500Y-15942154D01*
X10092500Y-15815845D01*
X10092500Y-15215845D01*
X10044163Y-15099150D01*
X9954849Y-15009836D01*
X9838154Y-14961500D01*
X9711845Y-14961500D01*
X9211845Y-14961500D01*
X9095150Y-15009837D01*
X9005836Y-15099151D01*
X8989537Y-15138500D01*
X7705500Y-15138500D01*
X7705500Y-14969845D01*
X7657163Y-14853150D01*
X7567849Y-14763836D01*
X7451154Y-14715500D01*
X7324845Y-14715500D01*
X7102824Y-14715500D01*
X7102824Y-14227258D01*
X7439992Y-13890090D01*
X7488328Y-13773395D01*
X7488328Y-13647086D01*
X7439991Y-13530391D01*
X7350677Y-13441077D01*
X7032776Y-13123176D01*
X6920671Y-13076741D01*
X6874235Y-12964635D01*
X6784921Y-12875321D01*
X6471297Y-12561697D01*
X6531853Y-12471069D01*
X6577064Y-12403407D01*
X6577064Y-12403406D01*
X6616700Y-12204143D01*
X6616700Y-12154829D01*
X6698747Y-12237020D01*
X7048705Y-12382335D01*
X7427633Y-12382665D01*
X7777843Y-12237961D01*
X8046020Y-11970253D01*
X8128022Y-11772768D01*
X8209039Y-11968843D01*
X8476747Y-12237020D01*
X8826705Y-12382335D01*
X9144313Y-12382611D01*
X9126250Y-12400675D01*
X9077914Y-12517370D01*
X9077914Y-12519860D01*
X9075424Y-12519860D01*
X8958729Y-12568197D01*
X8869415Y-12657511D01*
X8551514Y-12975412D01*
X8507709Y-13081166D01*
X8401953Y-13124973D01*
X8312639Y-13214287D01*
X7994738Y-13532188D01*
X7946402Y-13648883D01*
X7946402Y-13775192D01*
X7994739Y-13891887D01*
X8084053Y-13981201D01*
X8791160Y-14688308D01*
X8907855Y-14736644D01*
X9034164Y-14736644D01*
X9150859Y-14688307D01*
X9240173Y-14598993D01*
X9558074Y-14281092D01*
X9601878Y-14175337D01*
X9707635Y-14131531D01*
X9796949Y-14042217D01*
X10114850Y-13724316D01*
X10163186Y-13607621D01*
X10163186Y-13605131D01*
X10165676Y-13605131D01*
X10282371Y-13556794D01*
X10371685Y-13467480D01*
X10689586Y-13149579D01*
X10720994Y-13073751D01*
X10776241Y-13110666D01*
X10776242Y-13110666D01*
X10946344Y-13144502D01*
X13842944Y-13144502D01*
X13842868Y-13231906D01*
X13958632Y-13512074D01*
X14172798Y-13726615D01*
X14452764Y-13842867D01*
X14755906Y-13843132D01*
X15036074Y-13727368D01*
X15250615Y-13513202D01*
X15366867Y-13233236D01*
X15367132Y-12930094D01*
X15251368Y-12649926D01*
X15237965Y-12636500D01*
X21576458Y-12636500D01*
X22747812Y-13807854D01*
X22694900Y-14073861D01*
X22694900Y-14120139D01*
X22784806Y-14572126D01*
X23040836Y-14955303D01*
X23424013Y-15211333D01*
X23876000Y-15301239D01*
X24327987Y-15211333D01*
X24711164Y-14955303D01*
X24967194Y-14572126D01*
X25057100Y-14120139D01*
X25057100Y-14073861D01*
X24967194Y-13621874D01*
X24733082Y-13271500D01*
X24961882Y-13271500D01*
X25322723Y-13632341D01*
X25234900Y-14073861D01*
X25234900Y-14120139D01*
X25324806Y-14572126D01*
X25580836Y-14955303D01*
X25964013Y-15211333D01*
X26416000Y-15301239D01*
X26867987Y-15211333D01*
X27251164Y-14955303D01*
X27507194Y-14572126D01*
X27597100Y-14120139D01*
X27597100Y-14073861D01*
X27507194Y-13621874D01*
X27251164Y-13238697D01*
X26867987Y-12982667D01*
X26416000Y-12892761D01*
X25964013Y-12982667D01*
X25943794Y-12996176D01*
X25460309Y-12512691D01*
X25316103Y-12416336D01*
X25146000Y-12382500D01*
X24733082Y-12382500D01*
X24967194Y-12032126D01*
X25057100Y-11580139D01*
X25057100Y-11533861D01*
X24967194Y-11081874D01*
X24733082Y-10731500D01*
X25146000Y-10731500D01*
X25316102Y-10697664D01*
X25316103Y-10697664D01*
X25460309Y-10601309D01*
X25943794Y-10117823D01*
X25964013Y-10131333D01*
X26416000Y-10221239D01*
X26867987Y-10131333D01*
X27251164Y-9875303D01*
X27368500Y-9699696D01*
X27368500Y-9975882D01*
X26888205Y-10456176D01*
X26867987Y-10442667D01*
X26416000Y-10352761D01*
X25964013Y-10442667D01*
X25580836Y-10698697D01*
X25324806Y-11081874D01*
X25234900Y-11533861D01*
X25234900Y-11580139D01*
X25324806Y-12032126D01*
X25580836Y-12415303D01*
X25964013Y-12671333D01*
X26416000Y-12761239D01*
X26867987Y-12671333D01*
X27251164Y-12415303D01*
X27507194Y-12032126D01*
X27597100Y-11580139D01*
X27597100Y-11533861D01*
X27509276Y-11092341D01*
X28127309Y-10474309D01*
X28207500Y-10354294D01*
X28207500Y-18428500D01*
X28207500Y-18428500D01*
G37*
X28207500Y-18428500D02*
X27678764Y-18428500D01*
X27678764Y-16978444D01*
X27678764Y-16295556D01*
X27451977Y-15838308D01*
X27067472Y-15502654D01*
X26757442Y-15374248D01*
X26555700Y-15448205D01*
X26555700Y-16497300D01*
X27605506Y-16497300D01*
X27678764Y-16295556D01*
X27678764Y-16978444D01*
X27605506Y-16776700D01*
X26555700Y-16776700D01*
X26555700Y-17825795D01*
X26757442Y-17899752D01*
X27067472Y-17771346D01*
X27451977Y-17435692D01*
X27678764Y-16978444D01*
X27678764Y-18428500D01*
X26276300Y-18428500D01*
X26276300Y-17825795D01*
X26276300Y-16776700D01*
X26276300Y-16497300D01*
X26276300Y-15448205D01*
X26074558Y-15374248D01*
X25764528Y-15502654D01*
X25380023Y-15838308D01*
X25153236Y-16295556D01*
X25226494Y-16497300D01*
X26276300Y-16497300D01*
X26276300Y-16776700D01*
X25226494Y-16776700D01*
X25153236Y-16978444D01*
X25380023Y-17435692D01*
X25764528Y-17771346D01*
X26074558Y-17899752D01*
X26276300Y-17825795D01*
X26276300Y-18428500D01*
X25057100Y-18428500D01*
X25057100Y-16660139D01*
X25057100Y-16613861D01*
X24967194Y-16161874D01*
X24711164Y-15778697D01*
X24327987Y-15522667D01*
X23876000Y-15432761D01*
X23424013Y-15522667D01*
X23040836Y-15778697D01*
X22815257Y-16116300D01*
X22694681Y-16116300D01*
X22424191Y-15845809D01*
X22255263Y-15732936D01*
X22056000Y-15693299D01*
X22055994Y-15693300D01*
X21814313Y-15693300D01*
X21765849Y-15644836D01*
X21649154Y-15596500D01*
X21522845Y-15596500D01*
X21022845Y-15596500D01*
X20906150Y-15644837D01*
X20857687Y-15693300D01*
X20489005Y-15693300D01*
X20489000Y-15693299D01*
X20289737Y-15732936D01*
X20120809Y-15845809D01*
X20120806Y-15845812D01*
X19575780Y-16390837D01*
X19575780Y-15366654D01*
X19575780Y-15240345D01*
X19575780Y-14041465D01*
X19527443Y-13924770D01*
X19504660Y-13901987D01*
X19504660Y-13776965D01*
X19504660Y-13776960D01*
X19504661Y-13776960D01*
X19465024Y-13577697D01*
X19352151Y-13408770D01*
X19352151Y-13408769D01*
X19352147Y-13408766D01*
X19164191Y-13220809D01*
X18995263Y-13107936D01*
X18796000Y-13068299D01*
X18795994Y-13068300D01*
X17272005Y-13068300D01*
X17272000Y-13068299D01*
X17072737Y-13107936D01*
X16903809Y-13220809D01*
X16903806Y-13220812D01*
X16715849Y-13408769D01*
X16602976Y-13577697D01*
X16563339Y-13776960D01*
X16563340Y-13776965D01*
X16563340Y-13901987D01*
X16540556Y-13924771D01*
X16492220Y-14041466D01*
X16492220Y-14167775D01*
X16492220Y-14183360D01*
X16277007Y-14183360D01*
X16180202Y-14086385D01*
X15900236Y-13970133D01*
X15597094Y-13969868D01*
X15316926Y-14085632D01*
X15191037Y-14211300D01*
X14996140Y-14211300D01*
X14883154Y-14164500D01*
X14756845Y-14164500D01*
X14156845Y-14164500D01*
X14067942Y-14201324D01*
X13971789Y-14105171D01*
X13808416Y-14037500D01*
X13670825Y-14037500D01*
X13559700Y-14148625D01*
X13559700Y-14607000D01*
X13579700Y-14607000D01*
X13579700Y-14857000D01*
X13559700Y-14857000D01*
X13559700Y-15315375D01*
X13670825Y-15426500D01*
X13808416Y-15426500D01*
X13971789Y-15358829D01*
X14067942Y-15262675D01*
X14156846Y-15299500D01*
X14283155Y-15299500D01*
X14883155Y-15299500D01*
X14996139Y-15252700D01*
X15191101Y-15252700D01*
X15315798Y-15377615D01*
X15595764Y-15493867D01*
X15898906Y-15494132D01*
X16179074Y-15378368D01*
X16332950Y-15224760D01*
X16492220Y-15224760D01*
X16492220Y-15366655D01*
X16540557Y-15483350D01*
X16629871Y-15572664D01*
X16746566Y-15621000D01*
X16872875Y-15621000D01*
X17421515Y-15621000D01*
X17440640Y-15613078D01*
X17507891Y-15680329D01*
X17671264Y-15748000D01*
X17785715Y-15748000D01*
X17896840Y-15636875D01*
X17896840Y-14843760D01*
X17874300Y-14843760D01*
X17874300Y-14564360D01*
X17896840Y-14564360D01*
X17896840Y-14544360D01*
X18171160Y-14544360D01*
X18171160Y-14564360D01*
X18193700Y-14564360D01*
X18193700Y-14843760D01*
X18171160Y-14843760D01*
X18171160Y-15636875D01*
X18282285Y-15748000D01*
X18396736Y-15748000D01*
X18560109Y-15680329D01*
X18627360Y-15613077D01*
X18646486Y-15621000D01*
X18772795Y-15621000D01*
X19321435Y-15621000D01*
X19438130Y-15572663D01*
X19527444Y-15483349D01*
X19575780Y-15366654D01*
X19575780Y-16390837D01*
X19486705Y-16479912D01*
X19438129Y-16431336D01*
X19321434Y-16383000D01*
X19195125Y-16383000D01*
X18646485Y-16383000D01*
X18529790Y-16431337D01*
X18440476Y-16520651D01*
X18392140Y-16637346D01*
X18392140Y-16763655D01*
X18392140Y-17962535D01*
X18440477Y-18079230D01*
X18529791Y-18168544D01*
X18646486Y-18216880D01*
X18772795Y-18216880D01*
X19321435Y-18216880D01*
X19438130Y-18168543D01*
X19527444Y-18079229D01*
X19575780Y-17962534D01*
X19575780Y-17836225D01*
X19575780Y-17786283D01*
X19602323Y-17781004D01*
X19771251Y-17668131D01*
X20704681Y-16734700D01*
X20736682Y-16734700D01*
X20709171Y-16762211D01*
X20641500Y-16925584D01*
X20641500Y-17063175D01*
X20752625Y-17174300D01*
X21211000Y-17174300D01*
X21211000Y-17154300D01*
X21461000Y-17154300D01*
X21461000Y-17174300D01*
X21919375Y-17174300D01*
X22030500Y-17063175D01*
X22030500Y-16925584D01*
X22030003Y-16924384D01*
X22110806Y-17005187D01*
X22110809Y-17005191D01*
X22212073Y-17072853D01*
X22279736Y-17118064D01*
X22279737Y-17118064D01*
X22479000Y-17157700D01*
X22815257Y-17157700D01*
X23040836Y-17495303D01*
X23424013Y-17751333D01*
X23876000Y-17841239D01*
X24327987Y-17751333D01*
X24711164Y-17495303D01*
X24967194Y-17112126D01*
X25057100Y-16660139D01*
X25057100Y-18428500D01*
X22030500Y-18428500D01*
X22030500Y-17702416D01*
X22030500Y-17564825D01*
X21919375Y-17453700D01*
X21461000Y-17453700D01*
X21461000Y-17947375D01*
X21572125Y-18058500D01*
X21674417Y-18058500D01*
X21837789Y-17990829D01*
X21962829Y-17865789D01*
X22030500Y-17702416D01*
X22030500Y-18428500D01*
X21211000Y-18428500D01*
X21211000Y-17947375D01*
X21211000Y-17453700D01*
X20752625Y-17453700D01*
X20641500Y-17564825D01*
X20641500Y-17702416D01*
X20709171Y-17865789D01*
X20834211Y-17990829D01*
X20997583Y-18058500D01*
X21099875Y-18058500D01*
X21211000Y-17947375D01*
X21211000Y-18428500D01*
X17675860Y-18428500D01*
X17675860Y-17962534D01*
X17675860Y-17836225D01*
X17675860Y-16637345D01*
X17627523Y-16520650D01*
X17538209Y-16431336D01*
X17421514Y-16383000D01*
X17295205Y-16383000D01*
X16746565Y-16383000D01*
X16629870Y-16431337D01*
X16540556Y-16520651D01*
X16492220Y-16637346D01*
X16492220Y-16763655D01*
X16492220Y-17962535D01*
X16540557Y-18079230D01*
X16629871Y-18168544D01*
X16746566Y-18216880D01*
X16872875Y-18216880D01*
X17421515Y-18216880D01*
X17538210Y-18168543D01*
X17627524Y-18079229D01*
X17675860Y-17962534D01*
X17675860Y-18428500D01*
X13280300Y-18428500D01*
X13280300Y-15315375D01*
X13280300Y-14857000D01*
X13280300Y-14607000D01*
X13280300Y-14148625D01*
X13169175Y-14037500D01*
X13031584Y-14037500D01*
X12868211Y-14105171D01*
X12743171Y-14230211D01*
X12675500Y-14393583D01*
X12675500Y-14495875D01*
X12786625Y-14607000D01*
X13280300Y-14607000D01*
X13280300Y-14857000D01*
X12786625Y-14857000D01*
X12675500Y-14968125D01*
X12675500Y-15070417D01*
X12743171Y-15233789D01*
X12868211Y-15358829D01*
X13031584Y-15426500D01*
X13169175Y-15426500D01*
X13280300Y-15315375D01*
X13280300Y-18428500D01*
X10219500Y-18428500D01*
X10219500Y-17067416D01*
X10219500Y-16929825D01*
X10108375Y-16818700D01*
X9650000Y-16818700D01*
X9650000Y-17312375D01*
X9761125Y-17423500D01*
X9863417Y-17423500D01*
X10026789Y-17355829D01*
X10151829Y-17230789D01*
X10219500Y-17067416D01*
X10219500Y-18428500D01*
X9400000Y-18428500D01*
X9400000Y-17312375D01*
X9400000Y-16818700D01*
X8941625Y-16818700D01*
X8830500Y-16929825D01*
X8830500Y-17067416D01*
X8898171Y-17230789D01*
X9023211Y-17355829D01*
X9186583Y-17423500D01*
X9288875Y-17423500D01*
X9400000Y-17312375D01*
X9400000Y-18428500D01*
X240500Y-18428500D01*
X240500Y-240500D01*
X13462000Y-240500D01*
X28207500Y-240500D01*
X28207500Y-8187705D01*
X28127309Y-8067691D01*
X27764194Y-7704576D01*
X27764194Y-1643023D01*
X27726451Y-1215233D01*
X27635356Y-995307D01*
X27461474Y-930092D01*
X27263908Y-1127658D01*
X27263908Y-732526D01*
X27198693Y-558644D01*
X26789023Y-429806D01*
X26361233Y-467549D01*
X26141307Y-558644D01*
X26076092Y-732526D01*
X26670000Y-1326434D01*
X27263908Y-732526D01*
X27263908Y-1127658D01*
X26867566Y-1524000D01*
X27461474Y-2117908D01*
X27635356Y-2052693D01*
X27764194Y-1643023D01*
X27764194Y-7704576D01*
X27263908Y-7204290D01*
X27263908Y-2315474D01*
X26670000Y-1721566D01*
X26472434Y-1919132D01*
X26472434Y-1524000D01*
X25878526Y-930092D01*
X25704644Y-995307D01*
X25575806Y-1404977D01*
X25613549Y-1832767D01*
X25704644Y-2052693D01*
X25878526Y-2117908D01*
X26472434Y-1524000D01*
X26472434Y-1919132D01*
X26076092Y-2315474D01*
X26141307Y-2489356D01*
X26550977Y-2618194D01*
X26978767Y-2580451D01*
X27198693Y-2489356D01*
X27263908Y-2315474D01*
X27263908Y-7204290D01*
X26857309Y-6797691D01*
X26713103Y-6701336D01*
X26543000Y-6667500D01*
X23319500Y-6667500D01*
X23319500Y-1658417D01*
X23319500Y-1520825D01*
X23319500Y-1019175D01*
X23319500Y-881583D01*
X23251829Y-718211D01*
X23126789Y-593171D01*
X22963416Y-525500D01*
X22886125Y-525500D01*
X22775000Y-636625D01*
X22775000Y-1130300D01*
X23208375Y-1130300D01*
X23319500Y-1019175D01*
X23319500Y-1520825D01*
X23208375Y-1409700D01*
X22775000Y-1409700D01*
X22775000Y-1903375D01*
X22886125Y-2014500D01*
X22963416Y-2014500D01*
X23126789Y-1946829D01*
X23251829Y-1821789D01*
X23319500Y-1658417D01*
X23319500Y-6667500D01*
X22575000Y-6667500D01*
X22575000Y-1903375D01*
X22575000Y-1409700D01*
X22515300Y-1409700D01*
X22515300Y-1130300D01*
X22575000Y-1130300D01*
X22575000Y-636625D01*
X22463875Y-525500D01*
X22386584Y-525500D01*
X22223211Y-593171D01*
X22127057Y-689324D01*
X22038154Y-652500D01*
X21911845Y-652500D01*
X21511845Y-652500D01*
X21395150Y-700837D01*
X21346687Y-749300D01*
X16764000Y-749300D01*
X16564736Y-788936D01*
X16497073Y-834146D01*
X16395809Y-901809D01*
X16395806Y-901812D01*
X15614773Y-1682844D01*
X15263139Y-1612900D01*
X15216861Y-1612900D01*
X14764874Y-1702806D01*
X14381697Y-1958836D01*
X14125667Y-2342013D01*
X14035761Y-2794000D01*
X14125667Y-3245987D01*
X14381697Y-3629164D01*
X14443261Y-3670300D01*
X13881100Y-3670300D01*
X13881100Y-3594445D01*
X13881100Y-1867245D01*
X13832763Y-1750550D01*
X13743449Y-1661236D01*
X13626754Y-1612900D01*
X13500445Y-1612900D01*
X11773245Y-1612900D01*
X11656550Y-1661237D01*
X11567236Y-1750551D01*
X11518900Y-1867246D01*
X11518900Y-1993555D01*
X11518900Y-2374967D01*
X11442809Y-2425809D01*
X11442806Y-2425812D01*
X11087318Y-2781300D01*
X9347772Y-2781300D01*
X9347767Y-2781299D01*
X9148504Y-2820936D01*
X8979576Y-2933809D01*
X8979573Y-2933812D01*
X8825321Y-3088063D01*
X8773199Y-3109654D01*
X8683885Y-3198968D01*
X7976778Y-3906075D01*
X7928442Y-4022770D01*
X7928442Y-4149079D01*
X7976779Y-4265774D01*
X8066093Y-4355088D01*
X8383994Y-4672989D01*
X8489747Y-4716793D01*
X8533554Y-4822550D01*
X8622868Y-4911864D01*
X8940769Y-5229765D01*
X9057464Y-5278101D01*
X9059954Y-5278101D01*
X9059954Y-5280591D01*
X9108291Y-5397286D01*
X9197605Y-5486600D01*
X9489730Y-5778725D01*
X9489730Y-5862628D01*
X9557401Y-6026001D01*
X9620819Y-6089419D01*
X9777974Y-6089419D01*
X10268476Y-5598917D01*
X10235026Y-5565467D01*
X10432592Y-5367901D01*
X10466042Y-5401351D01*
X10956544Y-4910849D01*
X10956544Y-4753694D01*
X10893126Y-4690276D01*
X10729753Y-4622605D01*
X10645850Y-4622605D01*
X10582311Y-4559066D01*
X10506347Y-4483102D01*
X10985720Y-4483102D01*
X11061806Y-4559187D01*
X11061809Y-4559191D01*
X11163073Y-4626853D01*
X11230736Y-4672064D01*
X11230737Y-4672064D01*
X11430000Y-4711700D01*
X16763994Y-4711700D01*
X16764000Y-4711701D01*
X16764000Y-4711700D01*
X16963263Y-4672064D01*
X17132191Y-4559191D01*
X17723014Y-3968367D01*
X17756861Y-3975100D01*
X17803139Y-3975100D01*
X18255126Y-3885194D01*
X18638303Y-3629164D01*
X18894333Y-3245987D01*
X18984239Y-2794000D01*
X18894333Y-2342013D01*
X18638303Y-1958836D01*
X18386669Y-1790700D01*
X21346687Y-1790700D01*
X21395151Y-1839164D01*
X21511846Y-1887500D01*
X21638155Y-1887500D01*
X22038155Y-1887500D01*
X22127057Y-1850675D01*
X22223211Y-1946829D01*
X22386584Y-2014500D01*
X22463875Y-2014500D01*
X22575000Y-1903375D01*
X22575000Y-6667500D01*
X19936965Y-6667500D01*
X19736202Y-6466385D01*
X19456236Y-6350133D01*
X19153094Y-6349868D01*
X18872926Y-6465632D01*
X18670704Y-6667500D01*
X15367000Y-6667500D01*
X15196897Y-6701336D01*
X15192318Y-6704395D01*
X15192318Y-6685848D01*
X15124646Y-6522475D01*
X15027355Y-6425183D01*
X14870200Y-6425183D01*
X14546080Y-6749303D01*
X14560222Y-6763445D01*
X14383445Y-6940222D01*
X14369303Y-6926080D01*
X14045183Y-7250200D01*
X14045183Y-7407355D01*
X14053922Y-7416094D01*
X13439339Y-7416094D01*
X13420072Y-7396827D01*
X13113143Y-7089898D01*
X13137445Y-7085064D01*
X13306373Y-6972191D01*
X13525500Y-6753063D01*
X13525500Y-6791970D01*
X13593172Y-6955343D01*
X13690463Y-7052635D01*
X13847618Y-7052635D01*
X14171738Y-6728515D01*
X14157595Y-6714372D01*
X14334372Y-6537595D01*
X14348515Y-6551738D01*
X14672635Y-6227618D01*
X14672635Y-6070463D01*
X14575343Y-5973172D01*
X14411970Y-5905500D01*
X14275988Y-5905500D01*
X14239163Y-5816597D01*
X14149849Y-5727283D01*
X13725585Y-5303019D01*
X13608889Y-5254682D01*
X13482580Y-5254682D01*
X13365886Y-5303019D01*
X13276572Y-5392333D01*
X12923019Y-5745887D01*
X12874682Y-5862582D01*
X12874682Y-5931118D01*
X12694606Y-6111194D01*
X12694605Y-6111194D01*
X12635577Y-6122936D01*
X12466649Y-6235809D01*
X12466646Y-6235812D01*
X12361634Y-6340824D01*
X12359913Y-6336668D01*
X12270599Y-6247354D01*
X11952698Y-5929453D01*
X11846943Y-5885648D01*
X11803137Y-5779892D01*
X11713823Y-5690578D01*
X11403738Y-5380493D01*
X11403738Y-5296590D01*
X11336067Y-5133217D01*
X11272649Y-5069799D01*
X11272648Y-5069799D01*
X11115494Y-5069799D01*
X10624992Y-5560301D01*
X10658442Y-5593751D01*
X10460876Y-5791317D01*
X10427426Y-5757867D01*
X9936924Y-6248369D01*
X9936924Y-6405523D01*
X9936924Y-6405524D01*
X10000342Y-6468942D01*
X10163715Y-6536613D01*
X10247618Y-6536613D01*
X10329117Y-6618112D01*
X10647018Y-6936013D01*
X10752772Y-6979817D01*
X10796579Y-7085574D01*
X10885893Y-7174888D01*
X10937305Y-7226300D01*
X8684898Y-7226300D01*
X8560202Y-7101385D01*
X8280236Y-6985133D01*
X7977094Y-6984868D01*
X7696926Y-7100632D01*
X7482385Y-7314798D01*
X7368508Y-7589042D01*
X6577153Y-6797687D01*
X6432947Y-6701332D01*
X6262844Y-6667496D01*
X5549640Y-6667496D01*
X5258127Y-6375983D01*
X5328325Y-6346907D01*
X5417639Y-6257593D01*
X5735540Y-5939692D01*
X5781448Y-5828857D01*
X5892285Y-5782947D01*
X5981599Y-5693633D01*
X6299500Y-5375732D01*
X6346460Y-5262357D01*
X6459837Y-5215395D01*
X6549151Y-5126081D01*
X6867052Y-4808180D01*
X6912960Y-4697345D01*
X7023797Y-4651435D01*
X7113111Y-4562121D01*
X7431012Y-4244220D01*
X7479348Y-4127525D01*
X7479348Y-4001216D01*
X7431011Y-3884521D01*
X7347110Y-3800620D01*
X8036230Y-3111500D01*
X8255000Y-3111500D01*
X8425102Y-3077664D01*
X8425103Y-3077664D01*
X8569309Y-2981309D01*
X9113429Y-2437188D01*
X9207705Y-2476335D01*
X9586633Y-2476665D01*
X9936843Y-2331961D01*
X10205020Y-2064253D01*
X10350335Y-1714295D01*
X10350665Y-1335367D01*
X10205961Y-985157D01*
X9938253Y-716980D01*
X9588295Y-571665D01*
X9209367Y-571335D01*
X8859157Y-716039D01*
X8590980Y-983747D01*
X8445665Y-1333705D01*
X8445335Y-1712633D01*
X8484927Y-1808454D01*
X8070882Y-2222500D01*
X7852112Y-2222500D01*
X7682009Y-2256336D01*
X7537803Y-2352691D01*
X6718492Y-3172002D01*
X6634590Y-3088100D01*
X6517895Y-3039764D01*
X6391586Y-3039764D01*
X6274891Y-3088101D01*
X6185577Y-3177415D01*
X5867676Y-3495316D01*
X5821767Y-3606150D01*
X5710931Y-3652061D01*
X5621617Y-3741375D01*
X5303716Y-4059276D01*
X5256755Y-4172650D01*
X5143379Y-4219613D01*
X5054065Y-4308927D01*
X4736164Y-4626828D01*
X4690255Y-4737662D01*
X4579419Y-4783573D01*
X4490105Y-4872887D01*
X4288714Y-5074277D01*
X4251309Y-5018295D01*
X4164252Y-4931238D01*
X4164252Y-4896357D01*
X4115914Y-4779663D01*
X4026600Y-4690349D01*
X3602336Y-4266085D01*
X3485641Y-4217748D01*
X3359332Y-4217748D01*
X3242638Y-4266086D01*
X3153324Y-4355400D01*
X2870481Y-4638242D01*
X2822144Y-4754937D01*
X2822144Y-4854144D01*
X2722936Y-4854144D01*
X2606242Y-4902482D01*
X2516928Y-4991796D01*
X2234085Y-5274638D01*
X2209524Y-5333933D01*
X2152734Y-5333883D01*
X3870309Y-3616309D01*
X3997309Y-3489309D01*
X4375118Y-3111500D01*
X5715000Y-3111500D01*
X5885102Y-3077664D01*
X5885103Y-3077664D01*
X6029309Y-2981309D01*
X6573429Y-2437188D01*
X6667705Y-2476335D01*
X7046633Y-2476665D01*
X7396843Y-2331961D01*
X7665020Y-2064253D01*
X7810335Y-1714295D01*
X7810665Y-1335367D01*
X7665961Y-985157D01*
X7398253Y-716980D01*
X7048295Y-571665D01*
X6669367Y-571335D01*
X6319157Y-716039D01*
X6050980Y-983747D01*
X5905665Y-1333705D01*
X5905335Y-1712633D01*
X5944927Y-1808454D01*
X5530882Y-2222500D01*
X4966495Y-2222500D01*
X5125020Y-2064253D01*
X5270335Y-1714295D01*
X5270665Y-1335367D01*
X5125961Y-985157D01*
X4858253Y-716980D01*
X4508295Y-571665D01*
X4129367Y-571335D01*
X3779157Y-716039D01*
X3510980Y-983747D01*
X3365665Y-1333705D01*
X3365335Y-1712633D01*
X3404927Y-1808454D01*
X2730665Y-2482716D01*
X2730665Y-1335367D01*
X2585961Y-985157D01*
X2318253Y-716980D01*
X1968295Y-571665D01*
X1589367Y-571335D01*
X1239157Y-716039D01*
X970980Y-983747D01*
X825665Y-1333705D01*
X825335Y-1712633D01*
X970039Y-2062843D01*
X1237747Y-2331020D01*
X1587705Y-2476335D01*
X1966633Y-2476665D01*
X2316843Y-2331961D01*
X2585020Y-2064253D01*
X2730335Y-1714295D01*
X2730665Y-1335367D01*
X2730665Y-2482716D01*
X574689Y-4638693D01*
X478334Y-4782899D01*
X444498Y-4953002D01*
X444498Y-5250578D01*
X444498Y-8135518D01*
X478334Y-8305621D01*
X574689Y-8449827D01*
X2000265Y-9875403D01*
X1916363Y-9959305D01*
X1868027Y-10076000D01*
X1868027Y-10202309D01*
X1916364Y-10319004D01*
X2005678Y-10408318D01*
X2323579Y-10726219D01*
X2435683Y-10772653D01*
X2482120Y-10884760D01*
X2571434Y-10974074D01*
X2872540Y-11275180D01*
X2872540Y-11359082D01*
X2940211Y-11522455D01*
X3003629Y-11585873D01*
X3160784Y-11585873D01*
X3651286Y-11095371D01*
X3617836Y-11061921D01*
X3815402Y-10864355D01*
X3848852Y-10897805D01*
X4339354Y-10407303D01*
X4339354Y-10250148D01*
X4275936Y-10186730D01*
X4112563Y-10119059D01*
X4028659Y-10119059D01*
X3956140Y-10046540D01*
X3638239Y-9728639D01*
X3526134Y-9682204D01*
X3479698Y-9570098D01*
X3390384Y-9480784D01*
X3072483Y-9162883D01*
X2955788Y-9114547D01*
X2829479Y-9114547D01*
X2712784Y-9162884D01*
X2628883Y-9246785D01*
X1333498Y-7951400D01*
X1333498Y-7099534D01*
X1860843Y-7626879D01*
X1860843Y-7696817D01*
X1909180Y-7813512D01*
X1998494Y-7902826D01*
X2705601Y-8609933D01*
X2822296Y-8658269D01*
X2948605Y-8658269D01*
X3065300Y-8609932D01*
X3154614Y-8520618D01*
X3472515Y-8202717D01*
X3499486Y-8137602D01*
X3804193Y-8442309D01*
X3948399Y-8538664D01*
X3948400Y-8538664D01*
X4118502Y-8572500D01*
X5657882Y-8572500D01*
X6794500Y-9709118D01*
X6794500Y-10583057D01*
X6700157Y-10622039D01*
X6535049Y-10786857D01*
X6464191Y-10680809D01*
X6464187Y-10680806D01*
X6349977Y-10566596D01*
X6350132Y-10390094D01*
X6234368Y-10109926D01*
X6020202Y-9895385D01*
X5740236Y-9779133D01*
X5437094Y-9778868D01*
X5156926Y-9894632D01*
X4942385Y-10108798D01*
X4826133Y-10388764D01*
X4826057Y-10474679D01*
X4694971Y-10605765D01*
X4655459Y-10566253D01*
X4655458Y-10566253D01*
X4498304Y-10566253D01*
X4007802Y-11056755D01*
X4041252Y-11090205D01*
X3843686Y-11287771D01*
X3810236Y-11254321D01*
X3388309Y-11676247D01*
X3213918Y-11710936D01*
X3146255Y-11756146D01*
X3044991Y-11823809D01*
X3044988Y-11823812D01*
X3010118Y-11858682D01*
X2941580Y-11858682D01*
X2824886Y-11907019D01*
X2735572Y-11996333D01*
X2382019Y-12349887D01*
X2333682Y-12466582D01*
X2333682Y-12592891D01*
X2382019Y-12709585D01*
X2471333Y-12798899D01*
X2895597Y-13223163D01*
X2984500Y-13259987D01*
X2984500Y-13395970D01*
X3052172Y-13559343D01*
X3149463Y-13656635D01*
X3306618Y-13656635D01*
X3630738Y-13332515D01*
X3616595Y-13318372D01*
X3793372Y-13141595D01*
X3807515Y-13155738D01*
X4131635Y-12831618D01*
X4131635Y-12713878D01*
X4135141Y-12717385D01*
X4292296Y-12717385D01*
X4782798Y-12226883D01*
X4749348Y-12193432D01*
X4946914Y-11995867D01*
X4980364Y-12029317D01*
X4994506Y-12015175D01*
X5153456Y-12174125D01*
X5139314Y-12188267D01*
X5172764Y-12221717D01*
X4975198Y-12419283D01*
X4941748Y-12385833D01*
X4451246Y-12876335D01*
X4451246Y-13029183D01*
X4446939Y-13029183D01*
X4329200Y-13029183D01*
X4005080Y-13353303D01*
X4354161Y-13702384D01*
X4511316Y-13702384D01*
X4583647Y-13630053D01*
X4651318Y-13466681D01*
X4651318Y-13289848D01*
X4583646Y-13126475D01*
X4581949Y-13124778D01*
X4678037Y-13164579D01*
X4761940Y-13164579D01*
X4834459Y-13237098D01*
X5152360Y-13554999D01*
X5233965Y-13588800D01*
X5177336Y-13673553D01*
X5143500Y-13843656D01*
X5143500Y-14715500D01*
X5124845Y-14715500D01*
X4177384Y-14715500D01*
X4177384Y-14036316D01*
X4177384Y-13879161D01*
X3828303Y-13530080D01*
X3504183Y-13854200D01*
X3504183Y-14011355D01*
X3601475Y-14108646D01*
X3764848Y-14176318D01*
X3941681Y-14176318D01*
X4105053Y-14108647D01*
X4177384Y-14036316D01*
X4177384Y-14715500D01*
X3724845Y-14715500D01*
X3608150Y-14763837D01*
X3518836Y-14853151D01*
X3470500Y-14969846D01*
X3470500Y-15096155D01*
X3470500Y-16196155D01*
X3518837Y-16312850D01*
X3588987Y-16383000D01*
X3518836Y-16453151D01*
X3470500Y-16569846D01*
X3470500Y-16696155D01*
X3470500Y-16738500D01*
X2691148Y-16738500D01*
X2689675Y-16734942D01*
X2785829Y-16638789D01*
X2853500Y-16475416D01*
X2853500Y-16337825D01*
X2853500Y-15836175D01*
X2853500Y-15698584D01*
X2785829Y-15535211D01*
X2660789Y-15410171D01*
X2497417Y-15342500D01*
X2395125Y-15342500D01*
X2284000Y-15453625D01*
X2284000Y-15947300D01*
X2742375Y-15947300D01*
X2853500Y-15836175D01*
X2853500Y-16337825D01*
X2742375Y-16226700D01*
X2284000Y-16226700D01*
X2284000Y-16246700D01*
X2034000Y-16246700D01*
X2034000Y-16226700D01*
X2034000Y-15947300D01*
X2034000Y-15453625D01*
X1922875Y-15342500D01*
X1820583Y-15342500D01*
X1657211Y-15410171D01*
X1532171Y-15535211D01*
X1464500Y-15698584D01*
X1464500Y-15836175D01*
X1575625Y-15947300D01*
X2034000Y-15947300D01*
X2034000Y-16226700D01*
X1575625Y-16226700D01*
X1464500Y-16337825D01*
X1464500Y-16475416D01*
X1532171Y-16638789D01*
X1628324Y-16734942D01*
X1591500Y-16823846D01*
X1591500Y-16950155D01*
X1591500Y-17550155D01*
X1639837Y-17666850D01*
X1729151Y-17756164D01*
X1845846Y-17804500D01*
X1972155Y-17804500D01*
X2472155Y-17804500D01*
X2588850Y-17756163D01*
X2678164Y-17666849D01*
X2694462Y-17627500D01*
X3470500Y-17627500D01*
X3470500Y-17796155D01*
X3518837Y-17912850D01*
X3608151Y-18002164D01*
X3724846Y-18050500D01*
X3851155Y-18050500D01*
X5251155Y-18050500D01*
X5367850Y-18002163D01*
X5457164Y-17912849D01*
X5505500Y-17796154D01*
X5505500Y-17669845D01*
X5505500Y-17475118D01*
X5670500Y-17310118D01*
X5670500Y-17796155D01*
X5718837Y-17912850D01*
X5808151Y-18002164D01*
X5924846Y-18050500D01*
X6051155Y-18050500D01*
X7451155Y-18050500D01*
X7567850Y-18002163D01*
X7657164Y-17912849D01*
X7705500Y-17796154D01*
X7705500Y-17669845D01*
X7705500Y-16569845D01*
X7657163Y-16453150D01*
X7587013Y-16383000D01*
X7657164Y-16312849D01*
X7705500Y-16196154D01*
X7705500Y-16069845D01*
X7705500Y-16027500D01*
X8992851Y-16027500D01*
X8994324Y-16031057D01*
X8898171Y-16127211D01*
X8830500Y-16290584D01*
X8830500Y-16428175D01*
X8941625Y-16539300D01*
X9400000Y-16539300D01*
X9400000Y-16519300D01*
X9650000Y-16519300D01*
X9650000Y-16539300D01*
X10108375Y-16539300D01*
X10219500Y-16428175D01*
X10219500Y-16290584D01*
X10151829Y-16127211D01*
X10055675Y-16031057D01*
X10092500Y-15942154D01*
X10092500Y-15815845D01*
X10092500Y-15215845D01*
X10044163Y-15099150D01*
X9954849Y-15009836D01*
X9838154Y-14961500D01*
X9711845Y-14961500D01*
X9211845Y-14961500D01*
X9095150Y-15009837D01*
X9005836Y-15099151D01*
X8989537Y-15138500D01*
X7705500Y-15138500D01*
X7705500Y-14969845D01*
X7657163Y-14853150D01*
X7567849Y-14763836D01*
X7451154Y-14715500D01*
X7324845Y-14715500D01*
X7102824Y-14715500D01*
X7102824Y-14227258D01*
X7439992Y-13890090D01*
X7488328Y-13773395D01*
X7488328Y-13647086D01*
X7439991Y-13530391D01*
X7350677Y-13441077D01*
X7032776Y-13123176D01*
X6920671Y-13076741D01*
X6874235Y-12964635D01*
X6784921Y-12875321D01*
X6471297Y-12561697D01*
X6531853Y-12471069D01*
X6577064Y-12403407D01*
X6577064Y-12403406D01*
X6616700Y-12204143D01*
X6616700Y-12154829D01*
X6698747Y-12237020D01*
X7048705Y-12382335D01*
X7427633Y-12382665D01*
X7777843Y-12237961D01*
X8046020Y-11970253D01*
X8128022Y-11772768D01*
X8209039Y-11968843D01*
X8476747Y-12237020D01*
X8826705Y-12382335D01*
X9144313Y-12382611D01*
X9126250Y-12400675D01*
X9077914Y-12517370D01*
X9077914Y-12519860D01*
X9075424Y-12519860D01*
X8958729Y-12568197D01*
X8869415Y-12657511D01*
X8551514Y-12975412D01*
X8507709Y-13081166D01*
X8401953Y-13124973D01*
X8312639Y-13214287D01*
X7994738Y-13532188D01*
X7946402Y-13648883D01*
X7946402Y-13775192D01*
X7994739Y-13891887D01*
X8084053Y-13981201D01*
X8791160Y-14688308D01*
X8907855Y-14736644D01*
X9034164Y-14736644D01*
X9150859Y-14688307D01*
X9240173Y-14598993D01*
X9558074Y-14281092D01*
X9601878Y-14175337D01*
X9707635Y-14131531D01*
X9796949Y-14042217D01*
X10114850Y-13724316D01*
X10163186Y-13607621D01*
X10163186Y-13605131D01*
X10165676Y-13605131D01*
X10282371Y-13556794D01*
X10371685Y-13467480D01*
X10689586Y-13149579D01*
X10720994Y-13073751D01*
X10776241Y-13110666D01*
X10776242Y-13110666D01*
X10946344Y-13144502D01*
X13842944Y-13144502D01*
X13842868Y-13231906D01*
X13958632Y-13512074D01*
X14172798Y-13726615D01*
X14452764Y-13842867D01*
X14755906Y-13843132D01*
X15036074Y-13727368D01*
X15250615Y-13513202D01*
X15366867Y-13233236D01*
X15367132Y-12930094D01*
X15251368Y-12649926D01*
X15237965Y-12636500D01*
X21576458Y-12636500D01*
X22747812Y-13807854D01*
X22694900Y-14073861D01*
X22694900Y-14120139D01*
X22784806Y-14572126D01*
X23040836Y-14955303D01*
X23424013Y-15211333D01*
X23876000Y-15301239D01*
X24327987Y-15211333D01*
X24711164Y-14955303D01*
X24967194Y-14572126D01*
X25057100Y-14120139D01*
X25057100Y-14073861D01*
X24967194Y-13621874D01*
X24733082Y-13271500D01*
X24961882Y-13271500D01*
X25322723Y-13632341D01*
X25234900Y-14073861D01*
X25234900Y-14120139D01*
X25324806Y-14572126D01*
X25580836Y-14955303D01*
X25964013Y-15211333D01*
X26416000Y-15301239D01*
X26867987Y-15211333D01*
X27251164Y-14955303D01*
X27507194Y-14572126D01*
X27597100Y-14120139D01*
X27597100Y-14073861D01*
X27507194Y-13621874D01*
X27251164Y-13238697D01*
X26867987Y-12982667D01*
X26416000Y-12892761D01*
X25964013Y-12982667D01*
X25943794Y-12996176D01*
X25460309Y-12512691D01*
X25316103Y-12416336D01*
X25146000Y-12382500D01*
X24733082Y-12382500D01*
X24967194Y-12032126D01*
X25057100Y-11580139D01*
X25057100Y-11533861D01*
X24967194Y-11081874D01*
X24733082Y-10731500D01*
X25146000Y-10731500D01*
X25316102Y-10697664D01*
X25316103Y-10697664D01*
X25460309Y-10601309D01*
X25943794Y-10117823D01*
X25964013Y-10131333D01*
X26416000Y-10221239D01*
X26867987Y-10131333D01*
X27251164Y-9875303D01*
X27368500Y-9699696D01*
X27368500Y-9975882D01*
X26888205Y-10456176D01*
X26867987Y-10442667D01*
X26416000Y-10352761D01*
X25964013Y-10442667D01*
X25580836Y-10698697D01*
X25324806Y-11081874D01*
X25234900Y-11533861D01*
X25234900Y-11580139D01*
X25324806Y-12032126D01*
X25580836Y-12415303D01*
X25964013Y-12671333D01*
X26416000Y-12761239D01*
X26867987Y-12671333D01*
X27251164Y-12415303D01*
X27507194Y-12032126D01*
X27597100Y-11580139D01*
X27597100Y-11533861D01*
X27509276Y-11092341D01*
X28127309Y-10474309D01*
X28207500Y-10354294D01*
X28207500Y-18428500D01*
M02*
