%FSLAX46Y46*%
G04 Gerber Fmt 4.6, Leading zero omitted, Abs format (unit mm)*
G04 Created by KiCad (PCBNEW (2014-10-27 BZR 5228)-product) date 4/10/2015 6:23:41 PM*
%MOMM*%
G01*
G04 APERTURE LIST*
%ADD10C,0.100000*%
%ADD11C,0.203200*%
%ADD12C,0.150000*%
%ADD13C,1.270000*%
%ADD14R,1.727200X1.727200*%
%ADD15O,1.727200X1.727200*%
G04 APERTURE END LIST*
D10*
D11*
X25025803Y-3171371D02*
X25121053Y-3933371D01*
X25039411Y-3280229D02*
X24978179Y-3225800D01*
X24862517Y-3171371D01*
X24699232Y-3171371D01*
X24597179Y-3225800D01*
X24556357Y-3334657D01*
X24631196Y-3933371D01*
X23644679Y-3878943D02*
X23760339Y-3933371D01*
X23978053Y-3933371D01*
X24080107Y-3878943D01*
X24120929Y-3770086D01*
X24066500Y-3334657D01*
X23998464Y-3225800D01*
X23882803Y-3171371D01*
X23665089Y-3171371D01*
X23563036Y-3225800D01*
X23522214Y-3334657D01*
X23535821Y-3443514D01*
X24093714Y-3552371D01*
X23154822Y-3878943D02*
X23052768Y-3933371D01*
X22835053Y-3933371D01*
X22719393Y-3878943D01*
X22651358Y-3770086D01*
X22644554Y-3715657D01*
X22685375Y-3606800D01*
X22787428Y-3552371D01*
X22950714Y-3552371D01*
X23052768Y-3497943D01*
X23093590Y-3389086D01*
X23086786Y-3334657D01*
X23018750Y-3225800D01*
X22903089Y-3171371D01*
X22739803Y-3171371D01*
X22637750Y-3225800D01*
X21528767Y-3933371D02*
X21841732Y-3389086D01*
X22181910Y-3933371D02*
X22039035Y-2790371D01*
X21603607Y-2790371D01*
X21501553Y-2844800D01*
X21453929Y-2899229D01*
X21413107Y-3008086D01*
X21433517Y-3171371D01*
X21501554Y-3280229D01*
X21562785Y-3334657D01*
X21678447Y-3389086D01*
X22113875Y-3389086D01*
X20583071Y-3334657D02*
X20964071Y-3334657D01*
X21038910Y-3933371D02*
X20896035Y-2790371D01*
X20351749Y-2790371D01*
X25168679Y-5682343D02*
X25012196Y-5736771D01*
X24740053Y-5736771D01*
X24624393Y-5682343D01*
X24563160Y-5627914D01*
X24495125Y-5519057D01*
X24481518Y-5410200D01*
X24522339Y-5301343D01*
X24569964Y-5246914D01*
X24672018Y-5192486D01*
X24882928Y-5138057D01*
X24984983Y-5083629D01*
X25032607Y-5029200D01*
X25073429Y-4920343D01*
X25059822Y-4811486D01*
X24991786Y-4702629D01*
X24930554Y-4648200D01*
X24814892Y-4593771D01*
X24542750Y-4593771D01*
X24386268Y-4648200D01*
X24032482Y-5736771D02*
X23889607Y-4593771D01*
X23379339Y-5736771D01*
X23236464Y-4593771D01*
X22760214Y-5138057D02*
X22379214Y-5138057D01*
X22290767Y-5736771D02*
X22835053Y-5736771D01*
X22692178Y-4593771D01*
X22147892Y-4593771D01*
X21848536Y-5682343D02*
X21692053Y-5736771D01*
X21419910Y-5736771D01*
X21304250Y-5682343D01*
X21243017Y-5627914D01*
X21174982Y-5519057D01*
X21161375Y-5410200D01*
X21202196Y-5301343D01*
X21249821Y-5246914D01*
X21351875Y-5192486D01*
X21562785Y-5138057D01*
X21664840Y-5083629D01*
X21712464Y-5029200D01*
X21753286Y-4920343D01*
X21739679Y-4811486D01*
X21671643Y-4702629D01*
X21610411Y-4648200D01*
X21494749Y-4593771D01*
X21222607Y-4593771D01*
X21066125Y-4648200D01*
X19188339Y-5736771D02*
X19501304Y-5192486D01*
X19841482Y-5736771D02*
X19698607Y-4593771D01*
X19263179Y-4593771D01*
X19161125Y-4648200D01*
X19113501Y-4702629D01*
X19072679Y-4811486D01*
X19093089Y-4974771D01*
X19161126Y-5083629D01*
X19222357Y-5138057D01*
X19338019Y-5192486D01*
X19773447Y-5192486D01*
X18256251Y-5682343D02*
X18371911Y-5736771D01*
X18589625Y-5736771D01*
X18691679Y-5682343D01*
X18732501Y-5573486D01*
X18678072Y-5138057D01*
X18610036Y-5029200D01*
X18494375Y-4974771D01*
X18276661Y-4974771D01*
X18174608Y-5029200D01*
X18133786Y-5138057D01*
X18147393Y-5246914D01*
X18705286Y-5355771D01*
X17222108Y-5682343D02*
X17337768Y-5736771D01*
X17555482Y-5736771D01*
X17657537Y-5682343D01*
X17705161Y-5627914D01*
X17745983Y-5519057D01*
X17705162Y-5192486D01*
X17637126Y-5083629D01*
X17575894Y-5029200D01*
X17460232Y-4974771D01*
X17242518Y-4974771D01*
X17140465Y-5029200D01*
X16296823Y-5682343D02*
X16412483Y-5736771D01*
X16630197Y-5736771D01*
X16732251Y-5682343D01*
X16773073Y-5573486D01*
X16718644Y-5138057D01*
X16650608Y-5029200D01*
X16534947Y-4974771D01*
X16317233Y-4974771D01*
X16215180Y-5029200D01*
X16174358Y-5138057D01*
X16187965Y-5246914D01*
X16745858Y-5355771D01*
X15759340Y-5736771D02*
X15664090Y-4974771D01*
X15616465Y-4593771D02*
X15677698Y-4648200D01*
X15630073Y-4702629D01*
X15568841Y-4648200D01*
X15616465Y-4593771D01*
X15630073Y-4702629D01*
X15228661Y-4974771D02*
X15051768Y-5736771D01*
X14684376Y-4974771D01*
X13901966Y-5682343D02*
X14017626Y-5736771D01*
X14235340Y-5736771D01*
X14337394Y-5682343D01*
X14378216Y-5573486D01*
X14323787Y-5138057D01*
X14255751Y-5029200D01*
X14140090Y-4974771D01*
X13922376Y-4974771D01*
X13820323Y-5029200D01*
X13779501Y-5138057D01*
X13793108Y-5246914D01*
X14351001Y-5355771D01*
X13364483Y-5736771D02*
X13269233Y-4974771D01*
X13296448Y-5192486D02*
X13228413Y-5083629D01*
X13167180Y-5029200D01*
X13051519Y-4974771D01*
X12942662Y-4974771D01*
X21672775Y-17662071D02*
X21597936Y-17063357D01*
X21638758Y-16954500D01*
X21740811Y-16900071D01*
X21958525Y-16900071D01*
X22074186Y-16954500D01*
X21665972Y-17607643D02*
X21781632Y-17662071D01*
X22053775Y-17662071D01*
X22155829Y-17607643D01*
X22196651Y-17498786D01*
X22183044Y-17389929D01*
X22115007Y-17281071D01*
X21999347Y-17226643D01*
X21727204Y-17226643D01*
X21611543Y-17172214D01*
X21128489Y-17662071D02*
X21033239Y-16900071D01*
X21060454Y-17117786D02*
X20992419Y-17008929D01*
X20931186Y-16954500D01*
X20815525Y-16900071D01*
X20706668Y-16900071D01*
X19931061Y-17662071D02*
X19856222Y-17063357D01*
X19897044Y-16954500D01*
X19999097Y-16900071D01*
X20216811Y-16900071D01*
X20332472Y-16954500D01*
X19924258Y-17607643D02*
X20039918Y-17662071D01*
X20312061Y-17662071D01*
X20414115Y-17607643D01*
X20454937Y-17498786D01*
X20441330Y-17389929D01*
X20373293Y-17281071D01*
X20257633Y-17226643D01*
X19985490Y-17226643D01*
X19869829Y-17172214D01*
X19291525Y-16900071D02*
X19386775Y-17662071D01*
X19305133Y-17008929D02*
X19243901Y-16954500D01*
X19128239Y-16900071D01*
X18964954Y-16900071D01*
X18862901Y-16954500D01*
X18822079Y-17063357D01*
X18896918Y-17662071D01*
X18420668Y-16900071D02*
X17985239Y-16900071D01*
X18209757Y-16519071D02*
X18332222Y-17498786D01*
X18291401Y-17607643D01*
X18189346Y-17662071D01*
X18080489Y-17662071D01*
X17699489Y-17662071D02*
X17604239Y-16900071D01*
X17556614Y-16519071D02*
X17617847Y-16573500D01*
X17570222Y-16627929D01*
X17508990Y-16573500D01*
X17556614Y-16519071D01*
X17570222Y-16627929D01*
X16570096Y-16900071D02*
X16665346Y-17662071D01*
X17059953Y-16900071D02*
X17134793Y-17498786D01*
X17093972Y-17607643D01*
X16991917Y-17662071D01*
X16828632Y-17662071D01*
X16712972Y-17607643D01*
X16651739Y-17553214D01*
X16168686Y-17607643D02*
X16066632Y-17662071D01*
X15848917Y-17662071D01*
X15733257Y-17607643D01*
X15665222Y-17498786D01*
X15658418Y-17444357D01*
X15699239Y-17335500D01*
X15801292Y-17281071D01*
X15964578Y-17281071D01*
X16066632Y-17226643D01*
X16107454Y-17117786D01*
X16100650Y-17063357D01*
X16032614Y-16954500D01*
X15916953Y-16900071D01*
X15753667Y-16900071D01*
X15651614Y-16954500D01*
X15182167Y-17553214D02*
X15134543Y-17607643D01*
X15195774Y-17662071D01*
X15243400Y-17607643D01*
X15182167Y-17553214D01*
X15195774Y-17662071D01*
X14154828Y-17607643D02*
X14270488Y-17662071D01*
X14488202Y-17662071D01*
X14590257Y-17607643D01*
X14637881Y-17553214D01*
X14678703Y-17444357D01*
X14637882Y-17117786D01*
X14569846Y-17008929D01*
X14508614Y-16954500D01*
X14392952Y-16900071D01*
X14175238Y-16900071D01*
X14073185Y-16954500D01*
X13508488Y-17662071D02*
X13610543Y-17607643D01*
X13658167Y-17553214D01*
X13698989Y-17444357D01*
X13658168Y-17117786D01*
X13590132Y-17008929D01*
X13528900Y-16954500D01*
X13413238Y-16900071D01*
X13249953Y-16900071D01*
X13147900Y-16954500D01*
X13100275Y-17008929D01*
X13059453Y-17117786D01*
X13100274Y-17444357D01*
X13168310Y-17553214D01*
X13229543Y-17607643D01*
X13345203Y-17662071D01*
X13508488Y-17662071D01*
X12637631Y-17662071D02*
X12542381Y-16900071D01*
X12555989Y-17008929D02*
X12494757Y-16954500D01*
X12379095Y-16900071D01*
X12215810Y-16900071D01*
X12113757Y-16954500D01*
X12072935Y-17063357D01*
X12147774Y-17662071D01*
X12072935Y-17063357D02*
X12004899Y-16954500D01*
X11889238Y-16900071D01*
X11725953Y-16900071D01*
X11623899Y-16954500D01*
X11583078Y-17063357D01*
X11657917Y-17662071D01*
X9385525Y-17335500D02*
X8841239Y-17335500D01*
X9535203Y-17662071D02*
X9011328Y-16519071D01*
X8773203Y-17662071D01*
X8296953Y-16900071D02*
X8439828Y-18043071D01*
X8303757Y-16954500D02*
X8188096Y-16900071D01*
X7970382Y-16900071D01*
X7868329Y-16954500D01*
X7820704Y-17008929D01*
X7779882Y-17117786D01*
X7820703Y-17444357D01*
X7888739Y-17553214D01*
X7949972Y-17607643D01*
X8065632Y-17662071D01*
X8283346Y-17662071D01*
X8385400Y-17607643D01*
X7358060Y-17662071D02*
X7262810Y-16900071D01*
X7290025Y-17117786D02*
X7221990Y-17008929D01*
X7160757Y-16954500D01*
X7045096Y-16900071D01*
X6936239Y-16900071D01*
X6650489Y-17662071D02*
X6555239Y-16900071D01*
X6507614Y-16519071D02*
X6568847Y-16573500D01*
X6521222Y-16627929D01*
X6459990Y-16573500D01*
X6507614Y-16519071D01*
X6521222Y-16627929D01*
X5942917Y-17662071D02*
X6044972Y-17607643D01*
X6085793Y-17498786D01*
X5963328Y-16519071D01*
X4561794Y-16627929D02*
X4500561Y-16573500D01*
X4384900Y-16519071D01*
X4112757Y-16519071D01*
X4010704Y-16573500D01*
X3963079Y-16627929D01*
X3922258Y-16736786D01*
X3935865Y-16845643D01*
X4010704Y-17008929D01*
X4745489Y-17662071D01*
X4037918Y-17662071D01*
X3187472Y-16519071D02*
X3078615Y-16519071D01*
X2976562Y-16573500D01*
X2928937Y-16627929D01*
X2888115Y-16736786D01*
X2860901Y-16954500D01*
X2894919Y-17226643D01*
X2976561Y-17444357D01*
X3044597Y-17553214D01*
X3105830Y-17607643D01*
X3221490Y-17662071D01*
X3330347Y-17662071D01*
X3432401Y-17607643D01*
X3480026Y-17553214D01*
X3520847Y-17444357D01*
X3548062Y-17226643D01*
X3514044Y-16954500D01*
X3432401Y-16736786D01*
X3364366Y-16627929D01*
X3303133Y-16573500D01*
X3187472Y-16519071D01*
X1860776Y-17662071D02*
X2513919Y-17662071D01*
X2187347Y-17662071D02*
X2044472Y-16519071D01*
X2173740Y-16682357D01*
X2296205Y-16791214D01*
X2411866Y-16845643D01*
X683758Y-16519071D02*
X1228044Y-16519071D01*
X1350509Y-17063357D01*
X1289277Y-17008929D01*
X1173616Y-16954500D01*
X901473Y-16954500D01*
X799420Y-17008929D01*
X751794Y-17063357D01*
X710973Y-17172214D01*
X744991Y-17444357D01*
X813026Y-17553214D01*
X874259Y-17607643D01*
X989919Y-17662071D01*
X1262062Y-17662071D01*
X1364116Y-17607643D01*
X1411741Y-17553214D01*
D12*
X19304000Y-15367000D02*
X19304000Y-12827000D01*
X19304000Y-12827000D02*
X16764000Y-12827000D01*
X16764000Y-15367000D02*
X16764000Y-7747000D01*
X16764000Y-7747000D02*
X21844000Y-7747000D01*
X21844000Y-7747000D02*
X21844000Y-12827000D01*
X16764000Y-15367000D02*
X19304000Y-15367000D01*
X21844000Y-15367000D02*
X19304000Y-15367000D01*
X21844000Y-12827000D02*
X21844000Y-15367000D01*
D10*
X1842286Y-2479286D02*
X1842286Y-3165000D01*
X2185143Y-2822143D02*
X1499429Y-2822143D01*
X1285143Y-4022143D02*
X1285143Y-3593572D01*
X1713714Y-3550715D01*
X1670857Y-3593572D01*
X1628000Y-3679286D01*
X1628000Y-3893572D01*
X1670857Y-3979286D01*
X1713714Y-4022143D01*
X1799429Y-4065000D01*
X2013714Y-4065000D01*
X2099429Y-4022143D01*
X2142286Y-3979286D01*
X2185143Y-3893572D01*
X2185143Y-3679286D01*
X2142286Y-3593572D01*
X2099429Y-3550715D01*
X1585143Y-4365000D02*
X2185143Y-4579286D01*
X1585143Y-4793572D01*
X2528000Y-6079286D02*
X2485143Y-6036428D01*
X2356571Y-5950714D01*
X2270857Y-5907857D01*
X2142286Y-5865000D01*
X1928000Y-5822143D01*
X1756571Y-5822143D01*
X1542286Y-5865000D01*
X1413714Y-5907857D01*
X1328000Y-5950714D01*
X1199429Y-6036428D01*
X1156571Y-6079286D01*
X1285143Y-6336428D02*
X2185143Y-6550714D01*
X1542286Y-6722143D01*
X2185143Y-6893571D01*
X1285143Y-7107857D01*
X2185143Y-7450714D02*
X1285143Y-7450714D01*
X2185143Y-7836428D02*
X1713714Y-7836428D01*
X1628000Y-7793571D01*
X1585143Y-7707857D01*
X1585143Y-7579285D01*
X1628000Y-7493571D01*
X1670857Y-7450714D01*
X1585143Y-8136428D02*
X1585143Y-8479285D01*
X1285143Y-8265000D02*
X2056571Y-8265000D01*
X2142286Y-8307857D01*
X2185143Y-8393571D01*
X2185143Y-8479285D01*
X2528000Y-8693571D02*
X2485143Y-8736429D01*
X2356571Y-8822143D01*
X2270857Y-8865000D01*
X2142286Y-8907857D01*
X1928000Y-8950714D01*
X1756571Y-8950714D01*
X1542286Y-8907857D01*
X1413714Y-8865000D01*
X1328000Y-8822143D01*
X1199429Y-8736429D01*
X1156571Y-8693571D01*
X4639429Y-3158713D02*
X4682286Y-3115856D01*
X4725143Y-2987285D01*
X4725143Y-2901571D01*
X4682286Y-2772999D01*
X4596571Y-2687285D01*
X4510857Y-2644428D01*
X4339429Y-2601571D01*
X4210857Y-2601571D01*
X4039429Y-2644428D01*
X3953714Y-2687285D01*
X3868000Y-2772999D01*
X3825143Y-2901571D01*
X3825143Y-2987285D01*
X3868000Y-3115856D01*
X3910857Y-3158713D01*
X4725143Y-3672999D02*
X4682286Y-3587285D01*
X4596571Y-3544428D01*
X3825143Y-3544428D01*
X4725143Y-4144428D02*
X4682286Y-4058714D01*
X4639429Y-4015857D01*
X4553714Y-3973000D01*
X4296571Y-3973000D01*
X4210857Y-4015857D01*
X4168000Y-4058714D01*
X4125143Y-4144428D01*
X4125143Y-4273000D01*
X4168000Y-4358714D01*
X4210857Y-4401571D01*
X4296571Y-4444428D01*
X4553714Y-4444428D01*
X4639429Y-4401571D01*
X4682286Y-4358714D01*
X4725143Y-4273000D01*
X4725143Y-4144428D01*
X4682286Y-5215857D02*
X4725143Y-5130143D01*
X4725143Y-4958714D01*
X4682286Y-4873000D01*
X4639429Y-4830143D01*
X4553714Y-4787286D01*
X4296571Y-4787286D01*
X4210857Y-4830143D01*
X4168000Y-4873000D01*
X4125143Y-4958714D01*
X4125143Y-5130143D01*
X4168000Y-5215857D01*
X4725143Y-5601572D02*
X3825143Y-5601572D01*
X4382286Y-5687286D02*
X4725143Y-5944429D01*
X4125143Y-5944429D02*
X4468000Y-5601572D01*
X5068000Y-7273000D02*
X5025143Y-7230142D01*
X4896571Y-7144428D01*
X4810857Y-7101571D01*
X4682286Y-7058714D01*
X4468000Y-7015857D01*
X4296571Y-7015857D01*
X4082286Y-7058714D01*
X3953714Y-7101571D01*
X3868000Y-7144428D01*
X3739429Y-7230142D01*
X3696571Y-7273000D01*
X4296571Y-7787285D02*
X4725143Y-7787285D01*
X3825143Y-7487285D02*
X4296571Y-7787285D01*
X3825143Y-8087285D01*
X4682286Y-8730143D02*
X4725143Y-8644429D01*
X4725143Y-8473000D01*
X4682286Y-8387286D01*
X4596571Y-8344429D01*
X4253714Y-8344429D01*
X4168000Y-8387286D01*
X4125143Y-8473000D01*
X4125143Y-8644429D01*
X4168000Y-8730143D01*
X4253714Y-8773000D01*
X4339429Y-8773000D01*
X4425143Y-8344429D01*
X4725143Y-9287286D02*
X4682286Y-9201572D01*
X4596571Y-9158715D01*
X3825143Y-9158715D01*
X5068000Y-9544429D02*
X5025143Y-9587287D01*
X4896571Y-9673001D01*
X4810857Y-9715858D01*
X4682286Y-9758715D01*
X4468000Y-9801572D01*
X4296571Y-9801572D01*
X4082286Y-9758715D01*
X3953714Y-9715858D01*
X3868000Y-9673001D01*
X3739429Y-9587287D01*
X3696571Y-9544429D01*
X7265143Y-3071428D02*
X7265143Y-2642857D01*
X6365143Y-2642857D01*
X7265143Y-3757142D02*
X6793714Y-3757142D01*
X6708000Y-3714285D01*
X6665143Y-3628571D01*
X6665143Y-3457142D01*
X6708000Y-3371428D01*
X7222286Y-3757142D02*
X7265143Y-3671428D01*
X7265143Y-3457142D01*
X7222286Y-3371428D01*
X7136571Y-3328571D01*
X7050857Y-3328571D01*
X6965143Y-3371428D01*
X6922286Y-3457142D01*
X6922286Y-3671428D01*
X6879429Y-3757142D01*
X6665143Y-4057142D02*
X6665143Y-4399999D01*
X6365143Y-4185714D02*
X7136571Y-4185714D01*
X7222286Y-4228571D01*
X7265143Y-4314285D01*
X7265143Y-4399999D01*
X7222286Y-5085714D02*
X7265143Y-5000000D01*
X7265143Y-4828571D01*
X7222286Y-4742857D01*
X7179429Y-4700000D01*
X7093714Y-4657143D01*
X6836571Y-4657143D01*
X6750857Y-4700000D01*
X6708000Y-4742857D01*
X6665143Y-4828571D01*
X6665143Y-5000000D01*
X6708000Y-5085714D01*
X7265143Y-5471429D02*
X6365143Y-5471429D01*
X7265143Y-5857143D02*
X6793714Y-5857143D01*
X6708000Y-5814286D01*
X6665143Y-5728572D01*
X6665143Y-5600000D01*
X6708000Y-5514286D01*
X6750857Y-5471429D01*
X7608000Y-7228572D02*
X7565143Y-7185714D01*
X7436571Y-7100000D01*
X7350857Y-7057143D01*
X7222286Y-7014286D01*
X7008000Y-6971429D01*
X6836571Y-6971429D01*
X6622286Y-7014286D01*
X6493714Y-7057143D01*
X6408000Y-7100000D01*
X6279429Y-7185714D01*
X6236571Y-7228572D01*
X6365143Y-7742857D02*
X6365143Y-7914286D01*
X6408000Y-8000000D01*
X6493714Y-8085714D01*
X6665143Y-8128572D01*
X6965143Y-8128572D01*
X7136571Y-8085714D01*
X7222286Y-8000000D01*
X7265143Y-7914286D01*
X7265143Y-7742857D01*
X7222286Y-7657143D01*
X7136571Y-7571429D01*
X6965143Y-7528572D01*
X6665143Y-7528572D01*
X6493714Y-7571429D01*
X6408000Y-7657143D01*
X6365143Y-7742857D01*
X7265143Y-8514286D02*
X6665143Y-8514286D01*
X6836571Y-8514286D02*
X6750857Y-8557143D01*
X6708000Y-8600000D01*
X6665143Y-8685714D01*
X6665143Y-8771429D01*
X6665143Y-9457143D02*
X7393714Y-9457143D01*
X7479429Y-9414286D01*
X7522286Y-9371429D01*
X7565143Y-9285714D01*
X7565143Y-9157143D01*
X7522286Y-9071429D01*
X7222286Y-9457143D02*
X7265143Y-9371429D01*
X7265143Y-9200000D01*
X7222286Y-9114286D01*
X7179429Y-9071429D01*
X7093714Y-9028572D01*
X6836571Y-9028572D01*
X6750857Y-9071429D01*
X6708000Y-9114286D01*
X6665143Y-9200000D01*
X6665143Y-9371429D01*
X6708000Y-9457143D01*
X7608000Y-9800000D02*
X7565143Y-9842858D01*
X7436571Y-9928572D01*
X7350857Y-9971429D01*
X7222286Y-10014286D01*
X7008000Y-10057143D01*
X6836571Y-10057143D01*
X6622286Y-10014286D01*
X6493714Y-9971429D01*
X6408000Y-9928572D01*
X6279429Y-9842858D01*
X6236571Y-9800000D01*
X9805143Y-2603143D02*
X8905143Y-2603143D01*
X8905143Y-2817428D01*
X8948000Y-2946000D01*
X9033714Y-3031714D01*
X9119429Y-3074571D01*
X9290857Y-3117428D01*
X9419429Y-3117428D01*
X9590857Y-3074571D01*
X9676571Y-3031714D01*
X9762286Y-2946000D01*
X9805143Y-2817428D01*
X9805143Y-2603143D01*
X9805143Y-3888857D02*
X9333714Y-3888857D01*
X9248000Y-3846000D01*
X9205143Y-3760286D01*
X9205143Y-3588857D01*
X9248000Y-3503143D01*
X9762286Y-3888857D02*
X9805143Y-3803143D01*
X9805143Y-3588857D01*
X9762286Y-3503143D01*
X9676571Y-3460286D01*
X9590857Y-3460286D01*
X9505143Y-3503143D01*
X9462286Y-3588857D01*
X9462286Y-3803143D01*
X9419429Y-3888857D01*
X9205143Y-4188857D02*
X9205143Y-4531714D01*
X8905143Y-4317429D02*
X9676571Y-4317429D01*
X9762286Y-4360286D01*
X9805143Y-4446000D01*
X9805143Y-4531714D01*
X9805143Y-5217429D02*
X9333714Y-5217429D01*
X9248000Y-5174572D01*
X9205143Y-5088858D01*
X9205143Y-4917429D01*
X9248000Y-4831715D01*
X9762286Y-5217429D02*
X9805143Y-5131715D01*
X9805143Y-4917429D01*
X9762286Y-4831715D01*
X9676571Y-4788858D01*
X9590857Y-4788858D01*
X9505143Y-4831715D01*
X9462286Y-4917429D01*
X9462286Y-5131715D01*
X9419429Y-5217429D01*
X10148000Y-6588858D02*
X10105143Y-6546000D01*
X9976571Y-6460286D01*
X9890857Y-6417429D01*
X9762286Y-6374572D01*
X9548000Y-6331715D01*
X9376571Y-6331715D01*
X9162286Y-6374572D01*
X9033714Y-6417429D01*
X8948000Y-6460286D01*
X8819429Y-6546000D01*
X8776571Y-6588858D01*
X9805143Y-7446000D02*
X9376571Y-7146000D01*
X9805143Y-6931715D02*
X8905143Y-6931715D01*
X8905143Y-7274572D01*
X8948000Y-7360286D01*
X8990857Y-7403143D01*
X9076571Y-7446000D01*
X9205143Y-7446000D01*
X9290857Y-7403143D01*
X9333714Y-7360286D01*
X9376571Y-7274572D01*
X9376571Y-6931715D01*
X9762286Y-8174572D02*
X9805143Y-8088858D01*
X9805143Y-7917429D01*
X9762286Y-7831715D01*
X9676571Y-7788858D01*
X9333714Y-7788858D01*
X9248000Y-7831715D01*
X9205143Y-7917429D01*
X9205143Y-8088858D01*
X9248000Y-8174572D01*
X9333714Y-8217429D01*
X9419429Y-8217429D01*
X9505143Y-7788858D01*
X9805143Y-8988858D02*
X8905143Y-8988858D01*
X9762286Y-8988858D02*
X9805143Y-8903144D01*
X9805143Y-8731715D01*
X9762286Y-8646001D01*
X9719429Y-8603144D01*
X9633714Y-8560287D01*
X9376571Y-8560287D01*
X9290857Y-8603144D01*
X9248000Y-8646001D01*
X9205143Y-8731715D01*
X9205143Y-8903144D01*
X9248000Y-8988858D01*
X10148000Y-9331715D02*
X10105143Y-9374573D01*
X9976571Y-9460287D01*
X9890857Y-9503144D01*
X9762286Y-9546001D01*
X9548000Y-9588858D01*
X9376571Y-9588858D01*
X9162286Y-9546001D01*
X9033714Y-9503144D01*
X8948000Y-9460287D01*
X8819429Y-9374573D01*
X8776571Y-9331715D01*
X26982000Y-2442714D02*
X26939143Y-2357000D01*
X26939143Y-2228429D01*
X26982000Y-2099857D01*
X27067714Y-2014143D01*
X27153429Y-1971286D01*
X27324857Y-1928429D01*
X27453429Y-1928429D01*
X27624857Y-1971286D01*
X27710571Y-2014143D01*
X27796286Y-2099857D01*
X27839143Y-2228429D01*
X27839143Y-2314143D01*
X27796286Y-2442714D01*
X27753429Y-2485571D01*
X27453429Y-2485571D01*
X27453429Y-2314143D01*
X27839143Y-2871286D02*
X26939143Y-2871286D01*
X27839143Y-3385571D01*
X26939143Y-3385571D01*
X27839143Y-3814143D02*
X26939143Y-3814143D01*
X26939143Y-4028428D01*
X26982000Y-4157000D01*
X27067714Y-4242714D01*
X27153429Y-4285571D01*
X27324857Y-4328428D01*
X27453429Y-4328428D01*
X27624857Y-4285571D01*
X27710571Y-4242714D01*
X27796286Y-4157000D01*
X27839143Y-4028428D01*
X27839143Y-3814143D01*
X28182000Y-5657000D02*
X28139143Y-5614142D01*
X28010571Y-5528428D01*
X27924857Y-5485571D01*
X27796286Y-5442714D01*
X27582000Y-5399857D01*
X27410571Y-5399857D01*
X27196286Y-5442714D01*
X27067714Y-5485571D01*
X26982000Y-5528428D01*
X26853429Y-5614142D01*
X26810571Y-5657000D01*
X27367714Y-6299857D02*
X27410571Y-6428428D01*
X27453429Y-6471285D01*
X27539143Y-6514142D01*
X27667714Y-6514142D01*
X27753429Y-6471285D01*
X27796286Y-6428428D01*
X27839143Y-6342714D01*
X27839143Y-5999857D01*
X26939143Y-5999857D01*
X26939143Y-6299857D01*
X26982000Y-6385571D01*
X27024857Y-6428428D01*
X27110571Y-6471285D01*
X27196286Y-6471285D01*
X27282000Y-6428428D01*
X27324857Y-6385571D01*
X27367714Y-6299857D01*
X27367714Y-5999857D01*
X27839143Y-6899857D02*
X27239143Y-6899857D01*
X27410571Y-6899857D02*
X27324857Y-6942714D01*
X27282000Y-6985571D01*
X27239143Y-7071285D01*
X27239143Y-7157000D01*
X27239143Y-7457000D02*
X27839143Y-7457000D01*
X27324857Y-7457000D02*
X27282000Y-7499857D01*
X27239143Y-7585571D01*
X27239143Y-7714143D01*
X27282000Y-7799857D01*
X27367714Y-7842714D01*
X27839143Y-7842714D01*
X28182000Y-8185571D02*
X28139143Y-8228429D01*
X28010571Y-8314143D01*
X27924857Y-8357000D01*
X27796286Y-8399857D01*
X27582000Y-8442714D01*
X27410571Y-8442714D01*
X27196286Y-8399857D01*
X27067714Y-8357000D01*
X26982000Y-8314143D01*
X26853429Y-8228429D01*
X26810571Y-8185571D01*
D12*
X9469381Y-13041334D02*
X8993190Y-12708000D01*
X9469381Y-12469905D02*
X8469381Y-12469905D01*
X8469381Y-12850858D01*
X8517000Y-12946096D01*
X8564619Y-12993715D01*
X8659857Y-13041334D01*
X8802714Y-13041334D01*
X8897952Y-12993715D01*
X8945571Y-12946096D01*
X8993190Y-12850858D01*
X8993190Y-12469905D01*
X8469381Y-13374667D02*
X9469381Y-14041334D01*
X8469381Y-14041334D02*
X9469381Y-13374667D01*
X6691381Y-12446095D02*
X6691381Y-13017524D01*
X7691381Y-12731809D02*
X6691381Y-12731809D01*
X6691381Y-13255619D02*
X7691381Y-13922286D01*
X6691381Y-13922286D02*
X7691381Y-13255619D01*
X16454381Y-7770905D02*
X15454381Y-7770905D01*
X15454381Y-8151858D01*
X15502000Y-8247096D01*
X15549619Y-8294715D01*
X15644857Y-8342334D01*
X15787714Y-8342334D01*
X15882952Y-8294715D01*
X15930571Y-8247096D01*
X15978190Y-8151858D01*
X15978190Y-7770905D01*
X15454381Y-8675667D02*
X15454381Y-9342334D01*
X16454381Y-8913762D01*
X16454381Y-12231810D02*
X15454381Y-12231810D01*
X16406762Y-12660381D02*
X16454381Y-12803238D01*
X16454381Y-13041334D01*
X16406762Y-13136572D01*
X16359143Y-13184191D01*
X16263905Y-13231810D01*
X16168667Y-13231810D01*
X16073429Y-13184191D01*
X16025810Y-13136572D01*
X15978190Y-13041334D01*
X15930571Y-12850857D01*
X15882952Y-12755619D01*
X15835333Y-12708000D01*
X15740095Y-12660381D01*
X15644857Y-12660381D01*
X15549619Y-12708000D01*
X15502000Y-12755619D01*
X15454381Y-12850857D01*
X15454381Y-13088953D01*
X15502000Y-13231810D01*
X16454381Y-13660381D02*
X15454381Y-13660381D01*
X15454381Y-14041334D01*
X15502000Y-14136572D01*
X15549619Y-14184191D01*
X15644857Y-14231810D01*
X15787714Y-14231810D01*
X15882952Y-14184191D01*
X15930571Y-14136572D01*
X15978190Y-14041334D01*
X15978190Y-13660381D01*
%LPC*%
D13*
X1778000Y-1524000D03*
D14*
X12700000Y-2794000D03*
D15*
X15240000Y-2794000D03*
X17780000Y-2794000D03*
D14*
X23876000Y-9017000D03*
D15*
X26416000Y-9017000D03*
X23876000Y-11557000D03*
X26416000Y-11557000D03*
X23876000Y-14097000D03*
X26416000Y-14097000D03*
X23876000Y-16637000D03*
X26416000Y-16637000D03*
D13*
X4318000Y-1524000D03*
X6858000Y-1524000D03*
X9398000Y-1524000D03*
X26670000Y-1524000D03*
X9017000Y-11430000D03*
X7239000Y-11430000D03*
D14*
X18034000Y-14097000D03*
D15*
X20574000Y-14097000D03*
X18034000Y-11557000D03*
X20574000Y-11557000D03*
X18034000Y-9017000D03*
X20574000Y-9017000D03*
M02*
