%FSLAX46Y46*%
G04 Gerber Fmt 4.6, Leading zero omitted, Abs format (unit mm)*
G04 Created by KiCad (PCBNEW (2014-10-27 BZR 5228)-product) date 1/30/2015 1:35:51 PM*
%MOMM*%
G01*
G04 APERTURE LIST*
%ADD10C,0.100000*%
%ADD11C,0.150000*%
%ADD12C,1.270000*%
%ADD13R,1.727200X1.727200*%
%ADD14O,1.727200X1.727200*%
%ADD15R,0.599440X0.398780*%
%ADD16R,0.762000X0.508000*%
G04 APERTURE END LIST*
D10*
D11*
X13970000Y-3048000D02*
X19050000Y-3048000D01*
X19050000Y-3048000D02*
X19050000Y-508000D01*
X19050000Y-508000D02*
X13970000Y-508000D01*
X11430000Y-508000D02*
X13970000Y-508000D01*
X13970000Y-508000D02*
X13970000Y-3048000D01*
X11430000Y-508000D02*
X11430000Y-3048000D01*
X11430000Y-3048000D02*
X13970000Y-3048000D01*
X22606000Y-10287000D02*
X22606000Y-17907000D01*
X22606000Y-17907000D02*
X27686000Y-17907000D01*
X27686000Y-17907000D02*
X27686000Y-7747000D01*
X27686000Y-7747000D02*
X25146000Y-7747000D01*
X22606000Y-7747000D02*
X22606000Y-10287000D01*
X25146000Y-7747000D02*
X25146000Y-10287000D01*
X25146000Y-10287000D02*
X22606000Y-10287000D01*
X22606000Y-7747000D02*
X25146000Y-7747000D01*
X13118197Y-5148013D02*
X13477408Y-5507223D01*
X13477408Y-5507223D02*
X14016223Y-4968408D01*
X14016223Y-4968408D02*
X13657013Y-4609197D01*
X12758987Y-4788803D02*
X12399777Y-4429592D01*
X12399777Y-4429592D02*
X12938592Y-3890777D01*
X12938592Y-3890777D02*
X13297803Y-4249987D01*
X15367000Y-16764000D02*
X15367000Y-17272000D01*
X15367000Y-17272000D02*
X16129000Y-17272000D01*
X16129000Y-17272000D02*
X16129000Y-16764000D01*
X15367000Y-16256000D02*
X15367000Y-15748000D01*
X15367000Y-15748000D02*
X16129000Y-15748000D01*
X16129000Y-15748000D02*
X16129000Y-16256000D01*
X3212197Y-14673013D02*
X3571408Y-15032223D01*
X3571408Y-15032223D02*
X4110223Y-14493408D01*
X4110223Y-14493408D02*
X3751013Y-14134197D01*
X2852987Y-14313803D02*
X2493777Y-13954592D01*
X2493777Y-13954592D02*
X3032592Y-13415777D01*
X3032592Y-13415777D02*
X3391803Y-13774987D01*
X7297987Y-2069197D02*
X6938777Y-2428408D01*
X6938777Y-2428408D02*
X7477592Y-2967223D01*
X7477592Y-2967223D02*
X7836803Y-2608013D01*
X7657197Y-1709987D02*
X8016408Y-1350777D01*
X8016408Y-1350777D02*
X8555223Y-1889592D01*
X8555223Y-1889592D02*
X8196013Y-2248803D01*
X21590000Y-17843500D02*
X21590000Y-18351500D01*
X21590000Y-18351500D02*
X22352000Y-18351500D01*
X22352000Y-18351500D02*
X22352000Y-17843500D01*
X21590000Y-17335500D02*
X21590000Y-16827500D01*
X21590000Y-16827500D02*
X22352000Y-16827500D01*
X22352000Y-16827500D02*
X22352000Y-17335500D01*
X13705377Y-7418514D02*
X12897154Y-8226737D01*
X9789986Y-3503123D02*
X8999723Y-4293385D01*
X13705377Y-7418514D02*
X9789986Y-3503123D01*
X12968996Y-9843184D02*
X13741298Y-10615486D01*
X9017684Y-13830417D02*
X9772025Y-14584759D01*
X9754065Y-14602719D02*
X13759259Y-10633446D01*
X2659662Y-7436475D02*
X6539133Y-3521083D01*
X3126636Y-9448052D02*
X8209461Y-14530877D01*
X6575054Y-3521083D02*
X7311435Y-4257464D01*
X3144596Y-8567987D02*
X8137618Y-3574965D01*
X13705377Y-9070882D02*
X8245382Y-3610886D01*
X8227421Y-14548838D02*
X13615575Y-9160684D01*
X2623741Y-10561604D02*
X6610975Y-14548838D01*
X6610975Y-14548838D02*
X7419198Y-13740615D01*
X3115859Y-9422908D02*
X3115859Y-8596724D01*
X2627333Y-10558012D02*
X3439148Y-9746197D01*
X3467885Y-8244698D02*
X2656070Y-7432883D01*
X4640407Y-9002632D02*
G75*
G03X4640407Y-9002632I-479246J0D01*
G01*
X8758487Y-2386697D02*
X8399277Y-2745908D01*
X8399277Y-2745908D02*
X8938092Y-3284723D01*
X8938092Y-3284723D02*
X9297303Y-2925513D01*
X9117697Y-2027487D02*
X9476908Y-1668277D01*
X9476908Y-1668277D02*
X10015723Y-2207092D01*
X10015723Y-2207092D02*
X9656513Y-2566303D01*
X21590000Y-14160500D02*
X21590000Y-14668500D01*
X21590000Y-14668500D02*
X22352000Y-14668500D01*
X22352000Y-14668500D02*
X22352000Y-14160500D01*
X21590000Y-13652500D02*
X21590000Y-13144500D01*
X21590000Y-13144500D02*
X22352000Y-13144500D01*
X22352000Y-13144500D02*
X22352000Y-13652500D01*
X20320000Y-1841500D02*
X20320000Y-1333500D01*
X20320000Y-1333500D02*
X19558000Y-1333500D01*
X19558000Y-1333500D02*
X19558000Y-1841500D01*
X20320000Y-2349500D02*
X20320000Y-2857500D01*
X20320000Y-2857500D02*
X19558000Y-2857500D01*
X19558000Y-2857500D02*
X19558000Y-2349500D01*
X20447000Y-18542000D02*
X18669000Y-18542000D01*
X18669000Y-18542000D02*
X18669000Y-15494000D01*
X18669000Y-15494000D02*
X20447000Y-15494000D01*
X20447000Y-15494000D02*
X20447000Y-18542000D01*
X14501905Y-4262381D02*
X14501905Y-3262381D01*
X14740000Y-3262381D01*
X14882858Y-3310000D01*
X14978096Y-3405238D01*
X15025715Y-3500476D01*
X15073334Y-3690952D01*
X15073334Y-3833810D01*
X15025715Y-4024286D01*
X14978096Y-4119524D01*
X14882858Y-4214762D01*
X14740000Y-4262381D01*
X14501905Y-4262381D01*
X16025715Y-4262381D02*
X15454286Y-4262381D01*
X15740000Y-4262381D02*
X15740000Y-3262381D01*
X15644762Y-3405238D01*
X15549524Y-3500476D01*
X15454286Y-3548095D01*
X26122405Y-7437381D02*
X26122405Y-6437381D01*
X26503358Y-6437381D01*
X26598596Y-6485000D01*
X26646215Y-6532619D01*
X26693834Y-6627857D01*
X26693834Y-6770714D01*
X26646215Y-6865952D01*
X26598596Y-6913571D01*
X26503358Y-6961190D01*
X26122405Y-6961190D01*
X27550977Y-6437381D02*
X27360500Y-6437381D01*
X27265262Y-6485000D01*
X27217643Y-6532619D01*
X27122405Y-6675476D01*
X27074786Y-6865952D01*
X27074786Y-7246905D01*
X27122405Y-7342143D01*
X27170024Y-7389762D01*
X27265262Y-7437381D01*
X27455739Y-7437381D01*
X27550977Y-7389762D01*
X27598596Y-7342143D01*
X27646215Y-7246905D01*
X27646215Y-7008810D01*
X27598596Y-6913571D01*
X27550977Y-6865952D01*
X27455739Y-6818333D01*
X27265262Y-6818333D01*
X27170024Y-6865952D01*
X27122405Y-6913571D01*
X27074786Y-7008810D01*
X22669643Y-6770714D02*
X22669643Y-7437381D01*
X22669643Y-6865952D02*
X22717262Y-6818333D01*
X22812500Y-6770714D01*
X22955358Y-6770714D01*
X23050596Y-6818333D01*
X23098215Y-6913571D01*
X23098215Y-7437381D01*
X24145834Y-7437381D02*
X23812500Y-6961190D01*
X23574405Y-7437381D02*
X23574405Y-6437381D01*
X23955358Y-6437381D01*
X24050596Y-6485000D01*
X24098215Y-6532619D01*
X24145834Y-6627857D01*
X24145834Y-6770714D01*
X24098215Y-6865952D01*
X24050596Y-6913571D01*
X23955358Y-6961190D01*
X23574405Y-6961190D01*
X24907739Y-6913571D02*
X24574405Y-6913571D01*
X24574405Y-7437381D02*
X24574405Y-6437381D01*
X25050596Y-6437381D01*
X14044111Y-6230688D02*
X13976768Y-6230688D01*
X13842081Y-6163344D01*
X13774737Y-6096001D01*
X13707393Y-5961313D01*
X13707393Y-5826626D01*
X13741065Y-5725611D01*
X13842080Y-5557253D01*
X13943096Y-5456237D01*
X14111455Y-5355222D01*
X14212470Y-5321550D01*
X14347157Y-5321550D01*
X14481844Y-5388894D01*
X14549188Y-5456237D01*
X14616531Y-5590924D01*
X14616531Y-5658268D01*
X14650203Y-6971466D02*
X14246141Y-6567405D01*
X14448172Y-6769435D02*
X15155278Y-6062328D01*
X14986920Y-6096000D01*
X14852233Y-6096000D01*
X14751218Y-6062328D01*
X14962143Y-16676666D02*
X15009762Y-16724285D01*
X15057381Y-16867142D01*
X15057381Y-16962380D01*
X15009762Y-17105238D01*
X14914524Y-17200476D01*
X14819286Y-17248095D01*
X14628810Y-17295714D01*
X14485952Y-17295714D01*
X14295476Y-17248095D01*
X14200238Y-17200476D01*
X14105000Y-17105238D01*
X14057381Y-16962380D01*
X14057381Y-16867142D01*
X14105000Y-16724285D01*
X14152619Y-16676666D01*
X14152619Y-16295714D02*
X14105000Y-16248095D01*
X14057381Y-16152857D01*
X14057381Y-15914761D01*
X14105000Y-15819523D01*
X14152619Y-15771904D01*
X14247857Y-15724285D01*
X14343095Y-15724285D01*
X14485952Y-15771904D01*
X15057381Y-16343333D01*
X15057381Y-15724285D01*
X2013643Y-15247378D02*
X1946300Y-15247378D01*
X1811613Y-15180034D01*
X1744269Y-15112691D01*
X1676925Y-14978003D01*
X1676925Y-14843316D01*
X1710597Y-14742301D01*
X1811612Y-14573943D01*
X1912628Y-14472927D01*
X2080987Y-14371912D01*
X2182002Y-14338240D01*
X2316689Y-14338240D01*
X2451376Y-14405584D01*
X2518720Y-14472927D01*
X2586063Y-14607614D01*
X2586063Y-14674958D01*
X2889108Y-14843316D02*
X3326842Y-15281049D01*
X2821765Y-15314720D01*
X2922781Y-15415736D01*
X2956453Y-15516751D01*
X2956453Y-15584095D01*
X2922780Y-15685111D01*
X2754422Y-15853469D01*
X2653406Y-15887141D01*
X2586063Y-15887141D01*
X2485048Y-15853469D01*
X2283017Y-15651438D01*
X2249345Y-15550423D01*
X2249345Y-15483080D01*
X9138924Y-1272153D02*
X9138924Y-1339496D01*
X9071580Y-1474183D01*
X9004237Y-1541527D01*
X8869549Y-1608871D01*
X8734862Y-1608871D01*
X8633847Y-1575199D01*
X8465489Y-1474184D01*
X8364473Y-1373168D01*
X8263458Y-1204809D01*
X8229786Y-1103794D01*
X8229786Y-969107D01*
X8297130Y-834420D01*
X8364473Y-767076D01*
X8499160Y-699733D01*
X8566504Y-699733D01*
X9340954Y-262000D02*
X9812359Y-733405D01*
X8903221Y-160986D02*
X9239939Y-834421D01*
X9677672Y-396688D01*
X22264643Y-15978166D02*
X22312262Y-16025785D01*
X22359881Y-16168642D01*
X22359881Y-16263880D01*
X22312262Y-16406738D01*
X22217024Y-16501976D01*
X22121786Y-16549595D01*
X21931310Y-16597214D01*
X21788452Y-16597214D01*
X21597976Y-16549595D01*
X21502738Y-16501976D01*
X21407500Y-16406738D01*
X21359881Y-16263880D01*
X21359881Y-16168642D01*
X21407500Y-16025785D01*
X21455119Y-15978166D01*
X21359881Y-15073404D02*
X21359881Y-15549595D01*
X21836071Y-15597214D01*
X21788452Y-15549595D01*
X21740833Y-15454357D01*
X21740833Y-15216261D01*
X21788452Y-15121023D01*
X21836071Y-15073404D01*
X21931310Y-15025785D01*
X22169405Y-15025785D01*
X22264643Y-15073404D01*
X22312262Y-15121023D01*
X22359881Y-15216261D01*
X22359881Y-15454357D01*
X22312262Y-15549595D01*
X22264643Y-15597214D01*
X6923085Y-9129126D02*
X6215978Y-8422019D01*
X7596520Y-8321004D02*
X7596520Y-8388348D01*
X7529177Y-8523035D01*
X7461833Y-8590378D01*
X7327146Y-8657722D01*
X7192459Y-8657722D01*
X7091444Y-8624050D01*
X6923085Y-8523035D01*
X6822069Y-8422019D01*
X6721054Y-8253661D01*
X6687382Y-8152646D01*
X6687382Y-8017959D01*
X6754727Y-7883271D01*
X6822070Y-7815928D01*
X6956757Y-7748584D01*
X7024100Y-7748584D01*
X8337299Y-7714913D02*
X7933237Y-8118974D01*
X8135268Y-7916944D02*
X7428161Y-7209837D01*
X7461833Y-7378196D01*
X7461833Y-7512882D01*
X7428161Y-7613898D01*
X10666767Y-1656996D02*
X10094346Y-1555981D01*
X10262706Y-2061058D02*
X9555599Y-1353951D01*
X9824973Y-1084576D01*
X9925989Y-1050905D01*
X9993332Y-1050905D01*
X10094347Y-1084576D01*
X10195362Y-1185592D01*
X10229034Y-1286607D01*
X10229034Y-1353950D01*
X10195362Y-1454965D01*
X9925988Y-1724340D01*
X11340202Y-983561D02*
X10936141Y-1387623D01*
X11138171Y-1185592D02*
X10431064Y-478486D01*
X10464736Y-646844D01*
X10464736Y-781531D01*
X10431064Y-882546D01*
X22359881Y-12295166D02*
X21883690Y-12628500D01*
X22359881Y-12866595D02*
X21359881Y-12866595D01*
X21359881Y-12485642D01*
X21407500Y-12390404D01*
X21455119Y-12342785D01*
X21550357Y-12295166D01*
X21693214Y-12295166D01*
X21788452Y-12342785D01*
X21836071Y-12390404D01*
X21883690Y-12485642D01*
X21883690Y-12866595D01*
X21455119Y-11914214D02*
X21407500Y-11866595D01*
X21359881Y-11771357D01*
X21359881Y-11533261D01*
X21407500Y-11438023D01*
X21455119Y-11390404D01*
X21550357Y-11342785D01*
X21645595Y-11342785D01*
X21788452Y-11390404D01*
X22359881Y-11961833D01*
X22359881Y-11342785D01*
X21359834Y-2547881D02*
X21026500Y-2071690D01*
X20788405Y-2547881D02*
X20788405Y-1547881D01*
X21169358Y-1547881D01*
X21264596Y-1595500D01*
X21312215Y-1643119D01*
X21359834Y-1738357D01*
X21359834Y-1881214D01*
X21312215Y-1976452D01*
X21264596Y-2024071D01*
X21169358Y-2071690D01*
X20788405Y-2071690D01*
X21693167Y-1547881D02*
X22312215Y-1547881D01*
X21978881Y-1928833D01*
X22121739Y-1928833D01*
X22216977Y-1976452D01*
X22264596Y-2024071D01*
X22312215Y-2119310D01*
X22312215Y-2357405D01*
X22264596Y-2452643D01*
X22216977Y-2500262D01*
X22121739Y-2547881D01*
X21836024Y-2547881D01*
X21740786Y-2500262D01*
X21693167Y-2452643D01*
X16533881Y-17779905D02*
X17343405Y-17779905D01*
X17438643Y-17732286D01*
X17486262Y-17684667D01*
X17533881Y-17589429D01*
X17533881Y-17398952D01*
X17486262Y-17303714D01*
X17438643Y-17256095D01*
X17343405Y-17208476D01*
X16533881Y-17208476D01*
X17533881Y-16208476D02*
X17533881Y-16779905D01*
X17533881Y-16494191D02*
X16533881Y-16494191D01*
X16676738Y-16589429D01*
X16771976Y-16684667D01*
X16819595Y-16779905D01*
%LPC*%
D12*
X12954000Y-15557500D03*
D13*
X12700000Y-1778000D03*
D14*
X15240000Y-1778000D03*
X17780000Y-1778000D03*
D13*
X23876000Y-9017000D03*
D14*
X26416000Y-9017000D03*
X23876000Y-11557000D03*
X26416000Y-11557000D03*
X23876000Y-14097000D03*
X26416000Y-14097000D03*
X23876000Y-16637000D03*
X26416000Y-16637000D03*
D12*
X1524000Y-8890000D03*
X1524000Y-5080000D03*
X6604000Y-1524000D03*
X1778000Y-13462000D03*
D10*
G36*
X13878825Y-4945957D02*
X13454957Y-5369825D01*
X13172977Y-5087845D01*
X13596845Y-4663977D01*
X13878825Y-4945957D01*
X13878825Y-4945957D01*
G37*
G36*
X13243023Y-4310155D02*
X12819155Y-4734023D01*
X12537175Y-4452043D01*
X12961043Y-4028175D01*
X13243023Y-4310155D01*
X13243023Y-4310155D01*
G37*
D15*
X15748000Y-16959580D03*
X15748000Y-16060420D03*
D10*
G36*
X3972825Y-14470957D02*
X3548957Y-14894825D01*
X3266977Y-14612845D01*
X3690845Y-14188977D01*
X3972825Y-14470957D01*
X3972825Y-14470957D01*
G37*
G36*
X3337023Y-13835155D02*
X2913155Y-14259023D01*
X2631175Y-13977043D01*
X3055043Y-13553175D01*
X3337023Y-13835155D01*
X3337023Y-13835155D01*
G37*
G36*
X7500043Y-2829825D02*
X7076175Y-2405957D01*
X7358155Y-2123977D01*
X7782023Y-2547845D01*
X7500043Y-2829825D01*
X7500043Y-2829825D01*
G37*
G36*
X8135845Y-2194023D02*
X7711977Y-1770155D01*
X7993957Y-1488175D01*
X8417825Y-1912043D01*
X8135845Y-2194023D01*
X8135845Y-2194023D01*
G37*
D15*
X21971000Y-18039080D03*
X21971000Y-17139920D03*
D10*
G36*
X6201475Y-15251094D02*
X5883574Y-14933193D01*
X7297067Y-13519700D01*
X7614968Y-13837601D01*
X6201475Y-15251094D01*
X6201475Y-15251094D01*
G37*
G36*
X5635719Y-14685338D02*
X5317818Y-14367437D01*
X6731311Y-12953944D01*
X7049212Y-13271845D01*
X5635719Y-14685338D01*
X5635719Y-14685338D01*
G37*
G36*
X5069963Y-14119582D02*
X4752062Y-13801681D01*
X6165555Y-12388188D01*
X6483456Y-12706089D01*
X5069963Y-14119582D01*
X5069963Y-14119582D01*
G37*
G36*
X4504206Y-13553826D02*
X4186305Y-13235925D01*
X5599798Y-11822432D01*
X5917699Y-12140333D01*
X4504206Y-13553826D01*
X4504206Y-13553826D01*
G37*
G36*
X3938450Y-12988070D02*
X3620549Y-12670169D01*
X5034042Y-11256676D01*
X5351943Y-11574577D01*
X3938450Y-12988070D01*
X3938450Y-12988070D01*
G37*
G36*
X3372694Y-12422313D02*
X3054793Y-12104412D01*
X4468286Y-10690919D01*
X4786187Y-11008820D01*
X3372694Y-12422313D01*
X3372694Y-12422313D01*
G37*
G36*
X2806938Y-11856557D02*
X2489037Y-11538656D01*
X3902530Y-10125163D01*
X4220431Y-10443064D01*
X2806938Y-11856557D01*
X2806938Y-11856557D01*
G37*
G36*
X2241182Y-11290801D02*
X1923281Y-10972900D01*
X3336774Y-9559407D01*
X3654675Y-9877308D01*
X2241182Y-11290801D01*
X2241182Y-11290801D01*
G37*
G36*
X9008703Y-4530464D02*
X8690802Y-4212563D01*
X10104295Y-2799070D01*
X10422196Y-3116971D01*
X9008703Y-4530464D01*
X9008703Y-4530464D01*
G37*
G36*
X12977976Y-8499738D02*
X12660075Y-8181837D01*
X14073568Y-6768344D01*
X14391469Y-7086245D01*
X12977976Y-8499738D01*
X12977976Y-8499738D01*
G37*
G36*
X12403240Y-7925001D02*
X12085339Y-7607100D01*
X13498832Y-6193607D01*
X13816733Y-6511508D01*
X12403240Y-7925001D01*
X12403240Y-7925001D01*
G37*
G36*
X11828503Y-7350265D02*
X11510602Y-7032364D01*
X12924095Y-5618871D01*
X13241996Y-5936772D01*
X11828503Y-7350265D01*
X11828503Y-7350265D01*
G37*
G36*
X11271727Y-6793489D02*
X10953826Y-6475588D01*
X12367319Y-5062095D01*
X12685220Y-5379996D01*
X11271727Y-6793489D01*
X11271727Y-6793489D01*
G37*
G36*
X10696991Y-6218753D02*
X10379090Y-5900852D01*
X11792583Y-4487359D01*
X12110484Y-4805260D01*
X10696991Y-6218753D01*
X10696991Y-6218753D01*
G37*
G36*
X10140215Y-5661977D02*
X9822314Y-5344076D01*
X11235807Y-3930583D01*
X11553708Y-4248484D01*
X10140215Y-5661977D01*
X10140215Y-5661977D01*
G37*
G36*
X9565479Y-5087240D02*
X9247578Y-4769339D01*
X10661071Y-3355846D01*
X10978972Y-3673747D01*
X9565479Y-5087240D01*
X9565479Y-5087240D01*
G37*
G36*
X3329590Y-8467409D02*
X1916097Y-7053916D01*
X2233998Y-6736015D01*
X3647491Y-8149508D01*
X3329590Y-8467409D01*
X3329590Y-8467409D01*
G37*
G36*
X3893550Y-7903449D02*
X2480057Y-6489956D01*
X2797958Y-6172055D01*
X4211451Y-7585548D01*
X3893550Y-7903449D01*
X3893550Y-7903449D01*
G37*
G36*
X4461102Y-7335896D02*
X3047609Y-5922403D01*
X3365510Y-5604502D01*
X4779003Y-7017995D01*
X4461102Y-7335896D01*
X4461102Y-7335896D01*
G37*
G36*
X5025062Y-6771936D02*
X3611569Y-5358443D01*
X3929470Y-5040542D01*
X5342963Y-6454035D01*
X5025062Y-6771936D01*
X5025062Y-6771936D01*
G37*
G36*
X5592614Y-6204384D02*
X4179121Y-4790891D01*
X4497022Y-4472990D01*
X5910515Y-5886483D01*
X5592614Y-6204384D01*
X5592614Y-6204384D01*
G37*
G36*
X6156574Y-5640424D02*
X4743081Y-4226931D01*
X5060982Y-3909030D01*
X6474475Y-5322523D01*
X6156574Y-5640424D01*
X6156574Y-5640424D01*
G37*
G36*
X6724127Y-5072872D02*
X5310634Y-3659379D01*
X5628535Y-3341478D01*
X7042028Y-4754971D01*
X6724127Y-5072872D01*
X6724127Y-5072872D01*
G37*
G36*
X7288087Y-4508912D02*
X5874594Y-3095419D01*
X6192495Y-2777518D01*
X7605988Y-4191011D01*
X7288087Y-4508912D01*
X7288087Y-4508912D01*
G37*
G36*
X10122255Y-15252890D02*
X8708762Y-13839397D01*
X9026663Y-13521496D01*
X10440156Y-14934989D01*
X10122255Y-15252890D01*
X10122255Y-15252890D01*
G37*
G36*
X10679031Y-14696114D02*
X9265538Y-13282621D01*
X9583439Y-12964720D01*
X10996932Y-14378213D01*
X10679031Y-14696114D01*
X10679031Y-14696114D01*
G37*
G36*
X11253768Y-14121378D02*
X9840275Y-12707885D01*
X10158176Y-12389984D01*
X11571669Y-13803477D01*
X11253768Y-14121378D01*
X11253768Y-14121378D01*
G37*
G36*
X11810544Y-13564602D02*
X10397051Y-12151109D01*
X10714952Y-11833208D01*
X12128445Y-13246701D01*
X11810544Y-13564602D01*
X11810544Y-13564602D01*
G37*
G36*
X12367319Y-13007826D02*
X10953826Y-11594333D01*
X11271727Y-11276432D01*
X12685220Y-12689925D01*
X12367319Y-13007826D01*
X12367319Y-13007826D01*
G37*
G36*
X12942056Y-12433090D02*
X11528563Y-11019597D01*
X11846464Y-10701696D01*
X13259957Y-12115189D01*
X12942056Y-12433090D01*
X12942056Y-12433090D01*
G37*
G36*
X13516792Y-11858353D02*
X12103299Y-10444860D01*
X12421200Y-10126959D01*
X13834693Y-11540452D01*
X13516792Y-11858353D01*
X13516792Y-11858353D01*
G37*
G36*
X14091529Y-11283617D02*
X12678036Y-9870124D01*
X12995937Y-9552223D01*
X14409430Y-10965716D01*
X14091529Y-11283617D01*
X14091529Y-11283617D01*
G37*
D13*
X17145000Y-14097000D03*
D14*
X19685000Y-14097000D03*
X17145000Y-11557000D03*
X19685000Y-11557000D03*
X17145000Y-9017000D03*
X19685000Y-9017000D03*
D12*
X4064000Y-1524000D03*
X1524000Y-1524000D03*
D10*
G36*
X8960543Y-3147325D02*
X8536675Y-2723457D01*
X8818655Y-2441477D01*
X9242523Y-2865345D01*
X8960543Y-3147325D01*
X8960543Y-3147325D01*
G37*
G36*
X9596345Y-2511523D02*
X9172477Y-2087655D01*
X9454457Y-1805675D01*
X9878325Y-2229543D01*
X9596345Y-2511523D01*
X9596345Y-2511523D01*
G37*
D15*
X21971000Y-14356080D03*
X21971000Y-13456920D03*
X19939000Y-1645920D03*
X19939000Y-2545080D03*
D16*
X18288000Y-16065500D03*
X18288000Y-17970500D03*
X20828000Y-16065500D03*
X18288000Y-17018000D03*
X20828000Y-17970500D03*
M02*
