%FSLAX46Y46*%
G04 Gerber Fmt 4.6, Leading zero omitted, Abs format (unit mm)*
G04 Created by KiCad (PCBNEW (2014-10-27 BZR 5228)-product) date 1/30/2015 1:35:51 PM*
%MOMM*%
G01*
G04 APERTURE LIST*
%ADD10C,0.100000*%
%ADD11C,0.150000*%
%ADD12C,0.203200*%
%ADD13C,1.270000*%
%ADD14R,1.727200X1.727200*%
%ADD15O,1.727200X1.727200*%
G04 APERTURE END LIST*
D10*
D11*
X22296381Y-13319095D02*
X21296381Y-13319095D01*
X22248762Y-13747666D02*
X22296381Y-13890523D01*
X22296381Y-14128619D01*
X22248762Y-14223857D01*
X22201143Y-14271476D01*
X22105905Y-14319095D01*
X22010667Y-14319095D01*
X21915429Y-14271476D01*
X21867810Y-14223857D01*
X21820190Y-14128619D01*
X21772571Y-13938142D01*
X21724952Y-13842904D01*
X21677333Y-13795285D01*
X21582095Y-13747666D01*
X21486857Y-13747666D01*
X21391619Y-13795285D01*
X21344000Y-13842904D01*
X21296381Y-13938142D01*
X21296381Y-14176238D01*
X21344000Y-14319095D01*
X22296381Y-14747666D02*
X21296381Y-14747666D01*
X21296381Y-15128619D01*
X21344000Y-15223857D01*
X21391619Y-15271476D01*
X21486857Y-15319095D01*
X21629714Y-15319095D01*
X21724952Y-15271476D01*
X21772571Y-15223857D01*
X21820190Y-15128619D01*
X21820190Y-14747666D01*
X11922143Y-15009881D02*
X11684048Y-16009881D01*
X11493571Y-15295595D01*
X11303095Y-16009881D01*
X11065000Y-15009881D01*
X10684048Y-16009881D02*
X10684048Y-15009881D01*
X10255476Y-16009881D02*
X10255476Y-15486071D01*
X10303095Y-15390833D01*
X10398333Y-15343214D01*
X10541191Y-15343214D01*
X10636429Y-15390833D01*
X10684048Y-15438452D01*
X9779286Y-16009881D02*
X9779286Y-15343214D01*
X9779286Y-15009881D02*
X9826905Y-15057500D01*
X9779286Y-15105119D01*
X9731667Y-15057500D01*
X9779286Y-15009881D01*
X9779286Y-15105119D01*
X9445953Y-15343214D02*
X9065001Y-15343214D01*
X9303096Y-15009881D02*
X9303096Y-15867024D01*
X9255477Y-15962262D01*
X9160239Y-16009881D01*
X9065001Y-16009881D01*
X8350714Y-15962262D02*
X8445952Y-16009881D01*
X8636429Y-16009881D01*
X8731667Y-15962262D01*
X8779286Y-15867024D01*
X8779286Y-15486071D01*
X8731667Y-15390833D01*
X8636429Y-15343214D01*
X8445952Y-15343214D01*
X8350714Y-15390833D01*
X8303095Y-15486071D01*
X8303095Y-15581310D01*
X8779286Y-15676548D01*
X6683429Y-8866190D02*
X6683429Y-9342381D01*
X7016762Y-8342381D02*
X6683429Y-8866190D01*
X6350095Y-8342381D01*
X5635809Y-9294762D02*
X5731047Y-9342381D01*
X5921524Y-9342381D01*
X6016762Y-9294762D01*
X6064381Y-9199524D01*
X6064381Y-8818571D01*
X6016762Y-8723333D01*
X5921524Y-8675714D01*
X5731047Y-8675714D01*
X5635809Y-8723333D01*
X5588190Y-8818571D01*
X5588190Y-8913810D01*
X6064381Y-9009048D01*
X5016762Y-9342381D02*
X5112000Y-9294762D01*
X5159619Y-9199524D01*
X5159619Y-8342381D01*
X4492952Y-9342381D02*
X4588190Y-9294762D01*
X4635809Y-9199524D01*
X4635809Y-8342381D01*
X3969142Y-9342381D02*
X4064380Y-9294762D01*
X4111999Y-9247143D01*
X4159618Y-9151905D01*
X4159618Y-8866190D01*
X4111999Y-8770952D01*
X4064380Y-8723333D01*
X3969142Y-8675714D01*
X3826284Y-8675714D01*
X3731046Y-8723333D01*
X3683427Y-8770952D01*
X3635808Y-8866190D01*
X3635808Y-9151905D01*
X3683427Y-9247143D01*
X3731046Y-9294762D01*
X3826284Y-9342381D01*
X3969142Y-9342381D01*
X3302475Y-8675714D02*
X3111999Y-9342381D01*
X2921522Y-8866190D01*
X2731046Y-9342381D01*
X2540570Y-8675714D01*
X5667429Y-5548381D02*
X5476952Y-5548381D01*
X5381714Y-5596000D01*
X5286476Y-5691238D01*
X5238857Y-5881714D01*
X5238857Y-6215048D01*
X5286476Y-6405524D01*
X5381714Y-6500762D01*
X5476952Y-6548381D01*
X5667429Y-6548381D01*
X5762667Y-6500762D01*
X5857905Y-6405524D01*
X5905524Y-6215048D01*
X5905524Y-5881714D01*
X5857905Y-5691238D01*
X5762667Y-5596000D01*
X5667429Y-5548381D01*
X4810286Y-6548381D02*
X4810286Y-5881714D01*
X4810286Y-6072190D02*
X4762667Y-5976952D01*
X4715048Y-5929333D01*
X4619810Y-5881714D01*
X4524571Y-5881714D01*
X3762666Y-6548381D02*
X3762666Y-6024571D01*
X3810285Y-5929333D01*
X3905523Y-5881714D01*
X4096000Y-5881714D01*
X4191238Y-5929333D01*
X3762666Y-6500762D02*
X3857904Y-6548381D01*
X4096000Y-6548381D01*
X4191238Y-6500762D01*
X4238857Y-6405524D01*
X4238857Y-6310286D01*
X4191238Y-6215048D01*
X4096000Y-6167429D01*
X3857904Y-6167429D01*
X3762666Y-6119810D01*
X3286476Y-5881714D02*
X3286476Y-6548381D01*
X3286476Y-5976952D02*
X3238857Y-5929333D01*
X3143619Y-5881714D01*
X3000761Y-5881714D01*
X2905523Y-5929333D01*
X2857904Y-6024571D01*
X2857904Y-6548381D01*
X1953142Y-5881714D02*
X1953142Y-6691238D01*
X2000761Y-6786476D01*
X2048380Y-6834095D01*
X2143619Y-6881714D01*
X2286476Y-6881714D01*
X2381714Y-6834095D01*
X1953142Y-6500762D02*
X2048380Y-6548381D01*
X2238857Y-6548381D01*
X2334095Y-6500762D01*
X2381714Y-6453143D01*
X2429333Y-6357905D01*
X2429333Y-6072190D01*
X2381714Y-5976952D01*
X2334095Y-5929333D01*
X2238857Y-5881714D01*
X2048380Y-5881714D01*
X1953142Y-5929333D01*
X1095999Y-6500762D02*
X1191237Y-6548381D01*
X1381714Y-6548381D01*
X1476952Y-6500762D01*
X1524571Y-6405524D01*
X1524571Y-6024571D01*
X1476952Y-5929333D01*
X1381714Y-5881714D01*
X1191237Y-5881714D01*
X1095999Y-5929333D01*
X1048380Y-6024571D01*
X1048380Y-6119810D01*
X1524571Y-6215048D01*
X7056381Y-3095524D02*
X6580190Y-2762190D01*
X7056381Y-2524095D02*
X6056381Y-2524095D01*
X6056381Y-2905048D01*
X6104000Y-3000286D01*
X6151619Y-3047905D01*
X6246857Y-3095524D01*
X6389714Y-3095524D01*
X6484952Y-3047905D01*
X6532571Y-3000286D01*
X6580190Y-2905048D01*
X6580190Y-2524095D01*
X7008762Y-3905048D02*
X7056381Y-3809810D01*
X7056381Y-3619333D01*
X7008762Y-3524095D01*
X6913524Y-3476476D01*
X6532571Y-3476476D01*
X6437333Y-3524095D01*
X6389714Y-3619333D01*
X6389714Y-3809810D01*
X6437333Y-3905048D01*
X6532571Y-3952667D01*
X6627810Y-3952667D01*
X6723048Y-3476476D01*
X7056381Y-4809810D02*
X6056381Y-4809810D01*
X7008762Y-4809810D02*
X7056381Y-4714572D01*
X7056381Y-4524095D01*
X7008762Y-4428857D01*
X6961143Y-4381238D01*
X6865905Y-4333619D01*
X6580190Y-4333619D01*
X6484952Y-4381238D01*
X6437333Y-4428857D01*
X6389714Y-4524095D01*
X6389714Y-4714572D01*
X6437333Y-4809810D01*
X6286571Y-13390571D02*
X6143714Y-13438190D01*
X6096095Y-13485810D01*
X6048476Y-13581048D01*
X6048476Y-13723905D01*
X6096095Y-13819143D01*
X6143714Y-13866762D01*
X6238952Y-13914381D01*
X6619905Y-13914381D01*
X6619905Y-12914381D01*
X6286571Y-12914381D01*
X6191333Y-12962000D01*
X6143714Y-13009619D01*
X6096095Y-13104857D01*
X6096095Y-13200095D01*
X6143714Y-13295333D01*
X6191333Y-13342952D01*
X6286571Y-13390571D01*
X6619905Y-13390571D01*
X5619905Y-13914381D02*
X5619905Y-13247714D01*
X5619905Y-13438190D02*
X5572286Y-13342952D01*
X5524667Y-13295333D01*
X5429429Y-13247714D01*
X5334190Y-13247714D01*
X4858000Y-13914381D02*
X4953238Y-13866762D01*
X5000857Y-13819143D01*
X5048476Y-13723905D01*
X5048476Y-13438190D01*
X5000857Y-13342952D01*
X4953238Y-13295333D01*
X4858000Y-13247714D01*
X4715142Y-13247714D01*
X4619904Y-13295333D01*
X4572285Y-13342952D01*
X4524666Y-13438190D01*
X4524666Y-13723905D01*
X4572285Y-13819143D01*
X4619904Y-13866762D01*
X4715142Y-13914381D01*
X4858000Y-13914381D01*
X4191333Y-13247714D02*
X4000857Y-13914381D01*
X3810380Y-13438190D01*
X3619904Y-13914381D01*
X3429428Y-13247714D01*
X3048476Y-13247714D02*
X3048476Y-13914381D01*
X3048476Y-13342952D02*
X3000857Y-13295333D01*
X2905619Y-13247714D01*
X2762761Y-13247714D01*
X2667523Y-13295333D01*
X2619904Y-13390571D01*
X2619904Y-13914381D01*
D12*
X27492852Y-3975100D02*
X27566935Y-4567767D01*
X27503435Y-4059767D02*
X27455811Y-4017433D01*
X27365852Y-3975100D01*
X27238852Y-3975100D01*
X27159478Y-4017433D01*
X27127727Y-4102100D01*
X27185935Y-4567767D01*
X26418645Y-4525433D02*
X26508602Y-4567767D01*
X26677936Y-4567767D01*
X26757311Y-4525433D01*
X26789061Y-4440767D01*
X26746728Y-4102100D01*
X26693811Y-4017433D01*
X26603853Y-3975100D01*
X26434519Y-3975100D01*
X26355145Y-4017433D01*
X26323394Y-4102100D01*
X26333977Y-4186767D01*
X26767895Y-4271433D01*
X26037645Y-4525433D02*
X25958269Y-4567767D01*
X25788936Y-4567767D01*
X25698978Y-4525433D01*
X25646061Y-4440767D01*
X25640770Y-4398433D01*
X25672519Y-4313767D01*
X25751895Y-4271433D01*
X25878895Y-4271433D01*
X25958269Y-4229100D01*
X25990020Y-4144433D01*
X25984728Y-4102100D01*
X25931811Y-4017433D01*
X25841853Y-3975100D01*
X25714853Y-3975100D01*
X25635478Y-4017433D01*
X24772935Y-4567767D02*
X25016353Y-4144433D01*
X25280935Y-4567767D02*
X25169810Y-3678767D01*
X24831144Y-3678767D01*
X24751769Y-3721100D01*
X24714728Y-3763433D01*
X24682977Y-3848100D01*
X24698852Y-3975100D01*
X24751769Y-4059767D01*
X24799394Y-4102100D01*
X24889353Y-4144433D01*
X25228019Y-4144433D01*
X24037394Y-4102100D02*
X24333727Y-4102100D01*
X24391935Y-4567767D02*
X24280810Y-3678767D01*
X23857477Y-3678767D01*
X20957646Y-4525433D02*
X20835937Y-4567767D01*
X20624270Y-4567767D01*
X20534312Y-4525433D01*
X20486687Y-4483100D01*
X20433771Y-4398433D01*
X20423187Y-4313767D01*
X20454937Y-4229100D01*
X20491978Y-4186767D01*
X20571354Y-4144433D01*
X20735395Y-4102100D01*
X20814770Y-4059767D01*
X20851812Y-4017433D01*
X20883562Y-3932767D01*
X20872979Y-3848100D01*
X20820062Y-3763433D01*
X20772437Y-3721100D01*
X20682478Y-3678767D01*
X20470812Y-3678767D01*
X20349104Y-3721100D01*
X20073936Y-4567767D02*
X19962811Y-3678767D01*
X19565936Y-4567767D01*
X19454811Y-3678767D01*
X19084395Y-4102100D02*
X18788062Y-4102100D01*
X18719270Y-4567767D02*
X19142603Y-4567767D01*
X19031478Y-3678767D01*
X18608145Y-3678767D01*
X18375313Y-4525433D02*
X18253604Y-4567767D01*
X18041937Y-4567767D01*
X17951979Y-4525433D01*
X17904354Y-4483100D01*
X17851438Y-4398433D01*
X17840854Y-4313767D01*
X17872604Y-4229100D01*
X17909645Y-4186767D01*
X17989021Y-4144433D01*
X18153062Y-4102100D01*
X18232437Y-4059767D01*
X18269479Y-4017433D01*
X18301229Y-3932767D01*
X18290646Y-3848100D01*
X18237729Y-3763433D01*
X18190104Y-3721100D01*
X18100145Y-3678767D01*
X17888479Y-3678767D01*
X17766771Y-3721100D01*
X16306270Y-4567767D02*
X16549688Y-4144433D01*
X16814270Y-4567767D02*
X16703145Y-3678767D01*
X16364479Y-3678767D01*
X16285104Y-3721100D01*
X16248063Y-3763433D01*
X16216312Y-3848100D01*
X16232187Y-3975100D01*
X16285104Y-4059767D01*
X16332729Y-4102100D01*
X16422688Y-4144433D01*
X16761354Y-4144433D01*
X15581313Y-4525433D02*
X15671270Y-4567767D01*
X15840604Y-4567767D01*
X15919979Y-4525433D01*
X15951729Y-4440767D01*
X15909396Y-4102100D01*
X15856479Y-4017433D01*
X15766521Y-3975100D01*
X15597187Y-3975100D01*
X15517813Y-4017433D01*
X15486062Y-4102100D01*
X15496645Y-4186767D01*
X15930563Y-4271433D01*
X14776979Y-4525433D02*
X14866937Y-4567767D01*
X15036270Y-4567767D01*
X15115646Y-4525433D01*
X15152687Y-4483100D01*
X15184438Y-4398433D01*
X15152688Y-4144433D01*
X15099770Y-4059767D01*
X15052146Y-4017433D01*
X14962187Y-3975100D01*
X14792854Y-3975100D01*
X14713479Y-4017433D01*
X14057313Y-4525433D02*
X14147270Y-4567767D01*
X14316604Y-4567767D01*
X14395979Y-4525433D01*
X14427729Y-4440767D01*
X14385396Y-4102100D01*
X14332479Y-4017433D01*
X14242521Y-3975100D01*
X14073187Y-3975100D01*
X13993813Y-4017433D01*
X13962062Y-4102100D01*
X13972645Y-4186767D01*
X14406563Y-4271433D01*
X13639270Y-4567767D02*
X13565187Y-3975100D01*
X13528145Y-3678767D02*
X13575771Y-3721100D01*
X13538729Y-3763433D01*
X13491104Y-3721100D01*
X13528145Y-3678767D01*
X13538729Y-3763433D01*
X13226521Y-3975100D02*
X13088937Y-4567767D01*
X12803188Y-3975100D01*
X12194647Y-4525433D02*
X12284604Y-4567767D01*
X12453938Y-4567767D01*
X12533313Y-4525433D01*
X12565063Y-4440767D01*
X12522730Y-4102100D01*
X12469813Y-4017433D01*
X12379855Y-3975100D01*
X12210521Y-3975100D01*
X12131147Y-4017433D01*
X12099396Y-4102100D01*
X12109979Y-4186767D01*
X12543897Y-4271433D01*
X11776604Y-4567767D02*
X11702521Y-3975100D01*
X11723688Y-4144433D02*
X11670771Y-4059767D01*
X11623147Y-4017433D01*
X11533188Y-3975100D01*
X11448521Y-3975100D01*
X27164768Y-6015567D02*
X27106560Y-5549900D01*
X27138311Y-5465233D01*
X27217685Y-5422900D01*
X27387019Y-5422900D01*
X27476977Y-5465233D01*
X27159477Y-5973233D02*
X27249435Y-6015567D01*
X27461102Y-6015567D01*
X27540477Y-5973233D01*
X27572227Y-5888567D01*
X27561644Y-5803900D01*
X27508727Y-5719233D01*
X27418769Y-5676900D01*
X27207102Y-5676900D01*
X27117143Y-5634567D01*
X26741435Y-6015567D02*
X26667352Y-5422900D01*
X26688519Y-5592233D02*
X26635602Y-5507567D01*
X26587978Y-5465233D01*
X26498019Y-5422900D01*
X26413352Y-5422900D01*
X25810102Y-6015567D02*
X25751894Y-5549900D01*
X25783645Y-5465233D01*
X25863019Y-5422900D01*
X26032353Y-5422900D01*
X26122311Y-5465233D01*
X25804811Y-5973233D02*
X25894769Y-6015567D01*
X26106436Y-6015567D01*
X26185811Y-5973233D01*
X26217561Y-5888567D01*
X26206978Y-5803900D01*
X26154061Y-5719233D01*
X26064103Y-5676900D01*
X25852436Y-5676900D01*
X25762477Y-5634567D01*
X25312686Y-5422900D02*
X25386769Y-6015567D01*
X25323269Y-5507567D02*
X25275645Y-5465233D01*
X25185686Y-5422900D01*
X25058686Y-5422900D01*
X24979312Y-5465233D01*
X24947561Y-5549900D01*
X25005769Y-6015567D01*
X24635353Y-5422900D02*
X24296687Y-5422900D01*
X24471311Y-5126567D02*
X24566561Y-5888567D01*
X24534812Y-5973233D01*
X24455436Y-6015567D01*
X24370770Y-6015567D01*
X24074436Y-6015567D02*
X24000353Y-5422900D01*
X23963311Y-5126567D02*
X24010937Y-5168900D01*
X23973895Y-5211233D01*
X23926270Y-5168900D01*
X23963311Y-5126567D01*
X23973895Y-5211233D01*
X23196020Y-5422900D02*
X23270103Y-6015567D01*
X23577020Y-5422900D02*
X23635228Y-5888567D01*
X23603479Y-5973233D01*
X23524103Y-6015567D01*
X23397103Y-6015567D01*
X23307146Y-5973233D01*
X23259520Y-5930900D01*
X22883813Y-5973233D02*
X22804437Y-6015567D01*
X22635104Y-6015567D01*
X22545146Y-5973233D01*
X22492229Y-5888567D01*
X22486938Y-5846233D01*
X22518687Y-5761567D01*
X22598063Y-5719233D01*
X22725063Y-5719233D01*
X22804437Y-5676900D01*
X22836188Y-5592233D01*
X22830896Y-5549900D01*
X22777979Y-5465233D01*
X22688021Y-5422900D01*
X22561021Y-5422900D01*
X22481646Y-5465233D01*
X22116520Y-5930900D02*
X22079479Y-5973233D01*
X22127103Y-6015567D01*
X22164146Y-5973233D01*
X22116520Y-5930900D01*
X22127103Y-6015567D01*
X21317479Y-5973233D02*
X21407437Y-6015567D01*
X21576770Y-6015567D01*
X21656146Y-5973233D01*
X21693187Y-5930900D01*
X21724938Y-5846233D01*
X21693188Y-5592233D01*
X21640270Y-5507567D01*
X21592646Y-5465233D01*
X21502687Y-5422900D01*
X21333354Y-5422900D01*
X21253979Y-5465233D01*
X20814770Y-6015567D02*
X20894146Y-5973233D01*
X20931187Y-5930900D01*
X20962938Y-5846233D01*
X20931188Y-5592233D01*
X20878270Y-5507567D01*
X20830646Y-5465233D01*
X20740687Y-5422900D01*
X20613687Y-5422900D01*
X20534313Y-5465233D01*
X20497270Y-5507567D01*
X20465521Y-5592233D01*
X20497271Y-5846233D01*
X20550187Y-5930900D01*
X20597813Y-5973233D01*
X20687770Y-6015567D01*
X20814770Y-6015567D01*
X20137437Y-6015567D02*
X20063354Y-5422900D01*
X20073937Y-5507567D02*
X20026313Y-5465233D01*
X19936354Y-5422900D01*
X19809354Y-5422900D01*
X19729980Y-5465233D01*
X19698229Y-5549900D01*
X19756437Y-6015567D01*
X19698229Y-5549900D02*
X19645313Y-5465233D01*
X19555354Y-5422900D01*
X19428354Y-5422900D01*
X19348980Y-5465233D01*
X19317229Y-5549900D01*
X19375437Y-6015567D01*
X17232313Y-5126567D02*
X17311688Y-5761567D01*
X17369897Y-5888567D01*
X17465147Y-5973233D01*
X17597438Y-6015567D01*
X17682105Y-6015567D01*
X16539105Y-6015567D02*
X16480897Y-5549900D01*
X16512648Y-5465233D01*
X16592022Y-5422900D01*
X16761356Y-5422900D01*
X16851314Y-5465233D01*
X16533814Y-5973233D02*
X16623772Y-6015567D01*
X16835439Y-6015567D01*
X16914814Y-5973233D01*
X16946564Y-5888567D01*
X16935981Y-5803900D01*
X16883064Y-5719233D01*
X16793106Y-5676900D01*
X16581439Y-5676900D01*
X16491480Y-5634567D01*
X16041689Y-5422900D02*
X16115772Y-6015567D01*
X16052272Y-5507567D02*
X16004648Y-5465233D01*
X15914689Y-5422900D01*
X15787689Y-5422900D01*
X15708315Y-5465233D01*
X15676564Y-5549900D01*
X15734772Y-6015567D01*
X14575899Y-5211233D02*
X14528273Y-5168900D01*
X14438315Y-5126567D01*
X14226648Y-5126567D01*
X14147273Y-5168900D01*
X14110232Y-5211233D01*
X14078482Y-5295900D01*
X14089065Y-5380567D01*
X14147273Y-5507567D01*
X14718773Y-6015567D01*
X14168440Y-6015567D01*
X13506981Y-5126567D02*
X13422314Y-5126567D01*
X13342940Y-5168900D01*
X13305898Y-5211233D01*
X13274148Y-5295900D01*
X13252982Y-5465233D01*
X13279440Y-5676900D01*
X13342940Y-5846233D01*
X13395856Y-5930900D01*
X13443482Y-5973233D01*
X13533439Y-6015567D01*
X13618106Y-6015567D01*
X13697482Y-5973233D01*
X13734523Y-5930900D01*
X13766273Y-5846233D01*
X13787440Y-5676900D01*
X13760982Y-5465233D01*
X13697481Y-5295900D01*
X13644565Y-5211233D01*
X13596940Y-5168900D01*
X13506981Y-5126567D01*
X12475106Y-6015567D02*
X12983106Y-6015567D01*
X12729106Y-6015567D02*
X12617981Y-5126567D01*
X12718522Y-5253567D01*
X12813773Y-5338233D01*
X12903731Y-5380567D01*
X11559647Y-5126567D02*
X11982980Y-5126567D01*
X12078231Y-5549900D01*
X12030605Y-5507567D01*
X11940648Y-5465233D01*
X11728981Y-5465233D01*
X11649605Y-5507567D01*
X11612564Y-5549900D01*
X11580814Y-5634567D01*
X11607273Y-5846233D01*
X11660189Y-5930900D01*
X11707814Y-5973233D01*
X11797772Y-6015567D01*
X12009439Y-6015567D01*
X12088814Y-5973233D01*
X12125856Y-5930900D01*
D11*
X18415000Y-15367000D02*
X18415000Y-12827000D01*
X18415000Y-12827000D02*
X15875000Y-12827000D01*
X15875000Y-15367000D02*
X15875000Y-7747000D01*
X15875000Y-7747000D02*
X20955000Y-7747000D01*
X20955000Y-7747000D02*
X20955000Y-12827000D01*
X15875000Y-15367000D02*
X18415000Y-15367000D01*
X20955000Y-15367000D02*
X18415000Y-15367000D01*
X20955000Y-12827000D02*
X20955000Y-15367000D01*
X22232881Y-7707405D02*
X21232881Y-7707405D01*
X21232881Y-8088358D01*
X21280500Y-8183596D01*
X21328119Y-8231215D01*
X21423357Y-8278834D01*
X21566214Y-8278834D01*
X21661452Y-8231215D01*
X21709071Y-8183596D01*
X21756690Y-8088358D01*
X21756690Y-7707405D01*
X21232881Y-8612167D02*
X21232881Y-9278834D01*
X22232881Y-8850262D01*
X4516381Y-3135334D02*
X4040190Y-2802000D01*
X4516381Y-2563905D02*
X3516381Y-2563905D01*
X3516381Y-2944858D01*
X3564000Y-3040096D01*
X3611619Y-3087715D01*
X3706857Y-3135334D01*
X3849714Y-3135334D01*
X3944952Y-3087715D01*
X3992571Y-3040096D01*
X4040190Y-2944858D01*
X4040190Y-2563905D01*
X3516381Y-3468667D02*
X4516381Y-4135334D01*
X3516381Y-4135334D02*
X4516381Y-3468667D01*
X976381Y-2540095D02*
X976381Y-3111524D01*
X1976381Y-2825809D02*
X976381Y-2825809D01*
X976381Y-3349619D02*
X1976381Y-4016286D01*
X976381Y-4016286D02*
X1976381Y-3349619D01*
%LPC*%
D13*
X12954000Y-15557500D03*
D14*
X12700000Y-1778000D03*
D15*
X15240000Y-1778000D03*
X17780000Y-1778000D03*
D14*
X23876000Y-9017000D03*
D15*
X26416000Y-9017000D03*
X23876000Y-11557000D03*
X26416000Y-11557000D03*
X23876000Y-14097000D03*
X26416000Y-14097000D03*
X23876000Y-16637000D03*
X26416000Y-16637000D03*
D13*
X1524000Y-8890000D03*
X1524000Y-5080000D03*
X6604000Y-1524000D03*
X1778000Y-13462000D03*
D14*
X17145000Y-14097000D03*
D15*
X19685000Y-14097000D03*
X17145000Y-11557000D03*
X19685000Y-11557000D03*
X17145000Y-9017000D03*
X19685000Y-9017000D03*
D13*
X4064000Y-1524000D03*
X1524000Y-1524000D03*
M02*
