%FSLAX46Y46*%
G04 Gerber Fmt 4.6, Leading zero omitted, Abs format (unit mm)*
G04 Created by KiCad (PCBNEW (2014-10-27 BZR 5228)-product) date 4/10/2015 6:23:41 PM*
%MOMM*%
G01*
G04 APERTURE LIST*
%ADD10C,0.100000*%
%ADD11C,0.150000*%
%ADD12C,0.066040*%
%ADD13C,0.177800*%
%ADD14C,1.270000*%
%ADD15R,1.727200X1.727200*%
%ADD16O,1.727200X1.727200*%
%ADD17R,1.400000X1.100000*%
%ADD18R,0.500000X0.600000*%
%ADD19R,0.600000X0.500000*%
%ADD20R,0.400000X0.600000*%
%ADD21R,0.548640X1.198880*%
G04 APERTURE END LIST*
D10*
D11*
X13970000Y-4064000D02*
X19050000Y-4064000D01*
X19050000Y-4064000D02*
X19050000Y-1524000D01*
X19050000Y-1524000D02*
X13970000Y-1524000D01*
X11430000Y-1524000D02*
X13970000Y-1524000D01*
X13970000Y-1524000D02*
X13970000Y-4064000D01*
X11430000Y-1524000D02*
X11430000Y-4064000D01*
X11430000Y-4064000D02*
X13970000Y-4064000D01*
X22606000Y-10287000D02*
X22606000Y-17907000D01*
X22606000Y-17907000D02*
X27686000Y-17907000D01*
X27686000Y-17907000D02*
X27686000Y-7747000D01*
X27686000Y-7747000D02*
X25146000Y-7747000D01*
X22606000Y-7747000D02*
X22606000Y-10287000D01*
X25146000Y-7747000D02*
X25146000Y-10287000D01*
X25146000Y-10287000D02*
X22606000Y-10287000D01*
X22606000Y-7747000D02*
X25146000Y-7747000D01*
X6888000Y-14683000D02*
X7788000Y-14683000D01*
X7788000Y-15583000D02*
X7788000Y-14683000D01*
X13260877Y-7291514D02*
X12452654Y-8099737D01*
X9345486Y-3376123D02*
X8555223Y-4166385D01*
X13260877Y-7291514D02*
X9345486Y-3376123D01*
X12524496Y-9716184D02*
X13296798Y-10488486D01*
X8573184Y-13703417D02*
X9327525Y-14457759D01*
X9309565Y-14475719D02*
X13314759Y-10506446D01*
X2215162Y-7309475D02*
X6094633Y-3394083D01*
X2682136Y-9321052D02*
X7764961Y-14403877D01*
X6130554Y-3394083D02*
X6866935Y-4130464D01*
X2700096Y-8440987D02*
X7693118Y-3447965D01*
X13260877Y-8943882D02*
X7800882Y-3483886D01*
X7782921Y-14421838D02*
X13171075Y-9033684D01*
X2179241Y-10434604D02*
X6166475Y-14421838D01*
X6166475Y-14421838D02*
X6974698Y-13613615D01*
X2671359Y-9295908D02*
X2671359Y-8469724D01*
X2182833Y-10431012D02*
X2994648Y-9619197D01*
X3023385Y-8117698D02*
X2211570Y-7305883D01*
X4195907Y-8875632D02*
G75*
G03X4195907Y-8875632I-479246J0D01*
G01*
X2634000Y-16887000D02*
X2634000Y-16387000D01*
X1684000Y-16387000D02*
X1684000Y-16887000D01*
X9050000Y-15879000D02*
X9050000Y-16379000D01*
X10000000Y-16379000D02*
X10000000Y-15879000D01*
X14482652Y-6190901D02*
X14129099Y-5837348D01*
X13457348Y-6509099D02*
X13810901Y-6862652D01*
X14220000Y-14257000D02*
X13720000Y-14257000D01*
X13720000Y-15207000D02*
X14220000Y-15207000D01*
X3941652Y-12794901D02*
X3588099Y-12441348D01*
X2916348Y-13113099D02*
X3269901Y-13466652D01*
X20861000Y-16514000D02*
X20861000Y-17014000D01*
X21811000Y-17014000D02*
X21811000Y-16514000D01*
X3369454Y-5755008D02*
X3723008Y-5401454D01*
X2980546Y-4658992D02*
X2626992Y-5012546D01*
X22475000Y-745000D02*
X21975000Y-745000D01*
X21975000Y-1795000D02*
X22475000Y-1795000D01*
D12*
X19232880Y-14503400D02*
X18732500Y-14503400D01*
X18732500Y-14503400D02*
X18732500Y-15153640D01*
X19232880Y-15153640D02*
X18732500Y-15153640D01*
X19232880Y-14503400D02*
X19232880Y-15153640D01*
X18282920Y-14503400D02*
X17785080Y-14503400D01*
X17785080Y-14503400D02*
X17785080Y-15153640D01*
X18282920Y-15153640D02*
X17785080Y-15153640D01*
X18282920Y-14503400D02*
X18282920Y-15153640D01*
X17335500Y-14503400D02*
X16835120Y-14503400D01*
X16835120Y-14503400D02*
X16835120Y-15153640D01*
X17335500Y-15153640D02*
X16835120Y-15153640D01*
X17335500Y-14503400D02*
X17335500Y-15153640D01*
X17335500Y-16850360D02*
X16835120Y-16850360D01*
X16835120Y-16850360D02*
X16835120Y-17500600D01*
X17335500Y-17500600D02*
X16835120Y-17500600D01*
X17335500Y-16850360D02*
X17335500Y-17500600D01*
X19232880Y-16850360D02*
X18732500Y-16850360D01*
X18732500Y-16850360D02*
X18732500Y-17500600D01*
X19232880Y-17500600D02*
X18732500Y-17500600D01*
X19232880Y-16850360D02*
X19232880Y-17500600D01*
D13*
X16611600Y-16812260D02*
X16611600Y-15191740D01*
X16611600Y-15191740D02*
X19456400Y-15191740D01*
X19456400Y-15191740D02*
X19456400Y-16812260D01*
X19456400Y-16812260D02*
X16611600Y-16812260D01*
X18554700Y-16812260D02*
X17513300Y-16812260D01*
X18460720Y-15191740D02*
X18554700Y-15191740D01*
X17513300Y-15191740D02*
X17607280Y-15191740D01*
X19359880Y-15191740D02*
X19456400Y-15191740D01*
X16611600Y-15191740D02*
X16708120Y-15191740D01*
X16708120Y-16812260D02*
X16611600Y-16812260D01*
X19456400Y-16812260D02*
X19359880Y-16812260D01*
D11*
X14501905Y-5278381D02*
X14501905Y-4278381D01*
X14740000Y-4278381D01*
X14882858Y-4326000D01*
X14978096Y-4421238D01*
X15025715Y-4516476D01*
X15073334Y-4706952D01*
X15073334Y-4849810D01*
X15025715Y-5040286D01*
X14978096Y-5135524D01*
X14882858Y-5230762D01*
X14740000Y-5278381D01*
X14501905Y-5278381D01*
X16025715Y-5278381D02*
X15454286Y-5278381D01*
X15740000Y-5278381D02*
X15740000Y-4278381D01*
X15644762Y-4421238D01*
X15549524Y-4516476D01*
X15454286Y-4564095D01*
X26122405Y-7437381D02*
X26122405Y-6437381D01*
X26503358Y-6437381D01*
X26598596Y-6485000D01*
X26646215Y-6532619D01*
X26693834Y-6627857D01*
X26693834Y-6770714D01*
X26646215Y-6865952D01*
X26598596Y-6913571D01*
X26503358Y-6961190D01*
X26122405Y-6961190D01*
X27550977Y-6437381D02*
X27360500Y-6437381D01*
X27265262Y-6485000D01*
X27217643Y-6532619D01*
X27122405Y-6675476D01*
X27074786Y-6865952D01*
X27074786Y-7246905D01*
X27122405Y-7342143D01*
X27170024Y-7389762D01*
X27265262Y-7437381D01*
X27455739Y-7437381D01*
X27550977Y-7389762D01*
X27598596Y-7342143D01*
X27646215Y-7246905D01*
X27646215Y-7008810D01*
X27598596Y-6913571D01*
X27550977Y-6865952D01*
X27455739Y-6818333D01*
X27265262Y-6818333D01*
X27170024Y-6865952D01*
X27122405Y-6913571D01*
X27074786Y-7008810D01*
X22669643Y-6770714D02*
X22669643Y-7437381D01*
X22669643Y-6865952D02*
X22717262Y-6818333D01*
X22812500Y-6770714D01*
X22955358Y-6770714D01*
X23050596Y-6818333D01*
X23098215Y-6913571D01*
X23098215Y-7437381D01*
X24145834Y-7437381D02*
X23812500Y-6961190D01*
X23574405Y-7437381D02*
X23574405Y-6437381D01*
X23955358Y-6437381D01*
X24050596Y-6485000D01*
X24098215Y-6532619D01*
X24145834Y-6627857D01*
X24145834Y-6770714D01*
X24098215Y-6865952D01*
X24050596Y-6913571D01*
X23955358Y-6961190D01*
X23574405Y-6961190D01*
X24907739Y-6913571D02*
X24574405Y-6913571D01*
X24574405Y-7437381D02*
X24574405Y-6437381D01*
X25050596Y-6437381D01*
X11440610Y-14091152D02*
X10733503Y-13384045D01*
X12114045Y-13283030D02*
X12114045Y-13350374D01*
X12046702Y-13485061D01*
X11979358Y-13552404D01*
X11844671Y-13619748D01*
X11709984Y-13619748D01*
X11608969Y-13586076D01*
X11440610Y-13485061D01*
X11339594Y-13384045D01*
X11238579Y-13215687D01*
X11204907Y-13114672D01*
X11204907Y-12979985D01*
X11272252Y-12845297D01*
X11339595Y-12777954D01*
X11474282Y-12710610D01*
X11541625Y-12710610D01*
X12854824Y-12676939D02*
X12450762Y-13081000D01*
X12652793Y-12878970D02*
X11945686Y-12171863D01*
X11979358Y-12340222D01*
X11979358Y-12474908D01*
X11945686Y-12575924D01*
X1246143Y-16803666D02*
X1293762Y-16851285D01*
X1341381Y-16994142D01*
X1341381Y-17089380D01*
X1293762Y-17232238D01*
X1198524Y-17327476D01*
X1103286Y-17375095D01*
X912810Y-17422714D01*
X769952Y-17422714D01*
X579476Y-17375095D01*
X484238Y-17327476D01*
X389000Y-17232238D01*
X341381Y-17089380D01*
X341381Y-16994142D01*
X389000Y-16851285D01*
X436619Y-16803666D01*
X341381Y-15946523D02*
X341381Y-16137000D01*
X389000Y-16232238D01*
X436619Y-16279857D01*
X579476Y-16375095D01*
X769952Y-16422714D01*
X1150905Y-16422714D01*
X1246143Y-16375095D01*
X1293762Y-16327476D01*
X1341381Y-16232238D01*
X1341381Y-16041761D01*
X1293762Y-15946523D01*
X1246143Y-15898904D01*
X1150905Y-15851285D01*
X912810Y-15851285D01*
X817571Y-15898904D01*
X769952Y-15946523D01*
X722333Y-16041761D01*
X722333Y-16232238D01*
X769952Y-16327476D01*
X817571Y-16375095D01*
X912810Y-16422714D01*
X11152143Y-16295666D02*
X11199762Y-16343285D01*
X11247381Y-16486142D01*
X11247381Y-16581380D01*
X11199762Y-16724238D01*
X11104524Y-16819476D01*
X11009286Y-16867095D01*
X10818810Y-16914714D01*
X10675952Y-16914714D01*
X10485476Y-16867095D01*
X10390238Y-16819476D01*
X10295000Y-16724238D01*
X10247381Y-16581380D01*
X10247381Y-16486142D01*
X10295000Y-16343285D01*
X10342619Y-16295666D01*
X10247381Y-15962333D02*
X10247381Y-15295666D01*
X11247381Y-15724238D01*
X15250611Y-8008688D02*
X15183268Y-8008688D01*
X15048581Y-7941344D01*
X14981237Y-7874001D01*
X14913893Y-7739313D01*
X14913893Y-7604626D01*
X14947565Y-7503611D01*
X15048580Y-7335253D01*
X15149596Y-7234237D01*
X15317955Y-7133222D01*
X15418970Y-7099550D01*
X15553657Y-7099550D01*
X15688344Y-7166894D01*
X15755688Y-7234237D01*
X15823031Y-7368924D01*
X15823031Y-7436268D01*
X15856703Y-8749466D02*
X15452641Y-8345405D01*
X15654672Y-8547435D02*
X16361778Y-7840328D01*
X16193420Y-7874000D01*
X16058733Y-7874000D01*
X15957718Y-7840328D01*
X13803334Y-16359143D02*
X13755715Y-16406762D01*
X13612858Y-16454381D01*
X13517620Y-16454381D01*
X13374762Y-16406762D01*
X13279524Y-16311524D01*
X13231905Y-16216286D01*
X13184286Y-16025810D01*
X13184286Y-15882952D01*
X13231905Y-15692476D01*
X13279524Y-15597238D01*
X13374762Y-15502000D01*
X13517620Y-15454381D01*
X13612858Y-15454381D01*
X13755715Y-15502000D01*
X13803334Y-15549619D01*
X14184286Y-15549619D02*
X14231905Y-15502000D01*
X14327143Y-15454381D01*
X14565239Y-15454381D01*
X14660477Y-15502000D01*
X14708096Y-15549619D01*
X14755715Y-15644857D01*
X14755715Y-15740095D01*
X14708096Y-15882952D01*
X14136667Y-16454381D01*
X14755715Y-16454381D01*
X1407611Y-11691688D02*
X1340268Y-11691688D01*
X1205581Y-11624344D01*
X1138237Y-11557001D01*
X1070893Y-11422313D01*
X1070893Y-11287626D01*
X1104565Y-11186611D01*
X1205580Y-11018253D01*
X1306596Y-10917237D01*
X1474955Y-10816222D01*
X1575970Y-10782550D01*
X1710657Y-10782550D01*
X1845344Y-10849894D01*
X1912688Y-10917237D01*
X1980031Y-11051924D01*
X1980031Y-11119268D01*
X2283076Y-11287626D02*
X2720810Y-11725359D01*
X2215733Y-11759030D01*
X2316749Y-11860046D01*
X2350421Y-11961061D01*
X2350421Y-12028405D01*
X2316748Y-12129421D01*
X2148390Y-12297779D01*
X2047374Y-12331451D01*
X1980031Y-12331451D01*
X1879016Y-12297779D01*
X1676985Y-12095748D01*
X1643313Y-11994733D01*
X1643313Y-11927390D01*
X20423143Y-16930666D02*
X20470762Y-16978285D01*
X20518381Y-17121142D01*
X20518381Y-17216380D01*
X20470762Y-17359238D01*
X20375524Y-17454476D01*
X20280286Y-17502095D01*
X20089810Y-17549714D01*
X19946952Y-17549714D01*
X19756476Y-17502095D01*
X19661238Y-17454476D01*
X19566000Y-17359238D01*
X19518381Y-17216380D01*
X19518381Y-17121142D01*
X19566000Y-16978285D01*
X19613619Y-16930666D01*
X19518381Y-16025904D02*
X19518381Y-16502095D01*
X19994571Y-16549714D01*
X19946952Y-16502095D01*
X19899333Y-16406857D01*
X19899333Y-16168761D01*
X19946952Y-16073523D01*
X19994571Y-16025904D01*
X20089810Y-15978285D01*
X20327905Y-15978285D01*
X20423143Y-16025904D01*
X20470762Y-16073523D01*
X20518381Y-16168761D01*
X20518381Y-16406857D01*
X20470762Y-16502095D01*
X20423143Y-16549714D01*
X2488031Y-4755732D02*
X1915610Y-4654717D01*
X2083970Y-5159794D02*
X1376863Y-4452687D01*
X1646237Y-4183312D01*
X1747253Y-4149641D01*
X1814596Y-4149641D01*
X1915611Y-4183312D01*
X2016626Y-4284328D01*
X2050298Y-4385343D01*
X2050298Y-4452686D01*
X2016626Y-4553701D01*
X1747252Y-4823076D01*
X3161466Y-4082297D02*
X2757405Y-4486359D01*
X2959435Y-4284328D02*
X2252328Y-3577222D01*
X2286000Y-3745580D01*
X2286000Y-3880267D01*
X2252328Y-3981282D01*
X22058334Y-3246381D02*
X21725000Y-2770190D01*
X21486905Y-3246381D02*
X21486905Y-2246381D01*
X21867858Y-2246381D01*
X21963096Y-2294000D01*
X22010715Y-2341619D01*
X22058334Y-2436857D01*
X22058334Y-2579714D01*
X22010715Y-2674952D01*
X21963096Y-2722571D01*
X21867858Y-2770190D01*
X21486905Y-2770190D01*
X22391667Y-2246381D02*
X23010715Y-2246381D01*
X22677381Y-2627333D01*
X22820239Y-2627333D01*
X22915477Y-2674952D01*
X22963096Y-2722571D01*
X23010715Y-2817810D01*
X23010715Y-3055905D01*
X22963096Y-3151143D01*
X22915477Y-3198762D01*
X22820239Y-3246381D01*
X22534524Y-3246381D01*
X22439286Y-3198762D01*
X22391667Y-3151143D01*
X17272095Y-12914381D02*
X17272095Y-13723905D01*
X17319714Y-13819143D01*
X17367333Y-13866762D01*
X17462571Y-13914381D01*
X17653048Y-13914381D01*
X17748286Y-13866762D01*
X17795905Y-13819143D01*
X17843524Y-13723905D01*
X17843524Y-12914381D01*
X18843524Y-13914381D02*
X18272095Y-13914381D01*
X18557809Y-13914381D02*
X18557809Y-12914381D01*
X18462571Y-13057238D01*
X18367333Y-13152476D01*
X18272095Y-13200095D01*
%LPC*%
D14*
X1778000Y-1524000D03*
D15*
X12700000Y-2794000D03*
D16*
X15240000Y-2794000D03*
X17780000Y-2794000D03*
D15*
X23876000Y-9017000D03*
D16*
X26416000Y-9017000D03*
X23876000Y-11557000D03*
X26416000Y-11557000D03*
X23876000Y-14097000D03*
X26416000Y-14097000D03*
X23876000Y-16637000D03*
X26416000Y-16637000D03*
D14*
X4318000Y-1524000D03*
X6858000Y-1524000D03*
X9398000Y-1524000D03*
X26670000Y-1524000D03*
X9017000Y-11430000D03*
X7239000Y-11430000D03*
D17*
X4488000Y-15583000D03*
X4488000Y-17183000D03*
X6688000Y-17183000D03*
X6688000Y-15583000D03*
D10*
G36*
X6463721Y-14417348D02*
X6145820Y-14099447D01*
X6852927Y-13392340D01*
X7170828Y-13710241D01*
X6463721Y-14417348D01*
X6463721Y-14417348D01*
G37*
G36*
X5897965Y-13851592D02*
X5580064Y-13533691D01*
X6287171Y-12826584D01*
X6605072Y-13144485D01*
X5897965Y-13851592D01*
X5897965Y-13851592D01*
G37*
G36*
X5332209Y-13285835D02*
X5014308Y-12967934D01*
X5721415Y-12260827D01*
X6039316Y-12578728D01*
X5332209Y-13285835D01*
X5332209Y-13285835D01*
G37*
G36*
X4766453Y-12720079D02*
X4448552Y-12402178D01*
X5155659Y-11695071D01*
X5473560Y-12012972D01*
X4766453Y-12720079D01*
X4766453Y-12720079D01*
G37*
G36*
X4200697Y-12154323D02*
X3882796Y-11836422D01*
X4589903Y-11129315D01*
X4907804Y-11447216D01*
X4200697Y-12154323D01*
X4200697Y-12154323D01*
G37*
G36*
X3634941Y-11588567D02*
X3317040Y-11270666D01*
X4024147Y-10563559D01*
X4342048Y-10881460D01*
X3634941Y-11588567D01*
X3634941Y-11588567D01*
G37*
G36*
X3069184Y-11022811D02*
X2751283Y-10704910D01*
X3458390Y-9997803D01*
X3776291Y-10315704D01*
X3069184Y-11022811D01*
X3069184Y-11022811D01*
G37*
G36*
X2503428Y-10457055D02*
X2185527Y-10139154D01*
X2892634Y-9432047D01*
X3210535Y-9749948D01*
X2503428Y-10457055D01*
X2503428Y-10457055D01*
G37*
G36*
X8563843Y-4403825D02*
X8245942Y-4085924D01*
X8953049Y-3378817D01*
X9270950Y-3696718D01*
X8563843Y-4403825D01*
X8563843Y-4403825D01*
G37*
G36*
X12533116Y-8373098D02*
X12215215Y-8055197D01*
X12922322Y-7348090D01*
X13240223Y-7665991D01*
X12533116Y-8373098D01*
X12533116Y-8373098D01*
G37*
G36*
X11958379Y-7798362D02*
X11640478Y-7480461D01*
X12347585Y-6773354D01*
X12665486Y-7091255D01*
X11958379Y-7798362D01*
X11958379Y-7798362D01*
G37*
G36*
X11383643Y-7223625D02*
X11065742Y-6905724D01*
X11772849Y-6198617D01*
X12090750Y-6516518D01*
X11383643Y-7223625D01*
X11383643Y-7223625D01*
G37*
G36*
X10826867Y-6666849D02*
X10508966Y-6348948D01*
X11216073Y-5641841D01*
X11533974Y-5959742D01*
X10826867Y-6666849D01*
X10826867Y-6666849D01*
G37*
G36*
X10252131Y-6092113D02*
X9934230Y-5774212D01*
X10641337Y-5067105D01*
X10959238Y-5385006D01*
X10252131Y-6092113D01*
X10252131Y-6092113D01*
G37*
G36*
X9695355Y-5535337D02*
X9377454Y-5217436D01*
X10084561Y-4510329D01*
X10402462Y-4828230D01*
X9695355Y-5535337D01*
X9695355Y-5535337D01*
G37*
G36*
X9120618Y-4960601D02*
X8802717Y-4642700D01*
X9509824Y-3935593D01*
X9827725Y-4253494D01*
X9120618Y-4960601D01*
X9120618Y-4960601D01*
G37*
G36*
X2885450Y-8340769D02*
X2178343Y-7633662D01*
X2496244Y-7315761D01*
X3203351Y-8022868D01*
X2885450Y-8340769D01*
X2885450Y-8340769D01*
G37*
G36*
X3449410Y-7776809D02*
X2742303Y-7069702D01*
X3060204Y-6751801D01*
X3767311Y-7458908D01*
X3449410Y-7776809D01*
X3449410Y-7776809D01*
G37*
G36*
X4016962Y-7209257D02*
X3309855Y-6502150D01*
X3627756Y-6184249D01*
X4334863Y-6891356D01*
X4016962Y-7209257D01*
X4016962Y-7209257D01*
G37*
G36*
X4580922Y-6645297D02*
X3873815Y-5938190D01*
X4191716Y-5620289D01*
X4898823Y-6327396D01*
X4580922Y-6645297D01*
X4580922Y-6645297D01*
G37*
G36*
X5148475Y-6077744D02*
X4441368Y-5370637D01*
X4759269Y-5052736D01*
X5466376Y-5759843D01*
X5148475Y-6077744D01*
X5148475Y-6077744D01*
G37*
G36*
X5712435Y-5513784D02*
X5005328Y-4806677D01*
X5323229Y-4488776D01*
X6030336Y-5195883D01*
X5712435Y-5513784D01*
X5712435Y-5513784D01*
G37*
G36*
X6279987Y-4946232D02*
X5572880Y-4239125D01*
X5890781Y-3921224D01*
X6597888Y-4628331D01*
X6279987Y-4946232D01*
X6279987Y-4946232D01*
G37*
G36*
X6843947Y-4382272D02*
X6136840Y-3675165D01*
X6454741Y-3357264D01*
X7161848Y-4064371D01*
X6843947Y-4382272D01*
X6843947Y-4382272D01*
G37*
G36*
X8971009Y-14419144D02*
X8263902Y-13712037D01*
X8581803Y-13394136D01*
X9288910Y-14101243D01*
X8971009Y-14419144D01*
X8971009Y-14419144D01*
G37*
G36*
X9527785Y-13862368D02*
X8820678Y-13155261D01*
X9138579Y-12837360D01*
X9845686Y-13544467D01*
X9527785Y-13862368D01*
X9527785Y-13862368D01*
G37*
G36*
X10102521Y-13287631D02*
X9395414Y-12580524D01*
X9713315Y-12262623D01*
X10420422Y-12969730D01*
X10102521Y-13287631D01*
X10102521Y-13287631D01*
G37*
G36*
X10659297Y-12730856D02*
X9952190Y-12023749D01*
X10270091Y-11705848D01*
X10977198Y-12412955D01*
X10659297Y-12730856D01*
X10659297Y-12730856D01*
G37*
G36*
X11216073Y-12174080D02*
X10508966Y-11466973D01*
X10826867Y-11149072D01*
X11533974Y-11856179D01*
X11216073Y-12174080D01*
X11216073Y-12174080D01*
G37*
G36*
X11790809Y-11599343D02*
X11083702Y-10892236D01*
X11401603Y-10574335D01*
X12108710Y-11281442D01*
X11790809Y-11599343D01*
X11790809Y-11599343D01*
G37*
G36*
X12365546Y-11024607D02*
X11658439Y-10317500D01*
X11976340Y-9999599D01*
X12683447Y-10706706D01*
X12365546Y-11024607D01*
X12365546Y-11024607D01*
G37*
G36*
X12940282Y-10449871D02*
X12233175Y-9742764D01*
X12551076Y-9424863D01*
X13258183Y-10131970D01*
X12940282Y-10449871D01*
X12940282Y-10449871D01*
G37*
D18*
X2159000Y-16087000D03*
X2159000Y-17187000D03*
X9525000Y-16679000D03*
X9525000Y-15579000D03*
D10*
G36*
X13192182Y-5925736D02*
X13545736Y-5572182D01*
X13970000Y-5996446D01*
X13616446Y-6350000D01*
X13192182Y-5925736D01*
X13192182Y-5925736D01*
G37*
G36*
X13970000Y-6703554D02*
X14323554Y-6350000D01*
X14747818Y-6774264D01*
X14394264Y-7127818D01*
X13970000Y-6703554D01*
X13970000Y-6703554D01*
G37*
D19*
X13420000Y-14732000D03*
X14520000Y-14732000D03*
D10*
G36*
X2651182Y-12529736D02*
X3004736Y-12176182D01*
X3429000Y-12600446D01*
X3075446Y-12954000D01*
X2651182Y-12529736D01*
X2651182Y-12529736D01*
G37*
G36*
X3429000Y-13307554D02*
X3782554Y-12954000D01*
X4206818Y-13378264D01*
X3853264Y-13731818D01*
X3429000Y-13307554D01*
X3429000Y-13307554D01*
G37*
D18*
X21336000Y-17314000D03*
X21336000Y-16214000D03*
D10*
G36*
X3422487Y-4535249D02*
X3846751Y-4959513D01*
X3563909Y-5242355D01*
X3139645Y-4818091D01*
X3422487Y-4535249D01*
X3422487Y-4535249D01*
G37*
G36*
X2786091Y-5171645D02*
X3210355Y-5595909D01*
X2927513Y-5878751D01*
X2503249Y-5454487D01*
X2786091Y-5171645D01*
X2786091Y-5171645D01*
G37*
D20*
X21775000Y-1270000D03*
X22675000Y-1270000D03*
D21*
X18983960Y-14704060D03*
X18034000Y-14704060D03*
X17084040Y-14704060D03*
X17084040Y-17299940D03*
X18983960Y-17299940D03*
M02*
