%FSLAX46Y46*%
G04 Gerber Fmt 4.6, Leading zero omitted, Abs format (unit mm)*
G04 Created by KiCad (PCBNEW (2014-10-27 BZR 5228)-product) date 1/30/2015 1:35:51 PM*
%MOMM*%
G01*
G04 APERTURE LIST*
%ADD10C,0.100000*%
%ADD11C,1.270000*%
%ADD12R,1.727200X1.727200*%
%ADD13O,1.727200X1.727200*%
%ADD14C,0.889000*%
%ADD15C,0.254000*%
%ADD16C,0.406400*%
G04 APERTURE END LIST*
D10*
D11*
X12954000Y-15557500D03*
D12*
X12700000Y-1778000D03*
D13*
X15240000Y-1778000D03*
X17780000Y-1778000D03*
D12*
X23876000Y-9017000D03*
D13*
X26416000Y-9017000D03*
X23876000Y-11557000D03*
X26416000Y-11557000D03*
X23876000Y-14097000D03*
X26416000Y-14097000D03*
X23876000Y-16637000D03*
X26416000Y-16637000D03*
D11*
X1524000Y-8890000D03*
X1524000Y-5080000D03*
X6604000Y-1524000D03*
X1778000Y-13462000D03*
D12*
X17145000Y-14097000D03*
D13*
X19685000Y-14097000D03*
X17145000Y-11557000D03*
X19685000Y-11557000D03*
X17145000Y-9017000D03*
X19685000Y-9017000D03*
D11*
X4064000Y-1524000D03*
X1524000Y-1524000D03*
D14*
X9779000Y-8890000D03*
X14351000Y-12509500D03*
X21717000Y-10287000D03*
X14922500Y-13589000D03*
X14414500Y-14732000D03*
X7620000Y-5651500D03*
X7747000Y-762000D03*
X5651500Y-7747000D03*
X13525500Y-17018000D03*
X19685000Y-17018000D03*
X9842500Y-6731000D03*
X14922500Y-9906000D03*
X11430000Y-9906000D03*
X5143500Y-9842500D03*
X23114000Y-1651000D03*
X15113000Y-5143500D03*
D15*
X17145000Y-9017000D02*
X11684000Y-9017000D01*
X11557000Y-8890000D02*
X9779000Y-8890000D01*
X11684000Y-9017000D02*
X11557000Y-8890000D01*
X14351000Y-12509500D02*
X16573500Y-10287000D01*
X16573500Y-10287000D02*
X18415000Y-10287000D01*
X18415000Y-10287000D02*
X19685000Y-11557000D01*
X26416000Y-11557000D02*
X25146000Y-10287000D01*
X25146000Y-10287000D02*
X21717000Y-10287000D01*
X25146000Y-12827000D02*
X26416000Y-14097000D01*
X15684500Y-12827000D02*
X25146000Y-12827000D01*
X14922500Y-13589000D02*
X15684500Y-12827000D01*
X23876000Y-14097000D02*
X22542500Y-15430500D01*
X15113000Y-15430500D02*
X14414500Y-14732000D01*
X22542500Y-15430500D02*
X15113000Y-15430500D01*
D16*
X16002000Y-3556000D02*
X9715500Y-3556000D01*
X9715500Y-3556000D02*
X7620000Y-5651500D01*
X17780000Y-1778000D02*
X16002000Y-3556000D01*
X7747000Y-762000D02*
X7747000Y-2540000D01*
X7747000Y-2540000D02*
X5651500Y-4635500D01*
X5651500Y-4635500D02*
X5651500Y-7747000D01*
X19685000Y-17018000D02*
X13525500Y-17018000D01*
X5143500Y-9842500D02*
X6731000Y-9842500D01*
X6731000Y-9842500D02*
X9842500Y-6731000D01*
X11366500Y-9842500D02*
X11430000Y-9906000D01*
X5143500Y-9842500D02*
X11366500Y-9842500D01*
X14922500Y-9906000D02*
X11430000Y-9906000D01*
X23114000Y-1651000D02*
X19621500Y-5143500D01*
X19621500Y-5143500D02*
X15113000Y-5143500D01*
D15*
G36*
X28017000Y-18238000D02*
X27756707Y-18238000D01*
X27756707Y-16926497D01*
X27756707Y-16347503D01*
X27543866Y-15856473D01*
X27159318Y-15484271D01*
X26725230Y-15304472D01*
X26892288Y-15271243D01*
X27296065Y-15001448D01*
X27565860Y-14597671D01*
X27660600Y-14121383D01*
X27660600Y-14072617D01*
X27565860Y-13596329D01*
X27296065Y-13192552D01*
X26892288Y-12922757D01*
X26416000Y-12828017D01*
X25956781Y-12919361D01*
X25505210Y-12467790D01*
X25340403Y-12357669D01*
X25146000Y-12319000D01*
X24851245Y-12319000D01*
X25025860Y-12057671D01*
X25120600Y-11581383D01*
X25120600Y-11532617D01*
X25025860Y-11056329D01*
X24851245Y-10795000D01*
X24935580Y-10795000D01*
X25254653Y-11114073D01*
X25171400Y-11532617D01*
X25171400Y-11581383D01*
X25266140Y-12057671D01*
X25535935Y-12461448D01*
X25939712Y-12731243D01*
X26416000Y-12825983D01*
X26892288Y-12731243D01*
X27296065Y-12461448D01*
X27565860Y-12057671D01*
X27660600Y-11581383D01*
X27660600Y-11532617D01*
X27660600Y-9041383D01*
X27660600Y-8992617D01*
X27565860Y-8516329D01*
X27296065Y-8112552D01*
X26892288Y-7842757D01*
X26416000Y-7748017D01*
X25939712Y-7842757D01*
X25535935Y-8112552D01*
X25266140Y-8516329D01*
X25171400Y-8992617D01*
X25171400Y-9041383D01*
X25266140Y-9517671D01*
X25535935Y-9921448D01*
X25939712Y-10191243D01*
X26416000Y-10285983D01*
X26892288Y-10191243D01*
X27296065Y-9921448D01*
X27565860Y-9517671D01*
X27660600Y-9041383D01*
X27660600Y-11532617D01*
X27565860Y-11056329D01*
X27296065Y-10652552D01*
X26892288Y-10382757D01*
X26416000Y-10288017D01*
X25956781Y-10379361D01*
X25505210Y-9927790D01*
X25340403Y-9817669D01*
X25146000Y-9779000D01*
X25120600Y-9779000D01*
X25120600Y-8077614D01*
X25062596Y-7937580D01*
X24955419Y-7830404D01*
X24815385Y-7772400D01*
X24663814Y-7772400D01*
X22936614Y-7772400D01*
X22796580Y-7830404D01*
X22689404Y-7937581D01*
X22631400Y-8077615D01*
X22631400Y-8229186D01*
X22631400Y-9779000D01*
X22376302Y-9779000D01*
X22185219Y-9587583D01*
X21881923Y-9461643D01*
X21553518Y-9461357D01*
X21250002Y-9586767D01*
X21017583Y-9818781D01*
X20891643Y-10122077D01*
X20891357Y-10450482D01*
X21016767Y-10753998D01*
X21248781Y-10986417D01*
X21552077Y-11112357D01*
X21880482Y-11112643D01*
X22183998Y-10987233D01*
X22376566Y-10795000D01*
X22900754Y-10795000D01*
X22726140Y-11056329D01*
X22631400Y-11532617D01*
X22631400Y-11581383D01*
X22726140Y-12057671D01*
X22900754Y-12319000D01*
X20660245Y-12319000D01*
X20834860Y-12057671D01*
X20929600Y-11581383D01*
X20929600Y-11532617D01*
X20834860Y-11056329D01*
X20565065Y-10652552D01*
X20161288Y-10382757D01*
X19994230Y-10349527D01*
X20428318Y-10169729D01*
X20812866Y-9797527D01*
X21025707Y-9306497D01*
X21025707Y-8727503D01*
X20812866Y-8236473D01*
X20428318Y-7864271D01*
X19974496Y-7676299D01*
X19761200Y-7774735D01*
X19761200Y-8940800D01*
X20927488Y-8940800D01*
X21025707Y-8727503D01*
X21025707Y-9306497D01*
X20927488Y-9093200D01*
X19761200Y-9093200D01*
X19761200Y-9113200D01*
X19608800Y-9113200D01*
X19608800Y-9093200D01*
X19588800Y-9093200D01*
X19588800Y-8940800D01*
X19608800Y-8940800D01*
X19608800Y-7774735D01*
X19395504Y-7676299D01*
X19048983Y-7819827D01*
X19048983Y-1778000D01*
X18954243Y-1301712D01*
X18684448Y-897935D01*
X18280671Y-628140D01*
X17804383Y-533400D01*
X17755617Y-533400D01*
X17279329Y-628140D01*
X16875552Y-897935D01*
X16605757Y-1301712D01*
X16511017Y-1778000D01*
X16584482Y-2147333D01*
X16286808Y-2445007D01*
X16414243Y-2254288D01*
X16508983Y-1778000D01*
X16414243Y-1301712D01*
X16144448Y-897935D01*
X15740671Y-628140D01*
X15264383Y-533400D01*
X15215617Y-533400D01*
X14739329Y-628140D01*
X14335552Y-897935D01*
X14065757Y-1301712D01*
X13971017Y-1778000D01*
X14065757Y-2254288D01*
X14335552Y-2658065D01*
X14739329Y-2927860D01*
X14960229Y-2971800D01*
X13762028Y-2971800D01*
X13779420Y-2964596D01*
X13886596Y-2857419D01*
X13944600Y-2717385D01*
X13944600Y-2565814D01*
X13944600Y-838614D01*
X13886596Y-698580D01*
X13779419Y-591404D01*
X13639385Y-533400D01*
X13487814Y-533400D01*
X11760614Y-533400D01*
X11620580Y-591404D01*
X11513404Y-698581D01*
X11455400Y-838615D01*
X11455400Y-990186D01*
X11455400Y-2717386D01*
X11513404Y-2857420D01*
X11620581Y-2964596D01*
X11637972Y-2971800D01*
X9715505Y-2971800D01*
X9715500Y-2971799D01*
X9491937Y-3016269D01*
X9429047Y-3058290D01*
X9302408Y-3142908D01*
X9302405Y-3142911D01*
X7619317Y-4825998D01*
X7456518Y-4825857D01*
X7153002Y-4951267D01*
X6920583Y-5183281D01*
X6794643Y-5486577D01*
X6794357Y-5814982D01*
X6919767Y-6118498D01*
X7151781Y-6350917D01*
X7455077Y-6476857D01*
X7783482Y-6477143D01*
X8086998Y-6351733D01*
X8319417Y-6119719D01*
X8445357Y-5816423D01*
X8445500Y-5652183D01*
X9957483Y-4140200D01*
X16002000Y-4140200D01*
X16225563Y-4095730D01*
X16225564Y-4095730D01*
X16415092Y-3969092D01*
X17426958Y-2957225D01*
X17755617Y-3022600D01*
X17804383Y-3022600D01*
X18280671Y-2927860D01*
X18684448Y-2658065D01*
X18954243Y-2254288D01*
X19048983Y-1778000D01*
X19048983Y-7819827D01*
X18941682Y-7864271D01*
X18557134Y-8236473D01*
X18344293Y-8727503D01*
X18442511Y-8940798D01*
X18379292Y-8940798D01*
X18294860Y-8516329D01*
X18025065Y-8112552D01*
X17621288Y-7842757D01*
X17145000Y-7748017D01*
X16668712Y-7842757D01*
X16264935Y-8112552D01*
X16000037Y-8509000D01*
X11883599Y-8509000D01*
X11751403Y-8420669D01*
X11557000Y-8382000D01*
X10438302Y-8382000D01*
X10247219Y-8190583D01*
X9943923Y-8064643D01*
X9615518Y-8064357D01*
X9312002Y-8189767D01*
X9079583Y-8421781D01*
X8953643Y-8725077D01*
X8953357Y-9053482D01*
X9078767Y-9356998D01*
X9310781Y-9589417D01*
X9614077Y-9715357D01*
X9942482Y-9715643D01*
X10245998Y-9590233D01*
X10438566Y-9398000D01*
X11357400Y-9398000D01*
X11489596Y-9486331D01*
X11489597Y-9486331D01*
X11684000Y-9525000D01*
X16000037Y-9525000D01*
X16252232Y-9902437D01*
X16214290Y-9927790D01*
X14457987Y-11684092D01*
X14187518Y-11683857D01*
X13884002Y-11809267D01*
X13651583Y-12041281D01*
X13525643Y-12344577D01*
X13525357Y-12672982D01*
X13650767Y-12976498D01*
X13882781Y-13208917D01*
X14141821Y-13316480D01*
X14097143Y-13424077D01*
X14096857Y-13752482D01*
X14173646Y-13938326D01*
X13947502Y-14031767D01*
X13715083Y-14263781D01*
X13589143Y-14567077D01*
X13588978Y-14755491D01*
X13530269Y-14696679D01*
X13156982Y-14541676D01*
X12752792Y-14541324D01*
X12379234Y-14695675D01*
X12093179Y-14981231D01*
X11938176Y-15354518D01*
X11937824Y-15758708D01*
X12092175Y-16132266D01*
X12377731Y-16418321D01*
X12751018Y-16573324D01*
X13155208Y-16573676D01*
X13528766Y-16419325D01*
X13814821Y-16133769D01*
X13969824Y-15760482D01*
X13970101Y-15441308D01*
X14249577Y-15557357D01*
X14521673Y-15557593D01*
X14753790Y-15789710D01*
X14918596Y-15899831D01*
X14918597Y-15899831D01*
X15113000Y-15938500D01*
X22542500Y-15938500D01*
X22736903Y-15899831D01*
X22901710Y-15789710D01*
X23416781Y-15274638D01*
X23876000Y-15365983D01*
X24352288Y-15271243D01*
X24756065Y-15001448D01*
X25025860Y-14597671D01*
X25120600Y-14121383D01*
X25120600Y-14072617D01*
X25025860Y-13596329D01*
X24851245Y-13335000D01*
X24935580Y-13335000D01*
X25254653Y-13654073D01*
X25171400Y-14072617D01*
X25171400Y-14121383D01*
X25266140Y-14597671D01*
X25535935Y-15001448D01*
X25939712Y-15271243D01*
X26106769Y-15304472D01*
X25672682Y-15484271D01*
X25288134Y-15856473D01*
X25075293Y-16347503D01*
X25173511Y-16560798D01*
X25110292Y-16560798D01*
X25025860Y-16136329D01*
X24756065Y-15732552D01*
X24352288Y-15462757D01*
X23876000Y-15368017D01*
X23399712Y-15462757D01*
X22995935Y-15732552D01*
X22726140Y-16136329D01*
X22631400Y-16612617D01*
X22631400Y-16661383D01*
X22726140Y-17137671D01*
X22995935Y-17541448D01*
X23399712Y-17811243D01*
X23876000Y-17905983D01*
X24352288Y-17811243D01*
X24756065Y-17541448D01*
X25025860Y-17137671D01*
X25110292Y-16713202D01*
X25120600Y-16713202D01*
X25173511Y-16713202D01*
X25120600Y-16828106D01*
X25075293Y-16926497D01*
X25288134Y-17417527D01*
X25672682Y-17789729D01*
X26126504Y-17977701D01*
X26339800Y-17879265D01*
X26339800Y-16713200D01*
X26319800Y-16713200D01*
X26319800Y-16560800D01*
X26339800Y-16560800D01*
X26339800Y-16540800D01*
X26492200Y-16540800D01*
X26492200Y-16560800D01*
X27658488Y-16560800D01*
X27756707Y-16347503D01*
X27756707Y-16926497D01*
X27658488Y-16713200D01*
X26492200Y-16713200D01*
X26492200Y-17879265D01*
X26705496Y-17977701D01*
X27159318Y-17789729D01*
X27543866Y-17417527D01*
X27756707Y-16926497D01*
X27756707Y-18238000D01*
X26339800Y-18238000D01*
X2914661Y-18238000D01*
X2914661Y-13719179D01*
X2914661Y-13204821D01*
X2729720Y-12789416D01*
X2540176Y-12609539D01*
X2540176Y-8688792D01*
X2540176Y-4878792D01*
X2540176Y-1322792D01*
X2385825Y-949234D01*
X2100269Y-663179D01*
X1726982Y-508176D01*
X1322792Y-507824D01*
X949234Y-662175D01*
X663179Y-947731D01*
X508176Y-1321018D01*
X507824Y-1725208D01*
X662175Y-2098766D01*
X947731Y-2384821D01*
X1321018Y-2539824D01*
X1725208Y-2540176D01*
X2098766Y-2385825D01*
X2384821Y-2100269D01*
X2539824Y-1726982D01*
X2540176Y-1322792D01*
X2540176Y-4878792D01*
X2385825Y-4505234D01*
X2100269Y-4219179D01*
X1726982Y-4064176D01*
X1322792Y-4063824D01*
X949234Y-4218175D01*
X663179Y-4503731D01*
X508176Y-4877018D01*
X507824Y-5281208D01*
X662175Y-5654766D01*
X947731Y-5940821D01*
X1321018Y-6095824D01*
X1725208Y-6096176D01*
X2098766Y-5941825D01*
X2384821Y-5656269D01*
X2539824Y-5282982D01*
X2540176Y-4878792D01*
X2540176Y-8688792D01*
X2385825Y-8315234D01*
X2100269Y-8029179D01*
X1726982Y-7874176D01*
X1322792Y-7873824D01*
X949234Y-8028175D01*
X663179Y-8313731D01*
X508176Y-8687018D01*
X507824Y-9091208D01*
X662175Y-9464766D01*
X947731Y-9750821D01*
X1321018Y-9905824D01*
X1725208Y-9906176D01*
X2098766Y-9751825D01*
X2384821Y-9466269D01*
X2539824Y-9092982D01*
X2540176Y-8688792D01*
X2540176Y-12609539D01*
X2399888Y-12476406D01*
X2035179Y-12325339D01*
X1854200Y-12426407D01*
X1854200Y-13385800D01*
X2813593Y-13385800D01*
X2914661Y-13204821D01*
X2914661Y-13719179D01*
X2813593Y-13538200D01*
X1854200Y-13538200D01*
X1854200Y-14497593D01*
X2035179Y-14598661D01*
X2450584Y-14413720D01*
X2763594Y-14083888D01*
X2914661Y-13719179D01*
X2914661Y-18238000D01*
X1701800Y-18238000D01*
X1701800Y-14497593D01*
X1701800Y-13538200D01*
X1701800Y-13385800D01*
X1701800Y-12426407D01*
X1520821Y-12325339D01*
X1105416Y-12510280D01*
X792406Y-12840112D01*
X641339Y-13204821D01*
X742407Y-13385800D01*
X1701800Y-13385800D01*
X1701800Y-13538200D01*
X742407Y-13538200D01*
X641339Y-13719179D01*
X826280Y-14134584D01*
X1156112Y-14447594D01*
X1520821Y-14598661D01*
X1701800Y-14497593D01*
X1701800Y-18238000D01*
X431000Y-18238000D01*
X431000Y-431000D01*
X6990604Y-431000D01*
X6936266Y-561859D01*
X6806982Y-508176D01*
X6402792Y-507824D01*
X6029234Y-662175D01*
X5743179Y-947731D01*
X5588176Y-1321018D01*
X5587824Y-1725208D01*
X5742175Y-2098766D01*
X6027731Y-2384821D01*
X6401018Y-2539824D01*
X6805208Y-2540176D01*
X7001920Y-2458895D01*
X5238408Y-4222408D01*
X5111770Y-4411936D01*
X5080176Y-4570768D01*
X5080176Y-1322792D01*
X4925825Y-949234D01*
X4640269Y-663179D01*
X4266982Y-508176D01*
X3862792Y-507824D01*
X3489234Y-662175D01*
X3203179Y-947731D01*
X3048176Y-1321018D01*
X3047824Y-1725208D01*
X3202175Y-2098766D01*
X3487731Y-2384821D01*
X3861018Y-2539824D01*
X4265208Y-2540176D01*
X4638766Y-2385825D01*
X4924821Y-2100269D01*
X5079824Y-1726982D01*
X5080176Y-1322792D01*
X5080176Y-4570768D01*
X5067300Y-4635500D01*
X5067300Y-7163764D01*
X4952083Y-7278781D01*
X4826143Y-7582077D01*
X4825857Y-7910482D01*
X4951267Y-8213998D01*
X5183281Y-8446417D01*
X5486577Y-8572357D01*
X5814982Y-8572643D01*
X6118498Y-8447233D01*
X6350917Y-8215219D01*
X6476857Y-7911923D01*
X6477143Y-7583518D01*
X6351733Y-7280002D01*
X6235700Y-7163766D01*
X6235700Y-4877483D01*
X8160088Y-2953094D01*
X8160092Y-2953092D01*
X8160092Y-2953091D01*
X8244709Y-2826453D01*
X8286730Y-2763564D01*
X8286731Y-2763563D01*
X8331200Y-2540000D01*
X8331201Y-2540000D01*
X8331200Y-2539994D01*
X8331200Y-1345235D01*
X8446417Y-1230219D01*
X8572357Y-926923D01*
X8572643Y-598518D01*
X8503426Y-431000D01*
X13462000Y-431000D01*
X28017000Y-431000D01*
X28017000Y-18238000D01*
X28017000Y-18238000D01*
G37*
X28017000Y-18238000D02*
X27756707Y-18238000D01*
X27756707Y-16926497D01*
X27756707Y-16347503D01*
X27543866Y-15856473D01*
X27159318Y-15484271D01*
X26725230Y-15304472D01*
X26892288Y-15271243D01*
X27296065Y-15001448D01*
X27565860Y-14597671D01*
X27660600Y-14121383D01*
X27660600Y-14072617D01*
X27565860Y-13596329D01*
X27296065Y-13192552D01*
X26892288Y-12922757D01*
X26416000Y-12828017D01*
X25956781Y-12919361D01*
X25505210Y-12467790D01*
X25340403Y-12357669D01*
X25146000Y-12319000D01*
X24851245Y-12319000D01*
X25025860Y-12057671D01*
X25120600Y-11581383D01*
X25120600Y-11532617D01*
X25025860Y-11056329D01*
X24851245Y-10795000D01*
X24935580Y-10795000D01*
X25254653Y-11114073D01*
X25171400Y-11532617D01*
X25171400Y-11581383D01*
X25266140Y-12057671D01*
X25535935Y-12461448D01*
X25939712Y-12731243D01*
X26416000Y-12825983D01*
X26892288Y-12731243D01*
X27296065Y-12461448D01*
X27565860Y-12057671D01*
X27660600Y-11581383D01*
X27660600Y-11532617D01*
X27660600Y-9041383D01*
X27660600Y-8992617D01*
X27565860Y-8516329D01*
X27296065Y-8112552D01*
X26892288Y-7842757D01*
X26416000Y-7748017D01*
X25939712Y-7842757D01*
X25535935Y-8112552D01*
X25266140Y-8516329D01*
X25171400Y-8992617D01*
X25171400Y-9041383D01*
X25266140Y-9517671D01*
X25535935Y-9921448D01*
X25939712Y-10191243D01*
X26416000Y-10285983D01*
X26892288Y-10191243D01*
X27296065Y-9921448D01*
X27565860Y-9517671D01*
X27660600Y-9041383D01*
X27660600Y-11532617D01*
X27565860Y-11056329D01*
X27296065Y-10652552D01*
X26892288Y-10382757D01*
X26416000Y-10288017D01*
X25956781Y-10379361D01*
X25505210Y-9927790D01*
X25340403Y-9817669D01*
X25146000Y-9779000D01*
X25120600Y-9779000D01*
X25120600Y-8077614D01*
X25062596Y-7937580D01*
X24955419Y-7830404D01*
X24815385Y-7772400D01*
X24663814Y-7772400D01*
X22936614Y-7772400D01*
X22796580Y-7830404D01*
X22689404Y-7937581D01*
X22631400Y-8077615D01*
X22631400Y-8229186D01*
X22631400Y-9779000D01*
X22376302Y-9779000D01*
X22185219Y-9587583D01*
X21881923Y-9461643D01*
X21553518Y-9461357D01*
X21250002Y-9586767D01*
X21017583Y-9818781D01*
X20891643Y-10122077D01*
X20891357Y-10450482D01*
X21016767Y-10753998D01*
X21248781Y-10986417D01*
X21552077Y-11112357D01*
X21880482Y-11112643D01*
X22183998Y-10987233D01*
X22376566Y-10795000D01*
X22900754Y-10795000D01*
X22726140Y-11056329D01*
X22631400Y-11532617D01*
X22631400Y-11581383D01*
X22726140Y-12057671D01*
X22900754Y-12319000D01*
X20660245Y-12319000D01*
X20834860Y-12057671D01*
X20929600Y-11581383D01*
X20929600Y-11532617D01*
X20834860Y-11056329D01*
X20565065Y-10652552D01*
X20161288Y-10382757D01*
X19994230Y-10349527D01*
X20428318Y-10169729D01*
X20812866Y-9797527D01*
X21025707Y-9306497D01*
X21025707Y-8727503D01*
X20812866Y-8236473D01*
X20428318Y-7864271D01*
X19974496Y-7676299D01*
X19761200Y-7774735D01*
X19761200Y-8940800D01*
X20927488Y-8940800D01*
X21025707Y-8727503D01*
X21025707Y-9306497D01*
X20927488Y-9093200D01*
X19761200Y-9093200D01*
X19761200Y-9113200D01*
X19608800Y-9113200D01*
X19608800Y-9093200D01*
X19588800Y-9093200D01*
X19588800Y-8940800D01*
X19608800Y-8940800D01*
X19608800Y-7774735D01*
X19395504Y-7676299D01*
X19048983Y-7819827D01*
X19048983Y-1778000D01*
X18954243Y-1301712D01*
X18684448Y-897935D01*
X18280671Y-628140D01*
X17804383Y-533400D01*
X17755617Y-533400D01*
X17279329Y-628140D01*
X16875552Y-897935D01*
X16605757Y-1301712D01*
X16511017Y-1778000D01*
X16584482Y-2147333D01*
X16286808Y-2445007D01*
X16414243Y-2254288D01*
X16508983Y-1778000D01*
X16414243Y-1301712D01*
X16144448Y-897935D01*
X15740671Y-628140D01*
X15264383Y-533400D01*
X15215617Y-533400D01*
X14739329Y-628140D01*
X14335552Y-897935D01*
X14065757Y-1301712D01*
X13971017Y-1778000D01*
X14065757Y-2254288D01*
X14335552Y-2658065D01*
X14739329Y-2927860D01*
X14960229Y-2971800D01*
X13762028Y-2971800D01*
X13779420Y-2964596D01*
X13886596Y-2857419D01*
X13944600Y-2717385D01*
X13944600Y-2565814D01*
X13944600Y-838614D01*
X13886596Y-698580D01*
X13779419Y-591404D01*
X13639385Y-533400D01*
X13487814Y-533400D01*
X11760614Y-533400D01*
X11620580Y-591404D01*
X11513404Y-698581D01*
X11455400Y-838615D01*
X11455400Y-990186D01*
X11455400Y-2717386D01*
X11513404Y-2857420D01*
X11620581Y-2964596D01*
X11637972Y-2971800D01*
X9715505Y-2971800D01*
X9715500Y-2971799D01*
X9491937Y-3016269D01*
X9429047Y-3058290D01*
X9302408Y-3142908D01*
X9302405Y-3142911D01*
X7619317Y-4825998D01*
X7456518Y-4825857D01*
X7153002Y-4951267D01*
X6920583Y-5183281D01*
X6794643Y-5486577D01*
X6794357Y-5814982D01*
X6919767Y-6118498D01*
X7151781Y-6350917D01*
X7455077Y-6476857D01*
X7783482Y-6477143D01*
X8086998Y-6351733D01*
X8319417Y-6119719D01*
X8445357Y-5816423D01*
X8445500Y-5652183D01*
X9957483Y-4140200D01*
X16002000Y-4140200D01*
X16225563Y-4095730D01*
X16225564Y-4095730D01*
X16415092Y-3969092D01*
X17426958Y-2957225D01*
X17755617Y-3022600D01*
X17804383Y-3022600D01*
X18280671Y-2927860D01*
X18684448Y-2658065D01*
X18954243Y-2254288D01*
X19048983Y-1778000D01*
X19048983Y-7819827D01*
X18941682Y-7864271D01*
X18557134Y-8236473D01*
X18344293Y-8727503D01*
X18442511Y-8940798D01*
X18379292Y-8940798D01*
X18294860Y-8516329D01*
X18025065Y-8112552D01*
X17621288Y-7842757D01*
X17145000Y-7748017D01*
X16668712Y-7842757D01*
X16264935Y-8112552D01*
X16000037Y-8509000D01*
X11883599Y-8509000D01*
X11751403Y-8420669D01*
X11557000Y-8382000D01*
X10438302Y-8382000D01*
X10247219Y-8190583D01*
X9943923Y-8064643D01*
X9615518Y-8064357D01*
X9312002Y-8189767D01*
X9079583Y-8421781D01*
X8953643Y-8725077D01*
X8953357Y-9053482D01*
X9078767Y-9356998D01*
X9310781Y-9589417D01*
X9614077Y-9715357D01*
X9942482Y-9715643D01*
X10245998Y-9590233D01*
X10438566Y-9398000D01*
X11357400Y-9398000D01*
X11489596Y-9486331D01*
X11489597Y-9486331D01*
X11684000Y-9525000D01*
X16000037Y-9525000D01*
X16252232Y-9902437D01*
X16214290Y-9927790D01*
X14457987Y-11684092D01*
X14187518Y-11683857D01*
X13884002Y-11809267D01*
X13651583Y-12041281D01*
X13525643Y-12344577D01*
X13525357Y-12672982D01*
X13650767Y-12976498D01*
X13882781Y-13208917D01*
X14141821Y-13316480D01*
X14097143Y-13424077D01*
X14096857Y-13752482D01*
X14173646Y-13938326D01*
X13947502Y-14031767D01*
X13715083Y-14263781D01*
X13589143Y-14567077D01*
X13588978Y-14755491D01*
X13530269Y-14696679D01*
X13156982Y-14541676D01*
X12752792Y-14541324D01*
X12379234Y-14695675D01*
X12093179Y-14981231D01*
X11938176Y-15354518D01*
X11937824Y-15758708D01*
X12092175Y-16132266D01*
X12377731Y-16418321D01*
X12751018Y-16573324D01*
X13155208Y-16573676D01*
X13528766Y-16419325D01*
X13814821Y-16133769D01*
X13969824Y-15760482D01*
X13970101Y-15441308D01*
X14249577Y-15557357D01*
X14521673Y-15557593D01*
X14753790Y-15789710D01*
X14918596Y-15899831D01*
X14918597Y-15899831D01*
X15113000Y-15938500D01*
X22542500Y-15938500D01*
X22736903Y-15899831D01*
X22901710Y-15789710D01*
X23416781Y-15274638D01*
X23876000Y-15365983D01*
X24352288Y-15271243D01*
X24756065Y-15001448D01*
X25025860Y-14597671D01*
X25120600Y-14121383D01*
X25120600Y-14072617D01*
X25025860Y-13596329D01*
X24851245Y-13335000D01*
X24935580Y-13335000D01*
X25254653Y-13654073D01*
X25171400Y-14072617D01*
X25171400Y-14121383D01*
X25266140Y-14597671D01*
X25535935Y-15001448D01*
X25939712Y-15271243D01*
X26106769Y-15304472D01*
X25672682Y-15484271D01*
X25288134Y-15856473D01*
X25075293Y-16347503D01*
X25173511Y-16560798D01*
X25110292Y-16560798D01*
X25025860Y-16136329D01*
X24756065Y-15732552D01*
X24352288Y-15462757D01*
X23876000Y-15368017D01*
X23399712Y-15462757D01*
X22995935Y-15732552D01*
X22726140Y-16136329D01*
X22631400Y-16612617D01*
X22631400Y-16661383D01*
X22726140Y-17137671D01*
X22995935Y-17541448D01*
X23399712Y-17811243D01*
X23876000Y-17905983D01*
X24352288Y-17811243D01*
X24756065Y-17541448D01*
X25025860Y-17137671D01*
X25110292Y-16713202D01*
X25120600Y-16713202D01*
X25173511Y-16713202D01*
X25120600Y-16828106D01*
X25075293Y-16926497D01*
X25288134Y-17417527D01*
X25672682Y-17789729D01*
X26126504Y-17977701D01*
X26339800Y-17879265D01*
X26339800Y-16713200D01*
X26319800Y-16713200D01*
X26319800Y-16560800D01*
X26339800Y-16560800D01*
X26339800Y-16540800D01*
X26492200Y-16540800D01*
X26492200Y-16560800D01*
X27658488Y-16560800D01*
X27756707Y-16347503D01*
X27756707Y-16926497D01*
X27658488Y-16713200D01*
X26492200Y-16713200D01*
X26492200Y-17879265D01*
X26705496Y-17977701D01*
X27159318Y-17789729D01*
X27543866Y-17417527D01*
X27756707Y-16926497D01*
X27756707Y-18238000D01*
X26339800Y-18238000D01*
X2914661Y-18238000D01*
X2914661Y-13719179D01*
X2914661Y-13204821D01*
X2729720Y-12789416D01*
X2540176Y-12609539D01*
X2540176Y-8688792D01*
X2540176Y-4878792D01*
X2540176Y-1322792D01*
X2385825Y-949234D01*
X2100269Y-663179D01*
X1726982Y-508176D01*
X1322792Y-507824D01*
X949234Y-662175D01*
X663179Y-947731D01*
X508176Y-1321018D01*
X507824Y-1725208D01*
X662175Y-2098766D01*
X947731Y-2384821D01*
X1321018Y-2539824D01*
X1725208Y-2540176D01*
X2098766Y-2385825D01*
X2384821Y-2100269D01*
X2539824Y-1726982D01*
X2540176Y-1322792D01*
X2540176Y-4878792D01*
X2385825Y-4505234D01*
X2100269Y-4219179D01*
X1726982Y-4064176D01*
X1322792Y-4063824D01*
X949234Y-4218175D01*
X663179Y-4503731D01*
X508176Y-4877018D01*
X507824Y-5281208D01*
X662175Y-5654766D01*
X947731Y-5940821D01*
X1321018Y-6095824D01*
X1725208Y-6096176D01*
X2098766Y-5941825D01*
X2384821Y-5656269D01*
X2539824Y-5282982D01*
X2540176Y-4878792D01*
X2540176Y-8688792D01*
X2385825Y-8315234D01*
X2100269Y-8029179D01*
X1726982Y-7874176D01*
X1322792Y-7873824D01*
X949234Y-8028175D01*
X663179Y-8313731D01*
X508176Y-8687018D01*
X507824Y-9091208D01*
X662175Y-9464766D01*
X947731Y-9750821D01*
X1321018Y-9905824D01*
X1725208Y-9906176D01*
X2098766Y-9751825D01*
X2384821Y-9466269D01*
X2539824Y-9092982D01*
X2540176Y-8688792D01*
X2540176Y-12609539D01*
X2399888Y-12476406D01*
X2035179Y-12325339D01*
X1854200Y-12426407D01*
X1854200Y-13385800D01*
X2813593Y-13385800D01*
X2914661Y-13204821D01*
X2914661Y-13719179D01*
X2813593Y-13538200D01*
X1854200Y-13538200D01*
X1854200Y-14497593D01*
X2035179Y-14598661D01*
X2450584Y-14413720D01*
X2763594Y-14083888D01*
X2914661Y-13719179D01*
X2914661Y-18238000D01*
X1701800Y-18238000D01*
X1701800Y-14497593D01*
X1701800Y-13538200D01*
X1701800Y-13385800D01*
X1701800Y-12426407D01*
X1520821Y-12325339D01*
X1105416Y-12510280D01*
X792406Y-12840112D01*
X641339Y-13204821D01*
X742407Y-13385800D01*
X1701800Y-13385800D01*
X1701800Y-13538200D01*
X742407Y-13538200D01*
X641339Y-13719179D01*
X826280Y-14134584D01*
X1156112Y-14447594D01*
X1520821Y-14598661D01*
X1701800Y-14497593D01*
X1701800Y-18238000D01*
X431000Y-18238000D01*
X431000Y-431000D01*
X6990604Y-431000D01*
X6936266Y-561859D01*
X6806982Y-508176D01*
X6402792Y-507824D01*
X6029234Y-662175D01*
X5743179Y-947731D01*
X5588176Y-1321018D01*
X5587824Y-1725208D01*
X5742175Y-2098766D01*
X6027731Y-2384821D01*
X6401018Y-2539824D01*
X6805208Y-2540176D01*
X7001920Y-2458895D01*
X5238408Y-4222408D01*
X5111770Y-4411936D01*
X5080176Y-4570768D01*
X5080176Y-1322792D01*
X4925825Y-949234D01*
X4640269Y-663179D01*
X4266982Y-508176D01*
X3862792Y-507824D01*
X3489234Y-662175D01*
X3203179Y-947731D01*
X3048176Y-1321018D01*
X3047824Y-1725208D01*
X3202175Y-2098766D01*
X3487731Y-2384821D01*
X3861018Y-2539824D01*
X4265208Y-2540176D01*
X4638766Y-2385825D01*
X4924821Y-2100269D01*
X5079824Y-1726982D01*
X5080176Y-1322792D01*
X5080176Y-4570768D01*
X5067300Y-4635500D01*
X5067300Y-7163764D01*
X4952083Y-7278781D01*
X4826143Y-7582077D01*
X4825857Y-7910482D01*
X4951267Y-8213998D01*
X5183281Y-8446417D01*
X5486577Y-8572357D01*
X5814982Y-8572643D01*
X6118498Y-8447233D01*
X6350917Y-8215219D01*
X6476857Y-7911923D01*
X6477143Y-7583518D01*
X6351733Y-7280002D01*
X6235700Y-7163766D01*
X6235700Y-4877483D01*
X8160088Y-2953094D01*
X8160092Y-2953092D01*
X8160092Y-2953091D01*
X8244709Y-2826453D01*
X8286730Y-2763564D01*
X8286731Y-2763563D01*
X8331200Y-2540000D01*
X8331201Y-2540000D01*
X8331200Y-2539994D01*
X8331200Y-1345235D01*
X8446417Y-1230219D01*
X8572357Y-926923D01*
X8572643Y-598518D01*
X8503426Y-431000D01*
X13462000Y-431000D01*
X28017000Y-431000D01*
X28017000Y-18238000D01*
M02*
