M48
;DRILL file {kicad (2014-10-27 BZR 5228)-product} date 4/10/2015 6:23:43 PM
;FORMAT={2:4/ absolute / inch / suppress leading zeros}
FMAT,2
INCH,TZ
T1C0.025
T2C0.030
T3C0.040
%
G90
G05
M72
T1
X850Y-5750
X900Y-2400
X2150Y-3600
X2200Y-4150
X3200Y-3050
X3350Y-2500
X4600Y-5800
X5750Y-5150
X5800Y-3500
X6200Y-5800
X6300Y-3850
X7100Y-6350
X7600Y-2800
X8500Y-3550
T2
X700Y-600
X1700Y-600
X2700Y-600
X2850Y-4500
X3550Y-4500
X3700Y-600
X10500Y-600
T3
X5000Y-1100
X6000Y-1100
X7000Y-1100
X9400Y-3550
X9400Y-4550
X9400Y-5550
X9400Y-6550
X10400Y-3550
X10400Y-4550
X10400Y-5550
X10400Y-6550
T0
M30
