M48
INCH,TZ
T1C0.025
T2C0.030
T3C0.040
%
G90
G05
T1
X1425Y-5425
X2175Y-5950
X2400Y-5100
X2475Y-4550
X3350Y-1875
X3620Y-4510
X3700Y-5250
X4350Y-2825
X5075Y-7300
X5950Y-3725
X6375Y-3300
X6975Y-7625
X8725Y-2600
T2
X700Y-2050
X700Y-3050
X700Y-5450
X1425Y-2575
X9400Y-3300
X10400Y-3300
X10500Y-2050
T3
X5000Y-2100
X6000Y-2100
X6000Y-4850
X6000Y-5850
X7000Y-2100
X7000Y-4850
X7000Y-5850
X8000Y-4850
X8000Y-5850
X9400Y-4850
X9400Y-5850
X9400Y-6850
X9400Y-7850
X10400Y-4850
X10400Y-5850
X10400Y-6850
X10400Y-7850
T0
M30
