M48
INCH,TZ
T1C0.025
T2C0.030
T3C0.040
%
G90
G05
T1
X2025Y-5175
X2225Y-4350
X3000Y-3525
X3050Y-1600
X3050Y-4000
X3875Y-3950
X4500Y-5200
X4900Y-8000
X5650Y-6225
X5675Y-7100
X5875Y-5200
X5875Y-6650
X5950Y-3325
X8550Y-5350
X9100Y-1950
T2
X600Y-1900
X600Y-3300
X600Y-4800
X700Y-6600
X1600Y-1900
X2600Y-1900
X5100Y-7425
T3
X5000Y-2000
X6000Y-2000
X6750Y-4850
X6750Y-5850
X6750Y-6850
X7000Y-2000
X7750Y-4850
X7750Y-5850
X7750Y-6850
X9400Y-4850
X9400Y-5850
X9400Y-6850
X9400Y-7850
X10400Y-4850
X10400Y-5850
X10400Y-6850
X10400Y-7850
T0
M30
