M48
INCH,TZ
T1C0.025
T2C0.030
T3C0.040
%
G90
G05
T1
X2025Y-3875
X2225Y-3050
X3000Y-2225
X3050Y-300
X3850Y-3500
X3875Y-2650
X4500Y-3900
X5325Y-6700
X5650Y-4925
X5675Y-5800
X5875Y-3900
X5875Y-5350
X5950Y-2025
X7750Y-6700
X8550Y-4050
X9100Y-650
T2
X600Y-600
X600Y-2000
X600Y-3500
X700Y-5300
X1600Y-600
X2600Y-600
X5100Y-6125
T3
X5000Y-700
X6000Y-700
X6750Y-3550
X6750Y-4550
X6750Y-5550
X7000Y-700
X7750Y-3550
X7750Y-4550
X7750Y-5550
X9400Y-3550
X9400Y-4550
X9400Y-5550
X9400Y-6550
X10400Y-3550
X10400Y-4550
X10400Y-5550
X10400Y-6550
T0
M30
