%FSLAX46Y46*%
G04 Gerber Fmt 4.6, Leading zero omitted, Abs format (unit mm)*
G04 Created by KiCad (PCBNEW (2014-10-27 BZR 5228)-product) date 1/4/2015 7:38:25 PM*
%MOMM*%
G01*
G04 APERTURE LIST*
%ADD10C,0.100000*%
%ADD11C,4.318000*%
%ADD12C,2.032000*%
%ADD13R,1.727200X1.727200*%
%ADD14O,1.727200X1.727200*%
%ADD15C,2.499360*%
%ADD16O,1.506220X3.014980*%
%ADD17C,1.778000*%
%ADD18C,0.990600*%
%ADD19O,1.981200X1.501140*%
G04 APERTURE END LIST*
D10*
D11*
X31877000Y-6985000D03*
X93599000Y-6985000D03*
D12*
X3683000Y-14478000D03*
X121793000Y-14732000D03*
X57480200Y-29133800D03*
D13*
X75490000Y-32306000D03*
D14*
X75490000Y-34846000D03*
X78030000Y-32306000D03*
X78030000Y-34846000D03*
X80570000Y-32306000D03*
X80570000Y-34846000D03*
X83110000Y-32306000D03*
X83110000Y-34846000D03*
D13*
X65595500Y-22034500D03*
D14*
X65595500Y-19494500D03*
X63055500Y-22034500D03*
X63055500Y-19494500D03*
X60515500Y-22034500D03*
X60515500Y-19494500D03*
D15*
X11176000Y-13208000D03*
X25019000Y-8636000D03*
X99568000Y-8128000D03*
X114554000Y-13970000D03*
D16*
X38290500Y-14033500D03*
X35750500Y-14033500D03*
D17*
X58064400Y-1524000D03*
X67564000Y-1524000D03*
X61264800Y-9626600D03*
X64465200Y-9626600D03*
X66471800Y-6527800D03*
D18*
X62865000Y-1524000D03*
X62865000Y-6527800D03*
D19*
X49298860Y-16106140D03*
X52301140Y-16106140D03*
X52301140Y-18605500D03*
X49298860Y-18605500D03*
X52301140Y-21104860D03*
X49298860Y-21104860D03*
X49530000Y-12405360D03*
X52070000Y-12405360D03*
D17*
X7112000Y-17018000D03*
X7112000Y-19558000D03*
M02*
