%FSLAX46Y46*%
G04 Gerber Fmt 4.6, Leading zero omitted, Abs format (unit mm)*
G04 Created by KiCad (PCBNEW (2014-10-27 BZR 5228)-product) date 12/24/2014 6:30:20 PM*
%MOMM*%
G01*
G04 APERTURE LIST*
%ADD10C,0.100000*%
%ADD11C,4.318000*%
%ADD12C,2.032000*%
%ADD13R,1.727200X1.727200*%
%ADD14O,1.727200X1.727200*%
%ADD15C,2.499360*%
%ADD16O,1.506220X3.014980*%
%ADD17C,1.778000*%
%ADD18C,0.990600*%
%ADD19O,1.981200X1.501140*%
%ADD20C,0.889000*%
G04 APERTURE END LIST*
D10*
D11*
X31877000Y-6985000D03*
X93599000Y-6985000D03*
D12*
X3683000Y-14478000D03*
X121793000Y-14732000D03*
X57480200Y-29133800D03*
D13*
X75490000Y-32306000D03*
D14*
X75490000Y-34846000D03*
X78030000Y-32306000D03*
X78030000Y-34846000D03*
X80570000Y-32306000D03*
X80570000Y-34846000D03*
X83110000Y-32306000D03*
X83110000Y-34846000D03*
D13*
X65595500Y-22034500D03*
D14*
X65595500Y-19494500D03*
X63055500Y-22034500D03*
X63055500Y-19494500D03*
X60515500Y-22034500D03*
X60515500Y-19494500D03*
D15*
X11176000Y-13208000D03*
X25019000Y-8636000D03*
X99568000Y-8128000D03*
X114554000Y-13970000D03*
D16*
X38290500Y-14033500D03*
X35750500Y-14033500D03*
D17*
X58064400Y-1524000D03*
X67564000Y-1524000D03*
X61264800Y-9626600D03*
X64465200Y-9626600D03*
X66471800Y-6527800D03*
D18*
X62865000Y-1524000D03*
X62865000Y-6527800D03*
D19*
X49298860Y-16106140D03*
X52301140Y-16106140D03*
X52301140Y-18605500D03*
X49298860Y-18605500D03*
X52301140Y-21104860D03*
X49298860Y-21104860D03*
X49530000Y-12405360D03*
X52070000Y-12405360D03*
D17*
X7112000Y-17018000D03*
X7112000Y-19558000D03*
D20*
X62865000Y-12192000D03*
X47244000Y-13081000D03*
X43370500Y-10223500D03*
X43815000Y-14922500D03*
X12192000Y-28194000D03*
X65278000Y-32448500D03*
X106146600Y-16967200D03*
X119329200Y-27279600D03*
X92252800Y-27279600D03*
X18034000Y-16002000D03*
X27686000Y-27178000D03*
X21590000Y-37338000D03*
X79900000Y-20000000D03*
X49657000Y-32448500D03*
X106108500Y-37909500D03*
X75400000Y-20000000D03*
X81851500Y-28067000D03*
X67627500Y-12192000D03*
X78994000Y-29908500D03*
X79000000Y-27200000D03*
X79883000Y-28956000D03*
X58039000Y-12255500D03*
X61214000Y-17081500D03*
X58039000Y-14732000D03*
X56134000Y-12382500D03*
X73660000Y-29400500D03*
X74612500Y-30289500D03*
X79883000Y-18796000D03*
X77533500Y-13208000D03*
X68389500Y-20066000D03*
X68389500Y-13208000D03*
M02*
