%FSLAX46Y46*%
G04 Gerber Fmt 4.6, Leading zero omitted, Abs format (unit mm)*
G04 Created by KiCad (PCBNEW (2014-10-27 BZR 5228)-product) date 1/4/2015 7:38:25 PM*
%MOMM*%
G01*
G04 APERTURE LIST*
%ADD10C,0.100000*%
%ADD11C,0.150000*%
%ADD12C,0.099060*%
%ADD13C,4.318000*%
%ADD14C,2.032000*%
%ADD15R,1.727200X1.727200*%
%ADD16O,1.727200X1.727200*%
%ADD17C,2.499360*%
%ADD18O,1.506220X3.014980*%
%ADD19C,1.778000*%
%ADD20C,0.990600*%
%ADD21O,1.981200X1.501140*%
G04 APERTURE END LIST*
D10*
X85090000Y-15367000D02*
X69596000Y-15367000D01*
X85090000Y-36449000D02*
X85090000Y-7747000D01*
X69596000Y-36449000D02*
X85090000Y-36449000D01*
X69596000Y-7747000D02*
X85090000Y-7747000D01*
X69596000Y-7747000D02*
X69596000Y-36449000D01*
D11*
X76760000Y-31036000D02*
X84380000Y-31036000D01*
X84380000Y-31036000D02*
X84380000Y-36116000D01*
X84380000Y-36116000D02*
X74220000Y-36116000D01*
X74220000Y-36116000D02*
X74220000Y-33576000D01*
X74220000Y-31036000D02*
X76760000Y-31036000D01*
X74220000Y-33576000D02*
X76760000Y-33576000D01*
X76760000Y-33576000D02*
X76760000Y-31036000D01*
X74220000Y-31036000D02*
X74220000Y-33576000D01*
X66865500Y-20764500D02*
X64325500Y-20764500D01*
X64325500Y-20764500D02*
X64325500Y-23304500D01*
X66865500Y-23304500D02*
X59245500Y-23304500D01*
X59245500Y-23304500D02*
X59245500Y-18224500D01*
X59245500Y-18224500D02*
X64325500Y-18224500D01*
X66865500Y-23304500D02*
X66865500Y-20764500D01*
X66865500Y-18224500D02*
X66865500Y-20764500D01*
X64325500Y-18224500D02*
X66865500Y-18224500D01*
X67183000Y-5486400D02*
X67183000Y-9677400D01*
X67183000Y1371600D02*
X67183000Y736600D01*
X67183000Y-5486400D02*
X68199000Y-4470400D01*
X68199000Y-4470400D02*
X68199000Y-152400D01*
X68199000Y-152400D02*
X67183000Y736600D01*
X57962800Y-9728200D02*
X67157600Y-9728200D01*
X57962800Y1371600D02*
X57962800Y-9728200D01*
X57962800Y1371600D02*
X62865000Y1371600D01*
X62865000Y1371600D02*
X67157600Y1371600D01*
D12*
X53299360Y-21904960D02*
X48300640Y-21904960D01*
X53299360Y-15204440D02*
X48300640Y-15204440D01*
X48300640Y-32405320D02*
X48300640Y-9204960D01*
X53299360Y-32405320D02*
X53299360Y-9204960D01*
X46299120Y-32405320D02*
X55300880Y-32405320D01*
X55300880Y-9204960D02*
X55300880Y-32405320D01*
X46299120Y-9204960D02*
X46299120Y-32405320D01*
X55300880Y-9204960D02*
X46299120Y-9204960D01*
D11*
X84113595Y-37917381D02*
X84113595Y-36917381D01*
X83732642Y-36917381D01*
X83637404Y-36965000D01*
X83589785Y-37012619D01*
X83542166Y-37107857D01*
X83542166Y-37250714D01*
X83589785Y-37345952D01*
X83637404Y-37393571D01*
X83732642Y-37441190D01*
X84113595Y-37441190D01*
X82589785Y-37917381D02*
X83161214Y-37917381D01*
X82875500Y-37917381D02*
X82875500Y-36917381D01*
X82970738Y-37060238D01*
X83065976Y-37155476D01*
X83161214Y-37203095D01*
X76961857Y-37250714D02*
X76961857Y-37917381D01*
X76961857Y-37345952D02*
X76914238Y-37298333D01*
X76819000Y-37250714D01*
X76676142Y-37250714D01*
X76580904Y-37298333D01*
X76533285Y-37393571D01*
X76533285Y-37917381D01*
X75485666Y-37917381D02*
X75819000Y-37441190D01*
X76057095Y-37917381D02*
X76057095Y-36917381D01*
X75676142Y-36917381D01*
X75580904Y-36965000D01*
X75533285Y-37012619D01*
X75485666Y-37107857D01*
X75485666Y-37250714D01*
X75533285Y-37345952D01*
X75580904Y-37393571D01*
X75676142Y-37441190D01*
X76057095Y-37441190D01*
X74723761Y-37393571D02*
X75057095Y-37393571D01*
X75057095Y-37917381D02*
X75057095Y-36917381D01*
X74580904Y-36917381D01*
X66587595Y-24899881D02*
X66587595Y-23899881D01*
X66206642Y-23899881D01*
X66111404Y-23947500D01*
X66063785Y-23995119D01*
X66016166Y-24090357D01*
X66016166Y-24233214D01*
X66063785Y-24328452D01*
X66111404Y-24376071D01*
X66206642Y-24423690D01*
X66587595Y-24423690D01*
X65635214Y-23995119D02*
X65587595Y-23947500D01*
X65492357Y-23899881D01*
X65254261Y-23899881D01*
X65159023Y-23947500D01*
X65111404Y-23995119D01*
X65063785Y-24090357D01*
X65063785Y-24185595D01*
X65111404Y-24328452D01*
X65682833Y-24899881D01*
X65063785Y-24899881D01*
X61491690Y-24772881D02*
X61491690Y-23772881D01*
X61063119Y-24725262D02*
X60920262Y-24772881D01*
X60682166Y-24772881D01*
X60586928Y-24725262D01*
X60539309Y-24677643D01*
X60491690Y-24582405D01*
X60491690Y-24487167D01*
X60539309Y-24391929D01*
X60586928Y-24344310D01*
X60682166Y-24296690D01*
X60872643Y-24249071D01*
X60967881Y-24201452D01*
X61015500Y-24153833D01*
X61063119Y-24058595D01*
X61063119Y-23963357D01*
X61015500Y-23868119D01*
X60967881Y-23820500D01*
X60872643Y-23772881D01*
X60634547Y-23772881D01*
X60491690Y-23820500D01*
X60063119Y-24772881D02*
X60063119Y-23772881D01*
X59682166Y-23772881D01*
X59586928Y-23820500D01*
X59539309Y-23868119D01*
X59491690Y-23963357D01*
X59491690Y-24106214D01*
X59539309Y-24201452D01*
X59586928Y-24249071D01*
X59682166Y-24296690D01*
X60063119Y-24296690D01*
X63198333Y-3795781D02*
X63198333Y-4510067D01*
X63245953Y-4652924D01*
X63341191Y-4748162D01*
X63484048Y-4795781D01*
X63579286Y-4795781D01*
X62198333Y-4795781D02*
X62769762Y-4795781D01*
X62484048Y-4795781D02*
X62484048Y-3795781D01*
X62579286Y-3938638D01*
X62674524Y-4033876D01*
X62769762Y-4081495D01*
X54760762Y-9525167D02*
X54808381Y-9668024D01*
X54808381Y-9906120D01*
X54760762Y-10001358D01*
X54713143Y-10048977D01*
X54617905Y-10096596D01*
X54522667Y-10096596D01*
X54427429Y-10048977D01*
X54379810Y-10001358D01*
X54332190Y-9906120D01*
X54284571Y-9715643D01*
X54236952Y-9620405D01*
X54189333Y-9572786D01*
X54094095Y-9525167D01*
X53998857Y-9525167D01*
X53903619Y-9572786D01*
X53856000Y-9620405D01*
X53808381Y-9715643D01*
X53808381Y-9953739D01*
X53856000Y-10096596D01*
X53808381Y-10429929D02*
X54808381Y-10668024D01*
X54094095Y-10858501D01*
X54808381Y-11048977D01*
X53808381Y-11287072D01*
X54808381Y-12191834D02*
X54808381Y-11620405D01*
X54808381Y-11906119D02*
X53808381Y-11906119D01*
X53951238Y-11810881D01*
X54046476Y-11715643D01*
X54094095Y-11620405D01*
%LPC*%
D13*
X31877000Y-6985000D03*
X93599000Y-6985000D03*
D14*
X3683000Y-14478000D03*
X121793000Y-14732000D03*
X57480200Y-29133800D03*
D15*
X75490000Y-32306000D03*
D16*
X75490000Y-34846000D03*
X78030000Y-32306000D03*
X78030000Y-34846000D03*
X80570000Y-32306000D03*
X80570000Y-34846000D03*
X83110000Y-32306000D03*
X83110000Y-34846000D03*
D15*
X65595500Y-22034500D03*
D16*
X65595500Y-19494500D03*
X63055500Y-22034500D03*
X63055500Y-19494500D03*
X60515500Y-22034500D03*
X60515500Y-19494500D03*
D17*
X11176000Y-13208000D03*
X25019000Y-8636000D03*
X99568000Y-8128000D03*
X114554000Y-13970000D03*
D18*
X38290500Y-14033500D03*
X35750500Y-14033500D03*
D19*
X58064400Y-1524000D03*
X67564000Y-1524000D03*
X61264800Y-9626600D03*
X64465200Y-9626600D03*
X66471800Y-6527800D03*
D20*
X62865000Y-1524000D03*
X62865000Y-6527800D03*
D21*
X49298860Y-16106140D03*
X52301140Y-16106140D03*
X52301140Y-18605500D03*
X49298860Y-18605500D03*
X52301140Y-21104860D03*
X49298860Y-21104860D03*
X49530000Y-12405360D03*
X52070000Y-12405360D03*
D19*
X7112000Y-17018000D03*
X7112000Y-19558000D03*
M02*
