%FSLAX46Y46*%
G04 Gerber Fmt 4.6, Leading zero omitted, Abs format (unit mm)*
G04 Created by KiCad (PCBNEW (2014-10-27 BZR 5228)-product) date 1/4/2015 7:38:25 PM*
%MOMM*%
G01*
G04 APERTURE LIST*
%ADD10C,0.100000*%
%ADD11C,0.200000*%
G04 APERTURE END LIST*
D10*
D11*
X0Y-7620000D02*
X3683000Y-7620000D01*
X0Y-30480000D02*
X0Y-7620000D01*
X0Y-30480000D02*
X381000Y-30480000D01*
X0Y-35560000D02*
X381000Y-35560000D01*
X0Y-37084000D02*
X0Y-35560000D01*
X0Y-37084000D02*
X12954000Y-44958000D01*
X3683000Y-7620000D02*
X5080000Y-11430000D01*
X5080000Y-11430000D02*
X26543000Y-3810000D01*
X12954000Y-44958000D02*
X60452000Y-44958000D01*
X25146000Y0D02*
X87884000Y0D01*
X26543000Y-3810000D02*
X25146000Y0D01*
X60452000Y-44958000D02*
X60452000Y-42799000D01*
X60452000Y-44958000D02*
X60452000Y-44958000D01*
X60452000Y-44958000D02*
X60452000Y-44958000D01*
X65278000Y-44958000D02*
X65278000Y-42799000D01*
X65278000Y-44958000D02*
X112776000Y-44958000D01*
X97388680Y-3820160D02*
X120159780Y-12108180D01*
X98780600Y0D02*
X87884000Y0D01*
X98780600Y0D02*
X97388680Y-3820160D01*
X112776000Y-44958000D02*
X125730000Y-37084000D01*
X121793000Y-7620000D02*
X120159780Y-12108180D01*
X125349000Y-30480000D02*
X125730000Y-30480000D01*
X125349000Y-35560000D02*
X125730000Y-35560000D01*
X125730000Y-7620000D02*
X121793000Y-7620000D01*
X125730000Y-30480000D02*
X125730000Y-7620000D01*
X125730000Y-35560000D02*
X125730000Y-35560000D01*
X125730000Y-37084000D02*
X125730000Y-35560000D01*
X2921000Y-33020000D02*
G75*
G03X381000Y-30480000I-2540000J0D01*
G01*
X381000Y-35560000D02*
G75*
G03X2921000Y-33020000I0J2540000D01*
G01*
X62865000Y-40386000D02*
G75*
G03X60452000Y-42799000I0J-2413000D01*
G01*
X65278000Y-42799000D02*
G75*
G03X62865000Y-40386000I-2413000J0D01*
G01*
X125349000Y-30480000D02*
G75*
G03X122809000Y-33020000I0J-2540000D01*
G01*
X122809000Y-33020000D02*
G75*
G03X125349000Y-35560000I2540000J0D01*
G01*
M02*
