%FSLAX46Y46*%
G04 Gerber Fmt 4.6, Leading zero omitted, Abs format (unit mm)*
G04 Created by KiCad (PCBNEW (2014-10-27 BZR 5228)-product) date 1/30/2015 1:36:17 PM*
%MOMM*%
G01*
G04 APERTURE LIST*
%ADD10C,0.100000*%
%ADD11C,1.727200*%
%ADD12C,1.727200*%
%ADD13R,0.762000X0.508000*%
%ADD14R,1.727200X1.727200*%
%ADD15O,1.727200X1.727200*%
%ADD16O,1.506220X3.014980*%
%ADD17R,0.599440X0.398780*%
%ADD18R,0.398780X0.599440*%
%ADD19R,0.400000X0.450000*%
%ADD20R,0.635000X1.143000*%
%ADD21O,1.981200X1.501140*%
%ADD22C,1.998980*%
%ADD23C,1.800000*%
%ADD24C,1.778000*%
%ADD25C,0.990600*%
G04 APERTURE END LIST*
D10*
D11*
X73531186Y-21770769D03*
D12*
X73309810Y-24301104D02*
X73309810Y-24301104D01*
X76061521Y-21992145D02*
X76061521Y-21992145D01*
X75840145Y-24522479D02*
X75840145Y-24522479D01*
X78591855Y-22213521D02*
X78591855Y-22213521D01*
X78370479Y-24743855D02*
X78370479Y-24743855D01*
X81122190Y-22434896D02*
X81122190Y-22434896D01*
X80900814Y-24965231D02*
X80900814Y-24965231D01*
D13*
X44767500Y-8001000D03*
X44767500Y-9906000D03*
X47307500Y-8001000D03*
X44767500Y-8953500D03*
X47307500Y-9906000D03*
X60198000Y-20129500D03*
X60198000Y-18224500D03*
X57658000Y-20129500D03*
X60198000Y-19177000D03*
X57658000Y-18224500D03*
D10*
G36*
X90371594Y-38947025D02*
X90053693Y-39264926D01*
X88640200Y-37851433D01*
X88958101Y-37533532D01*
X90371594Y-38947025D01*
X90371594Y-38947025D01*
G37*
G36*
X89805838Y-39512781D02*
X89487937Y-39830682D01*
X88074444Y-38417189D01*
X88392345Y-38099288D01*
X89805838Y-39512781D01*
X89805838Y-39512781D01*
G37*
G36*
X89240082Y-40078537D02*
X88922181Y-40396438D01*
X87508688Y-38982945D01*
X87826589Y-38665044D01*
X89240082Y-40078537D01*
X89240082Y-40078537D01*
G37*
G36*
X88674326Y-40644294D02*
X88356425Y-40962195D01*
X86942932Y-39548702D01*
X87260833Y-39230801D01*
X88674326Y-40644294D01*
X88674326Y-40644294D01*
G37*
G36*
X88108570Y-41210050D02*
X87790669Y-41527951D01*
X86377176Y-40114458D01*
X86695077Y-39796557D01*
X88108570Y-41210050D01*
X88108570Y-41210050D01*
G37*
G36*
X87542813Y-41775806D02*
X87224912Y-42093707D01*
X85811419Y-40680214D01*
X86129320Y-40362313D01*
X87542813Y-41775806D01*
X87542813Y-41775806D01*
G37*
G36*
X86977057Y-42341562D02*
X86659156Y-42659463D01*
X85245663Y-41245970D01*
X85563564Y-40928069D01*
X86977057Y-42341562D01*
X86977057Y-42341562D01*
G37*
G36*
X86411301Y-42907318D02*
X86093400Y-43225219D01*
X84679907Y-41811726D01*
X84997808Y-41493825D01*
X86411301Y-42907318D01*
X86411301Y-42907318D01*
G37*
G36*
X79650964Y-36139797D02*
X79333063Y-36457698D01*
X77919570Y-35044205D01*
X78237471Y-34726304D01*
X79650964Y-36139797D01*
X79650964Y-36139797D01*
G37*
G36*
X83620238Y-32170524D02*
X83302337Y-32488425D01*
X81888844Y-31074932D01*
X82206745Y-30757031D01*
X83620238Y-32170524D01*
X83620238Y-32170524D01*
G37*
G36*
X83045501Y-32745260D02*
X82727600Y-33063161D01*
X81314107Y-31649668D01*
X81632008Y-31331767D01*
X83045501Y-32745260D01*
X83045501Y-32745260D01*
G37*
G36*
X82470765Y-33319997D02*
X82152864Y-33637898D01*
X80739371Y-32224405D01*
X81057272Y-31906504D01*
X82470765Y-33319997D01*
X82470765Y-33319997D01*
G37*
G36*
X81913989Y-33876773D02*
X81596088Y-34194674D01*
X80182595Y-32781181D01*
X80500496Y-32463280D01*
X81913989Y-33876773D01*
X81913989Y-33876773D01*
G37*
G36*
X81339253Y-34451509D02*
X81021352Y-34769410D01*
X79607859Y-33355917D01*
X79925760Y-33038016D01*
X81339253Y-34451509D01*
X81339253Y-34451509D01*
G37*
G36*
X80782477Y-35008285D02*
X80464576Y-35326186D01*
X79051083Y-33912693D01*
X79368984Y-33594792D01*
X80782477Y-35008285D01*
X80782477Y-35008285D01*
G37*
G36*
X80207740Y-35583021D02*
X79889839Y-35900922D01*
X78476346Y-34487429D01*
X78794247Y-34169528D01*
X80207740Y-35583021D01*
X80207740Y-35583021D01*
G37*
G36*
X83587909Y-41818910D02*
X82174416Y-43232403D01*
X81856515Y-42914502D01*
X83270008Y-41501009D01*
X83587909Y-41818910D01*
X83587909Y-41818910D01*
G37*
G36*
X83023949Y-41254950D02*
X81610456Y-42668443D01*
X81292555Y-42350542D01*
X82706048Y-40937049D01*
X83023949Y-41254950D01*
X83023949Y-41254950D01*
G37*
G36*
X82456396Y-40687398D02*
X81042903Y-42100891D01*
X80725002Y-41782990D01*
X82138495Y-40369497D01*
X82456396Y-40687398D01*
X82456396Y-40687398D01*
G37*
G36*
X81892436Y-40123438D02*
X80478943Y-41536931D01*
X80161042Y-41219030D01*
X81574535Y-39805537D01*
X81892436Y-40123438D01*
X81892436Y-40123438D01*
G37*
G36*
X81324884Y-39555886D02*
X79911391Y-40969379D01*
X79593490Y-40651478D01*
X81006983Y-39237985D01*
X81324884Y-39555886D01*
X81324884Y-39555886D01*
G37*
G36*
X80760924Y-38991926D02*
X79347431Y-40405419D01*
X79029530Y-40087518D01*
X80443023Y-38674025D01*
X80760924Y-38991926D01*
X80760924Y-38991926D01*
G37*
G36*
X80193372Y-38424373D02*
X78779879Y-39837866D01*
X78461978Y-39519965D01*
X79875471Y-38106472D01*
X80193372Y-38424373D01*
X80193372Y-38424373D01*
G37*
G36*
X79629412Y-37860413D02*
X78215919Y-39273906D01*
X77898018Y-38956005D01*
X79311511Y-37542512D01*
X79629412Y-37860413D01*
X79629412Y-37860413D01*
G37*
G36*
X90373390Y-35026245D02*
X88959897Y-36439738D01*
X88641996Y-36121837D01*
X90055489Y-34708344D01*
X90373390Y-35026245D01*
X90373390Y-35026245D01*
G37*
G36*
X89816614Y-34469469D02*
X88403121Y-35882962D01*
X88085220Y-35565061D01*
X89498713Y-34151568D01*
X89816614Y-34469469D01*
X89816614Y-34469469D01*
G37*
G36*
X89241878Y-33894732D02*
X87828385Y-35308225D01*
X87510484Y-34990324D01*
X88923977Y-33576831D01*
X89241878Y-33894732D01*
X89241878Y-33894732D01*
G37*
G36*
X88685102Y-33337956D02*
X87271609Y-34751449D01*
X86953708Y-34433548D01*
X88367201Y-33020055D01*
X88685102Y-33337956D01*
X88685102Y-33337956D01*
G37*
G36*
X88128326Y-32781181D02*
X86714833Y-34194674D01*
X86396932Y-33876773D01*
X87810425Y-32463280D01*
X88128326Y-32781181D01*
X88128326Y-32781181D01*
G37*
G36*
X87553590Y-32206444D02*
X86140097Y-33619937D01*
X85822196Y-33302036D01*
X87235689Y-31888543D01*
X87553590Y-32206444D01*
X87553590Y-32206444D01*
G37*
G36*
X86978853Y-31631708D02*
X85565360Y-33045201D01*
X85247459Y-32727300D01*
X86660952Y-31313807D01*
X86978853Y-31631708D01*
X86978853Y-31631708D01*
G37*
G36*
X86404117Y-31056971D02*
X84990624Y-32470464D01*
X84672723Y-32152563D01*
X86086216Y-30739070D01*
X86404117Y-31056971D01*
X86404117Y-31056971D01*
G37*
D14*
X65722500Y-13843000D03*
D15*
X63182500Y-13843000D03*
X65722500Y-16383000D03*
X63182500Y-16383000D03*
X65722500Y-18923000D03*
X63182500Y-18923000D03*
D16*
X44767500Y-18923000D03*
X42227500Y-18923000D03*
D10*
G36*
X80764957Y-30634675D02*
X81188825Y-31058543D01*
X80906845Y-31340523D01*
X80482977Y-30916655D01*
X80764957Y-30634675D01*
X80764957Y-30634675D01*
G37*
G36*
X80129155Y-31270477D02*
X80553023Y-31694345D01*
X80271043Y-31976325D01*
X79847175Y-31552457D01*
X80129155Y-31270477D01*
X80129155Y-31270477D01*
G37*
D17*
X43624500Y-9911080D03*
X43624500Y-9011920D03*
D18*
X57652920Y-21526500D03*
X58552080Y-21526500D03*
D17*
X48482250Y-9815830D03*
X48482250Y-8916670D03*
D18*
X73591420Y-28892500D03*
X74490580Y-28892500D03*
X48423830Y-7016750D03*
X47524670Y-7016750D03*
X53842920Y-12446000D03*
X54742080Y-12446000D03*
D10*
G36*
X80682623Y-20331982D02*
X80630378Y-20929140D01*
X80233115Y-20894384D01*
X80285360Y-20297226D01*
X80682623Y-20331982D01*
X80682623Y-20331982D01*
G37*
G36*
X79786885Y-20253616D02*
X79734640Y-20850774D01*
X79337377Y-20816018D01*
X79389622Y-20218860D01*
X79786885Y-20253616D01*
X79786885Y-20253616D01*
G37*
G36*
X88526043Y-42326825D02*
X88102175Y-41902957D01*
X88384155Y-41620977D01*
X88808023Y-42044845D01*
X88526043Y-42326825D01*
X88526043Y-42326825D01*
G37*
G36*
X89161845Y-41691023D02*
X88737977Y-41267155D01*
X89019957Y-40985175D01*
X89443825Y-41409043D01*
X89161845Y-41691023D01*
X89161845Y-41691023D01*
G37*
D18*
X74490580Y-30289500D03*
X73591420Y-30289500D03*
D10*
G36*
X80734377Y-26912018D02*
X80786622Y-26314860D01*
X81183885Y-26349616D01*
X81131640Y-26946774D01*
X80734377Y-26912018D01*
X80734377Y-26912018D01*
G37*
G36*
X81630115Y-26990384D02*
X81682360Y-26393226D01*
X82079623Y-26427982D01*
X82027378Y-27025140D01*
X81630115Y-26990384D01*
X81630115Y-26990384D01*
G37*
D18*
X56393080Y-18478500D03*
X55493920Y-18478500D03*
X55493920Y-17208500D03*
X56393080Y-17208500D03*
D19*
X57978000Y-16796000D03*
X59878000Y-16796000D03*
X58928000Y-14446000D03*
D18*
X55493920Y-15938500D03*
X56393080Y-15938500D03*
D20*
X47307500Y-13144500D03*
X45783500Y-13144500D03*
D10*
G36*
X21410395Y-12194372D02*
X22164736Y-12948713D01*
X18536713Y-16576736D01*
X17782372Y-15822395D01*
X21410395Y-12194372D01*
X21410395Y-12194372D01*
G37*
G36*
X24643287Y-15427264D02*
X25397628Y-16181605D01*
X21769605Y-19809628D01*
X21015264Y-19055287D01*
X24643287Y-15427264D01*
X24643287Y-15427264D01*
G37*
G36*
X21410395Y-12194372D02*
X24679208Y-15463185D01*
X23924867Y-16217526D01*
X20656054Y-12948713D01*
X21410395Y-12194372D01*
X21410395Y-12194372D01*
G37*
G36*
X21410395Y-13631213D02*
X24679208Y-16900026D01*
X23924867Y-17654367D01*
X20656054Y-14385554D01*
X21410395Y-13631213D01*
X21410395Y-13631213D01*
G37*
G36*
X19973554Y-13631213D02*
X23242367Y-16900026D01*
X22488026Y-17654367D01*
X19219213Y-14385554D01*
X19973554Y-13631213D01*
X19973554Y-13631213D01*
G37*
G36*
X19973554Y-15068054D02*
X23242367Y-18336867D01*
X22488026Y-19091208D01*
X19219213Y-15822395D01*
X19973554Y-15068054D01*
X19973554Y-15068054D01*
G37*
G36*
X18536713Y-15068054D02*
X21805526Y-18336867D01*
X21051185Y-19091208D01*
X17782372Y-15822395D01*
X18536713Y-15068054D01*
X18536713Y-15068054D01*
G37*
G36*
X93596628Y-24585395D02*
X92842287Y-25339736D01*
X89214264Y-21711713D01*
X89968605Y-20957372D01*
X93596628Y-24585395D01*
X93596628Y-24585395D01*
G37*
G36*
X90363736Y-27818287D02*
X89609395Y-28572628D01*
X85981372Y-24944605D01*
X86735713Y-24190264D01*
X90363736Y-27818287D01*
X90363736Y-27818287D01*
G37*
G36*
X93596628Y-24585395D02*
X90327815Y-27854208D01*
X89573474Y-27099867D01*
X92842287Y-23831054D01*
X93596628Y-24585395D01*
X93596628Y-24585395D01*
G37*
G36*
X92159787Y-24585395D02*
X88890974Y-27854208D01*
X88136633Y-27099867D01*
X91405446Y-23831054D01*
X92159787Y-24585395D01*
X92159787Y-24585395D01*
G37*
G36*
X92159787Y-23148554D02*
X88890974Y-26417367D01*
X88136633Y-25663026D01*
X91405446Y-22394213D01*
X92159787Y-23148554D01*
X92159787Y-23148554D01*
G37*
G36*
X90722946Y-23148554D02*
X87454133Y-26417367D01*
X86699792Y-25663026D01*
X89968605Y-22394213D01*
X90722946Y-23148554D01*
X90722946Y-23148554D01*
G37*
G36*
X90722946Y-21711713D02*
X87454133Y-24980526D01*
X86699792Y-24226185D01*
X89968605Y-20957372D01*
X90722946Y-21711713D01*
X90722946Y-21711713D01*
G37*
G36*
X107439628Y-14298395D02*
X106685287Y-15052736D01*
X103057264Y-11424713D01*
X103811605Y-10670372D01*
X107439628Y-14298395D01*
X107439628Y-14298395D01*
G37*
G36*
X104206736Y-17531287D02*
X103452395Y-18285628D01*
X99824372Y-14657605D01*
X100578713Y-13903264D01*
X104206736Y-17531287D01*
X104206736Y-17531287D01*
G37*
G36*
X107439628Y-14298395D02*
X104170815Y-17567208D01*
X103416474Y-16812867D01*
X106685287Y-13544054D01*
X107439628Y-14298395D01*
X107439628Y-14298395D01*
G37*
G36*
X106002787Y-14298395D02*
X102733974Y-17567208D01*
X101979633Y-16812867D01*
X105248446Y-13544054D01*
X106002787Y-14298395D01*
X106002787Y-14298395D01*
G37*
G36*
X106002787Y-12861554D02*
X102733974Y-16130367D01*
X101979633Y-15376026D01*
X105248446Y-12107213D01*
X106002787Y-12861554D01*
X106002787Y-12861554D01*
G37*
G36*
X104565946Y-12861554D02*
X101297133Y-16130367D01*
X100542792Y-15376026D01*
X103811605Y-12107213D01*
X104565946Y-12861554D01*
X104565946Y-12861554D01*
G37*
G36*
X104565946Y-11424713D02*
X101297133Y-14693526D01*
X100542792Y-13939185D01*
X103811605Y-10670372D01*
X104565946Y-11424713D01*
X104565946Y-11424713D01*
G37*
G36*
X65098395Y-25148372D02*
X65852736Y-25902713D01*
X62224713Y-29530736D01*
X61470372Y-28776395D01*
X65098395Y-25148372D01*
X65098395Y-25148372D01*
G37*
G36*
X68331287Y-28381264D02*
X69085628Y-29135605D01*
X65457605Y-32763628D01*
X64703264Y-32009287D01*
X68331287Y-28381264D01*
X68331287Y-28381264D01*
G37*
G36*
X65098395Y-25148372D02*
X68367208Y-28417185D01*
X67612867Y-29171526D01*
X64344054Y-25902713D01*
X65098395Y-25148372D01*
X65098395Y-25148372D01*
G37*
G36*
X65098395Y-26585213D02*
X68367208Y-29854026D01*
X67612867Y-30608367D01*
X64344054Y-27339554D01*
X65098395Y-26585213D01*
X65098395Y-26585213D01*
G37*
G36*
X63661554Y-26585213D02*
X66930367Y-29854026D01*
X66176026Y-30608367D01*
X62907213Y-27339554D01*
X63661554Y-26585213D01*
X63661554Y-26585213D01*
G37*
G36*
X63661554Y-28022054D02*
X66930367Y-31290867D01*
X66176026Y-32045208D01*
X62907213Y-28776395D01*
X63661554Y-28022054D01*
X63661554Y-28022054D01*
G37*
G36*
X62224713Y-28022054D02*
X65493526Y-31290867D01*
X64739185Y-32045208D01*
X61470372Y-28776395D01*
X62224713Y-28022054D01*
X62224713Y-28022054D01*
G37*
G36*
X49477395Y-25148372D02*
X50231736Y-25902713D01*
X46603713Y-29530736D01*
X45849372Y-28776395D01*
X49477395Y-25148372D01*
X49477395Y-25148372D01*
G37*
G36*
X52710287Y-28381264D02*
X53464628Y-29135605D01*
X49836605Y-32763628D01*
X49082264Y-32009287D01*
X52710287Y-28381264D01*
X52710287Y-28381264D01*
G37*
G36*
X49477395Y-25148372D02*
X52746208Y-28417185D01*
X51991867Y-29171526D01*
X48723054Y-25902713D01*
X49477395Y-25148372D01*
X49477395Y-25148372D01*
G37*
G36*
X49477395Y-26585213D02*
X52746208Y-29854026D01*
X51991867Y-30608367D01*
X48723054Y-27339554D01*
X49477395Y-26585213D01*
X49477395Y-26585213D01*
G37*
G36*
X48040554Y-26585213D02*
X51309367Y-29854026D01*
X50555026Y-30608367D01*
X47286213Y-27339554D01*
X48040554Y-26585213D01*
X48040554Y-26585213D01*
G37*
G36*
X48040554Y-28022054D02*
X51309367Y-31290867D01*
X50555026Y-32045208D01*
X47286213Y-28776395D01*
X48040554Y-28022054D01*
X48040554Y-28022054D01*
G37*
G36*
X46603713Y-28022054D02*
X49872526Y-31290867D01*
X49118185Y-32045208D01*
X45849372Y-28776395D01*
X46603713Y-28022054D01*
X46603713Y-28022054D01*
G37*
G36*
X30046395Y-20830372D02*
X30800736Y-21584713D01*
X27172713Y-25212736D01*
X26418372Y-24458395D01*
X30046395Y-20830372D01*
X30046395Y-20830372D01*
G37*
G36*
X33279287Y-24063264D02*
X34033628Y-24817605D01*
X30405605Y-28445628D01*
X29651264Y-27691287D01*
X33279287Y-24063264D01*
X33279287Y-24063264D01*
G37*
G36*
X30046395Y-20830372D02*
X33315208Y-24099185D01*
X32560867Y-24853526D01*
X29292054Y-21584713D01*
X30046395Y-20830372D01*
X30046395Y-20830372D01*
G37*
G36*
X30046395Y-22267213D02*
X33315208Y-25536026D01*
X32560867Y-26290367D01*
X29292054Y-23021554D01*
X30046395Y-22267213D01*
X30046395Y-22267213D01*
G37*
G36*
X28609554Y-22267213D02*
X31878367Y-25536026D01*
X31124026Y-26290367D01*
X27855213Y-23021554D01*
X28609554Y-22267213D01*
X28609554Y-22267213D01*
G37*
G36*
X28609554Y-23704054D02*
X31878367Y-26972867D01*
X31124026Y-27727208D01*
X27855213Y-24458395D01*
X28609554Y-23704054D01*
X28609554Y-23704054D01*
G37*
G36*
X27172713Y-23704054D02*
X30441526Y-26972867D01*
X29687185Y-27727208D01*
X26418372Y-24458395D01*
X27172713Y-23704054D01*
X27172713Y-23704054D01*
G37*
G36*
X12012395Y-20830372D02*
X12766736Y-21584713D01*
X9138713Y-25212736D01*
X8384372Y-24458395D01*
X12012395Y-20830372D01*
X12012395Y-20830372D01*
G37*
G36*
X15245287Y-24063264D02*
X15999628Y-24817605D01*
X12371605Y-28445628D01*
X11617264Y-27691287D01*
X15245287Y-24063264D01*
X15245287Y-24063264D01*
G37*
G36*
X12012395Y-20830372D02*
X15281208Y-24099185D01*
X14526867Y-24853526D01*
X11258054Y-21584713D01*
X12012395Y-20830372D01*
X12012395Y-20830372D01*
G37*
G36*
X12012395Y-22267213D02*
X15281208Y-25536026D01*
X14526867Y-26290367D01*
X11258054Y-23021554D01*
X12012395Y-22267213D01*
X12012395Y-22267213D01*
G37*
G36*
X10575554Y-22267213D02*
X13844367Y-25536026D01*
X13090026Y-26290367D01*
X9821213Y-23021554D01*
X10575554Y-22267213D01*
X10575554Y-22267213D01*
G37*
G36*
X10575554Y-23704054D02*
X13844367Y-26972867D01*
X13090026Y-27727208D01*
X9821213Y-24458395D01*
X10575554Y-23704054D01*
X10575554Y-23704054D01*
G37*
G36*
X9138713Y-23704054D02*
X12407526Y-26972867D01*
X11653185Y-27727208D01*
X8384372Y-24458395D01*
X9138713Y-23704054D01*
X9138713Y-23704054D01*
G37*
G36*
X21410395Y-29974372D02*
X22164736Y-30728713D01*
X18536713Y-34356736D01*
X17782372Y-33602395D01*
X21410395Y-29974372D01*
X21410395Y-29974372D01*
G37*
G36*
X24643287Y-33207264D02*
X25397628Y-33961605D01*
X21769605Y-37589628D01*
X21015264Y-36835287D01*
X24643287Y-33207264D01*
X24643287Y-33207264D01*
G37*
G36*
X21410395Y-29974372D02*
X24679208Y-33243185D01*
X23924867Y-33997526D01*
X20656054Y-30728713D01*
X21410395Y-29974372D01*
X21410395Y-29974372D01*
G37*
G36*
X21410395Y-31411213D02*
X24679208Y-34680026D01*
X23924867Y-35434367D01*
X20656054Y-32165554D01*
X21410395Y-31411213D01*
X21410395Y-31411213D01*
G37*
G36*
X19973554Y-31411213D02*
X23242367Y-34680026D01*
X22488026Y-35434367D01*
X19219213Y-32165554D01*
X19973554Y-31411213D01*
X19973554Y-31411213D01*
G37*
G36*
X19973554Y-32848054D02*
X23242367Y-36116867D01*
X22488026Y-36871208D01*
X19219213Y-33602395D01*
X19973554Y-32848054D01*
X19973554Y-32848054D01*
G37*
G36*
X18536713Y-32848054D02*
X21805526Y-36116867D01*
X21051185Y-36871208D01*
X17782372Y-33602395D01*
X18536713Y-32848054D01*
X18536713Y-32848054D01*
G37*
G36*
X107439628Y-35253395D02*
X106685287Y-36007736D01*
X103057264Y-32379713D01*
X103811605Y-31625372D01*
X107439628Y-35253395D01*
X107439628Y-35253395D01*
G37*
G36*
X104206736Y-38486287D02*
X103452395Y-39240628D01*
X99824372Y-35612605D01*
X100578713Y-34858264D01*
X104206736Y-38486287D01*
X104206736Y-38486287D01*
G37*
G36*
X107439628Y-35253395D02*
X104170815Y-38522208D01*
X103416474Y-37767867D01*
X106685287Y-34499054D01*
X107439628Y-35253395D01*
X107439628Y-35253395D01*
G37*
G36*
X106002787Y-35253395D02*
X102733974Y-38522208D01*
X101979633Y-37767867D01*
X105248446Y-34499054D01*
X106002787Y-35253395D01*
X106002787Y-35253395D01*
G37*
G36*
X106002787Y-33816554D02*
X102733974Y-37085367D01*
X101979633Y-36331026D01*
X105248446Y-33062213D01*
X106002787Y-33816554D01*
X106002787Y-33816554D01*
G37*
G36*
X104565946Y-33816554D02*
X101297133Y-37085367D01*
X100542792Y-36331026D01*
X103811605Y-33062213D01*
X104565946Y-33816554D01*
X104565946Y-33816554D01*
G37*
G36*
X104565946Y-32379713D02*
X101297133Y-35648526D01*
X100542792Y-34894185D01*
X103811605Y-31625372D01*
X104565946Y-32379713D01*
X104565946Y-32379713D01*
G37*
G36*
X120647628Y-24585395D02*
X119893287Y-25339736D01*
X116265264Y-21711713D01*
X117019605Y-20957372D01*
X120647628Y-24585395D01*
X120647628Y-24585395D01*
G37*
G36*
X117414736Y-27818287D02*
X116660395Y-28572628D01*
X113032372Y-24944605D01*
X113786713Y-24190264D01*
X117414736Y-27818287D01*
X117414736Y-27818287D01*
G37*
G36*
X120647628Y-24585395D02*
X117378815Y-27854208D01*
X116624474Y-27099867D01*
X119893287Y-23831054D01*
X120647628Y-24585395D01*
X120647628Y-24585395D01*
G37*
G36*
X119210787Y-24585395D02*
X115941974Y-27854208D01*
X115187633Y-27099867D01*
X118456446Y-23831054D01*
X119210787Y-24585395D01*
X119210787Y-24585395D01*
G37*
G36*
X119210787Y-23148554D02*
X115941974Y-26417367D01*
X115187633Y-25663026D01*
X118456446Y-22394213D01*
X119210787Y-23148554D01*
X119210787Y-23148554D01*
G37*
G36*
X117773946Y-23148554D02*
X114505133Y-26417367D01*
X113750792Y-25663026D01*
X117019605Y-22394213D01*
X117773946Y-23148554D01*
X117773946Y-23148554D01*
G37*
G36*
X117773946Y-21711713D02*
X114505133Y-24980526D01*
X113750792Y-24226185D01*
X117019605Y-20957372D01*
X117773946Y-21711713D01*
X117773946Y-21711713D01*
G37*
G36*
X91510543Y-35468825D02*
X91086675Y-35044957D01*
X91368655Y-34762977D01*
X91792523Y-35186845D01*
X91510543Y-35468825D01*
X91510543Y-35468825D01*
G37*
G36*
X92146345Y-34833023D02*
X91722477Y-34409155D01*
X92004457Y-34127175D01*
X92428325Y-34551043D01*
X92146345Y-34833023D01*
X92146345Y-34833023D01*
G37*
D21*
X48917860Y-16106140D03*
X51920140Y-16106140D03*
X51920140Y-18605500D03*
X48917860Y-18605500D03*
X51920140Y-21104860D03*
X48917860Y-21104860D03*
X49149000Y-12405360D03*
X51689000Y-12405360D03*
D22*
X7429500Y-13525500D03*
X26606500Y-7366000D03*
X98742500Y-7493000D03*
X117665500Y-14414500D03*
D23*
X12700000Y-37084000D03*
X10160000Y-37084000D03*
D24*
X57937400Y-1879600D03*
X67437000Y-1879600D03*
X61137800Y-9982200D03*
X64338200Y-9982200D03*
X66344800Y-6883400D03*
D25*
X62738000Y-1879600D03*
X62738000Y-6883400D03*
M02*
