%FSLAX46Y46*%
G04 Gerber Fmt 4.6, Leading zero omitted, Abs format (unit mm)*
G04 Created by KiCad (PCBNEW (2014-10-27 BZR 5228)-product) date 12/24/2014 6:30:20 PM*
%MOMM*%
G01*
G04 APERTURE LIST*
%ADD10C,0.100000*%
%ADD11R,0.508000X0.762000*%
%ADD12C,4.318000*%
%ADD13C,2.032000*%
%ADD14R,1.998980X0.449580*%
%ADD15R,0.449580X1.998980*%
%ADD16R,1.727200X1.727200*%
%ADD17O,1.727200X1.727200*%
%ADD18C,2.499360*%
%ADD19O,1.506220X3.014980*%
%ADD20R,0.599440X0.398780*%
%ADD21R,0.398780X0.599440*%
%ADD22R,1.066800X5.130800*%
%ADD23R,4.622800X1.066800*%
%ADD24R,5.130800X1.066800*%
%ADD25R,1.066800X4.622800*%
%ADD26C,1.778000*%
%ADD27C,0.990600*%
%ADD28O,1.981200X1.501140*%
%ADD29R,0.400000X0.450000*%
%ADD30C,0.889000*%
G04 APERTURE END LIST*
D10*
D11*
X45275500Y-8953500D03*
X43370500Y-8953500D03*
X45275500Y-11493500D03*
X44323000Y-8953500D03*
X43370500Y-11493500D03*
X43307000Y-16065500D03*
X45212000Y-16065500D03*
X43307000Y-13525500D03*
X44259500Y-16065500D03*
X45212000Y-13525500D03*
D12*
X31877000Y-6985000D03*
X93599000Y-6985000D03*
D13*
X3683000Y-14478000D03*
X121793000Y-14732000D03*
X57480200Y-29133800D03*
D14*
X72273160Y-23223220D03*
X72273160Y-22423120D03*
X72273160Y-21623020D03*
X72273160Y-20822920D03*
X72273160Y-20022820D03*
X72273160Y-19222720D03*
X72273160Y-18422620D03*
X72273160Y-17622520D03*
X81838800Y-17627600D03*
X81838800Y-23241000D03*
X81838800Y-22428200D03*
X81838800Y-21615400D03*
X81838800Y-20828000D03*
X81838800Y-20015200D03*
X81838800Y-19227800D03*
X81838800Y-18415000D03*
D15*
X74264520Y-15621000D03*
X75062080Y-15621000D03*
X75864720Y-15621000D03*
X76662280Y-15621000D03*
X77464920Y-15621000D03*
X78262480Y-15621000D03*
X79065120Y-15621000D03*
X79862680Y-15621000D03*
X74269600Y-25222200D03*
X75057000Y-25222200D03*
X75869800Y-25222200D03*
X76657200Y-25222200D03*
X77444600Y-25222200D03*
X78257400Y-25222200D03*
X79070200Y-25222200D03*
X79883000Y-25222200D03*
D16*
X75490000Y-32306000D03*
D17*
X75490000Y-34846000D03*
X78030000Y-32306000D03*
X78030000Y-34846000D03*
X80570000Y-32306000D03*
X80570000Y-34846000D03*
X83110000Y-32306000D03*
X83110000Y-34846000D03*
D16*
X65595500Y-22034500D03*
D17*
X65595500Y-19494500D03*
X63055500Y-22034500D03*
X63055500Y-19494500D03*
X60515500Y-22034500D03*
X60515500Y-19494500D03*
D18*
X11176000Y-13208000D03*
X25019000Y-8636000D03*
X99568000Y-8128000D03*
X114554000Y-13970000D03*
D19*
X38290500Y-14033500D03*
X35750500Y-14033500D03*
D20*
X70000000Y-20049580D03*
X70000000Y-19150420D03*
X41910000Y-15816580D03*
X41910000Y-14917420D03*
X41910000Y-12821920D03*
X41910000Y-13721080D03*
X41910000Y-10599420D03*
X41910000Y-11498580D03*
X72390000Y-13213080D03*
X72390000Y-12313920D03*
D21*
X46794420Y-11493500D03*
X47693580Y-11493500D03*
X54096920Y-12382500D03*
X54996080Y-12382500D03*
X82301080Y-30226000D03*
X81401920Y-30226000D03*
D22*
X19304000Y-16002000D03*
X23876000Y-16002000D03*
D23*
X21082000Y-13970000D03*
X22098000Y-14986000D03*
X21082000Y-16002000D03*
X22098000Y-17018000D03*
X21082000Y-18034000D03*
D10*
G36*
X89968605Y-28572628D02*
X89214264Y-27818287D01*
X92842287Y-24190264D01*
X93596628Y-24944605D01*
X89968605Y-28572628D01*
X89968605Y-28572628D01*
G37*
G36*
X86735713Y-25339736D02*
X85981372Y-24585395D01*
X89609395Y-20957372D01*
X90363736Y-21711713D01*
X86735713Y-25339736D01*
X86735713Y-25339736D01*
G37*
G36*
X89968605Y-28572628D02*
X86699792Y-25303815D01*
X87454133Y-24549474D01*
X90722946Y-27818287D01*
X89968605Y-28572628D01*
X89968605Y-28572628D01*
G37*
G36*
X89968605Y-27135787D02*
X86699792Y-23866974D01*
X87454133Y-23112633D01*
X90722946Y-26381446D01*
X89968605Y-27135787D01*
X89968605Y-27135787D01*
G37*
G36*
X91405446Y-27135787D02*
X88136633Y-23866974D01*
X88890974Y-23112633D01*
X92159787Y-26381446D01*
X91405446Y-27135787D01*
X91405446Y-27135787D01*
G37*
G36*
X91405446Y-25698946D02*
X88136633Y-22430133D01*
X88890974Y-21675792D01*
X92159787Y-24944605D01*
X91405446Y-25698946D01*
X91405446Y-25698946D01*
G37*
G36*
X92842287Y-25698946D02*
X89573474Y-22430133D01*
X90327815Y-21675792D01*
X93596628Y-24944605D01*
X92842287Y-25698946D01*
X92842287Y-25698946D01*
G37*
G36*
X103811605Y-18285628D02*
X103057264Y-17531287D01*
X106685287Y-13903264D01*
X107439628Y-14657605D01*
X103811605Y-18285628D01*
X103811605Y-18285628D01*
G37*
G36*
X100578713Y-15052736D02*
X99824372Y-14298395D01*
X103452395Y-10670372D01*
X104206736Y-11424713D01*
X100578713Y-15052736D01*
X100578713Y-15052736D01*
G37*
G36*
X103811605Y-18285628D02*
X100542792Y-15016815D01*
X101297133Y-14262474D01*
X104565946Y-17531287D01*
X103811605Y-18285628D01*
X103811605Y-18285628D01*
G37*
G36*
X103811605Y-16848787D02*
X100542792Y-13579974D01*
X101297133Y-12825633D01*
X104565946Y-16094446D01*
X103811605Y-16848787D01*
X103811605Y-16848787D01*
G37*
G36*
X105248446Y-16848787D02*
X101979633Y-13579974D01*
X102733974Y-12825633D01*
X106002787Y-16094446D01*
X105248446Y-16848787D01*
X105248446Y-16848787D01*
G37*
G36*
X105248446Y-15411946D02*
X101979633Y-12143133D01*
X102733974Y-11388792D01*
X106002787Y-14657605D01*
X105248446Y-15411946D01*
X105248446Y-15411946D01*
G37*
G36*
X106685287Y-15411946D02*
X103416474Y-12143133D01*
X104170815Y-11388792D01*
X107439628Y-14657605D01*
X106685287Y-15411946D01*
X106685287Y-15411946D01*
G37*
D24*
X65278000Y-31242000D03*
X65278000Y-26670000D03*
D25*
X63246000Y-29464000D03*
X64262000Y-28448000D03*
X65278000Y-29464000D03*
X66294000Y-28448000D03*
X67310000Y-29464000D03*
D24*
X49657000Y-31242000D03*
X49657000Y-26670000D03*
D25*
X47625000Y-29464000D03*
X48641000Y-28448000D03*
X49657000Y-29464000D03*
X50673000Y-28448000D03*
X51689000Y-29464000D03*
D10*
G36*
X26418372Y-24817605D02*
X27172713Y-24063264D01*
X30800736Y-27691287D01*
X30046395Y-28445628D01*
X26418372Y-24817605D01*
X26418372Y-24817605D01*
G37*
G36*
X29651264Y-21584713D02*
X30405605Y-20830372D01*
X34033628Y-24458395D01*
X33279287Y-25212736D01*
X29651264Y-21584713D01*
X29651264Y-21584713D01*
G37*
G36*
X26418372Y-24817605D02*
X29687185Y-21548792D01*
X30441526Y-22303133D01*
X27172713Y-25571946D01*
X26418372Y-24817605D01*
X26418372Y-24817605D01*
G37*
G36*
X27855213Y-24817605D02*
X31124026Y-21548792D01*
X31878367Y-22303133D01*
X28609554Y-25571946D01*
X27855213Y-24817605D01*
X27855213Y-24817605D01*
G37*
G36*
X27855213Y-26254446D02*
X31124026Y-22985633D01*
X31878367Y-23739974D01*
X28609554Y-27008787D01*
X27855213Y-26254446D01*
X27855213Y-26254446D01*
G37*
G36*
X29292054Y-26254446D02*
X32560867Y-22985633D01*
X33315208Y-23739974D01*
X30046395Y-27008787D01*
X29292054Y-26254446D01*
X29292054Y-26254446D01*
G37*
G36*
X29292054Y-27691287D02*
X32560867Y-24422474D01*
X33315208Y-25176815D01*
X30046395Y-28445628D01*
X29292054Y-27691287D01*
X29292054Y-27691287D01*
G37*
D24*
X12192000Y-26924000D03*
X12192000Y-22352000D03*
D25*
X10160000Y-25146000D03*
X11176000Y-24130000D03*
X12192000Y-25146000D03*
X13208000Y-24130000D03*
X14224000Y-25146000D03*
D24*
X21590000Y-36068000D03*
X21590000Y-31496000D03*
D25*
X19558000Y-34290000D03*
X20574000Y-33274000D03*
X21590000Y-34290000D03*
X22606000Y-33274000D03*
X23622000Y-34290000D03*
D10*
G36*
X103811605Y-39240628D02*
X103057264Y-38486287D01*
X106685287Y-34858264D01*
X107439628Y-35612605D01*
X103811605Y-39240628D01*
X103811605Y-39240628D01*
G37*
G36*
X100578713Y-36007736D02*
X99824372Y-35253395D01*
X103452395Y-31625372D01*
X104206736Y-32379713D01*
X100578713Y-36007736D01*
X100578713Y-36007736D01*
G37*
G36*
X103811605Y-39240628D02*
X100542792Y-35971815D01*
X101297133Y-35217474D01*
X104565946Y-38486287D01*
X103811605Y-39240628D01*
X103811605Y-39240628D01*
G37*
G36*
X103811605Y-37803787D02*
X100542792Y-34534974D01*
X101297133Y-33780633D01*
X104565946Y-37049446D01*
X103811605Y-37803787D01*
X103811605Y-37803787D01*
G37*
G36*
X105248446Y-37803787D02*
X101979633Y-34534974D01*
X102733974Y-33780633D01*
X106002787Y-37049446D01*
X105248446Y-37803787D01*
X105248446Y-37803787D01*
G37*
G36*
X105248446Y-36366946D02*
X101979633Y-33098133D01*
X102733974Y-32343792D01*
X106002787Y-35612605D01*
X105248446Y-36366946D01*
X105248446Y-36366946D01*
G37*
G36*
X106685287Y-36366946D02*
X103416474Y-33098133D01*
X104170815Y-32343792D01*
X107439628Y-35612605D01*
X106685287Y-36366946D01*
X106685287Y-36366946D01*
G37*
G36*
X117019605Y-28572628D02*
X116265264Y-27818287D01*
X119893287Y-24190264D01*
X120647628Y-24944605D01*
X117019605Y-28572628D01*
X117019605Y-28572628D01*
G37*
G36*
X113786713Y-25339736D02*
X113032372Y-24585395D01*
X116660395Y-20957372D01*
X117414736Y-21711713D01*
X113786713Y-25339736D01*
X113786713Y-25339736D01*
G37*
G36*
X117019605Y-28572628D02*
X113750792Y-25303815D01*
X114505133Y-24549474D01*
X117773946Y-27818287D01*
X117019605Y-28572628D01*
X117019605Y-28572628D01*
G37*
G36*
X117019605Y-27135787D02*
X113750792Y-23866974D01*
X114505133Y-23112633D01*
X117773946Y-26381446D01*
X117019605Y-27135787D01*
X117019605Y-27135787D01*
G37*
G36*
X118456446Y-27135787D02*
X115187633Y-23866974D01*
X115941974Y-23112633D01*
X119210787Y-26381446D01*
X118456446Y-27135787D01*
X118456446Y-27135787D01*
G37*
G36*
X118456446Y-25698946D02*
X115187633Y-22430133D01*
X115941974Y-21675792D01*
X119210787Y-24944605D01*
X118456446Y-25698946D01*
X118456446Y-25698946D01*
G37*
G36*
X119893287Y-25698946D02*
X116624474Y-22430133D01*
X117378815Y-21675792D01*
X120647628Y-24944605D01*
X119893287Y-25698946D01*
X119893287Y-25698946D01*
G37*
D26*
X58064400Y-1524000D03*
X67564000Y-1524000D03*
X61264800Y-9626600D03*
X64465200Y-9626600D03*
X66471800Y-6527800D03*
D27*
X62865000Y-1524000D03*
X62865000Y-6527800D03*
D20*
X83629500Y-22420580D03*
X83629500Y-21521420D03*
D28*
X49298860Y-16106140D03*
X52301140Y-16106140D03*
X52301140Y-18605500D03*
X49298860Y-18605500D03*
X52301140Y-21104860D03*
X49298860Y-21104860D03*
X49530000Y-12405360D03*
X52070000Y-12405360D03*
D21*
X65526920Y-12192000D03*
X66426080Y-12192000D03*
D20*
X80581500Y-36824920D03*
X80581500Y-37724080D03*
D21*
X41819830Y-6826250D03*
X40920670Y-6826250D03*
X40888920Y-5524500D03*
X41788080Y-5524500D03*
D29*
X47114500Y-17240000D03*
X45214500Y-17240000D03*
X46164500Y-19590000D03*
D21*
X40888920Y-4191000D03*
X41788080Y-4191000D03*
D26*
X7112000Y-17018000D03*
X7112000Y-19558000D03*
D30*
X62865000Y-12192000D03*
X47244000Y-13081000D03*
X43370500Y-10223500D03*
X43815000Y-14922500D03*
X12192000Y-28194000D03*
X65278000Y-32448500D03*
X106146600Y-16967200D03*
X119329200Y-27279600D03*
X92252800Y-27279600D03*
X18034000Y-16002000D03*
X27686000Y-27178000D03*
X21590000Y-37338000D03*
X79900000Y-20000000D03*
X49657000Y-32448500D03*
X106108500Y-37909500D03*
X75400000Y-20000000D03*
X81851500Y-28067000D03*
X67627500Y-12192000D03*
X78994000Y-29908500D03*
X79000000Y-27200000D03*
X79883000Y-28956000D03*
X58039000Y-12255500D03*
X61214000Y-17081500D03*
X58039000Y-14732000D03*
X56134000Y-12382500D03*
X73660000Y-29400500D03*
X74612500Y-30289500D03*
X79883000Y-18796000D03*
X77533500Y-13208000D03*
X68389500Y-20066000D03*
X68389500Y-13208000D03*
M02*
