%FSLAX46Y46*%
G04 Gerber Fmt 4.6, Leading zero omitted, Abs format (unit mm)*
G04 Created by KiCad (PCBNEW (2014-10-27 BZR 5228)-product) date 12/24/2014 6:30:20 PM*
%MOMM*%
G01*
G04 APERTURE LIST*
%ADD10C,0.100000*%
%ADD11C,0.254000*%
%ADD12C,0.200000*%
%ADD13C,0.150000*%
%ADD14R,0.508000X0.762000*%
%ADD15C,4.318000*%
%ADD16C,2.032000*%
%ADD17R,1.998980X0.449580*%
%ADD18R,0.449580X1.998980*%
%ADD19R,1.727200X1.727200*%
%ADD20O,1.727200X1.727200*%
%ADD21C,2.499360*%
%ADD22O,1.506220X3.014980*%
%ADD23R,0.599440X0.398780*%
%ADD24R,0.398780X0.599440*%
%ADD25R,1.066800X5.130800*%
%ADD26R,4.622800X1.066800*%
%ADD27R,5.130800X1.066800*%
%ADD28R,1.066800X4.622800*%
%ADD29C,1.778000*%
%ADD30C,0.990600*%
%ADD31O,1.981200X1.501140*%
%ADD32R,0.400000X0.450000*%
%ADD33C,0.889000*%
G04 APERTURE END LIST*
D10*
D11*
X24685623Y-39458900D02*
X24537456Y-40644233D01*
X24664456Y-39628233D02*
X24759707Y-39543567D01*
X24939623Y-39458900D01*
X25193623Y-39458900D01*
X25352374Y-39543567D01*
X25415873Y-39712900D01*
X25299456Y-40644233D01*
X26834041Y-40559567D02*
X26654123Y-40644233D01*
X26315457Y-40644233D01*
X26156707Y-40559567D01*
X26093207Y-40390233D01*
X26177874Y-39712900D01*
X26283707Y-39543567D01*
X26463624Y-39458900D01*
X26802290Y-39458900D01*
X26961041Y-39543567D01*
X27024540Y-39712900D01*
X27003373Y-39882233D01*
X26135541Y-40051567D01*
X27596041Y-40559567D02*
X27754790Y-40644233D01*
X28093457Y-40644233D01*
X28273374Y-40559567D01*
X28379207Y-40390233D01*
X28389791Y-40305567D01*
X28326290Y-40136233D01*
X28167541Y-40051567D01*
X27913541Y-40051567D01*
X27754790Y-39966900D01*
X27691291Y-39797567D01*
X27701874Y-39712900D01*
X27807707Y-39543567D01*
X27987624Y-39458900D01*
X28241624Y-39458900D01*
X28400374Y-39543567D01*
X30125456Y-40644233D02*
X29638624Y-39797567D01*
X29109456Y-40644233D02*
X29331706Y-38866233D01*
X30009040Y-38866233D01*
X30167790Y-38950900D01*
X30241874Y-39035567D01*
X30305373Y-39204900D01*
X30273623Y-39458900D01*
X30167790Y-39628233D01*
X30072540Y-39712900D01*
X29892624Y-39797567D01*
X29215290Y-39797567D01*
X31596540Y-39712900D02*
X31003873Y-39712900D01*
X30887456Y-40644233D02*
X31109706Y-38866233D01*
X31956373Y-38866233D01*
X36401375Y-40559567D02*
X36644791Y-40644233D01*
X37068124Y-40644233D01*
X37248041Y-40559567D01*
X37343291Y-40474900D01*
X37449125Y-40305567D01*
X37470291Y-40136233D01*
X37406791Y-39966900D01*
X37332707Y-39882233D01*
X37173958Y-39797567D01*
X36845874Y-39712900D01*
X36687124Y-39628233D01*
X36613041Y-39543567D01*
X36549541Y-39374233D01*
X36570708Y-39204900D01*
X36676541Y-39035567D01*
X36771791Y-38950900D01*
X36951707Y-38866233D01*
X37375041Y-38866233D01*
X37618458Y-38950900D01*
X38168790Y-40644233D02*
X38391040Y-38866233D01*
X39184790Y-40644233D01*
X39407040Y-38866233D01*
X40147874Y-39712900D02*
X40740541Y-39712900D01*
X40878124Y-40644233D02*
X40031457Y-40644233D01*
X40253707Y-38866233D01*
X41100374Y-38866233D01*
X41566042Y-40559567D02*
X41809458Y-40644233D01*
X42232791Y-40644233D01*
X42412708Y-40559567D01*
X42507958Y-40474900D01*
X42613792Y-40305567D01*
X42634958Y-40136233D01*
X42571458Y-39966900D01*
X42497374Y-39882233D01*
X42338625Y-39797567D01*
X42010541Y-39712900D01*
X41851791Y-39628233D01*
X41777708Y-39543567D01*
X41714208Y-39374233D01*
X41735375Y-39204900D01*
X41841208Y-39035567D01*
X41936458Y-38950900D01*
X42116374Y-38866233D01*
X42539708Y-38866233D01*
X42783125Y-38950900D01*
X44656374Y-38866233D02*
X45672374Y-38866233D01*
X44942124Y-40644233D02*
X45164374Y-38866233D01*
X46042791Y-40644233D02*
X46190958Y-39458900D01*
X46148625Y-39797567D02*
X46254458Y-39628233D01*
X46349709Y-39543567D01*
X46529625Y-39458900D01*
X46698958Y-39458900D01*
X47905458Y-40644233D02*
X48021875Y-39712900D01*
X47958376Y-39543567D01*
X47799625Y-39458900D01*
X47460959Y-39458900D01*
X47281042Y-39543567D01*
X47916042Y-40559567D02*
X47736125Y-40644233D01*
X47312792Y-40644233D01*
X47154042Y-40559567D01*
X47090542Y-40390233D01*
X47111709Y-40220900D01*
X47217542Y-40051567D01*
X47397459Y-39966900D01*
X47820792Y-39966900D01*
X48000708Y-39882233D01*
X48900292Y-39458900D02*
X48752125Y-40644233D01*
X48879125Y-39628233D02*
X48974376Y-39543567D01*
X49154292Y-39458900D01*
X49408292Y-39458900D01*
X49567043Y-39543567D01*
X49630542Y-39712900D01*
X49514125Y-40644233D01*
X50286710Y-40559567D02*
X50445459Y-40644233D01*
X50784126Y-40644233D01*
X50964043Y-40559567D01*
X51069876Y-40390233D01*
X51080460Y-40305567D01*
X51016959Y-40136233D01*
X50858210Y-40051567D01*
X50604210Y-40051567D01*
X50445459Y-39966900D01*
X50381960Y-39797567D01*
X50392543Y-39712900D01*
X50498376Y-39543567D01*
X50678293Y-39458900D01*
X50932293Y-39458900D01*
X51091043Y-39543567D01*
X51800125Y-40644233D02*
X51948292Y-39458900D01*
X51927125Y-39628233D02*
X52022376Y-39543567D01*
X52202292Y-39458900D01*
X52456292Y-39458900D01*
X52615043Y-39543567D01*
X52678542Y-39712900D01*
X52562125Y-40644233D01*
X52678542Y-39712900D02*
X52784376Y-39543567D01*
X52964292Y-39458900D01*
X53218292Y-39458900D01*
X53377043Y-39543567D01*
X53440542Y-39712900D01*
X53324125Y-40644233D01*
X54170792Y-40644233D02*
X54318959Y-39458900D01*
X54393042Y-38866233D02*
X54297793Y-38950900D01*
X54371876Y-39035567D01*
X54467126Y-38950900D01*
X54393042Y-38866233D01*
X54371876Y-39035567D01*
X54911626Y-39458900D02*
X55588960Y-39458900D01*
X55239709Y-38866233D02*
X55049209Y-40390233D01*
X55112710Y-40559567D01*
X55271459Y-40644233D01*
X55440793Y-40644233D01*
X55927626Y-39458900D02*
X56604960Y-39458900D01*
X56255709Y-38866233D02*
X56065209Y-40390233D01*
X56128710Y-40559567D01*
X56287459Y-40644233D01*
X56456793Y-40644233D01*
X57737377Y-40559567D02*
X57557459Y-40644233D01*
X57218793Y-40644233D01*
X57060043Y-40559567D01*
X56996543Y-40390233D01*
X57081210Y-39712900D01*
X57187043Y-39543567D01*
X57366960Y-39458900D01*
X57705626Y-39458900D01*
X57864377Y-39543567D01*
X57927876Y-39712900D01*
X57906709Y-39882233D01*
X57038877Y-40051567D01*
X58573459Y-40644233D02*
X58721626Y-39458900D01*
X58679293Y-39797567D02*
X58785126Y-39628233D01*
X58880377Y-39543567D01*
X59060293Y-39458900D01*
X59229626Y-39458900D01*
X24325790Y-43387433D02*
X24548040Y-41609433D01*
X24971374Y-41609433D01*
X25214791Y-41694100D01*
X25362957Y-41863433D01*
X25426458Y-42032767D01*
X25468790Y-42371433D01*
X25437040Y-42625433D01*
X25310041Y-42964100D01*
X25204207Y-43133433D01*
X25013708Y-43302767D01*
X24749124Y-43387433D01*
X24325790Y-43387433D01*
X26791708Y-43302767D02*
X26611790Y-43387433D01*
X26273124Y-43387433D01*
X26114374Y-43302767D01*
X26050874Y-43133433D01*
X26135541Y-42456100D01*
X26241374Y-42286767D01*
X26421291Y-42202100D01*
X26759957Y-42202100D01*
X26918708Y-42286767D01*
X26982207Y-42456100D01*
X26961040Y-42625433D01*
X26093208Y-42794767D01*
X28400374Y-43302767D02*
X28220457Y-43387433D01*
X27881790Y-43387433D01*
X27723041Y-43302767D01*
X27648957Y-43218100D01*
X27585458Y-43048767D01*
X27648958Y-42540767D01*
X27754790Y-42371433D01*
X27850041Y-42286767D01*
X28029957Y-42202100D01*
X28368624Y-42202100D01*
X28527374Y-42286767D01*
X30622875Y-41778767D02*
X30718124Y-41694100D01*
X30898041Y-41609433D01*
X31321374Y-41609433D01*
X31480124Y-41694100D01*
X31554208Y-41778767D01*
X31617708Y-41948100D01*
X31596541Y-42117433D01*
X31480124Y-42371433D01*
X30337124Y-43387433D01*
X31437791Y-43387433D01*
X32760707Y-41609433D02*
X32930040Y-41609433D01*
X33088791Y-41694100D01*
X33162874Y-41778767D01*
X33226374Y-41948100D01*
X33268708Y-42286767D01*
X33215791Y-42710100D01*
X33088791Y-43048767D01*
X32982957Y-43218100D01*
X32887708Y-43302767D01*
X32707790Y-43387433D01*
X32538457Y-43387433D01*
X32379708Y-43302767D01*
X32305624Y-43218100D01*
X32242124Y-43048767D01*
X32199791Y-42710100D01*
X32252708Y-42286767D01*
X32379707Y-41948100D01*
X32485541Y-41778767D01*
X32580791Y-41694100D01*
X32760707Y-41609433D01*
X34824457Y-43387433D02*
X33808457Y-43387433D01*
X34316457Y-43387433D02*
X34538707Y-41609433D01*
X34337623Y-41863433D01*
X34147124Y-42032767D01*
X33967207Y-42117433D01*
X36496623Y-42202100D02*
X36348456Y-43387433D01*
X36157957Y-41524767D02*
X35575874Y-42794767D01*
X36676540Y-42794767D01*
X43460457Y-43387433D02*
X43576874Y-42456100D01*
X43513375Y-42286767D01*
X43354624Y-42202100D01*
X43015958Y-42202100D01*
X42836041Y-42286767D01*
X43471041Y-43302767D02*
X43291124Y-43387433D01*
X42867791Y-43387433D01*
X42709041Y-43302767D01*
X42645541Y-43133433D01*
X42666708Y-42964100D01*
X42772541Y-42794767D01*
X42952458Y-42710100D01*
X43375791Y-42710100D01*
X43555707Y-42625433D01*
X44307124Y-43387433D02*
X44455291Y-42202100D01*
X44412958Y-42540767D02*
X44518791Y-42371433D01*
X44614042Y-42286767D01*
X44793958Y-42202100D01*
X44963291Y-42202100D01*
X46169791Y-43387433D02*
X46286208Y-42456100D01*
X46222709Y-42286767D01*
X46063958Y-42202100D01*
X45725292Y-42202100D01*
X45545375Y-42286767D01*
X46180375Y-43302767D02*
X46000458Y-43387433D01*
X45577125Y-43387433D01*
X45418375Y-43302767D01*
X45354875Y-43133433D01*
X45376042Y-42964100D01*
X45481875Y-42794767D01*
X45661792Y-42710100D01*
X46085125Y-42710100D01*
X46265041Y-42625433D01*
X47164625Y-42202100D02*
X47016458Y-43387433D01*
X47143458Y-42371433D02*
X47238709Y-42286767D01*
X47418625Y-42202100D01*
X47672625Y-42202100D01*
X47831376Y-42286767D01*
X47894875Y-42456100D01*
X47778458Y-43387433D01*
X48519292Y-42202100D02*
X49196626Y-42202100D01*
X48847375Y-41609433D02*
X48656875Y-43133433D01*
X48720376Y-43302767D01*
X48879125Y-43387433D01*
X49048459Y-43387433D01*
X49641125Y-43387433D02*
X49789292Y-42202100D01*
X49863375Y-41609433D02*
X49768126Y-41694100D01*
X49842209Y-41778767D01*
X49937459Y-41694100D01*
X49863375Y-41609433D01*
X49842209Y-41778767D01*
X51397959Y-42202100D02*
X51249792Y-43387433D01*
X50635959Y-42202100D02*
X50519542Y-43133433D01*
X50583043Y-43302767D01*
X50741792Y-43387433D01*
X50995792Y-43387433D01*
X51175710Y-43302767D01*
X51270959Y-43218100D01*
X52022377Y-43302767D02*
X52181126Y-43387433D01*
X52519793Y-43387433D01*
X52699710Y-43302767D01*
X52805543Y-43133433D01*
X52816127Y-43048767D01*
X52752626Y-42879433D01*
X52593877Y-42794767D01*
X52339877Y-42794767D01*
X52181126Y-42710100D01*
X52117627Y-42540767D01*
X52128210Y-42456100D01*
X52234043Y-42286767D01*
X52413960Y-42202100D01*
X52667960Y-42202100D01*
X52826710Y-42286767D01*
X53556959Y-43218100D02*
X53631043Y-43302767D01*
X53535792Y-43387433D01*
X53461710Y-43302767D01*
X53556959Y-43218100D01*
X53535792Y-43387433D01*
X55155043Y-43302767D02*
X54975126Y-43387433D01*
X54636459Y-43387433D01*
X54477710Y-43302767D01*
X54403626Y-43218100D01*
X54340127Y-43048767D01*
X54403627Y-42540767D01*
X54509459Y-42371433D01*
X54604710Y-42286767D01*
X54784626Y-42202100D01*
X55123293Y-42202100D01*
X55282043Y-42286767D01*
X56160459Y-43387433D02*
X56001710Y-43302767D01*
X55927626Y-43218100D01*
X55864127Y-43048767D01*
X55927627Y-42540767D01*
X56033459Y-42371433D01*
X56128710Y-42286767D01*
X56308626Y-42202100D01*
X56562626Y-42202100D01*
X56721377Y-42286767D01*
X56795459Y-42371433D01*
X56858960Y-42540767D01*
X56795460Y-43048767D01*
X56689626Y-43218100D01*
X56594377Y-43302767D01*
X56414459Y-43387433D01*
X56160459Y-43387433D01*
X57515126Y-43387433D02*
X57663293Y-42202100D01*
X57642126Y-42371433D02*
X57737377Y-42286767D01*
X57917293Y-42202100D01*
X58171293Y-42202100D01*
X58330044Y-42286767D01*
X58393543Y-42456100D01*
X58277126Y-43387433D01*
X58393543Y-42456100D02*
X58499377Y-42286767D01*
X58679293Y-42202100D01*
X58933293Y-42202100D01*
X59092044Y-42286767D01*
X59155543Y-42456100D01*
X59039126Y-43387433D01*
D12*
X37973000Y0D02*
X37973000Y-3556000D01*
X58166000Y-3556000D02*
X37973000Y-3556000D01*
X71374000Y-3556000D02*
X58166000Y-3556000D01*
X74930000Y-6985000D02*
X71374000Y-3556000D01*
X87884000Y0D02*
X87884000Y-6985000D01*
X87884000Y-6985000D02*
X74930000Y-6985000D01*
D13*
X45622981Y-9842500D02*
G75*
G03X45622981Y-9842500I-283981J0D01*
G01*
X42799000Y-11112500D02*
X42799000Y-9334500D01*
X42799000Y-9334500D02*
X45847000Y-9334500D01*
X45847000Y-9334500D02*
X45847000Y-11112500D01*
X45847000Y-11112500D02*
X42799000Y-11112500D01*
X43527481Y-15176500D02*
G75*
G03X43527481Y-15176500I-283981J0D01*
G01*
X45783500Y-13906500D02*
X45783500Y-15684500D01*
X45783500Y-15684500D02*
X42735500Y-15684500D01*
X42735500Y-15684500D02*
X42735500Y-13906500D01*
X42735500Y-13906500D02*
X45783500Y-13906500D01*
X82118200Y-23215600D02*
X80975200Y-23215600D01*
X82118200Y-17678400D02*
X81000600Y-17678400D01*
X82118200Y-23215600D02*
X82118200Y-17678400D01*
X79883000Y-24409400D02*
X79883000Y-25501600D01*
X74269600Y-24434800D02*
X74269600Y-25501600D01*
X74244200Y-25501600D02*
X79883000Y-25527000D01*
X74295000Y-15417800D02*
X79806800Y-15392400D01*
X73202800Y-17170400D02*
X73202800Y-24358600D01*
X79832200Y-15417800D02*
X79832200Y-16459200D01*
X73837800Y-16560800D02*
X80899000Y-16560800D01*
X80949800Y-24384000D02*
X80949800Y-16662400D01*
X73202800Y-24384000D02*
X80822800Y-24384000D01*
X72059800Y-17602200D02*
X72059800Y-23241000D01*
X72059800Y-23241000D02*
X73202800Y-23241000D01*
X73212960Y-17145000D02*
X73797160Y-16560800D01*
X72064880Y-17602200D02*
X73212960Y-17602200D01*
X74295000Y-16560800D02*
X74295000Y-15412720D01*
X74728526Y-17586960D02*
G75*
G03X74728526Y-17586960I-479246J0D01*
G01*
X34480500Y-15303500D02*
X39560500Y-15303500D01*
X34480500Y-10858500D02*
X39560500Y-10858500D01*
X39560500Y-17208500D02*
X34480500Y-17208500D01*
X39560500Y-17208500D02*
X39560500Y-10858500D01*
X34480500Y-17208500D02*
X34480500Y-10858500D01*
X69619000Y-19854000D02*
X69619000Y-20362000D01*
X69619000Y-20362000D02*
X70381000Y-20362000D01*
X70381000Y-20362000D02*
X70381000Y-19854000D01*
X69619000Y-19346000D02*
X69619000Y-18838000D01*
X69619000Y-18838000D02*
X70381000Y-18838000D01*
X70381000Y-18838000D02*
X70381000Y-19346000D01*
X41529000Y-15621000D02*
X41529000Y-16129000D01*
X41529000Y-16129000D02*
X42291000Y-16129000D01*
X42291000Y-16129000D02*
X42291000Y-15621000D01*
X41529000Y-15113000D02*
X41529000Y-14605000D01*
X41529000Y-14605000D02*
X42291000Y-14605000D01*
X42291000Y-14605000D02*
X42291000Y-15113000D01*
X42291000Y-13017500D02*
X42291000Y-12509500D01*
X42291000Y-12509500D02*
X41529000Y-12509500D01*
X41529000Y-12509500D02*
X41529000Y-13017500D01*
X42291000Y-13525500D02*
X42291000Y-14033500D01*
X42291000Y-14033500D02*
X41529000Y-14033500D01*
X41529000Y-14033500D02*
X41529000Y-13525500D01*
X42291000Y-10795000D02*
X42291000Y-10287000D01*
X42291000Y-10287000D02*
X41529000Y-10287000D01*
X41529000Y-10287000D02*
X41529000Y-10795000D01*
X42291000Y-11303000D02*
X42291000Y-11811000D01*
X42291000Y-11811000D02*
X41529000Y-11811000D01*
X41529000Y-11811000D02*
X41529000Y-11303000D01*
X72009000Y-13017500D02*
X72009000Y-13525500D01*
X72009000Y-13525500D02*
X72771000Y-13525500D01*
X72771000Y-13525500D02*
X72771000Y-13017500D01*
X72009000Y-12509500D02*
X72009000Y-12001500D01*
X72009000Y-12001500D02*
X72771000Y-12001500D01*
X72771000Y-12001500D02*
X72771000Y-12509500D01*
X46990000Y-11112500D02*
X46482000Y-11112500D01*
X46482000Y-11112500D02*
X46482000Y-11874500D01*
X46482000Y-11874500D02*
X46990000Y-11874500D01*
X47498000Y-11112500D02*
X48006000Y-11112500D01*
X48006000Y-11112500D02*
X48006000Y-11874500D01*
X48006000Y-11874500D02*
X47498000Y-11874500D01*
X54292500Y-12001500D02*
X53784500Y-12001500D01*
X53784500Y-12001500D02*
X53784500Y-12763500D01*
X53784500Y-12763500D02*
X54292500Y-12763500D01*
X54800500Y-12001500D02*
X55308500Y-12001500D01*
X55308500Y-12001500D02*
X55308500Y-12763500D01*
X55308500Y-12763500D02*
X54800500Y-12763500D01*
X82105500Y-30607000D02*
X82613500Y-30607000D01*
X82613500Y-30607000D02*
X82613500Y-29845000D01*
X82613500Y-29845000D02*
X82105500Y-29845000D01*
X81597500Y-30607000D02*
X81089500Y-30607000D01*
X81089500Y-30607000D02*
X81089500Y-29845000D01*
X81089500Y-29845000D02*
X81597500Y-29845000D01*
X83248500Y-22225000D02*
X83248500Y-22733000D01*
X83248500Y-22733000D02*
X84010500Y-22733000D01*
X84010500Y-22733000D02*
X84010500Y-22225000D01*
X83248500Y-21717000D02*
X83248500Y-21209000D01*
X83248500Y-21209000D02*
X84010500Y-21209000D01*
X84010500Y-21209000D02*
X84010500Y-21717000D01*
X65722500Y-11811000D02*
X65214500Y-11811000D01*
X65214500Y-11811000D02*
X65214500Y-12573000D01*
X65214500Y-12573000D02*
X65722500Y-12573000D01*
X66230500Y-11811000D02*
X66738500Y-11811000D01*
X66738500Y-11811000D02*
X66738500Y-12573000D01*
X66738500Y-12573000D02*
X66230500Y-12573000D01*
X80962500Y-37020500D02*
X80962500Y-36512500D01*
X80962500Y-36512500D02*
X80200500Y-36512500D01*
X80200500Y-36512500D02*
X80200500Y-37020500D01*
X80962500Y-37528500D02*
X80962500Y-38036500D01*
X80962500Y-38036500D02*
X80200500Y-38036500D01*
X80200500Y-38036500D02*
X80200500Y-37528500D01*
X41624250Y-7207250D02*
X42132250Y-7207250D01*
X42132250Y-7207250D02*
X42132250Y-6445250D01*
X42132250Y-6445250D02*
X41624250Y-6445250D01*
X41116250Y-7207250D02*
X40608250Y-7207250D01*
X40608250Y-7207250D02*
X40608250Y-6445250D01*
X40608250Y-6445250D02*
X41116250Y-6445250D01*
X41084500Y-5143500D02*
X40576500Y-5143500D01*
X40576500Y-5143500D02*
X40576500Y-5905500D01*
X40576500Y-5905500D02*
X41084500Y-5905500D01*
X41592500Y-5143500D02*
X42100500Y-5143500D01*
X42100500Y-5143500D02*
X42100500Y-5905500D01*
X42100500Y-5905500D02*
X41592500Y-5905500D01*
X47307500Y-18161000D02*
G75*
G03X47307500Y-18161000I-254000J0D01*
G01*
X44704500Y-17615000D02*
X47624500Y-17615000D01*
X47624500Y-17615000D02*
X47624500Y-19215000D01*
X47594500Y-19215000D02*
X44704500Y-19215000D01*
X44704500Y-19215000D02*
X44704500Y-17615000D01*
X41084500Y-3810000D02*
X40576500Y-3810000D01*
X40576500Y-3810000D02*
X40576500Y-4572000D01*
X40576500Y-4572000D02*
X41084500Y-4572000D01*
X41592500Y-3810000D02*
X42100500Y-3810000D01*
X42100500Y-3810000D02*
X42100500Y-4572000D01*
X42100500Y-4572000D02*
X41592500Y-4572000D01*
D11*
X46116119Y-10807095D02*
X46938595Y-10807095D01*
X47035357Y-10758714D01*
X47083738Y-10710333D01*
X47132119Y-10613571D01*
X47132119Y-10420048D01*
X47083738Y-10323286D01*
X47035357Y-10274905D01*
X46938595Y-10226524D01*
X46116119Y-10226524D01*
X46212881Y-9791095D02*
X46164500Y-9742714D01*
X46116119Y-9645952D01*
X46116119Y-9404048D01*
X46164500Y-9307286D01*
X46212881Y-9258905D01*
X46309643Y-9210524D01*
X46406405Y-9210524D01*
X46551548Y-9258905D01*
X47132119Y-9839476D01*
X47132119Y-9210524D01*
X46052619Y-15569595D02*
X46875095Y-15569595D01*
X46971857Y-15521214D01*
X47020238Y-15472833D01*
X47068619Y-15376071D01*
X47068619Y-15182548D01*
X47020238Y-15085786D01*
X46971857Y-15037405D01*
X46875095Y-14989024D01*
X46052619Y-14989024D01*
X47068619Y-13973024D02*
X47068619Y-14553595D01*
X47068619Y-14263309D02*
X46052619Y-14263309D01*
X46197762Y-14360071D01*
X46294524Y-14456833D01*
X46342905Y-14553595D01*
X81310238Y-16132024D02*
X81310238Y-14862024D01*
X82640714Y-16011071D02*
X82580238Y-16071548D01*
X82398809Y-16132024D01*
X82277857Y-16132024D01*
X82096429Y-16071548D01*
X81975476Y-15950595D01*
X81915000Y-15829643D01*
X81854524Y-15587738D01*
X81854524Y-15406310D01*
X81915000Y-15164405D01*
X81975476Y-15043452D01*
X82096429Y-14922500D01*
X82277857Y-14862024D01*
X82398809Y-14862024D01*
X82580238Y-14922500D01*
X82640714Y-14982976D01*
X83850238Y-16132024D02*
X83124524Y-16132024D01*
X83487381Y-16132024D02*
X83487381Y-14862024D01*
X83366429Y-15043452D01*
X83245476Y-15164405D01*
X83124524Y-15224881D01*
X12929810Y-12385524D02*
X12929810Y-11115524D01*
X12929810Y-11599333D02*
X13050762Y-11538857D01*
X13292667Y-11538857D01*
X13413619Y-11599333D01*
X13474096Y-11659810D01*
X13534572Y-11780762D01*
X13534572Y-12143619D01*
X13474096Y-12264571D01*
X13413619Y-12325048D01*
X13292667Y-12385524D01*
X13050762Y-12385524D01*
X12929810Y-12325048D01*
X14683620Y-12385524D02*
X14078858Y-12385524D01*
X14078858Y-11115524D01*
X14925524Y-11115524D02*
X15651239Y-11115524D01*
X15288382Y-12385524D02*
X15288382Y-11115524D01*
X16074572Y-11901714D02*
X17042191Y-11901714D01*
X16558381Y-12385524D02*
X16558381Y-11417905D01*
X101581857Y-9464524D02*
X101581857Y-8194524D01*
X101581857Y-8678333D02*
X101702809Y-8617857D01*
X101944714Y-8617857D01*
X102065666Y-8678333D01*
X102126143Y-8738810D01*
X102186619Y-8859762D01*
X102186619Y-9222619D01*
X102126143Y-9343571D01*
X102065666Y-9404048D01*
X101944714Y-9464524D01*
X101702809Y-9464524D01*
X101581857Y-9404048D01*
X103456619Y-9464524D02*
X103033286Y-8859762D01*
X102730905Y-9464524D02*
X102730905Y-8194524D01*
X103214714Y-8194524D01*
X103335667Y-8255000D01*
X103396143Y-8315476D01*
X103456619Y-8436429D01*
X103456619Y-8617857D01*
X103396143Y-8738810D01*
X103335667Y-8799286D01*
X103214714Y-8859762D01*
X102730905Y-8859762D01*
X103819476Y-8194524D02*
X104545191Y-8194524D01*
X104182334Y-9464524D02*
X104182334Y-8194524D01*
X104968524Y-8980714D02*
X105936143Y-8980714D01*
X105452333Y-9464524D02*
X105452333Y-8496905D01*
X36083119Y-9878786D02*
X36264548Y-9939262D01*
X36325024Y-9999738D01*
X36385500Y-10120690D01*
X36385500Y-10302119D01*
X36325024Y-10423071D01*
X36264548Y-10483548D01*
X36143595Y-10544024D01*
X35659786Y-10544024D01*
X35659786Y-9274024D01*
X36083119Y-9274024D01*
X36204072Y-9334500D01*
X36264548Y-9394976D01*
X36325024Y-9515929D01*
X36325024Y-9636881D01*
X36264548Y-9757833D01*
X36204072Y-9818310D01*
X36083119Y-9878786D01*
X35659786Y-9878786D01*
X36869310Y-10181167D02*
X37474072Y-10181167D01*
X36748357Y-10544024D02*
X37171691Y-9274024D01*
X37595024Y-10544024D01*
X37836928Y-9274024D02*
X38562643Y-9274024D01*
X38199786Y-10544024D02*
X38199786Y-9274024D01*
X70339857Y-21632333D02*
X70388238Y-21680714D01*
X70436619Y-21825857D01*
X70436619Y-21922619D01*
X70388238Y-22067761D01*
X70291476Y-22164523D01*
X70194714Y-22212904D01*
X70001190Y-22261285D01*
X69856048Y-22261285D01*
X69662524Y-22212904D01*
X69565762Y-22164523D01*
X69469000Y-22067761D01*
X69420619Y-21922619D01*
X69420619Y-21825857D01*
X69469000Y-21680714D01*
X69517381Y-21632333D01*
X70436619Y-20664714D02*
X70436619Y-21245285D01*
X70436619Y-20954999D02*
X69420619Y-20954999D01*
X69565762Y-21051761D01*
X69662524Y-21148523D01*
X69710905Y-21245285D01*
X41066357Y-15536333D02*
X41114738Y-15584714D01*
X41163119Y-15729857D01*
X41163119Y-15826619D01*
X41114738Y-15971761D01*
X41017976Y-16068523D01*
X40921214Y-16116904D01*
X40727690Y-16165285D01*
X40582548Y-16165285D01*
X40389024Y-16116904D01*
X40292262Y-16068523D01*
X40195500Y-15971761D01*
X40147119Y-15826619D01*
X40147119Y-15729857D01*
X40195500Y-15584714D01*
X40243881Y-15536333D01*
X40243881Y-15149285D02*
X40195500Y-15100904D01*
X40147119Y-15004142D01*
X40147119Y-14762238D01*
X40195500Y-14665476D01*
X40243881Y-14617095D01*
X40340643Y-14568714D01*
X40437405Y-14568714D01*
X40582548Y-14617095D01*
X41163119Y-15197666D01*
X41163119Y-14568714D01*
X41066357Y-13440833D02*
X41114738Y-13489214D01*
X41163119Y-13634357D01*
X41163119Y-13731119D01*
X41114738Y-13876261D01*
X41017976Y-13973023D01*
X40921214Y-14021404D01*
X40727690Y-14069785D01*
X40582548Y-14069785D01*
X40389024Y-14021404D01*
X40292262Y-13973023D01*
X40195500Y-13876261D01*
X40147119Y-13731119D01*
X40147119Y-13634357D01*
X40195500Y-13489214D01*
X40243881Y-13440833D01*
X40147119Y-13102166D02*
X40147119Y-12473214D01*
X40534167Y-12811880D01*
X40534167Y-12666738D01*
X40582548Y-12569976D01*
X40630929Y-12521595D01*
X40727690Y-12473214D01*
X40969595Y-12473214D01*
X41066357Y-12521595D01*
X41114738Y-12569976D01*
X41163119Y-12666738D01*
X41163119Y-12957023D01*
X41114738Y-13053785D01*
X41066357Y-13102166D01*
X41066357Y-11218333D02*
X41114738Y-11266714D01*
X41163119Y-11411857D01*
X41163119Y-11508619D01*
X41114738Y-11653761D01*
X41017976Y-11750523D01*
X40921214Y-11798904D01*
X40727690Y-11847285D01*
X40582548Y-11847285D01*
X40389024Y-11798904D01*
X40292262Y-11750523D01*
X40195500Y-11653761D01*
X40147119Y-11508619D01*
X40147119Y-11411857D01*
X40195500Y-11266714D01*
X40243881Y-11218333D01*
X40485786Y-10347476D02*
X41163119Y-10347476D01*
X40098738Y-10589380D02*
X40824452Y-10831285D01*
X40824452Y-10202333D01*
X74119619Y-12932833D02*
X73635810Y-13271499D01*
X74119619Y-13513404D02*
X73103619Y-13513404D01*
X73103619Y-13126357D01*
X73152000Y-13029595D01*
X73200381Y-12981214D01*
X73297143Y-12932833D01*
X73442286Y-12932833D01*
X73539048Y-12981214D01*
X73587429Y-13029595D01*
X73635810Y-13126357D01*
X73635810Y-13513404D01*
X74119619Y-11965214D02*
X74119619Y-12545785D01*
X74119619Y-12255499D02*
X73103619Y-12255499D01*
X73248762Y-12352261D01*
X73345524Y-12449023D01*
X73393905Y-12545785D01*
X49354619Y-10710333D02*
X48870810Y-11048999D01*
X49354619Y-11290904D02*
X48338619Y-11290904D01*
X48338619Y-10903857D01*
X48387000Y-10807095D01*
X48435381Y-10758714D01*
X48532143Y-10710333D01*
X48677286Y-10710333D01*
X48774048Y-10758714D01*
X48822429Y-10807095D01*
X48870810Y-10903857D01*
X48870810Y-11290904D01*
X48435381Y-10323285D02*
X48387000Y-10274904D01*
X48338619Y-10178142D01*
X48338619Y-9936238D01*
X48387000Y-9839476D01*
X48435381Y-9791095D01*
X48532143Y-9742714D01*
X48628905Y-9742714D01*
X48774048Y-9791095D01*
X49354619Y-10371666D01*
X49354619Y-9742714D01*
X54377167Y-14112119D02*
X54038501Y-13628310D01*
X53796596Y-14112119D02*
X53796596Y-13096119D01*
X54183643Y-13096119D01*
X54280405Y-13144500D01*
X54328786Y-13192881D01*
X54377167Y-13289643D01*
X54377167Y-13434786D01*
X54328786Y-13531548D01*
X54280405Y-13579929D01*
X54183643Y-13628310D01*
X53796596Y-13628310D01*
X54715834Y-13096119D02*
X55344786Y-13096119D01*
X55006120Y-13483167D01*
X55151262Y-13483167D01*
X55248024Y-13531548D01*
X55296405Y-13579929D01*
X55344786Y-13676690D01*
X55344786Y-13918595D01*
X55296405Y-14015357D01*
X55248024Y-14063738D01*
X55151262Y-14112119D01*
X54860977Y-14112119D01*
X54764215Y-14063738D01*
X54715834Y-14015357D01*
X81682167Y-29542619D02*
X81343501Y-29058810D01*
X81101596Y-29542619D02*
X81101596Y-28526619D01*
X81488643Y-28526619D01*
X81585405Y-28575000D01*
X81633786Y-28623381D01*
X81682167Y-28720143D01*
X81682167Y-28865286D01*
X81633786Y-28962048D01*
X81585405Y-29010429D01*
X81488643Y-29058810D01*
X81101596Y-29058810D01*
X82553024Y-28865286D02*
X82553024Y-29542619D01*
X82311120Y-28478238D02*
X82069215Y-29203952D01*
X82698167Y-29203952D01*
X20592143Y-11941024D02*
X20592143Y-12969119D01*
X20652619Y-13090071D01*
X20713095Y-13150548D01*
X20834048Y-13211024D01*
X21075952Y-13211024D01*
X21196905Y-13150548D01*
X21257381Y-13090071D01*
X21317857Y-12969119D01*
X21317857Y-11941024D01*
X21922619Y-13211024D02*
X21922619Y-11941024D01*
X22406428Y-11941024D01*
X22527381Y-12001500D01*
X22587857Y-12061976D01*
X22648333Y-12182929D01*
X22648333Y-12364357D01*
X22587857Y-12485310D01*
X22527381Y-12545786D01*
X22406428Y-12606262D01*
X21922619Y-12606262D01*
X87430614Y-27123387D02*
X87002983Y-27551019D01*
X87601666Y-26353651D02*
X87430614Y-27123387D01*
X88200350Y-26952335D01*
X101444666Y-16066651D02*
X101145324Y-17563359D01*
X102043349Y-16665334D02*
X100546641Y-16964676D01*
X62426548Y-31465761D02*
X62487024Y-31284333D01*
X62487024Y-30981952D01*
X62426548Y-30860999D01*
X62366071Y-30800523D01*
X62245119Y-30740047D01*
X62124167Y-30740047D01*
X62003214Y-30800523D01*
X61942738Y-30860999D01*
X61882262Y-30981952D01*
X61821786Y-31223856D01*
X61761310Y-31344809D01*
X61700833Y-31405285D01*
X61579881Y-31465761D01*
X61458929Y-31465761D01*
X61337976Y-31405285D01*
X61277500Y-31344809D01*
X61217024Y-31223856D01*
X61217024Y-30921476D01*
X61277500Y-30740047D01*
X61217024Y-30377190D02*
X61217024Y-29651475D01*
X62487024Y-30014332D02*
X61217024Y-30014332D01*
X62124167Y-29288618D02*
X62124167Y-28683856D01*
X62487024Y-29409571D02*
X61217024Y-28986237D01*
X62487024Y-28562904D01*
X62487024Y-27413857D02*
X61882262Y-27837190D01*
X62487024Y-28139571D02*
X61217024Y-28139571D01*
X61217024Y-27655762D01*
X61277500Y-27534809D01*
X61337976Y-27474333D01*
X61458929Y-27413857D01*
X61640357Y-27413857D01*
X61761310Y-27474333D01*
X61821786Y-27534809D01*
X61882262Y-27655762D01*
X61882262Y-28139571D01*
X61217024Y-27051000D02*
X61217024Y-26325285D01*
X62487024Y-26688142D02*
X61217024Y-26688142D01*
X46805548Y-32100762D02*
X46866024Y-31919334D01*
X46866024Y-31616953D01*
X46805548Y-31496000D01*
X46745071Y-31435524D01*
X46624119Y-31375048D01*
X46503167Y-31375048D01*
X46382214Y-31435524D01*
X46321738Y-31496000D01*
X46261262Y-31616953D01*
X46200786Y-31858857D01*
X46140310Y-31979810D01*
X46079833Y-32040286D01*
X45958881Y-32100762D01*
X45837929Y-32100762D01*
X45716976Y-32040286D01*
X45656500Y-31979810D01*
X45596024Y-31858857D01*
X45596024Y-31556477D01*
X45656500Y-31375048D01*
X46200786Y-30830762D02*
X46200786Y-30407429D01*
X46866024Y-30226000D02*
X46866024Y-30830762D01*
X45596024Y-30830762D01*
X45596024Y-30226000D01*
X46866024Y-29076952D02*
X46866024Y-29681714D01*
X45596024Y-29681714D01*
X46200786Y-28653619D02*
X46200786Y-28230286D01*
X46866024Y-28048857D02*
X46866024Y-28653619D01*
X45596024Y-28653619D01*
X45596024Y-28048857D01*
X46745071Y-26778857D02*
X46805548Y-26839333D01*
X46866024Y-27020762D01*
X46866024Y-27141714D01*
X46805548Y-27323142D01*
X46684595Y-27444095D01*
X46563643Y-27504571D01*
X46321738Y-27565047D01*
X46140310Y-27565047D01*
X45898405Y-27504571D01*
X45777452Y-27444095D01*
X45656500Y-27323142D01*
X45596024Y-27141714D01*
X45596024Y-27020762D01*
X45656500Y-26839333D01*
X45716976Y-26778857D01*
X45596024Y-26416000D02*
X45596024Y-25690285D01*
X46866024Y-26053142D02*
X45596024Y-26053142D01*
X27055115Y-23861849D02*
X26328142Y-23733559D01*
X26541957Y-24375006D02*
X25643932Y-23476981D01*
X25986036Y-23134876D01*
X26114326Y-23092112D01*
X26199852Y-23092112D01*
X26328142Y-23134876D01*
X26456431Y-23263165D01*
X26499194Y-23391455D01*
X26499194Y-23476981D01*
X26456431Y-23605270D01*
X26114326Y-23947375D01*
X27439983Y-23476981D02*
X26541957Y-22578955D01*
X27482746Y-21723693D02*
X27354457Y-21766455D01*
X27226167Y-21894745D01*
X27140641Y-22065797D01*
X27140641Y-22236850D01*
X27183404Y-22365139D01*
X27311694Y-22578955D01*
X27439983Y-22707244D01*
X27653799Y-22835534D01*
X27782088Y-22878297D01*
X27953141Y-22878297D01*
X28124193Y-22792771D01*
X28209719Y-22707245D01*
X28295246Y-22536192D01*
X28295245Y-22450665D01*
X27995903Y-22151324D01*
X27824851Y-22322376D01*
X28765640Y-22151324D02*
X27867614Y-21253298D01*
X28295246Y-21680930D02*
X28808403Y-21167772D01*
X29278797Y-21638167D02*
X28380771Y-20740141D01*
X28680113Y-20440799D02*
X29193271Y-19927641D01*
X29834718Y-21082246D02*
X28936692Y-20184220D01*
X9401024Y-25847523D02*
X9401024Y-26452285D01*
X8131024Y-26452285D01*
X8735786Y-25424190D02*
X8735786Y-25000857D01*
X9401024Y-24819428D02*
X9401024Y-25424190D01*
X8131024Y-25424190D01*
X8131024Y-24819428D01*
X8735786Y-23851809D02*
X8735786Y-24275142D01*
X9401024Y-24275142D02*
X8131024Y-24275142D01*
X8131024Y-23670380D01*
X8131024Y-23368000D02*
X8131024Y-22642285D01*
X9401024Y-23005142D02*
X8131024Y-23005142D01*
X18799024Y-36170809D02*
X17529024Y-36170809D01*
X17529024Y-35868428D01*
X17589500Y-35687000D01*
X17710452Y-35566047D01*
X17831405Y-35505571D01*
X18073310Y-35445095D01*
X18254738Y-35445095D01*
X18496643Y-35505571D01*
X18617595Y-35566047D01*
X18738548Y-35687000D01*
X18799024Y-35868428D01*
X18799024Y-36170809D01*
X17529024Y-34658904D02*
X17529024Y-34417000D01*
X17589500Y-34296047D01*
X17710452Y-34175095D01*
X17952357Y-34114619D01*
X18375690Y-34114619D01*
X18617595Y-34175095D01*
X18738548Y-34296047D01*
X18799024Y-34417000D01*
X18799024Y-34658904D01*
X18738548Y-34779857D01*
X18617595Y-34900809D01*
X18375690Y-34961285D01*
X17952357Y-34961285D01*
X17710452Y-34900809D01*
X17589500Y-34779857D01*
X17529024Y-34658904D01*
X17529024Y-33691285D02*
X18799024Y-33388904D01*
X17891881Y-33147000D01*
X18799024Y-32905095D01*
X17529024Y-32602714D01*
X18799024Y-32118904D02*
X17529024Y-32118904D01*
X18799024Y-31393190D01*
X17529024Y-31393190D01*
X101380521Y-37812768D02*
X101466048Y-37983821D01*
X101466048Y-38069347D01*
X101423285Y-38197636D01*
X101294995Y-38325925D01*
X101166706Y-38368688D01*
X101081179Y-38368689D01*
X100952890Y-38325925D01*
X100610785Y-37983821D01*
X101508811Y-37085795D01*
X101808152Y-37385137D01*
X101850916Y-37513426D01*
X101850916Y-37598952D01*
X101808152Y-37727242D01*
X101722626Y-37812768D01*
X101594337Y-37855531D01*
X101508811Y-37855532D01*
X101380521Y-37812768D01*
X101081179Y-37513426D01*
X114096746Y-27080624D02*
X114524377Y-27508256D01*
X113754641Y-27251676D02*
X114952009Y-26652993D01*
X114353325Y-27850360D01*
X84055857Y-24108833D02*
X84104238Y-24157214D01*
X84152619Y-24302357D01*
X84152619Y-24399119D01*
X84104238Y-24544261D01*
X84007476Y-24641023D01*
X83910714Y-24689404D01*
X83717190Y-24737785D01*
X83572048Y-24737785D01*
X83378524Y-24689404D01*
X83281762Y-24641023D01*
X83185000Y-24544261D01*
X83136619Y-24399119D01*
X83136619Y-24302357D01*
X83185000Y-24157214D01*
X83233381Y-24108833D01*
X83136619Y-23189595D02*
X83136619Y-23673404D01*
X83620429Y-23721785D01*
X83572048Y-23673404D01*
X83523667Y-23576642D01*
X83523667Y-23334738D01*
X83572048Y-23237976D01*
X83620429Y-23189595D01*
X83717190Y-23141214D01*
X83959095Y-23141214D01*
X84055857Y-23189595D01*
X84104238Y-23237976D01*
X84152619Y-23334738D01*
X84152619Y-23576642D01*
X84104238Y-23673404D01*
X84055857Y-23721785D01*
X65807167Y-13761357D02*
X65758786Y-13809738D01*
X65613643Y-13858119D01*
X65516881Y-13858119D01*
X65371739Y-13809738D01*
X65274977Y-13712976D01*
X65226596Y-13616214D01*
X65178215Y-13422690D01*
X65178215Y-13277548D01*
X65226596Y-13084024D01*
X65274977Y-12987262D01*
X65371739Y-12890500D01*
X65516881Y-12842119D01*
X65613643Y-12842119D01*
X65758786Y-12890500D01*
X65807167Y-12938881D01*
X66678024Y-12842119D02*
X66484501Y-12842119D01*
X66387739Y-12890500D01*
X66339358Y-12938881D01*
X66242596Y-13084024D01*
X66194215Y-13277548D01*
X66194215Y-13664595D01*
X66242596Y-13761357D01*
X66290977Y-13809738D01*
X66387739Y-13858119D01*
X66581262Y-13858119D01*
X66678024Y-13809738D01*
X66726405Y-13761357D01*
X66774786Y-13664595D01*
X66774786Y-13422690D01*
X66726405Y-13325929D01*
X66678024Y-13277548D01*
X66581262Y-13229167D01*
X66387739Y-13229167D01*
X66290977Y-13277548D01*
X66242596Y-13325929D01*
X66194215Y-13422690D01*
X82374619Y-37443833D02*
X81890810Y-37782499D01*
X82374619Y-38024404D02*
X81358619Y-38024404D01*
X81358619Y-37637357D01*
X81407000Y-37540595D01*
X81455381Y-37492214D01*
X81552143Y-37443833D01*
X81697286Y-37443833D01*
X81794048Y-37492214D01*
X81842429Y-37540595D01*
X81890810Y-37637357D01*
X81890810Y-38024404D01*
X81358619Y-36524595D02*
X81358619Y-37008404D01*
X81842429Y-37056785D01*
X81794048Y-37008404D01*
X81745667Y-36911642D01*
X81745667Y-36669738D01*
X81794048Y-36572976D01*
X81842429Y-36524595D01*
X81939190Y-36476214D01*
X82181095Y-36476214D01*
X82277857Y-36524595D01*
X82326238Y-36572976D01*
X82374619Y-36669738D01*
X82374619Y-36911642D01*
X82326238Y-37008404D01*
X82277857Y-37056785D01*
X39264167Y-7317619D02*
X38925501Y-6833810D01*
X38683596Y-7317619D02*
X38683596Y-6301619D01*
X39070643Y-6301619D01*
X39167405Y-6350000D01*
X39215786Y-6398381D01*
X39264167Y-6495143D01*
X39264167Y-6640286D01*
X39215786Y-6737048D01*
X39167405Y-6785429D01*
X39070643Y-6833810D01*
X38683596Y-6833810D01*
X40135024Y-6301619D02*
X39941501Y-6301619D01*
X39844739Y-6350000D01*
X39796358Y-6398381D01*
X39699596Y-6543524D01*
X39651215Y-6737048D01*
X39651215Y-7124095D01*
X39699596Y-7220857D01*
X39747977Y-7269238D01*
X39844739Y-7317619D01*
X40038262Y-7317619D01*
X40135024Y-7269238D01*
X40183405Y-7220857D01*
X40231786Y-7124095D01*
X40231786Y-6882190D01*
X40183405Y-6785429D01*
X40135024Y-6737048D01*
X40038262Y-6688667D01*
X39844739Y-6688667D01*
X39747977Y-6737048D01*
X39699596Y-6785429D01*
X39651215Y-6882190D01*
X39264167Y-5984119D02*
X38925501Y-5500310D01*
X38683596Y-5984119D02*
X38683596Y-4968119D01*
X39070643Y-4968119D01*
X39167405Y-5016500D01*
X39215786Y-5064881D01*
X39264167Y-5161643D01*
X39264167Y-5306786D01*
X39215786Y-5403548D01*
X39167405Y-5451929D01*
X39070643Y-5500310D01*
X38683596Y-5500310D01*
X39602834Y-4968119D02*
X40280167Y-4968119D01*
X39844739Y-5984119D01*
X43385619Y-19189095D02*
X44208095Y-19189095D01*
X44304857Y-19140714D01*
X44353238Y-19092333D01*
X44401619Y-18995571D01*
X44401619Y-18802048D01*
X44353238Y-18705286D01*
X44304857Y-18656905D01*
X44208095Y-18608524D01*
X43385619Y-18608524D01*
X43385619Y-18221476D02*
X43385619Y-17592524D01*
X43772667Y-17931190D01*
X43772667Y-17786048D01*
X43821048Y-17689286D01*
X43869429Y-17640905D01*
X43966190Y-17592524D01*
X44208095Y-17592524D01*
X44304857Y-17640905D01*
X44353238Y-17689286D01*
X44401619Y-17786048D01*
X44401619Y-18076333D01*
X44353238Y-18173095D01*
X44304857Y-18221476D01*
X39200667Y-4553857D02*
X39152286Y-4602238D01*
X39007143Y-4650619D01*
X38910381Y-4650619D01*
X38765239Y-4602238D01*
X38668477Y-4505476D01*
X38620096Y-4408714D01*
X38571715Y-4215190D01*
X38571715Y-4070048D01*
X38620096Y-3876524D01*
X38668477Y-3779762D01*
X38765239Y-3683000D01*
X38910381Y-3634619D01*
X39007143Y-3634619D01*
X39152286Y-3683000D01*
X39200667Y-3731381D01*
X39539334Y-3634619D02*
X40216667Y-3634619D01*
X39781239Y-4650619D01*
D13*
X8580762Y-17422762D02*
X8723619Y-17470381D01*
X8961715Y-17470381D01*
X9056953Y-17422762D01*
X9104572Y-17375143D01*
X9152191Y-17279905D01*
X9152191Y-17184667D01*
X9104572Y-17089429D01*
X9056953Y-17041810D01*
X8961715Y-16994190D01*
X8771238Y-16946571D01*
X8676000Y-16898952D01*
X8628381Y-16851333D01*
X8580762Y-16756095D01*
X8580762Y-16660857D01*
X8628381Y-16565619D01*
X8676000Y-16518000D01*
X8771238Y-16470381D01*
X9009334Y-16470381D01*
X9152191Y-16518000D01*
X9580762Y-16946571D02*
X9914096Y-16946571D01*
X10056953Y-17470381D02*
X9580762Y-17470381D01*
X9580762Y-16470381D01*
X10056953Y-16470381D01*
X11056953Y-17470381D02*
X10723619Y-16994190D01*
X10485524Y-17470381D02*
X10485524Y-16470381D01*
X10866477Y-16470381D01*
X10961715Y-16518000D01*
X11009334Y-16565619D01*
X11056953Y-16660857D01*
X11056953Y-16803714D01*
X11009334Y-16898952D01*
X10961715Y-16946571D01*
X10866477Y-16994190D01*
X10485524Y-16994190D01*
X11247429Y-17565619D02*
X12009334Y-17565619D01*
X12818858Y-17470381D02*
X12485524Y-16994190D01*
X12247429Y-17470381D02*
X12247429Y-16470381D01*
X12628382Y-16470381D01*
X12723620Y-16518000D01*
X12771239Y-16565619D01*
X12818858Y-16660857D01*
X12818858Y-16803714D01*
X12771239Y-16898952D01*
X12723620Y-16946571D01*
X12628382Y-16994190D01*
X12247429Y-16994190D01*
X13152191Y-16470381D02*
X13818858Y-17470381D01*
X13818858Y-16470381D02*
X13152191Y-17470381D01*
X8699809Y-19962762D02*
X8842666Y-20010381D01*
X9080762Y-20010381D01*
X9176000Y-19962762D01*
X9223619Y-19915143D01*
X9271238Y-19819905D01*
X9271238Y-19724667D01*
X9223619Y-19629429D01*
X9176000Y-19581810D01*
X9080762Y-19534190D01*
X8890285Y-19486571D01*
X8795047Y-19438952D01*
X8747428Y-19391333D01*
X8699809Y-19296095D01*
X8699809Y-19200857D01*
X8747428Y-19105619D01*
X8795047Y-19058000D01*
X8890285Y-19010381D01*
X9128381Y-19010381D01*
X9271238Y-19058000D01*
X9699809Y-19486571D02*
X10033143Y-19486571D01*
X10176000Y-20010381D02*
X9699809Y-20010381D01*
X9699809Y-19010381D01*
X10176000Y-19010381D01*
X11176000Y-20010381D02*
X10842666Y-19534190D01*
X10604571Y-20010381D02*
X10604571Y-19010381D01*
X10985524Y-19010381D01*
X11080762Y-19058000D01*
X11128381Y-19105619D01*
X11176000Y-19200857D01*
X11176000Y-19343714D01*
X11128381Y-19438952D01*
X11080762Y-19486571D01*
X10985524Y-19534190D01*
X10604571Y-19534190D01*
X11366476Y-20105619D02*
X12128381Y-20105619D01*
X12223619Y-19010381D02*
X12795048Y-19010381D01*
X12509333Y-20010381D02*
X12509333Y-19010381D01*
X13033143Y-19010381D02*
X13699810Y-20010381D01*
X13699810Y-19010381D02*
X13033143Y-20010381D01*
%LPC*%
D14*
X45275500Y-8953500D03*
X43370500Y-8953500D03*
X45275500Y-11493500D03*
X44323000Y-8953500D03*
X43370500Y-11493500D03*
X43307000Y-16065500D03*
X45212000Y-16065500D03*
X43307000Y-13525500D03*
X44259500Y-16065500D03*
X45212000Y-13525500D03*
D15*
X31877000Y-6985000D03*
X93599000Y-6985000D03*
D16*
X3683000Y-14478000D03*
X121793000Y-14732000D03*
X57480200Y-29133800D03*
D17*
X72273160Y-23223220D03*
X72273160Y-22423120D03*
X72273160Y-21623020D03*
X72273160Y-20822920D03*
X72273160Y-20022820D03*
X72273160Y-19222720D03*
X72273160Y-18422620D03*
X72273160Y-17622520D03*
X81838800Y-17627600D03*
X81838800Y-23241000D03*
X81838800Y-22428200D03*
X81838800Y-21615400D03*
X81838800Y-20828000D03*
X81838800Y-20015200D03*
X81838800Y-19227800D03*
X81838800Y-18415000D03*
D18*
X74264520Y-15621000D03*
X75062080Y-15621000D03*
X75864720Y-15621000D03*
X76662280Y-15621000D03*
X77464920Y-15621000D03*
X78262480Y-15621000D03*
X79065120Y-15621000D03*
X79862680Y-15621000D03*
X74269600Y-25222200D03*
X75057000Y-25222200D03*
X75869800Y-25222200D03*
X76657200Y-25222200D03*
X77444600Y-25222200D03*
X78257400Y-25222200D03*
X79070200Y-25222200D03*
X79883000Y-25222200D03*
D19*
X75490000Y-32306000D03*
D20*
X75490000Y-34846000D03*
X78030000Y-32306000D03*
X78030000Y-34846000D03*
X80570000Y-32306000D03*
X80570000Y-34846000D03*
X83110000Y-32306000D03*
X83110000Y-34846000D03*
D19*
X65595500Y-22034500D03*
D20*
X65595500Y-19494500D03*
X63055500Y-22034500D03*
X63055500Y-19494500D03*
X60515500Y-22034500D03*
X60515500Y-19494500D03*
D21*
X11176000Y-13208000D03*
X25019000Y-8636000D03*
X99568000Y-8128000D03*
X114554000Y-13970000D03*
D22*
X38290500Y-14033500D03*
X35750500Y-14033500D03*
D23*
X70000000Y-20049580D03*
X70000000Y-19150420D03*
X41910000Y-15816580D03*
X41910000Y-14917420D03*
X41910000Y-12821920D03*
X41910000Y-13721080D03*
X41910000Y-10599420D03*
X41910000Y-11498580D03*
X72390000Y-13213080D03*
X72390000Y-12313920D03*
D24*
X46794420Y-11493500D03*
X47693580Y-11493500D03*
X54096920Y-12382500D03*
X54996080Y-12382500D03*
X82301080Y-30226000D03*
X81401920Y-30226000D03*
D25*
X19304000Y-16002000D03*
X23876000Y-16002000D03*
D26*
X21082000Y-13970000D03*
X22098000Y-14986000D03*
X21082000Y-16002000D03*
X22098000Y-17018000D03*
X21082000Y-18034000D03*
D10*
G36*
X89968605Y-28572628D02*
X89214264Y-27818287D01*
X92842287Y-24190264D01*
X93596628Y-24944605D01*
X89968605Y-28572628D01*
X89968605Y-28572628D01*
G37*
G36*
X86735713Y-25339736D02*
X85981372Y-24585395D01*
X89609395Y-20957372D01*
X90363736Y-21711713D01*
X86735713Y-25339736D01*
X86735713Y-25339736D01*
G37*
G36*
X89968605Y-28572628D02*
X86699792Y-25303815D01*
X87454133Y-24549474D01*
X90722946Y-27818287D01*
X89968605Y-28572628D01*
X89968605Y-28572628D01*
G37*
G36*
X89968605Y-27135787D02*
X86699792Y-23866974D01*
X87454133Y-23112633D01*
X90722946Y-26381446D01*
X89968605Y-27135787D01*
X89968605Y-27135787D01*
G37*
G36*
X91405446Y-27135787D02*
X88136633Y-23866974D01*
X88890974Y-23112633D01*
X92159787Y-26381446D01*
X91405446Y-27135787D01*
X91405446Y-27135787D01*
G37*
G36*
X91405446Y-25698946D02*
X88136633Y-22430133D01*
X88890974Y-21675792D01*
X92159787Y-24944605D01*
X91405446Y-25698946D01*
X91405446Y-25698946D01*
G37*
G36*
X92842287Y-25698946D02*
X89573474Y-22430133D01*
X90327815Y-21675792D01*
X93596628Y-24944605D01*
X92842287Y-25698946D01*
X92842287Y-25698946D01*
G37*
G36*
X103811605Y-18285628D02*
X103057264Y-17531287D01*
X106685287Y-13903264D01*
X107439628Y-14657605D01*
X103811605Y-18285628D01*
X103811605Y-18285628D01*
G37*
G36*
X100578713Y-15052736D02*
X99824372Y-14298395D01*
X103452395Y-10670372D01*
X104206736Y-11424713D01*
X100578713Y-15052736D01*
X100578713Y-15052736D01*
G37*
G36*
X103811605Y-18285628D02*
X100542792Y-15016815D01*
X101297133Y-14262474D01*
X104565946Y-17531287D01*
X103811605Y-18285628D01*
X103811605Y-18285628D01*
G37*
G36*
X103811605Y-16848787D02*
X100542792Y-13579974D01*
X101297133Y-12825633D01*
X104565946Y-16094446D01*
X103811605Y-16848787D01*
X103811605Y-16848787D01*
G37*
G36*
X105248446Y-16848787D02*
X101979633Y-13579974D01*
X102733974Y-12825633D01*
X106002787Y-16094446D01*
X105248446Y-16848787D01*
X105248446Y-16848787D01*
G37*
G36*
X105248446Y-15411946D02*
X101979633Y-12143133D01*
X102733974Y-11388792D01*
X106002787Y-14657605D01*
X105248446Y-15411946D01*
X105248446Y-15411946D01*
G37*
G36*
X106685287Y-15411946D02*
X103416474Y-12143133D01*
X104170815Y-11388792D01*
X107439628Y-14657605D01*
X106685287Y-15411946D01*
X106685287Y-15411946D01*
G37*
D27*
X65278000Y-31242000D03*
X65278000Y-26670000D03*
D28*
X63246000Y-29464000D03*
X64262000Y-28448000D03*
X65278000Y-29464000D03*
X66294000Y-28448000D03*
X67310000Y-29464000D03*
D27*
X49657000Y-31242000D03*
X49657000Y-26670000D03*
D28*
X47625000Y-29464000D03*
X48641000Y-28448000D03*
X49657000Y-29464000D03*
X50673000Y-28448000D03*
X51689000Y-29464000D03*
D10*
G36*
X26418372Y-24817605D02*
X27172713Y-24063264D01*
X30800736Y-27691287D01*
X30046395Y-28445628D01*
X26418372Y-24817605D01*
X26418372Y-24817605D01*
G37*
G36*
X29651264Y-21584713D02*
X30405605Y-20830372D01*
X34033628Y-24458395D01*
X33279287Y-25212736D01*
X29651264Y-21584713D01*
X29651264Y-21584713D01*
G37*
G36*
X26418372Y-24817605D02*
X29687185Y-21548792D01*
X30441526Y-22303133D01*
X27172713Y-25571946D01*
X26418372Y-24817605D01*
X26418372Y-24817605D01*
G37*
G36*
X27855213Y-24817605D02*
X31124026Y-21548792D01*
X31878367Y-22303133D01*
X28609554Y-25571946D01*
X27855213Y-24817605D01*
X27855213Y-24817605D01*
G37*
G36*
X27855213Y-26254446D02*
X31124026Y-22985633D01*
X31878367Y-23739974D01*
X28609554Y-27008787D01*
X27855213Y-26254446D01*
X27855213Y-26254446D01*
G37*
G36*
X29292054Y-26254446D02*
X32560867Y-22985633D01*
X33315208Y-23739974D01*
X30046395Y-27008787D01*
X29292054Y-26254446D01*
X29292054Y-26254446D01*
G37*
G36*
X29292054Y-27691287D02*
X32560867Y-24422474D01*
X33315208Y-25176815D01*
X30046395Y-28445628D01*
X29292054Y-27691287D01*
X29292054Y-27691287D01*
G37*
D27*
X12192000Y-26924000D03*
X12192000Y-22352000D03*
D28*
X10160000Y-25146000D03*
X11176000Y-24130000D03*
X12192000Y-25146000D03*
X13208000Y-24130000D03*
X14224000Y-25146000D03*
D27*
X21590000Y-36068000D03*
X21590000Y-31496000D03*
D28*
X19558000Y-34290000D03*
X20574000Y-33274000D03*
X21590000Y-34290000D03*
X22606000Y-33274000D03*
X23622000Y-34290000D03*
D10*
G36*
X103811605Y-39240628D02*
X103057264Y-38486287D01*
X106685287Y-34858264D01*
X107439628Y-35612605D01*
X103811605Y-39240628D01*
X103811605Y-39240628D01*
G37*
G36*
X100578713Y-36007736D02*
X99824372Y-35253395D01*
X103452395Y-31625372D01*
X104206736Y-32379713D01*
X100578713Y-36007736D01*
X100578713Y-36007736D01*
G37*
G36*
X103811605Y-39240628D02*
X100542792Y-35971815D01*
X101297133Y-35217474D01*
X104565946Y-38486287D01*
X103811605Y-39240628D01*
X103811605Y-39240628D01*
G37*
G36*
X103811605Y-37803787D02*
X100542792Y-34534974D01*
X101297133Y-33780633D01*
X104565946Y-37049446D01*
X103811605Y-37803787D01*
X103811605Y-37803787D01*
G37*
G36*
X105248446Y-37803787D02*
X101979633Y-34534974D01*
X102733974Y-33780633D01*
X106002787Y-37049446D01*
X105248446Y-37803787D01*
X105248446Y-37803787D01*
G37*
G36*
X105248446Y-36366946D02*
X101979633Y-33098133D01*
X102733974Y-32343792D01*
X106002787Y-35612605D01*
X105248446Y-36366946D01*
X105248446Y-36366946D01*
G37*
G36*
X106685287Y-36366946D02*
X103416474Y-33098133D01*
X104170815Y-32343792D01*
X107439628Y-35612605D01*
X106685287Y-36366946D01*
X106685287Y-36366946D01*
G37*
G36*
X117019605Y-28572628D02*
X116265264Y-27818287D01*
X119893287Y-24190264D01*
X120647628Y-24944605D01*
X117019605Y-28572628D01*
X117019605Y-28572628D01*
G37*
G36*
X113786713Y-25339736D02*
X113032372Y-24585395D01*
X116660395Y-20957372D01*
X117414736Y-21711713D01*
X113786713Y-25339736D01*
X113786713Y-25339736D01*
G37*
G36*
X117019605Y-28572628D02*
X113750792Y-25303815D01*
X114505133Y-24549474D01*
X117773946Y-27818287D01*
X117019605Y-28572628D01*
X117019605Y-28572628D01*
G37*
G36*
X117019605Y-27135787D02*
X113750792Y-23866974D01*
X114505133Y-23112633D01*
X117773946Y-26381446D01*
X117019605Y-27135787D01*
X117019605Y-27135787D01*
G37*
G36*
X118456446Y-27135787D02*
X115187633Y-23866974D01*
X115941974Y-23112633D01*
X119210787Y-26381446D01*
X118456446Y-27135787D01*
X118456446Y-27135787D01*
G37*
G36*
X118456446Y-25698946D02*
X115187633Y-22430133D01*
X115941974Y-21675792D01*
X119210787Y-24944605D01*
X118456446Y-25698946D01*
X118456446Y-25698946D01*
G37*
G36*
X119893287Y-25698946D02*
X116624474Y-22430133D01*
X117378815Y-21675792D01*
X120647628Y-24944605D01*
X119893287Y-25698946D01*
X119893287Y-25698946D01*
G37*
D29*
X58064400Y-1524000D03*
X67564000Y-1524000D03*
X61264800Y-9626600D03*
X64465200Y-9626600D03*
X66471800Y-6527800D03*
D30*
X62865000Y-1524000D03*
X62865000Y-6527800D03*
D23*
X83629500Y-22420580D03*
X83629500Y-21521420D03*
D31*
X49298860Y-16106140D03*
X52301140Y-16106140D03*
X52301140Y-18605500D03*
X49298860Y-18605500D03*
X52301140Y-21104860D03*
X49298860Y-21104860D03*
X49530000Y-12405360D03*
X52070000Y-12405360D03*
D24*
X65526920Y-12192000D03*
X66426080Y-12192000D03*
D23*
X80581500Y-36824920D03*
X80581500Y-37724080D03*
D24*
X41819830Y-6826250D03*
X40920670Y-6826250D03*
X40888920Y-5524500D03*
X41788080Y-5524500D03*
D32*
X47114500Y-17240000D03*
X45214500Y-17240000D03*
X46164500Y-19590000D03*
D24*
X40888920Y-4191000D03*
X41788080Y-4191000D03*
D29*
X7112000Y-17018000D03*
X7112000Y-19558000D03*
D33*
X62865000Y-12192000D03*
X47244000Y-13081000D03*
X43370500Y-10223500D03*
X43815000Y-14922500D03*
X12192000Y-28194000D03*
X65278000Y-32448500D03*
X106146600Y-16967200D03*
X119329200Y-27279600D03*
X92252800Y-27279600D03*
X18034000Y-16002000D03*
X27686000Y-27178000D03*
X21590000Y-37338000D03*
X79900000Y-20000000D03*
X49657000Y-32448500D03*
X106108500Y-37909500D03*
X75400000Y-20000000D03*
X81851500Y-28067000D03*
X67627500Y-12192000D03*
X78994000Y-29908500D03*
X79000000Y-27200000D03*
X79883000Y-28956000D03*
X58039000Y-12255500D03*
X61214000Y-17081500D03*
X58039000Y-14732000D03*
X56134000Y-12382500D03*
X73660000Y-29400500D03*
X74612500Y-30289500D03*
X79883000Y-18796000D03*
X77533500Y-13208000D03*
X68389500Y-20066000D03*
X68389500Y-13208000D03*
M02*
