%FSLAX46Y46*%
G04 Gerber Fmt 4.6, Leading zero omitted, Abs format (unit mm)*
G04 Created by KiCad (PCBNEW (2014-10-27 BZR 5228)-product) date 12/24/2014 6:30:20 PM*
%MOMM*%
G01*
G04 APERTURE LIST*
%ADD10C,0.100000*%
%ADD11R,0.508000X0.762000*%
%ADD12R,1.998980X0.449580*%
%ADD13R,0.449580X1.998980*%
%ADD14R,1.727200X1.727200*%
%ADD15O,1.727200X1.727200*%
%ADD16C,2.499360*%
%ADD17O,1.506220X3.014980*%
%ADD18R,0.599440X0.398780*%
%ADD19R,0.398780X0.599440*%
%ADD20R,0.508000X4.572000*%
%ADD21R,4.064000X0.508000*%
%ADD22R,4.572000X0.508000*%
%ADD23R,0.508000X4.064000*%
%ADD24C,1.778000*%
%ADD25C,0.990600*%
%ADD26O,1.981200X1.501140*%
%ADD27R,0.400000X0.450000*%
%ADD28C,0.889000*%
%ADD29C,0.381000*%
%ADD30C,0.254000*%
G04 APERTURE END LIST*
D10*
D11*
X45275500Y-8953500D03*
X43370500Y-8953500D03*
X45275500Y-11493500D03*
X44323000Y-8953500D03*
X43370500Y-11493500D03*
X43307000Y-16065500D03*
X45212000Y-16065500D03*
X43307000Y-13525500D03*
X44259500Y-16065500D03*
X45212000Y-13525500D03*
D12*
X72273160Y-23223220D03*
X72273160Y-22423120D03*
X72273160Y-21623020D03*
X72273160Y-20822920D03*
X72273160Y-20022820D03*
X72273160Y-19222720D03*
X72273160Y-18422620D03*
X72273160Y-17622520D03*
X81838800Y-17627600D03*
X81838800Y-23241000D03*
X81838800Y-22428200D03*
X81838800Y-21615400D03*
X81838800Y-20828000D03*
X81838800Y-20015200D03*
X81838800Y-19227800D03*
X81838800Y-18415000D03*
D13*
X74264520Y-15621000D03*
X75062080Y-15621000D03*
X75864720Y-15621000D03*
X76662280Y-15621000D03*
X77464920Y-15621000D03*
X78262480Y-15621000D03*
X79065120Y-15621000D03*
X79862680Y-15621000D03*
X74269600Y-25222200D03*
X75057000Y-25222200D03*
X75869800Y-25222200D03*
X76657200Y-25222200D03*
X77444600Y-25222200D03*
X78257400Y-25222200D03*
X79070200Y-25222200D03*
X79883000Y-25222200D03*
D14*
X75490000Y-32306000D03*
D15*
X75490000Y-34846000D03*
X78030000Y-32306000D03*
X78030000Y-34846000D03*
X80570000Y-32306000D03*
X80570000Y-34846000D03*
X83110000Y-32306000D03*
X83110000Y-34846000D03*
D14*
X65595500Y-22034500D03*
D15*
X65595500Y-19494500D03*
X63055500Y-22034500D03*
X63055500Y-19494500D03*
X60515500Y-22034500D03*
X60515500Y-19494500D03*
D16*
X11176000Y-13208000D03*
X25019000Y-8636000D03*
X99568000Y-8128000D03*
X114554000Y-13970000D03*
D17*
X38290500Y-14033500D03*
X35750500Y-14033500D03*
D18*
X70000000Y-20049580D03*
X70000000Y-19150420D03*
X41910000Y-15816580D03*
X41910000Y-14917420D03*
X41910000Y-12821920D03*
X41910000Y-13721080D03*
X41910000Y-10599420D03*
X41910000Y-11498580D03*
X72390000Y-13213080D03*
X72390000Y-12313920D03*
D19*
X46794420Y-11493500D03*
X47693580Y-11493500D03*
X54096920Y-12382500D03*
X54996080Y-12382500D03*
X82301080Y-30226000D03*
X81401920Y-30226000D03*
D20*
X19304000Y-16002000D03*
X23876000Y-16002000D03*
D21*
X21082000Y-13970000D03*
X22098000Y-14986000D03*
X21082000Y-16002000D03*
X22098000Y-17018000D03*
X21082000Y-18034000D03*
D10*
G36*
X89968605Y-28177497D02*
X89609395Y-27818287D01*
X92842287Y-24585395D01*
X93201497Y-24944605D01*
X89968605Y-28177497D01*
X89968605Y-28177497D01*
G37*
G36*
X86735713Y-24944605D02*
X86376503Y-24585395D01*
X89609395Y-21352503D01*
X89968605Y-21711713D01*
X86735713Y-24944605D01*
X86735713Y-24944605D01*
G37*
G36*
X89968605Y-28177497D02*
X87094923Y-25303815D01*
X87454133Y-24944605D01*
X90327815Y-27818287D01*
X89968605Y-28177497D01*
X89968605Y-28177497D01*
G37*
G36*
X89968605Y-26740656D02*
X87094923Y-23866974D01*
X87454133Y-23507764D01*
X90327815Y-26381446D01*
X89968605Y-26740656D01*
X89968605Y-26740656D01*
G37*
G36*
X91405446Y-26740656D02*
X88531764Y-23866974D01*
X88890974Y-23507764D01*
X91764656Y-26381446D01*
X91405446Y-26740656D01*
X91405446Y-26740656D01*
G37*
G36*
X91405446Y-25303815D02*
X88531764Y-22430133D01*
X88890974Y-22070923D01*
X91764656Y-24944605D01*
X91405446Y-25303815D01*
X91405446Y-25303815D01*
G37*
G36*
X92842287Y-25303815D02*
X89968605Y-22430133D01*
X90327815Y-22070923D01*
X93201497Y-24944605D01*
X92842287Y-25303815D01*
X92842287Y-25303815D01*
G37*
G36*
X103811605Y-17890497D02*
X103452395Y-17531287D01*
X106685287Y-14298395D01*
X107044497Y-14657605D01*
X103811605Y-17890497D01*
X103811605Y-17890497D01*
G37*
G36*
X100578713Y-14657605D02*
X100219503Y-14298395D01*
X103452395Y-11065503D01*
X103811605Y-11424713D01*
X100578713Y-14657605D01*
X100578713Y-14657605D01*
G37*
G36*
X103811605Y-17890497D02*
X100937923Y-15016815D01*
X101297133Y-14657605D01*
X104170815Y-17531287D01*
X103811605Y-17890497D01*
X103811605Y-17890497D01*
G37*
G36*
X103811605Y-16453656D02*
X100937923Y-13579974D01*
X101297133Y-13220764D01*
X104170815Y-16094446D01*
X103811605Y-16453656D01*
X103811605Y-16453656D01*
G37*
G36*
X105248446Y-16453656D02*
X102374764Y-13579974D01*
X102733974Y-13220764D01*
X105607656Y-16094446D01*
X105248446Y-16453656D01*
X105248446Y-16453656D01*
G37*
G36*
X105248446Y-15016815D02*
X102374764Y-12143133D01*
X102733974Y-11783923D01*
X105607656Y-14657605D01*
X105248446Y-15016815D01*
X105248446Y-15016815D01*
G37*
G36*
X106685287Y-15016815D02*
X103811605Y-12143133D01*
X104170815Y-11783923D01*
X107044497Y-14657605D01*
X106685287Y-15016815D01*
X106685287Y-15016815D01*
G37*
D22*
X65278000Y-31242000D03*
X65278000Y-26670000D03*
D23*
X63246000Y-29464000D03*
X64262000Y-28448000D03*
X65278000Y-29464000D03*
X66294000Y-28448000D03*
X67310000Y-29464000D03*
D22*
X49657000Y-31242000D03*
X49657000Y-26670000D03*
D23*
X47625000Y-29464000D03*
X48641000Y-28448000D03*
X49657000Y-29464000D03*
X50673000Y-28448000D03*
X51689000Y-29464000D03*
D10*
G36*
X26813503Y-24817605D02*
X27172713Y-24458395D01*
X30405605Y-27691287D01*
X30046395Y-28050497D01*
X26813503Y-24817605D01*
X26813503Y-24817605D01*
G37*
G36*
X30046395Y-21584713D02*
X30405605Y-21225503D01*
X33638497Y-24458395D01*
X33279287Y-24817605D01*
X30046395Y-21584713D01*
X30046395Y-21584713D01*
G37*
G36*
X26813503Y-24817605D02*
X29687185Y-21943923D01*
X30046395Y-22303133D01*
X27172713Y-25176815D01*
X26813503Y-24817605D01*
X26813503Y-24817605D01*
G37*
G36*
X28250344Y-24817605D02*
X31124026Y-21943923D01*
X31483236Y-22303133D01*
X28609554Y-25176815D01*
X28250344Y-24817605D01*
X28250344Y-24817605D01*
G37*
G36*
X28250344Y-26254446D02*
X31124026Y-23380764D01*
X31483236Y-23739974D01*
X28609554Y-26613656D01*
X28250344Y-26254446D01*
X28250344Y-26254446D01*
G37*
G36*
X29687185Y-26254446D02*
X32560867Y-23380764D01*
X32920077Y-23739974D01*
X30046395Y-26613656D01*
X29687185Y-26254446D01*
X29687185Y-26254446D01*
G37*
G36*
X29687185Y-27691287D02*
X32560867Y-24817605D01*
X32920077Y-25176815D01*
X30046395Y-28050497D01*
X29687185Y-27691287D01*
X29687185Y-27691287D01*
G37*
D22*
X12192000Y-26924000D03*
X12192000Y-22352000D03*
D23*
X10160000Y-25146000D03*
X11176000Y-24130000D03*
X12192000Y-25146000D03*
X13208000Y-24130000D03*
X14224000Y-25146000D03*
D22*
X21590000Y-36068000D03*
X21590000Y-31496000D03*
D23*
X19558000Y-34290000D03*
X20574000Y-33274000D03*
X21590000Y-34290000D03*
X22606000Y-33274000D03*
X23622000Y-34290000D03*
D10*
G36*
X103811605Y-38845497D02*
X103452395Y-38486287D01*
X106685287Y-35253395D01*
X107044497Y-35612605D01*
X103811605Y-38845497D01*
X103811605Y-38845497D01*
G37*
G36*
X100578713Y-35612605D02*
X100219503Y-35253395D01*
X103452395Y-32020503D01*
X103811605Y-32379713D01*
X100578713Y-35612605D01*
X100578713Y-35612605D01*
G37*
G36*
X103811605Y-38845497D02*
X100937923Y-35971815D01*
X101297133Y-35612605D01*
X104170815Y-38486287D01*
X103811605Y-38845497D01*
X103811605Y-38845497D01*
G37*
G36*
X103811605Y-37408656D02*
X100937923Y-34534974D01*
X101297133Y-34175764D01*
X104170815Y-37049446D01*
X103811605Y-37408656D01*
X103811605Y-37408656D01*
G37*
G36*
X105248446Y-37408656D02*
X102374764Y-34534974D01*
X102733974Y-34175764D01*
X105607656Y-37049446D01*
X105248446Y-37408656D01*
X105248446Y-37408656D01*
G37*
G36*
X105248446Y-35971815D02*
X102374764Y-33098133D01*
X102733974Y-32738923D01*
X105607656Y-35612605D01*
X105248446Y-35971815D01*
X105248446Y-35971815D01*
G37*
G36*
X106685287Y-35971815D02*
X103811605Y-33098133D01*
X104170815Y-32738923D01*
X107044497Y-35612605D01*
X106685287Y-35971815D01*
X106685287Y-35971815D01*
G37*
G36*
X117019605Y-28177497D02*
X116660395Y-27818287D01*
X119893287Y-24585395D01*
X120252497Y-24944605D01*
X117019605Y-28177497D01*
X117019605Y-28177497D01*
G37*
G36*
X113786713Y-24944605D02*
X113427503Y-24585395D01*
X116660395Y-21352503D01*
X117019605Y-21711713D01*
X113786713Y-24944605D01*
X113786713Y-24944605D01*
G37*
G36*
X117019605Y-28177497D02*
X114145923Y-25303815D01*
X114505133Y-24944605D01*
X117378815Y-27818287D01*
X117019605Y-28177497D01*
X117019605Y-28177497D01*
G37*
G36*
X117019605Y-26740656D02*
X114145923Y-23866974D01*
X114505133Y-23507764D01*
X117378815Y-26381446D01*
X117019605Y-26740656D01*
X117019605Y-26740656D01*
G37*
G36*
X118456446Y-26740656D02*
X115582764Y-23866974D01*
X115941974Y-23507764D01*
X118815656Y-26381446D01*
X118456446Y-26740656D01*
X118456446Y-26740656D01*
G37*
G36*
X118456446Y-25303815D02*
X115582764Y-22430133D01*
X115941974Y-22070923D01*
X118815656Y-24944605D01*
X118456446Y-25303815D01*
X118456446Y-25303815D01*
G37*
G36*
X119893287Y-25303815D02*
X117019605Y-22430133D01*
X117378815Y-22070923D01*
X120252497Y-24944605D01*
X119893287Y-25303815D01*
X119893287Y-25303815D01*
G37*
D24*
X58064400Y-1524000D03*
X67564000Y-1524000D03*
X61264800Y-9626600D03*
X64465200Y-9626600D03*
X66471800Y-6527800D03*
D25*
X62865000Y-1524000D03*
X62865000Y-6527800D03*
D18*
X83629500Y-22420580D03*
X83629500Y-21521420D03*
D26*
X49298860Y-16106140D03*
X52301140Y-16106140D03*
X52301140Y-18605500D03*
X49298860Y-18605500D03*
X52301140Y-21104860D03*
X49298860Y-21104860D03*
X49530000Y-12405360D03*
X52070000Y-12405360D03*
D19*
X65526920Y-12192000D03*
X66426080Y-12192000D03*
D18*
X80581500Y-36824920D03*
X80581500Y-37724080D03*
D19*
X41819830Y-6826250D03*
X40920670Y-6826250D03*
X40888920Y-5524500D03*
X41788080Y-5524500D03*
D27*
X47114500Y-17240000D03*
X45214500Y-17240000D03*
X46164500Y-19590000D03*
D19*
X40888920Y-4191000D03*
X41788080Y-4191000D03*
D24*
X7112000Y-17018000D03*
X7112000Y-19558000D03*
D28*
X62865000Y-12192000D03*
X47244000Y-13081000D03*
X43370500Y-10223500D03*
X43815000Y-14922500D03*
X12192000Y-28194000D03*
X65278000Y-32448500D03*
X106146600Y-16967200D03*
X119329200Y-27279600D03*
X92252800Y-27279600D03*
X18034000Y-16002000D03*
X27686000Y-27178000D03*
X21590000Y-37338000D03*
X79900000Y-20000000D03*
X49657000Y-32448500D03*
X106108500Y-37909500D03*
X75400000Y-20000000D03*
X81851500Y-28067000D03*
X67627500Y-12192000D03*
X78994000Y-29908500D03*
X79000000Y-27200000D03*
X79883000Y-28956000D03*
X58039000Y-12255500D03*
X61214000Y-17081500D03*
X58039000Y-14732000D03*
X56134000Y-12382500D03*
X73660000Y-29400500D03*
X74612500Y-30289500D03*
X79883000Y-18796000D03*
X77533500Y-13208000D03*
X68389500Y-20066000D03*
X68389500Y-13208000D03*
D29*
X28429949Y-23560369D02*
X27241500Y-24748818D01*
X27241500Y-24748818D02*
X27241500Y-24886392D01*
X27241500Y-24886392D02*
X28609554Y-26254446D01*
X21082000Y-18034000D02*
X19304000Y-18034000D01*
X19304000Y-18034000D02*
X19304000Y-16002000D01*
X21082000Y-13970000D02*
X19304000Y-13970000D01*
X19304000Y-13970000D02*
X19304000Y-16002000D01*
X102554369Y-16274051D02*
X103822500Y-17542182D01*
X103822500Y-17542182D02*
X103822500Y-17520392D01*
X103822500Y-17520392D02*
X105248446Y-16094446D01*
X47693580Y-11493500D02*
X47693580Y-12631420D01*
X47693580Y-12631420D02*
X47244000Y-13081000D01*
X43370500Y-10223500D02*
X42285920Y-10223500D01*
X44323000Y-9271000D02*
X43370500Y-10223500D01*
X42285920Y-10223500D02*
X41910000Y-10599420D01*
X44323000Y-8953500D02*
X44323000Y-9271000D01*
X44259500Y-16065500D02*
X44259500Y-15367000D01*
X43815000Y-14922500D02*
X41915080Y-14922500D01*
X44259500Y-15367000D02*
X43815000Y-14922500D01*
X41910000Y-14917420D02*
X41915080Y-14922500D01*
X41910000Y-14917420D02*
X41910000Y-13721080D01*
X12192000Y-24892000D02*
X12192000Y-28194000D01*
X12192000Y-28194000D02*
X12192000Y-26924000D01*
X65278000Y-31242000D02*
X65278000Y-32448500D01*
X105248446Y-16094446D02*
X106121200Y-16967200D01*
X106121200Y-16967200D02*
X106146600Y-16967200D01*
X118456446Y-26381446D02*
X119329200Y-27254200D01*
X119329200Y-27254200D02*
X119329200Y-27279600D01*
X91405446Y-26381446D02*
X92252800Y-27228800D01*
X92252800Y-27228800D02*
X92252800Y-27279600D01*
X19304000Y-16002000D02*
X18034000Y-16002000D01*
X18034000Y-16002000D02*
X21336000Y-16002000D01*
X28609554Y-26254446D02*
X27686000Y-27178000D01*
X21590000Y-34036000D02*
X21590000Y-37338000D01*
X21590000Y-37338000D02*
X21590000Y-36068000D01*
X81838800Y-20015200D02*
X79915200Y-20015200D01*
X79915200Y-20015200D02*
X79900000Y-20000000D01*
X70072300Y-19222720D02*
X70000000Y-19150420D01*
X72273160Y-19222720D02*
X70072300Y-19222720D01*
X74622720Y-19222720D02*
X75400000Y-20000000D01*
X72273160Y-19222720D02*
X74622720Y-19222720D01*
X74577080Y-20822920D02*
X75400000Y-20000000D01*
X72273160Y-20822920D02*
X74577080Y-20822920D01*
X49657000Y-31242000D02*
X49657000Y-32448500D01*
X103811605Y-35612605D02*
X106108500Y-37909500D01*
X83629500Y-20510500D02*
X83134200Y-20015200D01*
X83134200Y-20015200D02*
X81838800Y-20015200D01*
X83629500Y-21521420D02*
X83629500Y-20510500D01*
X47114500Y-15745500D02*
X46482000Y-15113000D01*
X46482000Y-15113000D02*
X44513500Y-15113000D01*
X44513500Y-15113000D02*
X44259500Y-15367000D01*
X47114500Y-17240000D02*
X47114500Y-15745500D01*
D30*
X117199210Y-23687369D02*
X115951000Y-22439159D01*
X115951000Y-22439159D02*
X115932949Y-22439159D01*
X115932949Y-22439159D02*
X115223554Y-23148554D01*
X115762369Y-25124210D02*
X114514159Y-23876000D01*
X114514159Y-23876000D02*
X114514159Y-23857949D01*
X114514159Y-23857949D02*
X115223554Y-23148554D01*
X79862680Y-15621000D02*
X79862680Y-13755744D01*
X113030000Y-20955000D02*
X115223554Y-23148554D01*
X105283000Y-20955000D02*
X113030000Y-20955000D01*
X97697556Y-13369556D02*
X105283000Y-20955000D01*
X80248868Y-13369556D02*
X97697556Y-13369556D01*
X79862680Y-13755744D02*
X80248868Y-13369556D01*
X103991210Y-34355369D02*
X102743000Y-33107159D01*
X102743000Y-33107159D02*
X102724949Y-33107159D01*
X102724949Y-33107159D02*
X102015554Y-33816554D01*
X102554369Y-35792210D02*
X101346000Y-34583841D01*
X101346000Y-34583841D02*
X101346000Y-34486108D01*
X101346000Y-34486108D02*
X102015554Y-33816554D01*
X102015554Y-31530554D02*
X102015554Y-33816554D01*
X81838800Y-17627600D02*
X88112600Y-17627600D01*
X88112600Y-17627600D02*
X102015554Y-31530554D01*
X22606000Y-33274000D02*
X22606000Y-31559500D01*
X22606000Y-31559500D02*
X22542500Y-31496000D01*
X22542500Y-31496000D02*
X21590000Y-31496000D01*
X20574000Y-33274000D02*
X20574000Y-31559500D01*
X20574000Y-31559500D02*
X20637500Y-31496000D01*
X20637500Y-31496000D02*
X21590000Y-31496000D01*
X72273160Y-17622520D02*
X69375020Y-17622520D01*
X58229500Y-21272500D02*
X58229500Y-21307052D01*
X58229500Y-17970500D02*
X58229500Y-21272500D01*
X60591998Y-15608002D02*
X58229500Y-17970500D01*
X67360502Y-15608002D02*
X60591998Y-15608002D01*
X69375020Y-17622520D02*
X67360502Y-15608002D01*
X29718000Y-20637500D02*
X31261924Y-20637500D01*
X29718000Y-20637500D02*
X21590000Y-28765500D01*
X21590000Y-28765500D02*
X21590000Y-31496000D01*
X58229500Y-21272500D02*
X58229500Y-22141574D01*
X35389422Y-24764998D02*
X33137976Y-22513552D01*
X55606076Y-24764998D02*
X36151422Y-24764998D01*
X58229500Y-22141574D02*
X55606076Y-24764998D01*
X33137976Y-22513552D02*
X31261924Y-20637500D01*
X36151422Y-24764998D02*
X35389422Y-24764998D01*
X66294000Y-28448000D02*
X66294000Y-26670000D01*
X66294000Y-26670000D02*
X65278000Y-26670000D01*
X64262000Y-28448000D02*
X64262000Y-26708102D01*
X64262000Y-26708102D02*
X64300102Y-26670000D01*
X64300102Y-26670000D02*
X65278000Y-26670000D01*
X72273160Y-23223220D02*
X68724780Y-23223220D01*
X68724780Y-23223220D02*
X65278000Y-26670000D01*
X50673000Y-28448000D02*
X50673000Y-26670000D01*
X50673000Y-26670000D02*
X49657000Y-26670000D01*
X48641000Y-28448000D02*
X48641000Y-26670000D01*
X48641000Y-26670000D02*
X49657000Y-26670000D01*
X50355500Y-25971500D02*
X65258076Y-25971500D01*
X65258076Y-25971500D02*
X68806456Y-22423120D01*
X68806456Y-22423120D02*
X72273160Y-22423120D01*
X49657000Y-26670000D02*
X50355500Y-25971500D01*
X29866790Y-23560369D02*
X31138659Y-22288500D01*
X31138659Y-22288500D02*
X31138659Y-22317767D01*
X31138659Y-22317767D02*
X31842446Y-23021554D01*
X31303631Y-24997210D02*
X32551841Y-23749000D01*
X32551841Y-23749000D02*
X32551841Y-23730949D01*
X32551841Y-23730949D02*
X31842446Y-23021554D01*
X67500000Y-16500000D02*
X67129000Y-16129000D01*
X67129000Y-16129000D02*
X67116004Y-16116004D01*
X72273160Y-18422620D02*
X69422620Y-18422620D01*
X67500000Y-16500000D02*
X69422620Y-18422620D01*
X58801000Y-21526500D02*
X58801000Y-22288498D01*
X60833000Y-16129000D02*
X67129000Y-16129000D01*
X58801000Y-18161000D02*
X60833000Y-16129000D01*
X58801000Y-21526500D02*
X58801000Y-18161000D01*
X31842446Y-23021554D02*
X32927554Y-23021554D01*
X35179000Y-25273000D02*
X32927554Y-23021554D01*
X55816498Y-25273000D02*
X35941000Y-25273000D01*
X58801000Y-22288498D02*
X55816498Y-25273000D01*
X35941000Y-25273000D02*
X35179000Y-25273000D01*
X103991210Y-13400369D02*
X102743000Y-12152159D01*
X102743000Y-12152159D02*
X102724949Y-12152159D01*
X102724949Y-12152159D02*
X102015554Y-12861554D01*
X102554369Y-14837210D02*
X101306159Y-13589000D01*
X101306159Y-13589000D02*
X101306159Y-13570949D01*
X101306159Y-13570949D02*
X102015554Y-12861554D01*
X79065120Y-15621000D02*
X79065120Y-13798958D01*
X79977124Y-12886954D02*
X101990154Y-12886954D01*
X79065120Y-13798958D02*
X79977124Y-12886954D01*
X101990154Y-12886954D02*
X102015554Y-12861554D01*
X81838800Y-28067000D02*
X81838800Y-23241000D01*
X81851500Y-28067000D02*
X81838800Y-28067000D01*
X81838800Y-28067000D02*
X81851500Y-28067000D01*
X81851500Y-28067000D02*
X81838800Y-28067000D01*
X22098000Y-17018000D02*
X23876000Y-17018000D01*
X23876000Y-17018000D02*
X23876000Y-16002000D01*
X22098000Y-14986000D02*
X23876000Y-14986000D01*
X23876000Y-14986000D02*
X23876000Y-16002000D01*
X67437000Y-15062202D02*
X73705722Y-15062202D01*
X73705722Y-15062202D02*
X74264520Y-15621000D01*
X67533126Y-15062202D02*
X67437000Y-15062202D01*
X57721498Y-21096630D02*
X57721498Y-21931152D01*
X57721498Y-17760078D02*
X57721498Y-21096630D01*
X60419374Y-15062202D02*
X57721498Y-17760078D01*
X60419374Y-15062202D02*
X67437000Y-15062202D01*
X23876000Y-16002000D02*
X27344848Y-16002000D01*
X35599844Y-24256996D02*
X27344848Y-16002000D01*
X55395654Y-24256996D02*
X36361844Y-24256996D01*
X57721498Y-21931152D02*
X55395654Y-24256996D01*
X36361844Y-24256996D02*
X35599844Y-24256996D01*
X70866000Y-12313920D02*
X72390000Y-12313920D01*
X74329768Y-12313920D02*
X72390000Y-12313920D01*
X76662280Y-14646432D02*
X74329768Y-12313920D01*
X76662280Y-15621000D02*
X76662280Y-14646432D01*
X70802500Y-12313920D02*
X70866000Y-12313920D01*
X70860920Y-12313920D02*
X70802500Y-12313920D01*
X67749420Y-12313920D02*
X70802500Y-12313920D01*
X67749420Y-12313920D02*
X67627500Y-12192000D01*
X66426080Y-12192000D02*
X67627500Y-12192000D01*
X95313500Y-12353552D02*
X79828024Y-12353552D01*
X99539052Y-8128000D02*
X95313500Y-12353552D01*
X78262480Y-13919096D02*
X78262480Y-15621000D01*
X79828024Y-12353552D02*
X78262480Y-13919096D01*
X99568000Y-8128000D02*
X99539052Y-8128000D01*
X90148210Y-23687369D02*
X88900000Y-22439159D01*
X88900000Y-22439159D02*
X88881949Y-22439159D01*
X88881949Y-22439159D02*
X88172554Y-23148554D01*
X88711369Y-25124210D02*
X87439500Y-23852341D01*
X87439500Y-23852341D02*
X87468767Y-23852341D01*
X87468767Y-23852341D02*
X88172554Y-23148554D01*
X81838800Y-18415000D02*
X83425000Y-18415000D01*
X83425000Y-18415000D02*
X88189000Y-23179000D01*
X75490000Y-32306000D02*
X75490000Y-29510000D01*
X76657200Y-28342800D02*
X75490000Y-29510000D01*
X76657200Y-28342800D02*
X76657200Y-25222200D01*
X78257400Y-25222200D02*
X78257400Y-26644600D01*
X78998000Y-30734000D02*
X80570000Y-32306000D01*
X78613000Y-30734000D02*
X78998000Y-30734000D01*
X78105000Y-30226000D02*
X78613000Y-30734000D01*
X78105000Y-26797000D02*
X78105000Y-30226000D01*
X78257400Y-26644600D02*
X78105000Y-26797000D01*
X80570000Y-32306000D02*
X81401920Y-31474080D01*
X81401920Y-31474080D02*
X81401920Y-30226000D01*
X80570000Y-32306000D02*
X80581500Y-32294500D01*
X79000000Y-29902500D02*
X79000000Y-27200000D01*
X78994000Y-29908500D02*
X79000000Y-29902500D01*
X79070200Y-27129800D02*
X79000000Y-27200000D01*
X79070200Y-25222200D02*
X79070200Y-27129800D01*
X79883000Y-28956000D02*
X79819500Y-28892500D01*
X79883000Y-28956000D02*
X79883000Y-25222200D01*
D29*
X55372000Y-10350500D02*
X57277000Y-12255500D01*
X45021500Y-10350500D02*
X43878500Y-11493500D01*
X43370500Y-11493500D02*
X43878500Y-11493500D01*
X55372000Y-10350500D02*
X45148500Y-10350500D01*
X45148500Y-10350500D02*
X45021500Y-10350500D01*
X57277000Y-12255500D02*
X58039000Y-12255500D01*
X63309500Y-17208500D02*
X65595500Y-19494500D01*
X63182500Y-17081500D02*
X63309500Y-17208500D01*
X61214000Y-17081500D02*
X63182500Y-17081500D01*
X50673000Y-14732000D02*
X58039000Y-14732000D01*
X50673000Y-14732000D02*
X49298860Y-16106140D01*
X41910000Y-11498580D02*
X43365420Y-11498580D01*
X43365420Y-11498580D02*
X43370500Y-11493500D01*
X65595500Y-19494500D02*
X66167000Y-19494500D01*
X65537080Y-19436080D02*
X65595500Y-19494500D01*
X65722500Y-19494500D02*
X65595500Y-19494500D01*
D30*
X46794420Y-11493500D02*
X45275500Y-11493500D01*
X56134000Y-12382500D02*
X54996080Y-12382500D01*
X74162652Y-29400500D02*
X73660000Y-29400500D01*
X75057000Y-25222200D02*
X75057000Y-28506152D01*
X75057000Y-28506152D02*
X74162652Y-29400500D01*
X74612500Y-29669076D02*
X74612500Y-30289500D01*
X75869800Y-28411776D02*
X74612500Y-29669076D01*
X75869800Y-25222200D02*
X75869800Y-28411776D01*
X54096920Y-12382500D02*
X54074060Y-12405360D01*
X54074060Y-12405360D02*
X52070000Y-12405360D01*
X77464920Y-14345920D02*
X76263500Y-13144500D01*
X76263500Y-13144500D02*
X76263500Y-12620502D01*
X76263500Y-12620502D02*
X71936100Y-8293102D01*
X71936100Y-8293102D02*
X45935898Y-8293102D01*
X45935898Y-8293102D02*
X45275500Y-8953500D01*
X77464920Y-15621000D02*
X77464920Y-14345920D01*
D29*
X42037000Y-8953500D02*
X40920670Y-7837170D01*
X40920670Y-7837170D02*
X40920670Y-6826250D01*
X40894000Y-14033500D02*
X40894000Y-10096500D01*
X42037000Y-8953500D02*
X43370500Y-8953500D01*
X40894000Y-10096500D02*
X42037000Y-8953500D01*
X41910000Y-15816580D02*
X41904920Y-15811500D01*
X41904920Y-15811500D02*
X40894000Y-15811500D01*
X40894000Y-15811500D02*
X40894000Y-14033500D01*
X40894000Y-15811500D02*
X40894000Y-15811500D01*
X38290500Y-14033500D02*
X40894000Y-14033500D01*
X40894000Y-14033500D02*
X40703500Y-14033500D01*
X40703500Y-14033500D02*
X40894000Y-14033500D01*
X40894000Y-16256000D02*
X45742860Y-21104860D01*
X45742860Y-21104860D02*
X49298860Y-21104860D01*
X40894000Y-15811500D02*
X40894000Y-16256000D01*
D30*
X81838800Y-19227800D02*
X80314800Y-19227800D01*
X79883000Y-18796000D02*
X80314800Y-19227800D01*
X75120500Y-10795000D02*
X77533500Y-13208000D01*
X75145898Y-10820398D02*
X75120500Y-10795000D01*
X42889170Y-7392670D02*
X42322750Y-6826250D01*
X42322750Y-6826250D02*
X41819830Y-6826250D01*
X41819830Y-6826250D02*
X41819830Y-5556250D01*
X41819830Y-5556250D02*
X41788080Y-5524500D01*
X41788080Y-5524500D02*
X41788080Y-4191000D01*
X72136000Y-7810500D02*
X43307000Y-7810500D01*
X43307000Y-7810500D02*
X42322750Y-6826250D01*
X75120500Y-10795000D02*
X72136000Y-7810500D01*
D29*
X43307000Y-16732500D02*
X43307000Y-16065500D01*
X46164500Y-19590000D02*
X43307000Y-16732500D01*
X48314360Y-19590000D02*
X46164500Y-19590000D01*
X49298860Y-18605500D02*
X48314360Y-19590000D01*
D30*
X80581500Y-36824920D02*
X80581500Y-34857500D01*
X80581500Y-34857500D02*
X80570000Y-34846000D01*
X77444600Y-28346400D02*
X77444600Y-25222200D01*
X79315500Y-33591500D02*
X77343000Y-33591500D01*
X77343000Y-33591500D02*
X76780751Y-33029251D01*
X76780751Y-33029251D02*
X76780751Y-29010249D01*
X76780751Y-29010249D02*
X77444600Y-28346400D01*
X80570000Y-34846000D02*
X79315500Y-33591500D01*
X45212000Y-17237500D02*
X45212000Y-16065500D01*
X45214500Y-17240000D02*
X45212000Y-17237500D01*
D29*
X83629500Y-22420580D02*
X83629500Y-28897580D01*
X83629500Y-28897580D02*
X82301080Y-30226000D01*
X83110000Y-32306000D02*
X82301080Y-31497080D01*
X82301080Y-31497080D02*
X82301080Y-30226000D01*
X43307000Y-13525500D02*
X43815000Y-13525500D01*
X57404000Y-13208000D02*
X68389500Y-13208000D01*
X56705500Y-13906500D02*
X57404000Y-13208000D01*
X49847500Y-13906500D02*
X56705500Y-13906500D01*
X49339500Y-14414500D02*
X49847500Y-13906500D01*
X44704000Y-14414500D02*
X49339500Y-14414500D01*
X43815000Y-13525500D02*
X44704000Y-14414500D01*
X70000000Y-20049580D02*
X68389500Y-20066000D01*
X68389500Y-20066000D02*
X68373080Y-20066000D01*
X70026760Y-20022820D02*
X70000000Y-20049580D01*
X72273160Y-20022820D02*
X70026760Y-20022820D01*
X70000000Y-20800000D02*
X70000000Y-20049580D01*
X70823020Y-21623020D02*
X70000000Y-20800000D01*
X72273160Y-21623020D02*
X70823020Y-21623020D01*
X76823020Y-21623020D02*
X74612500Y-21623020D01*
X81838800Y-22428200D02*
X77628200Y-22428200D01*
X77628200Y-22428200D02*
X76823020Y-21623020D01*
X74612500Y-21623020D02*
X73723500Y-21623020D01*
X73723500Y-21623020D02*
X72273160Y-21623020D01*
X83621880Y-22428200D02*
X83629500Y-22420580D01*
X81838800Y-22428200D02*
X83621880Y-22428200D01*
X72390000Y-13213080D02*
X68389500Y-13213080D01*
X43307000Y-13525500D02*
X42603420Y-12821920D01*
X42603420Y-12821920D02*
X41910000Y-12821920D01*
X68389500Y-13208000D02*
X68389500Y-13213080D01*
X68389500Y-13213080D02*
X68389500Y-13208000D01*
X68389500Y-13208000D02*
X68389500Y-13213080D01*
D30*
X13208000Y-24130000D02*
X13208000Y-22352000D01*
X13208000Y-22352000D02*
X12192000Y-22352000D01*
X11176000Y-24130000D02*
X11176000Y-22352000D01*
X11176000Y-22352000D02*
X12192000Y-22352000D01*
X67691000Y-14554200D02*
X73342500Y-14554200D01*
X73672700Y-14224000D02*
X74422000Y-14224000D01*
X73342500Y-14554200D02*
X73672700Y-14224000D01*
X75062080Y-15621000D02*
X75062080Y-14483080D01*
X74803000Y-14224000D02*
X74422000Y-14224000D01*
X75062080Y-14483080D02*
X74803000Y-14224000D01*
X67743548Y-14554200D02*
X67691000Y-14554200D01*
X74422000Y-14224000D02*
X73786998Y-14224000D01*
X57213496Y-21720730D02*
X55185232Y-23748994D01*
X36576000Y-23748994D02*
X36572266Y-23748994D01*
X55185232Y-23748994D02*
X36576000Y-23748994D01*
X60208952Y-14554200D02*
X67691000Y-14554200D01*
X60208952Y-14554200D02*
X57213496Y-17549656D01*
X57213496Y-17549656D02*
X57213496Y-20886208D01*
X57213496Y-20886208D02*
X57213496Y-21720730D01*
X12192000Y-19494500D02*
X12192000Y-22352000D01*
X18669000Y-13017500D02*
X12192000Y-19494500D01*
X24423848Y-13017500D02*
X18669000Y-13017500D01*
X25078772Y-13017500D02*
X24423848Y-13017500D01*
X35810266Y-23748994D02*
X25078772Y-13017500D01*
X36576000Y-23748994D02*
X35810266Y-23748994D01*
X7175500Y-19494500D02*
X7112000Y-19558000D01*
X12192000Y-19494500D02*
X7175500Y-19494500D01*
X75864720Y-15621000D02*
X75864720Y-14567296D01*
X56705494Y-20637500D02*
X56705494Y-20675786D01*
X56705494Y-17339234D02*
X56705494Y-20637500D01*
X59998530Y-14046198D02*
X56705494Y-17339234D01*
X73132078Y-14046198D02*
X59998530Y-14046198D01*
X73462278Y-13715998D02*
X73132078Y-14046198D01*
X75013422Y-13715998D02*
X73462278Y-13715998D01*
X75864720Y-14567296D02*
X75013422Y-13715998D01*
X17760076Y-13208000D02*
X11176000Y-13208000D01*
X18458578Y-12509498D02*
X17760076Y-13208000D01*
X24634270Y-12509498D02*
X18458578Y-12509498D01*
X25289194Y-12509498D02*
X24634270Y-12509498D01*
X36020688Y-23240992D02*
X25289194Y-12509498D01*
X56705494Y-20637500D02*
X56705494Y-21510308D01*
X54974810Y-23240992D02*
X36782688Y-23240992D01*
X56705494Y-21510308D02*
X54974810Y-23240992D01*
X36782688Y-23240992D02*
X36020688Y-23240992D01*
X10922000Y-13208000D02*
X7112000Y-17018000D01*
X11176000Y-13208000D02*
X10922000Y-13208000D01*
D29*
G36*
X21165500Y-14033500D02*
X21145500Y-14033500D01*
X21018500Y-14033500D01*
X20998500Y-14033500D01*
X20998500Y-13906500D01*
X21018500Y-13906500D01*
X21018500Y-13886500D01*
X21145500Y-13886500D01*
X21145500Y-13906500D01*
X21165500Y-13906500D01*
X21165500Y-14033500D01*
X21165500Y-14033500D01*
G37*
X21165500Y-14033500D02*
X21145500Y-14033500D01*
X21018500Y-14033500D01*
X20998500Y-14033500D01*
X20998500Y-13906500D01*
X21018500Y-13906500D01*
X21018500Y-13886500D01*
X21145500Y-13886500D01*
X21145500Y-13906500D01*
X21165500Y-13906500D01*
X21165500Y-14033500D01*
G36*
X28533893Y-23546226D02*
X28415806Y-23664313D01*
X28326003Y-23574510D01*
X28340146Y-23560369D01*
X28326004Y-23546227D01*
X28415807Y-23456424D01*
X28429949Y-23470566D01*
X28444091Y-23456424D01*
X28533893Y-23546226D01*
X28533893Y-23546226D01*
G37*
X28533893Y-23546226D02*
X28415806Y-23664313D01*
X28326003Y-23574510D01*
X28340146Y-23560369D01*
X28326004Y-23546227D01*
X28415807Y-23456424D01*
X28429949Y-23470566D01*
X28444091Y-23456424D01*
X28533893Y-23546226D01*
G36*
X41993500Y-10600690D02*
X41826500Y-10600690D01*
X41826500Y-10535920D01*
X41846500Y-10535920D01*
X41846500Y-10515920D01*
X41973500Y-10515920D01*
X41973500Y-10535920D01*
X41993500Y-10535920D01*
X41993500Y-10600690D01*
X41993500Y-10600690D01*
G37*
X41993500Y-10600690D02*
X41826500Y-10600690D01*
X41826500Y-10535920D01*
X41846500Y-10535920D01*
X41846500Y-10515920D01*
X41973500Y-10515920D01*
X41973500Y-10535920D01*
X41993500Y-10535920D01*
X41993500Y-10600690D01*
G36*
X44018264Y-14986000D02*
X43866560Y-14986000D01*
X43783250Y-15020507D01*
X43699941Y-14986000D01*
X43422060Y-14986000D01*
X42914060Y-14986000D01*
X42790044Y-15037369D01*
X42733595Y-14980920D01*
X42498897Y-14980920D01*
X42348661Y-14918690D01*
X42070780Y-14918690D01*
X41826500Y-14918690D01*
X41826500Y-14853920D01*
X41846500Y-14853920D01*
X41846500Y-14444345D01*
X41846500Y-14194155D01*
X41846500Y-13784580D01*
X41826500Y-13784580D01*
X41826500Y-13719810D01*
X41993500Y-13719810D01*
X41993500Y-13784580D01*
X41973500Y-13784580D01*
X41973500Y-14194155D01*
X41973500Y-14444345D01*
X41973500Y-14853920D01*
X42733595Y-14853920D01*
X42908220Y-14679295D01*
X42908220Y-14602581D01*
X42914059Y-14605000D01*
X43191940Y-14605000D01*
X43637264Y-14605000D01*
X44018264Y-14986000D01*
X44018264Y-14986000D01*
G37*
X44018264Y-14986000D02*
X43866560Y-14986000D01*
X43783250Y-15020507D01*
X43699941Y-14986000D01*
X43422060Y-14986000D01*
X42914060Y-14986000D01*
X42790044Y-15037369D01*
X42733595Y-14980920D01*
X42498897Y-14980920D01*
X42348661Y-14918690D01*
X42070780Y-14918690D01*
X41826500Y-14918690D01*
X41826500Y-14853920D01*
X41846500Y-14853920D01*
X41846500Y-14444345D01*
X41846500Y-14194155D01*
X41846500Y-13784580D01*
X41826500Y-13784580D01*
X41826500Y-13719810D01*
X41993500Y-13719810D01*
X41993500Y-13784580D01*
X41973500Y-13784580D01*
X41973500Y-14194155D01*
X41973500Y-14444345D01*
X41973500Y-14853920D01*
X42733595Y-14853920D01*
X42908220Y-14679295D01*
X42908220Y-14602581D01*
X42914059Y-14605000D01*
X43191940Y-14605000D01*
X43637264Y-14605000D01*
X44018264Y-14986000D01*
G36*
X44081764Y-10033000D02*
X43700764Y-10414000D01*
X43485560Y-10414000D01*
X42977560Y-10414000D01*
X42769216Y-10500298D01*
X42908220Y-10361295D01*
X42908220Y-10261090D01*
X42801880Y-10004362D01*
X42726545Y-9929026D01*
X42977559Y-10033000D01*
X43255440Y-10033000D01*
X43763440Y-10033000D01*
X43846750Y-9998491D01*
X43930060Y-10033000D01*
X44081764Y-10033000D01*
X44081764Y-10033000D01*
G37*
X44081764Y-10033000D02*
X43700764Y-10414000D01*
X43485560Y-10414000D01*
X42977560Y-10414000D01*
X42769216Y-10500298D01*
X42908220Y-10361295D01*
X42908220Y-10261090D01*
X42801880Y-10004362D01*
X42726545Y-9929026D01*
X42977559Y-10033000D01*
X43255440Y-10033000D01*
X43763440Y-10033000D01*
X43846750Y-9998491D01*
X43930060Y-10033000D01*
X44081764Y-10033000D01*
G36*
X48337877Y-17355820D02*
X48013000Y-17572896D01*
X48013000Y-17478125D01*
X47838375Y-17303500D01*
X47178000Y-17303500D01*
X47178000Y-17988875D01*
X47352625Y-18163500D01*
X47453440Y-18163500D01*
X47683547Y-18068186D01*
X47576669Y-18605500D01*
X47595665Y-18701000D01*
X47051000Y-18701000D01*
X47051000Y-17988875D01*
X47051000Y-17303500D01*
X47051000Y-17176500D01*
X47051000Y-16491125D01*
X46876375Y-16316500D01*
X46775560Y-16316500D01*
X46518832Y-16422840D01*
X46322340Y-16619331D01*
X46216000Y-16876059D01*
X46216000Y-17001875D01*
X46390625Y-17176500D01*
X47051000Y-17176500D01*
X47051000Y-17303500D01*
X46390625Y-17303500D01*
X46216000Y-17478125D01*
X46216000Y-17603941D01*
X46322340Y-17860669D01*
X46518832Y-18057160D01*
X46775560Y-18163500D01*
X46876375Y-18163500D01*
X47051000Y-17988875D01*
X47051000Y-18701000D01*
X46586731Y-18701000D01*
X46503441Y-18666500D01*
X46498236Y-18666500D01*
X45849532Y-18017796D01*
X46006660Y-17860669D01*
X46113000Y-17603941D01*
X46113000Y-17326060D01*
X46113000Y-16876060D01*
X46078560Y-16792916D01*
X46164500Y-16585441D01*
X46164500Y-16307560D01*
X46164500Y-15545560D01*
X46064235Y-15303500D01*
X47852751Y-15303500D01*
X47686973Y-15551605D01*
X47576669Y-16106140D01*
X47633334Y-16391014D01*
X47453440Y-16316500D01*
X47352625Y-16316500D01*
X47178000Y-16491125D01*
X47178000Y-17176500D01*
X47838375Y-17176500D01*
X47954226Y-17060648D01*
X48001092Y-17130787D01*
X48013000Y-17138743D01*
X48337877Y-17355820D01*
X48337877Y-17355820D01*
G37*
X48337877Y-17355820D02*
X48013000Y-17572896D01*
X48013000Y-17478125D01*
X47838375Y-17303500D01*
X47178000Y-17303500D01*
X47178000Y-17988875D01*
X47352625Y-18163500D01*
X47453440Y-18163500D01*
X47683547Y-18068186D01*
X47576669Y-18605500D01*
X47595665Y-18701000D01*
X47051000Y-18701000D01*
X47051000Y-17988875D01*
X47051000Y-17303500D01*
X47051000Y-17176500D01*
X47051000Y-16491125D01*
X46876375Y-16316500D01*
X46775560Y-16316500D01*
X46518832Y-16422840D01*
X46322340Y-16619331D01*
X46216000Y-16876059D01*
X46216000Y-17001875D01*
X46390625Y-17176500D01*
X47051000Y-17176500D01*
X47051000Y-17303500D01*
X46390625Y-17303500D01*
X46216000Y-17478125D01*
X46216000Y-17603941D01*
X46322340Y-17860669D01*
X46518832Y-18057160D01*
X46775560Y-18163500D01*
X46876375Y-18163500D01*
X47051000Y-17988875D01*
X47051000Y-18701000D01*
X46586731Y-18701000D01*
X46503441Y-18666500D01*
X46498236Y-18666500D01*
X45849532Y-18017796D01*
X46006660Y-17860669D01*
X46113000Y-17603941D01*
X46113000Y-17326060D01*
X46113000Y-16876060D01*
X46078560Y-16792916D01*
X46164500Y-16585441D01*
X46164500Y-16307560D01*
X46164500Y-15545560D01*
X46064235Y-15303500D01*
X47852751Y-15303500D01*
X47686973Y-15551605D01*
X47576669Y-16106140D01*
X47633334Y-16391014D01*
X47453440Y-16316500D01*
X47352625Y-16316500D01*
X47178000Y-16491125D01*
X47178000Y-17176500D01*
X47838375Y-17176500D01*
X47954226Y-17060648D01*
X48001092Y-17130787D01*
X48013000Y-17138743D01*
X48337877Y-17355820D01*
G36*
X48375147Y-13525500D02*
X46164500Y-13525500D01*
X46164500Y-13005560D01*
X46058160Y-12748832D01*
X45861669Y-12552340D01*
X45789993Y-12522651D01*
X45925168Y-12466660D01*
X46072828Y-12319000D01*
X46132981Y-12319000D01*
X46199361Y-12385380D01*
X46456089Y-12491720D01*
X46733970Y-12491720D01*
X47132750Y-12491720D01*
X47244000Y-12445638D01*
X47355250Y-12491720D01*
X47455455Y-12491720D01*
X47630080Y-12317095D01*
X47630080Y-12082397D01*
X47692310Y-11932161D01*
X47692310Y-11654280D01*
X47692310Y-11410000D01*
X47757080Y-11410000D01*
X47757080Y-11430000D01*
X47777080Y-11430000D01*
X47777080Y-11557000D01*
X47757080Y-11557000D01*
X47757080Y-12317095D01*
X47814036Y-12374051D01*
X47807809Y-12405360D01*
X47918113Y-12959895D01*
X48232232Y-13430007D01*
X48375147Y-13525500D01*
X48375147Y-13525500D01*
G37*
X48375147Y-13525500D02*
X46164500Y-13525500D01*
X46164500Y-13005560D01*
X46058160Y-12748832D01*
X45861669Y-12552340D01*
X45789993Y-12522651D01*
X45925168Y-12466660D01*
X46072828Y-12319000D01*
X46132981Y-12319000D01*
X46199361Y-12385380D01*
X46456089Y-12491720D01*
X46733970Y-12491720D01*
X47132750Y-12491720D01*
X47244000Y-12445638D01*
X47355250Y-12491720D01*
X47455455Y-12491720D01*
X47630080Y-12317095D01*
X47630080Y-12082397D01*
X47692310Y-11932161D01*
X47692310Y-11654280D01*
X47692310Y-11410000D01*
X47757080Y-11410000D01*
X47757080Y-11430000D01*
X47777080Y-11430000D01*
X47777080Y-11557000D01*
X47757080Y-11557000D01*
X47757080Y-12317095D01*
X47814036Y-12374051D01*
X47807809Y-12405360D01*
X47918113Y-12959895D01*
X48232232Y-13430007D01*
X48375147Y-13525500D01*
G36*
X60599000Y-19558000D02*
X60579000Y-19558000D01*
X60579000Y-19578000D01*
X60452000Y-19578000D01*
X60452000Y-19558000D01*
X60432000Y-19558000D01*
X60432000Y-19431000D01*
X60452000Y-19431000D01*
X60452000Y-19411000D01*
X60579000Y-19411000D01*
X60579000Y-19431000D01*
X60599000Y-19431000D01*
X60599000Y-19558000D01*
X60599000Y-19558000D01*
G37*
X60599000Y-19558000D02*
X60579000Y-19558000D01*
X60579000Y-19578000D01*
X60452000Y-19578000D01*
X60452000Y-19558000D01*
X60432000Y-19558000D01*
X60432000Y-19431000D01*
X60452000Y-19431000D01*
X60452000Y-19411000D01*
X60579000Y-19411000D01*
X60579000Y-19431000D01*
X60599000Y-19431000D01*
X60599000Y-19558000D01*
G36*
X73963984Y-11488420D02*
X73003426Y-11488420D01*
X72828661Y-11416030D01*
X72550780Y-11416030D01*
X71951340Y-11416030D01*
X71776574Y-11488420D01*
X70866000Y-11488420D01*
X70860920Y-11488420D01*
X70802500Y-11488420D01*
X68540185Y-11488420D01*
X68275803Y-11223577D01*
X67855854Y-11049199D01*
X67401141Y-11048802D01*
X66980888Y-11222446D01*
X66937700Y-11265558D01*
X66764411Y-11193780D01*
X66486530Y-11193780D01*
X66087750Y-11193780D01*
X65976500Y-11239861D01*
X65865250Y-11193780D01*
X65765045Y-11193780D01*
X65590420Y-11368405D01*
X65590420Y-11603102D01*
X65528190Y-11753339D01*
X65528190Y-12031220D01*
X65528190Y-12275500D01*
X65463420Y-12275500D01*
X65463420Y-12255500D01*
X65463420Y-12128500D01*
X65463420Y-11368405D01*
X65288795Y-11193780D01*
X65188590Y-11193780D01*
X64931862Y-11300120D01*
X64735370Y-11496611D01*
X64629030Y-11753339D01*
X64629030Y-11953875D01*
X64803655Y-12128500D01*
X65463420Y-12128500D01*
X65463420Y-12255500D01*
X64803655Y-12255500D01*
X64740155Y-12319000D01*
X59181944Y-12319000D01*
X59182198Y-12029141D01*
X59008554Y-11608888D01*
X58687303Y-11287077D01*
X58267354Y-11112699D01*
X57812641Y-11112302D01*
X57514306Y-11235570D01*
X56000618Y-9721882D01*
X55712206Y-9529171D01*
X55372000Y-9461500D01*
X46228000Y-9461500D01*
X46228000Y-9195560D01*
X46228000Y-9168434D01*
X46277831Y-9118602D01*
X59756819Y-9118602D01*
X59677576Y-9309441D01*
X59677025Y-9940988D01*
X59918198Y-10524672D01*
X60364379Y-10971632D01*
X60947641Y-11213824D01*
X61579188Y-11214375D01*
X62162872Y-10973202D01*
X62609832Y-10527021D01*
X62852024Y-9943759D01*
X62852575Y-9312212D01*
X62772577Y-9118602D01*
X62957219Y-9118602D01*
X62877976Y-9309441D01*
X62877425Y-9940988D01*
X63118598Y-10524672D01*
X63564779Y-10971632D01*
X64148041Y-11213824D01*
X64779588Y-11214375D01*
X65363272Y-10973202D01*
X65810232Y-10527021D01*
X66052424Y-9943759D01*
X66052975Y-9312212D01*
X65972977Y-9118602D01*
X71594166Y-9118602D01*
X73963984Y-11488420D01*
X73963984Y-11488420D01*
G37*
X73963984Y-11488420D02*
X73003426Y-11488420D01*
X72828661Y-11416030D01*
X72550780Y-11416030D01*
X71951340Y-11416030D01*
X71776574Y-11488420D01*
X70866000Y-11488420D01*
X70860920Y-11488420D01*
X70802500Y-11488420D01*
X68540185Y-11488420D01*
X68275803Y-11223577D01*
X67855854Y-11049199D01*
X67401141Y-11048802D01*
X66980888Y-11222446D01*
X66937700Y-11265558D01*
X66764411Y-11193780D01*
X66486530Y-11193780D01*
X66087750Y-11193780D01*
X65976500Y-11239861D01*
X65865250Y-11193780D01*
X65765045Y-11193780D01*
X65590420Y-11368405D01*
X65590420Y-11603102D01*
X65528190Y-11753339D01*
X65528190Y-12031220D01*
X65528190Y-12275500D01*
X65463420Y-12275500D01*
X65463420Y-12255500D01*
X65463420Y-12128500D01*
X65463420Y-11368405D01*
X65288795Y-11193780D01*
X65188590Y-11193780D01*
X64931862Y-11300120D01*
X64735370Y-11496611D01*
X64629030Y-11753339D01*
X64629030Y-11953875D01*
X64803655Y-12128500D01*
X65463420Y-12128500D01*
X65463420Y-12255500D01*
X64803655Y-12255500D01*
X64740155Y-12319000D01*
X59181944Y-12319000D01*
X59182198Y-12029141D01*
X59008554Y-11608888D01*
X58687303Y-11287077D01*
X58267354Y-11112699D01*
X57812641Y-11112302D01*
X57514306Y-11235570D01*
X56000618Y-9721882D01*
X55712206Y-9529171D01*
X55372000Y-9461500D01*
X46228000Y-9461500D01*
X46228000Y-9195560D01*
X46228000Y-9168434D01*
X46277831Y-9118602D01*
X59756819Y-9118602D01*
X59677576Y-9309441D01*
X59677025Y-9940988D01*
X59918198Y-10524672D01*
X60364379Y-10971632D01*
X60947641Y-11213824D01*
X61579188Y-11214375D01*
X62162872Y-10973202D01*
X62609832Y-10527021D01*
X62852024Y-9943759D01*
X62852575Y-9312212D01*
X62772577Y-9118602D01*
X62957219Y-9118602D01*
X62877976Y-9309441D01*
X62877425Y-9940988D01*
X63118598Y-10524672D01*
X63564779Y-10971632D01*
X64148041Y-11213824D01*
X64779588Y-11214375D01*
X65363272Y-10973202D01*
X65810232Y-10527021D01*
X66052424Y-9943759D01*
X66052975Y-9312212D01*
X65972977Y-9118602D01*
X71594166Y-9118602D01*
X73963984Y-11488420D01*
G36*
X80315433Y-20078702D02*
X80140810Y-20253325D01*
X80140810Y-20378931D01*
X80158484Y-20421600D01*
X80140810Y-20464269D01*
X80140810Y-20742150D01*
X80140810Y-21191730D01*
X80153223Y-21221699D01*
X80140810Y-21251669D01*
X80140810Y-21529550D01*
X80140810Y-21539200D01*
X77996436Y-21539200D01*
X77451638Y-20994402D01*
X77163226Y-20801691D01*
X76823020Y-20734020D01*
X74612500Y-20734020D01*
X73971150Y-20734020D01*
X73821925Y-20734020D01*
X73971150Y-20584795D01*
X73971150Y-20459189D01*
X73956106Y-20422870D01*
X73971150Y-20386551D01*
X73971150Y-20108670D01*
X73971150Y-19659090D01*
X73956106Y-19622770D01*
X73971150Y-19586451D01*
X73971150Y-19460845D01*
X73796525Y-19286220D01*
X73748668Y-19286220D01*
X73685168Y-19222719D01*
X73748668Y-19159220D01*
X73796525Y-19159220D01*
X73971150Y-18984595D01*
X73971150Y-18858989D01*
X73956106Y-18822670D01*
X73971150Y-18786351D01*
X73971150Y-18508470D01*
X73971150Y-18058890D01*
X73956106Y-18022570D01*
X73971150Y-17986251D01*
X73971150Y-17708370D01*
X73971150Y-17318990D01*
X74178670Y-17318990D01*
X74628250Y-17318990D01*
X74663299Y-17304472D01*
X74698349Y-17318990D01*
X74976230Y-17318990D01*
X75425810Y-17318990D01*
X75463399Y-17303419D01*
X75500989Y-17318990D01*
X75778870Y-17318990D01*
X76228450Y-17318990D01*
X76263499Y-17304472D01*
X76298549Y-17318990D01*
X76576430Y-17318990D01*
X77026010Y-17318990D01*
X77063599Y-17303419D01*
X77101189Y-17318990D01*
X77379070Y-17318990D01*
X77828650Y-17318990D01*
X77863699Y-17304472D01*
X77898749Y-17318990D01*
X78176630Y-17318990D01*
X78626210Y-17318990D01*
X78663799Y-17303419D01*
X78701389Y-17318990D01*
X78979270Y-17318990D01*
X79428850Y-17318990D01*
X79463899Y-17304472D01*
X79498949Y-17318990D01*
X79776830Y-17318990D01*
X80140810Y-17318990D01*
X80140810Y-17541750D01*
X80140810Y-17665430D01*
X80111354Y-17653199D01*
X79656641Y-17652802D01*
X79236388Y-17826446D01*
X78914577Y-18147697D01*
X78740199Y-18567646D01*
X78739802Y-19022359D01*
X78913446Y-19442612D01*
X79234697Y-19764423D01*
X79654646Y-19938801D01*
X79921926Y-19939034D01*
X79921927Y-19939034D01*
X79998894Y-19990462D01*
X79998895Y-19990463D01*
X80140810Y-20018691D01*
X80140810Y-20078702D01*
X80315433Y-20078702D01*
X80315433Y-20078702D01*
G37*
X80315433Y-20078702D02*
X80140810Y-20253325D01*
X80140810Y-20378931D01*
X80158484Y-20421600D01*
X80140810Y-20464269D01*
X80140810Y-20742150D01*
X80140810Y-21191730D01*
X80153223Y-21221699D01*
X80140810Y-21251669D01*
X80140810Y-21529550D01*
X80140810Y-21539200D01*
X77996436Y-21539200D01*
X77451638Y-20994402D01*
X77163226Y-20801691D01*
X76823020Y-20734020D01*
X74612500Y-20734020D01*
X73971150Y-20734020D01*
X73821925Y-20734020D01*
X73971150Y-20584795D01*
X73971150Y-20459189D01*
X73956106Y-20422870D01*
X73971150Y-20386551D01*
X73971150Y-20108670D01*
X73971150Y-19659090D01*
X73956106Y-19622770D01*
X73971150Y-19586451D01*
X73971150Y-19460845D01*
X73796525Y-19286220D01*
X73748668Y-19286220D01*
X73685168Y-19222719D01*
X73748668Y-19159220D01*
X73796525Y-19159220D01*
X73971150Y-18984595D01*
X73971150Y-18858989D01*
X73956106Y-18822670D01*
X73971150Y-18786351D01*
X73971150Y-18508470D01*
X73971150Y-18058890D01*
X73956106Y-18022570D01*
X73971150Y-17986251D01*
X73971150Y-17708370D01*
X73971150Y-17318990D01*
X74178670Y-17318990D01*
X74628250Y-17318990D01*
X74663299Y-17304472D01*
X74698349Y-17318990D01*
X74976230Y-17318990D01*
X75425810Y-17318990D01*
X75463399Y-17303419D01*
X75500989Y-17318990D01*
X75778870Y-17318990D01*
X76228450Y-17318990D01*
X76263499Y-17304472D01*
X76298549Y-17318990D01*
X76576430Y-17318990D01*
X77026010Y-17318990D01*
X77063599Y-17303419D01*
X77101189Y-17318990D01*
X77379070Y-17318990D01*
X77828650Y-17318990D01*
X77863699Y-17304472D01*
X77898749Y-17318990D01*
X78176630Y-17318990D01*
X78626210Y-17318990D01*
X78663799Y-17303419D01*
X78701389Y-17318990D01*
X78979270Y-17318990D01*
X79428850Y-17318990D01*
X79463899Y-17304472D01*
X79498949Y-17318990D01*
X79776830Y-17318990D01*
X80140810Y-17318990D01*
X80140810Y-17541750D01*
X80140810Y-17665430D01*
X80111354Y-17653199D01*
X79656641Y-17652802D01*
X79236388Y-17826446D01*
X78914577Y-18147697D01*
X78740199Y-18567646D01*
X78739802Y-19022359D01*
X78913446Y-19442612D01*
X79234697Y-19764423D01*
X79654646Y-19938801D01*
X79921926Y-19939034D01*
X79921927Y-19939034D01*
X79998894Y-19990462D01*
X79998895Y-19990463D01*
X80140810Y-20018691D01*
X80140810Y-20078702D01*
X80315433Y-20078702D01*
G36*
X103182986Y-16812866D02*
X103093184Y-16902669D01*
X102554369Y-16363854D01*
X102540226Y-16377995D01*
X102450423Y-16288192D01*
X102464566Y-16274051D01*
X102450423Y-16259909D01*
X102540226Y-16170106D01*
X103182986Y-16812866D01*
X103182986Y-16812866D01*
G37*
X103182986Y-16812866D02*
X103093184Y-16902669D01*
X102554369Y-16363854D01*
X102540226Y-16377995D01*
X102450423Y-16288192D01*
X102464566Y-16274051D01*
X102450423Y-16259909D01*
X102540226Y-16170106D01*
X103182986Y-16812866D01*
G36*
X124931500Y-36634921D02*
X120950998Y-39054442D01*
X120950998Y-24805665D01*
X120844657Y-24548937D01*
X120735186Y-24439466D01*
X120648166Y-24352446D01*
X120648166Y-24352445D01*
X120611709Y-24315989D01*
X120521903Y-24226183D01*
X120485446Y-24189726D01*
X120398426Y-24102706D01*
X120288955Y-23993235D01*
X119477950Y-23182230D01*
X119230993Y-23182230D01*
X118725854Y-23687369D01*
X119264669Y-24226184D01*
X119174866Y-24315986D01*
X118532106Y-23673226D01*
X118621909Y-23583423D01*
X118636051Y-23597566D01*
X119141190Y-23092427D01*
X119141190Y-22845470D01*
X117970975Y-21675254D01*
X117774483Y-21478763D01*
X117659424Y-21431103D01*
X117611765Y-21316045D01*
X117415274Y-21119554D01*
X117056064Y-20760343D01*
X116799336Y-20654003D01*
X116521455Y-20654002D01*
X116504956Y-20660836D01*
X116504956Y-13596707D01*
X116213595Y-12878524D01*
X116197492Y-12854424D01*
X115879195Y-12734607D01*
X115789393Y-12824409D01*
X115789393Y-12644805D01*
X115669576Y-12326508D01*
X114955721Y-12024699D01*
X114180707Y-12019044D01*
X113462524Y-12310405D01*
X113438424Y-12326508D01*
X113318607Y-12644805D01*
X114554000Y-13880197D01*
X115789393Y-12644805D01*
X115789393Y-12824409D01*
X114643803Y-13970000D01*
X115879195Y-15205393D01*
X116197492Y-15085576D01*
X116499301Y-14371721D01*
X116504956Y-13596707D01*
X116504956Y-20660836D01*
X116264727Y-20760343D01*
X116068235Y-20956834D01*
X115789393Y-21235676D01*
X115789393Y-15295195D01*
X114554000Y-14059803D01*
X114464197Y-14149605D01*
X114464197Y-13970000D01*
X113228805Y-12734607D01*
X112910508Y-12854424D01*
X112608699Y-13568279D01*
X112603044Y-14343293D01*
X112894405Y-15061476D01*
X112910508Y-15085576D01*
X113228805Y-15205393D01*
X114464197Y-13970000D01*
X114464197Y-14149605D01*
X113318607Y-15295195D01*
X113438424Y-15613492D01*
X114152279Y-15915301D01*
X114927293Y-15920956D01*
X115645476Y-15629595D01*
X115669576Y-15613492D01*
X115789393Y-15295195D01*
X115789393Y-21235676D01*
X115546306Y-21478763D01*
X115349815Y-21675254D01*
X115133751Y-21891317D01*
X113613717Y-20371283D01*
X113345906Y-20192337D01*
X113030000Y-20129500D01*
X105624933Y-20129500D01*
X104045216Y-18549783D01*
X104207274Y-18482657D01*
X104316744Y-18373186D01*
X104653504Y-18036426D01*
X104726235Y-17963695D01*
X104762975Y-17926956D01*
X104762975Y-17926955D01*
X105644113Y-17045816D01*
X105644115Y-17045816D01*
X105753585Y-16936345D01*
X105753585Y-16689388D01*
X105248446Y-16184249D01*
X105248445Y-16184249D01*
X105158643Y-16094446D01*
X104762975Y-15698778D01*
X104653504Y-15589307D01*
X104566484Y-15502286D01*
X103887265Y-14823067D01*
X103977067Y-14733265D01*
X104852777Y-15608975D01*
X104852778Y-15608975D01*
X105248446Y-16004643D01*
X105338249Y-16094445D01*
X105338249Y-16094446D01*
X105843388Y-16599585D01*
X106090345Y-16599585D01*
X106199816Y-16490115D01*
X106199816Y-16490113D01*
X107080955Y-15608975D01*
X107080956Y-15608975D01*
X107117695Y-15572235D01*
X107190426Y-15499504D01*
X107527186Y-15162744D01*
X107636657Y-15053274D01*
X107742997Y-14796546D01*
X107742998Y-14518665D01*
X107636657Y-14261937D01*
X107527186Y-14152466D01*
X107440166Y-14065446D01*
X107440166Y-14065445D01*
X107403709Y-14028989D01*
X107313903Y-13939183D01*
X107277446Y-13902726D01*
X107190426Y-13815706D01*
X107080955Y-13706235D01*
X106269950Y-12895230D01*
X106022993Y-12895230D01*
X105517854Y-13400369D01*
X106056669Y-13939184D01*
X105966866Y-14028986D01*
X105324106Y-13386226D01*
X105413909Y-13296423D01*
X105428051Y-13310566D01*
X105933190Y-12805427D01*
X105933190Y-12558470D01*
X104762975Y-11388254D01*
X104566483Y-11191763D01*
X104451424Y-11144103D01*
X104403765Y-11029045D01*
X104207274Y-10832554D01*
X103848064Y-10473343D01*
X103591336Y-10367003D01*
X103313455Y-10367002D01*
X103056727Y-10473343D01*
X102860235Y-10669834D01*
X102338306Y-11191763D01*
X102141815Y-11388254D01*
X101782604Y-11747464D01*
X101782603Y-11747465D01*
X101468615Y-12061454D01*
X96773032Y-12061454D01*
X98881915Y-9952570D01*
X99178783Y-10075841D01*
X99953817Y-10076517D01*
X100670114Y-9780550D01*
X101218624Y-9232996D01*
X101515841Y-8517217D01*
X101516517Y-7742183D01*
X101220550Y-7025886D01*
X100672996Y-6477376D01*
X99957217Y-6180159D01*
X99182183Y-6179483D01*
X98465886Y-6475450D01*
X97917376Y-7023004D01*
X97620159Y-7738783D01*
X97619483Y-8513817D01*
X97726587Y-8773030D01*
X96456995Y-10042622D01*
X96456995Y-6419102D01*
X96022883Y-5368471D01*
X95219757Y-4563942D01*
X94169886Y-4127997D01*
X93033102Y-4127005D01*
X91982471Y-4561117D01*
X91177942Y-5364243D01*
X90741997Y-6414114D01*
X90741005Y-7550898D01*
X91175117Y-8601529D01*
X91978243Y-9406058D01*
X93028114Y-9842003D01*
X94164898Y-9842995D01*
X95215529Y-9408883D01*
X96020058Y-8605757D01*
X96456003Y-7555886D01*
X96456995Y-6419102D01*
X96456995Y-10042622D01*
X94971566Y-11528052D01*
X79828029Y-11528052D01*
X79828024Y-11528051D01*
X79512119Y-11590889D01*
X79244307Y-11769835D01*
X79244304Y-11769838D01*
X78477926Y-12536216D01*
X78181803Y-12239577D01*
X77761854Y-12065199D01*
X77557954Y-12065020D01*
X75729615Y-10236681D01*
X75704217Y-10211283D01*
X75704213Y-10211280D01*
X72719717Y-7226783D01*
X72451906Y-7047837D01*
X72136000Y-6985000D01*
X68539156Y-6985000D01*
X68539156Y-2588959D01*
X67564000Y-1613803D01*
X66588844Y-2588959D01*
X66664715Y-2869792D01*
X67248181Y-3111491D01*
X67879728Y-3111509D01*
X68463208Y-2869843D01*
X68463285Y-2869792D01*
X68539156Y-2588959D01*
X68539156Y-6985000D01*
X68000873Y-6985000D01*
X68059024Y-6844959D01*
X68059575Y-6213412D01*
X67818402Y-5629728D01*
X67372221Y-5182768D01*
X66788959Y-4940576D01*
X66157412Y-4940025D01*
X65573728Y-5181198D01*
X65126768Y-5627379D01*
X64884576Y-6210641D01*
X64884025Y-6842188D01*
X64943033Y-6985000D01*
X63967781Y-6985000D01*
X64058592Y-6766303D01*
X64059007Y-6291380D01*
X63877645Y-5852450D01*
X63542116Y-5516336D01*
X63103503Y-5334208D01*
X62628580Y-5333793D01*
X62189650Y-5515155D01*
X61853536Y-5850684D01*
X61671408Y-6289297D01*
X61670993Y-6764220D01*
X61762217Y-6985000D01*
X43648933Y-6985000D01*
X43472888Y-6808954D01*
X43472887Y-6808953D01*
X42906467Y-6242533D01*
X42645330Y-6068047D01*
X42645330Y-6068046D01*
X42645330Y-6061274D01*
X42685970Y-5963161D01*
X42685970Y-5685280D01*
X42685970Y-5085840D01*
X42613580Y-4911074D01*
X42613580Y-4804426D01*
X42685970Y-4629661D01*
X42685970Y-4351780D01*
X42685970Y-3752340D01*
X42579630Y-3495612D01*
X42383139Y-3299120D01*
X42126411Y-3192780D01*
X41848530Y-3192780D01*
X41449750Y-3192780D01*
X41338500Y-3238861D01*
X41227250Y-3192780D01*
X41127045Y-3192780D01*
X40952420Y-3367405D01*
X40952420Y-3602102D01*
X40890190Y-3752339D01*
X40890190Y-4030220D01*
X40890190Y-4629660D01*
X40952420Y-4779896D01*
X40952420Y-4935602D01*
X40890190Y-5085839D01*
X40890190Y-5363720D01*
X40890190Y-5608000D01*
X40825420Y-5608000D01*
X40825420Y-5588000D01*
X40825420Y-5461000D01*
X40825420Y-5014595D01*
X40825420Y-4700905D01*
X40825420Y-4254500D01*
X40825420Y-4127500D01*
X40825420Y-3367405D01*
X40650795Y-3192780D01*
X40550590Y-3192780D01*
X40293862Y-3299120D01*
X40097370Y-3495611D01*
X39991030Y-3752339D01*
X39991030Y-3952875D01*
X40165655Y-4127500D01*
X40825420Y-4127500D01*
X40825420Y-4254500D01*
X40165655Y-4254500D01*
X39991030Y-4429125D01*
X39991030Y-4629661D01*
X40085507Y-4857750D01*
X39991030Y-5085839D01*
X39991030Y-5286375D01*
X40165655Y-5461000D01*
X40825420Y-5461000D01*
X40825420Y-5588000D01*
X40165655Y-5588000D01*
X39991030Y-5762625D01*
X39991030Y-5963161D01*
X40094806Y-6213700D01*
X40022780Y-6387589D01*
X40022780Y-6665470D01*
X40022780Y-7264910D01*
X40031670Y-7286372D01*
X40031670Y-7837170D01*
X40099341Y-8177376D01*
X40292052Y-8465788D01*
X40779764Y-8953500D01*
X40265382Y-9467882D01*
X40072671Y-9756294D01*
X40005000Y-10096500D01*
X40005000Y-13144500D01*
X39723929Y-13144500D01*
X39631613Y-12680395D01*
X39316943Y-12209459D01*
X38846007Y-11894789D01*
X38290500Y-11784292D01*
X37734993Y-11894789D01*
X37264057Y-12209459D01*
X37011008Y-12588172D01*
X36732042Y-12207776D01*
X36247341Y-11913707D01*
X36040083Y-11856688D01*
X35814000Y-12003715D01*
X35814000Y-13970000D01*
X35834000Y-13970000D01*
X35834000Y-14097000D01*
X35814000Y-14097000D01*
X35814000Y-16063285D01*
X36040083Y-16210312D01*
X36247341Y-16153293D01*
X36732042Y-15859224D01*
X37011008Y-15478827D01*
X37264057Y-15857541D01*
X37734993Y-16172211D01*
X38290500Y-16282708D01*
X38846007Y-16172211D01*
X39316943Y-15857541D01*
X39631613Y-15386605D01*
X39723929Y-14922500D01*
X40005000Y-14922500D01*
X40005000Y-15811500D01*
X40005000Y-16256000D01*
X40072671Y-16596206D01*
X40265382Y-16884618D01*
X45114242Y-21733478D01*
X45402654Y-21926189D01*
X45402655Y-21926190D01*
X45742860Y-21993860D01*
X47910455Y-21993860D01*
X48001092Y-22129507D01*
X48429098Y-22415492D01*
X36782688Y-22415492D01*
X36362621Y-22415492D01*
X35687000Y-21739870D01*
X35687000Y-16063285D01*
X35687000Y-14097000D01*
X35687000Y-13970000D01*
X35687000Y-12003715D01*
X35460917Y-11856688D01*
X35253659Y-11913707D01*
X34768958Y-12207776D01*
X34734995Y-12254087D01*
X34734995Y-6419102D01*
X34300883Y-5368471D01*
X33497757Y-4563942D01*
X32447886Y-4127997D01*
X31311102Y-4127005D01*
X30260471Y-4561117D01*
X29455942Y-5364243D01*
X29019997Y-6414114D01*
X29019005Y-7550898D01*
X29453117Y-8601529D01*
X30256243Y-9406058D01*
X31306114Y-9842003D01*
X32442898Y-9842995D01*
X33493529Y-9408883D01*
X34298058Y-8605757D01*
X34734003Y-7555886D01*
X34734995Y-6419102D01*
X34734995Y-12254087D01*
X34433688Y-12664947D01*
X34298890Y-13215620D01*
X34298890Y-13970000D01*
X35687000Y-13970000D01*
X35687000Y-14097000D01*
X34298890Y-14097000D01*
X34298890Y-14851380D01*
X34433688Y-15402053D01*
X34768958Y-15859224D01*
X35253659Y-16153293D01*
X35460917Y-16210312D01*
X35687000Y-16063285D01*
X35687000Y-21739870D01*
X26969956Y-13022826D01*
X26969956Y-8262707D01*
X26678595Y-7544524D01*
X26662492Y-7520424D01*
X26344195Y-7400607D01*
X26254393Y-7490409D01*
X26254393Y-7310805D01*
X26134576Y-6992508D01*
X25420721Y-6690699D01*
X24645707Y-6685044D01*
X23927524Y-6976405D01*
X23903424Y-6992508D01*
X23783607Y-7310805D01*
X25019000Y-8546197D01*
X26254393Y-7310805D01*
X26254393Y-7490409D01*
X25108803Y-8636000D01*
X26344195Y-9871393D01*
X26662492Y-9751576D01*
X26964301Y-9037721D01*
X26969956Y-8262707D01*
X26969956Y-13022826D01*
X26254393Y-12307263D01*
X26254393Y-9961195D01*
X25019000Y-8725803D01*
X24929197Y-8815605D01*
X24929197Y-8636000D01*
X23693805Y-7400607D01*
X23375508Y-7520424D01*
X23073699Y-8234279D01*
X23068044Y-9009293D01*
X23359405Y-9727476D01*
X23375508Y-9751576D01*
X23693805Y-9871393D01*
X24929197Y-8636000D01*
X24929197Y-8815605D01*
X23783607Y-9961195D01*
X23903424Y-10279492D01*
X24617279Y-10581301D01*
X25392293Y-10586956D01*
X26110476Y-10295595D01*
X26134576Y-10279492D01*
X26254393Y-9961195D01*
X26254393Y-12307263D01*
X25872911Y-11925781D01*
X25605100Y-11746835D01*
X25289194Y-11683998D01*
X24634270Y-11683998D01*
X18458578Y-11683998D01*
X18142672Y-11746835D01*
X17874861Y-11925781D01*
X17418142Y-12382500D01*
X12942844Y-12382500D01*
X12828550Y-12105886D01*
X12280996Y-11557376D01*
X11565217Y-11260159D01*
X10790183Y-11259483D01*
X10073886Y-11555450D01*
X9525376Y-12103004D01*
X9228159Y-12818783D01*
X9227483Y-13593817D01*
X9268786Y-13693779D01*
X7501677Y-15460888D01*
X7429159Y-15430776D01*
X6797612Y-15430225D01*
X6213928Y-15671398D01*
X5766968Y-16117579D01*
X5524776Y-16700841D01*
X5524225Y-17332388D01*
X5765398Y-17916072D01*
X6136934Y-18288257D01*
X5766968Y-18657579D01*
X5524776Y-19240841D01*
X5524225Y-19872388D01*
X5765398Y-20456072D01*
X6211579Y-20903032D01*
X6794841Y-21145224D01*
X7426388Y-21145775D01*
X8010072Y-20904602D01*
X8457032Y-20458421D01*
X8514509Y-20320000D01*
X11366500Y-20320000D01*
X11366500Y-21399500D01*
X11291060Y-21399500D01*
X10783060Y-21399500D01*
X9767060Y-21399500D01*
X9510332Y-21505840D01*
X9313840Y-21702331D01*
X9207500Y-21959059D01*
X9207500Y-22236940D01*
X9207500Y-22744940D01*
X9255159Y-22859999D01*
X9207500Y-22975059D01*
X9207500Y-23252940D01*
X9207500Y-24907875D01*
X9382125Y-25082500D01*
X10096500Y-25082500D01*
X10096500Y-25062500D01*
X10223500Y-25062500D01*
X10223500Y-25082500D01*
X10223500Y-25209500D01*
X10223500Y-25971500D01*
X10096500Y-25971500D01*
X10096500Y-25209500D01*
X9382125Y-25209500D01*
X9207500Y-25384125D01*
X9207500Y-26531059D01*
X9207500Y-26685875D01*
X9207500Y-26808940D01*
X9207500Y-26860498D01*
X9207500Y-26987502D01*
X9207500Y-27039060D01*
X9207500Y-27162125D01*
X9207500Y-27316941D01*
X9313840Y-27573669D01*
X9510332Y-27770160D01*
X9767060Y-27876500D01*
X9921875Y-27876500D01*
X10398125Y-27876500D01*
X10552940Y-27876500D01*
X11799060Y-27876500D01*
X11953875Y-27876500D01*
X12128500Y-27701875D01*
X12128500Y-26987500D01*
X12128500Y-26860500D01*
X12128500Y-26300941D01*
X12128500Y-26146125D01*
X12128500Y-26023060D01*
X12128500Y-25209500D01*
X12128500Y-25082500D01*
X12128500Y-25062500D01*
X12255500Y-25062500D01*
X12255500Y-25082500D01*
X12255500Y-25209500D01*
X12255500Y-26146125D01*
X12255500Y-26300940D01*
X12255500Y-26860500D01*
X12255500Y-26987500D01*
X12255500Y-27701875D01*
X12430125Y-27876500D01*
X12584940Y-27876500D01*
X13831060Y-27876500D01*
X13985875Y-27876500D01*
X14462125Y-27876500D01*
X14616940Y-27876500D01*
X14873668Y-27770160D01*
X15070160Y-27573669D01*
X15176500Y-27316941D01*
X15176500Y-27162125D01*
X15176500Y-27039060D01*
X15176500Y-26808940D01*
X15176500Y-26685875D01*
X15176500Y-26531059D01*
X15176500Y-25384125D01*
X15001875Y-25209500D01*
X14287500Y-25209500D01*
X14287500Y-25971500D01*
X14160500Y-25971500D01*
X14160500Y-25209500D01*
X14160500Y-25082500D01*
X14160500Y-25062500D01*
X14287500Y-25062500D01*
X14287500Y-25082500D01*
X15001875Y-25082500D01*
X15176500Y-24907875D01*
X15176500Y-23252940D01*
X15176500Y-22975059D01*
X15128841Y-22860000D01*
X15176500Y-22744941D01*
X15176500Y-22467060D01*
X15176500Y-21959060D01*
X15070160Y-21702332D01*
X14873669Y-21505840D01*
X14616941Y-21399500D01*
X14339060Y-21399500D01*
X13600941Y-21399500D01*
X13323060Y-21399500D01*
X13017500Y-21399500D01*
X13017500Y-19836433D01*
X18351500Y-14502433D01*
X18351500Y-15609060D01*
X18351500Y-15763875D01*
X18526125Y-15938500D01*
X19240500Y-15938500D01*
X19367500Y-15938500D01*
X19927059Y-15938500D01*
X20081875Y-15938500D01*
X20204940Y-15938500D01*
X21018500Y-15938500D01*
X21145500Y-15938500D01*
X21165500Y-15938500D01*
X21165500Y-16065500D01*
X21145500Y-16065500D01*
X21018500Y-16065500D01*
X20081875Y-16065500D01*
X19927060Y-16065500D01*
X19367500Y-16065500D01*
X19240500Y-16065500D01*
X18526125Y-16065500D01*
X18351500Y-16240125D01*
X18351500Y-16394940D01*
X18351500Y-17641060D01*
X18351500Y-17795875D01*
X18351500Y-17970498D01*
X18351500Y-18097502D01*
X18351500Y-18272125D01*
X18351500Y-18426940D01*
X18457840Y-18683668D01*
X18654331Y-18880160D01*
X18911059Y-18986500D01*
X19065875Y-18986500D01*
X19188940Y-18986500D01*
X19419060Y-18986500D01*
X19542125Y-18986500D01*
X19696941Y-18986500D01*
X20843875Y-18986500D01*
X21018500Y-18811875D01*
X21018500Y-18097500D01*
X20998500Y-18097500D01*
X20998500Y-17970500D01*
X21018500Y-17970500D01*
X21145500Y-17970500D01*
X21165500Y-17970500D01*
X21165500Y-18097500D01*
X21145500Y-18097500D01*
X21145500Y-18811875D01*
X21320125Y-18986500D01*
X22975060Y-18986500D01*
X23252941Y-18986500D01*
X23368000Y-18938841D01*
X23483059Y-18986500D01*
X23760940Y-18986500D01*
X24268940Y-18986500D01*
X24525668Y-18880160D01*
X24722160Y-18683669D01*
X24828500Y-18426941D01*
X24828500Y-18149060D01*
X24828500Y-17410941D01*
X24828500Y-17133060D01*
X24828500Y-16827500D01*
X27002914Y-16827500D01*
X29987414Y-19812000D01*
X29718005Y-19812000D01*
X29718000Y-19811999D01*
X29402095Y-19874837D01*
X29134283Y-20053783D01*
X21006283Y-28181783D01*
X20827337Y-28449594D01*
X20764500Y-28765500D01*
X20764500Y-30543500D01*
X20689060Y-30543500D01*
X20181060Y-30543500D01*
X19165060Y-30543500D01*
X18908332Y-30649840D01*
X18711840Y-30846331D01*
X18605500Y-31103059D01*
X18605500Y-31380940D01*
X18605500Y-31888940D01*
X18653159Y-32003999D01*
X18605500Y-32119059D01*
X18605500Y-32396940D01*
X18605500Y-34051875D01*
X18780125Y-34226500D01*
X19494500Y-34226500D01*
X19494500Y-34206500D01*
X19621500Y-34206500D01*
X19621500Y-34226500D01*
X19621500Y-34353500D01*
X19621500Y-35115500D01*
X19494500Y-35115500D01*
X19494500Y-34353500D01*
X18780125Y-34353500D01*
X18605500Y-34528125D01*
X18605500Y-35675059D01*
X18605500Y-35829875D01*
X18605500Y-35952940D01*
X18605500Y-36004498D01*
X18605500Y-36131502D01*
X18605500Y-36183060D01*
X18605500Y-36306125D01*
X18605500Y-36460941D01*
X18711840Y-36717669D01*
X18908332Y-36914160D01*
X19165060Y-37020500D01*
X19319875Y-37020500D01*
X19796125Y-37020500D01*
X19950940Y-37020500D01*
X21197060Y-37020500D01*
X21351875Y-37020500D01*
X21526500Y-36845875D01*
X21526500Y-36131500D01*
X21526500Y-36004500D01*
X21526500Y-35444941D01*
X21526500Y-35290125D01*
X21526500Y-35167060D01*
X21526500Y-34353500D01*
X21526500Y-34226500D01*
X21526500Y-34206500D01*
X21653500Y-34206500D01*
X21653500Y-34226500D01*
X21653500Y-34353500D01*
X21653500Y-35290125D01*
X21653500Y-35444940D01*
X21653500Y-36004500D01*
X21653500Y-36131500D01*
X21653500Y-36845875D01*
X21828125Y-37020500D01*
X21982940Y-37020500D01*
X23229060Y-37020500D01*
X23383875Y-37020500D01*
X23860125Y-37020500D01*
X24014940Y-37020500D01*
X24271668Y-36914160D01*
X24468160Y-36717669D01*
X24574500Y-36460941D01*
X24574500Y-36306125D01*
X24574500Y-36183060D01*
X24574500Y-35952940D01*
X24574500Y-35829875D01*
X24574500Y-35675059D01*
X24574500Y-34528125D01*
X24399875Y-34353500D01*
X23685500Y-34353500D01*
X23685500Y-35115500D01*
X23558500Y-35115500D01*
X23558500Y-34353500D01*
X23558500Y-34226500D01*
X23558500Y-34206500D01*
X23685500Y-34206500D01*
X23685500Y-34226500D01*
X24399875Y-34226500D01*
X24574500Y-34051875D01*
X24574500Y-32396940D01*
X24574500Y-32119059D01*
X24526841Y-32004000D01*
X24574500Y-31888941D01*
X24574500Y-31611060D01*
X24574500Y-31103060D01*
X24468160Y-30846332D01*
X24271669Y-30649840D01*
X24014941Y-30543500D01*
X23737060Y-30543500D01*
X22998941Y-30543500D01*
X22721060Y-30543500D01*
X22415500Y-30543500D01*
X22415500Y-29107434D01*
X26265501Y-25257432D01*
X26330814Y-25322744D01*
X26454291Y-25446221D01*
X26544097Y-25536027D01*
X26667574Y-25659504D01*
X26740304Y-25732235D01*
X26777044Y-25768975D01*
X27658183Y-26650113D01*
X27658184Y-26650115D01*
X27767655Y-26759585D01*
X28014612Y-26759585D01*
X28519751Y-26254446D01*
X28519751Y-26254445D01*
X28609554Y-26164643D01*
X29005222Y-25768975D01*
X29005222Y-25768974D01*
X29114693Y-25659504D01*
X29201714Y-25572484D01*
X29776987Y-24997210D01*
X29866790Y-24907407D01*
X29880932Y-24893265D01*
X29970734Y-24983067D01*
X29095025Y-25858777D01*
X29095024Y-25858778D01*
X28699357Y-26254446D01*
X28609554Y-26344249D01*
X28104415Y-26849388D01*
X28104415Y-27096345D01*
X28213885Y-27205816D01*
X28213886Y-27205816D01*
X29095024Y-28086955D01*
X29095025Y-28086956D01*
X29131764Y-28123695D01*
X29204496Y-28196426D01*
X29327973Y-28319903D01*
X29417779Y-28409709D01*
X29541256Y-28533186D01*
X29650726Y-28642657D01*
X29907454Y-28748997D01*
X30185335Y-28748998D01*
X30442063Y-28642657D01*
X30551534Y-28533186D01*
X30638554Y-28446166D01*
X30638555Y-28446166D01*
X30675011Y-28409709D01*
X30764817Y-28319903D01*
X30801274Y-28283446D01*
X30888294Y-28196426D01*
X30997765Y-28086955D01*
X31808770Y-27275950D01*
X31808770Y-27028993D01*
X31303631Y-26523854D01*
X31289488Y-26537995D01*
X31199686Y-26448193D01*
X31213828Y-26434051D01*
X31303631Y-26344248D01*
X31317773Y-26330106D01*
X31407575Y-26419908D01*
X31393434Y-26434051D01*
X31898573Y-26939190D01*
X32145530Y-26939190D01*
X33315746Y-25768975D01*
X33512237Y-25572483D01*
X33559896Y-25457424D01*
X33674955Y-25409765D01*
X33871446Y-25213274D01*
X33911643Y-25173076D01*
X34595280Y-25856713D01*
X34595283Y-25856717D01*
X34863094Y-26035662D01*
X34863095Y-26035663D01*
X35179000Y-26098500D01*
X35941000Y-26098500D01*
X46746461Y-26098500D01*
X46672500Y-26277059D01*
X46672500Y-26554940D01*
X46672500Y-27062940D01*
X46720159Y-27177999D01*
X46672500Y-27293059D01*
X46672500Y-27570940D01*
X46672500Y-29225875D01*
X46847125Y-29400500D01*
X47561500Y-29400500D01*
X47561500Y-29380500D01*
X47688500Y-29380500D01*
X47688500Y-29400500D01*
X47688500Y-29527500D01*
X47688500Y-30289500D01*
X47561500Y-30289500D01*
X47561500Y-29527500D01*
X46847125Y-29527500D01*
X46672500Y-29702125D01*
X46672500Y-30849059D01*
X46672500Y-31003875D01*
X46672500Y-31126940D01*
X46672500Y-31178498D01*
X46672500Y-31305502D01*
X46672500Y-31357060D01*
X46672500Y-31480125D01*
X46672500Y-31634941D01*
X46778840Y-31891669D01*
X46975332Y-32088160D01*
X47232060Y-32194500D01*
X47386875Y-32194500D01*
X47863125Y-32194500D01*
X48017940Y-32194500D01*
X49264060Y-32194500D01*
X49418875Y-32194500D01*
X49593500Y-32019875D01*
X49593500Y-31305500D01*
X49593500Y-31178500D01*
X49593500Y-30618941D01*
X49593500Y-30464125D01*
X49593500Y-30341060D01*
X49593500Y-29527500D01*
X49593500Y-29400500D01*
X49593500Y-29380500D01*
X49720500Y-29380500D01*
X49720500Y-29400500D01*
X49720500Y-29527500D01*
X49720500Y-30464125D01*
X49720500Y-30618940D01*
X49720500Y-31178500D01*
X49720500Y-31305500D01*
X49720500Y-32019875D01*
X49895125Y-32194500D01*
X50049940Y-32194500D01*
X51296060Y-32194500D01*
X51450875Y-32194500D01*
X51927125Y-32194500D01*
X52081940Y-32194500D01*
X52338668Y-32088160D01*
X52535160Y-31891669D01*
X52641500Y-31634941D01*
X52641500Y-31480125D01*
X52641500Y-31357060D01*
X52641500Y-31126940D01*
X52641500Y-31003875D01*
X52641500Y-30849059D01*
X52641500Y-29702125D01*
X52466875Y-29527500D01*
X51752500Y-29527500D01*
X51752500Y-30289500D01*
X51625500Y-30289500D01*
X51625500Y-29527500D01*
X51625500Y-29400500D01*
X51625500Y-29380500D01*
X51752500Y-29380500D01*
X51752500Y-29400500D01*
X52466875Y-29400500D01*
X52641500Y-29225875D01*
X52641500Y-27570940D01*
X52641500Y-27293059D01*
X52593841Y-27178000D01*
X52641500Y-27062941D01*
X52641500Y-26797000D01*
X62293500Y-26797000D01*
X62293500Y-27062940D01*
X62341159Y-27177999D01*
X62293500Y-27293059D01*
X62293500Y-27570940D01*
X62293500Y-29225875D01*
X62468125Y-29400500D01*
X63182500Y-29400500D01*
X63182500Y-29380500D01*
X63309500Y-29380500D01*
X63309500Y-29400500D01*
X63309500Y-29527500D01*
X63309500Y-30289500D01*
X63182500Y-30289500D01*
X63182500Y-29527500D01*
X62468125Y-29527500D01*
X62293500Y-29702125D01*
X62293500Y-30849059D01*
X62293500Y-31003875D01*
X62293500Y-31126940D01*
X62293500Y-31178498D01*
X62293500Y-31305502D01*
X62293500Y-31357060D01*
X62293500Y-31480125D01*
X62293500Y-31634941D01*
X62399840Y-31891669D01*
X62596332Y-32088160D01*
X62853060Y-32194500D01*
X63007875Y-32194500D01*
X63484125Y-32194500D01*
X63638940Y-32194500D01*
X64885060Y-32194500D01*
X65039875Y-32194500D01*
X65214500Y-32019875D01*
X65214500Y-31305500D01*
X65214500Y-31178500D01*
X65214500Y-30618941D01*
X65214500Y-30464125D01*
X65214500Y-30341060D01*
X65214500Y-29527500D01*
X65214500Y-29400500D01*
X65214500Y-29380500D01*
X65341500Y-29380500D01*
X65341500Y-29400500D01*
X65341500Y-29527500D01*
X65341500Y-30464125D01*
X65341500Y-30618940D01*
X65341500Y-31178500D01*
X65341500Y-31305500D01*
X65341500Y-32019875D01*
X65516125Y-32194500D01*
X65670940Y-32194500D01*
X66917060Y-32194500D01*
X67071875Y-32194500D01*
X67548125Y-32194500D01*
X67702940Y-32194500D01*
X67959668Y-32088160D01*
X68156160Y-31891669D01*
X68262500Y-31634941D01*
X68262500Y-31480125D01*
X68262500Y-31357060D01*
X68262500Y-31126940D01*
X68262500Y-31003875D01*
X68262500Y-30849059D01*
X68262500Y-29702125D01*
X68087875Y-29527500D01*
X67373500Y-29527500D01*
X67373500Y-30289500D01*
X67246500Y-30289500D01*
X67246500Y-29527500D01*
X67246500Y-29400500D01*
X67246500Y-29380500D01*
X67373500Y-29380500D01*
X67373500Y-29400500D01*
X68087875Y-29400500D01*
X68262500Y-29225875D01*
X68262500Y-27570940D01*
X68262500Y-27293059D01*
X68214841Y-27178000D01*
X68262500Y-27062941D01*
X68262500Y-26785060D01*
X68262500Y-26277060D01*
X68156160Y-26020332D01*
X67959669Y-25823840D01*
X67702941Y-25717500D01*
X67425060Y-25717500D01*
X67397934Y-25717500D01*
X69066714Y-24048720D01*
X70898642Y-24048720D01*
X71134729Y-24146510D01*
X71412610Y-24146510D01*
X73346310Y-24146510D01*
X73346310Y-24361650D01*
X73346310Y-26360630D01*
X73452650Y-26617358D01*
X73649141Y-26813850D01*
X73905869Y-26920190D01*
X74183750Y-26920190D01*
X74231500Y-26920190D01*
X74231500Y-28164218D01*
X74064766Y-28330951D01*
X73888354Y-28257699D01*
X73433641Y-28257302D01*
X73013388Y-28430946D01*
X72691577Y-28752197D01*
X72517199Y-29172146D01*
X72516802Y-29626859D01*
X72690446Y-30047112D01*
X73011697Y-30368923D01*
X73431646Y-30543301D01*
X73480658Y-30543343D01*
X73642946Y-30936112D01*
X73951874Y-31245579D01*
X73927900Y-31303459D01*
X73927900Y-31581340D01*
X73927900Y-33308540D01*
X74034240Y-33565268D01*
X74230731Y-33761760D01*
X74317284Y-33797611D01*
X74016205Y-34248210D01*
X73897297Y-34846000D01*
X74016205Y-35443790D01*
X74354825Y-35950572D01*
X74861607Y-36289192D01*
X75459397Y-36408100D01*
X75520603Y-36408100D01*
X76118393Y-36289192D01*
X76625175Y-35950572D01*
X76760000Y-35748791D01*
X76894825Y-35950572D01*
X77401607Y-36289192D01*
X77999397Y-36408100D01*
X78060603Y-36408100D01*
X78658393Y-36289192D01*
X79165175Y-35950572D01*
X79300000Y-35748791D01*
X79434825Y-35950572D01*
X79754985Y-36164495D01*
X79689620Y-36229861D01*
X79583280Y-36486589D01*
X79583280Y-36764470D01*
X79583280Y-37163250D01*
X79629361Y-37274500D01*
X79583280Y-37385750D01*
X79583280Y-37485955D01*
X79757905Y-37660580D01*
X79992602Y-37660580D01*
X80142839Y-37722810D01*
X80420720Y-37722810D01*
X81020160Y-37722810D01*
X81170396Y-37660580D01*
X81405095Y-37660580D01*
X81579720Y-37485955D01*
X81579720Y-37385750D01*
X81533639Y-37274500D01*
X81579720Y-37163251D01*
X81579720Y-36885370D01*
X81579720Y-36486590D01*
X81473380Y-36229862D01*
X81407000Y-36163481D01*
X81407000Y-36149805D01*
X81705175Y-35950572D01*
X81842644Y-35744833D01*
X82240335Y-36143633D01*
X82803117Y-36377663D01*
X83046500Y-36232188D01*
X83046500Y-34909500D01*
X83026500Y-34909500D01*
X83026500Y-34782500D01*
X83046500Y-34782500D01*
X83046500Y-34762500D01*
X83173500Y-34762500D01*
X83173500Y-34782500D01*
X84496021Y-34782500D01*
X84641659Y-34539117D01*
X84410048Y-33979950D01*
X84003371Y-33572139D01*
X84245175Y-33410572D01*
X84583795Y-32903790D01*
X84702703Y-32306000D01*
X84583795Y-31708210D01*
X84245175Y-31201428D01*
X83738393Y-30862808D01*
X83190080Y-30753741D01*
X83190080Y-30686123D01*
X83198970Y-30664661D01*
X83198970Y-30585346D01*
X84258118Y-29526198D01*
X84450829Y-29237786D01*
X84450830Y-29237785D01*
X84518500Y-28897580D01*
X84518500Y-23018518D01*
X84521380Y-23015639D01*
X84627720Y-22758911D01*
X84627720Y-22481030D01*
X84627720Y-22082250D01*
X84581638Y-21971000D01*
X84627720Y-21859750D01*
X84627720Y-21759545D01*
X84627720Y-21283295D01*
X84627720Y-21183090D01*
X84521380Y-20926362D01*
X84324889Y-20729870D01*
X84068161Y-20623530D01*
X83867625Y-20623530D01*
X83693000Y-20798155D01*
X83693000Y-21457920D01*
X84453095Y-21457920D01*
X84627720Y-21283295D01*
X84627720Y-21759545D01*
X84453095Y-21584920D01*
X84218397Y-21584920D01*
X84068161Y-21522690D01*
X83790280Y-21522690D01*
X83546000Y-21522690D01*
X83546000Y-21457920D01*
X83566000Y-21457920D01*
X83566000Y-20798155D01*
X83536790Y-20768945D01*
X83536790Y-20464270D01*
X83519115Y-20421600D01*
X83536790Y-20378931D01*
X83536790Y-20253325D01*
X83362165Y-20078700D01*
X83301608Y-20078700D01*
X83250808Y-20027899D01*
X83327008Y-19951700D01*
X83362165Y-19951700D01*
X83536790Y-19777075D01*
X83536790Y-19694223D01*
X86908317Y-23065751D01*
X86861974Y-23112095D01*
X86502763Y-23471305D01*
X86502762Y-23471306D01*
X85784343Y-24189726D01*
X85678003Y-24446454D01*
X85678002Y-24724335D01*
X85784343Y-24981063D01*
X85980834Y-25177554D01*
X86340044Y-25536765D01*
X86455103Y-25584424D01*
X86502763Y-25699483D01*
X86699254Y-25895975D01*
X87869470Y-27066190D01*
X88116427Y-27066190D01*
X88621566Y-26561051D01*
X88607424Y-26546909D01*
X88697226Y-26457106D01*
X89339986Y-27099866D01*
X89250184Y-27189669D01*
X88711369Y-26650854D01*
X88206230Y-27155993D01*
X88206230Y-27402950D01*
X89017235Y-28213955D01*
X89126706Y-28323426D01*
X89213726Y-28410446D01*
X89250183Y-28446903D01*
X89339989Y-28536709D01*
X89376445Y-28573166D01*
X89376446Y-28573166D01*
X89463466Y-28660186D01*
X89572937Y-28769657D01*
X89829665Y-28875998D01*
X90107546Y-28875997D01*
X90364274Y-28769657D01*
X90473744Y-28660186D01*
X90810504Y-28323426D01*
X90883235Y-28250695D01*
X90919975Y-28213956D01*
X90919975Y-28213955D01*
X91801113Y-27332816D01*
X91801115Y-27332816D01*
X91910585Y-27223345D01*
X91910585Y-26976388D01*
X91405446Y-26471249D01*
X91315643Y-26381446D01*
X90919975Y-25985778D01*
X90810504Y-25876307D01*
X90723484Y-25789286D01*
X90044265Y-25110067D01*
X90134067Y-25020265D01*
X91009777Y-25895975D01*
X91009778Y-25895975D01*
X91405446Y-26291643D01*
X91495249Y-26381445D01*
X91495249Y-26381446D01*
X92000388Y-26886585D01*
X92247345Y-26886585D01*
X92356816Y-26777115D01*
X92356816Y-26777113D01*
X93237955Y-25895975D01*
X93237956Y-25895975D01*
X93274695Y-25859235D01*
X93347426Y-25786504D01*
X93684186Y-25449744D01*
X93793657Y-25340274D01*
X93899997Y-25083546D01*
X93899998Y-24805665D01*
X93793657Y-24548937D01*
X93684186Y-24439466D01*
X93597166Y-24352446D01*
X93597166Y-24352445D01*
X93560709Y-24315989D01*
X93470903Y-24226183D01*
X93434446Y-24189726D01*
X93347426Y-24102706D01*
X93237955Y-23993235D01*
X92426950Y-23182230D01*
X92179993Y-23182230D01*
X91674854Y-23687369D01*
X92213669Y-24226184D01*
X92123866Y-24315986D01*
X91481106Y-23673226D01*
X91570908Y-23583424D01*
X91585051Y-23597566D01*
X92090190Y-23092427D01*
X92090190Y-22845470D01*
X90919975Y-21675254D01*
X90723483Y-21478763D01*
X90608424Y-21431103D01*
X90560765Y-21316045D01*
X90364274Y-21119554D01*
X90005064Y-20760343D01*
X89748336Y-20654003D01*
X89470455Y-20654002D01*
X89213727Y-20760343D01*
X89017235Y-20956834D01*
X88495306Y-21478763D01*
X88298815Y-21675254D01*
X88075751Y-21898317D01*
X88075750Y-21898317D01*
X84630533Y-18453100D01*
X87770666Y-18453100D01*
X101190054Y-31872488D01*
X101190054Y-33295015D01*
X100901465Y-33583604D01*
X100704974Y-33780095D01*
X100345763Y-34139305D01*
X100345762Y-34139306D01*
X99627343Y-34857726D01*
X99521003Y-35114454D01*
X99521002Y-35392335D01*
X99627343Y-35649063D01*
X99823834Y-35845554D01*
X100183044Y-36204765D01*
X100298103Y-36252424D01*
X100345763Y-36367483D01*
X100542254Y-36563975D01*
X101712470Y-37734190D01*
X101959427Y-37734190D01*
X102464566Y-37229051D01*
X102450423Y-37214909D01*
X102540226Y-37125106D01*
X103182986Y-37767866D01*
X103093184Y-37857669D01*
X102554369Y-37318854D01*
X102049230Y-37823993D01*
X102049230Y-38070950D01*
X102860235Y-38881955D01*
X102969706Y-38991426D01*
X103056726Y-39078446D01*
X103093183Y-39114903D01*
X103182989Y-39204709D01*
X103219445Y-39241166D01*
X103219446Y-39241166D01*
X103306466Y-39328186D01*
X103415937Y-39437657D01*
X103672665Y-39543998D01*
X103950546Y-39543997D01*
X104207274Y-39437657D01*
X104316744Y-39328186D01*
X104653504Y-38991426D01*
X104726235Y-38918695D01*
X104762975Y-38881956D01*
X104762975Y-38881955D01*
X105644113Y-38000816D01*
X105644115Y-38000816D01*
X105753585Y-37891345D01*
X105753585Y-37644388D01*
X105248446Y-37139249D01*
X105248445Y-37139249D01*
X105158643Y-37049446D01*
X104762975Y-36653778D01*
X104653504Y-36544307D01*
X104566484Y-36457286D01*
X103887265Y-35778067D01*
X103977067Y-35688265D01*
X104852777Y-36563975D01*
X104852778Y-36563975D01*
X105248446Y-36959643D01*
X105338249Y-37049445D01*
X105338249Y-37049446D01*
X105843388Y-37554585D01*
X106090345Y-37554585D01*
X106199816Y-37445115D01*
X106199816Y-37445113D01*
X107080955Y-36563975D01*
X107080956Y-36563975D01*
X107117695Y-36527235D01*
X107190426Y-36454504D01*
X107527186Y-36117744D01*
X107636657Y-36008274D01*
X107742997Y-35751546D01*
X107742998Y-35473665D01*
X107636657Y-35216937D01*
X107527186Y-35107466D01*
X107440166Y-35020446D01*
X107440166Y-35020445D01*
X107403709Y-34983989D01*
X107313903Y-34894183D01*
X107277446Y-34857726D01*
X107190426Y-34770706D01*
X107080955Y-34661235D01*
X106269950Y-33850230D01*
X106022993Y-33850230D01*
X105517854Y-34355369D01*
X106056669Y-34894184D01*
X105966866Y-34983986D01*
X105324106Y-34341226D01*
X105413909Y-34251423D01*
X105428051Y-34265566D01*
X105933190Y-33760427D01*
X105933190Y-33513470D01*
X104762975Y-32343254D01*
X104566483Y-32146763D01*
X104451424Y-32099103D01*
X104403765Y-31984045D01*
X104207274Y-31787554D01*
X103848064Y-31428343D01*
X103591336Y-31322003D01*
X103313455Y-31322002D01*
X103056727Y-31428343D01*
X102860235Y-31624834D01*
X102841054Y-31644015D01*
X102841054Y-31530554D01*
X102778217Y-31214649D01*
X102778217Y-31214648D01*
X102599271Y-30946837D01*
X88696317Y-17043883D01*
X88428506Y-16864937D01*
X88112600Y-16802100D01*
X83213317Y-16802100D01*
X82977231Y-16704310D01*
X82699350Y-16704310D01*
X80785970Y-16704310D01*
X80785970Y-16481550D01*
X80785970Y-14482570D01*
X80688180Y-14246483D01*
X80688180Y-14195056D01*
X97355622Y-14195056D01*
X104699280Y-21538713D01*
X104699283Y-21538717D01*
X104699284Y-21538717D01*
X104967095Y-21717663D01*
X105283000Y-21780501D01*
X105283000Y-21780500D01*
X105283005Y-21780500D01*
X112688066Y-21780500D01*
X113966317Y-23058751D01*
X113912974Y-23112095D01*
X113553763Y-23471305D01*
X113553762Y-23471306D01*
X112835343Y-24189726D01*
X112729003Y-24446454D01*
X112729002Y-24724335D01*
X112835343Y-24981063D01*
X113031834Y-25177554D01*
X113391044Y-25536765D01*
X113506103Y-25584424D01*
X113553763Y-25699483D01*
X113750254Y-25895975D01*
X114920470Y-27066190D01*
X115167427Y-27066190D01*
X115672566Y-26561051D01*
X115658423Y-26546909D01*
X115748226Y-26457106D01*
X116390986Y-27099866D01*
X116301184Y-27189669D01*
X115762369Y-26650854D01*
X115257230Y-27155993D01*
X115257230Y-27402950D01*
X116068235Y-28213955D01*
X116177706Y-28323426D01*
X116264726Y-28410446D01*
X116301183Y-28446903D01*
X116390989Y-28536709D01*
X116427445Y-28573166D01*
X116427446Y-28573166D01*
X116514466Y-28660186D01*
X116623937Y-28769657D01*
X116880665Y-28875998D01*
X117158546Y-28875997D01*
X117415274Y-28769657D01*
X117524744Y-28660186D01*
X117861504Y-28323426D01*
X117934235Y-28250695D01*
X117970975Y-28213956D01*
X117970975Y-28213955D01*
X118852113Y-27332816D01*
X118852115Y-27332816D01*
X118961585Y-27223345D01*
X118961585Y-26976388D01*
X118456446Y-26471249D01*
X118366643Y-26381446D01*
X117970975Y-25985778D01*
X117861504Y-25876307D01*
X117774484Y-25789286D01*
X117095265Y-25110067D01*
X117185067Y-25020265D01*
X118060777Y-25895975D01*
X118060778Y-25895975D01*
X118456446Y-26291643D01*
X118546249Y-26381445D01*
X118546249Y-26381446D01*
X119051388Y-26886585D01*
X119298345Y-26886585D01*
X119407816Y-26777115D01*
X119407816Y-26777113D01*
X120288955Y-25895975D01*
X120288956Y-25895975D01*
X120325695Y-25859235D01*
X120398426Y-25786504D01*
X120735186Y-25449744D01*
X120844657Y-25340274D01*
X120950997Y-25083546D01*
X120950998Y-24805665D01*
X120950998Y-39054442D01*
X112552355Y-44159500D01*
X84641659Y-44159500D01*
X84641659Y-35152883D01*
X84496021Y-34909500D01*
X83173500Y-34909500D01*
X83173500Y-36232188D01*
X83416883Y-36377663D01*
X83979665Y-36143633D01*
X84410048Y-35712050D01*
X84641659Y-35152883D01*
X84641659Y-44159500D01*
X81579720Y-44159500D01*
X81579720Y-38062410D01*
X81579720Y-37962205D01*
X81405095Y-37787580D01*
X80645000Y-37787580D01*
X80645000Y-38447345D01*
X80819625Y-38621970D01*
X81020161Y-38621970D01*
X81276889Y-38515630D01*
X81473380Y-38319138D01*
X81579720Y-38062410D01*
X81579720Y-44159500D01*
X80518000Y-44159500D01*
X80518000Y-38447345D01*
X80518000Y-37787580D01*
X79757905Y-37787580D01*
X79583280Y-37962205D01*
X79583280Y-38062410D01*
X79689620Y-38319138D01*
X79886111Y-38515630D01*
X80142839Y-38621970D01*
X80343375Y-38621970D01*
X80518000Y-38447345D01*
X80518000Y-44159500D01*
X66076500Y-44159500D01*
X66076500Y-42799000D01*
X66061157Y-42721865D01*
X66061157Y-42643220D01*
X65877478Y-41719810D01*
X65877479Y-41719806D01*
X65877478Y-41719805D01*
X65758250Y-41431963D01*
X65758249Y-41431962D01*
X65235179Y-40649130D01*
X65235178Y-40649129D01*
X65235178Y-40649128D01*
X65014872Y-40428823D01*
X65014871Y-40428822D01*
X64232040Y-39905752D01*
X64232039Y-39905751D01*
X64232037Y-39905750D01*
X64147730Y-39870829D01*
X63944195Y-39786522D01*
X63020780Y-39602843D01*
X62709220Y-39602843D01*
X61785810Y-39786521D01*
X61785806Y-39786521D01*
X61497963Y-39905750D01*
X60715130Y-40428820D01*
X60715128Y-40428822D01*
X60494822Y-40649129D01*
X59971752Y-41431959D01*
X59971751Y-41431961D01*
X59971750Y-41431962D01*
X59971750Y-41431963D01*
X59936829Y-41516269D01*
X59852522Y-41719805D01*
X59668843Y-42643220D01*
X59668843Y-42721865D01*
X59653500Y-42799000D01*
X59653500Y-44159500D01*
X59194997Y-44159500D01*
X59194997Y-28794261D01*
X58934530Y-28163883D01*
X58452654Y-27681165D01*
X57822731Y-27419598D01*
X57140661Y-27419003D01*
X56510283Y-27679470D01*
X56027565Y-28161346D01*
X55765998Y-28791269D01*
X55765403Y-29473339D01*
X56025870Y-30103717D01*
X56507746Y-30586435D01*
X57137669Y-30848002D01*
X57819739Y-30848597D01*
X58450117Y-30588130D01*
X58932835Y-30106254D01*
X59194402Y-29476331D01*
X59194997Y-28794261D01*
X59194997Y-44159500D01*
X13177644Y-44159500D01*
X5397797Y-39430572D01*
X5397797Y-14138461D01*
X5137330Y-13508083D01*
X4655454Y-13025365D01*
X4025531Y-12763798D01*
X3343461Y-12763203D01*
X2713083Y-13023670D01*
X2230365Y-13505546D01*
X1968798Y-14135469D01*
X1968203Y-14817539D01*
X2228670Y-15447917D01*
X2710546Y-15930635D01*
X3340469Y-16192202D01*
X4022539Y-16192797D01*
X4652917Y-15932330D01*
X5135635Y-15450454D01*
X5397202Y-14820531D01*
X5397797Y-14138461D01*
X5397797Y-39430572D01*
X798500Y-36634921D01*
X798500Y-36291097D01*
X1508796Y-36149811D01*
X1796639Y-36030583D01*
X1796639Y-36030582D01*
X1796642Y-36030579D01*
X2620670Y-35479981D01*
X2620674Y-35479980D01*
X2620674Y-35479979D01*
X2840979Y-35259674D01*
X2840980Y-35259673D01*
X2840980Y-35259671D01*
X3391579Y-34435642D01*
X3391582Y-34435639D01*
X3391583Y-34435639D01*
X3510811Y-34147796D01*
X3704157Y-33175780D01*
X3704157Y-32864220D01*
X3510811Y-31892204D01*
X3391583Y-31604361D01*
X3391579Y-31604357D01*
X2840980Y-30780328D01*
X2840980Y-30780327D01*
X2840979Y-30780326D01*
X2620674Y-30560021D01*
X2620674Y-30560020D01*
X2620670Y-30560018D01*
X1796642Y-30009420D01*
X1796639Y-30009417D01*
X1508796Y-29890189D01*
X798500Y-29748902D01*
X798500Y-8418500D01*
X3125298Y-8418500D01*
X4330307Y-11704888D01*
X4409360Y-11834468D01*
X4487031Y-11964781D01*
X4490387Y-11967283D01*
X4492569Y-11970859D01*
X4615167Y-12060303D01*
X4736820Y-12150993D01*
X4740880Y-12152020D01*
X4744262Y-12154488D01*
X4891712Y-12190197D01*
X5038855Y-12227440D01*
X5042999Y-12226835D01*
X5047068Y-12227821D01*
X5197009Y-12204377D01*
X5347154Y-12182483D01*
X26810154Y-4562483D01*
X26813749Y-4560340D01*
X26817888Y-4559693D01*
X26947447Y-4480651D01*
X27077781Y-4402969D01*
X27080284Y-4399611D01*
X27083858Y-4397431D01*
X27173296Y-4274842D01*
X27263993Y-4153180D01*
X27265020Y-4149121D01*
X27267488Y-4145739D01*
X27303214Y-3998218D01*
X27340439Y-3851145D01*
X27339835Y-3847003D01*
X27340821Y-3842933D01*
X27317372Y-3692959D01*
X27295483Y-3542846D01*
X27293339Y-3539250D01*
X27292693Y-3535113D01*
X26289268Y-798500D01*
X56646734Y-798500D01*
X56477176Y-1206841D01*
X56476625Y-1838388D01*
X56717798Y-2422072D01*
X57163979Y-2869032D01*
X57747241Y-3111224D01*
X58378788Y-3111775D01*
X58962472Y-2870602D01*
X59409432Y-2424421D01*
X59651624Y-1841159D01*
X59652175Y-1209612D01*
X59482307Y-798500D01*
X61902004Y-798500D01*
X61853536Y-846884D01*
X61671408Y-1285497D01*
X61670993Y-1760420D01*
X61852355Y-2199350D01*
X62187884Y-2535464D01*
X62626497Y-2717592D01*
X63101420Y-2718007D01*
X63540350Y-2536645D01*
X63876464Y-2201116D01*
X64058592Y-1762503D01*
X64059007Y-1287580D01*
X63877645Y-848650D01*
X63827582Y-798500D01*
X66146218Y-798500D01*
X65976509Y-1208181D01*
X65976491Y-1839728D01*
X66218157Y-2423208D01*
X66218208Y-2423285D01*
X66499041Y-2499156D01*
X67474197Y-1524000D01*
X67460055Y-1509858D01*
X67549858Y-1420055D01*
X67564000Y-1434197D01*
X67578142Y-1420055D01*
X67667944Y-1509857D01*
X67653803Y-1524000D01*
X68628959Y-2499156D01*
X68909792Y-2423285D01*
X69151491Y-1839819D01*
X69151509Y-1208272D01*
X68981789Y-798500D01*
X87884000Y-798500D01*
X97639804Y-798500D01*
X96638430Y-3546798D01*
X96638408Y-3546936D01*
X96638336Y-3547056D01*
X96614687Y-3700703D01*
X96590928Y-3854715D01*
X96590961Y-3854851D01*
X96590940Y-3854990D01*
X96627643Y-4004985D01*
X96664876Y-4157371D01*
X96664960Y-4157485D01*
X96664993Y-4157620D01*
X96756216Y-4282034D01*
X96849017Y-4408690D01*
X96849137Y-4408762D01*
X96849220Y-4408876D01*
X96982443Y-4489717D01*
X97115318Y-4570410D01*
X97115456Y-4570431D01*
X97115576Y-4570504D01*
X119886676Y-12858524D01*
X119886703Y-12858528D01*
X119886728Y-12858543D01*
X120044504Y-12882816D01*
X120194609Y-12905920D01*
X120194635Y-12905913D01*
X120194664Y-12905918D01*
X120350696Y-12867725D01*
X120497240Y-12831867D01*
X120497262Y-12831850D01*
X120497290Y-12831844D01*
X120630333Y-12734278D01*
X120748495Y-12647639D01*
X120748508Y-12647617D01*
X120748533Y-12647599D01*
X120834939Y-12505183D01*
X120910124Y-12381283D01*
X120910128Y-12381256D01*
X120910143Y-12381232D01*
X122352155Y-8418500D01*
X124931500Y-8418500D01*
X124931500Y-29748902D01*
X124221204Y-29890189D01*
X123933361Y-30009417D01*
X123933357Y-30009420D01*
X123507797Y-30293770D01*
X123507797Y-14392461D01*
X123247330Y-13762083D01*
X122765454Y-13279365D01*
X122135531Y-13017798D01*
X121453461Y-13017203D01*
X120823083Y-13277670D01*
X120340365Y-13759546D01*
X120078798Y-14389469D01*
X120078203Y-15071539D01*
X120338670Y-15701917D01*
X120820546Y-16184635D01*
X121450469Y-16446202D01*
X122132539Y-16446797D01*
X122762917Y-16186330D01*
X123245635Y-15704454D01*
X123507202Y-15074531D01*
X123507797Y-14392461D01*
X123507797Y-30293770D01*
X123109328Y-30560019D01*
X123109327Y-30560020D01*
X123109326Y-30560021D01*
X122889020Y-30780326D01*
X122889018Y-30780329D01*
X122338420Y-31604357D01*
X122338417Y-31604361D01*
X122219189Y-31892204D01*
X122025843Y-32864220D01*
X122025843Y-33175780D01*
X122219189Y-34147796D01*
X122338417Y-34435639D01*
X122338420Y-34435642D01*
X122889018Y-35259670D01*
X122889020Y-35259674D01*
X122889021Y-35259674D01*
X123109326Y-35479979D01*
X123109327Y-35479980D01*
X123109328Y-35479980D01*
X123933357Y-36030579D01*
X123933361Y-36030583D01*
X124221204Y-36149811D01*
X124931500Y-36291097D01*
X124931500Y-36634921D01*
X124931500Y-36634921D01*
G37*
X124931500Y-36634921D02*
X120950998Y-39054442D01*
X120950998Y-24805665D01*
X120844657Y-24548937D01*
X120735186Y-24439466D01*
X120648166Y-24352446D01*
X120648166Y-24352445D01*
X120611709Y-24315989D01*
X120521903Y-24226183D01*
X120485446Y-24189726D01*
X120398426Y-24102706D01*
X120288955Y-23993235D01*
X119477950Y-23182230D01*
X119230993Y-23182230D01*
X118725854Y-23687369D01*
X119264669Y-24226184D01*
X119174866Y-24315986D01*
X118532106Y-23673226D01*
X118621909Y-23583423D01*
X118636051Y-23597566D01*
X119141190Y-23092427D01*
X119141190Y-22845470D01*
X117970975Y-21675254D01*
X117774483Y-21478763D01*
X117659424Y-21431103D01*
X117611765Y-21316045D01*
X117415274Y-21119554D01*
X117056064Y-20760343D01*
X116799336Y-20654003D01*
X116521455Y-20654002D01*
X116504956Y-20660836D01*
X116504956Y-13596707D01*
X116213595Y-12878524D01*
X116197492Y-12854424D01*
X115879195Y-12734607D01*
X115789393Y-12824409D01*
X115789393Y-12644805D01*
X115669576Y-12326508D01*
X114955721Y-12024699D01*
X114180707Y-12019044D01*
X113462524Y-12310405D01*
X113438424Y-12326508D01*
X113318607Y-12644805D01*
X114554000Y-13880197D01*
X115789393Y-12644805D01*
X115789393Y-12824409D01*
X114643803Y-13970000D01*
X115879195Y-15205393D01*
X116197492Y-15085576D01*
X116499301Y-14371721D01*
X116504956Y-13596707D01*
X116504956Y-20660836D01*
X116264727Y-20760343D01*
X116068235Y-20956834D01*
X115789393Y-21235676D01*
X115789393Y-15295195D01*
X114554000Y-14059803D01*
X114464197Y-14149605D01*
X114464197Y-13970000D01*
X113228805Y-12734607D01*
X112910508Y-12854424D01*
X112608699Y-13568279D01*
X112603044Y-14343293D01*
X112894405Y-15061476D01*
X112910508Y-15085576D01*
X113228805Y-15205393D01*
X114464197Y-13970000D01*
X114464197Y-14149605D01*
X113318607Y-15295195D01*
X113438424Y-15613492D01*
X114152279Y-15915301D01*
X114927293Y-15920956D01*
X115645476Y-15629595D01*
X115669576Y-15613492D01*
X115789393Y-15295195D01*
X115789393Y-21235676D01*
X115546306Y-21478763D01*
X115349815Y-21675254D01*
X115133751Y-21891317D01*
X113613717Y-20371283D01*
X113345906Y-20192337D01*
X113030000Y-20129500D01*
X105624933Y-20129500D01*
X104045216Y-18549783D01*
X104207274Y-18482657D01*
X104316744Y-18373186D01*
X104653504Y-18036426D01*
X104726235Y-17963695D01*
X104762975Y-17926956D01*
X104762975Y-17926955D01*
X105644113Y-17045816D01*
X105644115Y-17045816D01*
X105753585Y-16936345D01*
X105753585Y-16689388D01*
X105248446Y-16184249D01*
X105248445Y-16184249D01*
X105158643Y-16094446D01*
X104762975Y-15698778D01*
X104653504Y-15589307D01*
X104566484Y-15502286D01*
X103887265Y-14823067D01*
X103977067Y-14733265D01*
X104852777Y-15608975D01*
X104852778Y-15608975D01*
X105248446Y-16004643D01*
X105338249Y-16094445D01*
X105338249Y-16094446D01*
X105843388Y-16599585D01*
X106090345Y-16599585D01*
X106199816Y-16490115D01*
X106199816Y-16490113D01*
X107080955Y-15608975D01*
X107080956Y-15608975D01*
X107117695Y-15572235D01*
X107190426Y-15499504D01*
X107527186Y-15162744D01*
X107636657Y-15053274D01*
X107742997Y-14796546D01*
X107742998Y-14518665D01*
X107636657Y-14261937D01*
X107527186Y-14152466D01*
X107440166Y-14065446D01*
X107440166Y-14065445D01*
X107403709Y-14028989D01*
X107313903Y-13939183D01*
X107277446Y-13902726D01*
X107190426Y-13815706D01*
X107080955Y-13706235D01*
X106269950Y-12895230D01*
X106022993Y-12895230D01*
X105517854Y-13400369D01*
X106056669Y-13939184D01*
X105966866Y-14028986D01*
X105324106Y-13386226D01*
X105413909Y-13296423D01*
X105428051Y-13310566D01*
X105933190Y-12805427D01*
X105933190Y-12558470D01*
X104762975Y-11388254D01*
X104566483Y-11191763D01*
X104451424Y-11144103D01*
X104403765Y-11029045D01*
X104207274Y-10832554D01*
X103848064Y-10473343D01*
X103591336Y-10367003D01*
X103313455Y-10367002D01*
X103056727Y-10473343D01*
X102860235Y-10669834D01*
X102338306Y-11191763D01*
X102141815Y-11388254D01*
X101782604Y-11747464D01*
X101782603Y-11747465D01*
X101468615Y-12061454D01*
X96773032Y-12061454D01*
X98881915Y-9952570D01*
X99178783Y-10075841D01*
X99953817Y-10076517D01*
X100670114Y-9780550D01*
X101218624Y-9232996D01*
X101515841Y-8517217D01*
X101516517Y-7742183D01*
X101220550Y-7025886D01*
X100672996Y-6477376D01*
X99957217Y-6180159D01*
X99182183Y-6179483D01*
X98465886Y-6475450D01*
X97917376Y-7023004D01*
X97620159Y-7738783D01*
X97619483Y-8513817D01*
X97726587Y-8773030D01*
X96456995Y-10042622D01*
X96456995Y-6419102D01*
X96022883Y-5368471D01*
X95219757Y-4563942D01*
X94169886Y-4127997D01*
X93033102Y-4127005D01*
X91982471Y-4561117D01*
X91177942Y-5364243D01*
X90741997Y-6414114D01*
X90741005Y-7550898D01*
X91175117Y-8601529D01*
X91978243Y-9406058D01*
X93028114Y-9842003D01*
X94164898Y-9842995D01*
X95215529Y-9408883D01*
X96020058Y-8605757D01*
X96456003Y-7555886D01*
X96456995Y-6419102D01*
X96456995Y-10042622D01*
X94971566Y-11528052D01*
X79828029Y-11528052D01*
X79828024Y-11528051D01*
X79512119Y-11590889D01*
X79244307Y-11769835D01*
X79244304Y-11769838D01*
X78477926Y-12536216D01*
X78181803Y-12239577D01*
X77761854Y-12065199D01*
X77557954Y-12065020D01*
X75729615Y-10236681D01*
X75704217Y-10211283D01*
X75704213Y-10211280D01*
X72719717Y-7226783D01*
X72451906Y-7047837D01*
X72136000Y-6985000D01*
X68539156Y-6985000D01*
X68539156Y-2588959D01*
X67564000Y-1613803D01*
X66588844Y-2588959D01*
X66664715Y-2869792D01*
X67248181Y-3111491D01*
X67879728Y-3111509D01*
X68463208Y-2869843D01*
X68463285Y-2869792D01*
X68539156Y-2588959D01*
X68539156Y-6985000D01*
X68000873Y-6985000D01*
X68059024Y-6844959D01*
X68059575Y-6213412D01*
X67818402Y-5629728D01*
X67372221Y-5182768D01*
X66788959Y-4940576D01*
X66157412Y-4940025D01*
X65573728Y-5181198D01*
X65126768Y-5627379D01*
X64884576Y-6210641D01*
X64884025Y-6842188D01*
X64943033Y-6985000D01*
X63967781Y-6985000D01*
X64058592Y-6766303D01*
X64059007Y-6291380D01*
X63877645Y-5852450D01*
X63542116Y-5516336D01*
X63103503Y-5334208D01*
X62628580Y-5333793D01*
X62189650Y-5515155D01*
X61853536Y-5850684D01*
X61671408Y-6289297D01*
X61670993Y-6764220D01*
X61762217Y-6985000D01*
X43648933Y-6985000D01*
X43472888Y-6808954D01*
X43472887Y-6808953D01*
X42906467Y-6242533D01*
X42645330Y-6068047D01*
X42645330Y-6068046D01*
X42645330Y-6061274D01*
X42685970Y-5963161D01*
X42685970Y-5685280D01*
X42685970Y-5085840D01*
X42613580Y-4911074D01*
X42613580Y-4804426D01*
X42685970Y-4629661D01*
X42685970Y-4351780D01*
X42685970Y-3752340D01*
X42579630Y-3495612D01*
X42383139Y-3299120D01*
X42126411Y-3192780D01*
X41848530Y-3192780D01*
X41449750Y-3192780D01*
X41338500Y-3238861D01*
X41227250Y-3192780D01*
X41127045Y-3192780D01*
X40952420Y-3367405D01*
X40952420Y-3602102D01*
X40890190Y-3752339D01*
X40890190Y-4030220D01*
X40890190Y-4629660D01*
X40952420Y-4779896D01*
X40952420Y-4935602D01*
X40890190Y-5085839D01*
X40890190Y-5363720D01*
X40890190Y-5608000D01*
X40825420Y-5608000D01*
X40825420Y-5588000D01*
X40825420Y-5461000D01*
X40825420Y-5014595D01*
X40825420Y-4700905D01*
X40825420Y-4254500D01*
X40825420Y-4127500D01*
X40825420Y-3367405D01*
X40650795Y-3192780D01*
X40550590Y-3192780D01*
X40293862Y-3299120D01*
X40097370Y-3495611D01*
X39991030Y-3752339D01*
X39991030Y-3952875D01*
X40165655Y-4127500D01*
X40825420Y-4127500D01*
X40825420Y-4254500D01*
X40165655Y-4254500D01*
X39991030Y-4429125D01*
X39991030Y-4629661D01*
X40085507Y-4857750D01*
X39991030Y-5085839D01*
X39991030Y-5286375D01*
X40165655Y-5461000D01*
X40825420Y-5461000D01*
X40825420Y-5588000D01*
X40165655Y-5588000D01*
X39991030Y-5762625D01*
X39991030Y-5963161D01*
X40094806Y-6213700D01*
X40022780Y-6387589D01*
X40022780Y-6665470D01*
X40022780Y-7264910D01*
X40031670Y-7286372D01*
X40031670Y-7837170D01*
X40099341Y-8177376D01*
X40292052Y-8465788D01*
X40779764Y-8953500D01*
X40265382Y-9467882D01*
X40072671Y-9756294D01*
X40005000Y-10096500D01*
X40005000Y-13144500D01*
X39723929Y-13144500D01*
X39631613Y-12680395D01*
X39316943Y-12209459D01*
X38846007Y-11894789D01*
X38290500Y-11784292D01*
X37734993Y-11894789D01*
X37264057Y-12209459D01*
X37011008Y-12588172D01*
X36732042Y-12207776D01*
X36247341Y-11913707D01*
X36040083Y-11856688D01*
X35814000Y-12003715D01*
X35814000Y-13970000D01*
X35834000Y-13970000D01*
X35834000Y-14097000D01*
X35814000Y-14097000D01*
X35814000Y-16063285D01*
X36040083Y-16210312D01*
X36247341Y-16153293D01*
X36732042Y-15859224D01*
X37011008Y-15478827D01*
X37264057Y-15857541D01*
X37734993Y-16172211D01*
X38290500Y-16282708D01*
X38846007Y-16172211D01*
X39316943Y-15857541D01*
X39631613Y-15386605D01*
X39723929Y-14922500D01*
X40005000Y-14922500D01*
X40005000Y-15811500D01*
X40005000Y-16256000D01*
X40072671Y-16596206D01*
X40265382Y-16884618D01*
X45114242Y-21733478D01*
X45402654Y-21926189D01*
X45402655Y-21926190D01*
X45742860Y-21993860D01*
X47910455Y-21993860D01*
X48001092Y-22129507D01*
X48429098Y-22415492D01*
X36782688Y-22415492D01*
X36362621Y-22415492D01*
X35687000Y-21739870D01*
X35687000Y-16063285D01*
X35687000Y-14097000D01*
X35687000Y-13970000D01*
X35687000Y-12003715D01*
X35460917Y-11856688D01*
X35253659Y-11913707D01*
X34768958Y-12207776D01*
X34734995Y-12254087D01*
X34734995Y-6419102D01*
X34300883Y-5368471D01*
X33497757Y-4563942D01*
X32447886Y-4127997D01*
X31311102Y-4127005D01*
X30260471Y-4561117D01*
X29455942Y-5364243D01*
X29019997Y-6414114D01*
X29019005Y-7550898D01*
X29453117Y-8601529D01*
X30256243Y-9406058D01*
X31306114Y-9842003D01*
X32442898Y-9842995D01*
X33493529Y-9408883D01*
X34298058Y-8605757D01*
X34734003Y-7555886D01*
X34734995Y-6419102D01*
X34734995Y-12254087D01*
X34433688Y-12664947D01*
X34298890Y-13215620D01*
X34298890Y-13970000D01*
X35687000Y-13970000D01*
X35687000Y-14097000D01*
X34298890Y-14097000D01*
X34298890Y-14851380D01*
X34433688Y-15402053D01*
X34768958Y-15859224D01*
X35253659Y-16153293D01*
X35460917Y-16210312D01*
X35687000Y-16063285D01*
X35687000Y-21739870D01*
X26969956Y-13022826D01*
X26969956Y-8262707D01*
X26678595Y-7544524D01*
X26662492Y-7520424D01*
X26344195Y-7400607D01*
X26254393Y-7490409D01*
X26254393Y-7310805D01*
X26134576Y-6992508D01*
X25420721Y-6690699D01*
X24645707Y-6685044D01*
X23927524Y-6976405D01*
X23903424Y-6992508D01*
X23783607Y-7310805D01*
X25019000Y-8546197D01*
X26254393Y-7310805D01*
X26254393Y-7490409D01*
X25108803Y-8636000D01*
X26344195Y-9871393D01*
X26662492Y-9751576D01*
X26964301Y-9037721D01*
X26969956Y-8262707D01*
X26969956Y-13022826D01*
X26254393Y-12307263D01*
X26254393Y-9961195D01*
X25019000Y-8725803D01*
X24929197Y-8815605D01*
X24929197Y-8636000D01*
X23693805Y-7400607D01*
X23375508Y-7520424D01*
X23073699Y-8234279D01*
X23068044Y-9009293D01*
X23359405Y-9727476D01*
X23375508Y-9751576D01*
X23693805Y-9871393D01*
X24929197Y-8636000D01*
X24929197Y-8815605D01*
X23783607Y-9961195D01*
X23903424Y-10279492D01*
X24617279Y-10581301D01*
X25392293Y-10586956D01*
X26110476Y-10295595D01*
X26134576Y-10279492D01*
X26254393Y-9961195D01*
X26254393Y-12307263D01*
X25872911Y-11925781D01*
X25605100Y-11746835D01*
X25289194Y-11683998D01*
X24634270Y-11683998D01*
X18458578Y-11683998D01*
X18142672Y-11746835D01*
X17874861Y-11925781D01*
X17418142Y-12382500D01*
X12942844Y-12382500D01*
X12828550Y-12105886D01*
X12280996Y-11557376D01*
X11565217Y-11260159D01*
X10790183Y-11259483D01*
X10073886Y-11555450D01*
X9525376Y-12103004D01*
X9228159Y-12818783D01*
X9227483Y-13593817D01*
X9268786Y-13693779D01*
X7501677Y-15460888D01*
X7429159Y-15430776D01*
X6797612Y-15430225D01*
X6213928Y-15671398D01*
X5766968Y-16117579D01*
X5524776Y-16700841D01*
X5524225Y-17332388D01*
X5765398Y-17916072D01*
X6136934Y-18288257D01*
X5766968Y-18657579D01*
X5524776Y-19240841D01*
X5524225Y-19872388D01*
X5765398Y-20456072D01*
X6211579Y-20903032D01*
X6794841Y-21145224D01*
X7426388Y-21145775D01*
X8010072Y-20904602D01*
X8457032Y-20458421D01*
X8514509Y-20320000D01*
X11366500Y-20320000D01*
X11366500Y-21399500D01*
X11291060Y-21399500D01*
X10783060Y-21399500D01*
X9767060Y-21399500D01*
X9510332Y-21505840D01*
X9313840Y-21702331D01*
X9207500Y-21959059D01*
X9207500Y-22236940D01*
X9207500Y-22744940D01*
X9255159Y-22859999D01*
X9207500Y-22975059D01*
X9207500Y-23252940D01*
X9207500Y-24907875D01*
X9382125Y-25082500D01*
X10096500Y-25082500D01*
X10096500Y-25062500D01*
X10223500Y-25062500D01*
X10223500Y-25082500D01*
X10223500Y-25209500D01*
X10223500Y-25971500D01*
X10096500Y-25971500D01*
X10096500Y-25209500D01*
X9382125Y-25209500D01*
X9207500Y-25384125D01*
X9207500Y-26531059D01*
X9207500Y-26685875D01*
X9207500Y-26808940D01*
X9207500Y-26860498D01*
X9207500Y-26987502D01*
X9207500Y-27039060D01*
X9207500Y-27162125D01*
X9207500Y-27316941D01*
X9313840Y-27573669D01*
X9510332Y-27770160D01*
X9767060Y-27876500D01*
X9921875Y-27876500D01*
X10398125Y-27876500D01*
X10552940Y-27876500D01*
X11799060Y-27876500D01*
X11953875Y-27876500D01*
X12128500Y-27701875D01*
X12128500Y-26987500D01*
X12128500Y-26860500D01*
X12128500Y-26300941D01*
X12128500Y-26146125D01*
X12128500Y-26023060D01*
X12128500Y-25209500D01*
X12128500Y-25082500D01*
X12128500Y-25062500D01*
X12255500Y-25062500D01*
X12255500Y-25082500D01*
X12255500Y-25209500D01*
X12255500Y-26146125D01*
X12255500Y-26300940D01*
X12255500Y-26860500D01*
X12255500Y-26987500D01*
X12255500Y-27701875D01*
X12430125Y-27876500D01*
X12584940Y-27876500D01*
X13831060Y-27876500D01*
X13985875Y-27876500D01*
X14462125Y-27876500D01*
X14616940Y-27876500D01*
X14873668Y-27770160D01*
X15070160Y-27573669D01*
X15176500Y-27316941D01*
X15176500Y-27162125D01*
X15176500Y-27039060D01*
X15176500Y-26808940D01*
X15176500Y-26685875D01*
X15176500Y-26531059D01*
X15176500Y-25384125D01*
X15001875Y-25209500D01*
X14287500Y-25209500D01*
X14287500Y-25971500D01*
X14160500Y-25971500D01*
X14160500Y-25209500D01*
X14160500Y-25082500D01*
X14160500Y-25062500D01*
X14287500Y-25062500D01*
X14287500Y-25082500D01*
X15001875Y-25082500D01*
X15176500Y-24907875D01*
X15176500Y-23252940D01*
X15176500Y-22975059D01*
X15128841Y-22860000D01*
X15176500Y-22744941D01*
X15176500Y-22467060D01*
X15176500Y-21959060D01*
X15070160Y-21702332D01*
X14873669Y-21505840D01*
X14616941Y-21399500D01*
X14339060Y-21399500D01*
X13600941Y-21399500D01*
X13323060Y-21399500D01*
X13017500Y-21399500D01*
X13017500Y-19836433D01*
X18351500Y-14502433D01*
X18351500Y-15609060D01*
X18351500Y-15763875D01*
X18526125Y-15938500D01*
X19240500Y-15938500D01*
X19367500Y-15938500D01*
X19927059Y-15938500D01*
X20081875Y-15938500D01*
X20204940Y-15938500D01*
X21018500Y-15938500D01*
X21145500Y-15938500D01*
X21165500Y-15938500D01*
X21165500Y-16065500D01*
X21145500Y-16065500D01*
X21018500Y-16065500D01*
X20081875Y-16065500D01*
X19927060Y-16065500D01*
X19367500Y-16065500D01*
X19240500Y-16065500D01*
X18526125Y-16065500D01*
X18351500Y-16240125D01*
X18351500Y-16394940D01*
X18351500Y-17641060D01*
X18351500Y-17795875D01*
X18351500Y-17970498D01*
X18351500Y-18097502D01*
X18351500Y-18272125D01*
X18351500Y-18426940D01*
X18457840Y-18683668D01*
X18654331Y-18880160D01*
X18911059Y-18986500D01*
X19065875Y-18986500D01*
X19188940Y-18986500D01*
X19419060Y-18986500D01*
X19542125Y-18986500D01*
X19696941Y-18986500D01*
X20843875Y-18986500D01*
X21018500Y-18811875D01*
X21018500Y-18097500D01*
X20998500Y-18097500D01*
X20998500Y-17970500D01*
X21018500Y-17970500D01*
X21145500Y-17970500D01*
X21165500Y-17970500D01*
X21165500Y-18097500D01*
X21145500Y-18097500D01*
X21145500Y-18811875D01*
X21320125Y-18986500D01*
X22975060Y-18986500D01*
X23252941Y-18986500D01*
X23368000Y-18938841D01*
X23483059Y-18986500D01*
X23760940Y-18986500D01*
X24268940Y-18986500D01*
X24525668Y-18880160D01*
X24722160Y-18683669D01*
X24828500Y-18426941D01*
X24828500Y-18149060D01*
X24828500Y-17410941D01*
X24828500Y-17133060D01*
X24828500Y-16827500D01*
X27002914Y-16827500D01*
X29987414Y-19812000D01*
X29718005Y-19812000D01*
X29718000Y-19811999D01*
X29402095Y-19874837D01*
X29134283Y-20053783D01*
X21006283Y-28181783D01*
X20827337Y-28449594D01*
X20764500Y-28765500D01*
X20764500Y-30543500D01*
X20689060Y-30543500D01*
X20181060Y-30543500D01*
X19165060Y-30543500D01*
X18908332Y-30649840D01*
X18711840Y-30846331D01*
X18605500Y-31103059D01*
X18605500Y-31380940D01*
X18605500Y-31888940D01*
X18653159Y-32003999D01*
X18605500Y-32119059D01*
X18605500Y-32396940D01*
X18605500Y-34051875D01*
X18780125Y-34226500D01*
X19494500Y-34226500D01*
X19494500Y-34206500D01*
X19621500Y-34206500D01*
X19621500Y-34226500D01*
X19621500Y-34353500D01*
X19621500Y-35115500D01*
X19494500Y-35115500D01*
X19494500Y-34353500D01*
X18780125Y-34353500D01*
X18605500Y-34528125D01*
X18605500Y-35675059D01*
X18605500Y-35829875D01*
X18605500Y-35952940D01*
X18605500Y-36004498D01*
X18605500Y-36131502D01*
X18605500Y-36183060D01*
X18605500Y-36306125D01*
X18605500Y-36460941D01*
X18711840Y-36717669D01*
X18908332Y-36914160D01*
X19165060Y-37020500D01*
X19319875Y-37020500D01*
X19796125Y-37020500D01*
X19950940Y-37020500D01*
X21197060Y-37020500D01*
X21351875Y-37020500D01*
X21526500Y-36845875D01*
X21526500Y-36131500D01*
X21526500Y-36004500D01*
X21526500Y-35444941D01*
X21526500Y-35290125D01*
X21526500Y-35167060D01*
X21526500Y-34353500D01*
X21526500Y-34226500D01*
X21526500Y-34206500D01*
X21653500Y-34206500D01*
X21653500Y-34226500D01*
X21653500Y-34353500D01*
X21653500Y-35290125D01*
X21653500Y-35444940D01*
X21653500Y-36004500D01*
X21653500Y-36131500D01*
X21653500Y-36845875D01*
X21828125Y-37020500D01*
X21982940Y-37020500D01*
X23229060Y-37020500D01*
X23383875Y-37020500D01*
X23860125Y-37020500D01*
X24014940Y-37020500D01*
X24271668Y-36914160D01*
X24468160Y-36717669D01*
X24574500Y-36460941D01*
X24574500Y-36306125D01*
X24574500Y-36183060D01*
X24574500Y-35952940D01*
X24574500Y-35829875D01*
X24574500Y-35675059D01*
X24574500Y-34528125D01*
X24399875Y-34353500D01*
X23685500Y-34353500D01*
X23685500Y-35115500D01*
X23558500Y-35115500D01*
X23558500Y-34353500D01*
X23558500Y-34226500D01*
X23558500Y-34206500D01*
X23685500Y-34206500D01*
X23685500Y-34226500D01*
X24399875Y-34226500D01*
X24574500Y-34051875D01*
X24574500Y-32396940D01*
X24574500Y-32119059D01*
X24526841Y-32004000D01*
X24574500Y-31888941D01*
X24574500Y-31611060D01*
X24574500Y-31103060D01*
X24468160Y-30846332D01*
X24271669Y-30649840D01*
X24014941Y-30543500D01*
X23737060Y-30543500D01*
X22998941Y-30543500D01*
X22721060Y-30543500D01*
X22415500Y-30543500D01*
X22415500Y-29107434D01*
X26265501Y-25257432D01*
X26330814Y-25322744D01*
X26454291Y-25446221D01*
X26544097Y-25536027D01*
X26667574Y-25659504D01*
X26740304Y-25732235D01*
X26777044Y-25768975D01*
X27658183Y-26650113D01*
X27658184Y-26650115D01*
X27767655Y-26759585D01*
X28014612Y-26759585D01*
X28519751Y-26254446D01*
X28519751Y-26254445D01*
X28609554Y-26164643D01*
X29005222Y-25768975D01*
X29005222Y-25768974D01*
X29114693Y-25659504D01*
X29201714Y-25572484D01*
X29776987Y-24997210D01*
X29866790Y-24907407D01*
X29880932Y-24893265D01*
X29970734Y-24983067D01*
X29095025Y-25858777D01*
X29095024Y-25858778D01*
X28699357Y-26254446D01*
X28609554Y-26344249D01*
X28104415Y-26849388D01*
X28104415Y-27096345D01*
X28213885Y-27205816D01*
X28213886Y-27205816D01*
X29095024Y-28086955D01*
X29095025Y-28086956D01*
X29131764Y-28123695D01*
X29204496Y-28196426D01*
X29327973Y-28319903D01*
X29417779Y-28409709D01*
X29541256Y-28533186D01*
X29650726Y-28642657D01*
X29907454Y-28748997D01*
X30185335Y-28748998D01*
X30442063Y-28642657D01*
X30551534Y-28533186D01*
X30638554Y-28446166D01*
X30638555Y-28446166D01*
X30675011Y-28409709D01*
X30764817Y-28319903D01*
X30801274Y-28283446D01*
X30888294Y-28196426D01*
X30997765Y-28086955D01*
X31808770Y-27275950D01*
X31808770Y-27028993D01*
X31303631Y-26523854D01*
X31289488Y-26537995D01*
X31199686Y-26448193D01*
X31213828Y-26434051D01*
X31303631Y-26344248D01*
X31317773Y-26330106D01*
X31407575Y-26419908D01*
X31393434Y-26434051D01*
X31898573Y-26939190D01*
X32145530Y-26939190D01*
X33315746Y-25768975D01*
X33512237Y-25572483D01*
X33559896Y-25457424D01*
X33674955Y-25409765D01*
X33871446Y-25213274D01*
X33911643Y-25173076D01*
X34595280Y-25856713D01*
X34595283Y-25856717D01*
X34863094Y-26035662D01*
X34863095Y-26035663D01*
X35179000Y-26098500D01*
X35941000Y-26098500D01*
X46746461Y-26098500D01*
X46672500Y-26277059D01*
X46672500Y-26554940D01*
X46672500Y-27062940D01*
X46720159Y-27177999D01*
X46672500Y-27293059D01*
X46672500Y-27570940D01*
X46672500Y-29225875D01*
X46847125Y-29400500D01*
X47561500Y-29400500D01*
X47561500Y-29380500D01*
X47688500Y-29380500D01*
X47688500Y-29400500D01*
X47688500Y-29527500D01*
X47688500Y-30289500D01*
X47561500Y-30289500D01*
X47561500Y-29527500D01*
X46847125Y-29527500D01*
X46672500Y-29702125D01*
X46672500Y-30849059D01*
X46672500Y-31003875D01*
X46672500Y-31126940D01*
X46672500Y-31178498D01*
X46672500Y-31305502D01*
X46672500Y-31357060D01*
X46672500Y-31480125D01*
X46672500Y-31634941D01*
X46778840Y-31891669D01*
X46975332Y-32088160D01*
X47232060Y-32194500D01*
X47386875Y-32194500D01*
X47863125Y-32194500D01*
X48017940Y-32194500D01*
X49264060Y-32194500D01*
X49418875Y-32194500D01*
X49593500Y-32019875D01*
X49593500Y-31305500D01*
X49593500Y-31178500D01*
X49593500Y-30618941D01*
X49593500Y-30464125D01*
X49593500Y-30341060D01*
X49593500Y-29527500D01*
X49593500Y-29400500D01*
X49593500Y-29380500D01*
X49720500Y-29380500D01*
X49720500Y-29400500D01*
X49720500Y-29527500D01*
X49720500Y-30464125D01*
X49720500Y-30618940D01*
X49720500Y-31178500D01*
X49720500Y-31305500D01*
X49720500Y-32019875D01*
X49895125Y-32194500D01*
X50049940Y-32194500D01*
X51296060Y-32194500D01*
X51450875Y-32194500D01*
X51927125Y-32194500D01*
X52081940Y-32194500D01*
X52338668Y-32088160D01*
X52535160Y-31891669D01*
X52641500Y-31634941D01*
X52641500Y-31480125D01*
X52641500Y-31357060D01*
X52641500Y-31126940D01*
X52641500Y-31003875D01*
X52641500Y-30849059D01*
X52641500Y-29702125D01*
X52466875Y-29527500D01*
X51752500Y-29527500D01*
X51752500Y-30289500D01*
X51625500Y-30289500D01*
X51625500Y-29527500D01*
X51625500Y-29400500D01*
X51625500Y-29380500D01*
X51752500Y-29380500D01*
X51752500Y-29400500D01*
X52466875Y-29400500D01*
X52641500Y-29225875D01*
X52641500Y-27570940D01*
X52641500Y-27293059D01*
X52593841Y-27178000D01*
X52641500Y-27062941D01*
X52641500Y-26797000D01*
X62293500Y-26797000D01*
X62293500Y-27062940D01*
X62341159Y-27177999D01*
X62293500Y-27293059D01*
X62293500Y-27570940D01*
X62293500Y-29225875D01*
X62468125Y-29400500D01*
X63182500Y-29400500D01*
X63182500Y-29380500D01*
X63309500Y-29380500D01*
X63309500Y-29400500D01*
X63309500Y-29527500D01*
X63309500Y-30289500D01*
X63182500Y-30289500D01*
X63182500Y-29527500D01*
X62468125Y-29527500D01*
X62293500Y-29702125D01*
X62293500Y-30849059D01*
X62293500Y-31003875D01*
X62293500Y-31126940D01*
X62293500Y-31178498D01*
X62293500Y-31305502D01*
X62293500Y-31357060D01*
X62293500Y-31480125D01*
X62293500Y-31634941D01*
X62399840Y-31891669D01*
X62596332Y-32088160D01*
X62853060Y-32194500D01*
X63007875Y-32194500D01*
X63484125Y-32194500D01*
X63638940Y-32194500D01*
X64885060Y-32194500D01*
X65039875Y-32194500D01*
X65214500Y-32019875D01*
X65214500Y-31305500D01*
X65214500Y-31178500D01*
X65214500Y-30618941D01*
X65214500Y-30464125D01*
X65214500Y-30341060D01*
X65214500Y-29527500D01*
X65214500Y-29400500D01*
X65214500Y-29380500D01*
X65341500Y-29380500D01*
X65341500Y-29400500D01*
X65341500Y-29527500D01*
X65341500Y-30464125D01*
X65341500Y-30618940D01*
X65341500Y-31178500D01*
X65341500Y-31305500D01*
X65341500Y-32019875D01*
X65516125Y-32194500D01*
X65670940Y-32194500D01*
X66917060Y-32194500D01*
X67071875Y-32194500D01*
X67548125Y-32194500D01*
X67702940Y-32194500D01*
X67959668Y-32088160D01*
X68156160Y-31891669D01*
X68262500Y-31634941D01*
X68262500Y-31480125D01*
X68262500Y-31357060D01*
X68262500Y-31126940D01*
X68262500Y-31003875D01*
X68262500Y-30849059D01*
X68262500Y-29702125D01*
X68087875Y-29527500D01*
X67373500Y-29527500D01*
X67373500Y-30289500D01*
X67246500Y-30289500D01*
X67246500Y-29527500D01*
X67246500Y-29400500D01*
X67246500Y-29380500D01*
X67373500Y-29380500D01*
X67373500Y-29400500D01*
X68087875Y-29400500D01*
X68262500Y-29225875D01*
X68262500Y-27570940D01*
X68262500Y-27293059D01*
X68214841Y-27178000D01*
X68262500Y-27062941D01*
X68262500Y-26785060D01*
X68262500Y-26277060D01*
X68156160Y-26020332D01*
X67959669Y-25823840D01*
X67702941Y-25717500D01*
X67425060Y-25717500D01*
X67397934Y-25717500D01*
X69066714Y-24048720D01*
X70898642Y-24048720D01*
X71134729Y-24146510D01*
X71412610Y-24146510D01*
X73346310Y-24146510D01*
X73346310Y-24361650D01*
X73346310Y-26360630D01*
X73452650Y-26617358D01*
X73649141Y-26813850D01*
X73905869Y-26920190D01*
X74183750Y-26920190D01*
X74231500Y-26920190D01*
X74231500Y-28164218D01*
X74064766Y-28330951D01*
X73888354Y-28257699D01*
X73433641Y-28257302D01*
X73013388Y-28430946D01*
X72691577Y-28752197D01*
X72517199Y-29172146D01*
X72516802Y-29626859D01*
X72690446Y-30047112D01*
X73011697Y-30368923D01*
X73431646Y-30543301D01*
X73480658Y-30543343D01*
X73642946Y-30936112D01*
X73951874Y-31245579D01*
X73927900Y-31303459D01*
X73927900Y-31581340D01*
X73927900Y-33308540D01*
X74034240Y-33565268D01*
X74230731Y-33761760D01*
X74317284Y-33797611D01*
X74016205Y-34248210D01*
X73897297Y-34846000D01*
X74016205Y-35443790D01*
X74354825Y-35950572D01*
X74861607Y-36289192D01*
X75459397Y-36408100D01*
X75520603Y-36408100D01*
X76118393Y-36289192D01*
X76625175Y-35950572D01*
X76760000Y-35748791D01*
X76894825Y-35950572D01*
X77401607Y-36289192D01*
X77999397Y-36408100D01*
X78060603Y-36408100D01*
X78658393Y-36289192D01*
X79165175Y-35950572D01*
X79300000Y-35748791D01*
X79434825Y-35950572D01*
X79754985Y-36164495D01*
X79689620Y-36229861D01*
X79583280Y-36486589D01*
X79583280Y-36764470D01*
X79583280Y-37163250D01*
X79629361Y-37274500D01*
X79583280Y-37385750D01*
X79583280Y-37485955D01*
X79757905Y-37660580D01*
X79992602Y-37660580D01*
X80142839Y-37722810D01*
X80420720Y-37722810D01*
X81020160Y-37722810D01*
X81170396Y-37660580D01*
X81405095Y-37660580D01*
X81579720Y-37485955D01*
X81579720Y-37385750D01*
X81533639Y-37274500D01*
X81579720Y-37163251D01*
X81579720Y-36885370D01*
X81579720Y-36486590D01*
X81473380Y-36229862D01*
X81407000Y-36163481D01*
X81407000Y-36149805D01*
X81705175Y-35950572D01*
X81842644Y-35744833D01*
X82240335Y-36143633D01*
X82803117Y-36377663D01*
X83046500Y-36232188D01*
X83046500Y-34909500D01*
X83026500Y-34909500D01*
X83026500Y-34782500D01*
X83046500Y-34782500D01*
X83046500Y-34762500D01*
X83173500Y-34762500D01*
X83173500Y-34782500D01*
X84496021Y-34782500D01*
X84641659Y-34539117D01*
X84410048Y-33979950D01*
X84003371Y-33572139D01*
X84245175Y-33410572D01*
X84583795Y-32903790D01*
X84702703Y-32306000D01*
X84583795Y-31708210D01*
X84245175Y-31201428D01*
X83738393Y-30862808D01*
X83190080Y-30753741D01*
X83190080Y-30686123D01*
X83198970Y-30664661D01*
X83198970Y-30585346D01*
X84258118Y-29526198D01*
X84450829Y-29237786D01*
X84450830Y-29237785D01*
X84518500Y-28897580D01*
X84518500Y-23018518D01*
X84521380Y-23015639D01*
X84627720Y-22758911D01*
X84627720Y-22481030D01*
X84627720Y-22082250D01*
X84581638Y-21971000D01*
X84627720Y-21859750D01*
X84627720Y-21759545D01*
X84627720Y-21283295D01*
X84627720Y-21183090D01*
X84521380Y-20926362D01*
X84324889Y-20729870D01*
X84068161Y-20623530D01*
X83867625Y-20623530D01*
X83693000Y-20798155D01*
X83693000Y-21457920D01*
X84453095Y-21457920D01*
X84627720Y-21283295D01*
X84627720Y-21759545D01*
X84453095Y-21584920D01*
X84218397Y-21584920D01*
X84068161Y-21522690D01*
X83790280Y-21522690D01*
X83546000Y-21522690D01*
X83546000Y-21457920D01*
X83566000Y-21457920D01*
X83566000Y-20798155D01*
X83536790Y-20768945D01*
X83536790Y-20464270D01*
X83519115Y-20421600D01*
X83536790Y-20378931D01*
X83536790Y-20253325D01*
X83362165Y-20078700D01*
X83301608Y-20078700D01*
X83250808Y-20027899D01*
X83327008Y-19951700D01*
X83362165Y-19951700D01*
X83536790Y-19777075D01*
X83536790Y-19694223D01*
X86908317Y-23065751D01*
X86861974Y-23112095D01*
X86502763Y-23471305D01*
X86502762Y-23471306D01*
X85784343Y-24189726D01*
X85678003Y-24446454D01*
X85678002Y-24724335D01*
X85784343Y-24981063D01*
X85980834Y-25177554D01*
X86340044Y-25536765D01*
X86455103Y-25584424D01*
X86502763Y-25699483D01*
X86699254Y-25895975D01*
X87869470Y-27066190D01*
X88116427Y-27066190D01*
X88621566Y-26561051D01*
X88607424Y-26546909D01*
X88697226Y-26457106D01*
X89339986Y-27099866D01*
X89250184Y-27189669D01*
X88711369Y-26650854D01*
X88206230Y-27155993D01*
X88206230Y-27402950D01*
X89017235Y-28213955D01*
X89126706Y-28323426D01*
X89213726Y-28410446D01*
X89250183Y-28446903D01*
X89339989Y-28536709D01*
X89376445Y-28573166D01*
X89376446Y-28573166D01*
X89463466Y-28660186D01*
X89572937Y-28769657D01*
X89829665Y-28875998D01*
X90107546Y-28875997D01*
X90364274Y-28769657D01*
X90473744Y-28660186D01*
X90810504Y-28323426D01*
X90883235Y-28250695D01*
X90919975Y-28213956D01*
X90919975Y-28213955D01*
X91801113Y-27332816D01*
X91801115Y-27332816D01*
X91910585Y-27223345D01*
X91910585Y-26976388D01*
X91405446Y-26471249D01*
X91315643Y-26381446D01*
X90919975Y-25985778D01*
X90810504Y-25876307D01*
X90723484Y-25789286D01*
X90044265Y-25110067D01*
X90134067Y-25020265D01*
X91009777Y-25895975D01*
X91009778Y-25895975D01*
X91405446Y-26291643D01*
X91495249Y-26381445D01*
X91495249Y-26381446D01*
X92000388Y-26886585D01*
X92247345Y-26886585D01*
X92356816Y-26777115D01*
X92356816Y-26777113D01*
X93237955Y-25895975D01*
X93237956Y-25895975D01*
X93274695Y-25859235D01*
X93347426Y-25786504D01*
X93684186Y-25449744D01*
X93793657Y-25340274D01*
X93899997Y-25083546D01*
X93899998Y-24805665D01*
X93793657Y-24548937D01*
X93684186Y-24439466D01*
X93597166Y-24352446D01*
X93597166Y-24352445D01*
X93560709Y-24315989D01*
X93470903Y-24226183D01*
X93434446Y-24189726D01*
X93347426Y-24102706D01*
X93237955Y-23993235D01*
X92426950Y-23182230D01*
X92179993Y-23182230D01*
X91674854Y-23687369D01*
X92213669Y-24226184D01*
X92123866Y-24315986D01*
X91481106Y-23673226D01*
X91570908Y-23583424D01*
X91585051Y-23597566D01*
X92090190Y-23092427D01*
X92090190Y-22845470D01*
X90919975Y-21675254D01*
X90723483Y-21478763D01*
X90608424Y-21431103D01*
X90560765Y-21316045D01*
X90364274Y-21119554D01*
X90005064Y-20760343D01*
X89748336Y-20654003D01*
X89470455Y-20654002D01*
X89213727Y-20760343D01*
X89017235Y-20956834D01*
X88495306Y-21478763D01*
X88298815Y-21675254D01*
X88075751Y-21898317D01*
X88075750Y-21898317D01*
X84630533Y-18453100D01*
X87770666Y-18453100D01*
X101190054Y-31872488D01*
X101190054Y-33295015D01*
X100901465Y-33583604D01*
X100704974Y-33780095D01*
X100345763Y-34139305D01*
X100345762Y-34139306D01*
X99627343Y-34857726D01*
X99521003Y-35114454D01*
X99521002Y-35392335D01*
X99627343Y-35649063D01*
X99823834Y-35845554D01*
X100183044Y-36204765D01*
X100298103Y-36252424D01*
X100345763Y-36367483D01*
X100542254Y-36563975D01*
X101712470Y-37734190D01*
X101959427Y-37734190D01*
X102464566Y-37229051D01*
X102450423Y-37214909D01*
X102540226Y-37125106D01*
X103182986Y-37767866D01*
X103093184Y-37857669D01*
X102554369Y-37318854D01*
X102049230Y-37823993D01*
X102049230Y-38070950D01*
X102860235Y-38881955D01*
X102969706Y-38991426D01*
X103056726Y-39078446D01*
X103093183Y-39114903D01*
X103182989Y-39204709D01*
X103219445Y-39241166D01*
X103219446Y-39241166D01*
X103306466Y-39328186D01*
X103415937Y-39437657D01*
X103672665Y-39543998D01*
X103950546Y-39543997D01*
X104207274Y-39437657D01*
X104316744Y-39328186D01*
X104653504Y-38991426D01*
X104726235Y-38918695D01*
X104762975Y-38881956D01*
X104762975Y-38881955D01*
X105644113Y-38000816D01*
X105644115Y-38000816D01*
X105753585Y-37891345D01*
X105753585Y-37644388D01*
X105248446Y-37139249D01*
X105248445Y-37139249D01*
X105158643Y-37049446D01*
X104762975Y-36653778D01*
X104653504Y-36544307D01*
X104566484Y-36457286D01*
X103887265Y-35778067D01*
X103977067Y-35688265D01*
X104852777Y-36563975D01*
X104852778Y-36563975D01*
X105248446Y-36959643D01*
X105338249Y-37049445D01*
X105338249Y-37049446D01*
X105843388Y-37554585D01*
X106090345Y-37554585D01*
X106199816Y-37445115D01*
X106199816Y-37445113D01*
X107080955Y-36563975D01*
X107080956Y-36563975D01*
X107117695Y-36527235D01*
X107190426Y-36454504D01*
X107527186Y-36117744D01*
X107636657Y-36008274D01*
X107742997Y-35751546D01*
X107742998Y-35473665D01*
X107636657Y-35216937D01*
X107527186Y-35107466D01*
X107440166Y-35020446D01*
X107440166Y-35020445D01*
X107403709Y-34983989D01*
X107313903Y-34894183D01*
X107277446Y-34857726D01*
X107190426Y-34770706D01*
X107080955Y-34661235D01*
X106269950Y-33850230D01*
X106022993Y-33850230D01*
X105517854Y-34355369D01*
X106056669Y-34894184D01*
X105966866Y-34983986D01*
X105324106Y-34341226D01*
X105413909Y-34251423D01*
X105428051Y-34265566D01*
X105933190Y-33760427D01*
X105933190Y-33513470D01*
X104762975Y-32343254D01*
X104566483Y-32146763D01*
X104451424Y-32099103D01*
X104403765Y-31984045D01*
X104207274Y-31787554D01*
X103848064Y-31428343D01*
X103591336Y-31322003D01*
X103313455Y-31322002D01*
X103056727Y-31428343D01*
X102860235Y-31624834D01*
X102841054Y-31644015D01*
X102841054Y-31530554D01*
X102778217Y-31214649D01*
X102778217Y-31214648D01*
X102599271Y-30946837D01*
X88696317Y-17043883D01*
X88428506Y-16864937D01*
X88112600Y-16802100D01*
X83213317Y-16802100D01*
X82977231Y-16704310D01*
X82699350Y-16704310D01*
X80785970Y-16704310D01*
X80785970Y-16481550D01*
X80785970Y-14482570D01*
X80688180Y-14246483D01*
X80688180Y-14195056D01*
X97355622Y-14195056D01*
X104699280Y-21538713D01*
X104699283Y-21538717D01*
X104699284Y-21538717D01*
X104967095Y-21717663D01*
X105283000Y-21780501D01*
X105283000Y-21780500D01*
X105283005Y-21780500D01*
X112688066Y-21780500D01*
X113966317Y-23058751D01*
X113912974Y-23112095D01*
X113553763Y-23471305D01*
X113553762Y-23471306D01*
X112835343Y-24189726D01*
X112729003Y-24446454D01*
X112729002Y-24724335D01*
X112835343Y-24981063D01*
X113031834Y-25177554D01*
X113391044Y-25536765D01*
X113506103Y-25584424D01*
X113553763Y-25699483D01*
X113750254Y-25895975D01*
X114920470Y-27066190D01*
X115167427Y-27066190D01*
X115672566Y-26561051D01*
X115658423Y-26546909D01*
X115748226Y-26457106D01*
X116390986Y-27099866D01*
X116301184Y-27189669D01*
X115762369Y-26650854D01*
X115257230Y-27155993D01*
X115257230Y-27402950D01*
X116068235Y-28213955D01*
X116177706Y-28323426D01*
X116264726Y-28410446D01*
X116301183Y-28446903D01*
X116390989Y-28536709D01*
X116427445Y-28573166D01*
X116427446Y-28573166D01*
X116514466Y-28660186D01*
X116623937Y-28769657D01*
X116880665Y-28875998D01*
X117158546Y-28875997D01*
X117415274Y-28769657D01*
X117524744Y-28660186D01*
X117861504Y-28323426D01*
X117934235Y-28250695D01*
X117970975Y-28213956D01*
X117970975Y-28213955D01*
X118852113Y-27332816D01*
X118852115Y-27332816D01*
X118961585Y-27223345D01*
X118961585Y-26976388D01*
X118456446Y-26471249D01*
X118366643Y-26381446D01*
X117970975Y-25985778D01*
X117861504Y-25876307D01*
X117774484Y-25789286D01*
X117095265Y-25110067D01*
X117185067Y-25020265D01*
X118060777Y-25895975D01*
X118060778Y-25895975D01*
X118456446Y-26291643D01*
X118546249Y-26381445D01*
X118546249Y-26381446D01*
X119051388Y-26886585D01*
X119298345Y-26886585D01*
X119407816Y-26777115D01*
X119407816Y-26777113D01*
X120288955Y-25895975D01*
X120288956Y-25895975D01*
X120325695Y-25859235D01*
X120398426Y-25786504D01*
X120735186Y-25449744D01*
X120844657Y-25340274D01*
X120950997Y-25083546D01*
X120950998Y-24805665D01*
X120950998Y-39054442D01*
X112552355Y-44159500D01*
X84641659Y-44159500D01*
X84641659Y-35152883D01*
X84496021Y-34909500D01*
X83173500Y-34909500D01*
X83173500Y-36232188D01*
X83416883Y-36377663D01*
X83979665Y-36143633D01*
X84410048Y-35712050D01*
X84641659Y-35152883D01*
X84641659Y-44159500D01*
X81579720Y-44159500D01*
X81579720Y-38062410D01*
X81579720Y-37962205D01*
X81405095Y-37787580D01*
X80645000Y-37787580D01*
X80645000Y-38447345D01*
X80819625Y-38621970D01*
X81020161Y-38621970D01*
X81276889Y-38515630D01*
X81473380Y-38319138D01*
X81579720Y-38062410D01*
X81579720Y-44159500D01*
X80518000Y-44159500D01*
X80518000Y-38447345D01*
X80518000Y-37787580D01*
X79757905Y-37787580D01*
X79583280Y-37962205D01*
X79583280Y-38062410D01*
X79689620Y-38319138D01*
X79886111Y-38515630D01*
X80142839Y-38621970D01*
X80343375Y-38621970D01*
X80518000Y-38447345D01*
X80518000Y-44159500D01*
X66076500Y-44159500D01*
X66076500Y-42799000D01*
X66061157Y-42721865D01*
X66061157Y-42643220D01*
X65877478Y-41719810D01*
X65877479Y-41719806D01*
X65877478Y-41719805D01*
X65758250Y-41431963D01*
X65758249Y-41431962D01*
X65235179Y-40649130D01*
X65235178Y-40649129D01*
X65235178Y-40649128D01*
X65014872Y-40428823D01*
X65014871Y-40428822D01*
X64232040Y-39905752D01*
X64232039Y-39905751D01*
X64232037Y-39905750D01*
X64147730Y-39870829D01*
X63944195Y-39786522D01*
X63020780Y-39602843D01*
X62709220Y-39602843D01*
X61785810Y-39786521D01*
X61785806Y-39786521D01*
X61497963Y-39905750D01*
X60715130Y-40428820D01*
X60715128Y-40428822D01*
X60494822Y-40649129D01*
X59971752Y-41431959D01*
X59971751Y-41431961D01*
X59971750Y-41431962D01*
X59971750Y-41431963D01*
X59936829Y-41516269D01*
X59852522Y-41719805D01*
X59668843Y-42643220D01*
X59668843Y-42721865D01*
X59653500Y-42799000D01*
X59653500Y-44159500D01*
X59194997Y-44159500D01*
X59194997Y-28794261D01*
X58934530Y-28163883D01*
X58452654Y-27681165D01*
X57822731Y-27419598D01*
X57140661Y-27419003D01*
X56510283Y-27679470D01*
X56027565Y-28161346D01*
X55765998Y-28791269D01*
X55765403Y-29473339D01*
X56025870Y-30103717D01*
X56507746Y-30586435D01*
X57137669Y-30848002D01*
X57819739Y-30848597D01*
X58450117Y-30588130D01*
X58932835Y-30106254D01*
X59194402Y-29476331D01*
X59194997Y-28794261D01*
X59194997Y-44159500D01*
X13177644Y-44159500D01*
X5397797Y-39430572D01*
X5397797Y-14138461D01*
X5137330Y-13508083D01*
X4655454Y-13025365D01*
X4025531Y-12763798D01*
X3343461Y-12763203D01*
X2713083Y-13023670D01*
X2230365Y-13505546D01*
X1968798Y-14135469D01*
X1968203Y-14817539D01*
X2228670Y-15447917D01*
X2710546Y-15930635D01*
X3340469Y-16192202D01*
X4022539Y-16192797D01*
X4652917Y-15932330D01*
X5135635Y-15450454D01*
X5397202Y-14820531D01*
X5397797Y-14138461D01*
X5397797Y-39430572D01*
X798500Y-36634921D01*
X798500Y-36291097D01*
X1508796Y-36149811D01*
X1796639Y-36030583D01*
X1796639Y-36030582D01*
X1796642Y-36030579D01*
X2620670Y-35479981D01*
X2620674Y-35479980D01*
X2620674Y-35479979D01*
X2840979Y-35259674D01*
X2840980Y-35259673D01*
X2840980Y-35259671D01*
X3391579Y-34435642D01*
X3391582Y-34435639D01*
X3391583Y-34435639D01*
X3510811Y-34147796D01*
X3704157Y-33175780D01*
X3704157Y-32864220D01*
X3510811Y-31892204D01*
X3391583Y-31604361D01*
X3391579Y-31604357D01*
X2840980Y-30780328D01*
X2840980Y-30780327D01*
X2840979Y-30780326D01*
X2620674Y-30560021D01*
X2620674Y-30560020D01*
X2620670Y-30560018D01*
X1796642Y-30009420D01*
X1796639Y-30009417D01*
X1508796Y-29890189D01*
X798500Y-29748902D01*
X798500Y-8418500D01*
X3125298Y-8418500D01*
X4330307Y-11704888D01*
X4409360Y-11834468D01*
X4487031Y-11964781D01*
X4490387Y-11967283D01*
X4492569Y-11970859D01*
X4615167Y-12060303D01*
X4736820Y-12150993D01*
X4740880Y-12152020D01*
X4744262Y-12154488D01*
X4891712Y-12190197D01*
X5038855Y-12227440D01*
X5042999Y-12226835D01*
X5047068Y-12227821D01*
X5197009Y-12204377D01*
X5347154Y-12182483D01*
X26810154Y-4562483D01*
X26813749Y-4560340D01*
X26817888Y-4559693D01*
X26947447Y-4480651D01*
X27077781Y-4402969D01*
X27080284Y-4399611D01*
X27083858Y-4397431D01*
X27173296Y-4274842D01*
X27263993Y-4153180D01*
X27265020Y-4149121D01*
X27267488Y-4145739D01*
X27303214Y-3998218D01*
X27340439Y-3851145D01*
X27339835Y-3847003D01*
X27340821Y-3842933D01*
X27317372Y-3692959D01*
X27295483Y-3542846D01*
X27293339Y-3539250D01*
X27292693Y-3535113D01*
X26289268Y-798500D01*
X56646734Y-798500D01*
X56477176Y-1206841D01*
X56476625Y-1838388D01*
X56717798Y-2422072D01*
X57163979Y-2869032D01*
X57747241Y-3111224D01*
X58378788Y-3111775D01*
X58962472Y-2870602D01*
X59409432Y-2424421D01*
X59651624Y-1841159D01*
X59652175Y-1209612D01*
X59482307Y-798500D01*
X61902004Y-798500D01*
X61853536Y-846884D01*
X61671408Y-1285497D01*
X61670993Y-1760420D01*
X61852355Y-2199350D01*
X62187884Y-2535464D01*
X62626497Y-2717592D01*
X63101420Y-2718007D01*
X63540350Y-2536645D01*
X63876464Y-2201116D01*
X64058592Y-1762503D01*
X64059007Y-1287580D01*
X63877645Y-848650D01*
X63827582Y-798500D01*
X66146218Y-798500D01*
X65976509Y-1208181D01*
X65976491Y-1839728D01*
X66218157Y-2423208D01*
X66218208Y-2423285D01*
X66499041Y-2499156D01*
X67474197Y-1524000D01*
X67460055Y-1509858D01*
X67549858Y-1420055D01*
X67564000Y-1434197D01*
X67578142Y-1420055D01*
X67667944Y-1509857D01*
X67653803Y-1524000D01*
X68628959Y-2499156D01*
X68909792Y-2423285D01*
X69151491Y-1839819D01*
X69151509Y-1208272D01*
X68981789Y-798500D01*
X87884000Y-798500D01*
X97639804Y-798500D01*
X96638430Y-3546798D01*
X96638408Y-3546936D01*
X96638336Y-3547056D01*
X96614687Y-3700703D01*
X96590928Y-3854715D01*
X96590961Y-3854851D01*
X96590940Y-3854990D01*
X96627643Y-4004985D01*
X96664876Y-4157371D01*
X96664960Y-4157485D01*
X96664993Y-4157620D01*
X96756216Y-4282034D01*
X96849017Y-4408690D01*
X96849137Y-4408762D01*
X96849220Y-4408876D01*
X96982443Y-4489717D01*
X97115318Y-4570410D01*
X97115456Y-4570431D01*
X97115576Y-4570504D01*
X119886676Y-12858524D01*
X119886703Y-12858528D01*
X119886728Y-12858543D01*
X120044504Y-12882816D01*
X120194609Y-12905920D01*
X120194635Y-12905913D01*
X120194664Y-12905918D01*
X120350696Y-12867725D01*
X120497240Y-12831867D01*
X120497262Y-12831850D01*
X120497290Y-12831844D01*
X120630333Y-12734278D01*
X120748495Y-12647639D01*
X120748508Y-12647617D01*
X120748533Y-12647599D01*
X120834939Y-12505183D01*
X120910124Y-12381283D01*
X120910128Y-12381256D01*
X120910143Y-12381232D01*
X122352155Y-8418500D01*
X124931500Y-8418500D01*
X124931500Y-29748902D01*
X124221204Y-29890189D01*
X123933361Y-30009417D01*
X123933357Y-30009420D01*
X123507797Y-30293770D01*
X123507797Y-14392461D01*
X123247330Y-13762083D01*
X122765454Y-13279365D01*
X122135531Y-13017798D01*
X121453461Y-13017203D01*
X120823083Y-13277670D01*
X120340365Y-13759546D01*
X120078798Y-14389469D01*
X120078203Y-15071539D01*
X120338670Y-15701917D01*
X120820546Y-16184635D01*
X121450469Y-16446202D01*
X122132539Y-16446797D01*
X122762917Y-16186330D01*
X123245635Y-15704454D01*
X123507202Y-15074531D01*
X123507797Y-14392461D01*
X123507797Y-30293770D01*
X123109328Y-30560019D01*
X123109327Y-30560020D01*
X123109326Y-30560021D01*
X122889020Y-30780326D01*
X122889018Y-30780329D01*
X122338420Y-31604357D01*
X122338417Y-31604361D01*
X122219189Y-31892204D01*
X122025843Y-32864220D01*
X122025843Y-33175780D01*
X122219189Y-34147796D01*
X122338417Y-34435639D01*
X122338420Y-34435642D01*
X122889018Y-35259670D01*
X122889020Y-35259674D01*
X122889021Y-35259674D01*
X123109326Y-35479979D01*
X123109327Y-35479980D01*
X123109328Y-35479980D01*
X123933357Y-36030579D01*
X123933361Y-36030583D01*
X124221204Y-36149811D01*
X124931500Y-36291097D01*
X124931500Y-36634921D01*
M02*
