%FSLAX46Y46*%
G04 Gerber Fmt 4.6, Leading zero omitted, Abs format (unit mm)*
G04 Created by KiCad (PCBNEW (2014-10-27 BZR 5228)-product) date 1/30/2015 1:36:17 PM*
%MOMM*%
G01*
G04 APERTURE LIST*
%ADD10C,0.100000*%
%ADD11C,1.727200*%
%ADD12C,1.727200*%
%ADD13R,1.727200X1.727200*%
%ADD14O,1.727200X1.727200*%
%ADD15O,1.506220X3.014980*%
%ADD16O,1.981200X1.501140*%
%ADD17C,1.998980*%
%ADD18C,1.800000*%
%ADD19C,1.778000*%
%ADD20C,0.990600*%
G04 APERTURE END LIST*
D10*
D11*
X73531186Y-21770769D03*
D12*
X73309810Y-24301104D02*
X73309810Y-24301104D01*
X76061521Y-21992145D02*
X76061521Y-21992145D01*
X75840145Y-24522479D02*
X75840145Y-24522479D01*
X78591855Y-22213521D02*
X78591855Y-22213521D01*
X78370479Y-24743855D02*
X78370479Y-24743855D01*
X81122190Y-22434896D02*
X81122190Y-22434896D01*
X80900814Y-24965231D02*
X80900814Y-24965231D01*
D13*
X65722500Y-13843000D03*
D14*
X63182500Y-13843000D03*
X65722500Y-16383000D03*
X63182500Y-16383000D03*
X65722500Y-18923000D03*
X63182500Y-18923000D03*
D15*
X44767500Y-18923000D03*
X42227500Y-18923000D03*
D16*
X48917860Y-16106140D03*
X51920140Y-16106140D03*
X51920140Y-18605500D03*
X48917860Y-18605500D03*
X51920140Y-21104860D03*
X48917860Y-21104860D03*
X49149000Y-12405360D03*
X51689000Y-12405360D03*
D17*
X7429500Y-13525500D03*
X26606500Y-7366000D03*
X98742500Y-7493000D03*
X117665500Y-14414500D03*
D18*
X12700000Y-37084000D03*
X10160000Y-37084000D03*
D19*
X57937400Y-1879600D03*
X67437000Y-1879600D03*
X61137800Y-9982200D03*
X64338200Y-9982200D03*
X66344800Y-6883400D03*
D20*
X62738000Y-1879600D03*
X62738000Y-6883400D03*
M02*
