M48
INCH,TZ
T1C0.025
T2C0.032
T3C0.035
T4C0.036
T5C0.039
T6C0.039
T7C0.040
T8C0.050
T9C0.090
T10C0.170
%
G90
G05
T1
X3825Y-8725
X7525Y-5325
X7525Y-12325
X10925Y-8725
X18125Y-3125
X18125Y-3525
X18125Y-3925
X18575Y-10425
X21640Y-2760
X22220Y-2760
X23125Y-6125
X23250Y-7150
X23250Y-7550
X23800Y-5550
X24750Y-10450
X25875Y-8850
X28600Y-11000
X28975Y-12475
X30350Y-12000
X30700Y-12700
X31400Y-11300
X31400Y-11800
X31550Y-14550
X32050Y-14400
X32250Y-13925
X32850Y-10350
X33575Y-15250
X34175Y-14125
X36325Y-8775
X41775Y-4725
X41775Y-12975
X46975Y-8775
T2
X2925Y-5325
X10475Y-2900
X38875Y-2950
X46325Y-5675
T3
X4000Y-14600
X5000Y-14600
T4
X19259Y-6341
X19259Y-7325
X19259Y-8309
X19350Y-4884
X20350Y-4884
X20441Y-6341
X20441Y-7325
X20441Y-8309
T5
X24700Y-740
X24700Y-2710
T6
X16625Y-7450
X17625Y-7450
T7
X24875Y-5450
X24875Y-6450
X24875Y-7450
X25875Y-5450
X25875Y-6450
X25875Y-7450
X28862Y-9567
X28949Y-8571
X29858Y-9655
X29945Y-8658
X30855Y-9742
X30942Y-8745
X31851Y-9829
X31938Y-8833
T8
X22810Y-740
X24070Y-3930
X25330Y-3930
X26120Y-2710
X26550Y-740
T9
X1450Y-5700
X22630Y-11470
X47950Y-5800
T10
X12550Y-2750
X36850Y-2750
T0
M30
