M48
INCH,TZ
T1C0.025
T2C0.036
T3C0.039
T4C0.039
T5C0.039
T6C0.040
T7C0.045
T8C0.050
T9C0.080
T10C0.170
%
G90
G05
T1
X4800Y-11100
X7100Y-6300
X8500Y-14700
X10900Y-10700
X17075Y-4025
X17250Y-5875
X18600Y-5150
X18850Y-3675
X19550Y-12775
X21375Y-11850
X21450Y-6275
X22100Y-4875
X22850Y-4825
X22850Y-5800
X24100Y-6725
X24750Y-4800
X24750Y-9825
X25700Y-12775
X26625Y-4800
X26925Y-5200
X26925Y-7900
X29000Y-11575
X29375Y-11925
X29450Y-8925
X29685Y-7874
X30225Y-8150
X31100Y-11775
X31102Y-10709
X31450Y-11400
X31457Y-7874
X32225Y-11050
X36320Y-10740
X41775Y-14925
X41790Y-6680
X46980Y-10740
T2
X19409Y-6341
X19409Y-7325
X19409Y-8309
X19500Y-4884
X20500Y-4884
X20591Y-6341
X20591Y-7325
X20591Y-8309
T3
X24750Y-600
X24750Y-2570
T4
X14075Y-5525
X15075Y-5525
T5
X4400Y-5200
X9850Y-3400
X39200Y-3200
X45100Y-5500
T6
X23825Y-7675
X23825Y-8675
X24825Y-7675
X24825Y-8675
X25825Y-7675
X25825Y-8675
X29720Y-12719
X29720Y-13719
X30720Y-12719
X30720Y-13719
X31720Y-12719
X31720Y-13719
X32720Y-12719
X32720Y-13719
T7
X2800Y-6700
X2800Y-7700
T8
X22860Y-600
X24120Y-3790
X25380Y-3790
X26170Y-2570
X26600Y-600
T9
X1450Y-5700
X22630Y-11470
X47950Y-5800
T10
X12550Y-2750
X36850Y-2750
T0
M30
