%FSLAX46Y46*%
G04 Gerber Fmt 4.6, Leading zero omitted, Abs format (unit mm)*
G04 Created by KiCad (PCBNEW (2014-10-27 BZR 5228)-product) date 5/4/2015 9:12:31 PM*
%MOMM*%
G01*
G04 APERTURE LIST*
%ADD10C,0.100000*%
%ADD11O,1.506220X3.014980*%
%ADD12R,0.400000X0.450000*%
%ADD13R,1.143000X0.635000*%
%ADD14C,1.500000*%
%ADD15C,1.778000*%
%ADD16C,0.990600*%
%ADD17R,0.600000X0.500000*%
%ADD18R,0.500000X0.600000*%
%ADD19R,0.400000X0.600000*%
%ADD20R,0.600000X0.400000*%
%ADD21R,1.198880X0.548640*%
%ADD22C,3.048000*%
%ADD23R,1.727200X2.032000*%
%ADD24O,1.727200X2.032000*%
%ADD25C,1.727200*%
%ADD26O,1.727200X1.727200*%
%ADD27R,1.500000X1.500000*%
%ADD28C,1.100000*%
%ADD29C,1.700000*%
G04 APERTURE END LIST*
D10*
G36*
X65035094Y-14563025D02*
X64717193Y-14880926D01*
X63303700Y-13467433D01*
X63621601Y-13149532D01*
X65035094Y-14563025D01*
X65035094Y-14563025D01*
G37*
G36*
X64469338Y-15128781D02*
X64151437Y-15446682D01*
X62737944Y-14033189D01*
X63055845Y-13715288D01*
X64469338Y-15128781D01*
X64469338Y-15128781D01*
G37*
G36*
X63903582Y-15694537D02*
X63585681Y-16012438D01*
X62172188Y-14598945D01*
X62490089Y-14281044D01*
X63903582Y-15694537D01*
X63903582Y-15694537D01*
G37*
G36*
X63337826Y-16260294D02*
X63019925Y-16578195D01*
X61606432Y-15164702D01*
X61924333Y-14846801D01*
X63337826Y-16260294D01*
X63337826Y-16260294D01*
G37*
G36*
X62772070Y-16826050D02*
X62454169Y-17143951D01*
X61040676Y-15730458D01*
X61358577Y-15412557D01*
X62772070Y-16826050D01*
X62772070Y-16826050D01*
G37*
G36*
X62206313Y-17391806D02*
X61888412Y-17709707D01*
X60474919Y-16296214D01*
X60792820Y-15978313D01*
X62206313Y-17391806D01*
X62206313Y-17391806D01*
G37*
G36*
X61640557Y-17957562D02*
X61322656Y-18275463D01*
X59909163Y-16861970D01*
X60227064Y-16544069D01*
X61640557Y-17957562D01*
X61640557Y-17957562D01*
G37*
G36*
X61074801Y-18523318D02*
X60756900Y-18841219D01*
X59343407Y-17427726D01*
X59661308Y-17109825D01*
X61074801Y-18523318D01*
X61074801Y-18523318D01*
G37*
G36*
X54314464Y-11755797D02*
X53996563Y-12073698D01*
X52583070Y-10660205D01*
X52900971Y-10342304D01*
X54314464Y-11755797D01*
X54314464Y-11755797D01*
G37*
G36*
X58283738Y-7786524D02*
X57965837Y-8104425D01*
X56552344Y-6690932D01*
X56870245Y-6373031D01*
X58283738Y-7786524D01*
X58283738Y-7786524D01*
G37*
G36*
X57709001Y-8361260D02*
X57391100Y-8679161D01*
X55977607Y-7265668D01*
X56295508Y-6947767D01*
X57709001Y-8361260D01*
X57709001Y-8361260D01*
G37*
G36*
X57134265Y-8935997D02*
X56816364Y-9253898D01*
X55402871Y-7840405D01*
X55720772Y-7522504D01*
X57134265Y-8935997D01*
X57134265Y-8935997D01*
G37*
G36*
X56577489Y-9492773D02*
X56259588Y-9810674D01*
X54846095Y-8397181D01*
X55163996Y-8079280D01*
X56577489Y-9492773D01*
X56577489Y-9492773D01*
G37*
G36*
X56002753Y-10067509D02*
X55684852Y-10385410D01*
X54271359Y-8971917D01*
X54589260Y-8654016D01*
X56002753Y-10067509D01*
X56002753Y-10067509D01*
G37*
G36*
X55445977Y-10624285D02*
X55128076Y-10942186D01*
X53714583Y-9528693D01*
X54032484Y-9210792D01*
X55445977Y-10624285D01*
X55445977Y-10624285D01*
G37*
G36*
X54871240Y-11199021D02*
X54553339Y-11516922D01*
X53139846Y-10103429D01*
X53457747Y-9785528D01*
X54871240Y-11199021D01*
X54871240Y-11199021D01*
G37*
G36*
X58251409Y-17434910D02*
X56837916Y-18848403D01*
X56520015Y-18530502D01*
X57933508Y-17117009D01*
X58251409Y-17434910D01*
X58251409Y-17434910D01*
G37*
G36*
X57687449Y-16870950D02*
X56273956Y-18284443D01*
X55956055Y-17966542D01*
X57369548Y-16553049D01*
X57687449Y-16870950D01*
X57687449Y-16870950D01*
G37*
G36*
X57119896Y-16303398D02*
X55706403Y-17716891D01*
X55388502Y-17398990D01*
X56801995Y-15985497D01*
X57119896Y-16303398D01*
X57119896Y-16303398D01*
G37*
G36*
X56555936Y-15739438D02*
X55142443Y-17152931D01*
X54824542Y-16835030D01*
X56238035Y-15421537D01*
X56555936Y-15739438D01*
X56555936Y-15739438D01*
G37*
G36*
X55988384Y-15171886D02*
X54574891Y-16585379D01*
X54256990Y-16267478D01*
X55670483Y-14853985D01*
X55988384Y-15171886D01*
X55988384Y-15171886D01*
G37*
G36*
X55424424Y-14607926D02*
X54010931Y-16021419D01*
X53693030Y-15703518D01*
X55106523Y-14290025D01*
X55424424Y-14607926D01*
X55424424Y-14607926D01*
G37*
G36*
X54856872Y-14040373D02*
X53443379Y-15453866D01*
X53125478Y-15135965D01*
X54538971Y-13722472D01*
X54856872Y-14040373D01*
X54856872Y-14040373D01*
G37*
G36*
X54292912Y-13476413D02*
X52879419Y-14889906D01*
X52561518Y-14572005D01*
X53975011Y-13158512D01*
X54292912Y-13476413D01*
X54292912Y-13476413D01*
G37*
G36*
X65036890Y-10642245D02*
X63623397Y-12055738D01*
X63305496Y-11737837D01*
X64718989Y-10324344D01*
X65036890Y-10642245D01*
X65036890Y-10642245D01*
G37*
G36*
X64480114Y-10085469D02*
X63066621Y-11498962D01*
X62748720Y-11181061D01*
X64162213Y-9767568D01*
X64480114Y-10085469D01*
X64480114Y-10085469D01*
G37*
G36*
X63905378Y-9510732D02*
X62491885Y-10924225D01*
X62173984Y-10606324D01*
X63587477Y-9192831D01*
X63905378Y-9510732D01*
X63905378Y-9510732D01*
G37*
G36*
X63348602Y-8953956D02*
X61935109Y-10367449D01*
X61617208Y-10049548D01*
X63030701Y-8636055D01*
X63348602Y-8953956D01*
X63348602Y-8953956D01*
G37*
G36*
X62791826Y-8397181D02*
X61378333Y-9810674D01*
X61060432Y-9492773D01*
X62473925Y-8079280D01*
X62791826Y-8397181D01*
X62791826Y-8397181D01*
G37*
G36*
X62217090Y-7822444D02*
X60803597Y-9235937D01*
X60485696Y-8918036D01*
X61899189Y-7504543D01*
X62217090Y-7822444D01*
X62217090Y-7822444D01*
G37*
G36*
X61642353Y-7247708D02*
X60228860Y-8661201D01*
X59910959Y-8343300D01*
X61324452Y-6929807D01*
X61642353Y-7247708D01*
X61642353Y-7247708D01*
G37*
G36*
X61067617Y-6672971D02*
X59654124Y-8086464D01*
X59336223Y-7768563D01*
X60749716Y-6355070D01*
X61067617Y-6672971D01*
X61067617Y-6672971D01*
G37*
D11*
X17145000Y-9525000D03*
X19685000Y-9525000D03*
D12*
X22164000Y-19590000D03*
X24064000Y-19590000D03*
X23114000Y-17240000D03*
D13*
X13081000Y-6985000D03*
X13081000Y-8509000D03*
D14*
X40386000Y-16256000D03*
X42926000Y-16256000D03*
D15*
X11785600Y-3403600D03*
X2286000Y-3403600D03*
X8585200Y-11506200D03*
X5384800Y-11506200D03*
X3378200Y-8407400D03*
D16*
X6985000Y-3403600D03*
X6985000Y-8407400D03*
D10*
G36*
X54780264Y-6207182D02*
X55133818Y-6560736D01*
X54709554Y-6985000D01*
X54356000Y-6631446D01*
X54780264Y-6207182D01*
X54780264Y-6207182D01*
G37*
G36*
X54002446Y-6985000D02*
X54356000Y-7338554D01*
X53931736Y-7762818D01*
X53578182Y-7409264D01*
X54002446Y-6985000D01*
X54002446Y-6985000D01*
G37*
D17*
X17992000Y-15113000D03*
X19092000Y-15113000D03*
X23918000Y-11049000D03*
X22818000Y-11049000D03*
X10456000Y-14986000D03*
X9356000Y-14986000D03*
D10*
G36*
X64940264Y-16494182D02*
X65293818Y-16847736D01*
X64869554Y-17272000D01*
X64516000Y-16918446D01*
X64940264Y-16494182D01*
X64940264Y-16494182D01*
G37*
G36*
X64162446Y-17272000D02*
X64516000Y-17625554D01*
X64091736Y-18049818D01*
X63738182Y-17696264D01*
X64162446Y-17272000D01*
X64162446Y-17272000D01*
G37*
D18*
X29210000Y-9186000D03*
X29210000Y-8086000D03*
D10*
G36*
X58456751Y-5327487D02*
X58032487Y-5751751D01*
X57749645Y-5468909D01*
X58173909Y-5044645D01*
X58456751Y-5327487D01*
X58456751Y-5327487D01*
G37*
G36*
X57820355Y-4691091D02*
X57396091Y-5115355D01*
X57113249Y-4832513D01*
X57537513Y-4408249D01*
X57820355Y-4691091D01*
X57820355Y-4691091D01*
G37*
D19*
X12377000Y-19177000D03*
X13277000Y-19177000D03*
D20*
X25146000Y-8186000D03*
X25146000Y-9086000D03*
X27178000Y-9086000D03*
X27178000Y-8186000D03*
D19*
X16833000Y-19177000D03*
X15933000Y-19177000D03*
D21*
X21816060Y-13782040D03*
X21816060Y-14732000D03*
X21816060Y-15681960D03*
X24411940Y-15681960D03*
X24411940Y-13782040D03*
X15902940Y-16951960D03*
X15902940Y-16002000D03*
X15902940Y-15052040D03*
X13307060Y-15052040D03*
X13307060Y-16951960D03*
D22*
X6985000Y-16510000D03*
D23*
X40894000Y-3302000D03*
D24*
X43434000Y-3302000D03*
X45974000Y-3302000D03*
D19*
X43492000Y-5969000D03*
X44392000Y-5969000D03*
D25*
X74041000Y-5334000D03*
D26*
X76581000Y-5334000D03*
X74041000Y-7874000D03*
X76581000Y-7874000D03*
X74041000Y-10414000D03*
X76581000Y-10414000D03*
X74041000Y-12954000D03*
X76581000Y-12954000D03*
D27*
X47498000Y-12446000D03*
D14*
X44958000Y-12446000D03*
X42418000Y-12446000D03*
X39878000Y-12446000D03*
X37338000Y-12446000D03*
X34798000Y-12446000D03*
X32258000Y-12446000D03*
X29718000Y-12446000D03*
X29718000Y-20066000D03*
X32258000Y-20066000D03*
X34798000Y-20066000D03*
X37338000Y-20066000D03*
X39878000Y-20066000D03*
X42418000Y-20066000D03*
X44958000Y-20066000D03*
X47498000Y-20066000D03*
D28*
X21622000Y-1036000D03*
X23622000Y-1036000D03*
X25622000Y-1036000D03*
X21622000Y-3536000D03*
X23622000Y-3536000D03*
X25622000Y-3536000D03*
D29*
X18622000Y-2286000D03*
X28622000Y-2286000D03*
M02*
