%FSLAX46Y46*%
G04 Gerber Fmt 4.6, Leading zero omitted, Abs format (unit mm)*
G04 Created by KiCad (PCBNEW (2014-10-27 BZR 5228)-product) date 5/4/2015 9:12:31 PM*
%MOMM*%
G01*
G04 APERTURE LIST*
%ADD10C,0.100000*%
%ADD11C,0.300000*%
%ADD12C,0.150000*%
%ADD13O,1.506220X3.014980*%
%ADD14C,1.500000*%
%ADD15C,1.778000*%
%ADD16C,0.990600*%
%ADD17C,3.048000*%
%ADD18R,1.727200X2.032000*%
%ADD19O,1.727200X2.032000*%
%ADD20R,1.727200X1.727200*%
%ADD21O,1.727200X1.727200*%
%ADD22C,1.727200*%
%ADD23R,1.500000X1.500000*%
%ADD24C,1.100000*%
%ADD25C,1.700000*%
G04 APERTURE END LIST*
D10*
D11*
X37354928Y-14480571D02*
X37479928Y-15480571D01*
X37372786Y-14623429D02*
X37292429Y-14552000D01*
X37140642Y-14480571D01*
X36926357Y-14480571D01*
X36792429Y-14552000D01*
X36738857Y-14694857D01*
X36837071Y-15480571D01*
X35542429Y-15409143D02*
X35694214Y-15480571D01*
X35979928Y-15480571D01*
X36113857Y-15409143D01*
X36167429Y-15266286D01*
X36096000Y-14694857D01*
X36006714Y-14552000D01*
X35854928Y-14480571D01*
X35569214Y-14480571D01*
X35435286Y-14552000D01*
X35381714Y-14694857D01*
X35399571Y-14837714D01*
X36131714Y-14980571D01*
X34899572Y-15409143D02*
X34765643Y-15480571D01*
X34479928Y-15480571D01*
X34328143Y-15409143D01*
X34238858Y-15266286D01*
X34229929Y-15194857D01*
X34283500Y-15052000D01*
X34417428Y-14980571D01*
X34631714Y-14980571D01*
X34765643Y-14909143D01*
X34819215Y-14766286D01*
X34810286Y-14694857D01*
X34721000Y-14552000D01*
X34569214Y-14480571D01*
X34354928Y-14480571D01*
X34221000Y-14552000D01*
X32765642Y-15480571D02*
X33176357Y-14766286D01*
X33622785Y-15480571D02*
X33435285Y-13980571D01*
X32863857Y-13980571D01*
X32729928Y-14052000D01*
X32667429Y-14123429D01*
X32613857Y-14266286D01*
X32640642Y-14480571D01*
X32729929Y-14623429D01*
X32810285Y-14694857D01*
X32962072Y-14766286D01*
X33533500Y-14766286D01*
X31524571Y-14694857D02*
X32024571Y-14694857D01*
X32122785Y-15480571D02*
X31935285Y-13980571D01*
X31220999Y-13980571D01*
X27408500Y-15480571D02*
X27221000Y-13980571D01*
X26551357Y-15480571D01*
X26363857Y-13980571D01*
X25738857Y-14694857D02*
X25238857Y-14694857D01*
X25122785Y-15480571D02*
X25837071Y-15480571D01*
X25649571Y-13980571D01*
X24935285Y-13980571D01*
X24542429Y-15409143D02*
X24337071Y-15480571D01*
X23979928Y-15480571D01*
X23828143Y-15409143D01*
X23747785Y-15337714D01*
X23658500Y-15194857D01*
X23640643Y-15052000D01*
X23694214Y-14909143D01*
X23756714Y-14837714D01*
X23890643Y-14766286D01*
X24167428Y-14694857D01*
X24301358Y-14623429D01*
X24363857Y-14552000D01*
X24417429Y-14409143D01*
X24399572Y-14266286D01*
X24310286Y-14123429D01*
X24229929Y-14052000D01*
X24078142Y-13980571D01*
X23721000Y-13980571D01*
X23515643Y-14052000D01*
X21935286Y-13980571D02*
X21078143Y-13980571D01*
X21694214Y-15480571D02*
X21506714Y-13980571D01*
X20765643Y-15480571D02*
X20640643Y-14480571D01*
X20676358Y-14766286D02*
X20587073Y-14623429D01*
X20506715Y-14552000D01*
X20354929Y-14480571D01*
X20212072Y-14480571D01*
X19194215Y-15480571D02*
X19096001Y-14694857D01*
X19149573Y-14552000D01*
X19283501Y-14480571D01*
X19569215Y-14480571D01*
X19721001Y-14552000D01*
X19185287Y-15409143D02*
X19337072Y-15480571D01*
X19694215Y-15480571D01*
X19828144Y-15409143D01*
X19881716Y-15266286D01*
X19863859Y-15123429D01*
X19774572Y-14980571D01*
X19622787Y-14909143D01*
X19265644Y-14909143D01*
X19113858Y-14837714D01*
X18354929Y-14480571D02*
X18479929Y-15480571D01*
X18372787Y-14623429D02*
X18292430Y-14552000D01*
X18140643Y-14480571D01*
X17926358Y-14480571D01*
X17792430Y-14552000D01*
X17738858Y-14694857D01*
X17837072Y-15480571D01*
X17185287Y-15409143D02*
X17051358Y-15480571D01*
X16765643Y-15480571D01*
X16613858Y-15409143D01*
X16524573Y-15266286D01*
X16515644Y-15194857D01*
X16569215Y-15052000D01*
X16703143Y-14980571D01*
X16917429Y-14980571D01*
X17051358Y-14909143D01*
X17104930Y-14766286D01*
X17096001Y-14694857D01*
X17006715Y-14552000D01*
X16854929Y-14480571D01*
X16640643Y-14480571D01*
X16506715Y-14552000D01*
X15908500Y-15480571D02*
X15783500Y-14480571D01*
X15801358Y-14623429D02*
X15721001Y-14552000D01*
X15569214Y-14480571D01*
X15354929Y-14480571D01*
X15221001Y-14552000D01*
X15167429Y-14694857D01*
X15265643Y-15480571D01*
X15167429Y-14694857D02*
X15078143Y-14552000D01*
X14926357Y-14480571D01*
X14712072Y-14480571D01*
X14578143Y-14552000D01*
X14524572Y-14694857D01*
X14622786Y-15480571D01*
X13908500Y-15480571D02*
X13783500Y-14480571D01*
X13721000Y-13980571D02*
X13801358Y-14052000D01*
X13738858Y-14123429D01*
X13658501Y-14052000D01*
X13721000Y-13980571D01*
X13738858Y-14123429D01*
X13283500Y-14480571D02*
X12712071Y-14480571D01*
X13006714Y-13980571D02*
X13167429Y-15266286D01*
X13113858Y-15409143D01*
X12979928Y-15480571D01*
X12837071Y-15480571D01*
X12426357Y-14480571D02*
X11854928Y-14480571D01*
X12149571Y-13980571D02*
X12310286Y-15266286D01*
X12256715Y-15409143D01*
X12122785Y-15480571D01*
X11979928Y-15480571D01*
X10899572Y-15409143D02*
X11051357Y-15480571D01*
X11337071Y-15480571D01*
X11471000Y-15409143D01*
X11524572Y-15266286D01*
X11453143Y-14694857D01*
X11363857Y-14552000D01*
X11212071Y-14480571D01*
X10926357Y-14480571D01*
X10792429Y-14552000D01*
X10738857Y-14694857D01*
X10756714Y-14837714D01*
X11488857Y-14980571D01*
X10194214Y-15480571D02*
X10069214Y-14480571D01*
X10104929Y-14766286D02*
X10015644Y-14623429D01*
X9935286Y-14552000D01*
X9783500Y-14480571D01*
X9640643Y-14480571D01*
X36837071Y-17880571D02*
X36738857Y-17094857D01*
X36792429Y-16952000D01*
X36926357Y-16880571D01*
X37212071Y-16880571D01*
X37363857Y-16952000D01*
X36828143Y-17809143D02*
X36979928Y-17880571D01*
X37337071Y-17880571D01*
X37471000Y-17809143D01*
X37524572Y-17666286D01*
X37506715Y-17523429D01*
X37417428Y-17380571D01*
X37265643Y-17309143D01*
X36908500Y-17309143D01*
X36756714Y-17237714D01*
X36122785Y-17880571D02*
X35997785Y-16880571D01*
X36033500Y-17166286D02*
X35944215Y-17023429D01*
X35863857Y-16952000D01*
X35712071Y-16880571D01*
X35569214Y-16880571D01*
X34551357Y-17880571D02*
X34453143Y-17094857D01*
X34506715Y-16952000D01*
X34640643Y-16880571D01*
X34926357Y-16880571D01*
X35078143Y-16952000D01*
X34542429Y-17809143D02*
X34694214Y-17880571D01*
X35051357Y-17880571D01*
X35185286Y-17809143D01*
X35238858Y-17666286D01*
X35221001Y-17523429D01*
X35131714Y-17380571D01*
X34979929Y-17309143D01*
X34622786Y-17309143D01*
X34471000Y-17237714D01*
X33712071Y-16880571D02*
X33837071Y-17880571D01*
X33729929Y-17023429D02*
X33649572Y-16952000D01*
X33497785Y-16880571D01*
X33283500Y-16880571D01*
X33149572Y-16952000D01*
X33096000Y-17094857D01*
X33194214Y-17880571D01*
X32569214Y-16880571D02*
X31997785Y-16880571D01*
X32292428Y-16380571D02*
X32453143Y-17666286D01*
X32399572Y-17809143D01*
X32265642Y-17880571D01*
X32122785Y-17880571D01*
X31622785Y-17880571D02*
X31497785Y-16880571D01*
X31435285Y-16380571D02*
X31515643Y-16452000D01*
X31453143Y-16523429D01*
X31372786Y-16452000D01*
X31435285Y-16380571D01*
X31453143Y-16523429D01*
X30140642Y-16880571D02*
X30265642Y-17880571D01*
X30783499Y-16880571D02*
X30881714Y-17666286D01*
X30828143Y-17809143D01*
X30694213Y-17880571D01*
X30479928Y-17880571D01*
X30328143Y-17809143D01*
X30247785Y-17737714D01*
X29613857Y-17809143D02*
X29479928Y-17880571D01*
X29194213Y-17880571D01*
X29042428Y-17809143D01*
X28953143Y-17666286D01*
X28944214Y-17594857D01*
X28997785Y-17452000D01*
X29131713Y-17380571D01*
X29345999Y-17380571D01*
X29479928Y-17309143D01*
X29533500Y-17166286D01*
X29524571Y-17094857D01*
X29435285Y-16952000D01*
X29283499Y-16880571D01*
X29069213Y-16880571D01*
X28935285Y-16952000D01*
X28319213Y-17737714D02*
X28256714Y-17809143D01*
X28337070Y-17880571D01*
X28399571Y-17809143D01*
X28319213Y-17737714D01*
X28337070Y-17880571D01*
X26970999Y-17809143D02*
X27122784Y-17880571D01*
X27408498Y-17880571D01*
X27542428Y-17809143D01*
X27604927Y-17737714D01*
X27658499Y-17594857D01*
X27604928Y-17166286D01*
X27515642Y-17023429D01*
X27435285Y-16952000D01*
X27283498Y-16880571D01*
X26997784Y-16880571D01*
X26863856Y-16952000D01*
X26122784Y-17880571D02*
X26256714Y-17809143D01*
X26319213Y-17737714D01*
X26372785Y-17594857D01*
X26319214Y-17166286D01*
X26229928Y-17023429D01*
X26149571Y-16952000D01*
X25997784Y-16880571D01*
X25783499Y-16880571D01*
X25649571Y-16952000D01*
X25587071Y-17023429D01*
X25533499Y-17166286D01*
X25587070Y-17594857D01*
X25676356Y-17737714D01*
X25756714Y-17809143D01*
X25908499Y-17880571D01*
X26122784Y-17880571D01*
X24979927Y-17880571D02*
X24854927Y-16880571D01*
X24872785Y-17023429D02*
X24792428Y-16952000D01*
X24640641Y-16880571D01*
X24426356Y-16880571D01*
X24292428Y-16952000D01*
X24238856Y-17094857D01*
X24337070Y-17880571D01*
X24238856Y-17094857D02*
X24149570Y-16952000D01*
X23997784Y-16880571D01*
X23783499Y-16880571D01*
X23649570Y-16952000D01*
X23595999Y-17094857D01*
X23694213Y-17880571D01*
X20712071Y-17452000D02*
X19997785Y-17452000D01*
X20908499Y-17880571D02*
X20220999Y-16380571D01*
X19908499Y-17880571D01*
X19283499Y-16880571D02*
X19470999Y-18380571D01*
X19292428Y-16952000D02*
X19140642Y-16880571D01*
X18854928Y-16880571D01*
X18721000Y-16952000D01*
X18658500Y-17023429D01*
X18604928Y-17166286D01*
X18658499Y-17594857D01*
X18747785Y-17737714D01*
X18828143Y-17809143D01*
X18979928Y-17880571D01*
X19265642Y-17880571D01*
X19399571Y-17809143D01*
X18051356Y-17880571D02*
X17926356Y-16880571D01*
X17962071Y-17166286D02*
X17872786Y-17023429D01*
X17792428Y-16952000D01*
X17640642Y-16880571D01*
X17497785Y-16880571D01*
X17122785Y-17880571D02*
X16997785Y-16880571D01*
X16935285Y-16380571D02*
X17015643Y-16452000D01*
X16953143Y-16523429D01*
X16872786Y-16452000D01*
X16935285Y-16380571D01*
X16953143Y-16523429D01*
X16194213Y-17880571D02*
X16328143Y-17809143D01*
X16381714Y-17666286D01*
X16220999Y-16380571D01*
X14381715Y-16523429D02*
X14301357Y-16452000D01*
X14149571Y-16380571D01*
X13792428Y-16380571D01*
X13658500Y-16452000D01*
X13596000Y-16523429D01*
X13542429Y-16666286D01*
X13560286Y-16809143D01*
X13658500Y-17023429D01*
X14622785Y-17880571D01*
X13694214Y-17880571D01*
X12578143Y-16380571D02*
X12435286Y-16380571D01*
X12301358Y-16452000D01*
X12238858Y-16523429D01*
X12185286Y-16666286D01*
X12149572Y-16952000D01*
X12194215Y-17309143D01*
X12301357Y-17594857D01*
X12390643Y-17737714D01*
X12471001Y-17809143D01*
X12622786Y-17880571D01*
X12765643Y-17880571D01*
X12899572Y-17809143D01*
X12962072Y-17737714D01*
X13015643Y-17594857D01*
X13051358Y-17309143D01*
X13006715Y-16952000D01*
X12899572Y-16666286D01*
X12810287Y-16523429D01*
X12729929Y-16452000D01*
X12578143Y-16380571D01*
X10837072Y-17880571D02*
X11694215Y-17880571D01*
X11265643Y-17880571D02*
X11078143Y-16380571D01*
X11247786Y-16594857D01*
X11408501Y-16737714D01*
X11560287Y-16809143D01*
X9292429Y-16380571D02*
X10006715Y-16380571D01*
X10167430Y-17094857D01*
X10087073Y-17023429D01*
X9935287Y-16952000D01*
X9578144Y-16952000D01*
X9444216Y-17023429D01*
X9381715Y-17094857D01*
X9328144Y-17237714D01*
X9372787Y-17594857D01*
X9462072Y-17737714D01*
X9542430Y-17809143D01*
X9694215Y-17880571D01*
X10051358Y-17880571D01*
X10185287Y-17809143D01*
X10247787Y-17737714D01*
D12*
X69342000Y-4064000D02*
X69342000Y-6604000D01*
X69342000Y-6604000D02*
X71882000Y-6604000D01*
X71882000Y-4064000D02*
X71882000Y-11684000D01*
X71882000Y-11684000D02*
X66802000Y-11684000D01*
X66802000Y-11684000D02*
X66802000Y-6604000D01*
X71882000Y-4064000D02*
X69342000Y-4064000D01*
X66802000Y-4064000D02*
X69342000Y-4064000D01*
X66802000Y-6604000D02*
X66802000Y-4064000D01*
X40838381Y-14438334D02*
X40362190Y-14105000D01*
X40838381Y-13866905D02*
X39838381Y-13866905D01*
X39838381Y-14247858D01*
X39886000Y-14343096D01*
X39933619Y-14390715D01*
X40028857Y-14438334D01*
X40171714Y-14438334D01*
X40266952Y-14390715D01*
X40314571Y-14343096D01*
X40362190Y-14247858D01*
X40362190Y-13866905D01*
X39838381Y-14771667D02*
X40838381Y-15438334D01*
X39838381Y-15438334D02*
X40838381Y-14771667D01*
X42378381Y-13843095D02*
X42378381Y-14414524D01*
X43378381Y-14128809D02*
X42378381Y-14128809D01*
X42378381Y-14652619D02*
X43378381Y-15319286D01*
X42378381Y-15319286D02*
X43378381Y-14652619D01*
X71842190Y-13025381D02*
X71842190Y-12025381D01*
X71413619Y-12977762D02*
X71270762Y-13025381D01*
X71032666Y-13025381D01*
X70937428Y-12977762D01*
X70889809Y-12930143D01*
X70842190Y-12834905D01*
X70842190Y-12739667D01*
X70889809Y-12644429D01*
X70937428Y-12596810D01*
X71032666Y-12549190D01*
X71223143Y-12501571D01*
X71318381Y-12453952D01*
X71366000Y-12406333D01*
X71413619Y-12311095D01*
X71413619Y-12215857D01*
X71366000Y-12120619D01*
X71318381Y-12073000D01*
X71223143Y-12025381D01*
X70985047Y-12025381D01*
X70842190Y-12073000D01*
X70413619Y-13025381D02*
X70413619Y-12025381D01*
X70032666Y-12025381D01*
X69937428Y-12073000D01*
X69889809Y-12120619D01*
X69842190Y-12215857D01*
X69842190Y-12358714D01*
X69889809Y-12453952D01*
X69937428Y-12501571D01*
X70032666Y-12549190D01*
X70413619Y-12549190D01*
%LPC*%
D13*
X17145000Y-9525000D03*
X19685000Y-9525000D03*
D14*
X40386000Y-16256000D03*
X42926000Y-16256000D03*
D15*
X11785600Y-3403600D03*
X2286000Y-3403600D03*
X8585200Y-11506200D03*
X5384800Y-11506200D03*
X3378200Y-8407400D03*
D16*
X6985000Y-3403600D03*
X6985000Y-8407400D03*
D17*
X6985000Y-16510000D03*
D18*
X40894000Y-3302000D03*
D19*
X43434000Y-3302000D03*
X45974000Y-3302000D03*
D20*
X70612000Y-5334000D03*
D21*
X68072000Y-5334000D03*
X70612000Y-7874000D03*
X68072000Y-7874000D03*
X70612000Y-10414000D03*
X68072000Y-10414000D03*
D22*
X74041000Y-5334000D03*
D21*
X76581000Y-5334000D03*
X74041000Y-7874000D03*
X76581000Y-7874000D03*
X74041000Y-10414000D03*
X76581000Y-10414000D03*
X74041000Y-12954000D03*
X76581000Y-12954000D03*
D23*
X47498000Y-12446000D03*
D14*
X44958000Y-12446000D03*
X42418000Y-12446000D03*
X39878000Y-12446000D03*
X37338000Y-12446000D03*
X34798000Y-12446000D03*
X32258000Y-12446000D03*
X29718000Y-12446000D03*
X29718000Y-20066000D03*
X32258000Y-20066000D03*
X34798000Y-20066000D03*
X37338000Y-20066000D03*
X39878000Y-20066000D03*
X42418000Y-20066000D03*
X44958000Y-20066000D03*
X47498000Y-20066000D03*
D24*
X21622000Y-1036000D03*
X23622000Y-1036000D03*
X25622000Y-1036000D03*
X21622000Y-3536000D03*
X23622000Y-3536000D03*
X25622000Y-3536000D03*
D25*
X18622000Y-2286000D03*
X28622000Y-2286000D03*
M02*
