M48
;DRILL file {kicad (2014-10-27 BZR 5228)-product} date 4/17/2015 7:43:12 PM
;FORMAT={2:4/ absolute / inch / suppress leading zeros}
FMAT,2
INCH,TZ
T1C0.025
T2C0.031
T3C0.032
T4C0.035
T5C0.039
T6C0.039
T7C0.040
T8C0.050
T9C0.051
T10C0.120
%
G90
G05
M72
T1
X3900Y-7150
X6600Y-8050
X8000Y-5950
X8150Y-7700
X9150Y-3700
X10350Y-5050
X11100Y-3600
X18750Y-2350
X19350Y-7500
X20200Y-4150
X20850Y-3250
X22250Y-4300
X23050Y-4850
X23100Y-2400
X23500Y-6000
X25700Y-8200
X25800Y-6400
X26000Y-2200
X26050Y-5700
X26250Y-7000
X26400Y-3100
X27000Y-5150
X27450Y-2100
X27500Y-2900
X27600Y-6300
T2
X8513Y-408
X8513Y-1392
X9300Y-408
X9300Y-1392
X10087Y-408
X10087Y-1392
T3
X11700Y-4900
X11700Y-7900
X12700Y-4900
X12700Y-7900
X13700Y-4900
X13700Y-7900
X14700Y-4900
X14700Y-7900
X15700Y-4900
X15700Y-7900
X16700Y-4900
X16700Y-7900
X17700Y-4900
X17700Y-7900
X18700Y-4900
X18700Y-7900
T4
X15900Y-6400
X16900Y-6400
T5
X2750Y-1340
X2750Y-3310
T6
X6750Y-3750
X7750Y-3750
T7
X16100Y-1300
X17100Y-1300
X18100Y-1300
X29150Y-2100
X29150Y-3100
X29150Y-4100
X29150Y-5100
X30150Y-2100
X30150Y-3100
X30150Y-4100
X30150Y-5100
T8
X900Y-1340
X1330Y-3310
X2120Y-4530
X3380Y-4530
X4640Y-1340
T9
X7331Y-900
X11269Y-900
T10
X1750Y-6500
T0
M30
