%FSLAX46Y46*%
G04 Gerber Fmt 4.6, Leading zero omitted, Abs format (unit mm)*
G04 Created by KiCad (PCBNEW (2014-10-27 BZR 5228)-product) date 4/17/2015 7:43:11 PM*
%MOMM*%
G01*
G04 APERTURE LIST*
%ADD10C,0.100000*%
%ADD11C,1.100000*%
%ADD12C,1.700000*%
%ADD13C,1.727200*%
%ADD14O,1.727200X1.727200*%
%ADD15O,1.506220X3.014980*%
%ADD16C,1.500000*%
%ADD17C,1.778000*%
%ADD18C,0.990600*%
%ADD19R,1.727200X2.032000*%
%ADD20O,1.727200X2.032000*%
%ADD21R,1.524000X1.524000*%
%ADD22C,1.524000*%
%ADD23R,1.727200X1.727200*%
%ADD24C,0.889000*%
%ADD25C,0.381000*%
%ADD26C,0.254000*%
G04 APERTURE END LIST*
D10*
D11*
X21622000Y-1036000D03*
X23622000Y-1036000D03*
X25622000Y-1036000D03*
X21622000Y-3536000D03*
X23622000Y-3536000D03*
X25622000Y-3536000D03*
D12*
X18622000Y-2286000D03*
X28622000Y-2286000D03*
D13*
X74041000Y-5334000D03*
D14*
X76581000Y-5334000D03*
X74041000Y-7874000D03*
X76581000Y-7874000D03*
X74041000Y-10414000D03*
X76581000Y-10414000D03*
X74041000Y-12954000D03*
X76581000Y-12954000D03*
D15*
X17145000Y-9525000D03*
X19685000Y-9525000D03*
D16*
X40386000Y-16256000D03*
X42926000Y-16256000D03*
D17*
X11785600Y-3403600D03*
X2286000Y-3403600D03*
X8585200Y-11506200D03*
X5384800Y-11506200D03*
X3378200Y-8407400D03*
D18*
X6985000Y-3403600D03*
X6985000Y-8407400D03*
D19*
X40894000Y-3302000D03*
D20*
X43434000Y-3302000D03*
X45974000Y-3302000D03*
D21*
X47498000Y-12446000D03*
D22*
X44958000Y-12446000D03*
X42418000Y-12446000D03*
X39878000Y-12446000D03*
X37338000Y-12446000D03*
X34798000Y-12446000D03*
X32258000Y-12446000D03*
X29718000Y-12446000D03*
X29718000Y-20066000D03*
X32258000Y-20066000D03*
X34798000Y-20066000D03*
X37338000Y-20066000D03*
X39878000Y-20066000D03*
X42418000Y-20066000D03*
X44958000Y-20066000D03*
X47498000Y-20066000D03*
D23*
X70612000Y-5334000D03*
D14*
X68072000Y-5334000D03*
X70612000Y-7874000D03*
X68072000Y-7874000D03*
X70612000Y-10414000D03*
X68072000Y-10414000D03*
D24*
X49149000Y-19050000D03*
X20701000Y-19558000D03*
X47625000Y-5969000D03*
X56515000Y-10922000D03*
X9906000Y-18161000D03*
X68580000Y-13081000D03*
X26289000Y-12827000D03*
X28194000Y-9144000D03*
X20320000Y-15113000D03*
X59690000Y-15240000D03*
X23241000Y-9398000D03*
X66675000Y-17780000D03*
X65532000Y-16256000D03*
X58547000Y-12319000D03*
X58674000Y-6096000D03*
X66040000Y-5588000D03*
X51308000Y-10541000D03*
X52959000Y-8255000D03*
X69850000Y-7366000D03*
X67056000Y-7874000D03*
X69723000Y-5334000D03*
X16764000Y-20447000D03*
X65278000Y-20828000D03*
X66167000Y-14478000D03*
X70104000Y-16002000D03*
D25*
X48641000Y-18542000D02*
X49149000Y-19050000D01*
X56388000Y-18542000D02*
X48641000Y-18542000D01*
X48641000Y-18542000D02*
X45974000Y-18542000D01*
X45974000Y-18542000D02*
X30861000Y-18542000D01*
X30861000Y-18542000D02*
X29718000Y-19685000D01*
X29718000Y-20066000D02*
X29718000Y-19685000D01*
X29718000Y-20066000D02*
X21209000Y-20066000D01*
X21209000Y-20066000D02*
X20701000Y-19558000D01*
X59690000Y-15240000D02*
X56515000Y-12065000D01*
X56515000Y-12065000D02*
X56515000Y-10922000D01*
X14986000Y-15113000D02*
X12954000Y-15113000D01*
X20320000Y-15113000D02*
X14986000Y-15113000D01*
X12954000Y-15113000D02*
X9906000Y-18161000D01*
X68072000Y-10414000D02*
X68072000Y-12573000D01*
X68072000Y-12573000D02*
X68580000Y-13081000D01*
X28194000Y-10922000D02*
X26289000Y-12827000D01*
X28194000Y-9144000D02*
X28194000Y-10922000D01*
X68072000Y-10414000D02*
X65913000Y-12573000D01*
X20320000Y-12319000D02*
X20320000Y-15113000D01*
X19685000Y-9525000D02*
X19685000Y-11684000D01*
X19685000Y-11684000D02*
X20320000Y-12319000D01*
X56388000Y-18542000D02*
X59690000Y-15240000D01*
X59690000Y-15240000D02*
X62357000Y-12573000D01*
X64389000Y-12573000D02*
X62357000Y-12573000D01*
X64389000Y-12573000D02*
X65913000Y-12573000D01*
X66675000Y-17399000D02*
X66675000Y-17780000D01*
X65532000Y-16256000D02*
X66675000Y-17399000D01*
X11785600Y-3403600D02*
X13208000Y-4826000D01*
X13208000Y-4826000D02*
X24332000Y-4826000D01*
X24332000Y-4826000D02*
X25622000Y-3536000D01*
X27412000Y-4679000D02*
X26269000Y-3536000D01*
X30099000Y-8255000D02*
X31877000Y-10033000D01*
X31877000Y-10033000D02*
X37465000Y-10033000D01*
X37465000Y-10033000D02*
X39243000Y-8255000D01*
X39243000Y-8255000D02*
X39243000Y-2159000D01*
X68072000Y-5334000D02*
X64262000Y-1524000D01*
X28575000Y-5842000D02*
X27412000Y-4679000D01*
X39243000Y-2159000D02*
X39878000Y-1524000D01*
X39878000Y-1524000D02*
X64262000Y-1524000D01*
X30099000Y-7366000D02*
X28575000Y-5842000D01*
X30099000Y-7366000D02*
X30099000Y-8255000D01*
X26269000Y-3536000D02*
X25622000Y-3536000D01*
D26*
X58801000Y-6223000D02*
X58801000Y-7620000D01*
X58547000Y-12319000D02*
X58547000Y-9906000D01*
X58547000Y-9906000D02*
X58801000Y-9652000D01*
X58801000Y-9652000D02*
X58801000Y-7620000D01*
X58674000Y-6096000D02*
X58801000Y-6223000D01*
X68453000Y-9144000D02*
X68834000Y-9144000D01*
X66040000Y-5588000D02*
X66040000Y-8255000D01*
X66040000Y-8255000D02*
X66929000Y-9144000D01*
X66929000Y-9144000D02*
X68453000Y-9144000D01*
X68834000Y-9144000D02*
X70104000Y-10414000D01*
X70104000Y-10414000D02*
X70612000Y-10414000D01*
X52959000Y-8255000D02*
X52959000Y-8890000D01*
X52959000Y-8890000D02*
X51308000Y-10541000D01*
X70612000Y-7874000D02*
X70358000Y-7874000D01*
X70358000Y-7874000D02*
X69850000Y-7366000D01*
X76581000Y-7874000D02*
X75311000Y-6604000D01*
X75311000Y-6604000D02*
X71882000Y-6604000D01*
X71882000Y-6604000D02*
X70612000Y-7874000D01*
X74041000Y-7874000D02*
X72771000Y-9144000D01*
X69850000Y-9144000D02*
X68580000Y-7874000D01*
X72771000Y-9144000D02*
X69850000Y-9144000D01*
X68580000Y-7874000D02*
X68072000Y-7874000D01*
X67056000Y-7874000D02*
X68072000Y-7874000D01*
X69723000Y-5334000D02*
X70612000Y-5334000D01*
X70612000Y-5334000D02*
X72009000Y-3937000D01*
X75184000Y-3937000D02*
X76581000Y-5334000D01*
X72009000Y-3937000D02*
X75184000Y-3937000D01*
X17653000Y-21336000D02*
X17907000Y-21336000D01*
X16764000Y-20447000D02*
X17653000Y-21336000D01*
X64770000Y-21336000D02*
X65278000Y-20828000D01*
X17907000Y-21336000D02*
X64770000Y-21336000D01*
X66167000Y-14478000D02*
X68580000Y-14478000D01*
X68580000Y-14478000D02*
X70104000Y-16002000D01*
G36*
X78436000Y-14807474D02*
X78035968Y-15207506D01*
X78035968Y-13313027D01*
X78035968Y-12594973D01*
X77787821Y-12065510D01*
X77355947Y-11671312D01*
X77094828Y-11563159D01*
X77461065Y-11318448D01*
X77730860Y-10914671D01*
X77825600Y-10438383D01*
X77825600Y-10389617D01*
X77730860Y-9913329D01*
X77461065Y-9509552D01*
X77057288Y-9239757D01*
X76581000Y-9145017D01*
X76104712Y-9239757D01*
X75700935Y-9509552D01*
X75431140Y-9913329D01*
X75336400Y-10389617D01*
X75336400Y-10438383D01*
X75431140Y-10914671D01*
X75700935Y-11318448D01*
X76067171Y-11563159D01*
X75806053Y-11671312D01*
X75374179Y-12065510D01*
X75285600Y-12254506D01*
X75285600Y-10438383D01*
X75285600Y-10389617D01*
X75190860Y-9913329D01*
X74921065Y-9509552D01*
X74517288Y-9239757D01*
X74041000Y-9145017D01*
X73564712Y-9239757D01*
X73160935Y-9509552D01*
X72891140Y-9913329D01*
X72796400Y-10389617D01*
X72796400Y-10438383D01*
X72891140Y-10914671D01*
X73160935Y-11318448D01*
X73564712Y-11588243D01*
X74041000Y-11682983D01*
X74517288Y-11588243D01*
X74921065Y-11318448D01*
X75190860Y-10914671D01*
X75285600Y-10438383D01*
X75285600Y-12254506D01*
X75191323Y-12455661D01*
X75190860Y-12453329D01*
X74921065Y-12049552D01*
X74517288Y-11779757D01*
X74041000Y-11685017D01*
X73564712Y-11779757D01*
X73160935Y-12049552D01*
X72891140Y-12453329D01*
X72796400Y-12929617D01*
X72796400Y-12978383D01*
X72891140Y-13454671D01*
X73160935Y-13858448D01*
X73564712Y-14128243D01*
X74041000Y-14222983D01*
X74517288Y-14128243D01*
X74921065Y-13858448D01*
X75190860Y-13454671D01*
X75191323Y-13452338D01*
X75374179Y-13842490D01*
X75806053Y-14236688D01*
X76221974Y-14408958D01*
X76454000Y-14287817D01*
X76454000Y-13081000D01*
X76434000Y-13081000D01*
X76434000Y-12827000D01*
X76454000Y-12827000D01*
X76454000Y-12807000D01*
X76708000Y-12807000D01*
X76708000Y-12827000D01*
X77915469Y-12827000D01*
X78035968Y-12594973D01*
X78035968Y-13313027D01*
X77915469Y-13081000D01*
X76708000Y-13081000D01*
X76708000Y-14287817D01*
X76940026Y-14408958D01*
X77355947Y-14236688D01*
X77787821Y-13842490D01*
X78035968Y-13313027D01*
X78035968Y-15207506D01*
X71830474Y-21413000D01*
X70929643Y-21413000D01*
X70929643Y-15838518D01*
X70804233Y-15535002D01*
X70572219Y-15302583D01*
X70268923Y-15176643D01*
X69996826Y-15176406D01*
X68939210Y-14118790D01*
X68774403Y-14008669D01*
X68580000Y-13970000D01*
X67945000Y-13970000D01*
X67945000Y-11747817D01*
X67945000Y-10541000D01*
X66737531Y-10541000D01*
X66617032Y-10773027D01*
X66865179Y-11302490D01*
X67297053Y-11696688D01*
X67712974Y-11868958D01*
X67945000Y-11747817D01*
X67945000Y-13970000D01*
X66826302Y-13970000D01*
X66635219Y-13778583D01*
X66331923Y-13652643D01*
X66003518Y-13652357D01*
X65700002Y-13777767D01*
X65467583Y-14009781D01*
X65341643Y-14313077D01*
X65341357Y-14641482D01*
X65466767Y-14944998D01*
X65698781Y-15177417D01*
X66002077Y-15303357D01*
X66330482Y-15303643D01*
X66633998Y-15178233D01*
X66826566Y-14986000D01*
X68369579Y-14986000D01*
X69278592Y-15895013D01*
X69278357Y-16165482D01*
X69403767Y-16468998D01*
X69635781Y-16701417D01*
X69939077Y-16827357D01*
X70267482Y-16827643D01*
X70570998Y-16702233D01*
X70803417Y-16470219D01*
X70929357Y-16166923D01*
X70929643Y-15838518D01*
X70929643Y-21413000D01*
X67500643Y-21413000D01*
X67500643Y-17616518D01*
X67375233Y-17313002D01*
X67143219Y-17080583D01*
X67133741Y-17076647D01*
X67079112Y-16994888D01*
X67079108Y-16994885D01*
X66357485Y-16273261D01*
X66357643Y-16092518D01*
X66232233Y-15789002D01*
X66000219Y-15556583D01*
X65696923Y-15430643D01*
X65368518Y-15430357D01*
X65065002Y-15555767D01*
X64832583Y-15787781D01*
X64706643Y-16091077D01*
X64706357Y-16419482D01*
X64831767Y-16722998D01*
X65063781Y-16955417D01*
X65367077Y-17081357D01*
X65549292Y-17081515D01*
X65918068Y-17450291D01*
X65849643Y-17615077D01*
X65849357Y-17943482D01*
X65974767Y-18246998D01*
X66206781Y-18479417D01*
X66510077Y-18605357D01*
X66838482Y-18605643D01*
X67141998Y-18480233D01*
X67374417Y-18248219D01*
X67500357Y-17944923D01*
X67500643Y-17616518D01*
X67500643Y-21413000D01*
X65860432Y-21413000D01*
X65977417Y-21296219D01*
X66103357Y-20992923D01*
X66103643Y-20664518D01*
X65978233Y-20361002D01*
X65746219Y-20128583D01*
X65442923Y-20002643D01*
X65114518Y-20002357D01*
X64811002Y-20127767D01*
X64578583Y-20359781D01*
X64452643Y-20663077D01*
X64452499Y-20828000D01*
X59499643Y-20828000D01*
X59499643Y-5932518D01*
X59374233Y-5629002D01*
X59142219Y-5396583D01*
X58838923Y-5270643D01*
X58510518Y-5270357D01*
X58207002Y-5395767D01*
X57974583Y-5627781D01*
X57848643Y-5931077D01*
X57848357Y-6259482D01*
X57973767Y-6562998D01*
X58205781Y-6795417D01*
X58293000Y-6831633D01*
X58293000Y-7620000D01*
X58293000Y-9441580D01*
X58187790Y-9546790D01*
X58077669Y-9711597D01*
X58039000Y-9906000D01*
X58039000Y-11659697D01*
X57847583Y-11850781D01*
X57721643Y-12154077D01*
X57721357Y-12482482D01*
X57846767Y-12785998D01*
X58078781Y-13018417D01*
X58382077Y-13144357D01*
X58710482Y-13144643D01*
X59013998Y-13019233D01*
X59246417Y-12787219D01*
X59372357Y-12483923D01*
X59372643Y-12155518D01*
X59247233Y-11852002D01*
X59055000Y-11659433D01*
X59055000Y-10116420D01*
X59160210Y-10011210D01*
X59270331Y-9846404D01*
X59270331Y-9846403D01*
X59276746Y-9814150D01*
X59308999Y-9652000D01*
X59309000Y-9652000D01*
X59309000Y-7620000D01*
X59309000Y-6628523D01*
X59373417Y-6564219D01*
X59499357Y-6260923D01*
X59499643Y-5932518D01*
X59499643Y-20828000D01*
X53784643Y-20828000D01*
X53784643Y-8091518D01*
X53659233Y-7788002D01*
X53427219Y-7555583D01*
X53123923Y-7429643D01*
X52795518Y-7429357D01*
X52492002Y-7554767D01*
X52259583Y-7786781D01*
X52133643Y-8090077D01*
X52133357Y-8418482D01*
X52258767Y-8721998D01*
X52333608Y-8796970D01*
X51414987Y-9715592D01*
X51144518Y-9715357D01*
X50841002Y-9840767D01*
X50608583Y-10072781D01*
X50482643Y-10376077D01*
X50482357Y-10704482D01*
X50607767Y-11007998D01*
X50839781Y-11240417D01*
X51143077Y-11366357D01*
X51471482Y-11366643D01*
X51774998Y-11241233D01*
X52007417Y-11009219D01*
X52133357Y-10705923D01*
X52133593Y-10433826D01*
X53318210Y-9249210D01*
X53318211Y-9249210D01*
X53428331Y-9084403D01*
X53460968Y-8920323D01*
X53658417Y-8723219D01*
X53784357Y-8419923D01*
X53784643Y-8091518D01*
X53784643Y-20828000D01*
X48352527Y-20828000D01*
X48466423Y-20714303D01*
X48640801Y-20294354D01*
X48641198Y-19839641D01*
X48641000Y-19839161D01*
X48641000Y-13283785D01*
X48641000Y-13132214D01*
X48641000Y-11608214D01*
X48582996Y-11468180D01*
X48475819Y-11361004D01*
X48335785Y-11303000D01*
X48184214Y-11303000D01*
X46660214Y-11303000D01*
X46520180Y-11361004D01*
X46413004Y-11468181D01*
X46355000Y-11608215D01*
X46355000Y-11759786D01*
X46355000Y-13283786D01*
X46413004Y-13423820D01*
X46520181Y-13530996D01*
X46660215Y-13589000D01*
X46811786Y-13589000D01*
X48335786Y-13589000D01*
X48475820Y-13530996D01*
X48582996Y-13423819D01*
X48641000Y-13283785D01*
X48641000Y-19839161D01*
X48467554Y-19419388D01*
X48146303Y-19097577D01*
X47726354Y-18923199D01*
X47271641Y-18922802D01*
X46851388Y-19096446D01*
X46529577Y-19417697D01*
X46355199Y-19837646D01*
X46354802Y-20292359D01*
X46528446Y-20712612D01*
X46643633Y-20828000D01*
X45812527Y-20828000D01*
X45926423Y-20714303D01*
X46100801Y-20294354D01*
X46101198Y-19839641D01*
X46101198Y-12219641D01*
X45927554Y-11799388D01*
X45606303Y-11477577D01*
X45186354Y-11303199D01*
X44731641Y-11302802D01*
X44311388Y-11476446D01*
X43989577Y-11797697D01*
X43815199Y-12217646D01*
X43814802Y-12672359D01*
X43988446Y-13092612D01*
X44309697Y-13414423D01*
X44729646Y-13588801D01*
X45184359Y-13589198D01*
X45604612Y-13415554D01*
X45926423Y-13094303D01*
X46100801Y-12674354D01*
X46101198Y-12219641D01*
X46101198Y-19839641D01*
X45927554Y-19419388D01*
X45606303Y-19097577D01*
X45186354Y-18923199D01*
X44731641Y-18922802D01*
X44311388Y-19096446D01*
X44057196Y-19350195D01*
X44057196Y-16032017D01*
X43885375Y-15616177D01*
X43567497Y-15297744D01*
X43561198Y-15295128D01*
X43561198Y-12219641D01*
X43387554Y-11799388D01*
X43066303Y-11477577D01*
X42646354Y-11303199D01*
X42191641Y-11302802D01*
X41771388Y-11476446D01*
X41449577Y-11797697D01*
X41275199Y-12217646D01*
X41274802Y-12672359D01*
X41448446Y-13092612D01*
X41769697Y-13414423D01*
X42189646Y-13588801D01*
X42644359Y-13589198D01*
X43064612Y-13415554D01*
X43386423Y-13094303D01*
X43560801Y-12674354D01*
X43561198Y-12219641D01*
X43561198Y-15295128D01*
X43151957Y-15125196D01*
X42702017Y-15124804D01*
X42286177Y-15296625D01*
X41967744Y-15614503D01*
X41795196Y-16030043D01*
X41794804Y-16479983D01*
X41966625Y-16895823D01*
X42284503Y-17214256D01*
X42700043Y-17386804D01*
X43149983Y-17387196D01*
X43565823Y-17215375D01*
X43884256Y-16897497D01*
X44056804Y-16481957D01*
X44057196Y-16032017D01*
X44057196Y-19350195D01*
X43989577Y-19417697D01*
X43815199Y-19837646D01*
X43814802Y-20292359D01*
X43988446Y-20712612D01*
X44103633Y-20828000D01*
X43272527Y-20828000D01*
X43386423Y-20714303D01*
X43560801Y-20294354D01*
X43561198Y-19839641D01*
X43387554Y-19419388D01*
X43066303Y-19097577D01*
X42646354Y-18923199D01*
X42191641Y-18922802D01*
X41771388Y-19096446D01*
X41517196Y-19350195D01*
X41517196Y-16032017D01*
X41345375Y-15616177D01*
X41027497Y-15297744D01*
X41021198Y-15295128D01*
X41021198Y-12219641D01*
X40847554Y-11799388D01*
X40526303Y-11477577D01*
X40106354Y-11303199D01*
X39651641Y-11302802D01*
X39231388Y-11476446D01*
X38909577Y-11797697D01*
X38735199Y-12217646D01*
X38734802Y-12672359D01*
X38908446Y-13092612D01*
X39229697Y-13414423D01*
X39649646Y-13588801D01*
X40104359Y-13589198D01*
X40524612Y-13415554D01*
X40846423Y-13094303D01*
X41020801Y-12674354D01*
X41021198Y-12219641D01*
X41021198Y-15295128D01*
X40611957Y-15125196D01*
X40162017Y-15124804D01*
X39746177Y-15296625D01*
X39427744Y-15614503D01*
X39255196Y-16030043D01*
X39254804Y-16479983D01*
X39426625Y-16895823D01*
X39744503Y-17214256D01*
X40160043Y-17386804D01*
X40609983Y-17387196D01*
X41025823Y-17215375D01*
X41344256Y-16897497D01*
X41516804Y-16481957D01*
X41517196Y-16032017D01*
X41517196Y-19350195D01*
X41449577Y-19417697D01*
X41275199Y-19837646D01*
X41274802Y-20292359D01*
X41448446Y-20712612D01*
X41563633Y-20828000D01*
X40732527Y-20828000D01*
X40846423Y-20714303D01*
X41020801Y-20294354D01*
X41021198Y-19839641D01*
X40847554Y-19419388D01*
X40526303Y-19097577D01*
X40106354Y-18923199D01*
X39651641Y-18922802D01*
X39231388Y-19096446D01*
X38909577Y-19417697D01*
X38735199Y-19837646D01*
X38734802Y-20292359D01*
X38908446Y-20712612D01*
X39023633Y-20828000D01*
X38192527Y-20828000D01*
X38306423Y-20714303D01*
X38480801Y-20294354D01*
X38481198Y-19839641D01*
X38481198Y-12219641D01*
X38307554Y-11799388D01*
X37986303Y-11477577D01*
X37566354Y-11303199D01*
X37111641Y-11302802D01*
X36691388Y-11476446D01*
X36369577Y-11797697D01*
X36195199Y-12217646D01*
X36194802Y-12672359D01*
X36368446Y-13092612D01*
X36689697Y-13414423D01*
X37109646Y-13588801D01*
X37564359Y-13589198D01*
X37984612Y-13415554D01*
X38306423Y-13094303D01*
X38480801Y-12674354D01*
X38481198Y-12219641D01*
X38481198Y-19839641D01*
X38307554Y-19419388D01*
X37986303Y-19097577D01*
X37566354Y-18923199D01*
X37111641Y-18922802D01*
X36691388Y-19096446D01*
X36369577Y-19417697D01*
X36195199Y-19837646D01*
X36194802Y-20292359D01*
X36368446Y-20712612D01*
X36483633Y-20828000D01*
X35652527Y-20828000D01*
X35766423Y-20714303D01*
X35940801Y-20294354D01*
X35941198Y-19839641D01*
X35941198Y-12219641D01*
X35767554Y-11799388D01*
X35446303Y-11477577D01*
X35026354Y-11303199D01*
X34571641Y-11302802D01*
X34151388Y-11476446D01*
X33829577Y-11797697D01*
X33655199Y-12217646D01*
X33654802Y-12672359D01*
X33828446Y-13092612D01*
X34149697Y-13414423D01*
X34569646Y-13588801D01*
X35024359Y-13589198D01*
X35444612Y-13415554D01*
X35766423Y-13094303D01*
X35940801Y-12674354D01*
X35941198Y-12219641D01*
X35941198Y-19839641D01*
X35767554Y-19419388D01*
X35446303Y-19097577D01*
X35026354Y-18923199D01*
X34571641Y-18922802D01*
X34151388Y-19096446D01*
X33829577Y-19417697D01*
X33655199Y-19837646D01*
X33654802Y-20292359D01*
X33828446Y-20712612D01*
X33943633Y-20828000D01*
X33112527Y-20828000D01*
X33226423Y-20714303D01*
X33400801Y-20294354D01*
X33401198Y-19839641D01*
X33401198Y-12219641D01*
X33227554Y-11799388D01*
X32906303Y-11477577D01*
X32486354Y-11303199D01*
X32031641Y-11302802D01*
X31611388Y-11476446D01*
X31289577Y-11797697D01*
X31115199Y-12217646D01*
X31114802Y-12672359D01*
X31288446Y-13092612D01*
X31609697Y-13414423D01*
X32029646Y-13588801D01*
X32484359Y-13589198D01*
X32904612Y-13415554D01*
X33226423Y-13094303D01*
X33400801Y-12674354D01*
X33401198Y-12219641D01*
X33401198Y-19839641D01*
X33227554Y-19419388D01*
X32906303Y-19097577D01*
X32486354Y-18923199D01*
X32031641Y-18922802D01*
X31611388Y-19096446D01*
X31289577Y-19417697D01*
X31115199Y-19837646D01*
X31115029Y-20031660D01*
X31099362Y-19718632D01*
X30940397Y-19334857D01*
X30861198Y-19312140D01*
X30861198Y-12219641D01*
X30687554Y-11799388D01*
X30366303Y-11477577D01*
X29946354Y-11303199D01*
X29491641Y-11302802D01*
X29071388Y-11476446D01*
X28749577Y-11797697D01*
X28575199Y-12217646D01*
X28574802Y-12672359D01*
X28748446Y-13092612D01*
X29069697Y-13414423D01*
X29489646Y-13588801D01*
X29944359Y-13589198D01*
X30364612Y-13415554D01*
X30686423Y-13094303D01*
X30860801Y-12674354D01*
X30861198Y-12219641D01*
X30861198Y-19312140D01*
X30698213Y-19265392D01*
X30518608Y-19444997D01*
X30518608Y-19085787D01*
X30449143Y-18843603D01*
X29925698Y-18656856D01*
X29370632Y-18684638D01*
X28986857Y-18843603D01*
X28917392Y-19085787D01*
X29718000Y-19886395D01*
X30518608Y-19085787D01*
X30518608Y-19444997D01*
X29897605Y-20066000D01*
X29911747Y-20080142D01*
X29732142Y-20259747D01*
X29718000Y-20245605D01*
X29703857Y-20259747D01*
X29524252Y-20080142D01*
X29538395Y-20066000D01*
X28737787Y-19265392D01*
X28495603Y-19334857D01*
X28308856Y-19858302D01*
X28336638Y-20413368D01*
X28495603Y-20797143D01*
X28603183Y-20828000D01*
X21073110Y-20828000D01*
X21073110Y-10406380D01*
X21073110Y-9652000D01*
X21073110Y-9398000D01*
X21073110Y-8643620D01*
X20918846Y-8122081D01*
X20576740Y-7699276D01*
X20098875Y-7439573D01*
X20026674Y-7425217D01*
X19812000Y-7547838D01*
X19812000Y-9398000D01*
X21073110Y-9398000D01*
X21073110Y-9652000D01*
X19812000Y-9652000D01*
X19812000Y-11502162D01*
X20026674Y-11624783D01*
X20098875Y-11610427D01*
X20576740Y-11350724D01*
X20918846Y-10927919D01*
X21073110Y-10406380D01*
X21073110Y-20828000D01*
X19558000Y-20828000D01*
X19558000Y-11502162D01*
X19558000Y-9652000D01*
X19558000Y-9398000D01*
X19558000Y-7547838D01*
X19343326Y-7425217D01*
X19271125Y-7439573D01*
X18793260Y-7699276D01*
X18451154Y-8122081D01*
X18296890Y-8643620D01*
X18296890Y-9398000D01*
X19558000Y-9398000D01*
X19558000Y-9652000D01*
X18296890Y-9652000D01*
X18296890Y-10406380D01*
X18451154Y-10927919D01*
X18793260Y-11350724D01*
X19271125Y-11610427D01*
X19343326Y-11624783D01*
X19558000Y-11502162D01*
X19558000Y-20828000D01*
X18279110Y-20828000D01*
X18279110Y-10316378D01*
X18279110Y-8733622D01*
X18192781Y-8299617D01*
X17946937Y-7931685D01*
X17579005Y-7685841D01*
X17145000Y-7599512D01*
X16710995Y-7685841D01*
X16343063Y-7931685D01*
X16097219Y-8299617D01*
X16010890Y-8733622D01*
X16010890Y-10316378D01*
X16097219Y-10750383D01*
X16343063Y-11118315D01*
X16710995Y-11364159D01*
X17145000Y-11450488D01*
X17579005Y-11364159D01*
X17946937Y-11118315D01*
X18192781Y-10750383D01*
X18279110Y-10316378D01*
X18279110Y-20828000D01*
X17907000Y-20828000D01*
X17863420Y-20828000D01*
X17589407Y-20553987D01*
X17589643Y-20283518D01*
X17464233Y-19980002D01*
X17232219Y-19747583D01*
X16928923Y-19621643D01*
X16600518Y-19621357D01*
X16297002Y-19746767D01*
X16064583Y-19978781D01*
X15938643Y-20282077D01*
X15938357Y-20610482D01*
X16063767Y-20913998D01*
X16295781Y-21146417D01*
X16599077Y-21272357D01*
X16871173Y-21272593D01*
X17011580Y-21413000D01*
X9855420Y-21413000D01*
X9855420Y-11254690D01*
X9662482Y-10787742D01*
X9305537Y-10430174D01*
X8838927Y-10236421D01*
X8333690Y-10235980D01*
X7866742Y-10428918D01*
X7861452Y-10434198D01*
X7861452Y-8233858D01*
X7861452Y-3230058D01*
X7728324Y-2907864D01*
X7482032Y-2661142D01*
X7160072Y-2527452D01*
X6811458Y-2527148D01*
X6489264Y-2660276D01*
X6242542Y-2906568D01*
X6108852Y-3228528D01*
X6108548Y-3577142D01*
X6241676Y-3899336D01*
X6487968Y-4146058D01*
X6809928Y-4279748D01*
X7158542Y-4280052D01*
X7480736Y-4146924D01*
X7727458Y-3900632D01*
X7861148Y-3578672D01*
X7861452Y-3230058D01*
X7861452Y-8233858D01*
X7728324Y-7911664D01*
X7482032Y-7664942D01*
X7160072Y-7531252D01*
X6811458Y-7530948D01*
X6489264Y-7664076D01*
X6242542Y-7910368D01*
X6108852Y-8232328D01*
X6108548Y-8580942D01*
X6241676Y-8903136D01*
X6487968Y-9149858D01*
X6809928Y-9283548D01*
X7158542Y-9283852D01*
X7480736Y-9150724D01*
X7727458Y-8904432D01*
X7861148Y-8582472D01*
X7861452Y-8233858D01*
X7861452Y-10434198D01*
X7509174Y-10785863D01*
X7315421Y-11252473D01*
X7314980Y-11757710D01*
X7507918Y-12224658D01*
X7864863Y-12582226D01*
X8331473Y-12775979D01*
X8836710Y-12776420D01*
X9303658Y-12583482D01*
X9661226Y-12226537D01*
X9854979Y-11759927D01*
X9855420Y-11254690D01*
X9855420Y-21413000D01*
X6655020Y-21413000D01*
X6655020Y-11254690D01*
X6462082Y-10787742D01*
X6105137Y-10430174D01*
X5638527Y-10236421D01*
X5133290Y-10235980D01*
X4666342Y-10428918D01*
X4648420Y-10446808D01*
X4648420Y-8155890D01*
X4455482Y-7688942D01*
X4098537Y-7331374D01*
X3821516Y-7216345D01*
X3821516Y-3641635D01*
X3795723Y-3035900D01*
X3613539Y-2596067D01*
X3358196Y-2511009D01*
X3178591Y-2690614D01*
X3178591Y-2331404D01*
X3093533Y-2076061D01*
X2524035Y-1868084D01*
X1918300Y-1893877D01*
X1478467Y-2076061D01*
X1393409Y-2331404D01*
X2286000Y-3223995D01*
X3178591Y-2331404D01*
X3178591Y-2690614D01*
X2465605Y-3403600D01*
X3358196Y-4296191D01*
X3613539Y-4211133D01*
X3821516Y-3641635D01*
X3821516Y-7216345D01*
X3631927Y-7137621D01*
X3178591Y-7137225D01*
X3178591Y-4475796D01*
X2286000Y-3583205D01*
X2106395Y-3762810D01*
X2106395Y-3403600D01*
X1213804Y-2511009D01*
X958461Y-2596067D01*
X750484Y-3165565D01*
X776277Y-3771300D01*
X958461Y-4211133D01*
X1213804Y-4296191D01*
X2106395Y-3403600D01*
X2106395Y-3762810D01*
X1393409Y-4475796D01*
X1478467Y-4731139D01*
X2047965Y-4939116D01*
X2653700Y-4913323D01*
X3093533Y-4731139D01*
X3178591Y-4475796D01*
X3178591Y-7137225D01*
X3126690Y-7137180D01*
X2659742Y-7330118D01*
X2302174Y-7687063D01*
X2108421Y-8153673D01*
X2107980Y-8658910D01*
X2300918Y-9125858D01*
X2657863Y-9483426D01*
X3124473Y-9677179D01*
X3629710Y-9677620D01*
X4096658Y-9484682D01*
X4454226Y-9127737D01*
X4647979Y-8661127D01*
X4648420Y-8155890D01*
X4648420Y-10446808D01*
X4308774Y-10785863D01*
X4115021Y-11252473D01*
X4114580Y-11757710D01*
X4307518Y-12224658D01*
X4664463Y-12582226D01*
X5131073Y-12775979D01*
X5636310Y-12776420D01*
X6103258Y-12583482D01*
X6460826Y-12226537D01*
X6654579Y-11759927D01*
X6655020Y-11254690D01*
X6655020Y-21413000D01*
X6350330Y-21413000D01*
X6350330Y-16132735D01*
X6060922Y-15432314D01*
X5525505Y-14895961D01*
X4825590Y-14605332D01*
X4067735Y-14604670D01*
X3367314Y-14894078D01*
X2830961Y-15429495D01*
X2540332Y-16129410D01*
X2539670Y-16887265D01*
X2829078Y-17587686D01*
X3364495Y-18124039D01*
X4064410Y-18414668D01*
X4822265Y-18415330D01*
X5522686Y-18125922D01*
X6059039Y-17590505D01*
X6349668Y-16890590D01*
X6350330Y-16132735D01*
X6350330Y-21413000D01*
X6274526Y-21413000D01*
X431000Y-15569474D01*
X431000Y-177000D01*
X21262982Y-177000D01*
X21095320Y-246277D01*
X20833197Y-507943D01*
X20691162Y-850000D01*
X20690839Y-1220375D01*
X20832277Y-1562680D01*
X21093943Y-1824803D01*
X21436000Y-1966838D01*
X21806375Y-1967161D01*
X22148680Y-1825723D01*
X22410803Y-1564057D01*
X22552838Y-1222000D01*
X22553161Y-851625D01*
X22411723Y-509320D01*
X22150057Y-247197D01*
X21981004Y-177000D01*
X23262982Y-177000D01*
X23095320Y-246277D01*
X22833197Y-507943D01*
X22691162Y-850000D01*
X22690839Y-1220375D01*
X22832277Y-1562680D01*
X23093943Y-1824803D01*
X23436000Y-1966838D01*
X23806375Y-1967161D01*
X24148680Y-1825723D01*
X24410803Y-1564057D01*
X24552838Y-1222000D01*
X24553161Y-851625D01*
X24411723Y-509320D01*
X24150057Y-247197D01*
X23981004Y-177000D01*
X25262982Y-177000D01*
X25095320Y-246277D01*
X24833197Y-507943D01*
X24691162Y-850000D01*
X24690839Y-1220375D01*
X24832277Y-1562680D01*
X25093943Y-1824803D01*
X25436000Y-1966838D01*
X25806375Y-1967161D01*
X26148680Y-1825723D01*
X26410803Y-1564057D01*
X26552838Y-1222000D01*
X26553161Y-851625D01*
X26411723Y-509320D01*
X26150057Y-247197D01*
X25981004Y-177000D01*
X30176000Y-177000D01*
X30176000Y-6634776D01*
X29853213Y-6311989D01*
X29853213Y-2042213D01*
X29666200Y-1589605D01*
X29320216Y-1243017D01*
X28867935Y-1055214D01*
X28378213Y-1054787D01*
X27925605Y-1241800D01*
X27579017Y-1587784D01*
X27391214Y-2040065D01*
X27390787Y-2529787D01*
X27577800Y-2982395D01*
X27923784Y-3328983D01*
X28376065Y-3516786D01*
X28865787Y-3517213D01*
X29318395Y-3330200D01*
X29664983Y-2984216D01*
X29852786Y-2531935D01*
X29853213Y-2042213D01*
X29853213Y-6311989D01*
X28979112Y-5437888D01*
X28979108Y-5437885D01*
X27816112Y-4274888D01*
X27816108Y-4274885D01*
X26673112Y-3131888D01*
X26487704Y-3008003D01*
X26451417Y-3000785D01*
X26391257Y-2988818D01*
X26391256Y-2988818D01*
X26150057Y-2747197D01*
X25808000Y-2605162D01*
X25437625Y-2604839D01*
X25095320Y-2746277D01*
X24833197Y-3007943D01*
X24691162Y-3350000D01*
X24690892Y-3658883D01*
X24499624Y-3850151D01*
X24552838Y-3722000D01*
X24553161Y-3351625D01*
X24411723Y-3009320D01*
X24150057Y-2747197D01*
X23808000Y-2605162D01*
X23437625Y-2604839D01*
X23095320Y-2746277D01*
X22833197Y-3007943D01*
X22691162Y-3350000D01*
X22690839Y-3720375D01*
X22832277Y-4062680D01*
X23023762Y-4254500D01*
X22220027Y-4254500D01*
X22410803Y-4064057D01*
X22552838Y-3722000D01*
X22553161Y-3351625D01*
X22411723Y-3009320D01*
X22150057Y-2747197D01*
X21808000Y-2605162D01*
X21437625Y-2604839D01*
X21095320Y-2746277D01*
X20833197Y-3007943D01*
X20691162Y-3350000D01*
X20690839Y-3720375D01*
X20832277Y-4062680D01*
X21023762Y-4254500D01*
X19853213Y-4254500D01*
X19853213Y-2042213D01*
X19666200Y-1589605D01*
X19320216Y-1243017D01*
X18867935Y-1055214D01*
X18378213Y-1054787D01*
X17925605Y-1241800D01*
X17579017Y-1587784D01*
X17391214Y-2040065D01*
X17390787Y-2529787D01*
X17577800Y-2982395D01*
X17923784Y-3328983D01*
X18376065Y-3516786D01*
X18865787Y-3517213D01*
X19318395Y-3330200D01*
X19664983Y-2984216D01*
X19852786Y-2531935D01*
X19853213Y-2042213D01*
X19853213Y-4254500D01*
X13444723Y-4254500D01*
X12994401Y-3804177D01*
X13055379Y-3657327D01*
X13055820Y-3152090D01*
X12862882Y-2685142D01*
X12505937Y-2327574D01*
X12039327Y-2133821D01*
X11534090Y-2133380D01*
X11067142Y-2326318D01*
X10709574Y-2683263D01*
X10515821Y-3149873D01*
X10515380Y-3655110D01*
X10708318Y-4122058D01*
X11065263Y-4479626D01*
X11531873Y-4673379D01*
X12037110Y-4673820D01*
X12186054Y-4612277D01*
X12803885Y-5230108D01*
X12803888Y-5230112D01*
X12989296Y-5353997D01*
X12989297Y-5353997D01*
X13208000Y-5397500D01*
X24331994Y-5397500D01*
X24332000Y-5397501D01*
X24332000Y-5397500D01*
X24514417Y-5361214D01*
X24550703Y-5353997D01*
X24550704Y-5353997D01*
X24736112Y-5230112D01*
X25499330Y-4466893D01*
X25806375Y-4467161D01*
X26148680Y-4325723D01*
X26199634Y-4274857D01*
X27007885Y-5083108D01*
X27007888Y-5083112D01*
X28170885Y-6246108D01*
X28170888Y-6246112D01*
X29527500Y-7602723D01*
X29527500Y-8254994D01*
X29527499Y-8255000D01*
X29563785Y-8437417D01*
X29571003Y-8473704D01*
X29694888Y-8659112D01*
X31472885Y-10437108D01*
X31472888Y-10437112D01*
X31472889Y-10437112D01*
X31596774Y-10519889D01*
X31658296Y-10560997D01*
X31658297Y-10560998D01*
X31877000Y-10604501D01*
X31877000Y-10604500D01*
X31877005Y-10604500D01*
X37464994Y-10604500D01*
X37465000Y-10604501D01*
X37465000Y-10604500D01*
X37647417Y-10568214D01*
X37683703Y-10560997D01*
X37683704Y-10560997D01*
X37869112Y-10437112D01*
X39647108Y-8659114D01*
X39647112Y-8659112D01*
X39647112Y-8659111D01*
X39729889Y-8535226D01*
X39770997Y-8473704D01*
X39770998Y-8473703D01*
X39814500Y-8255000D01*
X39814501Y-8255000D01*
X39814500Y-8254994D01*
X39814500Y-4640915D01*
X39814581Y-4640996D01*
X39954615Y-4699000D01*
X40106186Y-4699000D01*
X41833386Y-4699000D01*
X41973420Y-4640996D01*
X42080596Y-4533819D01*
X42138600Y-4393785D01*
X42138600Y-4242214D01*
X42138600Y-2210214D01*
X42091083Y-2095500D01*
X42773436Y-2095500D01*
X42553935Y-2242166D01*
X42284140Y-2645943D01*
X42189400Y-3122231D01*
X42189400Y-3481769D01*
X42284140Y-3958057D01*
X42553935Y-4361834D01*
X42957712Y-4631629D01*
X43434000Y-4726369D01*
X43910288Y-4631629D01*
X44314065Y-4361834D01*
X44583860Y-3958057D01*
X44678600Y-3481769D01*
X44678600Y-3122231D01*
X44583860Y-2645943D01*
X44314065Y-2242166D01*
X44094563Y-2095500D01*
X45313436Y-2095500D01*
X45093935Y-2242166D01*
X44824140Y-2645943D01*
X44729400Y-3122231D01*
X44729400Y-3481769D01*
X44824140Y-3958057D01*
X45093935Y-4361834D01*
X45497712Y-4631629D01*
X45974000Y-4726369D01*
X46450288Y-4631629D01*
X46854065Y-4361834D01*
X47123860Y-3958057D01*
X47218600Y-3481769D01*
X47218600Y-3122231D01*
X47123860Y-2645943D01*
X46854065Y-2242166D01*
X46634563Y-2095500D01*
X64025276Y-2095500D01*
X66895754Y-4965977D01*
X66827400Y-5309617D01*
X66827400Y-5331962D01*
X66740233Y-5121002D01*
X66508219Y-4888583D01*
X66204923Y-4762643D01*
X65876518Y-4762357D01*
X65573002Y-4887767D01*
X65340583Y-5119781D01*
X65214643Y-5423077D01*
X65214357Y-5751482D01*
X65339767Y-6054998D01*
X65532000Y-6247566D01*
X65532000Y-8255000D01*
X65570669Y-8449403D01*
X65680790Y-8614210D01*
X66569790Y-9503210D01*
X66734597Y-9613331D01*
X66816393Y-9629601D01*
X66617032Y-10054973D01*
X66737531Y-10287000D01*
X67945000Y-10287000D01*
X67945000Y-10267000D01*
X68199000Y-10267000D01*
X68199000Y-10287000D01*
X68219000Y-10287000D01*
X68219000Y-10541000D01*
X68199000Y-10541000D01*
X68199000Y-11747817D01*
X68431026Y-11868958D01*
X68846947Y-11696688D01*
X69278821Y-11302490D01*
X69461676Y-10912338D01*
X69462140Y-10914671D01*
X69731935Y-11318448D01*
X70135712Y-11588243D01*
X70612000Y-11682983D01*
X71088288Y-11588243D01*
X71492065Y-11318448D01*
X71761860Y-10914671D01*
X71856600Y-10438383D01*
X71856600Y-10389617D01*
X71761860Y-9913329D01*
X71587245Y-9652000D01*
X72771000Y-9652000D01*
X72965403Y-9613331D01*
X73130210Y-9503210D01*
X73581781Y-9051638D01*
X74041000Y-9142983D01*
X74517288Y-9048243D01*
X74921065Y-8778448D01*
X75190860Y-8374671D01*
X75285600Y-7898383D01*
X75285600Y-7849617D01*
X75190860Y-7373329D01*
X75016245Y-7112000D01*
X75100580Y-7112000D01*
X75419653Y-7431073D01*
X75336400Y-7849617D01*
X75336400Y-7898383D01*
X75431140Y-8374671D01*
X75700935Y-8778448D01*
X76104712Y-9048243D01*
X76581000Y-9142983D01*
X77057288Y-9048243D01*
X77461065Y-8778448D01*
X77730860Y-8374671D01*
X77825600Y-7898383D01*
X77825600Y-7849617D01*
X77730860Y-7373329D01*
X77461065Y-6969552D01*
X77057288Y-6699757D01*
X76581000Y-6605017D01*
X76121781Y-6696361D01*
X75670210Y-6244790D01*
X75505403Y-6134669D01*
X75311000Y-6096000D01*
X75039337Y-6096000D01*
X75095505Y-6039930D01*
X75285383Y-5582652D01*
X75285815Y-5087520D01*
X75096736Y-4629912D01*
X74912146Y-4445000D01*
X74973580Y-4445000D01*
X75419653Y-4891073D01*
X75336400Y-5309617D01*
X75336400Y-5358383D01*
X75431140Y-5834671D01*
X75700935Y-6238448D01*
X76104712Y-6508243D01*
X76581000Y-6602983D01*
X77057288Y-6508243D01*
X77461065Y-6238448D01*
X77730860Y-5834671D01*
X77825600Y-5358383D01*
X77825600Y-5309617D01*
X77730860Y-4833329D01*
X77461065Y-4429552D01*
X77057288Y-4159757D01*
X76581000Y-4065017D01*
X76121781Y-4156361D01*
X75543210Y-3577790D01*
X75378403Y-3467669D01*
X75184000Y-3429000D01*
X72009000Y-3429000D01*
X71846849Y-3461253D01*
X71814596Y-3467669D01*
X71649790Y-3577790D01*
X71138180Y-4089400D01*
X69672614Y-4089400D01*
X69532580Y-4147404D01*
X69425404Y-4254581D01*
X69367400Y-4394615D01*
X69367400Y-4546186D01*
X69367400Y-4587738D01*
X69256002Y-4633767D01*
X69155531Y-4734061D01*
X68952065Y-4429552D01*
X68548288Y-4159757D01*
X68072000Y-4065017D01*
X67687685Y-4141462D01*
X64993223Y-1447000D01*
X78436000Y-1447000D01*
X78436000Y-14807474D01*
X78436000Y-14807474D01*
G37*
X78436000Y-14807474D02*
X78035968Y-15207506D01*
X78035968Y-13313027D01*
X78035968Y-12594973D01*
X77787821Y-12065510D01*
X77355947Y-11671312D01*
X77094828Y-11563159D01*
X77461065Y-11318448D01*
X77730860Y-10914671D01*
X77825600Y-10438383D01*
X77825600Y-10389617D01*
X77730860Y-9913329D01*
X77461065Y-9509552D01*
X77057288Y-9239757D01*
X76581000Y-9145017D01*
X76104712Y-9239757D01*
X75700935Y-9509552D01*
X75431140Y-9913329D01*
X75336400Y-10389617D01*
X75336400Y-10438383D01*
X75431140Y-10914671D01*
X75700935Y-11318448D01*
X76067171Y-11563159D01*
X75806053Y-11671312D01*
X75374179Y-12065510D01*
X75285600Y-12254506D01*
X75285600Y-10438383D01*
X75285600Y-10389617D01*
X75190860Y-9913329D01*
X74921065Y-9509552D01*
X74517288Y-9239757D01*
X74041000Y-9145017D01*
X73564712Y-9239757D01*
X73160935Y-9509552D01*
X72891140Y-9913329D01*
X72796400Y-10389617D01*
X72796400Y-10438383D01*
X72891140Y-10914671D01*
X73160935Y-11318448D01*
X73564712Y-11588243D01*
X74041000Y-11682983D01*
X74517288Y-11588243D01*
X74921065Y-11318448D01*
X75190860Y-10914671D01*
X75285600Y-10438383D01*
X75285600Y-12254506D01*
X75191323Y-12455661D01*
X75190860Y-12453329D01*
X74921065Y-12049552D01*
X74517288Y-11779757D01*
X74041000Y-11685017D01*
X73564712Y-11779757D01*
X73160935Y-12049552D01*
X72891140Y-12453329D01*
X72796400Y-12929617D01*
X72796400Y-12978383D01*
X72891140Y-13454671D01*
X73160935Y-13858448D01*
X73564712Y-14128243D01*
X74041000Y-14222983D01*
X74517288Y-14128243D01*
X74921065Y-13858448D01*
X75190860Y-13454671D01*
X75191323Y-13452338D01*
X75374179Y-13842490D01*
X75806053Y-14236688D01*
X76221974Y-14408958D01*
X76454000Y-14287817D01*
X76454000Y-13081000D01*
X76434000Y-13081000D01*
X76434000Y-12827000D01*
X76454000Y-12827000D01*
X76454000Y-12807000D01*
X76708000Y-12807000D01*
X76708000Y-12827000D01*
X77915469Y-12827000D01*
X78035968Y-12594973D01*
X78035968Y-13313027D01*
X77915469Y-13081000D01*
X76708000Y-13081000D01*
X76708000Y-14287817D01*
X76940026Y-14408958D01*
X77355947Y-14236688D01*
X77787821Y-13842490D01*
X78035968Y-13313027D01*
X78035968Y-15207506D01*
X71830474Y-21413000D01*
X70929643Y-21413000D01*
X70929643Y-15838518D01*
X70804233Y-15535002D01*
X70572219Y-15302583D01*
X70268923Y-15176643D01*
X69996826Y-15176406D01*
X68939210Y-14118790D01*
X68774403Y-14008669D01*
X68580000Y-13970000D01*
X67945000Y-13970000D01*
X67945000Y-11747817D01*
X67945000Y-10541000D01*
X66737531Y-10541000D01*
X66617032Y-10773027D01*
X66865179Y-11302490D01*
X67297053Y-11696688D01*
X67712974Y-11868958D01*
X67945000Y-11747817D01*
X67945000Y-13970000D01*
X66826302Y-13970000D01*
X66635219Y-13778583D01*
X66331923Y-13652643D01*
X66003518Y-13652357D01*
X65700002Y-13777767D01*
X65467583Y-14009781D01*
X65341643Y-14313077D01*
X65341357Y-14641482D01*
X65466767Y-14944998D01*
X65698781Y-15177417D01*
X66002077Y-15303357D01*
X66330482Y-15303643D01*
X66633998Y-15178233D01*
X66826566Y-14986000D01*
X68369579Y-14986000D01*
X69278592Y-15895013D01*
X69278357Y-16165482D01*
X69403767Y-16468998D01*
X69635781Y-16701417D01*
X69939077Y-16827357D01*
X70267482Y-16827643D01*
X70570998Y-16702233D01*
X70803417Y-16470219D01*
X70929357Y-16166923D01*
X70929643Y-15838518D01*
X70929643Y-21413000D01*
X67500643Y-21413000D01*
X67500643Y-17616518D01*
X67375233Y-17313002D01*
X67143219Y-17080583D01*
X67133741Y-17076647D01*
X67079112Y-16994888D01*
X67079108Y-16994885D01*
X66357485Y-16273261D01*
X66357643Y-16092518D01*
X66232233Y-15789002D01*
X66000219Y-15556583D01*
X65696923Y-15430643D01*
X65368518Y-15430357D01*
X65065002Y-15555767D01*
X64832583Y-15787781D01*
X64706643Y-16091077D01*
X64706357Y-16419482D01*
X64831767Y-16722998D01*
X65063781Y-16955417D01*
X65367077Y-17081357D01*
X65549292Y-17081515D01*
X65918068Y-17450291D01*
X65849643Y-17615077D01*
X65849357Y-17943482D01*
X65974767Y-18246998D01*
X66206781Y-18479417D01*
X66510077Y-18605357D01*
X66838482Y-18605643D01*
X67141998Y-18480233D01*
X67374417Y-18248219D01*
X67500357Y-17944923D01*
X67500643Y-17616518D01*
X67500643Y-21413000D01*
X65860432Y-21413000D01*
X65977417Y-21296219D01*
X66103357Y-20992923D01*
X66103643Y-20664518D01*
X65978233Y-20361002D01*
X65746219Y-20128583D01*
X65442923Y-20002643D01*
X65114518Y-20002357D01*
X64811002Y-20127767D01*
X64578583Y-20359781D01*
X64452643Y-20663077D01*
X64452499Y-20828000D01*
X59499643Y-20828000D01*
X59499643Y-5932518D01*
X59374233Y-5629002D01*
X59142219Y-5396583D01*
X58838923Y-5270643D01*
X58510518Y-5270357D01*
X58207002Y-5395767D01*
X57974583Y-5627781D01*
X57848643Y-5931077D01*
X57848357Y-6259482D01*
X57973767Y-6562998D01*
X58205781Y-6795417D01*
X58293000Y-6831633D01*
X58293000Y-7620000D01*
X58293000Y-9441580D01*
X58187790Y-9546790D01*
X58077669Y-9711597D01*
X58039000Y-9906000D01*
X58039000Y-11659697D01*
X57847583Y-11850781D01*
X57721643Y-12154077D01*
X57721357Y-12482482D01*
X57846767Y-12785998D01*
X58078781Y-13018417D01*
X58382077Y-13144357D01*
X58710482Y-13144643D01*
X59013998Y-13019233D01*
X59246417Y-12787219D01*
X59372357Y-12483923D01*
X59372643Y-12155518D01*
X59247233Y-11852002D01*
X59055000Y-11659433D01*
X59055000Y-10116420D01*
X59160210Y-10011210D01*
X59270331Y-9846404D01*
X59270331Y-9846403D01*
X59276746Y-9814150D01*
X59308999Y-9652000D01*
X59309000Y-9652000D01*
X59309000Y-7620000D01*
X59309000Y-6628523D01*
X59373417Y-6564219D01*
X59499357Y-6260923D01*
X59499643Y-5932518D01*
X59499643Y-20828000D01*
X53784643Y-20828000D01*
X53784643Y-8091518D01*
X53659233Y-7788002D01*
X53427219Y-7555583D01*
X53123923Y-7429643D01*
X52795518Y-7429357D01*
X52492002Y-7554767D01*
X52259583Y-7786781D01*
X52133643Y-8090077D01*
X52133357Y-8418482D01*
X52258767Y-8721998D01*
X52333608Y-8796970D01*
X51414987Y-9715592D01*
X51144518Y-9715357D01*
X50841002Y-9840767D01*
X50608583Y-10072781D01*
X50482643Y-10376077D01*
X50482357Y-10704482D01*
X50607767Y-11007998D01*
X50839781Y-11240417D01*
X51143077Y-11366357D01*
X51471482Y-11366643D01*
X51774998Y-11241233D01*
X52007417Y-11009219D01*
X52133357Y-10705923D01*
X52133593Y-10433826D01*
X53318210Y-9249210D01*
X53318211Y-9249210D01*
X53428331Y-9084403D01*
X53460968Y-8920323D01*
X53658417Y-8723219D01*
X53784357Y-8419923D01*
X53784643Y-8091518D01*
X53784643Y-20828000D01*
X48352527Y-20828000D01*
X48466423Y-20714303D01*
X48640801Y-20294354D01*
X48641198Y-19839641D01*
X48641000Y-19839161D01*
X48641000Y-13283785D01*
X48641000Y-13132214D01*
X48641000Y-11608214D01*
X48582996Y-11468180D01*
X48475819Y-11361004D01*
X48335785Y-11303000D01*
X48184214Y-11303000D01*
X46660214Y-11303000D01*
X46520180Y-11361004D01*
X46413004Y-11468181D01*
X46355000Y-11608215D01*
X46355000Y-11759786D01*
X46355000Y-13283786D01*
X46413004Y-13423820D01*
X46520181Y-13530996D01*
X46660215Y-13589000D01*
X46811786Y-13589000D01*
X48335786Y-13589000D01*
X48475820Y-13530996D01*
X48582996Y-13423819D01*
X48641000Y-13283785D01*
X48641000Y-19839161D01*
X48467554Y-19419388D01*
X48146303Y-19097577D01*
X47726354Y-18923199D01*
X47271641Y-18922802D01*
X46851388Y-19096446D01*
X46529577Y-19417697D01*
X46355199Y-19837646D01*
X46354802Y-20292359D01*
X46528446Y-20712612D01*
X46643633Y-20828000D01*
X45812527Y-20828000D01*
X45926423Y-20714303D01*
X46100801Y-20294354D01*
X46101198Y-19839641D01*
X46101198Y-12219641D01*
X45927554Y-11799388D01*
X45606303Y-11477577D01*
X45186354Y-11303199D01*
X44731641Y-11302802D01*
X44311388Y-11476446D01*
X43989577Y-11797697D01*
X43815199Y-12217646D01*
X43814802Y-12672359D01*
X43988446Y-13092612D01*
X44309697Y-13414423D01*
X44729646Y-13588801D01*
X45184359Y-13589198D01*
X45604612Y-13415554D01*
X45926423Y-13094303D01*
X46100801Y-12674354D01*
X46101198Y-12219641D01*
X46101198Y-19839641D01*
X45927554Y-19419388D01*
X45606303Y-19097577D01*
X45186354Y-18923199D01*
X44731641Y-18922802D01*
X44311388Y-19096446D01*
X44057196Y-19350195D01*
X44057196Y-16032017D01*
X43885375Y-15616177D01*
X43567497Y-15297744D01*
X43561198Y-15295128D01*
X43561198Y-12219641D01*
X43387554Y-11799388D01*
X43066303Y-11477577D01*
X42646354Y-11303199D01*
X42191641Y-11302802D01*
X41771388Y-11476446D01*
X41449577Y-11797697D01*
X41275199Y-12217646D01*
X41274802Y-12672359D01*
X41448446Y-13092612D01*
X41769697Y-13414423D01*
X42189646Y-13588801D01*
X42644359Y-13589198D01*
X43064612Y-13415554D01*
X43386423Y-13094303D01*
X43560801Y-12674354D01*
X43561198Y-12219641D01*
X43561198Y-15295128D01*
X43151957Y-15125196D01*
X42702017Y-15124804D01*
X42286177Y-15296625D01*
X41967744Y-15614503D01*
X41795196Y-16030043D01*
X41794804Y-16479983D01*
X41966625Y-16895823D01*
X42284503Y-17214256D01*
X42700043Y-17386804D01*
X43149983Y-17387196D01*
X43565823Y-17215375D01*
X43884256Y-16897497D01*
X44056804Y-16481957D01*
X44057196Y-16032017D01*
X44057196Y-19350195D01*
X43989577Y-19417697D01*
X43815199Y-19837646D01*
X43814802Y-20292359D01*
X43988446Y-20712612D01*
X44103633Y-20828000D01*
X43272527Y-20828000D01*
X43386423Y-20714303D01*
X43560801Y-20294354D01*
X43561198Y-19839641D01*
X43387554Y-19419388D01*
X43066303Y-19097577D01*
X42646354Y-18923199D01*
X42191641Y-18922802D01*
X41771388Y-19096446D01*
X41517196Y-19350195D01*
X41517196Y-16032017D01*
X41345375Y-15616177D01*
X41027497Y-15297744D01*
X41021198Y-15295128D01*
X41021198Y-12219641D01*
X40847554Y-11799388D01*
X40526303Y-11477577D01*
X40106354Y-11303199D01*
X39651641Y-11302802D01*
X39231388Y-11476446D01*
X38909577Y-11797697D01*
X38735199Y-12217646D01*
X38734802Y-12672359D01*
X38908446Y-13092612D01*
X39229697Y-13414423D01*
X39649646Y-13588801D01*
X40104359Y-13589198D01*
X40524612Y-13415554D01*
X40846423Y-13094303D01*
X41020801Y-12674354D01*
X41021198Y-12219641D01*
X41021198Y-15295128D01*
X40611957Y-15125196D01*
X40162017Y-15124804D01*
X39746177Y-15296625D01*
X39427744Y-15614503D01*
X39255196Y-16030043D01*
X39254804Y-16479983D01*
X39426625Y-16895823D01*
X39744503Y-17214256D01*
X40160043Y-17386804D01*
X40609983Y-17387196D01*
X41025823Y-17215375D01*
X41344256Y-16897497D01*
X41516804Y-16481957D01*
X41517196Y-16032017D01*
X41517196Y-19350195D01*
X41449577Y-19417697D01*
X41275199Y-19837646D01*
X41274802Y-20292359D01*
X41448446Y-20712612D01*
X41563633Y-20828000D01*
X40732527Y-20828000D01*
X40846423Y-20714303D01*
X41020801Y-20294354D01*
X41021198Y-19839641D01*
X40847554Y-19419388D01*
X40526303Y-19097577D01*
X40106354Y-18923199D01*
X39651641Y-18922802D01*
X39231388Y-19096446D01*
X38909577Y-19417697D01*
X38735199Y-19837646D01*
X38734802Y-20292359D01*
X38908446Y-20712612D01*
X39023633Y-20828000D01*
X38192527Y-20828000D01*
X38306423Y-20714303D01*
X38480801Y-20294354D01*
X38481198Y-19839641D01*
X38481198Y-12219641D01*
X38307554Y-11799388D01*
X37986303Y-11477577D01*
X37566354Y-11303199D01*
X37111641Y-11302802D01*
X36691388Y-11476446D01*
X36369577Y-11797697D01*
X36195199Y-12217646D01*
X36194802Y-12672359D01*
X36368446Y-13092612D01*
X36689697Y-13414423D01*
X37109646Y-13588801D01*
X37564359Y-13589198D01*
X37984612Y-13415554D01*
X38306423Y-13094303D01*
X38480801Y-12674354D01*
X38481198Y-12219641D01*
X38481198Y-19839641D01*
X38307554Y-19419388D01*
X37986303Y-19097577D01*
X37566354Y-18923199D01*
X37111641Y-18922802D01*
X36691388Y-19096446D01*
X36369577Y-19417697D01*
X36195199Y-19837646D01*
X36194802Y-20292359D01*
X36368446Y-20712612D01*
X36483633Y-20828000D01*
X35652527Y-20828000D01*
X35766423Y-20714303D01*
X35940801Y-20294354D01*
X35941198Y-19839641D01*
X35941198Y-12219641D01*
X35767554Y-11799388D01*
X35446303Y-11477577D01*
X35026354Y-11303199D01*
X34571641Y-11302802D01*
X34151388Y-11476446D01*
X33829577Y-11797697D01*
X33655199Y-12217646D01*
X33654802Y-12672359D01*
X33828446Y-13092612D01*
X34149697Y-13414423D01*
X34569646Y-13588801D01*
X35024359Y-13589198D01*
X35444612Y-13415554D01*
X35766423Y-13094303D01*
X35940801Y-12674354D01*
X35941198Y-12219641D01*
X35941198Y-19839641D01*
X35767554Y-19419388D01*
X35446303Y-19097577D01*
X35026354Y-18923199D01*
X34571641Y-18922802D01*
X34151388Y-19096446D01*
X33829577Y-19417697D01*
X33655199Y-19837646D01*
X33654802Y-20292359D01*
X33828446Y-20712612D01*
X33943633Y-20828000D01*
X33112527Y-20828000D01*
X33226423Y-20714303D01*
X33400801Y-20294354D01*
X33401198Y-19839641D01*
X33401198Y-12219641D01*
X33227554Y-11799388D01*
X32906303Y-11477577D01*
X32486354Y-11303199D01*
X32031641Y-11302802D01*
X31611388Y-11476446D01*
X31289577Y-11797697D01*
X31115199Y-12217646D01*
X31114802Y-12672359D01*
X31288446Y-13092612D01*
X31609697Y-13414423D01*
X32029646Y-13588801D01*
X32484359Y-13589198D01*
X32904612Y-13415554D01*
X33226423Y-13094303D01*
X33400801Y-12674354D01*
X33401198Y-12219641D01*
X33401198Y-19839641D01*
X33227554Y-19419388D01*
X32906303Y-19097577D01*
X32486354Y-18923199D01*
X32031641Y-18922802D01*
X31611388Y-19096446D01*
X31289577Y-19417697D01*
X31115199Y-19837646D01*
X31115029Y-20031660D01*
X31099362Y-19718632D01*
X30940397Y-19334857D01*
X30861198Y-19312140D01*
X30861198Y-12219641D01*
X30687554Y-11799388D01*
X30366303Y-11477577D01*
X29946354Y-11303199D01*
X29491641Y-11302802D01*
X29071388Y-11476446D01*
X28749577Y-11797697D01*
X28575199Y-12217646D01*
X28574802Y-12672359D01*
X28748446Y-13092612D01*
X29069697Y-13414423D01*
X29489646Y-13588801D01*
X29944359Y-13589198D01*
X30364612Y-13415554D01*
X30686423Y-13094303D01*
X30860801Y-12674354D01*
X30861198Y-12219641D01*
X30861198Y-19312140D01*
X30698213Y-19265392D01*
X30518608Y-19444997D01*
X30518608Y-19085787D01*
X30449143Y-18843603D01*
X29925698Y-18656856D01*
X29370632Y-18684638D01*
X28986857Y-18843603D01*
X28917392Y-19085787D01*
X29718000Y-19886395D01*
X30518608Y-19085787D01*
X30518608Y-19444997D01*
X29897605Y-20066000D01*
X29911747Y-20080142D01*
X29732142Y-20259747D01*
X29718000Y-20245605D01*
X29703857Y-20259747D01*
X29524252Y-20080142D01*
X29538395Y-20066000D01*
X28737787Y-19265392D01*
X28495603Y-19334857D01*
X28308856Y-19858302D01*
X28336638Y-20413368D01*
X28495603Y-20797143D01*
X28603183Y-20828000D01*
X21073110Y-20828000D01*
X21073110Y-10406380D01*
X21073110Y-9652000D01*
X21073110Y-9398000D01*
X21073110Y-8643620D01*
X20918846Y-8122081D01*
X20576740Y-7699276D01*
X20098875Y-7439573D01*
X20026674Y-7425217D01*
X19812000Y-7547838D01*
X19812000Y-9398000D01*
X21073110Y-9398000D01*
X21073110Y-9652000D01*
X19812000Y-9652000D01*
X19812000Y-11502162D01*
X20026674Y-11624783D01*
X20098875Y-11610427D01*
X20576740Y-11350724D01*
X20918846Y-10927919D01*
X21073110Y-10406380D01*
X21073110Y-20828000D01*
X19558000Y-20828000D01*
X19558000Y-11502162D01*
X19558000Y-9652000D01*
X19558000Y-9398000D01*
X19558000Y-7547838D01*
X19343326Y-7425217D01*
X19271125Y-7439573D01*
X18793260Y-7699276D01*
X18451154Y-8122081D01*
X18296890Y-8643620D01*
X18296890Y-9398000D01*
X19558000Y-9398000D01*
X19558000Y-9652000D01*
X18296890Y-9652000D01*
X18296890Y-10406380D01*
X18451154Y-10927919D01*
X18793260Y-11350724D01*
X19271125Y-11610427D01*
X19343326Y-11624783D01*
X19558000Y-11502162D01*
X19558000Y-20828000D01*
X18279110Y-20828000D01*
X18279110Y-10316378D01*
X18279110Y-8733622D01*
X18192781Y-8299617D01*
X17946937Y-7931685D01*
X17579005Y-7685841D01*
X17145000Y-7599512D01*
X16710995Y-7685841D01*
X16343063Y-7931685D01*
X16097219Y-8299617D01*
X16010890Y-8733622D01*
X16010890Y-10316378D01*
X16097219Y-10750383D01*
X16343063Y-11118315D01*
X16710995Y-11364159D01*
X17145000Y-11450488D01*
X17579005Y-11364159D01*
X17946937Y-11118315D01*
X18192781Y-10750383D01*
X18279110Y-10316378D01*
X18279110Y-20828000D01*
X17907000Y-20828000D01*
X17863420Y-20828000D01*
X17589407Y-20553987D01*
X17589643Y-20283518D01*
X17464233Y-19980002D01*
X17232219Y-19747583D01*
X16928923Y-19621643D01*
X16600518Y-19621357D01*
X16297002Y-19746767D01*
X16064583Y-19978781D01*
X15938643Y-20282077D01*
X15938357Y-20610482D01*
X16063767Y-20913998D01*
X16295781Y-21146417D01*
X16599077Y-21272357D01*
X16871173Y-21272593D01*
X17011580Y-21413000D01*
X9855420Y-21413000D01*
X9855420Y-11254690D01*
X9662482Y-10787742D01*
X9305537Y-10430174D01*
X8838927Y-10236421D01*
X8333690Y-10235980D01*
X7866742Y-10428918D01*
X7861452Y-10434198D01*
X7861452Y-8233858D01*
X7861452Y-3230058D01*
X7728324Y-2907864D01*
X7482032Y-2661142D01*
X7160072Y-2527452D01*
X6811458Y-2527148D01*
X6489264Y-2660276D01*
X6242542Y-2906568D01*
X6108852Y-3228528D01*
X6108548Y-3577142D01*
X6241676Y-3899336D01*
X6487968Y-4146058D01*
X6809928Y-4279748D01*
X7158542Y-4280052D01*
X7480736Y-4146924D01*
X7727458Y-3900632D01*
X7861148Y-3578672D01*
X7861452Y-3230058D01*
X7861452Y-8233858D01*
X7728324Y-7911664D01*
X7482032Y-7664942D01*
X7160072Y-7531252D01*
X6811458Y-7530948D01*
X6489264Y-7664076D01*
X6242542Y-7910368D01*
X6108852Y-8232328D01*
X6108548Y-8580942D01*
X6241676Y-8903136D01*
X6487968Y-9149858D01*
X6809928Y-9283548D01*
X7158542Y-9283852D01*
X7480736Y-9150724D01*
X7727458Y-8904432D01*
X7861148Y-8582472D01*
X7861452Y-8233858D01*
X7861452Y-10434198D01*
X7509174Y-10785863D01*
X7315421Y-11252473D01*
X7314980Y-11757710D01*
X7507918Y-12224658D01*
X7864863Y-12582226D01*
X8331473Y-12775979D01*
X8836710Y-12776420D01*
X9303658Y-12583482D01*
X9661226Y-12226537D01*
X9854979Y-11759927D01*
X9855420Y-11254690D01*
X9855420Y-21413000D01*
X6655020Y-21413000D01*
X6655020Y-11254690D01*
X6462082Y-10787742D01*
X6105137Y-10430174D01*
X5638527Y-10236421D01*
X5133290Y-10235980D01*
X4666342Y-10428918D01*
X4648420Y-10446808D01*
X4648420Y-8155890D01*
X4455482Y-7688942D01*
X4098537Y-7331374D01*
X3821516Y-7216345D01*
X3821516Y-3641635D01*
X3795723Y-3035900D01*
X3613539Y-2596067D01*
X3358196Y-2511009D01*
X3178591Y-2690614D01*
X3178591Y-2331404D01*
X3093533Y-2076061D01*
X2524035Y-1868084D01*
X1918300Y-1893877D01*
X1478467Y-2076061D01*
X1393409Y-2331404D01*
X2286000Y-3223995D01*
X3178591Y-2331404D01*
X3178591Y-2690614D01*
X2465605Y-3403600D01*
X3358196Y-4296191D01*
X3613539Y-4211133D01*
X3821516Y-3641635D01*
X3821516Y-7216345D01*
X3631927Y-7137621D01*
X3178591Y-7137225D01*
X3178591Y-4475796D01*
X2286000Y-3583205D01*
X2106395Y-3762810D01*
X2106395Y-3403600D01*
X1213804Y-2511009D01*
X958461Y-2596067D01*
X750484Y-3165565D01*
X776277Y-3771300D01*
X958461Y-4211133D01*
X1213804Y-4296191D01*
X2106395Y-3403600D01*
X2106395Y-3762810D01*
X1393409Y-4475796D01*
X1478467Y-4731139D01*
X2047965Y-4939116D01*
X2653700Y-4913323D01*
X3093533Y-4731139D01*
X3178591Y-4475796D01*
X3178591Y-7137225D01*
X3126690Y-7137180D01*
X2659742Y-7330118D01*
X2302174Y-7687063D01*
X2108421Y-8153673D01*
X2107980Y-8658910D01*
X2300918Y-9125858D01*
X2657863Y-9483426D01*
X3124473Y-9677179D01*
X3629710Y-9677620D01*
X4096658Y-9484682D01*
X4454226Y-9127737D01*
X4647979Y-8661127D01*
X4648420Y-8155890D01*
X4648420Y-10446808D01*
X4308774Y-10785863D01*
X4115021Y-11252473D01*
X4114580Y-11757710D01*
X4307518Y-12224658D01*
X4664463Y-12582226D01*
X5131073Y-12775979D01*
X5636310Y-12776420D01*
X6103258Y-12583482D01*
X6460826Y-12226537D01*
X6654579Y-11759927D01*
X6655020Y-11254690D01*
X6655020Y-21413000D01*
X6350330Y-21413000D01*
X6350330Y-16132735D01*
X6060922Y-15432314D01*
X5525505Y-14895961D01*
X4825590Y-14605332D01*
X4067735Y-14604670D01*
X3367314Y-14894078D01*
X2830961Y-15429495D01*
X2540332Y-16129410D01*
X2539670Y-16887265D01*
X2829078Y-17587686D01*
X3364495Y-18124039D01*
X4064410Y-18414668D01*
X4822265Y-18415330D01*
X5522686Y-18125922D01*
X6059039Y-17590505D01*
X6349668Y-16890590D01*
X6350330Y-16132735D01*
X6350330Y-21413000D01*
X6274526Y-21413000D01*
X431000Y-15569474D01*
X431000Y-177000D01*
X21262982Y-177000D01*
X21095320Y-246277D01*
X20833197Y-507943D01*
X20691162Y-850000D01*
X20690839Y-1220375D01*
X20832277Y-1562680D01*
X21093943Y-1824803D01*
X21436000Y-1966838D01*
X21806375Y-1967161D01*
X22148680Y-1825723D01*
X22410803Y-1564057D01*
X22552838Y-1222000D01*
X22553161Y-851625D01*
X22411723Y-509320D01*
X22150057Y-247197D01*
X21981004Y-177000D01*
X23262982Y-177000D01*
X23095320Y-246277D01*
X22833197Y-507943D01*
X22691162Y-850000D01*
X22690839Y-1220375D01*
X22832277Y-1562680D01*
X23093943Y-1824803D01*
X23436000Y-1966838D01*
X23806375Y-1967161D01*
X24148680Y-1825723D01*
X24410803Y-1564057D01*
X24552838Y-1222000D01*
X24553161Y-851625D01*
X24411723Y-509320D01*
X24150057Y-247197D01*
X23981004Y-177000D01*
X25262982Y-177000D01*
X25095320Y-246277D01*
X24833197Y-507943D01*
X24691162Y-850000D01*
X24690839Y-1220375D01*
X24832277Y-1562680D01*
X25093943Y-1824803D01*
X25436000Y-1966838D01*
X25806375Y-1967161D01*
X26148680Y-1825723D01*
X26410803Y-1564057D01*
X26552838Y-1222000D01*
X26553161Y-851625D01*
X26411723Y-509320D01*
X26150057Y-247197D01*
X25981004Y-177000D01*
X30176000Y-177000D01*
X30176000Y-6634776D01*
X29853213Y-6311989D01*
X29853213Y-2042213D01*
X29666200Y-1589605D01*
X29320216Y-1243017D01*
X28867935Y-1055214D01*
X28378213Y-1054787D01*
X27925605Y-1241800D01*
X27579017Y-1587784D01*
X27391214Y-2040065D01*
X27390787Y-2529787D01*
X27577800Y-2982395D01*
X27923784Y-3328983D01*
X28376065Y-3516786D01*
X28865787Y-3517213D01*
X29318395Y-3330200D01*
X29664983Y-2984216D01*
X29852786Y-2531935D01*
X29853213Y-2042213D01*
X29853213Y-6311989D01*
X28979112Y-5437888D01*
X28979108Y-5437885D01*
X27816112Y-4274888D01*
X27816108Y-4274885D01*
X26673112Y-3131888D01*
X26487704Y-3008003D01*
X26451417Y-3000785D01*
X26391257Y-2988818D01*
X26391256Y-2988818D01*
X26150057Y-2747197D01*
X25808000Y-2605162D01*
X25437625Y-2604839D01*
X25095320Y-2746277D01*
X24833197Y-3007943D01*
X24691162Y-3350000D01*
X24690892Y-3658883D01*
X24499624Y-3850151D01*
X24552838Y-3722000D01*
X24553161Y-3351625D01*
X24411723Y-3009320D01*
X24150057Y-2747197D01*
X23808000Y-2605162D01*
X23437625Y-2604839D01*
X23095320Y-2746277D01*
X22833197Y-3007943D01*
X22691162Y-3350000D01*
X22690839Y-3720375D01*
X22832277Y-4062680D01*
X23023762Y-4254500D01*
X22220027Y-4254500D01*
X22410803Y-4064057D01*
X22552838Y-3722000D01*
X22553161Y-3351625D01*
X22411723Y-3009320D01*
X22150057Y-2747197D01*
X21808000Y-2605162D01*
X21437625Y-2604839D01*
X21095320Y-2746277D01*
X20833197Y-3007943D01*
X20691162Y-3350000D01*
X20690839Y-3720375D01*
X20832277Y-4062680D01*
X21023762Y-4254500D01*
X19853213Y-4254500D01*
X19853213Y-2042213D01*
X19666200Y-1589605D01*
X19320216Y-1243017D01*
X18867935Y-1055214D01*
X18378213Y-1054787D01*
X17925605Y-1241800D01*
X17579017Y-1587784D01*
X17391214Y-2040065D01*
X17390787Y-2529787D01*
X17577800Y-2982395D01*
X17923784Y-3328983D01*
X18376065Y-3516786D01*
X18865787Y-3517213D01*
X19318395Y-3330200D01*
X19664983Y-2984216D01*
X19852786Y-2531935D01*
X19853213Y-2042213D01*
X19853213Y-4254500D01*
X13444723Y-4254500D01*
X12994401Y-3804177D01*
X13055379Y-3657327D01*
X13055820Y-3152090D01*
X12862882Y-2685142D01*
X12505937Y-2327574D01*
X12039327Y-2133821D01*
X11534090Y-2133380D01*
X11067142Y-2326318D01*
X10709574Y-2683263D01*
X10515821Y-3149873D01*
X10515380Y-3655110D01*
X10708318Y-4122058D01*
X11065263Y-4479626D01*
X11531873Y-4673379D01*
X12037110Y-4673820D01*
X12186054Y-4612277D01*
X12803885Y-5230108D01*
X12803888Y-5230112D01*
X12989296Y-5353997D01*
X12989297Y-5353997D01*
X13208000Y-5397500D01*
X24331994Y-5397500D01*
X24332000Y-5397501D01*
X24332000Y-5397500D01*
X24514417Y-5361214D01*
X24550703Y-5353997D01*
X24550704Y-5353997D01*
X24736112Y-5230112D01*
X25499330Y-4466893D01*
X25806375Y-4467161D01*
X26148680Y-4325723D01*
X26199634Y-4274857D01*
X27007885Y-5083108D01*
X27007888Y-5083112D01*
X28170885Y-6246108D01*
X28170888Y-6246112D01*
X29527500Y-7602723D01*
X29527500Y-8254994D01*
X29527499Y-8255000D01*
X29563785Y-8437417D01*
X29571003Y-8473704D01*
X29694888Y-8659112D01*
X31472885Y-10437108D01*
X31472888Y-10437112D01*
X31472889Y-10437112D01*
X31596774Y-10519889D01*
X31658296Y-10560997D01*
X31658297Y-10560998D01*
X31877000Y-10604501D01*
X31877000Y-10604500D01*
X31877005Y-10604500D01*
X37464994Y-10604500D01*
X37465000Y-10604501D01*
X37465000Y-10604500D01*
X37647417Y-10568214D01*
X37683703Y-10560997D01*
X37683704Y-10560997D01*
X37869112Y-10437112D01*
X39647108Y-8659114D01*
X39647112Y-8659112D01*
X39647112Y-8659111D01*
X39729889Y-8535226D01*
X39770997Y-8473704D01*
X39770998Y-8473703D01*
X39814500Y-8255000D01*
X39814501Y-8255000D01*
X39814500Y-8254994D01*
X39814500Y-4640915D01*
X39814581Y-4640996D01*
X39954615Y-4699000D01*
X40106186Y-4699000D01*
X41833386Y-4699000D01*
X41973420Y-4640996D01*
X42080596Y-4533819D01*
X42138600Y-4393785D01*
X42138600Y-4242214D01*
X42138600Y-2210214D01*
X42091083Y-2095500D01*
X42773436Y-2095500D01*
X42553935Y-2242166D01*
X42284140Y-2645943D01*
X42189400Y-3122231D01*
X42189400Y-3481769D01*
X42284140Y-3958057D01*
X42553935Y-4361834D01*
X42957712Y-4631629D01*
X43434000Y-4726369D01*
X43910288Y-4631629D01*
X44314065Y-4361834D01*
X44583860Y-3958057D01*
X44678600Y-3481769D01*
X44678600Y-3122231D01*
X44583860Y-2645943D01*
X44314065Y-2242166D01*
X44094563Y-2095500D01*
X45313436Y-2095500D01*
X45093935Y-2242166D01*
X44824140Y-2645943D01*
X44729400Y-3122231D01*
X44729400Y-3481769D01*
X44824140Y-3958057D01*
X45093935Y-4361834D01*
X45497712Y-4631629D01*
X45974000Y-4726369D01*
X46450288Y-4631629D01*
X46854065Y-4361834D01*
X47123860Y-3958057D01*
X47218600Y-3481769D01*
X47218600Y-3122231D01*
X47123860Y-2645943D01*
X46854065Y-2242166D01*
X46634563Y-2095500D01*
X64025276Y-2095500D01*
X66895754Y-4965977D01*
X66827400Y-5309617D01*
X66827400Y-5331962D01*
X66740233Y-5121002D01*
X66508219Y-4888583D01*
X66204923Y-4762643D01*
X65876518Y-4762357D01*
X65573002Y-4887767D01*
X65340583Y-5119781D01*
X65214643Y-5423077D01*
X65214357Y-5751482D01*
X65339767Y-6054998D01*
X65532000Y-6247566D01*
X65532000Y-8255000D01*
X65570669Y-8449403D01*
X65680790Y-8614210D01*
X66569790Y-9503210D01*
X66734597Y-9613331D01*
X66816393Y-9629601D01*
X66617032Y-10054973D01*
X66737531Y-10287000D01*
X67945000Y-10287000D01*
X67945000Y-10267000D01*
X68199000Y-10267000D01*
X68199000Y-10287000D01*
X68219000Y-10287000D01*
X68219000Y-10541000D01*
X68199000Y-10541000D01*
X68199000Y-11747817D01*
X68431026Y-11868958D01*
X68846947Y-11696688D01*
X69278821Y-11302490D01*
X69461676Y-10912338D01*
X69462140Y-10914671D01*
X69731935Y-11318448D01*
X70135712Y-11588243D01*
X70612000Y-11682983D01*
X71088288Y-11588243D01*
X71492065Y-11318448D01*
X71761860Y-10914671D01*
X71856600Y-10438383D01*
X71856600Y-10389617D01*
X71761860Y-9913329D01*
X71587245Y-9652000D01*
X72771000Y-9652000D01*
X72965403Y-9613331D01*
X73130210Y-9503210D01*
X73581781Y-9051638D01*
X74041000Y-9142983D01*
X74517288Y-9048243D01*
X74921065Y-8778448D01*
X75190860Y-8374671D01*
X75285600Y-7898383D01*
X75285600Y-7849617D01*
X75190860Y-7373329D01*
X75016245Y-7112000D01*
X75100580Y-7112000D01*
X75419653Y-7431073D01*
X75336400Y-7849617D01*
X75336400Y-7898383D01*
X75431140Y-8374671D01*
X75700935Y-8778448D01*
X76104712Y-9048243D01*
X76581000Y-9142983D01*
X77057288Y-9048243D01*
X77461065Y-8778448D01*
X77730860Y-8374671D01*
X77825600Y-7898383D01*
X77825600Y-7849617D01*
X77730860Y-7373329D01*
X77461065Y-6969552D01*
X77057288Y-6699757D01*
X76581000Y-6605017D01*
X76121781Y-6696361D01*
X75670210Y-6244790D01*
X75505403Y-6134669D01*
X75311000Y-6096000D01*
X75039337Y-6096000D01*
X75095505Y-6039930D01*
X75285383Y-5582652D01*
X75285815Y-5087520D01*
X75096736Y-4629912D01*
X74912146Y-4445000D01*
X74973580Y-4445000D01*
X75419653Y-4891073D01*
X75336400Y-5309617D01*
X75336400Y-5358383D01*
X75431140Y-5834671D01*
X75700935Y-6238448D01*
X76104712Y-6508243D01*
X76581000Y-6602983D01*
X77057288Y-6508243D01*
X77461065Y-6238448D01*
X77730860Y-5834671D01*
X77825600Y-5358383D01*
X77825600Y-5309617D01*
X77730860Y-4833329D01*
X77461065Y-4429552D01*
X77057288Y-4159757D01*
X76581000Y-4065017D01*
X76121781Y-4156361D01*
X75543210Y-3577790D01*
X75378403Y-3467669D01*
X75184000Y-3429000D01*
X72009000Y-3429000D01*
X71846849Y-3461253D01*
X71814596Y-3467669D01*
X71649790Y-3577790D01*
X71138180Y-4089400D01*
X69672614Y-4089400D01*
X69532580Y-4147404D01*
X69425404Y-4254581D01*
X69367400Y-4394615D01*
X69367400Y-4546186D01*
X69367400Y-4587738D01*
X69256002Y-4633767D01*
X69155531Y-4734061D01*
X68952065Y-4429552D01*
X68548288Y-4159757D01*
X68072000Y-4065017D01*
X67687685Y-4141462D01*
X64993223Y-1447000D01*
X78436000Y-1447000D01*
X78436000Y-14807474D01*
M02*
