%FSLAX46Y46*%
G04 Gerber Fmt 4.6, Leading zero omitted, Abs format (unit mm)*
G04 Created by KiCad (PCBNEW (2014-10-27 BZR 5228)-product) date 5/4/2015 9:12:31 PM*
%MOMM*%
G01*
G04 APERTURE LIST*
%ADD10C,0.100000*%
%ADD11O,1.506220X3.014980*%
%ADD12C,1.500000*%
%ADD13C,1.778000*%
%ADD14C,0.990600*%
%ADD15C,3.048000*%
%ADD16R,1.727200X2.032000*%
%ADD17O,1.727200X2.032000*%
%ADD18R,1.727200X1.727200*%
%ADD19O,1.727200X1.727200*%
%ADD20C,1.727200*%
%ADD21R,1.500000X1.500000*%
%ADD22C,1.100000*%
%ADD23C,1.700000*%
G04 APERTURE END LIST*
D10*
D11*
X17145000Y-9525000D03*
X19685000Y-9525000D03*
D12*
X40386000Y-16256000D03*
X42926000Y-16256000D03*
D13*
X11785600Y-3403600D03*
X2286000Y-3403600D03*
X8585200Y-11506200D03*
X5384800Y-11506200D03*
X3378200Y-8407400D03*
D14*
X6985000Y-3403600D03*
X6985000Y-8407400D03*
D15*
X6985000Y-16510000D03*
D16*
X40894000Y-3302000D03*
D17*
X43434000Y-3302000D03*
X45974000Y-3302000D03*
D18*
X70612000Y-5334000D03*
D19*
X68072000Y-5334000D03*
X70612000Y-7874000D03*
X68072000Y-7874000D03*
X70612000Y-10414000D03*
X68072000Y-10414000D03*
D20*
X74041000Y-5334000D03*
D19*
X76581000Y-5334000D03*
X74041000Y-7874000D03*
X76581000Y-7874000D03*
X74041000Y-10414000D03*
X76581000Y-10414000D03*
X74041000Y-12954000D03*
X76581000Y-12954000D03*
D21*
X47498000Y-12446000D03*
D12*
X44958000Y-12446000D03*
X42418000Y-12446000D03*
X39878000Y-12446000D03*
X37338000Y-12446000D03*
X34798000Y-12446000D03*
X32258000Y-12446000D03*
X29718000Y-12446000D03*
X29718000Y-20066000D03*
X32258000Y-20066000D03*
X34798000Y-20066000D03*
X37338000Y-20066000D03*
X39878000Y-20066000D03*
X42418000Y-20066000D03*
X44958000Y-20066000D03*
X47498000Y-20066000D03*
D22*
X21622000Y-1036000D03*
X23622000Y-1036000D03*
X25622000Y-1036000D03*
X21622000Y-3536000D03*
X23622000Y-3536000D03*
X25622000Y-3536000D03*
D23*
X18622000Y-2286000D03*
X28622000Y-2286000D03*
M02*
