M48
;DRILL file {kicad (2014-10-27 BZR 5228)-product} date 2/21/2015 5:46:07 PM
;FORMAT={-:-/ absolute / inch / decimal}
FMAT,2
INCH,TZ
T1C0.025
T2C0.039
T3C0.040
%
G90
G05
M72
T1
X0.15Y-0.62
X0.2Y-0.73
X0.27Y-1.06
X0.32Y-0.8
X0.33Y-0.56
X0.33Y-0.65
X0.33Y-0.98
X0.36Y-0.32
X0.3825Y-0.465
X0.3825Y-0.7325
X0.52Y-0.82
X0.53Y-0.53
X0.67Y-0.96
X0.7325Y-0.4525
X0.7475Y-0.8825
X0.8225Y-0.1975
X0.8225Y-0.3325
X0.845Y-0.1
X0.895Y-0.855
X0.95Y-1.23
X1.18Y-1.25
X1.185Y-0.475
X1.4425Y-0.23
X1.47Y-0.07
X2.01Y-0.69
T2
X0.325Y-1.2
X0.425Y-1.2
T3
X0.17Y-1.37
X0.27Y-1.37
X0.37Y-1.37
X0.47Y-1.37
X0.54Y-0.2
X0.54Y-0.3
X0.54Y-0.4
X0.57Y-1.37
X0.64Y-0.2
X0.64Y-0.3
X0.64Y-0.4
X0.75Y-1.37
X0.85Y-1.37
X0.95Y-1.37
X1.01Y-0.1
X1.01Y-0.2
X1.01Y-0.3
X1.01Y-0.4
X1.05Y-1.37
X1.11Y-0.1
X1.11Y-0.2
X1.11Y-0.3
X1.11Y-0.4
X1.15Y-1.37
X1.25Y-1.37
X1.35Y-1.37
X1.9Y-1.02
X2.01Y-1.02
X2.1Y-1.02
T0
M30
