M48
;DRILL file {kicad (2014-10-27 BZR 5228)-product} date 2/24/2015 9:22:22 PM
;FORMAT={2:4/ absolute / inch / suppress leading zeros}
FMAT,2
INCH,TZ
T1C0.025
T2C0.039
T3C0.040
%
G90
G05
M72
T1
X1500Y-6200
X1500Y-10600
X2700Y-10600
X3300Y-5600
X3300Y-6500
X3600Y-3200
X3825Y-4650
X3825Y-7325
X5200Y-8200
X5300Y-5300
X6700Y-9600
X7325Y-4525
X7475Y-8825
X7500Y-12300
X8225Y-1975
X8225Y-3325
X8450Y-1000
X8950Y-8550
X11500Y-12100
X11850Y-4750
X12500Y-12000
X14600Y-5900
X20100Y-6900
T2
X3250Y-12000
X4250Y-12000
T3
X1700Y-13700
X2700Y-13700
X3700Y-13700
X4700Y-13700
X5400Y-2000
X5400Y-3000
X5400Y-4000
X5700Y-13700
X6400Y-2000
X6400Y-3000
X6400Y-4000
X7500Y-13700
X8500Y-13700
X9500Y-13700
X10100Y-1000
X10100Y-2000
X10100Y-3000
X10100Y-4000
X10500Y-13700
X11100Y-1000
X11100Y-2000
X11100Y-3000
X11100Y-4000
X11500Y-13700
X12500Y-13700
X13500Y-13700
X19000Y-10200
X20100Y-10200
X21000Y-10200
T0
M30
