%FSLAX46Y46*%
G04 Gerber Fmt 4.6, Leading zero omitted, Abs format (unit mm)*
G04 Created by KiCad (PCBNEW (2014-10-27 BZR 5228)-product) date 2/24/2015 9:22:20 PM*
%MOMM*%
G01*
G04 APERTURE LIST*
%ADD10C,0.100000*%
%ADD11C,1.750000*%
%ADD12R,0.500000X0.600000*%
%ADD13R,0.600000X0.500000*%
%ADD14R,1.727200X2.032000*%
%ADD15O,1.727200X2.032000*%
%ADD16R,1.727200X1.727200*%
%ADD17O,1.727200X1.727200*%
%ADD18R,0.400000X0.600000*%
%ADD19R,0.600000X0.400000*%
%ADD20R,0.548640X1.198880*%
%ADD21C,1.727200*%
%ADD22C,0.889000*%
%ADD23C,0.406400*%
%ADD24C,0.254000*%
G04 APERTURE END LIST*
D10*
D11*
X8255000Y-30480000D03*
D12*
X39624000Y-8086000D03*
X39624000Y-9186000D03*
D13*
X7916000Y-24384000D03*
X6816000Y-24384000D03*
D10*
G36*
X20998264Y-27670182D02*
X21351818Y-28023736D01*
X20927554Y-28448000D01*
X20574000Y-28094446D01*
X20998264Y-27670182D01*
X20998264Y-27670182D01*
G37*
G36*
X20220446Y-28448000D02*
X20574000Y-28801554D01*
X20149736Y-29225818D01*
X19796182Y-28872264D01*
X20220446Y-28448000D01*
X20220446Y-28448000D01*
G37*
G36*
X10838264Y-15478182D02*
X11191818Y-15831736D01*
X10767554Y-16256000D01*
X10414000Y-15902446D01*
X10838264Y-15478182D01*
X10838264Y-15478182D01*
G37*
G36*
X10060446Y-16256000D02*
X10414000Y-16609554D01*
X9989736Y-17033818D01*
X9636182Y-16680264D01*
X10060446Y-16256000D01*
X10060446Y-16256000D01*
G37*
D12*
X35877500Y-3260000D03*
X35877500Y-4360000D03*
D10*
G36*
X27094264Y-26654182D02*
X27447818Y-27007736D01*
X27023554Y-27432000D01*
X26670000Y-27078446D01*
X27094264Y-26654182D01*
X27094264Y-26654182D01*
G37*
G36*
X26316446Y-27432000D02*
X26670000Y-27785554D01*
X26245736Y-28209818D01*
X25892182Y-27856264D01*
X26316446Y-27432000D01*
X26316446Y-27432000D01*
G37*
G36*
X27701818Y-23284264D02*
X27348264Y-23637818D01*
X26924000Y-23213554D01*
X27277554Y-22860000D01*
X27701818Y-23284264D01*
X27701818Y-23284264D01*
G37*
G36*
X26924000Y-22506446D02*
X26570446Y-22860000D01*
X26146182Y-22435736D01*
X26499736Y-22082182D01*
X26924000Y-22506446D01*
X26924000Y-22506446D01*
G37*
D14*
X48260000Y-25908000D03*
D15*
X51054000Y-25908000D03*
X53340000Y-25908000D03*
D10*
G36*
X21601094Y-24342025D02*
X21283193Y-24659926D01*
X19869700Y-23246433D01*
X20187601Y-22928532D01*
X21601094Y-24342025D01*
X21601094Y-24342025D01*
G37*
G36*
X21035338Y-24907781D02*
X20717437Y-25225682D01*
X19303944Y-23812189D01*
X19621845Y-23494288D01*
X21035338Y-24907781D01*
X21035338Y-24907781D01*
G37*
G36*
X20469582Y-25473537D02*
X20151681Y-25791438D01*
X18738188Y-24377945D01*
X19056089Y-24060044D01*
X20469582Y-25473537D01*
X20469582Y-25473537D01*
G37*
G36*
X19903826Y-26039294D02*
X19585925Y-26357195D01*
X18172432Y-24943702D01*
X18490333Y-24625801D01*
X19903826Y-26039294D01*
X19903826Y-26039294D01*
G37*
G36*
X19338070Y-26605050D02*
X19020169Y-26922951D01*
X17606676Y-25509458D01*
X17924577Y-25191557D01*
X19338070Y-26605050D01*
X19338070Y-26605050D01*
G37*
G36*
X18772313Y-27170806D02*
X18454412Y-27488707D01*
X17040919Y-26075214D01*
X17358820Y-25757313D01*
X18772313Y-27170806D01*
X18772313Y-27170806D01*
G37*
G36*
X18206557Y-27736562D02*
X17888656Y-28054463D01*
X16475163Y-26640970D01*
X16793064Y-26323069D01*
X18206557Y-27736562D01*
X18206557Y-27736562D01*
G37*
G36*
X17640801Y-28302318D02*
X17322900Y-28620219D01*
X15909407Y-27206726D01*
X16227308Y-26888825D01*
X17640801Y-28302318D01*
X17640801Y-28302318D01*
G37*
G36*
X10880464Y-21534797D02*
X10562563Y-21852698D01*
X9149070Y-20439205D01*
X9466971Y-20121304D01*
X10880464Y-21534797D01*
X10880464Y-21534797D01*
G37*
G36*
X14849738Y-17565524D02*
X14531837Y-17883425D01*
X13118344Y-16469932D01*
X13436245Y-16152031D01*
X14849738Y-17565524D01*
X14849738Y-17565524D01*
G37*
G36*
X14275001Y-18140260D02*
X13957100Y-18458161D01*
X12543607Y-17044668D01*
X12861508Y-16726767D01*
X14275001Y-18140260D01*
X14275001Y-18140260D01*
G37*
G36*
X13700265Y-18714997D02*
X13382364Y-19032898D01*
X11968871Y-17619405D01*
X12286772Y-17301504D01*
X13700265Y-18714997D01*
X13700265Y-18714997D01*
G37*
G36*
X13143489Y-19271773D02*
X12825588Y-19589674D01*
X11412095Y-18176181D01*
X11729996Y-17858280D01*
X13143489Y-19271773D01*
X13143489Y-19271773D01*
G37*
G36*
X12568753Y-19846509D02*
X12250852Y-20164410D01*
X10837359Y-18750917D01*
X11155260Y-18433016D01*
X12568753Y-19846509D01*
X12568753Y-19846509D01*
G37*
G36*
X12011977Y-20403285D02*
X11694076Y-20721186D01*
X10280583Y-19307693D01*
X10598484Y-18989792D01*
X12011977Y-20403285D01*
X12011977Y-20403285D01*
G37*
G36*
X11437240Y-20978021D02*
X11119339Y-21295922D01*
X9705846Y-19882429D01*
X10023747Y-19564528D01*
X11437240Y-20978021D01*
X11437240Y-20978021D01*
G37*
G36*
X14817409Y-27213910D02*
X13403916Y-28627403D01*
X13086015Y-28309502D01*
X14499508Y-26896009D01*
X14817409Y-27213910D01*
X14817409Y-27213910D01*
G37*
G36*
X14253449Y-26649950D02*
X12839956Y-28063443D01*
X12522055Y-27745542D01*
X13935548Y-26332049D01*
X14253449Y-26649950D01*
X14253449Y-26649950D01*
G37*
G36*
X13685896Y-26082398D02*
X12272403Y-27495891D01*
X11954502Y-27177990D01*
X13367995Y-25764497D01*
X13685896Y-26082398D01*
X13685896Y-26082398D01*
G37*
G36*
X13121936Y-25518438D02*
X11708443Y-26931931D01*
X11390542Y-26614030D01*
X12804035Y-25200537D01*
X13121936Y-25518438D01*
X13121936Y-25518438D01*
G37*
G36*
X12554384Y-24950886D02*
X11140891Y-26364379D01*
X10822990Y-26046478D01*
X12236483Y-24632985D01*
X12554384Y-24950886D01*
X12554384Y-24950886D01*
G37*
G36*
X11990424Y-24386926D02*
X10576931Y-25800419D01*
X10259030Y-25482518D01*
X11672523Y-24069025D01*
X11990424Y-24386926D01*
X11990424Y-24386926D01*
G37*
G36*
X11422872Y-23819373D02*
X10009379Y-25232866D01*
X9691478Y-24914965D01*
X11104971Y-23501472D01*
X11422872Y-23819373D01*
X11422872Y-23819373D01*
G37*
G36*
X10858912Y-23255413D02*
X9445419Y-24668906D01*
X9127518Y-24351005D01*
X10541011Y-22937512D01*
X10858912Y-23255413D01*
X10858912Y-23255413D01*
G37*
G36*
X21602890Y-20421245D02*
X20189397Y-21834738D01*
X19871496Y-21516837D01*
X21284989Y-20103344D01*
X21602890Y-20421245D01*
X21602890Y-20421245D01*
G37*
G36*
X21046114Y-19864469D02*
X19632621Y-21277962D01*
X19314720Y-20960061D01*
X20728213Y-19546568D01*
X21046114Y-19864469D01*
X21046114Y-19864469D01*
G37*
G36*
X20471378Y-19289732D02*
X19057885Y-20703225D01*
X18739984Y-20385324D01*
X20153477Y-18971831D01*
X20471378Y-19289732D01*
X20471378Y-19289732D01*
G37*
G36*
X19914602Y-18732956D02*
X18501109Y-20146449D01*
X18183208Y-19828548D01*
X19596701Y-18415055D01*
X19914602Y-18732956D01*
X19914602Y-18732956D01*
G37*
G36*
X19357826Y-18176181D02*
X17944333Y-19589674D01*
X17626432Y-19271773D01*
X19039925Y-17858280D01*
X19357826Y-18176181D01*
X19357826Y-18176181D01*
G37*
G36*
X18783090Y-17601444D02*
X17369597Y-19014937D01*
X17051696Y-18697036D01*
X18465189Y-17283543D01*
X18783090Y-17601444D01*
X18783090Y-17601444D01*
G37*
G36*
X18208353Y-17026708D02*
X16794860Y-18440201D01*
X16476959Y-18122300D01*
X17890452Y-16708807D01*
X18208353Y-17026708D01*
X18208353Y-17026708D01*
G37*
G36*
X17633617Y-16451971D02*
X16220124Y-17865464D01*
X15902223Y-17547563D01*
X17315716Y-16134070D01*
X17633617Y-16451971D01*
X17633617Y-16451971D01*
G37*
D14*
X14478000Y-34798000D03*
D15*
X11938000Y-34798000D03*
X9398000Y-34798000D03*
X6858000Y-34798000D03*
X4318000Y-34798000D03*
D14*
X34290000Y-34798000D03*
D15*
X31750000Y-34798000D03*
X29210000Y-34798000D03*
X26670000Y-34798000D03*
X24130000Y-34798000D03*
X21590000Y-34798000D03*
X19050000Y-34798000D03*
D16*
X16256000Y-10160000D03*
D17*
X13716000Y-10160000D03*
X16256000Y-7620000D03*
X13716000Y-7620000D03*
X16256000Y-5080000D03*
X13716000Y-5080000D03*
D18*
X7816000Y-22352000D03*
X6916000Y-22352000D03*
D19*
X31242000Y-3360000D03*
X31242000Y-4260000D03*
X51054000Y-22040000D03*
X51054000Y-21140000D03*
D20*
X35943540Y-9425940D03*
X36893500Y-9425940D03*
X37843460Y-9425940D03*
X37843460Y-6830060D03*
X35943540Y-6830060D03*
D10*
G36*
X25621437Y-25817751D02*
X24843620Y-25039934D01*
X25833569Y-24049985D01*
X26611386Y-24827802D01*
X25621437Y-25817751D01*
X25621437Y-25817751D01*
G37*
G36*
X24490066Y-24686380D02*
X23712249Y-23908563D01*
X24702198Y-22918614D01*
X25480015Y-23696431D01*
X24490066Y-24686380D01*
X24490066Y-24686380D01*
G37*
G36*
X22934431Y-26242015D02*
X22156614Y-25464198D01*
X23146563Y-24474249D01*
X23924380Y-25252066D01*
X22934431Y-26242015D01*
X22934431Y-26242015D01*
G37*
G36*
X24065802Y-27373386D02*
X23287985Y-26595569D01*
X24277934Y-25605620D01*
X25055751Y-26383437D01*
X24065802Y-27373386D01*
X24065802Y-27373386D01*
G37*
D21*
X28194000Y-10160000D03*
D17*
X25654000Y-10160000D03*
X28194000Y-7620000D03*
X25654000Y-7620000D03*
X28194000Y-5080000D03*
X25654000Y-5080000D03*
X28194000Y-2540000D03*
X25654000Y-2540000D03*
D11*
X10795000Y-30480000D03*
D22*
X51054000Y-17526000D03*
X37084000Y-14986000D03*
X6858000Y-26924000D03*
X3810000Y-26924000D03*
X3810000Y-15748000D03*
X9144000Y-8128000D03*
X18986500Y-22415500D03*
X22733000Y-21717000D03*
X17018000Y-24384000D03*
X13462000Y-13462000D03*
X20891500Y-8445500D03*
X21463000Y-2540000D03*
X20891500Y-5016500D03*
X18605500Y-11493500D03*
X13208000Y-20828000D03*
X8382000Y-16510000D03*
X8382000Y-14224000D03*
X30099000Y-12065000D03*
X31750000Y-30480000D03*
X9715500Y-11811000D03*
X9715500Y-18605500D03*
X19050000Y-31242000D03*
X29210000Y-30734000D03*
D23*
X51054000Y-17526000D02*
X48514000Y-14986000D01*
X51054000Y-21140000D02*
X51054000Y-17526000D01*
X48514000Y-14986000D02*
X37084000Y-14986000D01*
X36893500Y-9425940D02*
X36893500Y-8318500D01*
X37126000Y-8086000D02*
X39624000Y-8086000D01*
X36893500Y-8318500D02*
X37126000Y-8086000D01*
X27312909Y-23248909D02*
X27940000Y-23876000D01*
X27940000Y-26162000D02*
X27940000Y-25146000D01*
X27940000Y-26162000D02*
X27058909Y-27043091D01*
X27940000Y-23876000D02*
X27940000Y-25146000D01*
D24*
X17906616Y-26623010D02*
X17018000Y-25734394D01*
X18184631Y-24638000D02*
X17780000Y-24638000D01*
X17780000Y-24638000D02*
X17526000Y-24892000D01*
X18184631Y-24638000D02*
X19038129Y-25491498D01*
X17018000Y-25400000D02*
X17526000Y-24892000D01*
X17018000Y-25734394D02*
X17018000Y-25400000D01*
D23*
X10025091Y-17620748D02*
X10025091Y-16644909D01*
X18986500Y-22415500D02*
X22034500Y-22415500D01*
X22034500Y-22415500D02*
X22733000Y-21717000D01*
D24*
X17526000Y-24892000D02*
X17018000Y-24384000D01*
D23*
X20120515Y-28836909D02*
X17906616Y-26623010D01*
X20185091Y-28836909D02*
X20120515Y-28836909D01*
D24*
X11703056Y-19298713D02*
X13208000Y-20803657D01*
X13208000Y-20803657D02*
X13208000Y-20828000D01*
D23*
X11703056Y-19298713D02*
X10025091Y-17620748D01*
X55118000Y-16002000D02*
X48302000Y-9186000D01*
X55118000Y-26670000D02*
X55118000Y-16002000D01*
X52933598Y-28854402D02*
X55118000Y-26670000D01*
X37592000Y-28854402D02*
X52933598Y-28854402D01*
X24130000Y-34798000D02*
X25908000Y-33020000D01*
X25908000Y-33020000D02*
X31496000Y-33020000D01*
X31496000Y-33020000D02*
X33274000Y-33020000D01*
X33426402Y-33020000D02*
X37592000Y-28854402D01*
X33274000Y-33020000D02*
X33426402Y-33020000D01*
X48302000Y-9186000D02*
X39624000Y-9186000D01*
X37843460Y-9425940D02*
X38834060Y-9425940D01*
X38834060Y-9425940D02*
X39074000Y-9186000D01*
X39074000Y-9186000D02*
X39624000Y-9186000D01*
X24130000Y-34798000D02*
X24130000Y-30480000D01*
X24130000Y-30480000D02*
X21336000Y-27686000D01*
X6816000Y-24384000D02*
X5702296Y-25497704D01*
X5702296Y-33413704D02*
X4318000Y-34798000D01*
X5702296Y-33413704D02*
X5702296Y-29095704D01*
X5702296Y-25497704D02*
X5702296Y-29095704D01*
X6916000Y-22352000D02*
X6916000Y-20770000D01*
X9715500Y-15303500D02*
X8064500Y-15303500D01*
X8064500Y-15303500D02*
X7366000Y-16002000D01*
X7366000Y-16002000D02*
X7366000Y-18477814D01*
X10239318Y-15303500D02*
X9715500Y-15303500D01*
X10239318Y-15303500D02*
X10802909Y-15867091D01*
X7366000Y-18477814D02*
X7366000Y-20320000D01*
X6916000Y-20770000D02*
X7366000Y-20320000D01*
X11684000Y-15867160D02*
X11684000Y-12192000D01*
X11684000Y-12192000D02*
X13716000Y-10160000D01*
X6816000Y-23410000D02*
X6916000Y-23310000D01*
X6916000Y-23310000D02*
X6916000Y-22352000D01*
X6816000Y-24384000D02*
X6816000Y-23410000D01*
X18472373Y-26057254D02*
X19593119Y-27178000D01*
X20574000Y-25895856D02*
X20574000Y-26670000D01*
X20574000Y-25895856D02*
X19603885Y-24925741D01*
X20066000Y-27178000D02*
X20574000Y-26670000D01*
X19593119Y-27178000D02*
X20066000Y-27178000D01*
X11683931Y-15867091D02*
X10802909Y-15867091D01*
X13409304Y-17592464D02*
X11683931Y-15867091D01*
X16510000Y-21831856D02*
X16510000Y-20693160D01*
X16510000Y-20693160D02*
X13409304Y-17592464D01*
X19603885Y-24925741D02*
X16510000Y-21831856D01*
X36385500Y-10922000D02*
X35943540Y-10480040D01*
X37843460Y-9425940D02*
X37843460Y-10480040D01*
X37843460Y-10480040D02*
X37401500Y-10922000D01*
X36893500Y-10922000D02*
X36385500Y-10922000D01*
X37401500Y-10922000D02*
X36893500Y-10922000D01*
X35943540Y-10480040D02*
X35943540Y-9425940D01*
X37871400Y-9398000D02*
X37843460Y-9425940D01*
X13409304Y-17592464D02*
X11684000Y-15867160D01*
X21336000Y-27686000D02*
X21336000Y-27432000D01*
X21336000Y-27432000D02*
X20574000Y-26670000D01*
X20962909Y-28059091D02*
X21336000Y-27686000D01*
D24*
X7816000Y-22352000D02*
X7816000Y-21140000D01*
X12192000Y-10668000D02*
X12192000Y-6985000D01*
X8636000Y-14224000D02*
X12192000Y-10668000D01*
X8382000Y-14224000D02*
X8636000Y-14224000D01*
X14478000Y-6350000D02*
X15748000Y-5080000D01*
X12827000Y-6350000D02*
X12192000Y-6985000D01*
X14478000Y-6350000D02*
X12827000Y-6350000D01*
X8382000Y-20574000D02*
X8382000Y-16510000D01*
X7816000Y-21140000D02*
X8382000Y-20574000D01*
X12256239Y-26066234D02*
X13208000Y-25114473D01*
X11430000Y-22352000D02*
X7816000Y-22352000D01*
X13208000Y-24130000D02*
X11430000Y-22352000D01*
X13208000Y-25114473D02*
X13208000Y-24130000D01*
X7916000Y-23410000D02*
X7816000Y-23310000D01*
X7816000Y-23310000D02*
X7816000Y-22352000D01*
X7916000Y-24384000D02*
X7916000Y-23410000D01*
X16256000Y-5080000D02*
X15748000Y-5080000D01*
D23*
X35943540Y-6830060D02*
X35943540Y-5717540D01*
X35877500Y-5651500D02*
X35877500Y-4360000D01*
X35943540Y-5717540D02*
X35877500Y-5651500D01*
X30284000Y-3360000D02*
X29464000Y-2540000D01*
X29464000Y-2540000D02*
X28194000Y-2540000D01*
X31242000Y-3360000D02*
X30284000Y-3360000D01*
X34078000Y-4360000D02*
X33078000Y-3360000D01*
X33078000Y-3360000D02*
X31242000Y-3360000D01*
X35877500Y-4360000D02*
X34078000Y-4360000D01*
X20524263Y-17805394D02*
X27141954Y-17805394D01*
X27141954Y-17805394D02*
X36870158Y-27533598D01*
X36870158Y-27533598D02*
X46634402Y-27533598D01*
X46634402Y-27533598D02*
X48260000Y-25908000D01*
X19048905Y-19280752D02*
X20524263Y-17805394D01*
X51054000Y-25908000D02*
X51054000Y-22040000D01*
X53340000Y-26670000D02*
X53340000Y-25908000D01*
X20977413Y-18465796D02*
X26868406Y-18465796D01*
X26868406Y-18465796D02*
X36596610Y-28194000D01*
X36596610Y-28194000D02*
X51816000Y-28194000D01*
X51816000Y-28194000D02*
X53340000Y-26670000D01*
X19605681Y-19837528D02*
X20977413Y-18465796D01*
D24*
X6794500Y-31432500D02*
X8128000Y-32766000D01*
X8128000Y-32766000D02*
X8128000Y-35560000D01*
X8128000Y-35560000D02*
X8890000Y-36322000D01*
X8890000Y-36322000D02*
X10414000Y-36322000D01*
X10414000Y-36322000D02*
X11938000Y-34798000D01*
X11688687Y-25498682D02*
X9945869Y-27241500D01*
X9461500Y-27241500D02*
X9945869Y-27241500D01*
X6794500Y-29908500D02*
X9461500Y-27241500D01*
X6794500Y-29908500D02*
X6794500Y-31432500D01*
X29210000Y-34798000D02*
X27686000Y-36322000D01*
X17780000Y-28759418D02*
X16775104Y-27754522D01*
X17780000Y-31496000D02*
X17780000Y-28759418D01*
X18719798Y-32435798D02*
X17780000Y-31496000D01*
X21513798Y-32435798D02*
X18719798Y-32435798D01*
X22860000Y-33782000D02*
X21513798Y-32435798D01*
X22860000Y-35560000D02*
X22860000Y-33782000D01*
X23622000Y-36322000D02*
X22860000Y-35560000D01*
X27686000Y-36322000D02*
X23622000Y-36322000D01*
X14986000Y-16015769D02*
X14986000Y-8890000D01*
X14986000Y-8890000D02*
X16256000Y-7620000D01*
X13984041Y-17017728D02*
X14986000Y-16015769D01*
X17017998Y-6858002D02*
X24892002Y-6858002D01*
X24892002Y-6858002D02*
X25654000Y-7620000D01*
X16256000Y-7620000D02*
X17017998Y-6858002D01*
X19304002Y-17912104D02*
X19304002Y-13882846D01*
X19304002Y-13882846D02*
X20232844Y-12954004D01*
X20232844Y-12954004D02*
X29209996Y-12954004D01*
X29209996Y-12954004D02*
X30099000Y-12065000D01*
X18492129Y-18723977D02*
X19304002Y-17912104D01*
X9398000Y-33782000D02*
X9398000Y-34798000D01*
X13951712Y-27761706D02*
X12827000Y-28886418D01*
X12827000Y-30353000D02*
X11239500Y-31940500D01*
X12827000Y-28886418D02*
X12827000Y-30353000D01*
X11239500Y-31940500D02*
X9398000Y-33782000D01*
X12192000Y-28393498D02*
X12192000Y-29083000D01*
X12192000Y-29083000D02*
X10795000Y-30480000D01*
X13387752Y-27197746D02*
X12192000Y-28393498D01*
X11002393Y-28448000D02*
X10287000Y-28448000D01*
X10287000Y-28448000D02*
X8255000Y-30480000D01*
X12820199Y-26630194D02*
X11002393Y-28448000D01*
X31750000Y-30480000D02*
X31750000Y-25349200D01*
X26626422Y-19049998D02*
X31750000Y-24173576D01*
X21542684Y-19049998D02*
X26626422Y-19049998D01*
X21542684Y-19049998D02*
X20180417Y-20412265D01*
X31750000Y-24173576D02*
X31750000Y-25349200D01*
X9715500Y-11811000D02*
X9715500Y-10985500D01*
X9715500Y-10985500D02*
X10350500Y-10350500D01*
X11556655Y-9144345D02*
X10350500Y-10350500D01*
X11556655Y-4572345D02*
X11556655Y-9144345D01*
X12636500Y-3492500D02*
X11556655Y-4572345D01*
X18161000Y-3492500D02*
X12636500Y-3492500D01*
X18478500Y-3810000D02*
X18161000Y-3492500D01*
X26924000Y-3810000D02*
X18478500Y-3810000D01*
X30284000Y-4260000D02*
X29464000Y-5080000D01*
X29464000Y-5080000D02*
X28194000Y-5080000D01*
X31242000Y-4260000D02*
X30284000Y-4260000D01*
X26924000Y-3810000D02*
X28194000Y-5080000D01*
X9715500Y-19574182D02*
X9715500Y-18605500D01*
X10571543Y-20430225D02*
X9715500Y-19574182D01*
X26162000Y-5080000D02*
X25654000Y-5080000D01*
X27432000Y-6350000D02*
X26162000Y-5080000D01*
X17917393Y-18149240D02*
X18796000Y-17270633D01*
X29210000Y-6350000D02*
X28956000Y-6350000D01*
X29972000Y-7112000D02*
X29210000Y-6350000D01*
X29972000Y-10668000D02*
X29972000Y-7112000D01*
X28193998Y-12446002D02*
X29972000Y-10668000D01*
X20022422Y-12446002D02*
X28193998Y-12446002D01*
X18796000Y-13672424D02*
X20022422Y-12446002D01*
X18796000Y-17270633D02*
X18796000Y-13672424D01*
X28956000Y-6350000D02*
X27432000Y-6350000D01*
X26924000Y-8890000D02*
X28194000Y-7620000D01*
X26924000Y-11176000D02*
X26924000Y-8890000D01*
X26162000Y-11938000D02*
X26924000Y-11176000D01*
X19812000Y-11938000D02*
X26162000Y-11938000D01*
X18034000Y-13716000D02*
X19812000Y-11938000D01*
X18034000Y-16883160D02*
X18034000Y-13716000D01*
X17342656Y-17574504D02*
X18034000Y-16883160D01*
X26416000Y-6350000D02*
X15557500Y-6350000D01*
X27686000Y-7620000D02*
X26416000Y-6350000D01*
X28194000Y-7620000D02*
X27686000Y-7620000D01*
X14287500Y-7620000D02*
X15557500Y-6350000D01*
X13716000Y-7620000D02*
X14287500Y-7620000D01*
X16767920Y-16999767D02*
X15494002Y-15725849D01*
X15494002Y-15725849D02*
X15494002Y-10921998D01*
X15494002Y-10921998D02*
X16256000Y-10160000D01*
X16256000Y-10160000D02*
X25654000Y-10160000D01*
X24171868Y-26489503D02*
X24860365Y-27178000D01*
X25638182Y-27178000D02*
X26281091Y-27820909D01*
X24860365Y-27178000D02*
X25638182Y-27178000D01*
X20169641Y-24359985D02*
X22987656Y-27178000D01*
X23483371Y-27178000D02*
X24171868Y-26489503D01*
X22987656Y-27178000D02*
X23483371Y-27178000D01*
X20735397Y-23794229D02*
X21325168Y-24384000D01*
X21325168Y-24384000D02*
X22352000Y-24384000D01*
X22352000Y-24384000D02*
X23368000Y-23368000D01*
X23368000Y-23368000D02*
X24161635Y-23368000D01*
X24161635Y-23368000D02*
X24596132Y-23802497D01*
X24596132Y-23802497D02*
X25284629Y-23114000D01*
X25892182Y-23114000D02*
X26535091Y-22471091D01*
X25284629Y-23114000D02*
X25892182Y-23114000D01*
X15367000Y-27559000D02*
X15367000Y-26797000D01*
X12064998Y-21843998D02*
X10871764Y-21843998D01*
X10014767Y-20987001D02*
X10871764Y-21843998D01*
X21590000Y-33705800D02*
X21590000Y-34798000D01*
X17271998Y-29463998D02*
X16256000Y-28448000D01*
X17271998Y-31706422D02*
X17271998Y-29463998D01*
X18509376Y-32943800D02*
X17271998Y-31706422D01*
X20828000Y-32943800D02*
X18509376Y-32943800D01*
X21590000Y-33705800D02*
X20828000Y-32943800D01*
X16256000Y-28448000D02*
X15367000Y-27559000D01*
X13970000Y-23749000D02*
X12064998Y-21843998D01*
X13970000Y-25400000D02*
X13970000Y-23749000D01*
X15367000Y-26797000D02*
X13970000Y-25400000D01*
X10000999Y-20987001D02*
X10014767Y-20987001D01*
X6858000Y-32214424D02*
X6858000Y-34798000D01*
X6286498Y-31642922D02*
X6858000Y-32214424D01*
X6286498Y-29698078D02*
X6286498Y-31642922D01*
X11049854Y-24934722D02*
X6286498Y-29698078D01*
X11124727Y-24934722D02*
X11049854Y-24934722D01*
X19050000Y-31242000D02*
X19050000Y-30734000D01*
X19050000Y-30734000D02*
X18542000Y-30226000D01*
X18542000Y-30226000D02*
X18542000Y-28389906D01*
X18542000Y-28389906D02*
X17340860Y-27188766D01*
X31241998Y-28702000D02*
X31241998Y-28702002D01*
X31241998Y-28702002D02*
X29210000Y-30734000D01*
X26416000Y-19558000D02*
X31241998Y-24383998D01*
X20737193Y-20969041D02*
X22148234Y-19558000D01*
X22148234Y-19558000D02*
X26416000Y-19558000D01*
X31241998Y-28702000D02*
X31241998Y-24383998D01*
G36*
X9392716Y-25514228D02*
X6540496Y-28366449D01*
X6540496Y-25844898D01*
X7116394Y-25269000D01*
X7242309Y-25269000D01*
X7365999Y-25217765D01*
X7489690Y-25269000D01*
X7742309Y-25269000D01*
X8342309Y-25269000D01*
X8575698Y-25172327D01*
X8754327Y-24993699D01*
X8788847Y-24910359D01*
X9085721Y-25207232D01*
X9133400Y-25226981D01*
X9153151Y-25274663D01*
X9331779Y-25453291D01*
X9392716Y-25514228D01*
X9392716Y-25514228D01*
G37*
X9392716Y-25514228D02*
X6540496Y-28366449D01*
X6540496Y-25844898D01*
X7116394Y-25269000D01*
X7242309Y-25269000D01*
X7365999Y-25217765D01*
X7489690Y-25269000D01*
X7742309Y-25269000D01*
X8342309Y-25269000D01*
X8575698Y-25172327D01*
X8754327Y-24993699D01*
X8788847Y-24910359D01*
X9085721Y-25207232D01*
X9133400Y-25226981D01*
X9153151Y-25274663D01*
X9331779Y-25453291D01*
X9392716Y-25514228D01*
G36*
X11660848Y-17029402D02*
X11430545Y-17259707D01*
X11412899Y-17302306D01*
X11370298Y-17319953D01*
X11191670Y-17498581D01*
X10873769Y-17816483D01*
X10850863Y-17871782D01*
X10795562Y-17894689D01*
X10649974Y-18040276D01*
X10631189Y-17994811D01*
X10327786Y-17690878D01*
X10195449Y-17635926D01*
X10349435Y-17572144D01*
X10448825Y-17472754D01*
X10448825Y-17248248D01*
X10023677Y-16823100D01*
X9564588Y-17282189D01*
X9564588Y-17506695D01*
X9583777Y-17525884D01*
X9501716Y-17525813D01*
X9144000Y-17673618D01*
X9144000Y-17274641D01*
X9238349Y-17180457D01*
X9296622Y-17122286D01*
X9303628Y-17105412D01*
X9387811Y-17105412D01*
X9846900Y-16646323D01*
X9831343Y-16630766D01*
X10010948Y-16451161D01*
X10026505Y-16466718D01*
X10040647Y-16452575D01*
X10217424Y-16629352D01*
X10203282Y-16643495D01*
X10628430Y-17068643D01*
X10852936Y-17068643D01*
X10952326Y-16969253D01*
X11003560Y-16845561D01*
X11127252Y-16794327D01*
X11216288Y-16705291D01*
X11336737Y-16705291D01*
X11660848Y-17029402D01*
X11660848Y-17029402D01*
G37*
X11660848Y-17029402D02*
X11430545Y-17259707D01*
X11412899Y-17302306D01*
X11370298Y-17319953D01*
X11191670Y-17498581D01*
X10873769Y-17816483D01*
X10850863Y-17871782D01*
X10795562Y-17894689D01*
X10649974Y-18040276D01*
X10631189Y-17994811D01*
X10327786Y-17690878D01*
X10195449Y-17635926D01*
X10349435Y-17572144D01*
X10448825Y-17472754D01*
X10448825Y-17248248D01*
X10023677Y-16823100D01*
X9564588Y-17282189D01*
X9564588Y-17506695D01*
X9583777Y-17525884D01*
X9501716Y-17525813D01*
X9144000Y-17673618D01*
X9144000Y-17274641D01*
X9238349Y-17180457D01*
X9296622Y-17122286D01*
X9303628Y-17105412D01*
X9387811Y-17105412D01*
X9846900Y-16646323D01*
X9831343Y-16630766D01*
X10010948Y-16451161D01*
X10026505Y-16466718D01*
X10040647Y-16452575D01*
X10217424Y-16629352D01*
X10203282Y-16643495D01*
X10628430Y-17068643D01*
X10852936Y-17068643D01*
X10952326Y-16969253D01*
X11003560Y-16845561D01*
X11127252Y-16794327D01*
X11216288Y-16705291D01*
X11336737Y-16705291D01*
X11660848Y-17029402D01*
G36*
X13863000Y-5207000D02*
X13843000Y-5207000D01*
X13843000Y-5227000D01*
X13589000Y-5227000D01*
X13589000Y-5207000D01*
X13569000Y-5207000D01*
X13569000Y-4953000D01*
X13589000Y-4953000D01*
X13589000Y-4933000D01*
X13843000Y-4933000D01*
X13843000Y-4953000D01*
X13863000Y-4953000D01*
X13863000Y-5207000D01*
X13863000Y-5207000D01*
G37*
X13863000Y-5207000D02*
X13843000Y-5207000D01*
X13843000Y-5227000D01*
X13589000Y-5227000D01*
X13589000Y-5207000D01*
X13569000Y-5207000D01*
X13569000Y-4953000D01*
X13589000Y-4953000D01*
X13589000Y-4933000D01*
X13843000Y-4933000D01*
X13843000Y-4953000D01*
X13863000Y-4953000D01*
X13863000Y-5207000D01*
G36*
X14224000Y-15700139D02*
X14053189Y-15870949D01*
X13795944Y-15613705D01*
X13562555Y-15517032D01*
X13309936Y-15517031D01*
X13076547Y-15613704D01*
X12897919Y-15792332D01*
X12846242Y-15844008D01*
X12522200Y-15519966D01*
X12522200Y-12539194D01*
X13430270Y-11631123D01*
X13716000Y-11687959D01*
X14224000Y-11586911D01*
X14224000Y-15700139D01*
X14224000Y-15700139D01*
G37*
X14224000Y-15700139D02*
X14053189Y-15870949D01*
X13795944Y-15613705D01*
X13562555Y-15517032D01*
X13309936Y-15517031D01*
X13076547Y-15613704D01*
X12897919Y-15792332D01*
X12846242Y-15844008D01*
X12522200Y-15519966D01*
X12522200Y-12539194D01*
X13430270Y-11631123D01*
X13716000Y-11687959D01*
X14224000Y-11586911D01*
X14224000Y-15700139D01*
G36*
X17855429Y-24362679D02*
X17812733Y-24405376D01*
X17792566Y-24425543D01*
X17634105Y-24584004D01*
X17613829Y-24632954D01*
X17564879Y-24653230D01*
X17386251Y-24831858D01*
X17068350Y-25149760D01*
X17048074Y-25198709D01*
X16999122Y-25218986D01*
X16820494Y-25397614D01*
X16942586Y-25275523D01*
X16942586Y-25500029D01*
X16971676Y-25529119D01*
X16971676Y-25635767D01*
X17008659Y-25725053D01*
X16919374Y-25688070D01*
X16812724Y-25688069D01*
X16783635Y-25658980D01*
X16559129Y-25658980D01*
X16681220Y-25536888D01*
X16502592Y-25715516D01*
X16482316Y-25764466D01*
X16433366Y-25784742D01*
X16254738Y-25963370D01*
X15936837Y-26281272D01*
X15930869Y-26295679D01*
X15905815Y-26258185D01*
X15905815Y-26258184D01*
X14732000Y-25084369D01*
X14732000Y-23749000D01*
X14673996Y-23457396D01*
X14673996Y-23457395D01*
X14607834Y-23358376D01*
X14508816Y-23210185D01*
X12603813Y-21305183D01*
X12356603Y-21140002D01*
X12203699Y-21109587D01*
X12232402Y-21080885D01*
X12550303Y-20762983D01*
X12567948Y-20720383D01*
X12610550Y-20702737D01*
X12667086Y-20646200D01*
X12667086Y-20421694D01*
X12646976Y-20401584D01*
X12646977Y-20276976D01*
X12609993Y-20187690D01*
X12699278Y-20224673D01*
X12787967Y-20224673D01*
X12826037Y-20262743D01*
X13050543Y-20262743D01*
X13107080Y-20206207D01*
X13129986Y-20150907D01*
X13185286Y-20128001D01*
X13363914Y-19949373D01*
X13681815Y-19631471D01*
X13699460Y-19588871D01*
X13742062Y-19571225D01*
X13920690Y-19392597D01*
X13972366Y-19340920D01*
X15671800Y-21040354D01*
X15671800Y-21831856D01*
X15735604Y-22152622D01*
X15917303Y-22424553D01*
X17855429Y-24362679D01*
X17855429Y-24362679D01*
G37*
X17855429Y-24362679D02*
X17812733Y-24405376D01*
X17792566Y-24425543D01*
X17634105Y-24584004D01*
X17613829Y-24632954D01*
X17564879Y-24653230D01*
X17386251Y-24831858D01*
X17068350Y-25149760D01*
X17048074Y-25198709D01*
X16999122Y-25218986D01*
X16820494Y-25397614D01*
X16942586Y-25275523D01*
X16942586Y-25500029D01*
X16971676Y-25529119D01*
X16971676Y-25635767D01*
X17008659Y-25725053D01*
X16919374Y-25688070D01*
X16812724Y-25688069D01*
X16783635Y-25658980D01*
X16559129Y-25658980D01*
X16681220Y-25536888D01*
X16502592Y-25715516D01*
X16482316Y-25764466D01*
X16433366Y-25784742D01*
X16254738Y-25963370D01*
X15936837Y-26281272D01*
X15930869Y-26295679D01*
X15905815Y-26258185D01*
X15905815Y-26258184D01*
X14732000Y-25084369D01*
X14732000Y-23749000D01*
X14673996Y-23457396D01*
X14673996Y-23457395D01*
X14607834Y-23358376D01*
X14508816Y-23210185D01*
X12603813Y-21305183D01*
X12356603Y-21140002D01*
X12203699Y-21109587D01*
X12232402Y-21080885D01*
X12550303Y-20762983D01*
X12567948Y-20720383D01*
X12610550Y-20702737D01*
X12667086Y-20646200D01*
X12667086Y-20421694D01*
X12646976Y-20401584D01*
X12646977Y-20276976D01*
X12609993Y-20187690D01*
X12699278Y-20224673D01*
X12787967Y-20224673D01*
X12826037Y-20262743D01*
X13050543Y-20262743D01*
X13107080Y-20206207D01*
X13129986Y-20150907D01*
X13185286Y-20128001D01*
X13363914Y-19949373D01*
X13681815Y-19631471D01*
X13699460Y-19588871D01*
X13742062Y-19571225D01*
X13920690Y-19392597D01*
X13972366Y-19340920D01*
X15671800Y-21040354D01*
X15671800Y-21831856D01*
X15735604Y-22152622D01*
X15917303Y-22424553D01*
X17855429Y-24362679D01*
G36*
X19849491Y-22381262D02*
X19827903Y-22390205D01*
X19649275Y-22568833D01*
X19331374Y-22886735D01*
X19311098Y-22935684D01*
X19262147Y-22955961D01*
X19083519Y-23134589D01*
X19040823Y-23177285D01*
X17348200Y-21484662D01*
X17348200Y-20693160D01*
X17284396Y-20372395D01*
X17284396Y-20372394D01*
X17102697Y-20100463D01*
X15157760Y-18155526D01*
X15384960Y-17928325D01*
X15542524Y-18085889D01*
X15860426Y-18403790D01*
X15915724Y-18426695D01*
X15938632Y-18481998D01*
X16117260Y-18660626D01*
X16435162Y-18978527D01*
X16490462Y-19001433D01*
X16513369Y-19056734D01*
X16691997Y-19235362D01*
X17009899Y-19553263D01*
X17065197Y-19576168D01*
X17088105Y-19631471D01*
X17266733Y-19810099D01*
X17584635Y-20128000D01*
X17627235Y-20145645D01*
X17644881Y-20188246D01*
X17823509Y-20366874D01*
X18141411Y-20684775D01*
X18184010Y-20702420D01*
X18201657Y-20745022D01*
X18380285Y-20923650D01*
X18698187Y-21241551D01*
X18753485Y-21264456D01*
X18776393Y-21319759D01*
X18955021Y-21498387D01*
X19272923Y-21816288D01*
X19315522Y-21833933D01*
X19333169Y-21876535D01*
X19511797Y-22055163D01*
X19829699Y-22373064D01*
X19849491Y-22381262D01*
X19849491Y-22381262D01*
G37*
X19849491Y-22381262D02*
X19827903Y-22390205D01*
X19649275Y-22568833D01*
X19331374Y-22886735D01*
X19311098Y-22935684D01*
X19262147Y-22955961D01*
X19083519Y-23134589D01*
X19040823Y-23177285D01*
X17348200Y-21484662D01*
X17348200Y-20693160D01*
X17284396Y-20372395D01*
X17284396Y-20372394D01*
X17102697Y-20100463D01*
X15157760Y-18155526D01*
X15384960Y-17928325D01*
X15542524Y-18085889D01*
X15860426Y-18403790D01*
X15915724Y-18426695D01*
X15938632Y-18481998D01*
X16117260Y-18660626D01*
X16435162Y-18978527D01*
X16490462Y-19001433D01*
X16513369Y-19056734D01*
X16691997Y-19235362D01*
X17009899Y-19553263D01*
X17065197Y-19576168D01*
X17088105Y-19631471D01*
X17266733Y-19810099D01*
X17584635Y-20128000D01*
X17627235Y-20145645D01*
X17644881Y-20188246D01*
X17823509Y-20366874D01*
X18141411Y-20684775D01*
X18184010Y-20702420D01*
X18201657Y-20745022D01*
X18380285Y-20923650D01*
X18698187Y-21241551D01*
X18753485Y-21264456D01*
X18776393Y-21319759D01*
X18955021Y-21498387D01*
X19272923Y-21816288D01*
X19315522Y-21833933D01*
X19333169Y-21876535D01*
X19511797Y-22055163D01*
X19829699Y-22373064D01*
X19849491Y-22381262D01*
G36*
X23291800Y-33136170D02*
X22052613Y-31896983D01*
X21805403Y-31731802D01*
X21513798Y-31673798D01*
X20608825Y-31673798D01*
X20608825Y-29664754D01*
X20608825Y-29440248D01*
X20183677Y-29015100D01*
X19724588Y-29474189D01*
X19724588Y-29698695D01*
X19790038Y-29764145D01*
X20023427Y-29860818D01*
X20276045Y-29860817D01*
X20509435Y-29764144D01*
X20608825Y-29664754D01*
X20608825Y-31673798D01*
X20039567Y-31673798D01*
X20129313Y-31457668D01*
X20129687Y-31028216D01*
X19965689Y-30631311D01*
X19707221Y-30372392D01*
X19707220Y-30372391D01*
X19588815Y-30195185D01*
X19588815Y-30195184D01*
X19304000Y-29910369D01*
X19304000Y-29278107D01*
X19323305Y-29297412D01*
X19547811Y-29297412D01*
X20006900Y-28838323D01*
X19581752Y-28413175D01*
X19357246Y-28413175D01*
X19304000Y-28466421D01*
X19304000Y-28389906D01*
X19245996Y-28098301D01*
X19080815Y-27851091D01*
X19080815Y-27851090D01*
X19035434Y-27805709D01*
X19042398Y-27798745D01*
X19272353Y-27952396D01*
X19272354Y-27952396D01*
X19593119Y-28016200D01*
X19761357Y-28016200D01*
X19761357Y-28233570D01*
X20186505Y-28658718D01*
X20200647Y-28644575D01*
X20377424Y-28821352D01*
X20363282Y-28835495D01*
X20788430Y-29260643D01*
X21012936Y-29260643D01*
X21112326Y-29161253D01*
X21163560Y-29037561D01*
X21287252Y-28986327D01*
X21369092Y-28904486D01*
X23291800Y-30827194D01*
X23291800Y-33136170D01*
X23291800Y-33136170D01*
G37*
X23291800Y-33136170D02*
X22052613Y-31896983D01*
X21805403Y-31731802D01*
X21513798Y-31673798D01*
X20608825Y-31673798D01*
X20608825Y-29664754D01*
X20608825Y-29440248D01*
X20183677Y-29015100D01*
X19724588Y-29474189D01*
X19724588Y-29698695D01*
X19790038Y-29764145D01*
X20023427Y-29860818D01*
X20276045Y-29860817D01*
X20509435Y-29764144D01*
X20608825Y-29664754D01*
X20608825Y-31673798D01*
X20039567Y-31673798D01*
X20129313Y-31457668D01*
X20129687Y-31028216D01*
X19965689Y-30631311D01*
X19707221Y-30372392D01*
X19707220Y-30372391D01*
X19588815Y-30195185D01*
X19588815Y-30195184D01*
X19304000Y-29910369D01*
X19304000Y-29278107D01*
X19323305Y-29297412D01*
X19547811Y-29297412D01*
X20006900Y-28838323D01*
X19581752Y-28413175D01*
X19357246Y-28413175D01*
X19304000Y-28466421D01*
X19304000Y-28389906D01*
X19245996Y-28098301D01*
X19080815Y-27851091D01*
X19080815Y-27851090D01*
X19035434Y-27805709D01*
X19042398Y-27798745D01*
X19272353Y-27952396D01*
X19272354Y-27952396D01*
X19593119Y-28016200D01*
X19761357Y-28016200D01*
X19761357Y-28233570D01*
X20186505Y-28658718D01*
X20200647Y-28644575D01*
X20377424Y-28821352D01*
X20363282Y-28835495D01*
X20788430Y-29260643D01*
X21012936Y-29260643D01*
X21112326Y-29161253D01*
X21163560Y-29037561D01*
X21287252Y-28986327D01*
X21369092Y-28904486D01*
X23291800Y-30827194D01*
X23291800Y-33136170D01*
G36*
X24250607Y-5588000D02*
X17659392Y-5588000D01*
X17754600Y-5109359D01*
X17754600Y-5050641D01*
X17640526Y-4477152D01*
X17491754Y-4254500D01*
X17845369Y-4254500D01*
X17939685Y-4348816D01*
X18087876Y-4447834D01*
X18186895Y-4513996D01*
X18186896Y-4513996D01*
X18478500Y-4572000D01*
X24250607Y-4572000D01*
X24155400Y-5050641D01*
X24155400Y-5109359D01*
X24250607Y-5588000D01*
X24250607Y-5588000D01*
G37*
X24250607Y-5588000D02*
X17659392Y-5588000D01*
X17754600Y-5109359D01*
X17754600Y-5050641D01*
X17640526Y-4477152D01*
X17491754Y-4254500D01*
X17845369Y-4254500D01*
X17939685Y-4348816D01*
X18087876Y-4447834D01*
X18186895Y-4513996D01*
X18186896Y-4513996D01*
X18478500Y-4572000D01*
X24250607Y-4572000D01*
X24155400Y-5050641D01*
X24155400Y-5109359D01*
X24250607Y-5588000D01*
G36*
X24545533Y-11176000D02*
X19812000Y-11176000D01*
X19520395Y-11234004D01*
X19421376Y-11300165D01*
X19273185Y-11399184D01*
X17495185Y-13177185D01*
X17330004Y-13424395D01*
X17272000Y-13716000D01*
X17272000Y-15499070D01*
X17189407Y-15499070D01*
X16956017Y-15595743D01*
X16777389Y-15774371D01*
X16698771Y-15852988D01*
X16256002Y-15410219D01*
X16256002Y-11658600D01*
X17245909Y-11658600D01*
X17479298Y-11561927D01*
X17657927Y-11383299D01*
X17754600Y-11149910D01*
X17754600Y-10922000D01*
X24375816Y-10922000D01*
X24545533Y-11176000D01*
X24545533Y-11176000D01*
G37*
X24545533Y-11176000D02*
X19812000Y-11176000D01*
X19520395Y-11234004D01*
X19421376Y-11300165D01*
X19273185Y-11399184D01*
X17495185Y-13177185D01*
X17330004Y-13424395D01*
X17272000Y-13716000D01*
X17272000Y-15499070D01*
X17189407Y-15499070D01*
X16956017Y-15595743D01*
X16777389Y-15774371D01*
X16698771Y-15852988D01*
X16256002Y-15410219D01*
X16256002Y-11658600D01*
X17245909Y-11658600D01*
X17479298Y-11561927D01*
X17657927Y-11383299D01*
X17754600Y-11149910D01*
X17754600Y-10922000D01*
X24375816Y-10922000D01*
X24545533Y-11176000D01*
G36*
X24865172Y-8890000D02*
X24594330Y-9070971D01*
X24375816Y-9398000D01*
X17754600Y-9398000D01*
X17754600Y-9170091D01*
X17657927Y-8936702D01*
X17479299Y-8758073D01*
X17325473Y-8694356D01*
X17640526Y-8222848D01*
X17754600Y-7649359D01*
X17754600Y-7620002D01*
X24155400Y-7620002D01*
X24155400Y-7649359D01*
X24269474Y-8222848D01*
X24594330Y-8709029D01*
X24865172Y-8890000D01*
X24865172Y-8890000D01*
G37*
X24865172Y-8890000D02*
X24594330Y-9070971D01*
X24375816Y-9398000D01*
X17754600Y-9398000D01*
X17754600Y-9170091D01*
X17657927Y-8936702D01*
X17479299Y-8758073D01*
X17325473Y-8694356D01*
X17640526Y-8222848D01*
X17754600Y-7649359D01*
X17754600Y-7620002D01*
X24155400Y-7620002D01*
X24155400Y-7649359D01*
X24269474Y-8222848D01*
X24594330Y-8709029D01*
X24865172Y-8890000D01*
G36*
X36289830Y-28971177D02*
X33079208Y-32181800D01*
X31496000Y-32181800D01*
X28082818Y-32181800D01*
X28082818Y-26881427D01*
X27986145Y-26648038D01*
X27920695Y-26582588D01*
X27773412Y-26582588D01*
X27773412Y-24110695D01*
X27773412Y-23886189D01*
X27314323Y-23427100D01*
X26889175Y-23852248D01*
X26889175Y-24076754D01*
X26988565Y-24176144D01*
X27221955Y-24272817D01*
X27474573Y-24272818D01*
X27707962Y-24176145D01*
X27773412Y-24110695D01*
X27773412Y-26582588D01*
X27696189Y-26582588D01*
X27519412Y-26759365D01*
X27519412Y-26405811D01*
X27519412Y-26181305D01*
X27453962Y-26115855D01*
X27220573Y-26019182D01*
X26967955Y-26019183D01*
X26734565Y-26115856D01*
X26635175Y-26215246D01*
X26635175Y-26439752D01*
X27060323Y-26864900D01*
X27519412Y-26405811D01*
X27519412Y-26759365D01*
X27237100Y-27041677D01*
X27662248Y-27466825D01*
X27886754Y-27466825D01*
X27986144Y-27367435D01*
X28082817Y-27134045D01*
X28082818Y-26881427D01*
X28082818Y-32181800D01*
X25908000Y-32181800D01*
X25587235Y-32245604D01*
X25315303Y-32427303D01*
X24968200Y-32774406D01*
X24968200Y-30480000D01*
X24904396Y-30159235D01*
X24722697Y-29887303D01*
X22722688Y-27887294D01*
X22987656Y-27940000D01*
X23483371Y-27940000D01*
X23483371Y-27939999D01*
X23692743Y-27898353D01*
X23706103Y-27911713D01*
X23939492Y-28008386D01*
X24192111Y-28008387D01*
X24425500Y-27911714D01*
X24500696Y-27836517D01*
X24568760Y-27881996D01*
X24568761Y-27881996D01*
X24860365Y-27940000D01*
X25257182Y-27940000D01*
X25257182Y-27982573D01*
X25353855Y-28215962D01*
X25532483Y-28394591D01*
X25886037Y-28748144D01*
X26119426Y-28844817D01*
X26372045Y-28844818D01*
X26605434Y-28748145D01*
X26784062Y-28569517D01*
X27208326Y-28145253D01*
X27259560Y-28021560D01*
X27383253Y-27970326D01*
X27482643Y-27870936D01*
X27482643Y-27646430D01*
X27057495Y-27221282D01*
X27043352Y-27235424D01*
X26866575Y-27058647D01*
X26880718Y-27044505D01*
X26455570Y-26619357D01*
X26231064Y-26619357D01*
X26194116Y-26656304D01*
X26176997Y-26639185D01*
X25929787Y-26474004D01*
X25772142Y-26442646D01*
X25981135Y-26356079D01*
X26159764Y-26177450D01*
X27149713Y-25187501D01*
X27246386Y-24954112D01*
X27246387Y-24701493D01*
X27149714Y-24468104D01*
X26971085Y-24289475D01*
X26373106Y-23691496D01*
X26430997Y-23652815D01*
X26448116Y-23635695D01*
X26485064Y-23672643D01*
X26709570Y-23672643D01*
X27134718Y-23247495D01*
X27120575Y-23233352D01*
X27297352Y-23056575D01*
X27311495Y-23070718D01*
X27736643Y-22645570D01*
X27736643Y-22421064D01*
X27637253Y-22321674D01*
X27513561Y-22270439D01*
X27462327Y-22146748D01*
X27283699Y-21968120D01*
X26859435Y-21543856D01*
X26626045Y-21447183D01*
X26373427Y-21447182D01*
X26140038Y-21543855D01*
X25961409Y-21722483D01*
X25607856Y-22076037D01*
X25511183Y-22309426D01*
X25511182Y-22352000D01*
X25284629Y-22352000D01*
X25075256Y-22393646D01*
X25061897Y-22380287D01*
X24828508Y-22283614D01*
X24575889Y-22283613D01*
X24342500Y-22380286D01*
X24163871Y-22558915D01*
X24116786Y-22606000D01*
X23368000Y-22606000D01*
X23076395Y-22664004D01*
X22829185Y-22829185D01*
X22036370Y-23622000D01*
X21779094Y-23622000D01*
X20547300Y-22390206D01*
X20527506Y-22382007D01*
X20549096Y-22373065D01*
X20727724Y-22194437D01*
X22141216Y-20780944D01*
X22237889Y-20547555D01*
X22237889Y-20545975D01*
X22463864Y-20320000D01*
X26100370Y-20320000D01*
X30479998Y-24699628D01*
X30479998Y-28386372D01*
X29211869Y-29654500D01*
X28996216Y-29654313D01*
X28599311Y-29818311D01*
X28336818Y-30080346D01*
X28336818Y-23410573D01*
X28336817Y-23157955D01*
X28240144Y-22924565D01*
X28140754Y-22825175D01*
X27916248Y-22825175D01*
X27491100Y-23250323D01*
X27950189Y-23709412D01*
X28174695Y-23709412D01*
X28240145Y-23643962D01*
X28336818Y-23410573D01*
X28336818Y-30080346D01*
X28295378Y-30121714D01*
X28130687Y-30518332D01*
X28130313Y-30947784D01*
X28294311Y-31344689D01*
X28597714Y-31648622D01*
X28994332Y-31813313D01*
X29423784Y-31813687D01*
X29820689Y-31649689D01*
X30124622Y-31346286D01*
X30289313Y-30949668D01*
X30289502Y-30732127D01*
X30670611Y-30351018D01*
X30670313Y-30693784D01*
X30834311Y-31090689D01*
X31137714Y-31394622D01*
X31534332Y-31559313D01*
X31963784Y-31559687D01*
X32360689Y-31395689D01*
X32664622Y-31092286D01*
X32829313Y-30695668D01*
X32829687Y-30266216D01*
X32665689Y-29869311D01*
X32512000Y-29715353D01*
X32512000Y-25349200D01*
X32512000Y-25294784D01*
X36003913Y-28786697D01*
X36275844Y-28968396D01*
X36275845Y-28968396D01*
X36289830Y-28971177D01*
X36289830Y-28971177D01*
G37*
X36289830Y-28971177D02*
X33079208Y-32181800D01*
X31496000Y-32181800D01*
X28082818Y-32181800D01*
X28082818Y-26881427D01*
X27986145Y-26648038D01*
X27920695Y-26582588D01*
X27773412Y-26582588D01*
X27773412Y-24110695D01*
X27773412Y-23886189D01*
X27314323Y-23427100D01*
X26889175Y-23852248D01*
X26889175Y-24076754D01*
X26988565Y-24176144D01*
X27221955Y-24272817D01*
X27474573Y-24272818D01*
X27707962Y-24176145D01*
X27773412Y-24110695D01*
X27773412Y-26582588D01*
X27696189Y-26582588D01*
X27519412Y-26759365D01*
X27519412Y-26405811D01*
X27519412Y-26181305D01*
X27453962Y-26115855D01*
X27220573Y-26019182D01*
X26967955Y-26019183D01*
X26734565Y-26115856D01*
X26635175Y-26215246D01*
X26635175Y-26439752D01*
X27060323Y-26864900D01*
X27519412Y-26405811D01*
X27519412Y-26759365D01*
X27237100Y-27041677D01*
X27662248Y-27466825D01*
X27886754Y-27466825D01*
X27986144Y-27367435D01*
X28082817Y-27134045D01*
X28082818Y-26881427D01*
X28082818Y-32181800D01*
X25908000Y-32181800D01*
X25587235Y-32245604D01*
X25315303Y-32427303D01*
X24968200Y-32774406D01*
X24968200Y-30480000D01*
X24904396Y-30159235D01*
X24722697Y-29887303D01*
X22722688Y-27887294D01*
X22987656Y-27940000D01*
X23483371Y-27940000D01*
X23483371Y-27939999D01*
X23692743Y-27898353D01*
X23706103Y-27911713D01*
X23939492Y-28008386D01*
X24192111Y-28008387D01*
X24425500Y-27911714D01*
X24500696Y-27836517D01*
X24568760Y-27881996D01*
X24568761Y-27881996D01*
X24860365Y-27940000D01*
X25257182Y-27940000D01*
X25257182Y-27982573D01*
X25353855Y-28215962D01*
X25532483Y-28394591D01*
X25886037Y-28748144D01*
X26119426Y-28844817D01*
X26372045Y-28844818D01*
X26605434Y-28748145D01*
X26784062Y-28569517D01*
X27208326Y-28145253D01*
X27259560Y-28021560D01*
X27383253Y-27970326D01*
X27482643Y-27870936D01*
X27482643Y-27646430D01*
X27057495Y-27221282D01*
X27043352Y-27235424D01*
X26866575Y-27058647D01*
X26880718Y-27044505D01*
X26455570Y-26619357D01*
X26231064Y-26619357D01*
X26194116Y-26656304D01*
X26176997Y-26639185D01*
X25929787Y-26474004D01*
X25772142Y-26442646D01*
X25981135Y-26356079D01*
X26159764Y-26177450D01*
X27149713Y-25187501D01*
X27246386Y-24954112D01*
X27246387Y-24701493D01*
X27149714Y-24468104D01*
X26971085Y-24289475D01*
X26373106Y-23691496D01*
X26430997Y-23652815D01*
X26448116Y-23635695D01*
X26485064Y-23672643D01*
X26709570Y-23672643D01*
X27134718Y-23247495D01*
X27120575Y-23233352D01*
X27297352Y-23056575D01*
X27311495Y-23070718D01*
X27736643Y-22645570D01*
X27736643Y-22421064D01*
X27637253Y-22321674D01*
X27513561Y-22270439D01*
X27462327Y-22146748D01*
X27283699Y-21968120D01*
X26859435Y-21543856D01*
X26626045Y-21447183D01*
X26373427Y-21447182D01*
X26140038Y-21543855D01*
X25961409Y-21722483D01*
X25607856Y-22076037D01*
X25511183Y-22309426D01*
X25511182Y-22352000D01*
X25284629Y-22352000D01*
X25075256Y-22393646D01*
X25061897Y-22380287D01*
X24828508Y-22283614D01*
X24575889Y-22283613D01*
X24342500Y-22380286D01*
X24163871Y-22558915D01*
X24116786Y-22606000D01*
X23368000Y-22606000D01*
X23076395Y-22664004D01*
X22829185Y-22829185D01*
X22036370Y-23622000D01*
X21779094Y-23622000D01*
X20547300Y-22390206D01*
X20527506Y-22382007D01*
X20549096Y-22373065D01*
X20727724Y-22194437D01*
X22141216Y-20780944D01*
X22237889Y-20547555D01*
X22237889Y-20545975D01*
X22463864Y-20320000D01*
X26100370Y-20320000D01*
X30479998Y-24699628D01*
X30479998Y-28386372D01*
X29211869Y-29654500D01*
X28996216Y-29654313D01*
X28599311Y-29818311D01*
X28336818Y-30080346D01*
X28336818Y-23410573D01*
X28336817Y-23157955D01*
X28240144Y-22924565D01*
X28140754Y-22825175D01*
X27916248Y-22825175D01*
X27491100Y-23250323D01*
X27950189Y-23709412D01*
X28174695Y-23709412D01*
X28240145Y-23643962D01*
X28336818Y-23410573D01*
X28336818Y-30080346D01*
X28295378Y-30121714D01*
X28130687Y-30518332D01*
X28130313Y-30947784D01*
X28294311Y-31344689D01*
X28597714Y-31648622D01*
X28994332Y-31813313D01*
X29423784Y-31813687D01*
X29820689Y-31649689D01*
X30124622Y-31346286D01*
X30289313Y-30949668D01*
X30289502Y-30732127D01*
X30670611Y-30351018D01*
X30670313Y-30693784D01*
X30834311Y-31090689D01*
X31137714Y-31394622D01*
X31534332Y-31559313D01*
X31963784Y-31559687D01*
X32360689Y-31395689D01*
X32664622Y-31092286D01*
X32829313Y-30695668D01*
X32829687Y-30266216D01*
X32665689Y-29869311D01*
X32512000Y-29715353D01*
X32512000Y-25349200D01*
X32512000Y-25294784D01*
X36003913Y-28786697D01*
X36275844Y-28968396D01*
X36275845Y-28968396D01*
X36289830Y-28971177D01*
G36*
X59513000Y-37415000D02*
X55956200Y-37415000D01*
X55956200Y-26670000D01*
X55956200Y-16002000D01*
X55892396Y-15681235D01*
X55710697Y-15409303D01*
X48894697Y-8593303D01*
X48622766Y-8411604D01*
X48302000Y-8347800D01*
X40509000Y-8347800D01*
X40509000Y-7800250D01*
X40509000Y-7659691D01*
X40412327Y-7426302D01*
X40233699Y-7247673D01*
X40000310Y-7151000D01*
X39907750Y-7151000D01*
X39749000Y-7309750D01*
X39749000Y-7959000D01*
X40350250Y-7959000D01*
X40509000Y-7800250D01*
X40509000Y-8347800D01*
X40485050Y-8347800D01*
X40350250Y-8213000D01*
X39749000Y-8213000D01*
X39749000Y-8233000D01*
X39499000Y-8233000D01*
X39499000Y-8213000D01*
X39499000Y-7959000D01*
X39499000Y-7309750D01*
X39340250Y-7151000D01*
X39247690Y-7151000D01*
X39014301Y-7247673D01*
X38835673Y-7426302D01*
X38752780Y-7626423D01*
X38752780Y-7555810D01*
X38752780Y-7303191D01*
X38752780Y-6104311D01*
X38656107Y-5870922D01*
X38477479Y-5692293D01*
X38244090Y-5595620D01*
X37991471Y-5595620D01*
X37442831Y-5595620D01*
X37209442Y-5692293D01*
X37030813Y-5870921D01*
X36934140Y-6104310D01*
X36934140Y-6356929D01*
X36934140Y-7555809D01*
X37030813Y-7789198D01*
X37209441Y-7967827D01*
X37442830Y-8064500D01*
X37695449Y-8064500D01*
X38244089Y-8064500D01*
X38477478Y-7967827D01*
X38656107Y-7789199D01*
X38752780Y-7555810D01*
X38752780Y-7626423D01*
X38739000Y-7659691D01*
X38739000Y-7800250D01*
X38897750Y-7959000D01*
X39499000Y-7959000D01*
X39499000Y-8213000D01*
X38897750Y-8213000D01*
X38739000Y-8371750D01*
X38739000Y-8421115D01*
X38659254Y-8474399D01*
X38656107Y-8466802D01*
X38477479Y-8288173D01*
X38244090Y-8191500D01*
X37991471Y-8191500D01*
X37442831Y-8191500D01*
X37368480Y-8222297D01*
X37294129Y-8191500D01*
X37179250Y-8191500D01*
X37020500Y-8350250D01*
X37020500Y-8491698D01*
X36934140Y-8700190D01*
X36934140Y-8952809D01*
X36934140Y-9572940D01*
X36852860Y-9572940D01*
X36852860Y-8700191D01*
X36766500Y-8491699D01*
X36766500Y-8350250D01*
X36607750Y-8191500D01*
X36492871Y-8191500D01*
X36418520Y-8222297D01*
X36344170Y-8191500D01*
X36091551Y-8191500D01*
X35542911Y-8191500D01*
X35309522Y-8288173D01*
X35130893Y-8466801D01*
X35034220Y-8700190D01*
X35034220Y-8952809D01*
X35034220Y-10151689D01*
X35105340Y-10323387D01*
X35105340Y-10480040D01*
X35169144Y-10800806D01*
X35350843Y-11072737D01*
X35792803Y-11514697D01*
X36064735Y-11696396D01*
X36385500Y-11760200D01*
X36893500Y-11760200D01*
X37401500Y-11760200D01*
X37722265Y-11696396D01*
X37722266Y-11696396D01*
X37994197Y-11514697D01*
X38436157Y-11072737D01*
X38617856Y-10800805D01*
X38681660Y-10480040D01*
X38681660Y-10323388D01*
X38706201Y-10264140D01*
X38834060Y-10264140D01*
X39154825Y-10200336D01*
X39154826Y-10200336D01*
X39273559Y-10121000D01*
X39273560Y-10121000D01*
X39500309Y-10121000D01*
X40000309Y-10121000D01*
X40233698Y-10024327D01*
X40233825Y-10024200D01*
X47954806Y-10024200D01*
X54279800Y-16349194D01*
X54279800Y-24583490D01*
X53913489Y-24338729D01*
X53340000Y-24224655D01*
X52766511Y-24338729D01*
X52280330Y-24663585D01*
X52197000Y-24788297D01*
X52113670Y-24663585D01*
X51892200Y-24515603D01*
X51892200Y-22091825D01*
X51892327Y-22091699D01*
X51989000Y-21858310D01*
X51989000Y-21605691D01*
X51989000Y-21205691D01*
X51937765Y-21082000D01*
X51989000Y-20958309D01*
X51989000Y-20890750D01*
X51989000Y-20373250D01*
X51989000Y-20305691D01*
X51892327Y-20072302D01*
X51713699Y-19893673D01*
X51480310Y-19797000D01*
X51339750Y-19797000D01*
X51181000Y-19955750D01*
X51181000Y-20532000D01*
X51830250Y-20532000D01*
X51989000Y-20373250D01*
X51989000Y-20890750D01*
X51830250Y-20732000D01*
X51564807Y-20732000D01*
X51480310Y-20697000D01*
X51227691Y-20697000D01*
X51070087Y-20697000D01*
X51054000Y-20693800D01*
X51037912Y-20697000D01*
X50927000Y-20697000D01*
X50927000Y-20532000D01*
X50927000Y-19955750D01*
X50768250Y-19797000D01*
X50627690Y-19797000D01*
X50394301Y-19893673D01*
X50215673Y-20072302D01*
X50119000Y-20305691D01*
X50119000Y-20373250D01*
X50277750Y-20532000D01*
X50927000Y-20532000D01*
X50927000Y-20697000D01*
X50627691Y-20697000D01*
X50543193Y-20732000D01*
X50277750Y-20732000D01*
X50119000Y-20890750D01*
X50119000Y-20958309D01*
X50170234Y-21081999D01*
X50119000Y-21205690D01*
X50119000Y-21458309D01*
X50119000Y-21858309D01*
X50215673Y-22091698D01*
X50215800Y-22091825D01*
X50215800Y-24515603D01*
X49994330Y-24663585D01*
X49758600Y-25016379D01*
X49758600Y-24765691D01*
X49661927Y-24532302D01*
X49483299Y-24353673D01*
X49249910Y-24257000D01*
X48997291Y-24257000D01*
X47270091Y-24257000D01*
X47036702Y-24353673D01*
X46858073Y-24532301D01*
X46761400Y-24765690D01*
X46761400Y-25018309D01*
X46761400Y-26221206D01*
X46287208Y-26695398D01*
X37217352Y-26695398D01*
X27734651Y-17212697D01*
X27462720Y-17030998D01*
X27141954Y-16967194D01*
X20524263Y-16967194D01*
X20203497Y-17030998D01*
X20066002Y-17122869D01*
X20066002Y-14198476D01*
X20548474Y-13716004D01*
X29209996Y-13716004D01*
X29209996Y-13716003D01*
X29501600Y-13658000D01*
X29501601Y-13658000D01*
X29748811Y-13492819D01*
X30097131Y-13144499D01*
X30312784Y-13144687D01*
X30709689Y-12980689D01*
X31013622Y-12677286D01*
X31178313Y-12280668D01*
X31178687Y-11851216D01*
X31014689Y-11454311D01*
X30711286Y-11150378D01*
X30583876Y-11097472D01*
X30675996Y-10959605D01*
X30675997Y-10959604D01*
X30734000Y-10668000D01*
X30734000Y-7112000D01*
X30675996Y-6820396D01*
X30675996Y-6820395D01*
X30609834Y-6721376D01*
X30510816Y-6573185D01*
X29748815Y-5811185D01*
X29719016Y-5791274D01*
X29719016Y-5791273D01*
X29755604Y-5783996D01*
X29755605Y-5783996D01*
X30002815Y-5618815D01*
X30599630Y-5022000D01*
X30639452Y-5022000D01*
X30815690Y-5095000D01*
X31068309Y-5095000D01*
X31668309Y-5095000D01*
X31901698Y-4998327D01*
X32080327Y-4819699D01*
X32177000Y-4586310D01*
X32177000Y-4333691D01*
X32177000Y-4198200D01*
X32730806Y-4198200D01*
X33485303Y-4952697D01*
X33757235Y-5134396D01*
X34078000Y-5198200D01*
X35039300Y-5198200D01*
X35039300Y-5651500D01*
X35098500Y-5949122D01*
X35098500Y-5949123D01*
X35034220Y-6104310D01*
X35034220Y-6356929D01*
X35034220Y-7555809D01*
X35130893Y-7789198D01*
X35309521Y-7967827D01*
X35542910Y-8064500D01*
X35795529Y-8064500D01*
X36344169Y-8064500D01*
X36577558Y-7967827D01*
X36756187Y-7789199D01*
X36852860Y-7555810D01*
X36852860Y-7303191D01*
X36852860Y-6104311D01*
X36781740Y-5932612D01*
X36781740Y-5717540D01*
X36717936Y-5396775D01*
X36715700Y-5393428D01*
X36715700Y-4899295D01*
X36762500Y-4786310D01*
X36762500Y-4533691D01*
X36762500Y-3933691D01*
X36711265Y-3810000D01*
X36762500Y-3686309D01*
X36762500Y-3545750D01*
X36762500Y-2974250D01*
X36762500Y-2833691D01*
X36665827Y-2600302D01*
X36487199Y-2421673D01*
X36253810Y-2325000D01*
X36161250Y-2325000D01*
X36002500Y-2483750D01*
X36002500Y-3133000D01*
X36603750Y-3133000D01*
X36762500Y-2974250D01*
X36762500Y-3545750D01*
X36603750Y-3387000D01*
X36002500Y-3387000D01*
X36002500Y-3407000D01*
X35752500Y-3407000D01*
X35752500Y-3387000D01*
X35752500Y-3133000D01*
X35752500Y-2483750D01*
X35593750Y-2325000D01*
X35501190Y-2325000D01*
X35267801Y-2421673D01*
X35089173Y-2600302D01*
X34992500Y-2833691D01*
X34992500Y-2974250D01*
X35151250Y-3133000D01*
X35752500Y-3133000D01*
X35752500Y-3387000D01*
X35151250Y-3387000D01*
X35016450Y-3521800D01*
X34425194Y-3521800D01*
X33670697Y-2767303D01*
X33398766Y-2585604D01*
X33078000Y-2521800D01*
X31242000Y-2521800D01*
X30631194Y-2521800D01*
X30056697Y-1947303D01*
X29784766Y-1765604D01*
X29464000Y-1701800D01*
X29421268Y-1701800D01*
X29253670Y-1450971D01*
X28767489Y-1126115D01*
X28194000Y-1012041D01*
X27620511Y-1126115D01*
X27134330Y-1450971D01*
X26918336Y-1774228D01*
X26860821Y-1651510D01*
X26428947Y-1257312D01*
X26013026Y-1085042D01*
X25781000Y-1206183D01*
X25781000Y-2413000D01*
X25801000Y-2413000D01*
X25801000Y-2667000D01*
X25781000Y-2667000D01*
X25781000Y-2687000D01*
X25527000Y-2687000D01*
X25527000Y-2667000D01*
X25527000Y-2413000D01*
X25527000Y-1206183D01*
X25294974Y-1085042D01*
X24879053Y-1257312D01*
X24447179Y-1651510D01*
X24199032Y-2180973D01*
X24319531Y-2413000D01*
X25527000Y-2413000D01*
X25527000Y-2667000D01*
X24319531Y-2667000D01*
X24199032Y-2899027D01*
X24268852Y-3048000D01*
X18794130Y-3048000D01*
X18699815Y-2953685D01*
X18452605Y-2788504D01*
X18161000Y-2730500D01*
X12636500Y-2730500D01*
X12344895Y-2788504D01*
X12097684Y-2953685D01*
X11017840Y-4033530D01*
X10852659Y-4280740D01*
X10794655Y-4572345D01*
X10794655Y-8828714D01*
X9811688Y-9811681D01*
X9811685Y-9811684D01*
X9176685Y-10446685D01*
X9011504Y-10693895D01*
X8953500Y-10985500D01*
X8953500Y-11046358D01*
X8800878Y-11198714D01*
X8636187Y-11595332D01*
X8635813Y-12024784D01*
X8799811Y-12421689D01*
X9080001Y-12702368D01*
X8625942Y-13156427D01*
X8597668Y-13144687D01*
X8168216Y-13144313D01*
X7771311Y-13308311D01*
X7467378Y-13611714D01*
X7302687Y-14008332D01*
X7302313Y-14437784D01*
X7431694Y-14750911D01*
X6773303Y-15409303D01*
X6591604Y-15681234D01*
X6527800Y-16002000D01*
X6527800Y-18477814D01*
X6527800Y-19972806D01*
X6323303Y-20177303D01*
X6141604Y-20449234D01*
X6077800Y-20770000D01*
X6077800Y-22352000D01*
X6077800Y-23035063D01*
X6041604Y-23089234D01*
X5977800Y-23410000D01*
X5977800Y-23774174D01*
X5977673Y-23774301D01*
X5881000Y-24007690D01*
X5881000Y-24133606D01*
X5109599Y-24905007D01*
X4927900Y-25176938D01*
X4864096Y-25497704D01*
X4864096Y-29095704D01*
X4864096Y-33066510D01*
X4733335Y-33197270D01*
X4318000Y-33114655D01*
X3744511Y-33228729D01*
X3258330Y-33553585D01*
X2933474Y-34039766D01*
X2819400Y-34613255D01*
X2819400Y-34982745D01*
X2933474Y-35556234D01*
X3258330Y-36042415D01*
X3744511Y-36367271D01*
X4318000Y-36481345D01*
X4891489Y-36367271D01*
X5377670Y-36042415D01*
X5588000Y-35727634D01*
X5798330Y-36042415D01*
X6284511Y-36367271D01*
X6858000Y-36481345D01*
X7431489Y-36367271D01*
X7686948Y-36196578D01*
X8351185Y-36860816D01*
X8499376Y-36959834D01*
X8598395Y-37025996D01*
X8598396Y-37025996D01*
X8890000Y-37084000D01*
X10414000Y-37084000D01*
X10414000Y-37083999D01*
X10705604Y-37025996D01*
X10705605Y-37025996D01*
X10952815Y-36860815D01*
X11432779Y-36380850D01*
X11938000Y-36481345D01*
X12511489Y-36367271D01*
X12997670Y-36042415D01*
X13012499Y-36020220D01*
X13076073Y-36173699D01*
X13254702Y-36352327D01*
X13488091Y-36449000D01*
X14192250Y-36449000D01*
X14351000Y-36290250D01*
X14351000Y-34925000D01*
X14331000Y-34925000D01*
X14331000Y-34671000D01*
X14351000Y-34671000D01*
X14351000Y-33305750D01*
X14192250Y-33147000D01*
X13488091Y-33147000D01*
X13254702Y-33243673D01*
X13076073Y-33422301D01*
X13012499Y-33575779D01*
X12997670Y-33553585D01*
X12511489Y-33228729D01*
X11938000Y-33114655D01*
X11364511Y-33228729D01*
X10878330Y-33553585D01*
X10668000Y-33868365D01*
X10556354Y-33701276D01*
X11778315Y-32479316D01*
X11778315Y-32479315D01*
X11778317Y-32479312D01*
X13365815Y-30891815D01*
X13530996Y-30644605D01*
X13530996Y-30644604D01*
X13588999Y-30353000D01*
X13589000Y-30353000D01*
X13589000Y-29238057D01*
X13763615Y-29165730D01*
X13942243Y-28987102D01*
X14829857Y-28099487D01*
X15717185Y-28986815D01*
X16509998Y-29779628D01*
X16509998Y-31706422D01*
X16568002Y-31998027D01*
X16733183Y-32245237D01*
X17970561Y-33482616D01*
X18033552Y-33524704D01*
X17990330Y-33553585D01*
X17665474Y-34039766D01*
X17551400Y-34613255D01*
X17551400Y-34982745D01*
X17665474Y-35556234D01*
X17990330Y-36042415D01*
X18476511Y-36367271D01*
X19050000Y-36481345D01*
X19623489Y-36367271D01*
X20109670Y-36042415D01*
X20320000Y-35727634D01*
X20530330Y-36042415D01*
X21016511Y-36367271D01*
X21590000Y-36481345D01*
X22163489Y-36367271D01*
X22418948Y-36196578D01*
X23083185Y-36860816D01*
X23231376Y-36959834D01*
X23330395Y-37025996D01*
X23330396Y-37025996D01*
X23622000Y-37084000D01*
X27686000Y-37084000D01*
X27686000Y-37083999D01*
X27977604Y-37025996D01*
X27977605Y-37025996D01*
X28224815Y-36860815D01*
X28704779Y-36380850D01*
X29210000Y-36481345D01*
X29783489Y-36367271D01*
X30269670Y-36042415D01*
X30480000Y-35727634D01*
X30690330Y-36042415D01*
X31176511Y-36367271D01*
X31750000Y-36481345D01*
X32323489Y-36367271D01*
X32809670Y-36042415D01*
X32824499Y-36020220D01*
X32888073Y-36173699D01*
X33066702Y-36352327D01*
X33300091Y-36449000D01*
X34004250Y-36449000D01*
X34163000Y-36290250D01*
X34163000Y-34925000D01*
X34143000Y-34925000D01*
X34143000Y-34671000D01*
X34163000Y-34671000D01*
X34163000Y-34651000D01*
X34417000Y-34651000D01*
X34417000Y-34671000D01*
X35629850Y-34671000D01*
X35788600Y-34512250D01*
X35788600Y-33908309D01*
X35788600Y-33655690D01*
X35691927Y-33422301D01*
X35513298Y-33243673D01*
X35279909Y-33147000D01*
X34575750Y-33147000D01*
X34417002Y-33305748D01*
X34417002Y-33214793D01*
X37939193Y-29692602D01*
X52933598Y-29692602D01*
X53254363Y-29628798D01*
X53254364Y-29628798D01*
X53526295Y-29447099D01*
X55710697Y-27262697D01*
X55892396Y-26990766D01*
X55892396Y-26990765D01*
X55956200Y-26670000D01*
X55956200Y-37415000D01*
X35788600Y-37415000D01*
X35788600Y-35940310D01*
X35788600Y-35687691D01*
X35788600Y-35083750D01*
X35629850Y-34925000D01*
X34417000Y-34925000D01*
X34417000Y-36290250D01*
X34575750Y-36449000D01*
X35279909Y-36449000D01*
X35513298Y-36352327D01*
X35691927Y-36173699D01*
X35788600Y-35940310D01*
X35788600Y-37415000D01*
X15976600Y-37415000D01*
X15976600Y-35940310D01*
X15976600Y-35687691D01*
X15976600Y-35083750D01*
X15976600Y-34512250D01*
X15976600Y-33908309D01*
X15976600Y-33655690D01*
X15879927Y-33422301D01*
X15701298Y-33243673D01*
X15467909Y-33147000D01*
X14763750Y-33147000D01*
X14605000Y-33305750D01*
X14605000Y-34671000D01*
X15817850Y-34671000D01*
X15976600Y-34512250D01*
X15976600Y-35083750D01*
X15817850Y-34925000D01*
X14605000Y-34925000D01*
X14605000Y-36290250D01*
X14763750Y-36449000D01*
X15467909Y-36449000D01*
X15701298Y-36352327D01*
X15879927Y-36173699D01*
X15976600Y-35940310D01*
X15976600Y-37415000D01*
X685000Y-37415000D01*
X685000Y-8305000D01*
X7620000Y-8305000D01*
X7882138Y-8252857D01*
X8104368Y-8104368D01*
X8252857Y-7882138D01*
X8305000Y-7620000D01*
X8305000Y-685000D01*
X56211000Y-685000D01*
X56211000Y-7620000D01*
X56263143Y-7882138D01*
X56411632Y-8104368D01*
X56633862Y-8252857D01*
X56896000Y-8305000D01*
X59513000Y-8305000D01*
X59513000Y-37415000D01*
X59513000Y-37415000D01*
G37*
X59513000Y-37415000D02*
X55956200Y-37415000D01*
X55956200Y-26670000D01*
X55956200Y-16002000D01*
X55892396Y-15681235D01*
X55710697Y-15409303D01*
X48894697Y-8593303D01*
X48622766Y-8411604D01*
X48302000Y-8347800D01*
X40509000Y-8347800D01*
X40509000Y-7800250D01*
X40509000Y-7659691D01*
X40412327Y-7426302D01*
X40233699Y-7247673D01*
X40000310Y-7151000D01*
X39907750Y-7151000D01*
X39749000Y-7309750D01*
X39749000Y-7959000D01*
X40350250Y-7959000D01*
X40509000Y-7800250D01*
X40509000Y-8347800D01*
X40485050Y-8347800D01*
X40350250Y-8213000D01*
X39749000Y-8213000D01*
X39749000Y-8233000D01*
X39499000Y-8233000D01*
X39499000Y-8213000D01*
X39499000Y-7959000D01*
X39499000Y-7309750D01*
X39340250Y-7151000D01*
X39247690Y-7151000D01*
X39014301Y-7247673D01*
X38835673Y-7426302D01*
X38752780Y-7626423D01*
X38752780Y-7555810D01*
X38752780Y-7303191D01*
X38752780Y-6104311D01*
X38656107Y-5870922D01*
X38477479Y-5692293D01*
X38244090Y-5595620D01*
X37991471Y-5595620D01*
X37442831Y-5595620D01*
X37209442Y-5692293D01*
X37030813Y-5870921D01*
X36934140Y-6104310D01*
X36934140Y-6356929D01*
X36934140Y-7555809D01*
X37030813Y-7789198D01*
X37209441Y-7967827D01*
X37442830Y-8064500D01*
X37695449Y-8064500D01*
X38244089Y-8064500D01*
X38477478Y-7967827D01*
X38656107Y-7789199D01*
X38752780Y-7555810D01*
X38752780Y-7626423D01*
X38739000Y-7659691D01*
X38739000Y-7800250D01*
X38897750Y-7959000D01*
X39499000Y-7959000D01*
X39499000Y-8213000D01*
X38897750Y-8213000D01*
X38739000Y-8371750D01*
X38739000Y-8421115D01*
X38659254Y-8474399D01*
X38656107Y-8466802D01*
X38477479Y-8288173D01*
X38244090Y-8191500D01*
X37991471Y-8191500D01*
X37442831Y-8191500D01*
X37368480Y-8222297D01*
X37294129Y-8191500D01*
X37179250Y-8191500D01*
X37020500Y-8350250D01*
X37020500Y-8491698D01*
X36934140Y-8700190D01*
X36934140Y-8952809D01*
X36934140Y-9572940D01*
X36852860Y-9572940D01*
X36852860Y-8700191D01*
X36766500Y-8491699D01*
X36766500Y-8350250D01*
X36607750Y-8191500D01*
X36492871Y-8191500D01*
X36418520Y-8222297D01*
X36344170Y-8191500D01*
X36091551Y-8191500D01*
X35542911Y-8191500D01*
X35309522Y-8288173D01*
X35130893Y-8466801D01*
X35034220Y-8700190D01*
X35034220Y-8952809D01*
X35034220Y-10151689D01*
X35105340Y-10323387D01*
X35105340Y-10480040D01*
X35169144Y-10800806D01*
X35350843Y-11072737D01*
X35792803Y-11514697D01*
X36064735Y-11696396D01*
X36385500Y-11760200D01*
X36893500Y-11760200D01*
X37401500Y-11760200D01*
X37722265Y-11696396D01*
X37722266Y-11696396D01*
X37994197Y-11514697D01*
X38436157Y-11072737D01*
X38617856Y-10800805D01*
X38681660Y-10480040D01*
X38681660Y-10323388D01*
X38706201Y-10264140D01*
X38834060Y-10264140D01*
X39154825Y-10200336D01*
X39154826Y-10200336D01*
X39273559Y-10121000D01*
X39273560Y-10121000D01*
X39500309Y-10121000D01*
X40000309Y-10121000D01*
X40233698Y-10024327D01*
X40233825Y-10024200D01*
X47954806Y-10024200D01*
X54279800Y-16349194D01*
X54279800Y-24583490D01*
X53913489Y-24338729D01*
X53340000Y-24224655D01*
X52766511Y-24338729D01*
X52280330Y-24663585D01*
X52197000Y-24788297D01*
X52113670Y-24663585D01*
X51892200Y-24515603D01*
X51892200Y-22091825D01*
X51892327Y-22091699D01*
X51989000Y-21858310D01*
X51989000Y-21605691D01*
X51989000Y-21205691D01*
X51937765Y-21082000D01*
X51989000Y-20958309D01*
X51989000Y-20890750D01*
X51989000Y-20373250D01*
X51989000Y-20305691D01*
X51892327Y-20072302D01*
X51713699Y-19893673D01*
X51480310Y-19797000D01*
X51339750Y-19797000D01*
X51181000Y-19955750D01*
X51181000Y-20532000D01*
X51830250Y-20532000D01*
X51989000Y-20373250D01*
X51989000Y-20890750D01*
X51830250Y-20732000D01*
X51564807Y-20732000D01*
X51480310Y-20697000D01*
X51227691Y-20697000D01*
X51070087Y-20697000D01*
X51054000Y-20693800D01*
X51037912Y-20697000D01*
X50927000Y-20697000D01*
X50927000Y-20532000D01*
X50927000Y-19955750D01*
X50768250Y-19797000D01*
X50627690Y-19797000D01*
X50394301Y-19893673D01*
X50215673Y-20072302D01*
X50119000Y-20305691D01*
X50119000Y-20373250D01*
X50277750Y-20532000D01*
X50927000Y-20532000D01*
X50927000Y-20697000D01*
X50627691Y-20697000D01*
X50543193Y-20732000D01*
X50277750Y-20732000D01*
X50119000Y-20890750D01*
X50119000Y-20958309D01*
X50170234Y-21081999D01*
X50119000Y-21205690D01*
X50119000Y-21458309D01*
X50119000Y-21858309D01*
X50215673Y-22091698D01*
X50215800Y-22091825D01*
X50215800Y-24515603D01*
X49994330Y-24663585D01*
X49758600Y-25016379D01*
X49758600Y-24765691D01*
X49661927Y-24532302D01*
X49483299Y-24353673D01*
X49249910Y-24257000D01*
X48997291Y-24257000D01*
X47270091Y-24257000D01*
X47036702Y-24353673D01*
X46858073Y-24532301D01*
X46761400Y-24765690D01*
X46761400Y-25018309D01*
X46761400Y-26221206D01*
X46287208Y-26695398D01*
X37217352Y-26695398D01*
X27734651Y-17212697D01*
X27462720Y-17030998D01*
X27141954Y-16967194D01*
X20524263Y-16967194D01*
X20203497Y-17030998D01*
X20066002Y-17122869D01*
X20066002Y-14198476D01*
X20548474Y-13716004D01*
X29209996Y-13716004D01*
X29209996Y-13716003D01*
X29501600Y-13658000D01*
X29501601Y-13658000D01*
X29748811Y-13492819D01*
X30097131Y-13144499D01*
X30312784Y-13144687D01*
X30709689Y-12980689D01*
X31013622Y-12677286D01*
X31178313Y-12280668D01*
X31178687Y-11851216D01*
X31014689Y-11454311D01*
X30711286Y-11150378D01*
X30583876Y-11097472D01*
X30675996Y-10959605D01*
X30675997Y-10959604D01*
X30734000Y-10668000D01*
X30734000Y-7112000D01*
X30675996Y-6820396D01*
X30675996Y-6820395D01*
X30609834Y-6721376D01*
X30510816Y-6573185D01*
X29748815Y-5811185D01*
X29719016Y-5791274D01*
X29719016Y-5791273D01*
X29755604Y-5783996D01*
X29755605Y-5783996D01*
X30002815Y-5618815D01*
X30599630Y-5022000D01*
X30639452Y-5022000D01*
X30815690Y-5095000D01*
X31068309Y-5095000D01*
X31668309Y-5095000D01*
X31901698Y-4998327D01*
X32080327Y-4819699D01*
X32177000Y-4586310D01*
X32177000Y-4333691D01*
X32177000Y-4198200D01*
X32730806Y-4198200D01*
X33485303Y-4952697D01*
X33757235Y-5134396D01*
X34078000Y-5198200D01*
X35039300Y-5198200D01*
X35039300Y-5651500D01*
X35098500Y-5949122D01*
X35098500Y-5949123D01*
X35034220Y-6104310D01*
X35034220Y-6356929D01*
X35034220Y-7555809D01*
X35130893Y-7789198D01*
X35309521Y-7967827D01*
X35542910Y-8064500D01*
X35795529Y-8064500D01*
X36344169Y-8064500D01*
X36577558Y-7967827D01*
X36756187Y-7789199D01*
X36852860Y-7555810D01*
X36852860Y-7303191D01*
X36852860Y-6104311D01*
X36781740Y-5932612D01*
X36781740Y-5717540D01*
X36717936Y-5396775D01*
X36715700Y-5393428D01*
X36715700Y-4899295D01*
X36762500Y-4786310D01*
X36762500Y-4533691D01*
X36762500Y-3933691D01*
X36711265Y-3810000D01*
X36762500Y-3686309D01*
X36762500Y-3545750D01*
X36762500Y-2974250D01*
X36762500Y-2833691D01*
X36665827Y-2600302D01*
X36487199Y-2421673D01*
X36253810Y-2325000D01*
X36161250Y-2325000D01*
X36002500Y-2483750D01*
X36002500Y-3133000D01*
X36603750Y-3133000D01*
X36762500Y-2974250D01*
X36762500Y-3545750D01*
X36603750Y-3387000D01*
X36002500Y-3387000D01*
X36002500Y-3407000D01*
X35752500Y-3407000D01*
X35752500Y-3387000D01*
X35752500Y-3133000D01*
X35752500Y-2483750D01*
X35593750Y-2325000D01*
X35501190Y-2325000D01*
X35267801Y-2421673D01*
X35089173Y-2600302D01*
X34992500Y-2833691D01*
X34992500Y-2974250D01*
X35151250Y-3133000D01*
X35752500Y-3133000D01*
X35752500Y-3387000D01*
X35151250Y-3387000D01*
X35016450Y-3521800D01*
X34425194Y-3521800D01*
X33670697Y-2767303D01*
X33398766Y-2585604D01*
X33078000Y-2521800D01*
X31242000Y-2521800D01*
X30631194Y-2521800D01*
X30056697Y-1947303D01*
X29784766Y-1765604D01*
X29464000Y-1701800D01*
X29421268Y-1701800D01*
X29253670Y-1450971D01*
X28767489Y-1126115D01*
X28194000Y-1012041D01*
X27620511Y-1126115D01*
X27134330Y-1450971D01*
X26918336Y-1774228D01*
X26860821Y-1651510D01*
X26428947Y-1257312D01*
X26013026Y-1085042D01*
X25781000Y-1206183D01*
X25781000Y-2413000D01*
X25801000Y-2413000D01*
X25801000Y-2667000D01*
X25781000Y-2667000D01*
X25781000Y-2687000D01*
X25527000Y-2687000D01*
X25527000Y-2667000D01*
X25527000Y-2413000D01*
X25527000Y-1206183D01*
X25294974Y-1085042D01*
X24879053Y-1257312D01*
X24447179Y-1651510D01*
X24199032Y-2180973D01*
X24319531Y-2413000D01*
X25527000Y-2413000D01*
X25527000Y-2667000D01*
X24319531Y-2667000D01*
X24199032Y-2899027D01*
X24268852Y-3048000D01*
X18794130Y-3048000D01*
X18699815Y-2953685D01*
X18452605Y-2788504D01*
X18161000Y-2730500D01*
X12636500Y-2730500D01*
X12344895Y-2788504D01*
X12097684Y-2953685D01*
X11017840Y-4033530D01*
X10852659Y-4280740D01*
X10794655Y-4572345D01*
X10794655Y-8828714D01*
X9811688Y-9811681D01*
X9811685Y-9811684D01*
X9176685Y-10446685D01*
X9011504Y-10693895D01*
X8953500Y-10985500D01*
X8953500Y-11046358D01*
X8800878Y-11198714D01*
X8636187Y-11595332D01*
X8635813Y-12024784D01*
X8799811Y-12421689D01*
X9080001Y-12702368D01*
X8625942Y-13156427D01*
X8597668Y-13144687D01*
X8168216Y-13144313D01*
X7771311Y-13308311D01*
X7467378Y-13611714D01*
X7302687Y-14008332D01*
X7302313Y-14437784D01*
X7431694Y-14750911D01*
X6773303Y-15409303D01*
X6591604Y-15681234D01*
X6527800Y-16002000D01*
X6527800Y-18477814D01*
X6527800Y-19972806D01*
X6323303Y-20177303D01*
X6141604Y-20449234D01*
X6077800Y-20770000D01*
X6077800Y-22352000D01*
X6077800Y-23035063D01*
X6041604Y-23089234D01*
X5977800Y-23410000D01*
X5977800Y-23774174D01*
X5977673Y-23774301D01*
X5881000Y-24007690D01*
X5881000Y-24133606D01*
X5109599Y-24905007D01*
X4927900Y-25176938D01*
X4864096Y-25497704D01*
X4864096Y-29095704D01*
X4864096Y-33066510D01*
X4733335Y-33197270D01*
X4318000Y-33114655D01*
X3744511Y-33228729D01*
X3258330Y-33553585D01*
X2933474Y-34039766D01*
X2819400Y-34613255D01*
X2819400Y-34982745D01*
X2933474Y-35556234D01*
X3258330Y-36042415D01*
X3744511Y-36367271D01*
X4318000Y-36481345D01*
X4891489Y-36367271D01*
X5377670Y-36042415D01*
X5588000Y-35727634D01*
X5798330Y-36042415D01*
X6284511Y-36367271D01*
X6858000Y-36481345D01*
X7431489Y-36367271D01*
X7686948Y-36196578D01*
X8351185Y-36860816D01*
X8499376Y-36959834D01*
X8598395Y-37025996D01*
X8598396Y-37025996D01*
X8890000Y-37084000D01*
X10414000Y-37084000D01*
X10414000Y-37083999D01*
X10705604Y-37025996D01*
X10705605Y-37025996D01*
X10952815Y-36860815D01*
X11432779Y-36380850D01*
X11938000Y-36481345D01*
X12511489Y-36367271D01*
X12997670Y-36042415D01*
X13012499Y-36020220D01*
X13076073Y-36173699D01*
X13254702Y-36352327D01*
X13488091Y-36449000D01*
X14192250Y-36449000D01*
X14351000Y-36290250D01*
X14351000Y-34925000D01*
X14331000Y-34925000D01*
X14331000Y-34671000D01*
X14351000Y-34671000D01*
X14351000Y-33305750D01*
X14192250Y-33147000D01*
X13488091Y-33147000D01*
X13254702Y-33243673D01*
X13076073Y-33422301D01*
X13012499Y-33575779D01*
X12997670Y-33553585D01*
X12511489Y-33228729D01*
X11938000Y-33114655D01*
X11364511Y-33228729D01*
X10878330Y-33553585D01*
X10668000Y-33868365D01*
X10556354Y-33701276D01*
X11778315Y-32479316D01*
X11778315Y-32479315D01*
X11778317Y-32479312D01*
X13365815Y-30891815D01*
X13530996Y-30644605D01*
X13530996Y-30644604D01*
X13588999Y-30353000D01*
X13589000Y-30353000D01*
X13589000Y-29238057D01*
X13763615Y-29165730D01*
X13942243Y-28987102D01*
X14829857Y-28099487D01*
X15717185Y-28986815D01*
X16509998Y-29779628D01*
X16509998Y-31706422D01*
X16568002Y-31998027D01*
X16733183Y-32245237D01*
X17970561Y-33482616D01*
X18033552Y-33524704D01*
X17990330Y-33553585D01*
X17665474Y-34039766D01*
X17551400Y-34613255D01*
X17551400Y-34982745D01*
X17665474Y-35556234D01*
X17990330Y-36042415D01*
X18476511Y-36367271D01*
X19050000Y-36481345D01*
X19623489Y-36367271D01*
X20109670Y-36042415D01*
X20320000Y-35727634D01*
X20530330Y-36042415D01*
X21016511Y-36367271D01*
X21590000Y-36481345D01*
X22163489Y-36367271D01*
X22418948Y-36196578D01*
X23083185Y-36860816D01*
X23231376Y-36959834D01*
X23330395Y-37025996D01*
X23330396Y-37025996D01*
X23622000Y-37084000D01*
X27686000Y-37084000D01*
X27686000Y-37083999D01*
X27977604Y-37025996D01*
X27977605Y-37025996D01*
X28224815Y-36860815D01*
X28704779Y-36380850D01*
X29210000Y-36481345D01*
X29783489Y-36367271D01*
X30269670Y-36042415D01*
X30480000Y-35727634D01*
X30690330Y-36042415D01*
X31176511Y-36367271D01*
X31750000Y-36481345D01*
X32323489Y-36367271D01*
X32809670Y-36042415D01*
X32824499Y-36020220D01*
X32888073Y-36173699D01*
X33066702Y-36352327D01*
X33300091Y-36449000D01*
X34004250Y-36449000D01*
X34163000Y-36290250D01*
X34163000Y-34925000D01*
X34143000Y-34925000D01*
X34143000Y-34671000D01*
X34163000Y-34671000D01*
X34163000Y-34651000D01*
X34417000Y-34651000D01*
X34417000Y-34671000D01*
X35629850Y-34671000D01*
X35788600Y-34512250D01*
X35788600Y-33908309D01*
X35788600Y-33655690D01*
X35691927Y-33422301D01*
X35513298Y-33243673D01*
X35279909Y-33147000D01*
X34575750Y-33147000D01*
X34417002Y-33305748D01*
X34417002Y-33214793D01*
X37939193Y-29692602D01*
X52933598Y-29692602D01*
X53254363Y-29628798D01*
X53254364Y-29628798D01*
X53526295Y-29447099D01*
X55710697Y-27262697D01*
X55892396Y-26990766D01*
X55892396Y-26990765D01*
X55956200Y-26670000D01*
X55956200Y-37415000D01*
X35788600Y-37415000D01*
X35788600Y-35940310D01*
X35788600Y-35687691D01*
X35788600Y-35083750D01*
X35629850Y-34925000D01*
X34417000Y-34925000D01*
X34417000Y-36290250D01*
X34575750Y-36449000D01*
X35279909Y-36449000D01*
X35513298Y-36352327D01*
X35691927Y-36173699D01*
X35788600Y-35940310D01*
X35788600Y-37415000D01*
X15976600Y-37415000D01*
X15976600Y-35940310D01*
X15976600Y-35687691D01*
X15976600Y-35083750D01*
X15976600Y-34512250D01*
X15976600Y-33908309D01*
X15976600Y-33655690D01*
X15879927Y-33422301D01*
X15701298Y-33243673D01*
X15467909Y-33147000D01*
X14763750Y-33147000D01*
X14605000Y-33305750D01*
X14605000Y-34671000D01*
X15817850Y-34671000D01*
X15976600Y-34512250D01*
X15976600Y-35083750D01*
X15817850Y-34925000D01*
X14605000Y-34925000D01*
X14605000Y-36290250D01*
X14763750Y-36449000D01*
X15467909Y-36449000D01*
X15701298Y-36352327D01*
X15879927Y-36173699D01*
X15976600Y-35940310D01*
X15976600Y-37415000D01*
X685000Y-37415000D01*
X685000Y-8305000D01*
X7620000Y-8305000D01*
X7882138Y-8252857D01*
X8104368Y-8104368D01*
X8252857Y-7882138D01*
X8305000Y-7620000D01*
X8305000Y-685000D01*
X56211000Y-685000D01*
X56211000Y-7620000D01*
X56263143Y-7882138D01*
X56411632Y-8104368D01*
X56633862Y-8252857D01*
X56896000Y-8305000D01*
X59513000Y-8305000D01*
X59513000Y-37415000D01*
M02*
