%FSLAX46Y46*%
G04 Gerber Fmt 4.6, Leading zero omitted, Abs format (unit mm)*
G04 Created by KiCad (PCBNEW (2014-10-27 BZR 5228)-product) date 2/24/2015 8:35:32 PM*
%MOMM*%
G01*
G04 APERTURE LIST*
%ADD10C,0.100000*%
%ADD11C,1.750000*%
%ADD12R,1.727200X2.032000*%
%ADD13O,1.727200X2.032000*%
%ADD14R,1.727200X1.727200*%
%ADD15O,1.727200X1.727200*%
%ADD16C,1.727200*%
%ADD17C,0.889000*%
%ADD18C,0.406400*%
%ADD19C,0.254000*%
G04 APERTURE END LIST*
D10*
D11*
X8255000Y-30480000D03*
D12*
X48260000Y-25908000D03*
D13*
X51054000Y-25908000D03*
X53340000Y-25908000D03*
D12*
X14478000Y-34798000D03*
D13*
X11938000Y-34798000D03*
X9398000Y-34798000D03*
X6858000Y-34798000D03*
X4318000Y-34798000D03*
D12*
X34290000Y-34798000D03*
D13*
X31750000Y-34798000D03*
X29210000Y-34798000D03*
X26670000Y-34798000D03*
X24130000Y-34798000D03*
X21590000Y-34798000D03*
X19050000Y-34798000D03*
D14*
X16256000Y-10160000D03*
D15*
X13716000Y-10160000D03*
X16256000Y-7620000D03*
X13716000Y-7620000D03*
X16256000Y-5080000D03*
X13716000Y-5080000D03*
D16*
X28194000Y-10160000D03*
D15*
X25654000Y-10160000D03*
X28194000Y-7620000D03*
X25654000Y-7620000D03*
X28194000Y-5080000D03*
X25654000Y-5080000D03*
X28194000Y-2540000D03*
X25654000Y-2540000D03*
D11*
X10795000Y-30480000D03*
D17*
X37338000Y-1778000D03*
X51054000Y-17526000D03*
X18605500Y-11493500D03*
X20891500Y-5016500D03*
X21463000Y-2540000D03*
X20891500Y-8445500D03*
X13462000Y-13462000D03*
X17018000Y-24384000D03*
X22733000Y-21717000D03*
X18986500Y-22415500D03*
X36639500Y-5842000D03*
X13208000Y-20828000D03*
X6858000Y-26924000D03*
X9144000Y-8128000D03*
X3810000Y-15748000D03*
X24130000Y-31242000D03*
X8382000Y-14224000D03*
X8382000Y-16510000D03*
X30099000Y-12065000D03*
X9715500Y-11811000D03*
X9715500Y-18605500D03*
X5080000Y-18542000D03*
X8128000Y-20320000D03*
X8382000Y-24892000D03*
X29972000Y-31750000D03*
D18*
X18605500Y-11493500D02*
X16637000Y-13462000D01*
X18605500Y-10731500D02*
X18605500Y-11493500D01*
X20891500Y-8445500D02*
X20891500Y-5016500D01*
X20891500Y-3111500D02*
X20891500Y-5016500D01*
X25654000Y-2540000D02*
X21463000Y-2540000D01*
X21463000Y-2540000D02*
X20891500Y-3111500D01*
X20891500Y-8445500D02*
X18605500Y-10731500D01*
X16637000Y-13462000D02*
X13462000Y-13462000D01*
X17018000Y-24384000D02*
X18986500Y-22415500D01*
X14478000Y-31242000D02*
X10160000Y-26924000D01*
X10160000Y-26924000D02*
X6858000Y-26924000D01*
X14478000Y-34798000D02*
X14478000Y-31242000D01*
X9144000Y-8128000D02*
X3810000Y-13462000D01*
X12192000Y-5080000D02*
X9144000Y-8128000D01*
X12192000Y-5080000D02*
X13716000Y-5080000D01*
X3810000Y-15748000D02*
X3810000Y-13462000D01*
X24130000Y-34798000D02*
X24130000Y-31242000D01*
D19*
X8382000Y-16510000D02*
X8382000Y-14224000D01*
X30099000Y-12065000D02*
X28194000Y-10160000D01*
X9715500Y-18605500D02*
X9715500Y-11811000D01*
X5080000Y-18542000D02*
X6350000Y-18542000D01*
X6350000Y-18542000D02*
X8128000Y-20320000D01*
X19050000Y-32468424D02*
X11451788Y-24870212D01*
X19050000Y-34798000D02*
X19050000Y-32468424D01*
X8382000Y-24892000D02*
X11430000Y-24892000D01*
X11430000Y-24892000D02*
X11451788Y-24870212D01*
X26670000Y-33274000D02*
X26670000Y-34798000D01*
X28194000Y-31750000D02*
X26670000Y-33274000D01*
X29972000Y-31750000D02*
X28194000Y-31750000D01*
G36*
X59513000Y-37415000D02*
X54838600Y-37415000D01*
X54838600Y-26092745D01*
X54838600Y-25723255D01*
X54724526Y-25149766D01*
X54399670Y-24663585D01*
X53913489Y-24338729D01*
X53340000Y-24224655D01*
X52766511Y-24338729D01*
X52280330Y-24663585D01*
X52197000Y-24788297D01*
X52113670Y-24663585D01*
X51627489Y-24338729D01*
X51054000Y-24224655D01*
X50480511Y-24338729D01*
X49994330Y-24663585D01*
X49758600Y-25016379D01*
X49758600Y-24765691D01*
X49661927Y-24532302D01*
X49483299Y-24353673D01*
X49249910Y-24257000D01*
X48997291Y-24257000D01*
X47270091Y-24257000D01*
X47036702Y-24353673D01*
X46858073Y-24532301D01*
X46761400Y-24765690D01*
X46761400Y-25018309D01*
X46761400Y-27050309D01*
X46858073Y-27283698D01*
X47036701Y-27462327D01*
X47270090Y-27559000D01*
X47522709Y-27559000D01*
X49249909Y-27559000D01*
X49483298Y-27462327D01*
X49661927Y-27283699D01*
X49758600Y-27050310D01*
X49758600Y-26799620D01*
X49994330Y-27152415D01*
X50480511Y-27477271D01*
X51054000Y-27591345D01*
X51627489Y-27477271D01*
X52113670Y-27152415D01*
X52197000Y-27027702D01*
X52280330Y-27152415D01*
X52766511Y-27477271D01*
X53340000Y-27591345D01*
X53913489Y-27477271D01*
X54399670Y-27152415D01*
X54724526Y-26666234D01*
X54838600Y-26092745D01*
X54838600Y-37415000D01*
X35788600Y-37415000D01*
X35788600Y-35940310D01*
X35788600Y-35687691D01*
X35788600Y-35083750D01*
X35788600Y-34512250D01*
X35788600Y-33908309D01*
X35788600Y-33655690D01*
X35691927Y-33422301D01*
X35513298Y-33243673D01*
X35279909Y-33147000D01*
X34575750Y-33147000D01*
X34417000Y-33305750D01*
X34417000Y-34671000D01*
X35629850Y-34671000D01*
X35788600Y-34512250D01*
X35788600Y-35083750D01*
X35629850Y-34925000D01*
X34417000Y-34925000D01*
X34417000Y-36290250D01*
X34575750Y-36449000D01*
X35279909Y-36449000D01*
X35513298Y-36352327D01*
X35691927Y-36173699D01*
X35788600Y-35940310D01*
X35788600Y-37415000D01*
X34163000Y-37415000D01*
X34163000Y-36290250D01*
X34163000Y-34925000D01*
X34143000Y-34925000D01*
X34143000Y-34671000D01*
X34163000Y-34671000D01*
X34163000Y-33305750D01*
X34004250Y-33147000D01*
X33300091Y-33147000D01*
X33066702Y-33243673D01*
X32888073Y-33422301D01*
X32824499Y-33575779D01*
X32809670Y-33553585D01*
X32323489Y-33228729D01*
X31750000Y-33114655D01*
X31178687Y-33228296D01*
X31178687Y-11851216D01*
X31014689Y-11454311D01*
X30711286Y-11150378D01*
X30314668Y-10985687D01*
X30097127Y-10985497D01*
X29656745Y-10545115D01*
X29692339Y-10459398D01*
X29692859Y-9863218D01*
X29465192Y-9312220D01*
X29043997Y-8890290D01*
X29006004Y-8874514D01*
X29253670Y-8709029D01*
X29578526Y-8222848D01*
X29692600Y-7649359D01*
X29692600Y-7590641D01*
X29578526Y-7017152D01*
X29253670Y-6530971D01*
X28982827Y-6350000D01*
X29253670Y-6169029D01*
X29578526Y-5682848D01*
X29692600Y-5109359D01*
X29692600Y-5050641D01*
X29578526Y-4477152D01*
X29253670Y-3990971D01*
X28982827Y-3810000D01*
X29253670Y-3629029D01*
X29578526Y-3142848D01*
X29692600Y-2569359D01*
X29692600Y-2510641D01*
X29578526Y-1937152D01*
X29253670Y-1450971D01*
X28767489Y-1126115D01*
X28194000Y-1012041D01*
X27620511Y-1126115D01*
X27134330Y-1450971D01*
X26918336Y-1774228D01*
X26860821Y-1651510D01*
X26428947Y-1257312D01*
X26013026Y-1085042D01*
X25781000Y-1206183D01*
X25781000Y-2413000D01*
X25801000Y-2413000D01*
X25801000Y-2667000D01*
X25781000Y-2667000D01*
X25781000Y-2687000D01*
X25527000Y-2687000D01*
X25527000Y-2667000D01*
X25527000Y-2413000D01*
X25527000Y-1206183D01*
X25294974Y-1085042D01*
X24879053Y-1257312D01*
X24447179Y-1651510D01*
X24199032Y-2180973D01*
X24319531Y-2413000D01*
X25527000Y-2413000D01*
X25527000Y-2667000D01*
X24319531Y-2667000D01*
X24199032Y-2899027D01*
X24447179Y-3428490D01*
X24865160Y-3810007D01*
X24594330Y-3990971D01*
X24269474Y-4477152D01*
X24155400Y-5050641D01*
X24155400Y-5109359D01*
X24269474Y-5682848D01*
X24594330Y-6169029D01*
X24865172Y-6350000D01*
X24594330Y-6530971D01*
X24269474Y-7017152D01*
X24155400Y-7590641D01*
X24155400Y-7649359D01*
X24269474Y-8222848D01*
X24594330Y-8709029D01*
X24865172Y-8890000D01*
X24594330Y-9070971D01*
X24269474Y-9557152D01*
X24155400Y-10130641D01*
X24155400Y-10189359D01*
X24269474Y-10762848D01*
X24594330Y-11249029D01*
X25080511Y-11573885D01*
X25654000Y-11687959D01*
X26227489Y-11573885D01*
X26713670Y-11249029D01*
X26904489Y-10963446D01*
X26922808Y-11007780D01*
X27344003Y-11429710D01*
X27894602Y-11658339D01*
X28490782Y-11658859D01*
X28578843Y-11622473D01*
X29019500Y-12063130D01*
X29019313Y-12278784D01*
X29183311Y-12675689D01*
X29486714Y-12979622D01*
X29883332Y-13144313D01*
X30312784Y-13144687D01*
X30709689Y-12980689D01*
X31013622Y-12677286D01*
X31178313Y-12280668D01*
X31178687Y-11851216D01*
X31178687Y-33228296D01*
X31176511Y-33228729D01*
X30690330Y-33553585D01*
X30480000Y-33868365D01*
X30269670Y-33553585D01*
X29783489Y-33228729D01*
X29210000Y-33114655D01*
X28636511Y-33228729D01*
X28150330Y-33553585D01*
X27940000Y-33868365D01*
X27729670Y-33553585D01*
X27572837Y-33448792D01*
X28509630Y-32512000D01*
X29207358Y-32512000D01*
X29359714Y-32664622D01*
X29756332Y-32829313D01*
X30185784Y-32829687D01*
X30582689Y-32665689D01*
X30886622Y-32362286D01*
X31051313Y-31965668D01*
X31051687Y-31536216D01*
X30887689Y-31139311D01*
X30584286Y-30835378D01*
X30187668Y-30670687D01*
X29758216Y-30670313D01*
X29361311Y-30834311D01*
X29207353Y-30988000D01*
X28194000Y-30988000D01*
X27902395Y-31046004D01*
X27655184Y-31211185D01*
X26131185Y-32735185D01*
X25966004Y-32982395D01*
X25908000Y-33274000D01*
X25908000Y-33354688D01*
X25610330Y-33553585D01*
X25400000Y-33868365D01*
X25189670Y-33553585D01*
X24968200Y-33405603D01*
X24968200Y-31930574D01*
X25044622Y-31854286D01*
X25209313Y-31457668D01*
X25209687Y-31028216D01*
X25045689Y-30631311D01*
X24742286Y-30327378D01*
X24345668Y-30162687D01*
X23916216Y-30162313D01*
X23519311Y-30326311D01*
X23215378Y-30629714D01*
X23050687Y-31026332D01*
X23050313Y-31455784D01*
X23214311Y-31852689D01*
X23291800Y-31930313D01*
X23291800Y-33405603D01*
X23070330Y-33553585D01*
X22860000Y-33868365D01*
X22649670Y-33553585D01*
X22163489Y-33228729D01*
X21590000Y-33114655D01*
X21016511Y-33228729D01*
X20530330Y-33553585D01*
X20320000Y-33868365D01*
X20109670Y-33553585D01*
X19812000Y-33354688D01*
X19812000Y-32468424D01*
X19753996Y-32176819D01*
X19588815Y-31929609D01*
X19588815Y-31929608D01*
X17754600Y-30095393D01*
X17754600Y-11149910D01*
X17754600Y-10897291D01*
X17754600Y-9170091D01*
X17657927Y-8936702D01*
X17479299Y-8758073D01*
X17325473Y-8694356D01*
X17640526Y-8222848D01*
X17754600Y-7649359D01*
X17754600Y-7590641D01*
X17640526Y-7017152D01*
X17315670Y-6530971D01*
X17044827Y-6350000D01*
X17315670Y-6169029D01*
X17640526Y-5682848D01*
X17754600Y-5109359D01*
X17754600Y-5050641D01*
X17640526Y-4477152D01*
X17315670Y-3990971D01*
X16829489Y-3666115D01*
X16256000Y-3552041D01*
X15682511Y-3666115D01*
X15196330Y-3990971D01*
X14980336Y-4314228D01*
X14922821Y-4191510D01*
X14490947Y-3797312D01*
X14075026Y-3625042D01*
X13843000Y-3746183D01*
X13843000Y-4953000D01*
X13863000Y-4953000D01*
X13863000Y-5207000D01*
X13843000Y-5207000D01*
X13843000Y-5227000D01*
X13589000Y-5227000D01*
X13589000Y-5207000D01*
X13589000Y-4953000D01*
X13589000Y-3746183D01*
X13356974Y-3625042D01*
X12941053Y-3797312D01*
X12509179Y-4191510D01*
X12261032Y-4720973D01*
X12381531Y-4953000D01*
X13589000Y-4953000D01*
X13589000Y-5207000D01*
X12381531Y-5207000D01*
X12261032Y-5439027D01*
X12509179Y-5968490D01*
X12927160Y-6350007D01*
X12656330Y-6530971D01*
X12331474Y-7017152D01*
X12217400Y-7590641D01*
X12217400Y-7649359D01*
X12331474Y-8222848D01*
X12656330Y-8709029D01*
X12927172Y-8890000D01*
X12656330Y-9070971D01*
X12331474Y-9557152D01*
X12217400Y-10130641D01*
X12217400Y-10189359D01*
X12331474Y-10762848D01*
X12656330Y-11249029D01*
X13142511Y-11573885D01*
X13716000Y-11687959D01*
X14289489Y-11573885D01*
X14775670Y-11249029D01*
X14789736Y-11227976D01*
X14854073Y-11383298D01*
X15032701Y-11561927D01*
X15266090Y-11658600D01*
X15518709Y-11658600D01*
X17245909Y-11658600D01*
X17479298Y-11561927D01*
X17657927Y-11383299D01*
X17754600Y-11149910D01*
X17754600Y-30095393D01*
X11990603Y-24331397D01*
X11743393Y-24166216D01*
X11451788Y-24108212D01*
X11342253Y-24130000D01*
X10795187Y-24130000D01*
X10795187Y-18391716D01*
X10631189Y-17994811D01*
X10477500Y-17840853D01*
X10477500Y-12575641D01*
X10630122Y-12423286D01*
X10794813Y-12026668D01*
X10795187Y-11597216D01*
X10631189Y-11200311D01*
X10327786Y-10896378D01*
X9931168Y-10731687D01*
X9501716Y-10731313D01*
X9104811Y-10895311D01*
X8800878Y-11198714D01*
X8636187Y-11595332D01*
X8635813Y-12024784D01*
X8799811Y-12421689D01*
X8953500Y-12575646D01*
X8953500Y-13292442D01*
X8597668Y-13144687D01*
X8168216Y-13144313D01*
X7771311Y-13308311D01*
X7467378Y-13611714D01*
X7302687Y-14008332D01*
X7302313Y-14437784D01*
X7466311Y-14834689D01*
X7620000Y-14988646D01*
X7620000Y-15745358D01*
X7467378Y-15897714D01*
X7302687Y-16294332D01*
X7302313Y-16723784D01*
X7466311Y-17120689D01*
X7769714Y-17424622D01*
X8166332Y-17589313D01*
X8595784Y-17589687D01*
X8953500Y-17441881D01*
X8953500Y-17840858D01*
X8800878Y-17993214D01*
X8636187Y-18389832D01*
X8635813Y-18819284D01*
X8799811Y-19216189D01*
X9103214Y-19520122D01*
X9499832Y-19684813D01*
X9929284Y-19685187D01*
X10326189Y-19521189D01*
X10630122Y-19217786D01*
X10794813Y-18821168D01*
X10795187Y-18391716D01*
X10795187Y-24130000D01*
X9207687Y-24130000D01*
X9207687Y-20106216D01*
X9043689Y-19709311D01*
X8740286Y-19405378D01*
X8343668Y-19240687D01*
X8126128Y-19240497D01*
X6888815Y-18003185D01*
X6641605Y-17838004D01*
X6350000Y-17780000D01*
X5844641Y-17780000D01*
X5692286Y-17627378D01*
X5295668Y-17462687D01*
X4866216Y-17462313D01*
X4469311Y-17626311D01*
X4165378Y-17929714D01*
X4000687Y-18326332D01*
X4000313Y-18755784D01*
X4164311Y-19152689D01*
X4467714Y-19456622D01*
X4864332Y-19621313D01*
X5293784Y-19621687D01*
X5690689Y-19457689D01*
X5844646Y-19304000D01*
X6034369Y-19304000D01*
X7048500Y-20318131D01*
X7048313Y-20533784D01*
X7212311Y-20930689D01*
X7515714Y-21234622D01*
X7912332Y-21399313D01*
X8341784Y-21399687D01*
X8738689Y-21235689D01*
X9042622Y-20932286D01*
X9207313Y-20535668D01*
X9207687Y-20106216D01*
X9207687Y-24130000D01*
X9146641Y-24130000D01*
X8994286Y-23977378D01*
X8597668Y-23812687D01*
X8168216Y-23812313D01*
X7771311Y-23976311D01*
X7467378Y-24279714D01*
X7302687Y-24676332D01*
X7302313Y-25105784D01*
X7466311Y-25502689D01*
X7769714Y-25806622D01*
X8166332Y-25971313D01*
X8595784Y-25971687D01*
X8992689Y-25807689D01*
X9146646Y-25654000D01*
X11157945Y-25654000D01*
X18288000Y-32784054D01*
X18288000Y-33354688D01*
X17990330Y-33553585D01*
X17665474Y-34039766D01*
X17551400Y-34613255D01*
X17551400Y-34982745D01*
X17665474Y-35556234D01*
X17990330Y-36042415D01*
X18476511Y-36367271D01*
X19050000Y-36481345D01*
X19623489Y-36367271D01*
X20109670Y-36042415D01*
X20320000Y-35727634D01*
X20530330Y-36042415D01*
X21016511Y-36367271D01*
X21590000Y-36481345D01*
X22163489Y-36367271D01*
X22649670Y-36042415D01*
X22860000Y-35727634D01*
X23070330Y-36042415D01*
X23556511Y-36367271D01*
X24130000Y-36481345D01*
X24703489Y-36367271D01*
X25189670Y-36042415D01*
X25400000Y-35727634D01*
X25610330Y-36042415D01*
X26096511Y-36367271D01*
X26670000Y-36481345D01*
X27243489Y-36367271D01*
X27729670Y-36042415D01*
X27940000Y-35727634D01*
X28150330Y-36042415D01*
X28636511Y-36367271D01*
X29210000Y-36481345D01*
X29783489Y-36367271D01*
X30269670Y-36042415D01*
X30480000Y-35727634D01*
X30690330Y-36042415D01*
X31176511Y-36367271D01*
X31750000Y-36481345D01*
X32323489Y-36367271D01*
X32809670Y-36042415D01*
X32824499Y-36020220D01*
X32888073Y-36173699D01*
X33066702Y-36352327D01*
X33300091Y-36449000D01*
X34004250Y-36449000D01*
X34163000Y-36290250D01*
X34163000Y-37415000D01*
X15976600Y-37415000D01*
X15976600Y-35940310D01*
X15976600Y-35687691D01*
X15976600Y-35083750D01*
X15976600Y-34512250D01*
X15976600Y-33908309D01*
X15976600Y-33655690D01*
X15879927Y-33422301D01*
X15701298Y-33243673D01*
X15467909Y-33147000D01*
X14763750Y-33147000D01*
X14605000Y-33305750D01*
X14605000Y-34671000D01*
X15817850Y-34671000D01*
X15976600Y-34512250D01*
X15976600Y-35083750D01*
X15817850Y-34925000D01*
X14605000Y-34925000D01*
X14605000Y-36290250D01*
X14763750Y-36449000D01*
X15467909Y-36449000D01*
X15701298Y-36352327D01*
X15879927Y-36173699D01*
X15976600Y-35940310D01*
X15976600Y-37415000D01*
X14351000Y-37415000D01*
X14351000Y-36290250D01*
X14351000Y-34925000D01*
X14331000Y-34925000D01*
X14331000Y-34671000D01*
X14351000Y-34671000D01*
X14351000Y-33305750D01*
X14192250Y-33147000D01*
X13488091Y-33147000D01*
X13254702Y-33243673D01*
X13076073Y-33422301D01*
X13012499Y-33575779D01*
X12997670Y-33553585D01*
X12511489Y-33228729D01*
X12305262Y-33187707D01*
X12305262Y-30180960D01*
X12075862Y-29625771D01*
X11651463Y-29200630D01*
X11096675Y-28970262D01*
X10495960Y-28969738D01*
X9940771Y-29199138D01*
X9524646Y-29614536D01*
X9111463Y-29200630D01*
X8556675Y-28970262D01*
X7955960Y-28969738D01*
X7400771Y-29199138D01*
X6975630Y-29623537D01*
X6745262Y-30178325D01*
X6744738Y-30779040D01*
X6974138Y-31334229D01*
X7398537Y-31759370D01*
X7953325Y-31989738D01*
X8554040Y-31990262D01*
X9109229Y-31760862D01*
X9525353Y-31345463D01*
X9938537Y-31759370D01*
X10493325Y-31989738D01*
X11094040Y-31990262D01*
X11649229Y-31760862D01*
X12074370Y-31336463D01*
X12304738Y-30781675D01*
X12305262Y-30180960D01*
X12305262Y-33187707D01*
X11938000Y-33114655D01*
X11364511Y-33228729D01*
X10878330Y-33553585D01*
X10668000Y-33868365D01*
X10457670Y-33553585D01*
X9971489Y-33228729D01*
X9398000Y-33114655D01*
X8824511Y-33228729D01*
X8338330Y-33553585D01*
X8128000Y-33868365D01*
X7917670Y-33553585D01*
X7431489Y-33228729D01*
X6858000Y-33114655D01*
X6284511Y-33228729D01*
X5798330Y-33553585D01*
X5588000Y-33868365D01*
X5377670Y-33553585D01*
X4891489Y-33228729D01*
X4318000Y-33114655D01*
X3744511Y-33228729D01*
X3258330Y-33553585D01*
X2933474Y-34039766D01*
X2819400Y-34613255D01*
X2819400Y-34982745D01*
X2933474Y-35556234D01*
X3258330Y-36042415D01*
X3744511Y-36367271D01*
X4318000Y-36481345D01*
X4891489Y-36367271D01*
X5377670Y-36042415D01*
X5588000Y-35727634D01*
X5798330Y-36042415D01*
X6284511Y-36367271D01*
X6858000Y-36481345D01*
X7431489Y-36367271D01*
X7917670Y-36042415D01*
X8128000Y-35727634D01*
X8338330Y-36042415D01*
X8824511Y-36367271D01*
X9398000Y-36481345D01*
X9971489Y-36367271D01*
X10457670Y-36042415D01*
X10668000Y-35727634D01*
X10878330Y-36042415D01*
X11364511Y-36367271D01*
X11938000Y-36481345D01*
X12511489Y-36367271D01*
X12997670Y-36042415D01*
X13012499Y-36020220D01*
X13076073Y-36173699D01*
X13254702Y-36352327D01*
X13488091Y-36449000D01*
X14192250Y-36449000D01*
X14351000Y-36290250D01*
X14351000Y-37415000D01*
X685000Y-37415000D01*
X685000Y-8305000D01*
X7620000Y-8305000D01*
X7882138Y-8252857D01*
X8104368Y-8104368D01*
X8252857Y-7882138D01*
X8305000Y-7620000D01*
X8305000Y-685000D01*
X56211000Y-685000D01*
X56211000Y-7620000D01*
X56263143Y-7882138D01*
X56411632Y-8104368D01*
X56633862Y-8252857D01*
X56896000Y-8305000D01*
X59513000Y-8305000D01*
X59513000Y-37415000D01*
X59513000Y-37415000D01*
G37*
X59513000Y-37415000D02*
X54838600Y-37415000D01*
X54838600Y-26092745D01*
X54838600Y-25723255D01*
X54724526Y-25149766D01*
X54399670Y-24663585D01*
X53913489Y-24338729D01*
X53340000Y-24224655D01*
X52766511Y-24338729D01*
X52280330Y-24663585D01*
X52197000Y-24788297D01*
X52113670Y-24663585D01*
X51627489Y-24338729D01*
X51054000Y-24224655D01*
X50480511Y-24338729D01*
X49994330Y-24663585D01*
X49758600Y-25016379D01*
X49758600Y-24765691D01*
X49661927Y-24532302D01*
X49483299Y-24353673D01*
X49249910Y-24257000D01*
X48997291Y-24257000D01*
X47270091Y-24257000D01*
X47036702Y-24353673D01*
X46858073Y-24532301D01*
X46761400Y-24765690D01*
X46761400Y-25018309D01*
X46761400Y-27050309D01*
X46858073Y-27283698D01*
X47036701Y-27462327D01*
X47270090Y-27559000D01*
X47522709Y-27559000D01*
X49249909Y-27559000D01*
X49483298Y-27462327D01*
X49661927Y-27283699D01*
X49758600Y-27050310D01*
X49758600Y-26799620D01*
X49994330Y-27152415D01*
X50480511Y-27477271D01*
X51054000Y-27591345D01*
X51627489Y-27477271D01*
X52113670Y-27152415D01*
X52197000Y-27027702D01*
X52280330Y-27152415D01*
X52766511Y-27477271D01*
X53340000Y-27591345D01*
X53913489Y-27477271D01*
X54399670Y-27152415D01*
X54724526Y-26666234D01*
X54838600Y-26092745D01*
X54838600Y-37415000D01*
X35788600Y-37415000D01*
X35788600Y-35940310D01*
X35788600Y-35687691D01*
X35788600Y-35083750D01*
X35788600Y-34512250D01*
X35788600Y-33908309D01*
X35788600Y-33655690D01*
X35691927Y-33422301D01*
X35513298Y-33243673D01*
X35279909Y-33147000D01*
X34575750Y-33147000D01*
X34417000Y-33305750D01*
X34417000Y-34671000D01*
X35629850Y-34671000D01*
X35788600Y-34512250D01*
X35788600Y-35083750D01*
X35629850Y-34925000D01*
X34417000Y-34925000D01*
X34417000Y-36290250D01*
X34575750Y-36449000D01*
X35279909Y-36449000D01*
X35513298Y-36352327D01*
X35691927Y-36173699D01*
X35788600Y-35940310D01*
X35788600Y-37415000D01*
X34163000Y-37415000D01*
X34163000Y-36290250D01*
X34163000Y-34925000D01*
X34143000Y-34925000D01*
X34143000Y-34671000D01*
X34163000Y-34671000D01*
X34163000Y-33305750D01*
X34004250Y-33147000D01*
X33300091Y-33147000D01*
X33066702Y-33243673D01*
X32888073Y-33422301D01*
X32824499Y-33575779D01*
X32809670Y-33553585D01*
X32323489Y-33228729D01*
X31750000Y-33114655D01*
X31178687Y-33228296D01*
X31178687Y-11851216D01*
X31014689Y-11454311D01*
X30711286Y-11150378D01*
X30314668Y-10985687D01*
X30097127Y-10985497D01*
X29656745Y-10545115D01*
X29692339Y-10459398D01*
X29692859Y-9863218D01*
X29465192Y-9312220D01*
X29043997Y-8890290D01*
X29006004Y-8874514D01*
X29253670Y-8709029D01*
X29578526Y-8222848D01*
X29692600Y-7649359D01*
X29692600Y-7590641D01*
X29578526Y-7017152D01*
X29253670Y-6530971D01*
X28982827Y-6350000D01*
X29253670Y-6169029D01*
X29578526Y-5682848D01*
X29692600Y-5109359D01*
X29692600Y-5050641D01*
X29578526Y-4477152D01*
X29253670Y-3990971D01*
X28982827Y-3810000D01*
X29253670Y-3629029D01*
X29578526Y-3142848D01*
X29692600Y-2569359D01*
X29692600Y-2510641D01*
X29578526Y-1937152D01*
X29253670Y-1450971D01*
X28767489Y-1126115D01*
X28194000Y-1012041D01*
X27620511Y-1126115D01*
X27134330Y-1450971D01*
X26918336Y-1774228D01*
X26860821Y-1651510D01*
X26428947Y-1257312D01*
X26013026Y-1085042D01*
X25781000Y-1206183D01*
X25781000Y-2413000D01*
X25801000Y-2413000D01*
X25801000Y-2667000D01*
X25781000Y-2667000D01*
X25781000Y-2687000D01*
X25527000Y-2687000D01*
X25527000Y-2667000D01*
X25527000Y-2413000D01*
X25527000Y-1206183D01*
X25294974Y-1085042D01*
X24879053Y-1257312D01*
X24447179Y-1651510D01*
X24199032Y-2180973D01*
X24319531Y-2413000D01*
X25527000Y-2413000D01*
X25527000Y-2667000D01*
X24319531Y-2667000D01*
X24199032Y-2899027D01*
X24447179Y-3428490D01*
X24865160Y-3810007D01*
X24594330Y-3990971D01*
X24269474Y-4477152D01*
X24155400Y-5050641D01*
X24155400Y-5109359D01*
X24269474Y-5682848D01*
X24594330Y-6169029D01*
X24865172Y-6350000D01*
X24594330Y-6530971D01*
X24269474Y-7017152D01*
X24155400Y-7590641D01*
X24155400Y-7649359D01*
X24269474Y-8222848D01*
X24594330Y-8709029D01*
X24865172Y-8890000D01*
X24594330Y-9070971D01*
X24269474Y-9557152D01*
X24155400Y-10130641D01*
X24155400Y-10189359D01*
X24269474Y-10762848D01*
X24594330Y-11249029D01*
X25080511Y-11573885D01*
X25654000Y-11687959D01*
X26227489Y-11573885D01*
X26713670Y-11249029D01*
X26904489Y-10963446D01*
X26922808Y-11007780D01*
X27344003Y-11429710D01*
X27894602Y-11658339D01*
X28490782Y-11658859D01*
X28578843Y-11622473D01*
X29019500Y-12063130D01*
X29019313Y-12278784D01*
X29183311Y-12675689D01*
X29486714Y-12979622D01*
X29883332Y-13144313D01*
X30312784Y-13144687D01*
X30709689Y-12980689D01*
X31013622Y-12677286D01*
X31178313Y-12280668D01*
X31178687Y-11851216D01*
X31178687Y-33228296D01*
X31176511Y-33228729D01*
X30690330Y-33553585D01*
X30480000Y-33868365D01*
X30269670Y-33553585D01*
X29783489Y-33228729D01*
X29210000Y-33114655D01*
X28636511Y-33228729D01*
X28150330Y-33553585D01*
X27940000Y-33868365D01*
X27729670Y-33553585D01*
X27572837Y-33448792D01*
X28509630Y-32512000D01*
X29207358Y-32512000D01*
X29359714Y-32664622D01*
X29756332Y-32829313D01*
X30185784Y-32829687D01*
X30582689Y-32665689D01*
X30886622Y-32362286D01*
X31051313Y-31965668D01*
X31051687Y-31536216D01*
X30887689Y-31139311D01*
X30584286Y-30835378D01*
X30187668Y-30670687D01*
X29758216Y-30670313D01*
X29361311Y-30834311D01*
X29207353Y-30988000D01*
X28194000Y-30988000D01*
X27902395Y-31046004D01*
X27655184Y-31211185D01*
X26131185Y-32735185D01*
X25966004Y-32982395D01*
X25908000Y-33274000D01*
X25908000Y-33354688D01*
X25610330Y-33553585D01*
X25400000Y-33868365D01*
X25189670Y-33553585D01*
X24968200Y-33405603D01*
X24968200Y-31930574D01*
X25044622Y-31854286D01*
X25209313Y-31457668D01*
X25209687Y-31028216D01*
X25045689Y-30631311D01*
X24742286Y-30327378D01*
X24345668Y-30162687D01*
X23916216Y-30162313D01*
X23519311Y-30326311D01*
X23215378Y-30629714D01*
X23050687Y-31026332D01*
X23050313Y-31455784D01*
X23214311Y-31852689D01*
X23291800Y-31930313D01*
X23291800Y-33405603D01*
X23070330Y-33553585D01*
X22860000Y-33868365D01*
X22649670Y-33553585D01*
X22163489Y-33228729D01*
X21590000Y-33114655D01*
X21016511Y-33228729D01*
X20530330Y-33553585D01*
X20320000Y-33868365D01*
X20109670Y-33553585D01*
X19812000Y-33354688D01*
X19812000Y-32468424D01*
X19753996Y-32176819D01*
X19588815Y-31929609D01*
X19588815Y-31929608D01*
X17754600Y-30095393D01*
X17754600Y-11149910D01*
X17754600Y-10897291D01*
X17754600Y-9170091D01*
X17657927Y-8936702D01*
X17479299Y-8758073D01*
X17325473Y-8694356D01*
X17640526Y-8222848D01*
X17754600Y-7649359D01*
X17754600Y-7590641D01*
X17640526Y-7017152D01*
X17315670Y-6530971D01*
X17044827Y-6350000D01*
X17315670Y-6169029D01*
X17640526Y-5682848D01*
X17754600Y-5109359D01*
X17754600Y-5050641D01*
X17640526Y-4477152D01*
X17315670Y-3990971D01*
X16829489Y-3666115D01*
X16256000Y-3552041D01*
X15682511Y-3666115D01*
X15196330Y-3990971D01*
X14980336Y-4314228D01*
X14922821Y-4191510D01*
X14490947Y-3797312D01*
X14075026Y-3625042D01*
X13843000Y-3746183D01*
X13843000Y-4953000D01*
X13863000Y-4953000D01*
X13863000Y-5207000D01*
X13843000Y-5207000D01*
X13843000Y-5227000D01*
X13589000Y-5227000D01*
X13589000Y-5207000D01*
X13589000Y-4953000D01*
X13589000Y-3746183D01*
X13356974Y-3625042D01*
X12941053Y-3797312D01*
X12509179Y-4191510D01*
X12261032Y-4720973D01*
X12381531Y-4953000D01*
X13589000Y-4953000D01*
X13589000Y-5207000D01*
X12381531Y-5207000D01*
X12261032Y-5439027D01*
X12509179Y-5968490D01*
X12927160Y-6350007D01*
X12656330Y-6530971D01*
X12331474Y-7017152D01*
X12217400Y-7590641D01*
X12217400Y-7649359D01*
X12331474Y-8222848D01*
X12656330Y-8709029D01*
X12927172Y-8890000D01*
X12656330Y-9070971D01*
X12331474Y-9557152D01*
X12217400Y-10130641D01*
X12217400Y-10189359D01*
X12331474Y-10762848D01*
X12656330Y-11249029D01*
X13142511Y-11573885D01*
X13716000Y-11687959D01*
X14289489Y-11573885D01*
X14775670Y-11249029D01*
X14789736Y-11227976D01*
X14854073Y-11383298D01*
X15032701Y-11561927D01*
X15266090Y-11658600D01*
X15518709Y-11658600D01*
X17245909Y-11658600D01*
X17479298Y-11561927D01*
X17657927Y-11383299D01*
X17754600Y-11149910D01*
X17754600Y-30095393D01*
X11990603Y-24331397D01*
X11743393Y-24166216D01*
X11451788Y-24108212D01*
X11342253Y-24130000D01*
X10795187Y-24130000D01*
X10795187Y-18391716D01*
X10631189Y-17994811D01*
X10477500Y-17840853D01*
X10477500Y-12575641D01*
X10630122Y-12423286D01*
X10794813Y-12026668D01*
X10795187Y-11597216D01*
X10631189Y-11200311D01*
X10327786Y-10896378D01*
X9931168Y-10731687D01*
X9501716Y-10731313D01*
X9104811Y-10895311D01*
X8800878Y-11198714D01*
X8636187Y-11595332D01*
X8635813Y-12024784D01*
X8799811Y-12421689D01*
X8953500Y-12575646D01*
X8953500Y-13292442D01*
X8597668Y-13144687D01*
X8168216Y-13144313D01*
X7771311Y-13308311D01*
X7467378Y-13611714D01*
X7302687Y-14008332D01*
X7302313Y-14437784D01*
X7466311Y-14834689D01*
X7620000Y-14988646D01*
X7620000Y-15745358D01*
X7467378Y-15897714D01*
X7302687Y-16294332D01*
X7302313Y-16723784D01*
X7466311Y-17120689D01*
X7769714Y-17424622D01*
X8166332Y-17589313D01*
X8595784Y-17589687D01*
X8953500Y-17441881D01*
X8953500Y-17840858D01*
X8800878Y-17993214D01*
X8636187Y-18389832D01*
X8635813Y-18819284D01*
X8799811Y-19216189D01*
X9103214Y-19520122D01*
X9499832Y-19684813D01*
X9929284Y-19685187D01*
X10326189Y-19521189D01*
X10630122Y-19217786D01*
X10794813Y-18821168D01*
X10795187Y-18391716D01*
X10795187Y-24130000D01*
X9207687Y-24130000D01*
X9207687Y-20106216D01*
X9043689Y-19709311D01*
X8740286Y-19405378D01*
X8343668Y-19240687D01*
X8126128Y-19240497D01*
X6888815Y-18003185D01*
X6641605Y-17838004D01*
X6350000Y-17780000D01*
X5844641Y-17780000D01*
X5692286Y-17627378D01*
X5295668Y-17462687D01*
X4866216Y-17462313D01*
X4469311Y-17626311D01*
X4165378Y-17929714D01*
X4000687Y-18326332D01*
X4000313Y-18755784D01*
X4164311Y-19152689D01*
X4467714Y-19456622D01*
X4864332Y-19621313D01*
X5293784Y-19621687D01*
X5690689Y-19457689D01*
X5844646Y-19304000D01*
X6034369Y-19304000D01*
X7048500Y-20318131D01*
X7048313Y-20533784D01*
X7212311Y-20930689D01*
X7515714Y-21234622D01*
X7912332Y-21399313D01*
X8341784Y-21399687D01*
X8738689Y-21235689D01*
X9042622Y-20932286D01*
X9207313Y-20535668D01*
X9207687Y-20106216D01*
X9207687Y-24130000D01*
X9146641Y-24130000D01*
X8994286Y-23977378D01*
X8597668Y-23812687D01*
X8168216Y-23812313D01*
X7771311Y-23976311D01*
X7467378Y-24279714D01*
X7302687Y-24676332D01*
X7302313Y-25105784D01*
X7466311Y-25502689D01*
X7769714Y-25806622D01*
X8166332Y-25971313D01*
X8595784Y-25971687D01*
X8992689Y-25807689D01*
X9146646Y-25654000D01*
X11157945Y-25654000D01*
X18288000Y-32784054D01*
X18288000Y-33354688D01*
X17990330Y-33553585D01*
X17665474Y-34039766D01*
X17551400Y-34613255D01*
X17551400Y-34982745D01*
X17665474Y-35556234D01*
X17990330Y-36042415D01*
X18476511Y-36367271D01*
X19050000Y-36481345D01*
X19623489Y-36367271D01*
X20109670Y-36042415D01*
X20320000Y-35727634D01*
X20530330Y-36042415D01*
X21016511Y-36367271D01*
X21590000Y-36481345D01*
X22163489Y-36367271D01*
X22649670Y-36042415D01*
X22860000Y-35727634D01*
X23070330Y-36042415D01*
X23556511Y-36367271D01*
X24130000Y-36481345D01*
X24703489Y-36367271D01*
X25189670Y-36042415D01*
X25400000Y-35727634D01*
X25610330Y-36042415D01*
X26096511Y-36367271D01*
X26670000Y-36481345D01*
X27243489Y-36367271D01*
X27729670Y-36042415D01*
X27940000Y-35727634D01*
X28150330Y-36042415D01*
X28636511Y-36367271D01*
X29210000Y-36481345D01*
X29783489Y-36367271D01*
X30269670Y-36042415D01*
X30480000Y-35727634D01*
X30690330Y-36042415D01*
X31176511Y-36367271D01*
X31750000Y-36481345D01*
X32323489Y-36367271D01*
X32809670Y-36042415D01*
X32824499Y-36020220D01*
X32888073Y-36173699D01*
X33066702Y-36352327D01*
X33300091Y-36449000D01*
X34004250Y-36449000D01*
X34163000Y-36290250D01*
X34163000Y-37415000D01*
X15976600Y-37415000D01*
X15976600Y-35940310D01*
X15976600Y-35687691D01*
X15976600Y-35083750D01*
X15976600Y-34512250D01*
X15976600Y-33908309D01*
X15976600Y-33655690D01*
X15879927Y-33422301D01*
X15701298Y-33243673D01*
X15467909Y-33147000D01*
X14763750Y-33147000D01*
X14605000Y-33305750D01*
X14605000Y-34671000D01*
X15817850Y-34671000D01*
X15976600Y-34512250D01*
X15976600Y-35083750D01*
X15817850Y-34925000D01*
X14605000Y-34925000D01*
X14605000Y-36290250D01*
X14763750Y-36449000D01*
X15467909Y-36449000D01*
X15701298Y-36352327D01*
X15879927Y-36173699D01*
X15976600Y-35940310D01*
X15976600Y-37415000D01*
X14351000Y-37415000D01*
X14351000Y-36290250D01*
X14351000Y-34925000D01*
X14331000Y-34925000D01*
X14331000Y-34671000D01*
X14351000Y-34671000D01*
X14351000Y-33305750D01*
X14192250Y-33147000D01*
X13488091Y-33147000D01*
X13254702Y-33243673D01*
X13076073Y-33422301D01*
X13012499Y-33575779D01*
X12997670Y-33553585D01*
X12511489Y-33228729D01*
X12305262Y-33187707D01*
X12305262Y-30180960D01*
X12075862Y-29625771D01*
X11651463Y-29200630D01*
X11096675Y-28970262D01*
X10495960Y-28969738D01*
X9940771Y-29199138D01*
X9524646Y-29614536D01*
X9111463Y-29200630D01*
X8556675Y-28970262D01*
X7955960Y-28969738D01*
X7400771Y-29199138D01*
X6975630Y-29623537D01*
X6745262Y-30178325D01*
X6744738Y-30779040D01*
X6974138Y-31334229D01*
X7398537Y-31759370D01*
X7953325Y-31989738D01*
X8554040Y-31990262D01*
X9109229Y-31760862D01*
X9525353Y-31345463D01*
X9938537Y-31759370D01*
X10493325Y-31989738D01*
X11094040Y-31990262D01*
X11649229Y-31760862D01*
X12074370Y-31336463D01*
X12304738Y-30781675D01*
X12305262Y-30180960D01*
X12305262Y-33187707D01*
X11938000Y-33114655D01*
X11364511Y-33228729D01*
X10878330Y-33553585D01*
X10668000Y-33868365D01*
X10457670Y-33553585D01*
X9971489Y-33228729D01*
X9398000Y-33114655D01*
X8824511Y-33228729D01*
X8338330Y-33553585D01*
X8128000Y-33868365D01*
X7917670Y-33553585D01*
X7431489Y-33228729D01*
X6858000Y-33114655D01*
X6284511Y-33228729D01*
X5798330Y-33553585D01*
X5588000Y-33868365D01*
X5377670Y-33553585D01*
X4891489Y-33228729D01*
X4318000Y-33114655D01*
X3744511Y-33228729D01*
X3258330Y-33553585D01*
X2933474Y-34039766D01*
X2819400Y-34613255D01*
X2819400Y-34982745D01*
X2933474Y-35556234D01*
X3258330Y-36042415D01*
X3744511Y-36367271D01*
X4318000Y-36481345D01*
X4891489Y-36367271D01*
X5377670Y-36042415D01*
X5588000Y-35727634D01*
X5798330Y-36042415D01*
X6284511Y-36367271D01*
X6858000Y-36481345D01*
X7431489Y-36367271D01*
X7917670Y-36042415D01*
X8128000Y-35727634D01*
X8338330Y-36042415D01*
X8824511Y-36367271D01*
X9398000Y-36481345D01*
X9971489Y-36367271D01*
X10457670Y-36042415D01*
X10668000Y-35727634D01*
X10878330Y-36042415D01*
X11364511Y-36367271D01*
X11938000Y-36481345D01*
X12511489Y-36367271D01*
X12997670Y-36042415D01*
X13012499Y-36020220D01*
X13076073Y-36173699D01*
X13254702Y-36352327D01*
X13488091Y-36449000D01*
X14192250Y-36449000D01*
X14351000Y-36290250D01*
X14351000Y-37415000D01*
X685000Y-37415000D01*
X685000Y-8305000D01*
X7620000Y-8305000D01*
X7882138Y-8252857D01*
X8104368Y-8104368D01*
X8252857Y-7882138D01*
X8305000Y-7620000D01*
X8305000Y-685000D01*
X56211000Y-685000D01*
X56211000Y-7620000D01*
X56263143Y-7882138D01*
X56411632Y-8104368D01*
X56633862Y-8252857D01*
X56896000Y-8305000D01*
X59513000Y-8305000D01*
X59513000Y-37415000D01*
M02*
